<?xml version="1.0" encoding="utf-8"?>
<!-- Generator: Adobe Illustrator 28.1.0, SVG Export Plug-In . SVG Version: 6.00 Build 0)  -->
<svg version="1.1" id="Layer_1" xmlns="http://www.w3.org/2000/svg" xmlns:xlink="http://www.w3.org/1999/xlink" x="0px" y="0px"
	 viewBox="0 0 110.55 76.54" style="enable-background:new 0 0 110.55 76.54;" xml:space="preserve">
<style type="text/css">
	.st0{display:none;}
	.st1{display:inline;fill:none;}
	.st2{fill:#808080;}
	.st3{fill:#FFFFFF;}
	.st4{fill:none;}
</style>
<g id="Layer_2_00000073722119373351752270000017113015111246931634_" class="st0">
	<line class="st1" x1="-24.13" y1="74.54" x2="142.13" y2="74.54"/>
	<line class="st1" x1="-24.13" y1="2" x2="142.13" y2="2"/>
</g>
<path d="M-5351.56,183.13c0-4.69,1.76-9.61,2.23-11.95c0.47-2.23,1.29-10.9-7.97-10.9c-9.26,0-8.44,8.67-7.97,10.9
	c0.47,2.23,2.23,7.26,2.23,11.95c0,5.39-2.34,10.08-4.57,15.47c-2.81-7.5-6.44-13.83-6.44-21.09c0-5.62,2.11-11.6,2.69-14.3
	c0.47-2.81,1.52-13.12-9.61-13.12s-10.08,10.31-9.61,13.01c0.47,2.69,2.69,8.67,2.69,14.3c0,7.26-3.75,13.71-6.44,21.09
	c-2.11-5.27-4.57-10.08-4.57-15.47c0-4.69,1.76-9.61,2.23-11.95c0.47-2.23,1.29-10.9-7.97-10.9s-8.44,8.67-7.97,10.9
	s2.23,7.26,2.23,11.95c0,9.73-7.85,17.58-7.85,30c0,10.55,4.57,24.14,6.8,25.54h13.71c0.94-0.59,2.11-3.05,3.4-6.68
	c1.64,6.21,3.75,11.13,5.16,11.95h16.4c1.41-0.82,3.52-5.74,5.27-11.95c1.17,3.52,2.46,6.09,3.4,6.68h13.59
	c2.23-1.29,6.8-15,6.8-25.54C-5343.71,200.59-5351.56,192.74-5351.56,183.13z M-5361.05,165.09c0.7-0.82,1.99-1.29,3.75-1.29
	s3.05,0.47,3.75,1.29c1.17,1.41,1.05,4.1,0.82,5.39c-0.12,0.47-0.23,1.29-0.47,2.11c-0.23,1.05-0.59,2.23-0.94,3.63h-6.21
	c-0.23-1.41-0.59-2.58-0.94-3.63c-0.23-0.82-0.47-1.64-0.47-2.11C-5362.11,169.19-5362.23,166.49-5361.05,165.09z M-5354.96,184.3
	h-4.69c0-0.47,0.12-0.82,0.12-1.29c0-0.82-0.12-1.64-0.12-2.58h4.8c-0.12,0.82-0.12,1.64-0.12,2.58
	C-5355.08,183.48-5354.96,183.95-5354.96,184.3z M-5386.01,155.36c0.94-1.17,2.69-1.76,5.04-1.76c2.34,0,4.1,0.59,5.04,1.76
	c1.52,1.87,1.41,5.39,1.05,7.03c-0.12,0.59-0.35,1.52-0.59,2.58c-0.35,1.29-0.7,2.69-1.05,4.22h-8.91c-0.35-1.52-0.7-2.93-1.05-4.22
	c-0.23-1.05-0.59-1.99-0.59-2.58C-5387.42,160.63-5387.54,157.23-5386.01,155.36z M-5377.46,178.91h-7.03
	c0-0.47,0.12-1.05,0.12-1.52c0-1.05-0.12-1.99-0.12-3.05h7.03c-0.12,0.94-0.12,1.99-0.12,3.05
	C-5377.58,177.86-5377.58,178.44-5377.46,178.91z M-5408.39,165.09c0.7-0.82,1.99-1.29,3.75-1.29s3.05,0.47,3.75,1.29
	c1.17,1.41,1.05,4.1,0.82,5.39c-0.12,0.47-0.23,1.29-0.47,2.11c-0.23,1.05-0.59,2.23-0.94,3.63h-6.21
	c-0.35-1.41-0.59-2.58-0.94-3.63c-0.23-0.82-0.47-1.64-0.47-2.11C-5409.45,169.19-5409.56,166.49-5408.39,165.09z M-5402.3,184.3
	h-4.69c0-0.47,0-0.82,0-1.29c0-0.82,0-1.64-0.12-2.58h4.8c-0.12,0.82-0.12,1.64-0.12,2.58
	C-5402.42,183.48-5402.3,183.95-5402.3,184.3z M-5399.49,235.04h-10.31c-1.64-3.16-4.92-13.24-4.92-22.03
	c0-5.86,1.99-10.78,3.98-15.47c1.17-2.81,2.46-5.74,3.16-8.91h5.86c0.7,3.05,1.99,5.98,3.16,8.91c0.82,2.11,1.76,4.22,2.46,6.44
	c-0.7,2.93-1.17,5.98-1.17,9.37c0,3.75,0.47,7.73,1.17,11.6C-5397.14,229.41-5398.55,233.28-5399.49,235.04z M-5374.41,240.31
	h-13.12c-1.41-2.34-3.52-8.55-4.92-15.35c-0.82-3.87-1.29-7.85-1.29-11.6c0-3.4,0.59-6.44,1.41-9.37c0.94-3.28,2.23-6.44,3.52-9.49
	c1.41-3.4,2.81-6.8,3.75-10.43h8.55c0.82,3.63,2.34,7.03,3.75,10.43c1.29,3.05,2.58,6.09,3.52,9.49c0.82,2.93,1.41,5.98,1.41,9.37
	c0,3.75-0.47,7.85-1.29,11.6C-5370.78,231.76-5373.01,237.97-5374.41,240.31z M-5352.15,235.04h-10.31
	c-0.94-1.76-2.34-5.62-3.4-10.08c0.7-3.87,1.17-7.97,1.17-11.6c0-3.4-0.47-6.44-1.17-9.37c0.7-2.23,1.64-4.34,2.46-6.44
	c1.17-2.81,2.46-5.74,3.16-8.91h5.86c0.7,3.05,1.99,5.98,3.16,8.91c1.99,4.69,3.98,9.61,3.98,15.47
	C-5347.23,221.8-5350.51,231.87-5352.15,235.04z"/>
<g>
	<path d="M2837.21,223.42c-0.28,0-0.58-0.01-0.88-0.04c-1.76-0.17-3.86-1.99-6.4-5.58c-1.96-2.76-4.19-6.59-6.65-11.36
		c-4.17-8.13-7.85-16.84-8.92-19.52c-1.59-3.99-0.94-7.98,1.88-11.54c2.08-2.63,4.59-4.09,4.7-4.15l0.03-0.01
		c6.97-3.65,11.54-4.92,14.41-4c1.2,0.38,2.1,1.15,2.67,2.28c1.87,3.68-1.47,8.94-1.61,9.16l-0.05,0.07l-0.06,0.06
		c-3.8,3.83-5.87,7.96-6.15,12.27c-0.52,7.94,3.64,11.82,7.32,14.31c4.09,2.77,7.44,8.29,6.78,11.15c-0.66,2.82-1.84,4.8-3.51,5.89
		C2839.75,223.09,2838.58,223.42,2837.21,223.42z M2821.75,172.66c-0.18,0.11-2.43,1.46-4.25,3.77c-2.44,3.11-2.99,6.43-1.61,9.88
		c1.06,2.65,4.71,11.3,8.85,19.38c2.42,4.71,4.61,8.47,6.53,11.17c2.91,4.11,4.52,4.83,5.22,4.9c2.06,0.19,4.94-0.18,6.21-5.6
		c0.42-1.8-2.14-6.74-6.1-9.42c-3.73-2.52-8.61-6.91-8.03-15.78c0.31-4.69,2.51-9.14,6.55-13.25c0.36-0.58,2.83-4.81,1.49-7.47
		c-0.37-0.74-0.93-1.21-1.71-1.46C2832.53,168.03,2828.11,169.33,2821.75,172.66z"/>
	<path d="M2816.86,173.11c-0.29,0-0.59-0.07-0.88-0.2c-0.87-0.41-1.6-1.41-1.96-2.67c-0.59-2.05-0.05-4.02,1.25-4.58
		c0.5-0.22,1.07-0.2,1.61,0.05c0.87,0.41,1.6,1.4,1.97,2.67c0.59,2.05,0.05,4.01-1.25,4.58l0,0
		C2817.36,173.06,2817.11,173.11,2816.86,173.11z M2816,167.14c-0.04,0-0.07,0.01-0.08,0.02c-0.38,0.17-0.71,1.3-0.33,2.62
		c0.26,0.9,0.74,1.47,1.09,1.64c0.16,0.07,0.23,0.04,0.26,0.03c0.38-0.17,0.71-1.3,0.33-2.63c-0.26-0.9-0.74-1.47-1.09-1.64
		C2816.1,167.15,2816.04,167.14,2816,167.14z"/>
	<path d="M2821.58,169.13c-0.3,0-0.6-0.07-0.9-0.21c-0.89-0.42-1.65-1.45-2.02-2.75c-0.61-2.11-0.06-4.14,1.28-4.72
		c0.51-0.22,1.1-0.2,1.64,0.05c0.89,0.42,1.65,1.45,2.02,2.75c0.61,2.11,0.06,4.14-1.28,4.72l0,0
		C2822.09,169.08,2821.84,169.13,2821.58,169.13z M2820.69,162.94c-0.05,0-0.08,0.01-0.1,0.02c-0.41,0.18-0.76,1.37-0.36,2.76
		c0.27,0.95,0.78,1.55,1.15,1.73c0.18,0.08,0.26,0.05,0.29,0.03l0,0c0.41-0.18,0.76-1.37,0.36-2.76c-0.27-0.95-0.77-1.55-1.15-1.72
		C2820.8,162.95,2820.74,162.94,2820.69,162.94z"/>
	<path d="M2827.12,166.98c-0.31,0-0.63-0.07-0.94-0.22c-0.94-0.44-1.73-1.53-2.13-2.91c-0.64-2.23-0.07-4.37,1.34-4.98
		c0.54-0.23,1.14-0.21,1.71,0.06c0.94,0.44,1.74,1.53,2.13,2.91c0.65,2.23,0.07,4.37-1.34,4.98
		C2827.65,166.93,2827.39,166.98,2827.12,166.98z M2826.16,160.36c-0.06,0-0.11,0.02-0.13,0.03c-0.47,0.2-0.86,1.48-0.41,3.02
		c0.32,1.1,0.88,1.7,1.26,1.88c0.21,0.1,0.32,0.05,0.36,0.03l0,0c0.47-0.2,0.86-1.48,0.41-3.02c-0.32-1.1-0.88-1.7-1.26-1.88
		C2826.3,160.37,2826.22,160.36,2826.16,160.36z"/>
	<path d="M2834,165.94c-0.48,0-0.96-0.15-1.4-0.44c-1.09-0.72-1.9-2.23-2.16-4.04c-0.19-1.31-0.07-2.64,0.33-3.73
		c0.45-1.22,1.22-2.04,2.15-2.29c0.68-0.19,1.38-0.06,2.03,0.36c1.09,0.71,1.9,2.23,2.16,4.04c0.19,1.31,0.07,2.64-0.33,3.73
		c-0.45,1.22-1.21,2.04-2.15,2.29C2834.42,165.91,2834.21,165.94,2834,165.94z M2833.54,156.98c-0.06,0-0.12,0.01-0.19,0.03l0,0
		c-0.87,0.24-1.61,2.09-1.3,4.22c0.19,1.32,0.75,2.46,1.44,2.9c0.25,0.16,0.48,0.21,0.7,0.15c0.86-0.24,1.6-2.09,1.3-4.22
		c-0.19-1.32-0.75-2.46-1.44-2.91C2833.87,157.04,2833.71,156.98,2833.54,156.98z"/>
	<path d="M2812.84,177.71c-0.28,0-0.56-0.06-0.83-0.19c-0.8-0.38-1.48-1.29-1.81-2.45c-0.54-1.88-0.04-3.7,1.17-4.22
		c0.47-0.21,1.01-0.19,1.51,0.05c0.8,0.38,1.48,1.29,1.81,2.45h0c0.54,1.88,0.04,3.69-1.17,4.22
		C2813.31,177.66,2813.08,177.71,2812.84,177.71z M2812.06,172.34c-0.02,0-0.03,0.01-0.04,0.01c-0.28,0.12-0.59,1.07-0.25,2.26
		c0.23,0.79,0.63,1.28,0.94,1.43c0.11,0.05,0.15,0.03,0.17,0.03c0.28-0.12,0.59-1.07,0.24-2.26l0,0c-0.23-0.79-0.63-1.28-0.94-1.43
		C2812.13,172.35,2812.09,172.34,2812.06,172.34z"/>
	<path d="M2855.69,224.22c-1.06,0-2.02-0.23-2.9-0.69c-1.76-0.93-3.13-2.79-4.05-5.54c-0.94-2.78,1.88-8.6,5.69-11.74
		c3.43-2.83,7.2-7.09,5.93-14.94c-0.69-4.26-3.14-8.17-7.28-11.63l-0.07-0.05l-0.05-0.07c-0.16-0.21-3.98-5.12-2.47-8.97l0,0
		c0.46-1.18,1.28-2.03,2.44-2.52c2.77-1.18,7.44-0.35,14.73,2.61l0.03,0.01c0.11,0.05,2.75,1.26,5.07,3.68
		c3.14,3.28,4.17,7.19,2.97,11.31c-0.81,2.76-3.64,11.79-7.02,20.28c-1.99,4.99-3.85,9.01-5.54,11.94c-2.19,3.81-4.1,5.83-5.84,6.16
		C2856.74,224.16,2856.2,224.22,2855.69,224.22z M2854.18,178.47c4.41,3.7,7.03,7.93,7.78,12.57c1.42,8.78-3.03,13.6-6.5,16.47
		c-3.68,3.04-5.77,8.2-5.18,9.96c1.78,5.28,4.68,5.37,6.71,4.98c0.69-0.13,2.22-1.01,4.73-5.37c1.65-2.87,3.48-6.82,5.44-11.73
		c3.36-8.43,6.17-17.39,6.97-20.13c1.04-3.56,0.18-6.82-2.54-9.68c-2.03-2.13-4.4-3.26-4.59-3.35c-6.65-2.71-11.17-3.59-13.45-2.62
		c-0.75,0.32-1.26,0.85-1.56,1.62C2850.91,173.95,2853.77,177.92,2854.18,178.47z"/>
	<path d="M2871.74,172.16c-0.19,0-0.38-0.03-0.56-0.09c-1.35-0.44-2.07-2.35-1.68-4.44c0.24-1.29,0.88-2.35,1.7-2.84
		c0.51-0.3,1.07-0.37,1.6-0.2c1.35,0.44,2.07,2.35,1.68,4.44v0c-0.24,1.29-0.88,2.35-1.7,2.84
		C2872.44,172.06,2872.09,172.16,2871.74,172.16z M2872.23,166.13c-0.04,0-0.1,0.01-0.19,0.07c-0.34,0.2-0.76,0.81-0.93,1.74
		c-0.26,1.36,0.18,2.45,0.58,2.58c0.03,0.01,0.1,0.03,0.25-0.06c0.34-0.2,0.76-0.82,0.93-1.74v0c0.26-1.36-0.18-2.45-0.57-2.58
		C2872.28,166.14,2872.26,166.13,2872.23,166.13z"/>
	<path d="M2866.65,168.66c-0.19,0-0.39-0.03-0.58-0.09c-1.39-0.45-2.13-2.42-1.72-4.58c0.25-1.33,0.91-2.43,1.75-2.93
		c0.52-0.31,1.1-0.38,1.63-0.21c1.39,0.45,2.13,2.41,1.72,4.58v0c-0.25,1.33-0.91,2.43-1.75,2.93
		C2867.37,168.56,2867.01,168.66,2866.65,168.66z M2867.16,162.4c-0.05,0-0.12,0.01-0.22,0.07c-0.36,0.21-0.8,0.86-0.98,1.83
		c-0.27,1.43,0.19,2.58,0.62,2.72c0.03,0.01,0.12,0.04,0.29-0.06c0.36-0.21,0.8-0.86,0.98-1.83c0.27-1.43-0.19-2.58-0.61-2.71
		C2867.22,162.4,2867.2,162.4,2867.16,162.4z"/>
	<path d="M2860.93,167.05c-0.2,0-0.4-0.03-0.6-0.09c-1.46-0.47-2.23-2.55-1.8-4.83c0.26-1.41,0.95-2.57,1.85-3.1
		c0.54-0.32,1.15-0.4,1.7-0.22c1.46,0.47,2.23,2.55,1.8,4.83v0c-0.27,1.41-0.96,2.57-1.85,3.1
		C2861.68,166.94,2861.3,167.05,2860.93,167.05z M2861.47,160.35c-0.06,0-0.15,0.02-0.26,0.09c-0.36,0.22-0.86,0.87-1.07,1.99
		c-0.3,1.58,0.21,2.81,0.7,2.97c0.04,0.01,0.16,0.05,0.36-0.07c0.36-0.22,0.86-0.87,1.07-1.99c0.3-1.58-0.21-2.81-0.7-2.97
		C2861.55,160.36,2861.52,160.35,2861.47,160.35z"/>
	<path d="M2853.95,166.66c-0.14,0-0.27-0.01-0.41-0.04c-0.96-0.17-1.79-0.91-2.36-2.08c-0.51-1.05-0.75-2.36-0.69-3.68l0,0
		c0.09-1.83,0.75-3.42,1.77-4.23c0.6-0.48,1.29-0.67,1.99-0.55c0.96,0.17,1.8,0.91,2.36,2.08c0.51,1.05,0.75,2.36,0.69,3.69
		c-0.09,1.83-0.75,3.41-1.76,4.23C2855.05,166.46,2854.51,166.66,2853.95,166.66z M2853.84,157.69c-0.18,0-0.37,0.07-0.56,0.22
		c-0.64,0.51-1.09,1.7-1.15,3.03v0c-0.1,2.14,0.81,3.92,1.7,4.07c0.23,0.04,0.45-0.03,0.68-0.22c0.64-0.51,1.09-1.7,1.15-3.03
		c0.1-2.14-0.81-3.92-1.7-4.07C2853.92,157.69,2853.88,157.69,2853.84,157.69z"/>
	<path d="M2876.19,176.37c-0.18,0-0.36-0.03-0.53-0.08l0,0c-1.25-0.41-1.92-2.17-1.56-4.09c0.22-1.19,0.81-2.16,1.57-2.61
		c0.48-0.28,1.01-0.35,1.5-0.19c1.25,0.4,1.93,2.16,1.56,4.09c-0.22,1.18-0.81,2.16-1.57,2.61
		C2876.85,176.28,2876.52,176.37,2876.19,176.37z M2876.16,174.73c0.02,0.01,0.06,0.02,0.16-0.04c0.29-0.17,0.65-0.7,0.8-1.51
		c0.23-1.22-0.17-2.13-0.46-2.23c-0.02-0.01-0.06-0.02-0.16,0.04c-0.29,0.17-0.65,0.7-0.8,1.51
		C2875.47,173.71,2875.87,174.63,2876.16,174.73z"/>
</g>
<path class="st2" d="M4042.06,188.72c0.42-3.16,0.33-6.36-0.27-9.5l-2.14,0.24c0,1.39-1.07,4.08-2.45,6.71
	c-3.13-2.2-5.81-4.97-7.9-8.18c4.42-9.63,2.97-10.53,2.33-10.92c-1.07-0.49-2.33-0.36-3.28,0.35c-0.14-0.39-0.42-0.71-0.79-0.9
	c-1.22-0.61-4.8,0.82-8.81,2.86c-15.67-3.21-31.86-0.06-34.83,1.07c-2.36,0.91-9.81,0.69-12.57,0.52
	c-7.22,0.54-14.01,3.66-19.13,8.78c-2.02,1.98-3.45,4.49-4.12,7.24c-1.92,0.9-4.55,3.45-3.64,8.25c1.07,5.66,1.68,6.9,1.79,7.1
	l1.87-1.07c0,0-0.56-1.19-1.56-6.42c-0.48-1.71-0.07-3.54,1.07-4.89c-0.39,5.22,1.37,10.18,2.25,12.67c0.21,0.6,0.4,1.07,0.46,1.38
	c0.27,1.07-2.3,4.5-4.87,6.97l-0.35,0.33l0.96,21.11h8.67l-0.22-1.26c-0.66-3.37-1.12-6.78-1.38-10.21c0.07-1.7,1.5-3.15,4.22-4.28
	l4.87,15.77h9.24l-4.99-10.71l-0.09-0.15c-0.52-0.76-1.43-2.65-0.75-3.29c0.47-0.3,0.98-0.54,1.52-0.7
	c2.35-0.87,6.22-2.28,7.39-8.44c3.05,0.35,6.12,0.52,9.2,0.52c2.89,0,5.78-0.17,8.65-0.51c0.04,2.33,0.52,4.63,1.43,6.78
	c1.88,3.39,4.34,15.49,4.37,15.61l0.17,0.86h9.37l-4.28-11.65l-0.25-0.15c-0.11-0.14-0.72-1.22,0.6-4.49l7.96,16.28h8.89
	l-5.42-11.45l-0.12-0.24l-0.18-0.15c-0.05,0-1.38-1.19-0.52-4.13c0.91-3.14,1.99-7.91,2.34-9.47c1.2-0.58,2.35-1.27,3.44-2.04
	c0.76,0.16,1.53,0.24,2.3,0.24c2.86-0.17,5.67-0.8,8.33-1.87c0.83-0.29,1.63-0.56,2.28-0.74c4.61-1.26,9.35,1.01,9.4,1.07l0.92,0.45
	l0.49-0.9c0.82-1.52,4.9-9.23,4.9-11.95v-0.97l-0.87-0.15C4045.94,189.9,4043.96,189.44,4042.06,188.72z M4027.96,175.76
	c-0.58-1.07-0.97-1.85-1.18-2.32c0.52-1.04,0.96-2.11,1.33-3.21c0.62-0.59,1.35-1.06,2.14-1.37
	C4029.76,171.24,4028.99,173.56,4027.96,175.76z M3966.44,215.61c-0.82,0.23-1.59,0.62-2.26,1.15c-2.14,1.97,0,5.35,0.4,5.98
	l3.53,7.56h-4.28l-4.46-14.44c2.1-0.86,3.63-2.71,4.1-4.92l1.96-3.31c1.19,0.29,3.66,0.84,7.01,1.3
	C3971.48,213.77,3968.74,214.78,3966.44,215.61z M4012.35,215.84c-1.07,3.67,0.44,5.61,1.07,6.22l3.89,8.23h-4.16l-8.13-16.63
	c0.9-1.73,1.83-3.21,2.7-4.61h0.41c2.11-0.02,4.21-0.38,6.21-1.07c-0.49,2.09-1.3,5.47-1.99,7.86H4012.35z M4042.54,201.24
	c-3.16-1.26-6.63-1.53-9.95-0.76c-0.72,0.19-1.54,0.48-2.41,0.78c-3.35,1.16-7.94,2.74-11.32,0.93c-2.06-1.07-3.55-3.41-4.45-6.87
	l-2.08,0.54c1.07,3.98,2.85,6.72,5.35,8.14c-2.59,1.62-5.52,2.61-8.56,2.88c1.06-1.57,1.88-3.29,2.43-5.11l-2.14-0.52
	c-0.73,2.13-1.78,4.14-3.1,5.96c-1.45,2.17-2.75,4.44-3.9,6.79c-2.53,5.35-1.46,7.43-0.74,8.15l2.97,8.16h-4.53
	c-0.61-2.9-2.66-12.2-4.41-15.37c-1.51-2.71-1.35-10.98-1.16-13.92l-2.14-0.14c0,0.56-0.18,3.21-0.11,6.2
	c-8.58,0.94-17.26,0.48-25.69-1.36c1.07-1.69,1.85-3.05,2.04-3.3l-0.86-0.64l-0.82-0.69c-0.51,0.62-4.28,7.04-5.47,8.99l-0.13,0.22
	v0.24c0,0.11-0.26,2.54-3.67,3.75c-4.28,1.53-6.55,3.77-6.68,6.63c0.19,3.17,0.58,6.32,1.19,9.43h-4.09l-0.79-18.15
	c1.73-1.72,5.76-6.05,5.13-8.68c-0.1-0.39-0.27-0.89-0.52-1.6c-1.48-4.18-4.94-13.92,1.83-20.64c4.74-4.67,10.96-7.55,17.59-8.15
	c1.07,0.06,10.18,0.58,13.39-0.66c2.58-1.01,16.84-3.73,31.05-1.47c-1.28,0.7-2.56,1.42-3.77,2.14l1.07,1.85
	c5.2-3.03,11.48-6.18,13.37-6.48c-0.15,1.32-1.88,5-4.07,8.56l1.83,1.07c0.37-0.61,0.88-1.45,1.39-2.39
	c2.45,4.91,6.08,9.14,10.57,12.31c-0.94,1.72-1.86,3.28-2.45,4.22l1.82,1.13c1.71-2.73,3.25-5.57,4.61-8.49
	c-0.02,3.33-0.61,6.62-1.74,9.75l2.01,0.72c0.53-1.48,0.94-3,1.25-4.54c1.58,0.59,3.22,1.01,4.89,1.26
	C4045.5,195.28,4044.15,198.32,4042.54,201.24z"/>
<g>
	<path d="M-5085.32,317.26c-2,1.17-4.35,1.83-6.6,2.18c0.16,0.14,0.33,0.27,0.51,0.38c0.99,0.61,2.49,0.85,4.17,0.85
		c4.31,0,9.87-1.57,11.51-2.57c1.07-0.65,1.4-2.04,0.75-3.1c-0.65-1.07-2.04-1.4-3.1-0.75c-0.97,0.59-3.57,1.24-6.03,1.62
		C-5084.34,316.43-5084.75,316.93-5085.32,317.26z"/>
	<path d="M-5102.95,319.36c-0.76-0.13-1.42-0.54-1.87-1.17c-0.48-0.66-2.98-4.28-4.08-8.3l-2.33,11.5c0,0,0,0,0,0.01
		c-0.18,0.48-0.26,1.02-0.2,1.57l1.55,13.81l-8.93,14.05c-1,1.58-0.54,3.67,1.04,4.68c0.56,0.36,1.19,0.53,1.81,0.53
		c1.12,0,2.22-0.56,2.86-1.57l9.57-15.06c0.41-0.65,0.59-1.43,0.51-2.19l-0.91-8.14l2.38,0.53l9.21,24.25
		c0.51,1.35,1.8,2.19,3.17,2.19c0.4,0,0.81-0.07,1.2-0.22c1.75-0.66,2.63-2.62,1.96-4.37l-10.27-27.02l0.94-4.65
		c-0.57,0.03-1.12,0.04-1.64,0.04C-5100.21,319.81-5102.67,319.4-5102.95,319.36z"/>
	<ellipse cx="-5095.09" cy="294.78" rx="6.35" ry="6.35"/>
	<circle cx="-5078.46" cy="304.92" r="5.32"/>
	<path d="M-5054.55,292.85c-1.04-0.01-2.08,0.03-3.09,0.14l0.03,0.34c1-0.1,2.02-0.15,3.05-0.13L-5054.55,292.85z"/>
	<path d="M-5059.34,293.21c-8.46,1.42-12.77,6.55-12.81,6.6l0.26,0.22c0.04-0.05,4.27-5.08,12.61-6.48L-5059.34,293.21z"/>
	<path d="M-5104.29,317.81c0.35,0.48,0.87,0.81,1.45,0.91c0.21,0.04,2.67,0.44,5.89,0.44c3.51,0,7.92-0.48,11.3-2.46
		c1.08-0.63,1.44-2.01,0.81-3.09s-2.01-1.44-3.09-0.81c-4.1,2.4-10.79,1.88-13.22,1.59c-1.19-1.85-2.68-4.75-3.03-7.01l0.67,0.1
		c0.33,1.8,1.42,4.2,2.74,6.3c0.97,0.11,2.35,0.22,3.93,0.22c0.96,0,1.87-0.04,2.73-0.13l0.78-3.85c0.24,0.92,0.41,2.13,0.43,3.7
		c1.78-0.27,3.29-0.73,4.46-1.38c-0.21-3.25-1.04-5.73-2.46-7.41c-1.16-1.36-2.41-1.82-3.1-1.98c-0.04-0.01-0.08-0.02-0.13-0.03
		l-10.69-2.16c-0.9-0.18-1.78,0.22-2.26,0.94c-1.29,1.43-1.73,3.19-1.68,5.02C-5108.61,311.61-5104.87,317-5104.29,317.81z"/>
	<path d="M-5083.36,299.6c0.3-0.23,0.71-0.31,1.21-0.23c0.15,0.02,0.3-0.08,0.32-0.24c0.02-0.15-0.08-0.3-0.24-0.32
		c-0.66-0.1-1.21,0.02-1.64,0.34c-0.66,0.51-0.75,1.34-0.76,1.37c-0.02,0.15,0.1,0.29,0.25,0.31c0.01,0,0.02,0,0.03,0
		c0.14,0,0.26-0.11,0.28-0.25C-5083.91,300.59-5083.83,299.96-5083.36,299.6z"/>
	<path d="M-5082.01,297.56c-0.98-0.19-1.81-0.05-2.46,0.4c-0.99,0.69-1.19,1.87-1.2,1.92c-0.02,0.15,0.08,0.3,0.23,0.32
		c0.02,0,0.03,0,0.05,0c0.14,0,0.26-0.1,0.28-0.24c0-0.01,0.18-1,0.97-1.55c0.52-0.36,1.2-0.47,2.02-0.31
		c0.15,0.03,0.3-0.07,0.33-0.22C-5081.75,297.74-5081.85,297.59-5082.01,297.56z"/>
</g>
<path class="st2" d="M1347.35,468.51c1.75-1.75,1.75-4.6,0-6.35l-6.62-6.63l0.53-0.53c1.46-1.46,1.46-3.84,0-5.3l-3.3-3.3l3.34-3.34
	c9.59-9.6,9.59-25.21,0-34.81c-4.65-4.65-10.82-7.21-17.39-7.21c-6.57,0-12.75,2.56-17.39,7.21l-3.34,3.34l-3.3-3.3
	c-0.71-0.71-1.65-1.1-2.65-1.1s-1.94,0.39-2.65,1.1l-0.53,0.53l-6.61-6.61c-0.85-0.85-1.97-1.32-3.17-1.32l0,0
	c-1.2,0-2.33,0.47-3.17,1.32c-1.75,1.75-1.75,4.6,0,6.35l6.61,6.61l-0.53,0.53c-1.46,1.46-1.46,3.84,0,5.3l3.17,3.17l-3.5,3.5
	c-9.61,9.62-9.61,25.27,0,34.89c4.66,4.66,10.85,7.23,17.43,7.23c6.59,0,12.78-2.57,17.43-7.23l3.5-3.5l3.34,3.34
	c0.71,0.71,1.65,1.1,2.65,1.1c1,0,1.94-0.39,2.65-1.1l0.53-0.53l6.62,6.62c0.85,0.85,1.97,1.32,3.17,1.32
	S1346.5,469.36,1347.35,468.51z M1291.57,425.4l32.43,32.45l-3.5,3.5c-4.33,4.33-10.09,6.72-16.21,6.72
	c-6.12,0-11.88-2.39-16.21-6.72c-8.94-8.95-8.94-23.5,0-32.45L1291.57,425.4z M1292.85,410.05l-3.91,3.91l-6.61-6.61
	c-1.08-1.08-1.08-2.83,0-3.91c0.52-0.52,1.22-0.81,1.95-0.81l0,0c0.74,0,1.43,0.29,1.95,0.81L1292.85,410.05z M1336.75,445.18
	l-32.34-32.37l3.34-3.34c4.32-4.32,10.06-6.7,16.17-6.7c6.11,0,11.85,2.38,16.17,6.7c8.92,8.92,8.92,23.45,0,32.37L1336.75,445.18z
	 M1340.04,453.78l-7.41,7.42c-0.76,0.76-2.09,0.76-2.86,0l-41.37-41.4c-0.79-0.79-0.79-2.07,0-2.86l7.41-7.42
	c0.38-0.38,0.89-0.59,1.43-0.59s1.05,0.21,1.43,0.59l41.37,41.4C1340.83,451.71,1340.83,452.99,1340.04,453.78z M1346.13,467.29
	c-1.04,1.05-2.86,1.05-3.91,0l-6.62-6.63l3.91-3.91l6.62,6.63C1347.21,464.45,1347.21,466.21,1346.13,467.29z"/>
<g>
	<path class="st3" d="M1980.75,406.94c-0.02-0.21-0.06-0.42-0.12-0.63c-0.05-0.15-0.1-0.31-0.17-0.45c-0.05-0.1-0.1-0.19-0.15-0.29
		c-0.03-0.06-0.07-0.12-0.11-0.17c-0.12-0.17-0.25-0.33-0.4-0.49c-0.08-0.08-0.17-0.16-0.25-0.23c-0.22-0.18-0.45-0.32-0.7-0.44
		c-0.1-0.05-0.2-0.09-0.3-0.12c-0.05-0.02-0.1-0.03-0.15-0.05c-0.26-0.08-0.52-0.12-0.79-0.13c-0.05,0-0.11,0-0.16,0
		c-0.11,0-0.21,0.01-0.32,0.02c-0.05,0.01-0.11,0.01-0.16,0.02c-0.12,0.02-0.24,0.04-0.36,0.07c-0.07,0.02-0.15,0.04-0.22,0.06
		c-0.48,0.16-0.92,0.43-1.3,0.81l-11.65,11.65l-24.13,2.61c-0.47,0.05-0.82,0.46-0.79,0.94l2.87,45.9c0.02,0.24,0.13,0.47,0.32,0.63
		c0.16,0.13,0.36,0.21,0.57,0.21c0.03,0,0.07,0,0.11-0.01l34.31-4.08c0.47-0.06,0.81-0.47,0.78-0.93l-2.67-45.54
		c-0.01-0.24-0.13-0.47-0.31-0.63c-0.15-0.13-0.34-0.2-0.53-0.21c0.49-0.49,0.97-0.97,1.43-1.43c0.21-0.21,0.43-0.43,0.63-0.63
		c0.23-0.23,0.45-0.45,0.67-0.67c1.52-1.52,2.66-2.66,3.1-3.1c0.22-0.22,0.4-0.46,0.54-0.71c0.05-0.1,0.1-0.19,0.15-0.29
		c0.1-0.22,0.17-0.45,0.21-0.68c0-0.02,0.01-0.03,0.01-0.05c0.04-0.23,0.06-0.46,0.06-0.7
		C1980.76,407.09,1980.76,407.02,1980.75,406.94z"/>
	<path d="M1942.28,466.83c-0.21,0-0.41-0.07-0.57-0.21c-0.19-0.16-0.3-0.38-0.32-0.63l-2.87-45.9c-0.03-0.47,0.32-0.89,0.79-0.94
		l34.52-3.73c0.24-0.03,0.48,0.05,0.67,0.21c0.19,0.16,0.3,0.38,0.31,0.63l2.67,45.54c0.03,0.47-0.32,0.88-0.78,0.93l-34.31,4.08
		C1942.35,466.83,1942.32,466.83,1942.28,466.83z M1940.35,420.84l2.76,44.11l32.54-3.87l-2.56-43.77L1940.35,420.84z"/>
	<path d="M1947.62,442.02c-0.45,0-0.83-0.34-0.88-0.79c-0.05-0.49,0.3-0.93,0.79-0.98l20.7-2.24c0.49-0.05,0.93,0.3,0.98,0.79
		c0.05,0.49-0.3,0.93-0.79,0.98l-20.7,2.24C1947.68,442.02,1947.65,442.02,1947.62,442.02z"/>
	<path d="M1951.15,445.67c-0.45,0-0.83-0.34-0.88-0.79c-0.05-0.49,0.3-0.93,0.79-0.98l17.32-1.9c0.49-0.05,0.93,0.3,0.98,0.79
		c0.05,0.49-0.3,0.93-0.79,0.98l-17.32,1.9C1951.21,445.67,1951.18,445.67,1951.15,445.67z"/>
	<path d="M1948.48,455.3c-0.45,0-0.84-0.34-0.88-0.8c-0.05-0.49,0.31-0.92,0.8-0.97l10.2-1c0.49-0.05,0.92,0.31,0.97,0.8
		c0.05,0.49-0.31,0.92-0.8,0.97l-10.2,1C1948.54,455.3,1948.51,455.3,1948.48,455.3z"/>
	<path d="M1942.82,432.33c-0.13,0-0.27-0.03-0.4-0.1c-0.44-0.22-0.61-0.76-0.39-1.19c0.89-1.77,1.62-2.63,2.44-2.87
		c0.43-0.13,0.87-0.08,1.26,0.15c0.37,0.21,0.71,0.64,1.01,1.1l0.4-0.82c0.2-0.41,0.69-0.61,1.12-0.44l2.27,0.87l0.27-1.12
		c0.07-0.29,0.28-0.52,0.55-0.63c0.28-0.1,0.59-0.06,0.83,0.11l2.33,1.67c0.4,0.29,0.49,0.84,0.2,1.24c-0.29,0.4-0.84,0.49-1.24,0.2
		l-1.25-0.9l-0.19,0.82c-0.06,0.25-0.22,0.46-0.45,0.58c-0.23,0.12-0.49,0.14-0.73,0.05l-2.46-0.94l-0.83,1.72
		c-0.15,0.32-0.48,0.52-0.83,0.5c-0.35-0.01-0.66-0.24-0.79-0.56c-0.3-0.76-0.75-1.59-1.01-1.85c-0.16,0.12-0.59,0.53-1.29,1.93
		C1943.46,432.15,1943.14,432.33,1942.82,432.33z"/>
	<g>
		<path class="st3" d="M1979.79,404.91c-1.3-1.3-3.41-1.3-4.7,0l-17.72,17.72c-0.03,0.03-0.05,0.06-0.06,0.09l-3.03,6.94
			c-0.23,0.51,0.3,1.04,0.81,0.81l6.89-3.08c0.03-0.01,0.06-0.04,0.09-0.06c2.47-2.47,15.95-15.95,17.72-17.72
			C1981.09,408.31,1981.09,406.2,1979.79,404.91z"/>
		<path d="M1962.07,427.33c2.47-2.47,15.95-15.95,17.72-17.72c1.29-1.3,1.29-3.4,0-4.7c-1.3-1.3-3.41-1.3-4.7,0l-17.72,17.72
			c-0.03,0.03-0.05,0.06-0.06,0.09l-3.03,6.94c-0.23,0.51,0.3,1.04,0.81,0.81l6.89-3.08
			C1962.01,427.38,1962.05,427.36,1962.07,427.33z M1972.91,407.94l1.73,1.73l-14.9,14.9l-1.73-1.73L1972.91,407.94z M1975.07,410.1
			l1.69,1.69l-14.9,14.9l-1.69-1.69L1975.07,410.1z M1975.52,405.34c1.06-1.06,2.78-1.07,3.85,0c1.06,1.06,1.06,2.78,0,3.84
			l-2.18,2.18l-3.85-3.85L1975.52,405.34z M1957.68,423.37l3.65,3.65l-3.08,1.37l-1.92-1.92L1957.68,423.37z M1954.82,429.91
			C1954.82,429.91,1954.82,429.91,1954.82,429.91C1954.83,429.9,1954.83,429.9,1954.82,429.91l1.25-2.85l1.59,1.59L1954.82,429.91z"
			/>
	</g>
</g>
<g>
	<path class="st4" d="M-4880.96,650.66c1.6-0.93,3.28-1.69,5.04-2.29l-8.45-12.08l-0.44,0.48c-0.29,0.31-0.74,0.41-1.13,0.25
		l-3.09-1.31l-3.22,1.93c-0.16,0.09-0.34,0.14-0.51,0.14c-0.17,0-0.35-0.05-0.5-0.14l-4.89-2.85l-3.75,0.81l-14.16,20.25h7.28
		l2.66-3.93c0.31-0.46,0.93-0.58,1.39-0.27c0.46,0.31,0.58,0.93,0.27,1.39l-1.9,2.82h7.09l5.05-7.54c0.31-0.46,0.93-0.58,1.39-0.28
		c0.46,0.31,0.58,0.93,0.27,1.39l-4.3,6.43h4.04c0,0,0.01,0,0.01,0h5.45C-4885.55,653.34-4883.13,651.92-4880.96,650.66z"/>
	<path class="st4" d="M-4897.5,632.86l4.71,2.75l3.15-1.89c0.27-0.16,0.61-0.19,0.9-0.06l2.91,1.23l0.27-0.29l-7.84-11.21
		l-6.84,9.79l2.02-0.44C-4897.97,632.69-4897.71,632.73-4897.5,632.86z"/>
	<path class="st4" d="M-4868.86,646.91c1.05-1.57,2.44-2.82,4.05-3.74c0.67-0.39,1.33-0.69,1.97-0.92c0.22-0.08,0.44-0.14,0.66-0.21
		l-3.35-4.79l-3.76,1.79c-0.14,0.06-0.28,0.1-0.43,0.1c-0.16,0-0.32-0.04-0.47-0.12l-3.62-1.91l-4.82,1.17l-0.96,1.37l5.67,8.11
		C-4872.28,647.33-4870.6,647.05-4868.86,646.91z"/>
	<path class="st4" d="M-4859.42,647.87c0.61,0.21,1.22,0.45,1.82,0.7l-1.63-2.33C-4859.33,646.78-4859.4,647.33-4859.42,647.87z"/>
	<path class="st4" d="M-4873.21,635.16l3.51,1.85l3.01-1.43l-5.02-7.18l-5.18,7.4l2.98-0.73
		C-4873.67,635.01-4873.42,635.04-4873.21,635.16z"/>
	<path class="st4" d="M-4864.53,664.28c0.13-0.27,0.25-0.54,0.27-0.74c-0.01-0.03-0.01-0.06-0.02-0.1
		c-0.03-0.04,0.01-0.08-0.01-0.12c-0.51-0.81-3.43-0.65-5.76,0.03c-0.42,0.09-0.82,0.21-1.22,0.35c-1.19,0.46-2.29,1.07-3.28,1.87
		c1.03,1.13,2.78,2.57,5.3,3.36c2.47,0.79,4.7,0.6,6.21,0.34c-1.19-0.89-1.81-1.83-1.96-2.87
		C-4865.14,665.49-4864.79,664.79-4864.53,664.28z"/>
	<path class="st4" d="M-4842.53,673.9c-0.23-0.05-0.39-0.28-0.34-0.52c0.48-2.94,0.34-5.8-0.39-8.54c-0.8-2.97-2.23-5.26-3.62-7
		c-0.62-0.77-1.22-1.44-1.77-2c-0.37-0.38-0.72-0.73-1.02-1.02c-0.84-0.81-1.75-1.56-2.7-2.26c-1.32-0.98-2.74-1.83-4.23-2.56
		c-1.13-0.55-2.29-1.03-3.49-1.41c-0.19-0.08-0.28-0.22-0.28-0.42c0.02-0.99,0.17-1.96,0.43-2.94c0.02-0.09,0.04-0.19,0.07-0.28
		c0.2-0.68,0.48-1.33,0.8-1.97l-0.45-0.64c-0.65,0.04-1.39,0.16-2.18,0.37c-0.87,0.24-1.8,0.59-2.72,1.14
		c-1.56,0.89-2.87,2.16-3.83,3.67c-0.06,0.11-0.2,0.2-0.33,0.22c-1.66,0.12-3.27,0.38-4.82,0.76c-0.69,0.17-1.36,0.37-2.03,0.59
		c-1.77,0.58-3.46,1.34-5.08,2.28c-2,1.17-4.13,2.43-5.82,4.48c-0.49,0.59-0.93,1.26-1.33,2c-0.09,0.17-0.19,0.32-0.28,0.5
		c-1.05,2.17-1.46,4.72-1.19,7.37c0.02,0.12-0.05,0.23-0.11,0.34c-1.34,1.61-1.82,3.02-1.71,3.76c2.01-0.41,3.75-2.42,5.45-4.41
		c1.02-1.21,1.97-2.31,2.99-3.11c2.31-1.81,5.16-3.33,8.29-4.45c0.53-0.19,1.06-0.37,1.6-0.53c5.44-1.64,11.04-1.5,16.1,0.47
		c0.04,0.02,0.09,0.04,0.13,0.06c5.05,1.95,9.22,5.46,12.15,10.32c0.2,0.2,0.12,0.39-0.11,0.54c-0.23,0.15-0.44,0.15-0.59-0.08
		c-3.35-5.54-8.33-9.25-14.01-10.79c-3.84-1.04-8-1.07-12.2,0c-0.42,0.11-0.83,0.2-1.24,0.33c-3.63,1.12-6.97,2.78-9.58,4.84
		c-0.97,0.77-1.88,1.84-2.88,2.97c-1.59,1.9-3.26,3.83-5.3,4.5c0.18,0.03,0.38,0.05,0.64,0.05c0.9-0.06,1.4-0.52,2.11-1.19
		c0.59-0.53,1.25-1.16,2.23-1.61c0.67-0.31,0.97-0.37,1.76-0.49c0.42-0.08,1.04-0.15,1.93-0.33c1.93-0.33,3.22-0.71,4.52-1.1
		c0.38-0.12,0.76-0.24,1.17-0.31l-0.08-0.07l0.14-0.12c0.02-0.08,0.06-0.14,0.12-0.19c1.56-1.3,3.37-2.22,5.23-2.77
		c1.38-0.39,3.66-0.77,5.28-0.45c0.74,0.14,1.35,0.42,1.68,0.9c0,0,0,0.01,0,0.01c0.12,0,0.34-0.08,0.49-0.07
		c4.09-0.41,10.79,1.08,19.63,10.31c0.14,0.11,0.17,0.36,0.06,0.5c-0.08,0.19-0.3,0.26-0.45,0.23s-3.39-0.66-5.64,1.64
		c-1.13,1.15-1.49,2.53-1.62,3.35c0.76,0.24,2.36,0.53,4.06-0.26c1.73-0.74,2.59-2.18,2.88-2.77c0.01,0.12,0.08,0.02,0.12-0.01
		c0.09-0.06,0.22-0.08,0.34-0.09c0.23,0.05,0.36,0.24,0.36,0.44c0.01,0.53,0.1,2.49,1.66,3.94c1.25,1.19,2.75,1.41,3.43,1.43
		c0.21-0.81,0.53-2.77-0.58-4.65C-4839.86,674.69-4841.91,674.03-4842.53,673.9z M-4882.88,660.39c-0.44,0.29-1.03,0.17-1.32-0.27
		c-0.29-0.44-0.17-1.03,0.27-1.32c0.44-0.29,1.03-0.17,1.32,0.27C-4882.32,659.51-4882.44,660.1-4882.88,660.39z"/>
	<path d="M-4863.44,628.22c0.55,0.03,1.03-0.38,1.06-0.93c0.01-0.21,0.19-0.37,0.39-0.37s0.38,0.16,0.4,0.4
		c0,0.08,0.03,0.16,0.05,0.23c0.01,0.05,0.01,0.1,0.03,0.14c0.15,0.37,0.5,0.63,0.92,0.63c0.55,0,1-0.45,1-1c0,0,0-0.02,0-0.02
		c0,0,0,0,0-0.01c0.01-0.21,0.19-0.37,0.4-0.37c0.21,0,0.38,0.16,0.39,0.37c0.04,0.55,0.5,0.99,1.07,0.93
		c0.55-0.04,0.97-0.51,0.93-1.06c-0.08-1.25-1.13-2.23-2.39-2.23c-0.52,0-1,0.18-1.4,0.46c-0.4-0.29-0.88-0.46-1.4-0.46
		c-1.26,0-2.31,0.98-2.39,2.24C-4864.41,627.71-4864,628.18-4863.44,628.22z"/>
	<path d="M-4870.74,623.26c0.54,0.03,1.03-0.38,1.07-0.93c0.01-0.21,0.19-0.37,0.4-0.37s0.38,0.16,0.4,0.4c0,0.1,0.03,0.2,0.06,0.29
		c0.01,0.03,0.01,0.06,0.02,0.08c0.15,0.37,0.5,0.63,0.92,0.63c0.55,0,1-0.45,1-1c0,0,0-0.01,0-0.02c0,0,0-0.01,0-0.01
		c0.01-0.21,0.19-0.37,0.4-0.37c0.21,0,0.38,0.16,0.39,0.37c0.04,0.55,0.52,0.96,1.06,0.93c0.55-0.04,0.97-0.51,0.93-1.06
		c-0.08-1.25-1.13-2.23-2.39-2.23c-0.52,0-1,0.18-1.4,0.46c-0.4-0.29-0.88-0.46-1.4-0.46c-1.26,0-2.31,0.98-2.39,2.23
		C-4871.7,622.74-4871.29,623.22-4870.74,623.26z"/>
	<path d="M-4860.65,618.28c0.54,0.03,1.03-0.38,1.06-0.93c0.01-0.21,0.19-0.37,0.39-0.37s0.38,0.16,0.4,0.36h0c0,0.01,0,0.03,0,0.03
		c0,0.55,0.45,1,1,1s1-0.45,1-1c0,0,0-0.01,0-0.02c0,0,0-0.01,0-0.01c0.01-0.21,0.19-0.37,0.4-0.37s0.38,0.16,0.39,0.37
		c0.04,0.55,0.5,0.98,1.07,0.93c0.55-0.04,0.97-0.51,0.93-1.06c-0.08-1.25-1.13-2.23-2.39-2.23c-0.52,0-1,0.18-1.4,0.46
		c-0.4-0.29-0.88-0.46-1.4-0.46c-1.26,0-2.31,0.98-2.39,2.23C-4861.62,617.77-4861.21,618.25-4860.65,618.28z"/>
	<path class="st3" d="M-4862.17,642.03c0.41-0.12,0.82-0.23,1.21-0.3C-4861.35,641.8-4861.76,641.91-4862.17,642.03
		c-0.22,0.06-0.44,0.13-0.66,0.21C-4862.61,642.16-4862.39,642.1-4862.17,642.03z"/>
	<path class="st3" d="M-4858.72,642.31c-0.24,0-0.52,0.01-0.8,0.03l0.45,0.64C-4858.96,642.75-4858.84,642.53-4858.72,642.31z"/>
	<path class="st3" d="M-4864.07,666.19c-0.02-0.15-0.03-0.3-0.02-0.44C-4864.1,665.9-4864.09,666.04-4864.07,666.19z"/>
	<path class="st3" d="M-4841.83,673.23c0.16-1.09,0.25-2.17,0.24-3.25C-4841.58,671.06-4841.66,672.14-4841.83,673.23
		L-4841.83,673.23z"/>
	<path class="st3" d="M-4844.74,673c-2.55-2.6-4.91-4.51-7.06-5.91C-4849.65,668.48-4847.29,670.4-4844.74,673z"/>
	<path d="M-4837,679.15c-0.07-0.84-0.31-1.77-0.83-2.71c-0.29-0.51-0.62-0.95-0.98-1.33s-0.73-0.68-1.1-0.93
		c-0.47-0.32-0.93-0.55-1.32-0.72c-0.12-0.05-0.24-0.1-0.35-0.14c-0.09-0.03-0.18-0.07-0.25-0.09h0c0.16-1.09,0.25-2.17,0.24-3.25
		c0-0.36-0.01-0.72-0.03-1.07c-0.06-1.07-0.2-2.13-0.43-3.19c-0.08-0.35-0.16-0.7-0.26-1.05c-0.79-2.85-2.08-5.09-3.4-6.83h1.09
		c0.55,0,1-0.45,1-1s-0.45-1-1-1h-2.77c-0.6-0.64-1.15-1.17-1.61-1.61c-1.45-1.43-3.09-2.69-4.85-3.76l-4.64-6.63
		c0.26-0.58,0.57-1.14,0.94-1.65c0.11-0.14,0.14-0.29,0.05-0.44c-0.06-0.09-0.2-0.2-0.36-0.24c-0.22-0.01-0.44-0.01-0.69-0.01
		s-0.49,0.01-0.76,0.02c-0.25,0.01-0.5,0.04-0.77,0.07l-10.85-15.52c-0.38-0.54-1.27-0.54-1.64,0l-8.27,11.83l-2.51-3.59
		c-0.05-0.15-0.13-0.29-0.25-0.4c-0.01-0.01-0.03-0.01-0.04-0.03l-8.96-12.81c-0.37-0.54-1.26-0.54-1.64,0l-9,12.87
		c-0.14,0.11-0.23,0.26-0.29,0.42l-15.02,21.47h-5.47c-0.55,0-1,0.45-1,1s0.45,1,1,1h5.99h29.4c-0.02,0.04-0.04,0.07-0.06,0.1
		c-0.14,0.29-0.27,0.58-0.39,0.87c-0.35,0.89-0.61,1.82-0.77,2.78c-0.11,0.64-0.17,1.3-0.19,1.96c-0.01,0.33-0.01,0.67,0,1
		s0.03,0.68,0.06,1.02c-0.43,0.52-0.79,1.04-1.07,1.54c-0.28,0.5-0.49,0.98-0.62,1.43c-0.13,0.45-0.18,0.87-0.14,1.23
		c0.04,0.36,0.16,0.68,0.37,0.92c0.39,0.48,1.07,0.71,2.05,0.66c0.3-0.01,0.56-0.06,0.81-0.14c0.37-0.12,0.68-0.3,0.98-0.52
		c0.1-0.07,0.2-0.15,0.29-0.23c0.19-0.16,0.37-0.33,0.56-0.51c0.3-0.26,0.59-0.53,0.92-0.78c0.26-0.2,0.55-0.38,0.86-0.56
		c0.09-0.05,0.17-0.1,0.26-0.15c0.12-0.07,0.23-0.12,0.34-0.16c0.21-0.08,0.41-0.12,0.68-0.16c0.14-0.02,0.29-0.04,0.48-0.06
		c0.21-0.04,0.47-0.08,0.79-0.13c0.32-0.05,0.7-0.12,1.14-0.21c0.68-0.14,1.29-0.28,1.84-0.41c0.23-0.06,0.46-0.11,0.68-0.16
		c0.18-0.05,0.36-0.09,0.54-0.14c0.35-0.09,0.68-0.18,1.01-0.28c0.16-0.05,0.33-0.09,0.49-0.14c0.37-0.04,0.76-0.17,1.15-0.29
		c0.18-0.02,0.32-0.06,0.46-0.1c0.13,0.14,0.27,0.28,0.42,0.43c0.02,0.02,0.04,0.04,0.06,0.06c0.14,0.13,0.28,0.26,0.43,0.39
		c0.05,0.04,0.1,0.08,0.15,0.12c0.14,0.11,0.28,0.23,0.43,0.34c0.08,0.06,0.16,0.12,0.24,0.18c0.13,0.1,0.27,0.2,0.41,0.29
		c0.11,0.07,0.23,0.15,0.34,0.22c0.13,0.08,0.26,0.17,0.4,0.25c0.14,0.08,0.3,0.16,0.45,0.25c0.12,0.07,0.24,0.13,0.37,0.2
		c0.19,0.09,0.39,0.18,0.59,0.27c0.11,0.05,0.21,0.1,0.32,0.14c0.31,0.13,0.63,0.24,0.96,0.35c0.01,0,0.02,0.01,0.02,0.01
		c0.42,0.14,0.83,0.25,1.23,0.34c2.81,0.62,5.16,0.16,6.44-0.22l0.95-0.29l-0.85-0.58c-0.18-0.11-0.35-0.22-0.51-0.33
		c-0.48-0.33-0.88-0.67-1.18-1.02c-0.2-0.23-0.36-0.47-0.47-0.71s-0.19-0.49-0.22-0.74c-0.02-0.15-0.03-0.3-0.02-0.44
		s0.04-0.27,0.07-0.4c0.04-0.16,0.1-0.32,0.16-0.46c0.05-0.13,0.11-0.25,0.17-0.37c0.12-0.24,0.24-0.49,0.31-0.75
		c0.18-0.02,0.35-0.04,0.49-0.06c0,0,0,0,0.01,0c0.89-0.08,1.91-0.07,3.06,0.09c0.38,0.06,0.78,0.13,1.19,0.22
		c1.31,0.3,2.76,0.81,4.35,1.61c0.79,0.4,1.62,0.88,2.48,1.43c2.15,1.39,4.51,3.31,7.06,5.91c-0.9-0.03-2.14,0.09-3.36,0.66
		c-0.17,0.08-0.35,0.17-0.52,0.27c-0.23,0.13-0.46,0.29-0.68,0.46s-0.44,0.36-0.65,0.58c-0.19,0.19-0.35,0.38-0.5,0.58
		c-1.06,1.38-1.33,2.88-1.38,3.69c-0.02,0.08,0.01,0.16,0.06,0.24c0.05,0.08,0.13,0.14,0.22,0.18c0.36,0.13,1.05,0.35,1.94,0.4
		c0.44,0.03,0.93,0.02,1.45-0.07s1.07-0.23,1.62-0.48c1.2-0.52,2.06-1.36,2.61-2.06c0.09,0.37,0.22,0.77,0.39,1.19
		c0.26,0.61,0.65,1.25,1.21,1.86c0.08,0.08,0.15,0.17,0.23,0.25c0.22,0.2,0.44,0.38,0.66,0.53c0.22,0.16,0.45,0.29,0.67,0.41
		s0.44,0.21,0.66,0.3c0.43,0.16,0.84,0.27,1.2,0.33c0.54,0.1,0.97,0.1,1.2,0.11c0.08,0.02,0.17-0.05,0.22-0.08
		c0.09-0.06,0.16-0.17,0.17-0.25c0.03-0.09,0.06-0.2,0.1-0.34c0.07-0.27,0.16-0.65,0.21-1.09c0.03-0.22,0.04-0.46,0.05-0.71
		C-4836.97,679.7-4836.98,679.43-4837,679.15z M-4857.6,648.57c-0.6-0.25-1.2-0.49-1.82-0.7c0.01-0.55,0.09-1.09,0.19-1.63
		L-4857.6,648.57z M-4871.71,628.39l5.02,7.18l-3.01,1.43l-3.51-1.85c-0.22-0.11-0.46-0.14-0.7-0.09l-2.98,0.73L-4871.71,628.39z
		 M-4878.62,638.27l4.82-1.17l3.62,1.91c0.15,0.08,0.31,0.12,0.47,0.12c0.15,0,0.29-0.03,0.43-0.1l3.76-1.79l3.35,4.79
		c0.41-0.12,0.82-0.23,1.21-0.3c-0.39,0.07-0.8,0.18-1.21,0.3c-0.22,0.06-0.44,0.13-0.66,0.21c-0.64,0.23-1.31,0.53-1.97,0.92
		c-1.61,0.93-3,2.18-4.05,3.74c-1.74,0.14-3.43,0.43-5.06,0.85l-5.67-8.11L-4878.62,638.27z M-4893.39,623.4l7.84,11.21l-0.27,0.29
		l-2.91-1.23c-0.29-0.12-0.63-0.1-0.9,0.06l-3.15,1.89l-4.71-2.75c-0.22-0.13-0.47-0.17-0.72-0.11l-2.02,0.44L-4893.39,623.4z
		 M-4892.83,655.84C-4892.84,655.84-4892.84,655.84-4892.83,655.84l-4.05,0l4.3-6.43c0.31-0.46,0.18-1.08-0.27-1.39
		c-0.46-0.31-1.08-0.18-1.39,0.28l-5.05,7.54h-7.09l1.9-2.82c0.31-0.46,0.19-1.08-0.27-1.39c-0.46-0.31-1.08-0.19-1.39,0.27
		l-2.66,3.93h-7.28l14.16-20.25l3.75-0.81l4.89,2.85c0.16,0.09,0.33,0.14,0.5,0.14c0.18,0,0.36-0.05,0.51-0.14l3.22-1.93l3.09,1.31
		c0.39,0.17,0.84,0.07,1.13-0.25l0.44-0.48l8.45,12.08c-1.76,0.6-3.44,1.36-5.04,2.29c-2.17,1.27-4.58,2.68-6.42,5.18H-4892.83z
		 M-4863.04,669.28c-1.51,0.26-3.74,0.45-6.21-0.34c-2.52-0.8-4.27-2.23-5.3-3.36c0.99-0.8,2.1-1.42,3.28-1.87
		c0.39-0.14,0.8-0.26,1.22-0.35c2.33-0.68,5.25-0.84,5.76-0.03c0.02,0.04-0.02,0.07,0.01,0.12c0,0.03,0.01,0.06,0.02,0.1
		c-0.02,0.2-0.14,0.47-0.27,0.74c-0.27,0.51-0.61,1.21-0.48,2.13C-4864.85,667.45-4864.24,668.39-4863.04,669.28z M-4838.09,681.45
		c-0.68-0.02-2.18-0.24-3.43-1.43c-1.56-1.46-1.65-3.42-1.66-3.94c0-0.2-0.12-0.39-0.36-0.44c-0.12,0.01-0.25,0.03-0.34,0.09
		c-0.05,0.03-0.11,0.14-0.12,0.01c-0.28,0.59-1.15,2.03-2.88,2.77c-1.7,0.78-3.3,0.5-4.06,0.26c0.13-0.82,0.49-2.21,1.62-3.35
		c2.25-2.29,5.49-1.67,5.64-1.64s0.37-0.04,0.45-0.23c0.11-0.14,0.08-0.39-0.06-0.5c-8.84-9.23-15.53-10.72-19.63-10.31
		c-0.15,0-0.37,0.08-0.49,0.07c0,0,0-0.01,0-0.01c-0.32-0.49-0.93-0.77-1.68-0.9c-1.61-0.32-3.9,0.06-5.28,0.45
		c-1.85,0.55-3.66,1.47-5.23,2.77c-0.06,0.04-0.1,0.11-0.12,0.19l-0.14,0.12l0.08,0.07c-0.41,0.08-0.79,0.19-1.17,0.31
		c-1.29,0.38-2.59,0.76-4.52,1.1c-0.89,0.18-1.51,0.26-1.93,0.33c-0.79,0.12-1.09,0.18-1.76,0.49c-0.98,0.45-1.64,1.08-2.23,1.61
		c-0.7,0.67-1.2,1.13-2.11,1.19c-0.26,0-0.46-0.02-0.64-0.05c2.03-0.67,3.71-2.6,5.3-4.5c1-1.13,1.91-2.2,2.88-2.97
		c2.61-2.06,5.95-3.72,9.58-4.84c0.42-0.13,0.83-0.22,1.24-0.33c4.2-1.07,8.36-1.04,12.2,0c5.68,1.53,10.66,5.24,14.01,10.79
		c0.15,0.23,0.36,0.24,0.59,0.08c0.23-0.15,0.31-0.34,0.11-0.54c-2.94-4.86-7.1-8.37-12.15-10.32c-0.04-0.02-0.09-0.04-0.13-0.06
		c-5.06-1.97-10.66-2.11-16.1-0.47c-0.54,0.16-1.07,0.34-1.6,0.53c-3.13,1.11-5.98,2.63-8.29,4.45c-1.02,0.8-1.97,1.9-2.99,3.11
		c-1.7,1.99-3.44,4-5.45,4.41c-0.11-0.74,0.37-2.15,1.71-3.76c0.06-0.11,0.13-0.22,0.11-0.34c-0.27-2.65,0.14-5.2,1.19-7.37
		c0.09-0.18,0.19-0.33,0.28-0.5c0.4-0.74,0.84-1.41,1.33-2c1.69-2.04,3.82-3.31,5.82-4.48c1.61-0.94,3.31-1.7,5.08-2.28
		c0.67-0.22,1.34-0.42,2.03-0.59c1.55-0.38,3.16-0.63,4.82-0.76c0.12-0.01,0.27-0.11,0.33-0.22c0.96-1.5,2.27-2.77,3.83-3.67
		c0.92-0.55,1.85-0.91,2.72-1.14c0.79-0.21,1.53-0.33,2.18-0.37c0.28-0.02,0.56-0.03,0.8-0.03c-0.12,0.22-0.24,0.44-0.35,0.67
		c-0.32,0.63-0.6,1.29-0.8,1.97c-0.03,0.09-0.05,0.19-0.07,0.28c-0.25,0.98-0.41,1.94-0.43,2.94c0,0.2,0.09,0.34,0.28,0.42
		c1.2,0.38,2.36,0.86,3.49,1.41c1.49,0.73,2.91,1.59,4.23,2.56c0.95,0.7,1.86,1.45,2.7,2.26c0.3,0.29,0.65,0.64,1.02,1.02
		c0.55,0.56,1.15,1.23,1.77,2c1.39,1.74,2.81,4.02,3.62,7c0.73,2.74,0.87,5.61,0.39,8.54c-0.05,0.23,0.11,0.47,0.34,0.52
		c0.62,0.13,2.67,0.79,3.86,2.9C-4837.56,678.68-4837.88,680.64-4838.09,681.45z"/>
	<path d="M-4883.93,658.79c-0.44,0.29-0.56,0.88-0.27,1.32c0.29,0.44,0.88,0.56,1.32,0.27c0.44-0.29,0.56-0.88,0.27-1.32
		C-4882.9,658.63-4883.49,658.5-4883.93,658.79z"/>
	<path d="M-4905.05,660.26c-0.75-0.75-2.06-0.75-2.81,0c-0.75,0.75-0.75,2.06,0,2.81l3.12,3.12l-14.48,0.01c-1.12,0-2,0.88-2,2
		c0,1.12,0.88,2,2,2l14.48-0.01l-3.12,3.12c-0.75,0.75-0.75,2.06,0,2.81c0.38,0.37,0.87,0.56,1.44,0.56c0.5,0,1-0.19,1.44-0.56
		l6.42-6.5c0.37-0.37,0.56-0.87,0.56-1.44c0-0.5-0.19-1.06-0.56-1.44L-4905.05,660.26z"/>
</g>
<g>
	<path d="M103.54,15.46c-0.23-0.09-0.52-0.11-0.77-0.07c-1.54,0.23-3.08,0.5-4.62,0.75c-2.02,0.33-4.04,0.65-6.06,0.98
		c-1.85,0.3-3.7,0.6-5.55,0.92c-1.81,0.31-3.62,0.66-5.44,0.97c-0.55,0.09-1.12,0.17-1.68,0.16c-1.08-0.02-2.02-0.45-2.93-1
		c-1.64-1-3.4-1.73-5.27-2.17c-2.17-0.51-4.29-0.42-6.37,0.37c-2.55,0.97-4.38,2.73-5.57,5.17c-0.72,1.47-1.11,3.04-1.43,4.63
		c-0.14,0.7-0.26,1.4-0.47,2.08c-0.31,1.02-1,1.75-1.94,2.22c-0.52-0.69-1-1.39-1.53-2.05c-2.21-2.75-4.56-5.37-7.13-7.79
		c-1.7-1.59-3.45-3.13-5.29-4.57c-2.03-1.58-4.11-3.08-6.27-4.48c-2.16-1.4-4.37-2.71-6.64-3.92c-2.45-1.3-4.96-2.5-7.56-3.48
		c-0.94-0.35-1.88-0.71-2.88-0.83c-0.97-0.12-1.72,0.4-1.96,1.34c-0.13,0.51-0.05,1.01,0.08,1.5c0.44,1.66,1.18,3.19,2.02,4.68
		c0.1,0.18,0.2,0.35,0.32,0.58c-0.1-0.02-0.13-0.03-0.16-0.04c-1.2-0.36-2.39-0.73-3.59-1.07c-1.08-0.3-2.17-0.58-3.3-0.66
		c-1.03-0.07-1.81,0.69-1.8,1.73c0.01,0.74,0.26,1.41,0.59,2.06c0.62,1.23,1.4,2.36,2.24,3.44c1.12,1.46,2.43,2.75,3.81,3.95
		c0.2,0.17,0.41,0.34,0.62,0.51c-0.32,0.02-0.61,0.01-0.9,0.06c-1,0.15-1.74,0.85-1.86,1.76c-0.09,0.64,0.1,1.23,0.51,1.7
		c0.65,0.73,1.34,1.45,2.06,2.12c1.08,1.01,2.29,1.86,3.63,2.5c0.92,0.44,1.9,0.77,2.85,1.16c-0.07,0.1-0.17,0.24-0.27,0.39
		c-0.46,0.73-0.59,1.52-0.15,2.29c0.21,0.36,0.53,0.67,0.86,0.93c0.59,0.47,1.29,0.74,2.02,0.93c0.68,0.18,1.35,0.37,2.04,0.56
		c-0.13,0.21-0.25,0.39-0.35,0.59c-0.62,1.13-0.29,2.35,0.79,3.04c0.61,0.39,1.3,0.57,2,0.71c0.59,0.12,1.18,0.19,1.78,0.28
		c-0.03,0.18-0.06,0.35-0.07,0.51c-0.04,0.63,0,1.24,0.41,1.76c0.38,0.47,0.88,0.76,1.46,0.9c0.93,0.23,1.87,0.35,2.82,0.34
		c0.18,0,0.26,0.04,0.28,0.24c0.04,0.37,0.16,0.72,0.41,1.01c0.46,0.53,1.07,0.77,1.73,0.87c0.78,0.12,1.58,0.18,2.37,0.26
		c-0.01,0.01-0.02,0.06-0.05,0.1c-0.3,0.49-0.59,0.98-0.91,1.46c-1.76,2.67-3.94,4.96-6.39,7c-1.73,1.44-3.5,2.82-5.37,4.06
		c-0.89,0.59-1.82,1.13-2.78,1.6c-0.68,0.34-1.31,0.69-1.85,1.23c-1.43,1.43-1.95,3.15-1.42,5.09c0.62,2.25,2.4,3.46,4.63,3.79
		c0.56-0.13,0.82,0.22,1.07,0.64c0.49,0.82,1.12,1.51,1.99,1.96l4.94-0.05c0.95-0.56,1.76-1.27,2.52-2.06
		c2.1-2.22,3.87-4.69,5.57-7.21c0.05-0.08,0.16-0.16,0.25-0.18c0.25-0.05,0.51-0.06,0.77-0.08c2.23-0.19,4.44-0.54,6.61-1.1
		C55,61.5,58.66,59.79,62,57.38c2.66-1.92,4.83-4.28,6.54-7.07c1.7-2.77,2.79-5.79,3.51-8.95c0.39-1.72,0.72-3.44,0.85-5.19
		c0.1-1.34,0.36-2.63,0.88-3.86c0.98-2.29,2.4-4.29,4.05-6.13c1.08-1.2,2.01-2.52,2.93-3.84c0.06-0.09,0.17-0.17,0.27-0.2
		c1-0.25,1.99-0.5,2.99-0.74c2.94-0.7,5.88-1.4,8.83-2.1c3.24-0.76,6.47-1.51,9.71-2.27c0.27-0.06,0.54-0.11,0.8-0.19
		c0.34-0.11,0.53-0.37,0.57-0.72C103.97,15.81,103.8,15.56,103.54,15.46z M21.08,7.52c2.66,1.01,5.18,2.3,7.65,3.7
		c2.29,1.3,4.51,2.7,6.67,4.2c2.62,1.81,5.12,3.77,7.53,5.85c1.78,1.54,3.47,3.16,5.06,4.89c0.72,0.79,1.41,1.61,2.11,2.42
		c0.07,0.08,0.11,0.17,0.17,0.25c-0.01,0.01-0.02,0.02-0.03,0.03c-0.48-0.33-0.94-0.68-1.43-1c-2.04-1.36-4.05-2.76-6.12-4.06
		c-2.68-1.68-5.39-3.3-8.12-4.9c-1.63-0.95-3.31-1.83-5-2.7c-1.48-0.76-2.99-1.44-4.49-2.16c-0.02-0.01-0.03-0.02-0.05-0.02
		c-1.04-0.28-1.72-1.01-2.31-1.86c-0.95-1.35-1.82-2.74-2.47-4.26c-0.1-0.24-0.19-0.49-0.31-0.79C20.37,7.27,20.73,7.39,21.08,7.52z
		 M36.37,67.99c-0.74,0.81-1.51,1.59-2.32,2.33c-0.79,0.72-1.97,0.72-2.72-0.34c-0.06-0.09-0.13-0.18-0.19-0.25
		c2.75-1.85,5.5-3.7,8.24-5.55C38.49,65.51,37.46,66.78,36.37,67.99z M76.42,23.04c-1.28,1.41-2.5,2.87-3.55,4.46
		c-0.99,1.52-1.88,3.09-2.44,4.83c-0.33,1.02-0.51,2.07-0.58,3.13c-0.11,1.68-0.41,3.33-0.77,4.97c-0.51,2.3-1.24,4.52-2.28,6.64
		c-0.93,1.89-2.13,3.59-3.55,5.14c-1.74,1.89-3.79,3.35-6.03,4.58c-1.77,0.97-3.62,1.75-5.55,2.35c-1.99,0.62-4.01,1.02-6.07,1.28
		c-1.97,0.25-3.94,0.36-5.93,0.22c-0.57-0.04-1.05,0.15-1.52,0.51c-1.23,0.93-2.48,1.84-3.74,2.72c-1.04,0.72-2.11,1.41-3.18,2.09
		c-0.74,0.47-1.51,0.92-2.27,1.37c-1.23,0.73-2.53-0.03-3.01-0.81c-0.56-0.92-0.38-2.34,0.95-2.97c1.32-0.63,2.57-1.38,3.77-2.19
		c2.04-1.38,3.94-2.94,5.82-4.53c1.37-1.16,2.65-2.4,3.84-3.75c1.42-1.61,2.63-3.38,3.78-5.19c0.4-0.63,0.79-1.26,1.2-1.89
		c0.05-0.08,0.17-0.13,0.27-0.15c2.23-0.54,4.39-1.26,6.46-2.26c0.67-0.32,1.04-1.08,0.78-1.88c-0.21-0.65-0.99-1.15-1.7-1
		c-0.51,0.11-1.01,0.29-1.47,0.51c-1.51,0.73-3.07,1.26-4.71,1.6c-1.17,0.24-2.35,0.41-3.54,0.44c-0.36,0.01-0.72-0.05-1.07-0.08
		c-0.15-0.01-0.29-0.09-0.26-0.25c0.01-0.08,0.15-0.16,0.24-0.19c0.76-0.24,1.53-0.45,2.27-0.72c0.55-0.2,1-0.59,1.4-1.02
		c0.04-0.05,0.07-0.11,0.14-0.21c-0.14,0-0.22-0.01-0.31,0c-2.49,0.17-4.98,0.2-7.48,0.14c-0.42-0.01-0.83-0.1-1.25-0.17
		c-0.14-0.02-0.28-0.09-0.4-0.17c-0.08-0.05-0.15-0.17-0.16-0.26c0-0.05,0.13-0.15,0.22-0.16c0.53-0.11,1.07-0.28,1.61-0.3
		c2.51-0.1,5.02-0.16,7.53-0.23c0.22-0.01,0.45-0.03,0.67-0.02c0.19,0.01,0.27-0.08,0.29-0.25c0.03-0.34,0.05-0.68,0.06-1.02
		c0-0.17-0.07-0.23-0.27-0.22c-0.62,0.03-1.23,0.03-1.85,0c-1.55-0.05-3.1-0.09-4.65-0.19c-2.18-0.14-4.36-0.33-6.53-0.52
		c-0.38-0.03-0.75-0.16-1.13-0.25c-0.11-0.03-0.22-0.1-0.31-0.17c-0.28-0.21-0.27-0.44,0.01-0.64c0.38-0.27,0.8-0.38,1.26-0.35
		c1.13,0.07,2.26,0.14,3.39,0.22c1.5,0.11,3.01,0.23,4.51,0.33c1.44,0.09,2.87,0.16,4.37,0.24c-0.07-0.13-0.11-0.22-0.17-0.29
		c-0.43-0.53-0.85-1.05-1.29-1.57c-0.07-0.08-0.18-0.14-0.28-0.15c-2.28-0.26-4.57-0.47-6.84-0.79c-2.44-0.34-4.87-0.77-7.3-1.2
		c-0.6-0.11-1.18-0.36-1.75-0.58c-0.19-0.07-0.36-0.23-0.52-0.37c-0.2-0.19-0.17-0.35,0.05-0.51c0.25-0.19,0.52-0.3,0.84-0.27
		c0.71,0.08,1.41,0.16,2.11,0.27c1.95,0.31,3.9,0.64,5.86,0.95c1.97,0.31,3.95,0.58,5.92,0.87c0.13,0.02,0.25,0.01,0.43,0.02
		c-0.06-0.1-0.09-0.17-0.13-0.23c-0.39-0.48-0.78-0.96-1.16-1.44c-0.14-0.17-0.3-0.25-0.52-0.29c-1.69-0.33-3.38-0.67-5.06-1.02
		c-1.58-0.34-3.17-0.66-4.74-1.06c-2.15-0.55-4.31-1.08-6.36-1.93c-1.63-0.68-3.11-1.59-4.36-2.85c-0.07-0.07-0.13-0.13-0.24-0.26
		c3.3,0.98,6.51,1.97,9.74,2.88c3.25,0.92,6.52,1.73,9.83,2.46c0-0.08,0.02-0.11,0-0.12c-0.63-0.83-1.23-1.71-2.2-2.19
		c-0.98-0.48-1.98-0.94-3-1.34c-1.97-0.77-3.93-1.57-5.84-2.49c-2.2-1.05-4.37-2.14-6.43-3.44c-2.32-1.45-4.27-3.3-5.8-5.56
		c-0.22-0.32-0.43-0.66-0.64-1c1.64,0.33,3.21,0.86,4.77,1.41c2.24,0.78,4.43,1.69,6.57,2.72c2.68,1.29,5.32,2.66,7.89,4.14
		c1.85,1.07,3.7,2.16,5.53,3.27c1.76,1.08,3.51,2.17,5.23,3.31c2.65,1.76,5.26,3.57,7.89,5.36c0.4,0.27,0.8,0.56,1.21,0.83
		c0.52,0.35,1.06,0.42,1.66,0.18c1.8-0.75,3.44-1.71,4.65-3.27c0.79-1.02,1.17-2.22,1.47-3.45c0.26-1.1,0.44-2.22,0.74-3.31
		c0.39-1.46,1.11-2.77,2.19-3.84c1.2-1.2,2.71-1.71,4.35-1.88c1.87-0.2,3.6,0.34,5.26,1.13c0.59,0.28,1.13,0.65,1.71,0.94
		c0.66,0.34,1.34,0.64,2.02,0.95c0.08,0.04,0.18,0.04,0.36,0.09C77.01,22.29,76.74,22.69,76.42,23.04z"/>
	<path d="M69.4,20.57c-1.55,0.02-2.84,1.31-2.84,2.87c0,1.61,1.33,2.94,2.95,2.94c1.56,0,2.85-1.3,2.9-2.82
		C72.47,22.08,71.2,20.55,69.4,20.57z"/>
</g>
</svg>
