<?xml version="1.0" encoding="utf-8"?>
<!-- Generator: Adobe Illustrator 28.1.0, SVG Export Plug-In . SVG Version: 6.00 Build 0)  -->
<svg version="1.1" id="Layer_1" xmlns="http://www.w3.org/2000/svg" xmlns:xlink="http://www.w3.org/1999/xlink" x="0px" y="0px"
	 viewBox="0 0 56.69 56.69" style="enable-background:new 0 0 56.69 56.69;" xml:space="preserve">
<style type="text/css">
	.st0{fill:none;stroke:#000000;stroke-miterlimit:10;}
</style>
<g>
	<path d="M-950.02,312.19c-0.58-4.16-3.45-7.54-7.07-8.32c-0.57-0.12-2.05-0.17-2.65-0.09c-0.56,0.08-1.44,0.3-2,0.52
		c-3.17,1.21-5.62,3.97-6.51,7.33c-0.29,1.11-0.35,1.56-0.35,3c-0.01,1.52,0.06,2.1,0.4,3.43c0.44,1.74,1.18,3.31,2.18,4.64
		c0.4,0.53,1.37,1.5,1.78,1.78c0.17,0.12,0.72,0.6,1.5,1.08c0.09,0.06-1.28,1.44-1.2,1.51c0,0,0.57,0.18,1.44,0.38
		c-0.13,0.65-1.37,1.17-2.82,1.17c-1.6,0-2.97-0.8-2.97-1.46c0-0.25,0.21-0.5,0.42-0.74c0.16-0.19,0.3-0.36,0.38-0.55
		c0.04-0.11,0.06-0.21,0.06-0.33c0-0.78-1.24-1.52-2.54-1.52c-1.29,0-2.31,0.62-2.31,1.4c0,0,0,0.18,0.16,0.18
		c0.16,0,0.16-0.18,0.16-0.18c0-0.59,0.91-1.08,1.98-1.08c1.17,0,2.22,0.67,2.22,1.2c0,0.07-0.01,0.14-0.04,0.21
		c-0.05,0.14-0.18,0.29-0.32,0.45c-0.23,0.27-0.49,0.58-0.49,0.95c0,0.93,1.57,1.78,3.29,1.78c1.65,0,2.97-0.62,3.14-1.43
		c0.51,0.11,1.11,0.21,1.74,0.28c0.02-0.02-0.63-2-0.62-2.01c0.01-0.02,0.31-0.04,0.67-0.05c1.14-0.04,2.12-0.3,3.29-0.87
		c3.6-1.74,6.51-5.75,7.07-9.75C-949.92,314.37-949.92,312.95-950.02,312.19 M-955.85,308.05c0-0.55,0.44-0.99,0.99-0.99
		c0.55,0,0.99,0.44,0.99,0.99c0,0.55-0.44,0.99-0.99,0.99C-955.41,309.04-955.85,308.6-955.85,308.05 M-953.52,318.33
		c0.21-1.56,1.3-3.4-0.57-7.55c-0.04-0.08-0.08-0.18-0.08-0.28c0-0.55,0.44-0.99,0.99-0.99c0.46,0,0.85,0.32,0.96,0.75
		C-951.09,311.94-951.27,316.09-953.52,318.33"/>
	<path d="M-961.25,335.52c-1,0-1.82,0.82-1.82,1.82c0,1.01,0.82,1.82,1.82,1.82c1,0,1.82-0.82,1.82-1.82
		C-959.42,336.34-960.24,335.52-961.25,335.52"/>
</g>
<rect x="-989.29" y="289.13" class="st0" width="56.69" height="56.69"/>
<g>
	<path d="M-950.02,312.19c-0.58-4.16-3.45-7.54-7.07-8.32c-0.57-0.12-2.05-0.17-2.65-0.09c-0.56,0.08-1.44,0.3-2,0.52
		c-3.17,1.21-5.62,3.97-6.51,7.33c-0.29,1.11-0.35,1.56-0.35,3c-0.01,1.52,0.06,2.1,0.4,3.43c0.44,1.74,1.18,3.31,2.18,4.64
		c0.4,0.53,1.37,1.5,1.78,1.78c0.17,0.12,0.72,0.6,1.5,1.08c0.09,0.06-1.28,1.44-1.2,1.51c0,0,0.57,0.18,1.44,0.38
		c-0.13,0.65-1.37,1.17-2.82,1.17c-1.6,0-2.97-0.8-2.97-1.46c0-0.25,0.21-0.5,0.42-0.74c0.16-0.19,0.3-0.36,0.38-0.55
		c0.04-0.11,0.06-0.21,0.06-0.33c0-0.78-1.24-1.52-2.54-1.52c-1.29,0-2.31,0.62-2.31,1.4c0,0,0,0.18,0.16,0.18
		c0.16,0,0.16-0.18,0.16-0.18c0-0.59,0.91-1.08,1.98-1.08c1.17,0,2.22,0.67,2.22,1.2c0,0.07-0.01,0.14-0.04,0.21
		c-0.05,0.14-0.18,0.29-0.32,0.45c-0.23,0.27-0.49,0.58-0.49,0.95c0,0.93,1.57,1.78,3.29,1.78c1.65,0,2.97-0.62,3.14-1.43
		c0.51,0.11,1.11,0.21,1.74,0.28c0.02-0.02-0.63-2-0.62-2.01c0.01-0.02,0.31-0.04,0.67-0.05c1.14-0.04,2.12-0.3,3.29-0.87
		c3.6-1.74,6.51-5.75,7.07-9.75C-949.92,314.37-949.92,312.95-950.02,312.19 M-955.85,308.05c0-0.55,0.44-0.99,0.99-0.99
		c0.55,0,0.99,0.44,0.99,0.99c0,0.55-0.44,0.99-0.99,0.99C-955.41,309.04-955.85,308.6-955.85,308.05 M-953.52,318.33
		c0.21-1.56,1.3-3.4-0.57-7.55c-0.04-0.08-0.08-0.18-0.08-0.28c0-0.55,0.44-0.99,0.99-0.99c0.46,0,0.85,0.32,0.96,0.75
		C-951.09,311.94-951.27,316.09-953.52,318.33"/>
	<path d="M-961.25,335.52c-1,0-1.82,0.82-1.82,1.82c0,1.01,0.82,1.82,1.82,1.82c1,0,1.82-0.82,1.82-1.82
		C-959.42,336.34-960.24,335.52-961.25,335.52"/>
</g>
<rect x="-989.29" y="289.13" class="st0" width="56.69" height="56.69"/>
<g>
	<path d="M39.6,22.92c-0.58-4.16-3.45-7.54-7.07-8.32c-0.57-0.12-2.05-0.17-2.65-0.09c-0.56,0.08-1.44,0.3-2,0.52
		c-3.17,1.21-5.62,3.97-6.51,7.33c-0.29,1.11-0.35,1.56-0.35,3c-0.01,1.52,0.06,2.1,0.4,3.43c0.44,1.74,1.18,3.31,2.18,4.64
		c0.4,0.53,1.37,1.5,1.78,1.78c0.17,0.12,0.72,0.6,1.5,1.08c0.09,0.06-1.28,1.44-1.2,1.51c0,0,0.57,0.18,1.44,0.38
		c-0.13,0.65-1.37,1.17-2.82,1.17c-1.6,0-2.97-0.8-2.97-1.46c0-0.25,0.21-0.5,0.42-0.74c0.16-0.19,0.3-0.36,0.38-0.55
		c0.04-0.11,0.06-0.21,0.06-0.33c0-0.78-1.24-1.52-2.54-1.52c-1.29,0-2.31,0.62-2.31,1.4c0,0,0,0.18,0.16,0.18
		c0.16,0,0.16-0.18,0.16-0.18c0-0.59,0.91-1.08,1.98-1.08c1.17,0,2.22,0.67,2.22,1.2c0,0.07-0.01,0.14-0.04,0.21
		c-0.05,0.14-0.18,0.29-0.32,0.45c-0.23,0.27-0.49,0.58-0.49,0.95c0,0.93,1.57,1.78,3.29,1.78c1.65,0,2.97-0.62,3.14-1.43
		c0.51,0.11,1.11,0.21,1.74,0.28c0.02-0.02-0.63-2-0.62-2.01c0.01-0.02,0.31-0.04,0.67-0.05c1.14-0.04,2.12-0.3,3.29-0.87
		c3.6-1.74,6.51-5.75,7.07-9.75C39.7,25.09,39.7,23.68,39.6,22.92 M33.77,18.78c0-0.55,0.44-0.99,0.99-0.99s0.99,0.44,0.99,0.99
		c0,0.55-0.44,0.99-0.99,0.99S33.77,19.32,33.77,18.78 M36.1,29.06c0.21-1.56,1.3-3.4-0.57-7.55c-0.04-0.08-0.08-0.18-0.08-0.28
		c0-0.55,0.44-0.99,0.99-0.99c0.46,0,0.85,0.32,0.96,0.75C38.53,22.66,38.35,26.81,36.1,29.06"/>
	<path d="M28.37,46.25c-1,0-1.82,0.82-1.82,1.82c0,1.01,0.82,1.82,1.82,1.82c1,0,1.82-0.82,1.82-1.82
		C30.19,47.07,29.38,46.25,28.37,46.25"/>
</g>
</svg>
