<?xml version="1.0" encoding="utf-8"?>
<!-- Generator: Adobe Illustrator 28.1.0, SVG Export Plug-In . SVG Version: 6.00 Build 0)  -->
<svg version="1.1" id="Layer_1" xmlns="http://www.w3.org/2000/svg" xmlns:xlink="http://www.w3.org/1999/xlink" x="0px" y="0px"
	 viewBox="0 0 56.69 56.69" style="enable-background:new 0 0 56.69 56.69;" xml:space="preserve">
<style type="text/css">
	.st0{fill:none;stroke:#000000;stroke-miterlimit:10;}
</style>
<g>
	<path d="M-950.02,312.19c-0.58-4.16-3.45-7.54-7.07-8.32c-0.57-0.12-2.05-0.17-2.65-0.09c-0.56,0.08-1.44,0.3-2,0.52
		c-3.17,1.21-5.62,3.97-6.51,7.33c-0.29,1.11-0.35,1.56-0.35,3c-0.01,1.52,0.06,2.1,0.4,3.43c0.44,1.74,1.18,3.31,2.18,4.64
		c0.4,0.53,1.37,1.5,1.78,1.78c0.17,0.12,0.72,0.6,1.5,1.08c0.09,0.06-1.28,1.44-1.2,1.51c0,0,0.57,0.18,1.44,0.38
		c-0.13,0.65-1.37,1.17-2.82,1.17c-1.6,0-2.97-0.8-2.97-1.46c0-0.25,0.21-0.5,0.42-0.74c0.16-0.19,0.3-0.36,0.38-0.55
		c0.04-0.11,0.06-0.21,0.06-0.33c0-0.78-1.24-1.52-2.54-1.52c-1.29,0-2.31,0.62-2.31,1.4c0,0,0,0.18,0.16,0.18
		c0.16,0,0.16-0.18,0.16-0.18c0-0.59,0.91-1.08,1.98-1.08c1.17,0,2.22,0.67,2.22,1.2c0,0.07-0.01,0.14-0.04,0.21
		c-0.05,0.14-0.18,0.29-0.32,0.45c-0.23,0.27-0.49,0.58-0.49,0.95c0,0.93,1.57,1.78,3.29,1.78c1.65,0,2.97-0.62,3.14-1.43
		c0.51,0.11,1.11,0.21,1.74,0.28c0.02-0.02-0.63-2-0.62-2.01c0.01-0.02,0.31-0.04,0.67-0.05c1.14-0.04,2.12-0.3,3.29-0.87
		c3.6-1.74,6.51-5.75,7.07-9.75C-949.92,314.37-949.92,312.95-950.02,312.19 M-955.85,308.05c0-0.55,0.44-0.99,0.99-0.99
		c0.55,0,0.99,0.44,0.99,0.99c0,0.55-0.44,0.99-0.99,0.99C-955.41,309.04-955.85,308.6-955.85,308.05 M-953.52,318.33
		c0.21-1.56,1.3-3.4-0.57-7.55c-0.04-0.08-0.08-0.18-0.08-0.28c0-0.55,0.44-0.99,0.99-0.99c0.46,0,0.85,0.32,0.96,0.75
		C-951.09,311.94-951.27,316.09-953.52,318.33"/>
	<path d="M-961.25,335.52c-1,0-1.82,0.82-1.82,1.82c0,1.01,0.82,1.82,1.82,1.82c1,0,1.82-0.82,1.82-1.82
		C-959.42,336.34-960.24,335.52-961.25,335.52"/>
</g>
<rect x="-989.29" y="289.13" class="st0" width="56.69" height="56.69"/>
<g>
	<path d="M-950.02,312.19c-0.58-4.16-3.45-7.54-7.07-8.32c-0.57-0.12-2.05-0.17-2.65-0.09c-0.56,0.08-1.44,0.3-2,0.52
		c-3.17,1.21-5.62,3.97-6.51,7.33c-0.29,1.11-0.35,1.56-0.35,3c-0.01,1.52,0.06,2.1,0.4,3.43c0.44,1.74,1.18,3.31,2.18,4.64
		c0.4,0.53,1.37,1.5,1.78,1.78c0.17,0.12,0.72,0.6,1.5,1.08c0.09,0.06-1.28,1.44-1.2,1.51c0,0,0.57,0.18,1.44,0.38
		c-0.13,0.65-1.37,1.17-2.82,1.17c-1.6,0-2.97-0.8-2.97-1.46c0-0.25,0.21-0.5,0.42-0.74c0.16-0.19,0.3-0.36,0.38-0.55
		c0.04-0.11,0.06-0.21,0.06-0.33c0-0.78-1.24-1.52-2.54-1.52c-1.29,0-2.31,0.62-2.31,1.4c0,0,0,0.18,0.16,0.18
		c0.16,0,0.16-0.18,0.16-0.18c0-0.59,0.91-1.08,1.98-1.08c1.17,0,2.22,0.67,2.22,1.2c0,0.07-0.01,0.14-0.04,0.21
		c-0.05,0.14-0.18,0.29-0.32,0.45c-0.23,0.27-0.49,0.58-0.49,0.95c0,0.93,1.57,1.78,3.29,1.78c1.65,0,2.97-0.62,3.14-1.43
		c0.51,0.11,1.11,0.21,1.74,0.28c0.02-0.02-0.63-2-0.62-2.01c0.01-0.02,0.31-0.04,0.67-0.05c1.14-0.04,2.12-0.3,3.29-0.87
		c3.6-1.74,6.51-5.75,7.07-9.75C-949.92,314.37-949.92,312.95-950.02,312.19 M-955.85,308.05c0-0.55,0.44-0.99,0.99-0.99
		c0.55,0,0.99,0.44,0.99,0.99c0,0.55-0.44,0.99-0.99,0.99C-955.41,309.04-955.85,308.6-955.85,308.05 M-953.52,318.33
		c0.21-1.56,1.3-3.4-0.57-7.55c-0.04-0.08-0.08-0.18-0.08-0.28c0-0.55,0.44-0.99,0.99-0.99c0.46,0,0.85,0.32,0.96,0.75
		C-951.09,311.94-951.27,316.09-953.52,318.33"/>
	<path d="M-961.25,335.52c-1,0-1.82,0.82-1.82,1.82c0,1.01,0.82,1.82,1.82,1.82c1,0,1.82-0.82,1.82-1.82
		C-959.42,336.34-960.24,335.52-961.25,335.52"/>
</g>
<rect x="-989.29" y="289.13" class="st0" width="56.69" height="56.69"/>
<g>
	<path d="M753.53,339.16c-1,0-1.82-0.82-1.82-1.82c0-1,0.82-1.82,1.82-1.82c1.01,0,1.82,0.82,1.82,1.82
		C755.35,338.35,754.53,339.16,753.53,339.16 M753.53,336.23c-0.61,0-1.12,0.5-1.12,1.12c0,0.61,0.5,1.12,1.12,1.12
		s1.12-0.5,1.12-1.12C754.64,336.73,754.14,336.23,753.53,336.23"/>
	<path d="M757.68,339.16c-1.01,0-1.82-0.82-1.82-1.82c0-1,0.82-1.82,1.82-1.82c1,0,1.82,0.82,1.82,1.82
		C759.51,338.35,758.69,339.16,757.68,339.16 M757.68,336.23c-0.61,0-1.12,0.5-1.12,1.12c0,0.61,0.5,1.12,1.12,1.12
		s1.11-0.5,1.11-1.12C758.8,336.73,758.3,336.23,757.68,336.23"/>
	<path d="M766,339.16c-1,0-1.82-0.82-1.82-1.82c0-1,0.82-1.82,1.82-1.82c1.01,0,1.82,0.82,1.82,1.82
		C767.82,338.35,767.01,339.16,766,339.16 M766,336.23c-0.61,0-1.12,0.5-1.12,1.12c0,0.61,0.5,1.12,1.12,1.12s1.12-0.5,1.12-1.12
		C767.12,336.73,766.62,336.23,766,336.23"/>
	<path d="M761.84,335.52c-1,0-1.82,0.82-1.82,1.82c0,1.01,0.82,1.82,1.82,1.82c1,0,1.82-0.82,1.82-1.82
		C763.66,336.34,762.85,335.52,761.84,335.52"/>
	<g>
		<path d="M778.16,310.01c-0.06,0.06-0.27,0.26-0.68,0.32c-0.08,0.01-0.14,0.04-0.19,0.09c-0.64,0.65-1.19,1.37-1.68,2.14
			c-0.16,0.25-0.29,0.52-0.36,0.81c-0.07,0.28-0.05,0.56,0,0.84c0.08,0.44,0.14,0.88,0.13,1.33c-0.02,0.67-0.13,1.33-0.31,1.98
			c-0.24,0.87-0.59,1.69-1.02,2.47c-0.45,0.83-0.99,1.6-1.59,2.32c-0.52,0.63-1.08,1.23-1.72,1.75c-0.43,0.35-0.92,0.55-1.46,0.64
			c-1.28,0.2-2.56,0.33-3.85,0.43c-0.74,0.05-1.49,0.07-2.23,0.06c-0.66-0.01-1.31,0-1.97,0c-0.62,0.01-1.24,0.01-1.86,0.03
			c-0.5,0.01-1,0.04-1.5,0.06c-0.87,0.03-1.73,0.06-2.6,0.03c-0.56-0.02-1.12-0.02-1.68-0.03c-0.62-0.02-1.25-0.05-1.87-0.07
			c-0.75-0.03-1.49-0.06-2.24-0.09c-0.43-0.02-0.85-0.02-1.27-0.13c-0.19-0.05-0.35-0.13-0.51-0.25c-0.04-0.03-0.08-0.07-0.11-0.1
			c-0.11-0.13-0.1-0.26,0.03-0.35c0.11-0.08,0.24-0.15,0.37-0.2c0.36-0.14,0.73-0.25,1.09-0.4c0.42-0.17,0.84-0.36,1.25-0.56
			c0.1-0.05,0.17-0.05,0.27,0.02c0.94,0.66,1.96,1.15,3.07,1.44c0.61,0.16,1.23,0.24,1.86,0.25c0.63,0.01,1.26-0.05,1.87-0.18
			c0.48-0.1,0.94-0.25,1.39-0.43c0.49-0.2,0.95-0.44,1.39-0.73c1.06-0.71,1.92-1.62,2.61-2.69c0.15-0.23,0.29-0.47,0.43-0.7
			c0.02-0.03,0.04-0.06,0.06-0.08c0.26-0.22,0.52-0.46,0.8-0.67c0.66-0.52,1.34-1.02,2.06-1.48c0.72-0.46,1.44-0.91,2.16-1.37
			c0.15-0.09,0.3-0.19,0.45-0.28c0.02-0.01,0.04-0.02,0.05-0.03c0.15,0.36,0.32,0.7,0.58,0.99c0.05,0.06,0.08,0.07,0.15,0.02
			c0.26-0.19,0.52-0.39,0.79-0.56c0.58-0.39,1.04-0.89,1.39-1.49c0.23-0.41,0.49-0.81,0.71-1.22c0.2-0.39,0.38-0.79,0.56-1.19
			c0.2-0.46,0.25-0.95,0.28-1.44c0.02-0.42,0.04-0.85,0.05-1.27c0-0.33-0.01-0.67-0.02-1c-0.01-0.23-0.03-0.46-0.04-0.69
			c0-0.04-0.01-0.07-0.02-0.11c-0.01-0.06-0.04-0.1-0.11-0.11c-0.26-0.03-0.43-0.19-0.57-0.38c-0.15-0.19-0.29-0.39-0.36-0.64
			c-0.14-0.52,0.02-0.96,0.41-1.31c0.5-0.45,1.24-0.39,1.69,0.1c0.17,0.19,0.32,0.4,0.37,0.67c0.07,0.37-0.01,0.71-0.21,1.02
			c-0.11,0.17-0.25,0.32-0.42,0.44c-0.07,0.05-0.11,0.12-0.11,0.2c-0.01,0.24-0.03,0.48-0.03,0.73c-0.01,0.7,0.03,1.4,0.13,2.09
			c0.05,0.36,0.11,0.71,0.19,1.06c0.05,0.24,0.12,0.26,0.3,0.12c0.21-0.16,0.42-0.33,0.62-0.5c0.48-0.43,0.93-0.89,1.35-1.38
			c0.11-0.13,0.21-0.29,0.3-0.43c0.02-0.02,0.02-0.07,0-0.1c-0.13-0.26-0.11-0.52,0.02-0.76c0.2-0.35,0.49-0.57,0.89-0.65
			c0.02,0,0.03-0.01,0.05-0.01C778.42,308.37,779.12,309.05,778.16,310.01z"/>
		<path d="M755.18,315.64c-0.17-0.66,0.24-1.27,0.91-1.37c0.99-0.15,1.6,0.67,1.61,1.42c0.01,0.87-0.73,1.68-1.57,1.79
			c-0.44,0.06-0.87,0.05-1.27-0.12c-0.67-0.29-1.13-0.77-1.32-1.48c-0.19-0.69-0.15-1.36,0.17-2.01c0.29-0.59,0.74-1.03,1.33-1.33
			c1.24-0.64,2.75-0.37,3.71,0.58c0.73,0.72,1.1,1.61,1.11,2.64c0.01,0.77-0.14,1.49-0.52,2.17c-0.34,0.61-0.81,1.11-1.39,1.49
			c-0.64,0.42-1.34,0.64-2.1,0.7c-0.99,0.07-1.92-0.15-2.77-0.68c-0.68-0.42-1.24-0.99-1.67-1.67c-0.53-0.83-0.79-1.74-0.81-2.72
			c-0.02-0.67,0.07-1.33,0.28-1.97c0.23-0.69,0.6-1.31,1.06-1.87c0.54-0.65,1.19-1.15,1.96-1.51c0.81-0.38,1.66-0.59,2.55-0.6
			c1-0.02,1.96,0.17,2.87,0.58c0.9,0.4,1.65,1,2.29,1.75c0.65,0.77,1.08,1.64,1.35,2.61c0.2,0.71,0.28,1.45,0.27,2.19
			c-0.02,1.14-0.26,2.23-0.74,3.26c-0.44,0.95-1.05,1.79-1.82,2.51c-0.72,0.68-1.55,1.18-2.48,1.51c-0.75,0.27-1.54,0.41-2.33,0.45
			c-0.88,0.05-1.74-0.05-2.57-0.31c-0.56-0.17-1.09-0.39-1.6-0.68c-0.4-0.23-0.79-0.49-1.15-0.78c-0.58-0.46-1.1-0.98-1.56-1.57
			c-0.66-0.85-1.14-1.79-1.44-2.82c-0.22-0.76-0.33-1.54-0.36-2.34c-0.02-0.56,0.03-1.12,0.1-1.68c0.19-1.33,0.62-2.57,1.32-3.71
			c0.33-0.53,0.72-1,1.14-1.45c0.61-0.66,1.27-1.24,2.03-1.72c0.56-0.35,1.15-0.64,1.77-0.86c0.91-0.33,1.85-0.53,2.81-0.63
			c1.03-0.11,2.04-0.02,3.04,0.2c0.69,0.15,1.35,0.35,2.01,0.61c0.69,0.28,1.34,0.64,1.96,1.06c0.9,0.61,1.68,1.36,2.38,2.19
			c0.68,0.81,1.26,1.7,1.71,2.66c0.36,0.76,0.63,1.56,0.81,2.38c0.04,0.2,0.08,0.39,0.12,0.59c0.01,0.05,0,0.08-0.05,0.11
			c-0.52,0.33-1.04,0.66-1.56,0.99c-0.7,0.45-1.39,0.91-2.08,1.37c-0.22,0.15-0.43,0.31-0.65,0.47c0.03-0.18,0.07-0.34,0.1-0.51
			c0.08-0.5,0.11-1,0.1-1.51c-0.01-0.67-0.07-1.34-0.23-1.99c-0.23-0.99-0.64-1.9-1.23-2.72c-0.67-0.94-1.5-1.7-2.51-2.26
			c-0.92-0.51-1.9-0.82-2.95-0.9c-0.69-0.05-1.37-0.02-2.05,0.11c-0.91,0.18-1.78,0.5-2.55,1.04c-0.64,0.44-1.18,0.98-1.65,1.6
			c-0.48,0.65-0.84,1.36-1.08,2.13c-0.33,1.02-0.38,2.07-0.18,3.12c0.18,0.95,0.54,1.82,1.15,2.58c0.49,0.61,1.07,1.13,1.74,1.53
			c0.53,0.32,1.1,0.55,1.7,0.67c0.76,0.15,1.53,0.14,2.29-0.02c0.82-0.17,1.55-0.55,2.18-1.1c0.58-0.5,1.03-1.09,1.35-1.79
			c0.44-0.95,0.55-1.95,0.36-2.98c-0.16-0.87-0.53-1.64-1.14-2.29c-0.56-0.59-1.22-1.02-2.02-1.21c-1.07-0.25-2.09-0.12-3.02,0.48
			c-0.72,0.46-1.22,1.1-1.5,1.91c-0.2,0.59-0.2,1.19-0.07,1.79c0.15,0.69,0.48,1.27,1.02,1.72c0.69,0.59,1.5,0.79,2.39,0.6
			c0.98-0.2,1.62-0.82,1.9-1.76c0.25-0.83-0.08-1.89-0.99-2.35c-0.49-0.24-0.99-0.26-1.49-0.03c-0.48,0.22-0.76,0.61-0.85,1.12
			c-0.07,0.39,0.01,0.77,0.25,1.08c0.25,0.31,0.21-0.2,0.21-0.2"/>
	</g>
</g>
<rect x="731.34" y="289.13" class="st0" width="56.69" height="56.69"/>
<g>
	<path d="M22.12,50.01c-1,0-1.82-0.82-1.82-1.82c0-1,0.82-1.82,1.82-1.82c1.01,0,1.82,0.82,1.82,1.82
		C23.94,49.2,23.12,50.01,22.12,50.01 M22.12,47.08c-0.61,0-1.12,0.5-1.12,1.12c0,0.61,0.5,1.12,1.12,1.12
		c0.61,0,1.12-0.5,1.12-1.12C23.23,47.58,22.73,47.08,22.12,47.08"/>
	<path d="M26.28,50.01c-1.01,0-1.82-0.82-1.82-1.82c0-1,0.82-1.82,1.82-1.82c1,0,1.82,0.82,1.82,1.82
		C28.1,49.2,27.28,50.01,26.28,50.01 M26.28,47.08c-0.61,0-1.12,0.5-1.12,1.12c0,0.61,0.5,1.12,1.12,1.12c0.61,0,1.12-0.5,1.12-1.12
		C27.39,47.58,26.89,47.08,26.28,47.08"/>
	<path d="M34.59,50.01c-1,0-1.82-0.82-1.82-1.82c0-1,0.82-1.82,1.82-1.82c1.01,0,1.82,0.82,1.82,1.82
		C36.41,49.2,35.6,50.01,34.59,50.01 M34.59,47.08c-0.61,0-1.12,0.5-1.12,1.12c0,0.61,0.5,1.12,1.12,1.12c0.61,0,1.12-0.5,1.12-1.12
		C35.71,47.58,35.21,47.08,34.59,47.08"/>
	<path d="M30.43,46.37c-1,0-1.82,0.82-1.82,1.82c0,1.01,0.82,1.82,1.82,1.82c1,0,1.82-0.82,1.82-1.82
		C32.26,47.19,31.44,46.37,30.43,46.37"/>
	<g>
		<path d="M46.76,20.86c-0.06,0.06-0.27,0.26-0.68,0.32c-0.08,0.01-0.14,0.04-0.19,0.09c-0.64,0.65-1.19,1.37-1.68,2.14
			c-0.16,0.25-0.29,0.52-0.36,0.81c-0.07,0.28-0.05,0.56,0,0.84c0.08,0.44,0.14,0.88,0.13,1.33c-0.02,0.67-0.13,1.33-0.31,1.98
			c-0.24,0.87-0.59,1.69-1.02,2.47c-0.45,0.83-0.99,1.6-1.59,2.32c-0.52,0.63-1.08,1.23-1.72,1.75c-0.43,0.35-0.92,0.55-1.46,0.64
			c-1.28,0.2-2.56,0.33-3.85,0.43c-0.74,0.05-1.49,0.07-2.23,0.06c-0.66-0.01-1.31,0-1.97,0c-0.62,0.01-1.24,0.01-1.86,0.03
			c-0.5,0.01-1,0.04-1.5,0.06c-0.87,0.03-1.73,0.06-2.6,0.03c-0.56-0.02-1.12-0.02-1.68-0.03c-0.62-0.02-1.25-0.05-1.87-0.07
			c-0.75-0.03-1.49-0.06-2.24-0.09c-0.43-0.02-0.85-0.02-1.27-0.13c-0.19-0.05-0.35-0.13-0.51-0.25c-0.04-0.03-0.08-0.07-0.11-0.1
			c-0.11-0.13-0.1-0.26,0.03-0.35c0.11-0.08,0.24-0.15,0.37-0.2c0.36-0.14,0.73-0.25,1.09-0.4c0.42-0.17,0.84-0.36,1.25-0.56
			c0.1-0.05,0.17-0.05,0.27,0.02c0.94,0.66,1.96,1.15,3.07,1.44c0.61,0.16,1.23,0.24,1.86,0.25c0.63,0.01,1.26-0.05,1.87-0.18
			c0.48-0.1,0.94-0.25,1.39-0.43c0.49-0.2,0.95-0.44,1.39-0.73c1.06-0.71,1.92-1.62,2.61-2.69c0.15-0.23,0.29-0.47,0.43-0.7
			c0.02-0.03,0.04-0.06,0.06-0.08c0.26-0.22,0.52-0.46,0.8-0.67c0.66-0.52,1.34-1.02,2.06-1.48c0.72-0.46,1.44-0.91,2.16-1.37
			c0.15-0.09,0.3-0.19,0.45-0.28c0.02-0.01,0.04-0.02,0.05-0.03c0.15,0.36,0.32,0.7,0.58,0.99c0.05,0.06,0.08,0.07,0.15,0.02
			c0.26-0.19,0.52-0.39,0.79-0.56c0.58-0.39,1.04-0.89,1.39-1.49c0.23-0.41,0.49-0.81,0.71-1.22c0.2-0.39,0.38-0.79,0.56-1.19
			c0.2-0.46,0.25-0.95,0.28-1.44c0.02-0.42,0.04-0.85,0.05-1.27c0-0.33-0.01-0.67-0.02-1c-0.01-0.23-0.03-0.46-0.04-0.69
			c0-0.04-0.01-0.07-0.02-0.11c-0.01-0.06-0.04-0.1-0.11-0.11c-0.26-0.03-0.43-0.19-0.57-0.38c-0.15-0.19-0.29-0.39-0.36-0.64
			c-0.14-0.52,0.02-0.96,0.41-1.31c0.5-0.45,1.24-0.39,1.69,0.1c0.17,0.19,0.32,0.4,0.37,0.67c0.07,0.37-0.01,0.71-0.21,1.02
			c-0.11,0.17-0.25,0.32-0.42,0.44c-0.07,0.05-0.11,0.12-0.11,0.2c-0.01,0.24-0.03,0.48-0.03,0.73c-0.01,0.7,0.03,1.4,0.13,2.09
			c0.05,0.36,0.11,0.71,0.19,1.06c0.05,0.24,0.12,0.26,0.3,0.12c0.21-0.16,0.42-0.33,0.62-0.5c0.48-0.43,0.93-0.89,1.35-1.38
			c0.11-0.13,0.21-0.29,0.3-0.43c0.02-0.02,0.02-0.07,0-0.1c-0.13-0.26-0.11-0.52,0.02-0.76c0.2-0.35,0.5-0.57,0.89-0.65
			c0.02,0,0.03-0.01,0.05-0.01C47.01,19.22,47.71,19.9,46.76,20.86z"/>
		<path d="M23.78,26.49c-0.17-0.66,0.24-1.27,0.91-1.37c0.99-0.15,1.6,0.67,1.61,1.42c0.01,0.87-0.73,1.68-1.57,1.79
			c-0.44,0.06-0.87,0.05-1.27-0.12c-0.67-0.29-1.13-0.77-1.32-1.48c-0.19-0.69-0.15-1.36,0.17-2.01c0.29-0.59,0.74-1.03,1.33-1.33
			c1.24-0.64,2.75-0.37,3.71,0.58c0.73,0.72,1.1,1.61,1.11,2.64c0.01,0.77-0.14,1.49-0.52,2.17c-0.34,0.61-0.81,1.11-1.39,1.49
			c-0.64,0.42-1.34,0.64-2.1,0.7c-0.99,0.07-1.92-0.15-2.77-0.68c-0.68-0.42-1.24-0.99-1.67-1.67c-0.53-0.83-0.79-1.74-0.81-2.72
			c-0.02-0.67,0.07-1.33,0.28-1.97c0.23-0.69,0.6-1.31,1.06-1.87c0.54-0.65,1.19-1.15,1.96-1.51c0.81-0.38,1.66-0.59,2.55-0.6
			c1-0.02,1.96,0.17,2.87,0.58c0.9,0.4,1.65,1,2.29,1.75c0.65,0.77,1.08,1.64,1.35,2.61c0.2,0.71,0.28,1.45,0.27,2.19
			c-0.02,1.14-0.26,2.23-0.74,3.26c-0.44,0.95-1.05,1.79-1.82,2.51c-0.72,0.68-1.55,1.18-2.48,1.51c-0.75,0.27-1.54,0.41-2.33,0.45
			c-0.88,0.05-1.74-0.05-2.57-0.31c-0.56-0.17-1.09-0.39-1.6-0.68c-0.4-0.23-0.79-0.49-1.15-0.78c-0.58-0.46-1.1-0.98-1.56-1.57
			c-0.66-0.85-1.14-1.79-1.44-2.82c-0.22-0.76-0.33-1.54-0.36-2.34c-0.02-0.56,0.03-1.12,0.1-1.68c0.19-1.33,0.62-2.57,1.32-3.71
			c0.33-0.53,0.72-1,1.14-1.45c0.61-0.66,1.27-1.24,2.03-1.72c0.56-0.35,1.15-0.64,1.77-0.86c0.91-0.33,1.85-0.53,2.81-0.63
			c1.03-0.11,2.04-0.02,3.04,0.2c0.69,0.15,1.35,0.35,2.01,0.61c0.69,0.28,1.34,0.64,1.96,1.06c0.9,0.61,1.68,1.36,2.38,2.19
			c0.68,0.81,1.26,1.7,1.71,2.66c0.36,0.76,0.63,1.56,0.81,2.38c0.04,0.2,0.08,0.39,0.12,0.59c0.01,0.05,0,0.08-0.05,0.11
			c-0.52,0.33-1.04,0.66-1.56,0.99c-0.7,0.45-1.39,0.91-2.08,1.37c-0.22,0.15-0.43,0.31-0.65,0.47c0.03-0.18,0.07-0.34,0.1-0.51
			c0.08-0.5,0.11-1,0.1-1.51c-0.01-0.67-0.07-1.34-0.23-1.99c-0.23-0.99-0.64-1.9-1.23-2.72c-0.67-0.94-1.5-1.7-2.51-2.26
			c-0.92-0.51-1.9-0.82-2.95-0.9c-0.69-0.05-1.37-0.02-2.05,0.11c-0.91,0.18-1.78,0.5-2.55,1.04c-0.64,0.44-1.18,0.98-1.65,1.6
			c-0.48,0.65-0.84,1.36-1.08,2.13c-0.33,1.02-0.38,2.07-0.18,3.12c0.18,0.95,0.54,1.82,1.15,2.58c0.49,0.61,1.07,1.13,1.74,1.53
			c0.53,0.32,1.1,0.55,1.7,0.67c0.76,0.15,1.53,0.14,2.29-0.02c0.82-0.17,1.55-0.55,2.18-1.1c0.58-0.5,1.03-1.09,1.35-1.79
			c0.44-0.95,0.55-1.95,0.36-2.98c-0.16-0.87-0.53-1.64-1.14-2.29c-0.56-0.59-1.22-1.02-2.02-1.21c-1.07-0.25-2.09-0.12-3.02,0.48
			c-0.72,0.46-1.22,1.1-1.5,1.91c-0.2,0.59-0.2,1.19-0.07,1.79c0.15,0.69,0.48,1.27,1.02,1.72c0.69,0.59,1.5,0.79,2.39,0.6
			c0.98-0.2,1.62-0.82,1.91-1.76c0.25-0.83-0.08-1.89-0.99-2.35c-0.49-0.24-0.99-0.26-1.49-0.03c-0.48,0.22-0.76,0.61-0.85,1.12
			c-0.07,0.39,0.01,0.77,0.25,1.08c0.25,0.31,0.21-0.2,0.21-0.2"/>
	</g>
</g>
</svg>
