<?xml version="1.0" encoding="utf-8"?>
<!-- Generator: Adobe Illustrator 28.1.0, SVG Export Plug-In . SVG Version: 6.00 Build 0)  -->
<svg version="1.1" id="Layer_1" xmlns="http://www.w3.org/2000/svg" xmlns:xlink="http://www.w3.org/1999/xlink" x="0px" y="0px"
	 viewBox="0 0 110.55 76.54" style="enable-background:new 0 0 110.55 76.54;" xml:space="preserve">
<style type="text/css">
	.st0{display:none;}
	.st1{display:inline;fill:none;}
</style>
<g id="Layer_2_00000073722119373351752270000017113015111246931634_" class="st0">
	<line class="st1" x1="-24.13" y1="74.54" x2="142.13" y2="74.54"/>
	<line class="st1" x1="-24.13" y1="2" x2="142.13" y2="2"/>
</g>
<g>
	<path d="M73.13,72.6L57.97,53.95l-4.54,4.54l18.65,15.16c0.32,0.26,0.79,0.21,1.05-0.12C73.35,73.26,73.35,72.87,73.13,72.6
		L73.13,72.6z"/>
	<polygon points="30.83,42.79 41.35,56.05 55.54,41.87 42.28,31.35 	"/>
	<path d="M57.22,43.2L42.68,57.73c-1.41,2.33-1.75,5.7,0.06,7.51l0.46,0.46l21.98-21.98l-0.46-0.46
		C62.92,41.45,59.54,41.78,57.22,43.2z"/>
	<path d="M38.61,26.48L25.96,39.13c-0.76,0.76-0.77,2,0,2.76s2,0.77,2.76,0c0,0,0,0,0,0l12.65-12.65c0.76-0.76,0.77-2,0.01-2.76
		S39.38,25.71,38.61,26.48C38.62,26.47,38.61,26.47,38.61,26.48L38.61,26.48z"/>
	<path d="M82.26,58.31l-7.5-22.84l-5.86,2.62l12,20.83c0.21,0.36,0.67,0.48,1.02,0.27C82.23,59.01,82.37,58.64,82.26,58.31
		L82.26,58.31z"/>
	<polygon points="53.4,15.36 58.49,31.51 76.81,23.32 68.18,8.76 	"/>
	<path d="M77.9,25.17l-18.77,8.38c-2.15,1.67-3.67,4.7-2.62,7.03l0.27,0.6L85.16,28.5l-0.27-0.6C83.85,25.57,80.58,24.67,77.9,25.17
		z"/>
	<path d="M66.5,2.9l-16.33,7.3c-0.99,0.44-1.43,1.59-0.99,2.58s1.59,1.43,2.58,0.99c0,0,0,0,0.01,0l16.33-7.3
		c0.99-0.44,1.43-1.59,0.99-2.58S67.49,2.46,66.5,2.9C66.5,2.9,66.5,2.9,66.5,2.9L66.5,2.9z"/>
</g>
</svg>
