<?xml version="1.0" encoding="utf-8"?>
<!-- Generator: Adobe Illustrator 28.1.0, SVG Export Plug-In . SVG Version: 6.00 Build 0)  -->
<svg version="1.1" id="Layer_1" xmlns="http://www.w3.org/2000/svg" xmlns:xlink="http://www.w3.org/1999/xlink" x="0px" y="0px"
	 viewBox="0 0 110.55 76.54" style="enable-background:new 0 0 110.55 76.54;" xml:space="preserve">
<style type="text/css">
	.st0{display:none;}
	.st1{display:inline;fill:none;}
</style>
<g id="Layer_2_00000073722119373351752270000017113015111246931634_" class="st0">
	<line class="st1" x1="-24.13" y1="74.54" x2="142.13" y2="74.54"/>
	<line class="st1" x1="-24.13" y1="2" x2="142.13" y2="2"/>
</g>
<g>
	<path d="M93.76,65.51c0,1.37-1.11,2.48-2.48,2.48c-3.17,0-5.22,1.03-7.61,2.22c-2.55,1.28-5.45,2.73-9.73,2.73
		c-4.3,0-7.21-1.45-9.77-2.74c-2.38-1.19-4.43-2.22-7.56-2.22s-5.19,1.03-7.56,2.22c-2.57,1.28-5.48,2.74-9.77,2.74
		c-4.28,0-7.17-1.45-9.73-2.73c-2.39-1.19-4.44-2.22-7.61-2.22c-1.37,0-2.48-1.11-2.48-2.48s1.11-2.48,2.48-2.48
		c4.34,0,7.25,1.46,9.82,2.75c2.37,1.18,4.4,2.2,7.51,2.2c3.13,0,5.18-1.03,7.56-2.21c2.57-1.28,5.48-2.74,9.78-2.74
		s7.21,1.45,9.78,2.74c2.38,1.19,4.43,2.21,7.56,2.21c3.11,0,5.15-1.02,7.51-2.2c2.57-1.29,5.49-2.75,9.82-2.75
		C92.65,63.04,93.76,64.15,93.76,65.51z"/>
	<path d="M93.76,53.13c0,1.37-1.11,2.48-2.48,2.48c-3.17,0-5.22,1.03-7.61,2.22c-2.55,1.28-5.45,2.73-9.73,2.73
		c-4.3,0-7.21-1.45-9.77-2.74c-2.38-1.19-4.43-2.22-7.56-2.22s-5.19,1.03-7.56,2.22c-2.57,1.28-5.48,2.74-9.77,2.74
		c-4.28,0-7.17-1.45-9.73-2.73c-2.39-1.19-4.44-2.22-7.61-2.22c-1.37,0-2.48-1.11-2.48-2.48c0-1.37,1.11-2.48,2.48-2.48
		c4.34,0,7.25,1.46,9.82,2.75c2.37,1.18,4.4,2.2,7.51,2.2c3.13,0,5.18-1.03,7.56-2.21c2.57-1.28,5.48-2.74,9.78-2.74
		s7.21,1.45,9.78,2.74c2.38,1.19,4.43,2.21,7.56,2.21c3.11,0,5.15-1.02,7.51-2.2c2.57-1.29,5.49-2.75,9.82-2.75
		C92.65,50.65,93.76,51.76,93.76,53.13z"/>
	<path d="M91.28,38.27c-4.34,0-7.25,1.46-9.82,2.75c-2.37,1.18-4.4,2.2-7.51,2.2c-3.28,0-5.31-1.09-8.23-2.54
		c-0.43-2.74-0.79-5.54-1.06-8.38c12.69-3.26,21.67-13.98,21.67-26.23c0-1-0.6-1.9-1.53-2.29c-0.93-0.38-1.99-0.17-2.7,0.54
		c-1.4,1.39-4.79,1.73-8.38,2.08c-5.49,0.54-12.15,1.19-17.11,5.86C51.68,7.6,45.02,6.95,39.54,6.41c-3.61-0.35-7.02-0.68-8.43-2.09
		c-0.71-0.71-1.77-0.92-2.7-0.54c-0.93,0.38-1.53,1.29-1.53,2.29c0,12.25,8.99,22.97,21.67,26.23c-0.27,2.84-0.64,5.64-1.06,8.38
		c-2.92,1.44-4.95,2.54-8.23,2.54c-3.11,0-5.15-1.02-7.51-2.2c-2.57-1.29-5.49-2.75-9.82-2.75c-1.37,0-2.48,1.11-2.48,2.48
		c0,1.37,1.11,2.48,2.48,2.48c3.17,0,5.22,1.03,7.61,2.22c2.55,1.28,5.45,2.73,9.73,2.73c4.3,0,7.21-1.45,9.77-2.74
		c2.48-1.24,4.59-2.22,7.56-2.22c2.98,0,5.09,0.98,7.56,2.22c2.57,1.28,5.48,2.74,9.77,2.74c4.28,0,7.17-1.45,9.73-2.73
		c2.39-1.19,4.44-2.22,7.61-2.22c1.37,0,2.48-1.11,2.48-2.48C93.76,39.38,92.65,38.27,91.28,38.27z"/>
</g>
</svg>
