<?xml version="1.0" encoding="utf-8"?>
<!-- Generator: Adobe Illustrator 28.1.0, SVG Export Plug-In . SVG Version: 6.00 Build 0)  -->
<svg version="1.1" id="Layer_1" xmlns="http://www.w3.org/2000/svg" xmlns:xlink="http://www.w3.org/1999/xlink" x="0px" y="0px"
	 viewBox="0 0 110.55 76.54" style="enable-background:new 0 0 110.55 76.54;" xml:space="preserve">
<style type="text/css">
	.st0{display:none;}
	.st1{display:inline;fill:none;}
	.st2{fill-rule:evenodd;clip-rule:evenodd;}
</style>
<g id="Layer_2_00000073722119373351752270000017113015111246931634_" class="st0">
	<line class="st1" x1="-24.13" y1="74.54" x2="142.13" y2="74.54"/>
	<line class="st1" x1="-24.13" y1="2" x2="142.13" y2="2"/>
</g>
<g>
	<g>
		<g>
			<g>
				<g>
					<path class="st2" d="M55.27,70.84c-0.18,0-0.36-0.04-0.52-0.12l-0.52-0.26c-5.79-2.91-12.6-3.33-18.71-1.13
						c-0.36,0.12-0.73,0.08-1.05-0.14c-0.3-0.22-0.48-0.55-0.48-0.93V39.65c0-0.48,0.3-0.91,0.75-1.07
						c3.35-1.21,6.84-1.7,10.39-1.49c3.55,0.22,6.96,1.13,10.13,2.74l0.52,0.26c0.38,0.2,0.63,0.59,0.63,1.01v28.6
						c0,0.4-0.2,0.77-0.54,0.97C55.68,70.78,55.46,70.84,55.27,70.84L55.27,70.84z M43.53,65.63c0.54,0,1.07,0.02,1.61,0.04
						c3.13,0.2,6.14,0.93,8.98,2.2V41.81c-5.53-2.75-11.97-3.23-17.84-1.33v26.2C38.64,65.99,41.07,65.63,43.53,65.63z"/>
				</g>
				<g>
					<g>
						<path class="st2" d="M49.99,47.06c-0.1,0-0.2-0.02-0.3-0.04c-2.97-0.79-6.04-1.01-9.1-0.61c-0.63,0.08-1.19-0.36-1.27-0.99
							c-0.08-0.63,0.36-1.19,0.99-1.27c3.35-0.42,6.72-0.2,9.99,0.67c0.61,0.16,0.97,0.79,0.81,1.41
							C50.96,46.72,50.49,47.06,49.99,47.06z"/>
					</g>
					<g>
						<path class="st2" d="M49.97,51.88c-0.1,0-0.2-0.02-0.3-0.04c-2.97-0.79-6.04-1.01-9.1-0.61c-0.63,0.08-1.19-0.36-1.27-0.99
							c-0.08-0.63,0.36-1.19,0.99-1.27c3.35-0.42,6.72-0.2,9.99,0.67c0.61,0.16,0.97,0.79,0.81,1.41
							C50.94,51.54,50.47,51.88,49.97,51.88z"/>
					</g>
					<g>
						<path class="st2" d="M49.95,56.71c-0.1,0-0.2-0.02-0.3-0.04c-2.97-0.79-6.04-1.01-9.1-0.61c-0.63,0.08-1.19-0.36-1.27-0.99
							c-0.08-0.63,0.36-1.19,0.99-1.27c3.35-0.42,6.72-0.2,9.99,0.67c0.61,0.16,0.97,0.79,0.81,1.41
							C50.9,56.37,50.45,56.71,49.95,56.71z"/>
					</g>
					<g>
						<path class="st2" d="M49.93,61.53c-0.1,0-0.2-0.02-0.3-0.04c-2.97-0.79-6.04-1.01-9.1-0.61c-0.63,0.08-1.19-0.36-1.27-0.99
							c-0.08-0.63,0.36-1.19,0.99-1.27c3.35-0.42,6.72-0.2,9.99,0.67c0.61,0.16,0.97,0.79,0.81,1.41
							C50.89,61.19,50.43,61.53,49.93,61.53z"/>
					</g>
				</g>
				<g>
					<g>
						<path class="st2" d="M60.52,47.06c-0.5,0-0.97-0.34-1.11-0.85c-0.16-0.61,0.2-1.23,0.81-1.41c3.27-0.87,6.62-1.11,9.99-0.67
							c0.63,0.08,1.07,0.65,0.99,1.27c-0.08,0.61-0.65,1.07-1.27,0.99c-3.05-0.38-6.12-0.18-9.1,0.61
							C60.72,47.04,60.62,47.06,60.52,47.06z"/>
					</g>
					<g>
						<path class="st2" d="M60.54,51.88c-0.5,0-0.97-0.34-1.11-0.85c-0.16-0.61,0.2-1.23,0.81-1.41c3.27-0.87,6.62-1.11,9.99-0.67
							c0.63,0.08,1.07,0.65,0.99,1.27c-0.08,0.61-0.65,1.07-1.27,0.99c-3.05-0.38-6.12-0.18-9.1,0.61
							C60.74,51.86,60.64,51.88,60.54,51.88z"/>
					</g>
					<g>
						<path class="st2" d="M60.56,56.71c-0.5,0-0.97-0.34-1.11-0.85c-0.16-0.61,0.2-1.23,0.81-1.41c3.27-0.87,6.62-1.11,9.99-0.67
							c0.63,0.08,1.07,0.65,0.99,1.27c-0.08,0.63-0.65,1.07-1.27,0.99c-3.05-0.38-6.12-0.18-9.1,0.61
							C60.75,56.69,60.66,56.71,60.56,56.71z"/>
					</g>
					<g>
						<path class="st2" d="M60.58,61.53c-0.5,0-0.97-0.34-1.11-0.85c-0.16-0.61,0.2-1.23,0.81-1.41c3.27-0.87,6.62-1.11,9.99-0.67
							c0.63,0.08,1.07,0.65,0.99,1.27c-0.08,0.63-0.65,1.07-1.27,0.99c-3.05-0.38-6.12-0.18-9.1,0.61
							C60.77,61.53,60.68,61.53,60.58,61.53z"/>
					</g>
				</g>
				<g>
					<path class="st2" d="M55.27,74.81c-0.99,0-1.98-0.22-2.87-0.67c-0.54-0.28-1.09-0.52-1.64-0.73c-2.28-0.89-4.76-1.37-7.17-1.37
						c-2.28,0-4.5,0.4-6.64,1.15l-3.67,1.33c-0.77,0.28-1.63,0.16-2.28-0.3c-0.67-0.48-1.07-1.23-1.07-2.04V42.64
						c0-0.63,0.52-1.15,1.15-1.15h3.92c0.63,0,1.15,0.52,1.15,1.15c0,0.63-0.52,1.15-1.15,1.15h-2.77v28.38
						c0,0.1,0.06,0.14,0.1,0.18c0.04,0.02,0.12,0.06,0.2,0.02l3.67-1.33c2.38-0.85,4.88-1.29,7.41-1.29c2.72,0,5.47,0.54,8.01,1.53
						c0.63,0.24,1.25,0.52,1.84,0.83c1.15,0.57,2.54,0.57,3.69,0c0.59-0.3,1.21-0.57,1.84-0.83c2.54-0.99,5.31-1.53,8.01-1.53
						c2.54,0,5.03,0.44,7.41,1.29l3.67,1.33c0.08,0.04,0.16,0,0.2-0.02c0.04-0.02,0.1-0.08,0.1-0.18V43.79h-2.74
						c-0.63,0-1.15-0.52-1.15-1.15c0-0.63,0.52-1.15,1.15-1.15h3.86c0.63,0,1.15,0.52,1.15,1.15v29.53c0,0.81-0.4,1.59-1.07,2.04
						c-0.67,0.48-1.53,0.57-2.28,0.3l-3.67-1.33c-2.14-0.77-4.38-1.15-6.64-1.15c-2.42,0-4.92,0.48-7.17,1.37
						c-0.55,0.22-1.11,0.48-1.64,0.73C57.23,74.57,56.24,74.81,55.27,74.81z"/>
				</g>
				<g>
					<path class="st2" d="M55.27,70.84c-0.22,0-0.42-0.06-0.59-0.18c-0.34-0.2-0.54-0.57-0.54-0.97v-28.6
						c0-0.44,0.24-0.83,0.63-1.01l0.52-0.26c3.17-1.61,6.58-2.52,10.13-2.74c3.55-0.22,7.04,0.28,10.39,1.49
						c0.46,0.16,0.75,0.59,0.75,1.07v28.6c0,0.38-0.18,0.71-0.48,0.93c-0.3,0.22-0.69,0.26-1.05,0.14
						c-6.1-2.2-12.92-1.78-18.71,1.13L55.8,70.7C55.6,70.8,55.42,70.84,55.27,70.84L55.27,70.84z M56.39,41.81v26.08
						c2.83-1.27,5.87-2,8.98-2.2c3.01-0.18,5.99,0.16,8.86,0.99V40.46C68.37,38.58,61.92,39.05,56.39,41.81z"/>
				</g>
			</g>
			<g>
				<g>
					<g>
						<g>
							<path class="st2" d="M68.29,32.24c-0.63,0-1.15-0.52-1.15-1.15c0-7.57-6.14-13.71-13.71-13.71c-3.59,0-6.98,1.37-9.55,3.86
								c-0.46,0.44-1.17,0.44-1.61-0.02s-0.44-1.17,0.02-1.61c2.99-2.91,6.96-4.52,11.14-4.52c2.16,0,4.26,0.42,6.22,1.25
								c1.9,0.81,3.61,1.96,5.09,3.43c1.47,1.47,2.62,3.17,3.43,5.09c0.83,1.98,1.25,4.06,1.25,6.22
								C69.44,31.72,68.92,32.24,68.29,32.24z"/>
						</g>
						<g>
							<path class="st2" d="M64.58,32.24c-0.63,0-1.15-0.52-1.15-1.15c0-5.51-4.48-10.01-10.01-10.01c-2.77,0-5.37,1.11-7.27,3.13
								c-0.44,0.46-1.15,0.48-1.61,0.04c-0.46-0.44-0.48-1.15-0.04-1.61c1.13-1.21,2.48-2.14,3.98-2.81
								c1.57-0.69,3.23-1.03,4.95-1.03c3.29,0,6.36,1.27,8.68,3.61c2.32,2.32,3.61,5.41,3.61,8.68
								C65.71,31.72,65.21,32.24,64.58,32.24z"/>
						</g>
						<g>
							<path class="st2" d="M60.85,32.24c-0.63,0-1.15-0.52-1.15-1.15c0-3.47-2.81-6.28-6.28-6.28c-1.92,0-3.73,0.87-4.92,2.38
								c-0.4,0.5-1.11,0.57-1.61,0.18c-0.5-0.4-0.57-1.11-0.18-1.61c1.64-2.06,4.08-3.23,6.7-3.23c4.72,0,8.56,3.84,8.56,8.56
								C62,31.72,61.49,32.24,60.85,32.24z"/>
						</g>
					</g>
					<g>
						<path class="st2" d="M45.89,32.85H33.96c-2.24,0-4.04-1.82-4.04-4.06c0-1.09,0.42-2.1,1.19-2.87c0.18-0.18,0.4-0.36,0.61-0.5
							c-0.06-0.28-0.1-0.55-0.1-0.83c0-2.1,1.7-3.81,3.81-3.81c0.24,0,0.48,0.02,0.71,0.06c0.81-1.61,2.48-2.68,4.34-2.68
							c2.42,0,4.44,1.78,4.82,4.1c1.76,0.12,3.15,1.57,3.17,3.35c0.95,0.75,1.51,1.9,1.51,3.15c0,1.09-0.42,2.1-1.19,2.87
							C47.99,32.41,46.96,32.85,45.89,32.85L45.89,32.85z M35.41,23.06c-0.83,0-1.53,0.67-1.53,1.53c0,0.28,0.08,0.55,0.24,0.81
							c0.2,0.3,0.22,0.67,0.1,1.01c-0.12,0.34-0.4,0.59-0.75,0.69c-0.28,0.08-0.55,0.24-0.75,0.46c-0.34,0.34-0.52,0.77-0.52,1.25
							c0,0.97,0.79,1.76,1.76,1.76h11.93c0.48,0,0.91-0.18,1.25-0.52s0.52-0.77,0.52-1.25c0-0.67-0.38-1.27-0.95-1.57
							c-0.48-0.24-0.71-0.77-0.57-1.29c0.02-0.08,0.04-0.18,0.04-0.26c0-0.61-0.5-1.11-1.11-1.11c-0.16,0-0.3,0.04-0.44,0.1
							c-0.38,0.16-0.81,0.12-1.15-0.14s-0.5-0.65-0.44-1.07c0.02-0.12,0.02-0.26,0.02-0.38c0-1.43-1.17-2.6-2.6-2.6
							c-1.23,0-2.3,0.87-2.54,2.08c-0.08,0.36-0.32,0.67-0.65,0.81c-0.34,0.16-0.73,0.12-1.05-0.08
							C35.96,23.14,35.68,23.06,35.41,23.06z"/>
					</g>
				</g>
				<g>
					<g>
						<path class="st2" d="M49.66,8.39c-0.63,0-1.15-0.52-1.15-1.15V2.88c0-0.63,0.52-1.15,1.15-1.15s1.15,0.52,1.15,1.15v4.36
							C50.81,7.88,50.29,8.39,49.66,8.39z"/>
					</g>
					<g>
						<path class="st2" d="M51.86,6.21h-4.38c-0.63,0-1.15-0.52-1.15-1.15s0.52-1.15,1.15-1.15h4.38c0.63,0,1.15,0.52,1.15,1.15
							C52.99,5.7,52.47,6.21,51.86,6.21z"/>
					</g>
				</g>
				<g>
					<g>
						<path class="st2" d="M76.25,26.98c-0.63,0-1.15-0.52-1.15-1.15v-4.36c0-0.63,0.52-1.15,1.15-1.15c0.63,0,1.15,0.52,1.15,1.15
							v4.36C77.38,26.47,76.89,26.98,76.25,26.98z"/>
					</g>
					<g>
						<path class="st2" d="M78.43,24.8h-4.36c-0.63,0-1.15-0.52-1.15-1.15c0-0.63,0.52-1.15,1.15-1.15h4.36
							c0.63,0,1.15,0.52,1.15,1.15C79.58,24.29,79.07,24.8,78.43,24.8z"/>
					</g>
				</g>
				<g>
					<g>
						<path class="st2" d="M77.28,10.57c-0.63,0-1.15-0.52-1.15-1.15V5.06c0-0.63,0.52-1.15,1.15-1.15s1.15,0.52,1.15,1.15v4.38
							C78.43,10.06,77.92,10.57,77.28,10.57z"/>
					</g>
					<g>
						<path class="st2" d="M79.48,8.39h-4.36c-0.63,0-1.15-0.52-1.15-1.15s0.52-1.15,1.15-1.15h4.36c0.63,0,1.15,0.52,1.15,1.15
							C80.61,7.88,80.12,8.39,79.48,8.39z"/>
					</g>
				</g>
				<g>
					<g>
						<path class="st2" d="M64.6,14.95c-0.63,0-1.15-0.52-1.15-1.15V9.44c0-0.63,0.52-1.15,1.15-1.15c0.63,0,1.15,0.52,1.15,1.15
							v4.36C65.75,14.44,65.23,14.95,64.6,14.95z"/>
					</g>
					<g>
						<path class="st2" d="M66.8,12.75h-4.36c-0.63,0-1.15-0.52-1.15-1.15s0.52-1.15,1.15-1.15h4.36c0.63,0,1.15,0.52,1.15,1.15
							C67.93,12.26,67.41,12.75,66.8,12.75z"/>
					</g>
				</g>
			</g>
		</g>
	</g>
</g>
</svg>
