<?xml version="1.0" encoding="utf-8"?>
<!-- Generator: Adobe Illustrator 28.1.0, SVG Export Plug-In . SVG Version: 6.00 Build 0)  -->
<svg version="1.1" id="Layer_1" xmlns="http://www.w3.org/2000/svg" xmlns:xlink="http://www.w3.org/1999/xlink" x="0px" y="0px"
	 viewBox="0 0 110.55 76.54" style="enable-background:new 0 0 110.55 76.54;" xml:space="preserve">
<style type="text/css">
	.st0{display:none;}
	.st1{display:inline;fill:none;}
	.st2{fill:none;}
</style>
<g id="Layer_2_00000073722119373351752270000017113015111246931634_" class="st0">
	<line class="st1" x1="-24.13" y1="74.54" x2="142.13" y2="74.54"/>
	<line class="st1" x1="-24.13" y1="2" x2="142.13" y2="2"/>
</g>
<g>
	<path class="st2" d="M51.14,67.87v-4.96c0-1.37,1.11-2.47,2.47-2.47c1.37,0,2.47,1.11,2.47,2.47v4.96
		C62,66.72,66.48,61.5,66.48,55.25S62,43.78,56.09,42.62v0.77c0,1.37-1.11,2.47-2.47,2.47c-1.37,0-2.47-1.11-2.47-2.47v-0.77
		C45.23,43.78,40.75,49,40.75,55.25S45.23,66.72,51.14,67.87z M60.43,52.89c0.52,0,0.74,0.03,1.32,0.17v4.15
		c0,2-0.86,2.65-1.99,2.65c-0.53,0-1.12-0.06-1.58-0.25v-0.94c0.48,0.18,0.97,0.27,1.3,0.27c0.65,0,1.09-0.47,1.09-1.74v-0.41
		c-0.37,0.32-0.68,0.38-1.11,0.38c-1.06,0-1.76-0.76-1.76-1.93C57.71,53.79,58.76,52.89,60.43,52.89z M52.48,50.58h1.24v3.75
		l1.5-1.35h1.78l-2.08,1.67l1.98,2.42h-1.64l-1.53-2.02v2.02h-1.24V50.58z M47.33,50.59c1.59,0,2.41,1.1,2.41,3.25
		c0,2.45-0.81,3.49-2.4,3.49c-1.57,0-2.42-1.1-2.42-3.36C44.93,51.71,45.76,50.59,47.33,50.59z"/>
	<rect x="50.55" y="24.24" class="st2" width="5.96" height="10.92"/>
	<path class="st2" d="M34.65,48.57v21.35c0,1.64,1.33,2.98,2.98,2.98h31.78c1.64,0,2.98-1.33,2.98-2.98V48.57
		c-0.01-6.31-5.12-11.41-11.42-11.42h-14.9C39.77,37.16,34.66,42.27,34.65,48.57z M68.46,55.25c0,8.18-6.66,14.84-14.84,14.84
		c-8.18,0-14.84-6.66-14.84-14.84S45.43,40.4,53.61,40.4C61.8,40.4,68.46,47.06,68.46,55.25z"/>
	<path class="st2" d="M59.69,55.98c0.45,0,0.88-0.14,0.88-1.25V54.1c-0.2-0.04-0.28-0.05-0.45-0.05c-0.71,0-1.12,0.44-1.12,1.13
		C59,55.69,59.29,55.98,59.69,55.98z"/>
	<path class="st2" d="M47.33,56.06c0.64,0,0.97-0.72,0.97-2.18c0-1.44-0.28-2.02-0.96-2.02c-0.68,0-0.98,0.65-0.98,2.2
		C46.37,55.37,46.64,56.06,47.33,56.06z"/>
	<path class="st2" d="M34.65,20.27c0,1.1,0.89,1.99,1.99,1.99h33.77c1.1,0,1.99-0.89,1.99-1.99v-0.99H34.65V20.27z"/>
	<path d="M81.71,1.65H25.34c3.29,9.08,3.16,14.73,22.26,15.64H33.66c-0.55,0-0.99,0.44-0.99,0.99v1.99c0,2.19,1.78,3.97,3.97,3.97
		h11.92v10.92h-2.48c-7.4,0.01-13.4,6.01-13.41,13.41v21.35c0,2.74,2.22,4.96,4.97,4.97h31.78c2.74,0,4.96-2.22,4.97-4.97V48.57
		c-0.01-7.4-6.01-13.4-13.41-13.41h-2.48V24.24h11.92c2.19,0,3.97-1.78,3.97-3.97v-1.99c0-0.55-0.44-0.99-0.99-0.99H59.44
		C78.54,16.38,78.42,10.73,81.71,1.65z M60.97,37.15c6.31,0.01,11.41,5.12,11.42,11.42v21.35c0,1.64-1.33,2.98-2.98,2.98H37.63
		c-1.64,0-2.98-1.33-2.98-2.98V48.57c0.01-6.31,5.12-11.41,11.42-11.42H60.97z M50.55,35.16V24.24h5.96v10.92H50.55z M72.39,19.27
		v0.99c0,1.1-0.89,1.99-1.99,1.99H36.64c-1.1,0-1.99-0.89-1.99-1.99v-0.99H72.39z"/>
	<path d="M38.77,55.25c0,8.18,6.66,14.84,14.84,14.84c8.18,0,14.84-6.66,14.84-14.84S61.8,40.4,53.61,40.4
		C45.43,40.4,38.77,47.06,38.77,55.25z M51.14,42.62v0.77c0,1.37,1.11,2.47,2.47,2.47c1.37,0,2.47-1.11,2.47-2.47v-0.77
		C62,43.78,66.48,49,66.48,55.25S62,66.72,56.09,67.87v-4.96c0-1.37-1.11-2.47-2.47-2.47c-1.37,0-2.47,1.11-2.47,2.47v4.96
		c-5.91-1.16-10.39-6.38-10.39-12.62S45.23,43.78,51.14,42.62z"/>
	<path d="M47.34,57.33c1.59,0,2.4-1.03,2.4-3.49c0-2.16-0.82-3.25-2.41-3.25c-1.57,0-2.41,1.12-2.41,3.37
		C44.93,56.23,45.77,57.33,47.34,57.33z M47.34,51.86c0.68,0,0.96,0.58,0.96,2.02c0,1.47-0.33,2.18-0.97,2.18
		c-0.7,0-0.97-0.69-0.97-2C46.37,52.51,46.67,51.86,47.34,51.86z"/>
	<polygon points="53.72,55.06 55.25,57.07 56.89,57.07 54.91,54.66 56.99,52.98 55.21,52.98 53.72,54.33 53.72,50.58 52.48,50.58 
		52.48,57.07 53.72,57.07 	"/>
	<path d="M59.47,57.17c0.43,0,0.73-0.07,1.11-0.38v0.41c0,1.27-0.44,1.74-1.09,1.74c-0.33,0-0.82-0.09-1.3-0.27v0.94
		c0.46,0.2,1.05,0.25,1.58,0.25c1.13,0,1.99-0.65,1.99-2.65v-4.15c-0.58-0.14-0.8-0.17-1.32-0.17c-1.67,0-2.72,0.9-2.72,2.34
		C57.71,56.4,58.41,57.17,59.47,57.17z M60.13,54.05c0.17,0,0.24,0.01,0.45,0.05v0.63c0,1.11-0.44,1.25-0.88,1.25
		c-0.4,0-0.69-0.29-0.69-0.79C59,54.49,59.42,54.05,60.13,54.05z"/>
	<polygon points="88.02,10.82 88.02,1.65 84.48,1.65 84.48,10.82 81.53,10.82 86.25,17.12 90.97,10.82 	"/>
</g>
</svg>
