<?xml version="1.0" encoding="utf-8"?>
<!-- Generator: Adobe Illustrator 28.1.0, SVG Export Plug-In . SVG Version: 6.00 Build 0)  -->
<svg version="1.1" id="Layer_1" xmlns="http://www.w3.org/2000/svg" xmlns:xlink="http://www.w3.org/1999/xlink" x="0px" y="0px"
	 viewBox="0 0 110.55 76.54" style="enable-background:new 0 0 110.55 76.54;" xml:space="preserve">
<style type="text/css">
	.st0{display:none;}
	.st1{display:inline;fill:none;}
	.st2{fill-rule:evenodd;clip-rule:evenodd;}
</style>
<g id="Layer_2_00000073722119373351752270000017113015111246931634_" class="st0">
	<line class="st1" x1="-24.13" y1="74.54" x2="142.13" y2="74.54"/>
	<line class="st1" x1="-24.13" y1="2" x2="142.13" y2="2"/>
</g>
<path class="st2" d="M-5588.99,2328.77v-22.01c0-1.13,0.46-2.15,1.2-2.89c0.74-0.74,1.76-1.2,2.89-1.2h39.62
	c0.52,0,1.01,0.09,1.47,0.27c0.46,0.18,0.89,0.44,1.27,0.79l8.82,8.01c0.44,0.4,0.77,0.86,1,1.37c0.23,0.51,0.34,1.07,0.34,1.65
	v54.57c0,1.13-0.46,2.15-1.2,2.89c-0.74,0.74-1.76,1.2-2.89,1.2h-51.35c-0.04,0-0.07,0-0.1-0.01c-4-0.03-8.03-1.21-10.92-3.55
	c-5.41-4.38-6.94-12.59,2.7-24.5c0.32-0.4,0.67-0.81,1.07-1.27c0.1-0.11,0.19-0.22,0.29-0.32c-0.44-0.6-0.71-1.38-0.71-2.23
	c0-0.9,0.3-1.72,0.79-2.33c0.21-0.27,0.46-0.49,0.73-0.67l-1.87-4.45c-0.21-0.5-0.31-1-0.31-1.48c0-0.77,0.24-1.51,0.66-2.13
	c0.41-0.62,1.01-1.12,1.72-1.41c0.47-0.2,0.98-0.31,1.51-0.31H-5588.99L-5588.99,2328.77z M-5592.88,2344.97
	c-0.19,0.19-0.37,0.39-0.55,0.6c-0.29,0.33-0.63,0.74-1,1.2c-8.61,10.64-7.53,17.74-3.02,21.39c2.5,2.02,6.02,3.04,9.54,3.07
	c0.03,0,0.06,0,0.09,0h0.43c3.42-0.07,6.77-1.08,9.12-3.04c4.37-3.63,5.21-10.72-3.68-21.41c-0.24-0.29-0.4-0.48-0.55-0.67
	c-0.31-0.38-0.62-0.76-0.93-1.12c-0.03,0-0.06,0-0.09,0h-9.01C-5592.65,2345-5592.76,2344.99-5592.88,2344.97L-5592.88,2344.97
	L-5592.88,2344.97z M-5581.41,2343.97c0.21,0.25,0.41,0.49,0.61,0.74c0.21,0.26,0.42,0.51,0.54,0.66
	c9.92,11.94,8.64,20.14,3.39,24.51c-0.6,0.5-1.26,0.95-1.96,1.34h42.35c0.51,0,0.98-0.21,1.32-0.55c0.34-0.34,0.55-0.81,0.55-1.32
	v-53.05h-7.49c-1.43,0-2.73-0.58-3.66-1.52c-0.94-0.94-1.52-2.24-1.52-3.67v-6.22h-37.63c-0.51,0-0.98,0.21-1.32,0.55
	c-0.34,0.34-0.55,0.81-0.55,1.32v22.01h3.31c0.59,0,1.16,0.14,1.66,0.38c0.67,0.31,1.23,0.8,1.62,1.39c0.4,0.6,0.63,1.31,0.63,2.05
	c0,0.5-0.11,1.02-0.35,1.53l-2.1,4.48c0.25,0.17,0.47,0.38,0.66,0.62c0.49,0.61,0.79,1.44,0.79,2.33s-0.3,1.72-0.79,2.33
	C-5581.37,2343.92-5581.39,2343.94-5581.41,2343.97L-5581.41,2343.97L-5581.41,2343.97z M-5587.88,2340.33h-4.65
	c-0.16,0-0.32,0.1-0.45,0.27c-0.19,0.23-0.3,0.57-0.3,0.96c0,0.39,0.12,0.72,0.3,0.96c0.13,0.16,0.29,0.27,0.45,0.27h9.01
	c0.16,0,0.32-0.1,0.45-0.27c0.19-0.24,0.3-0.58,0.3-0.96c0-0.39-0.12-0.72-0.3-0.96c-0.13-0.16-0.29-0.27-0.45-0.27H-5587.88
	L-5587.88,2340.33z M-5587.69,2338.12h3.47l2.31-4.93c0.09-0.19,0.13-0.39,0.13-0.6c0-0.3-0.1-0.58-0.26-0.83
	c-0.17-0.26-0.42-0.48-0.71-0.62c-0.22-0.1-0.46-0.16-0.73-0.16h-8.79c-0.24,0-0.46,0.04-0.66,0.12c-0.31,0.13-0.56,0.34-0.74,0.61
	c-0.18,0.26-0.28,0.57-0.28,0.9c0,0.21,0.04,0.42,0.12,0.62l2.05,4.87l3.78,0c0.03,0,0.06,0,0.1,0c0.03,0,0.06,0,0.1,0
	L-5587.69,2338.12L-5587.69,2338.12z M-5586.82,2364.4v-1.06c0.42-0.12,0.82-0.3,1.17-0.55c0.89-0.61,1.51-1.57,1.51-2.85
	c0-2.78-1.81-3.17-3.62-3.56c-0.94-0.2-1.87-0.4-1.87-1.4c0-0.46,0.21-0.8,0.52-1.02c0.23-0.16,0.52-0.27,0.82-0.31
	c0.1-0.01,0.2-0.02,0.3-0.03c0.02,0,0.04,0,0.06,0c0.02,0,0.03,0,0.05,0c0.18,0.01,0.35,0.03,0.51,0.08
	c0.43,0.13,0.8,0.43,0.96,0.91c0.19,0.58,0.81,0.9,1.39,0.71c0.58-0.19,0.9-0.81,0.71-1.39c-0.41-1.25-1.34-2.01-2.42-2.34
	c-0.03-0.01-0.06-0.02-0.09-0.03v-1.13c0-0.61-0.49-1.11-1.1-1.11c-0.61,0-1.1,0.5-1.1,1.11v1.1c-0.48,0.12-0.94,0.32-1.34,0.61
	c-0.88,0.61-1.47,1.57-1.47,2.82c0,2.78,1.81,3.17,3.62,3.56c0.93,0.2,1.87,0.4,1.87,1.4c0,0.46-0.22,0.81-0.54,1.03
	c-0.23,0.16-0.52,0.26-0.82,0.31c-0.02,0-0.05,0.01-0.07,0.01c-0.05-0.01-0.1-0.01-0.14-0.01c-0.07,0-0.14,0.01-0.21,0.02
	c-0.17-0.01-0.33-0.04-0.48-0.08c-0.43-0.13-0.8-0.44-0.96-0.93c-0.18-0.58-0.8-0.91-1.38-0.72c-0.58,0.18-0.91,0.8-0.73,1.38
	c0.4,1.27,1.33,2.04,2.42,2.38c0.08,0.02,0.15,0.05,0.23,0.06v1.02c0,0.61,0.49,1.1,1.1,1.1
	C-5587.31,2365.5-5586.82,2365.01-5586.82,2364.4L-5586.82,2364.4L-5586.82,2364.4z M-5569.31,2362.89h31.58
	c0.61,0,1.1-0.5,1.1-1.11c0-0.61-0.49-1.11-1.1-1.11h-31.58c-0.61,0-1.11,0.49-1.11,1.11
	C-5570.42,2362.4-5569.92,2362.89-5569.31,2362.89L-5569.31,2362.89z M-5572.1,2352.9h34.37c0.61,0,1.1-0.5,1.1-1.11
	s-0.49-1.11-1.1-1.11h-34.37c-0.61,0-1.1,0.49-1.1,1.11S-5572.71,2352.9-5572.1,2352.9L-5572.1,2352.9z M-5577.09,2342.9h39.36
	c0.61,0,1.1-0.49,1.1-1.11s-0.49-1.11-1.1-1.11h-39.36c-0.61,0-1.1,0.5-1.1,1.11S-5577.7,2342.9-5577.09,2342.9L-5577.09,2342.9z
	 M-5562.7,2314.56c-0.9-0.9-2.07-1.34-3.24-1.34c-1.17,0-2.35,0.45-3.24,1.34c-0.9,0.9-1.34,2.07-1.34,3.24s0.45,2.35,1.34,3.24
	c0.9,0.9,2.07,1.34,3.24,1.34c1.17,0,2.35-0.45,3.24-1.34c0.9-0.9,1.34-2.07,1.34-3.24
	C-5561.36,2316.63-5561.8,2315.46-5562.7,2314.56L-5562.7,2314.56z M-5564.26,2316.13c-0.46-0.46-1.07-0.7-1.68-0.7
	c-0.61,0-1.22,0.23-1.68,0.7c-0.46,0.46-0.7,1.07-0.7,1.68c0,0.61,0.23,1.22,0.7,1.68c0.46,0.46,1.07,0.7,1.68,0.7
	c0.61,0,1.22-0.23,1.68-0.7c0.46-0.46,0.7-1.07,0.7-1.68C-5563.57,2317.2-5563.8,2316.59-5564.26,2316.13L-5564.26,2316.13z
	 M-5567.8,2331.74l15.78-15.79c0.43-0.43,0.43-1.13,0-1.56s-1.13-0.43-1.56,0l-15.78,15.79c-0.43,0.43-0.43,1.13,0,1.56
	C-5568.93,2332.17-5568.23,2332.17-5567.8,2331.74L-5567.8,2331.74z M-5552.2,2325.07c-0.9-0.9-2.07-1.34-3.24-1.34
	s-2.35,0.45-3.24,1.34c-0.9,0.9-1.34,2.07-1.34,3.24c0,1.17,0.45,2.35,1.34,3.24c0.9,0.9,2.07,1.34,3.24,1.34s2.35-0.45,3.24-1.34
	c0.9-0.9,1.34-2.07,1.34-3.24S-5551.3,2325.97-5552.2,2325.07L-5552.2,2325.07z M-5553.06,2328.31c0-0.61-0.23-1.22-0.7-1.68
	c-0.46-0.46-1.07-0.7-1.68-0.7c-0.61,0-1.22,0.23-1.68,0.7c-0.46,0.46-0.7,1.07-0.7,1.68c0,0.61,0.23,1.22,0.7,1.68
	c0.46,0.46,1.07,0.7,1.68,0.7c0.61,0,1.22-0.23,1.68-0.7C-5553.3,2329.53-5553.06,2328.92-5553.06,2328.31L-5553.06,2328.31z
	 M-5534.72,2314.09c-0.01-0.03-0.02-0.05-0.03-0.07c-0.1-0.23-0.25-0.44-0.46-0.63l-8.82-8.01c-0.19-0.17-0.38-0.29-0.58-0.37
	c-0.14-0.05-0.29-0.09-0.45-0.1v6.21c0,0.82,0.33,1.56,0.87,2.1c0.54,0.54,1.28,0.87,2.1,0.87H-5534.72L-5534.72,2314.09z"/>
<path class="st2" d="M29.8,29.34V7.33c0-1.13,0.46-2.15,1.2-2.89c0.74-0.74,1.76-1.2,2.89-1.2H73.5c0.52,0,1.01,0.09,1.47,0.27
	c0.46,0.18,0.89,0.44,1.27,0.79l8.82,8.01c0.44,0.4,0.77,0.86,1,1.37c0.23,0.51,0.34,1.07,0.34,1.65v54.57
	c0,1.13-0.46,2.15-1.2,2.89c-0.74,0.74-1.76,1.2-2.89,1.2H30.97c-0.04,0-0.07,0-0.1-0.01c-4-0.03-8.03-1.21-10.92-3.55
	c-5.41-4.38-6.94-12.59,2.7-24.5c0.32-0.4,0.67-0.81,1.07-1.27c0.1-0.11,0.19-0.22,0.29-0.32c-0.44-0.6-0.71-1.38-0.71-2.23
	c0-0.9,0.3-1.72,0.79-2.33c0.21-0.27,0.46-0.49,0.73-0.67l-1.87-4.45c-0.21-0.5-0.31-1-0.31-1.48c0-0.77,0.24-1.51,0.66-2.13
	c0.41-0.62,1.01-1.12,1.72-1.41c0.47-0.2,0.98-0.31,1.51-0.31L29.8,29.34L29.8,29.34z M25.91,45.54c-0.19,0.19-0.37,0.39-0.55,0.6
	c-0.29,0.33-0.63,0.74-1,1.2c-8.61,10.64-7.53,17.74-3.02,21.39c2.5,2.02,6.02,3.04,9.54,3.07c0.03,0,0.06,0,0.09,0h0.43
	c3.42-0.07,6.77-1.08,9.12-3.04c4.37-3.63,5.21-10.72-3.68-21.41c-0.24-0.29-0.4-0.48-0.55-0.67c-0.31-0.38-0.62-0.76-0.93-1.12
	c-0.03,0-0.06,0-0.09,0h-9.01C26.14,45.57,26.03,45.56,25.91,45.54L25.91,45.54L25.91,45.54z M37.38,44.54
	c0.21,0.25,0.41,0.49,0.61,0.74c0.21,0.26,0.42,0.51,0.54,0.66c9.92,11.94,8.64,20.14,3.39,24.51c-0.6,0.5-1.26,0.95-1.96,1.35
	h42.35c0.51,0,0.98-0.21,1.32-0.55c0.34-0.34,0.55-0.81,0.55-1.32V16.87H76.7c-1.43,0-2.73-0.58-3.66-1.52
	c-0.94-0.94-1.52-2.24-1.52-3.67V5.46H33.88c-0.51,0-0.98,0.21-1.32,0.55c-0.34,0.34-0.55,0.81-0.55,1.32v22.01h3.31
	c0.59,0,1.16,0.14,1.66,0.38c0.67,0.31,1.23,0.8,1.62,1.39c0.4,0.6,0.63,1.31,0.63,2.05c0,0.5-0.11,1.02-0.35,1.53l-2.1,4.48
	c0.25,0.17,0.47,0.38,0.66,0.62c0.49,0.61,0.79,1.44,0.79,2.33c0,0.9-0.3,1.72-0.79,2.33C37.43,44.49,37.4,44.51,37.38,44.54
	L37.38,44.54L37.38,44.54z M30.91,40.9h-4.65c-0.16,0-0.32,0.1-0.45,0.27c-0.19,0.24-0.3,0.57-0.3,0.96c0,0.39,0.12,0.72,0.3,0.96
	c0.13,0.16,0.29,0.27,0.45,0.27h9.01c0.16,0,0.32-0.1,0.45-0.27c0.19-0.24,0.3-0.58,0.3-0.96c0-0.39-0.12-0.72-0.3-0.96
	c-0.13-0.16-0.29-0.27-0.45-0.27H30.91L30.91,40.9z M31.11,38.69h3.47l2.31-4.93c0.09-0.19,0.13-0.39,0.13-0.6
	c0-0.3-0.1-0.58-0.26-0.83c-0.17-0.26-0.42-0.48-0.71-0.62c-0.22-0.1-0.46-0.16-0.73-0.16h-8.79c-0.24,0-0.46,0.04-0.66,0.13
	c-0.31,0.13-0.56,0.34-0.74,0.61c-0.18,0.26-0.28,0.57-0.28,0.9c0,0.21,0.04,0.42,0.13,0.63l2.05,4.87l3.78,0c0.03,0,0.06,0,0.1,0
	c0.03,0,0.07,0,0.1,0L31.11,38.69L31.11,38.69z M31.97,64.97v-1.06c0.42-0.12,0.82-0.3,1.17-0.55c0.89-0.61,1.51-1.57,1.51-2.85
	c0-2.78-1.81-3.17-3.62-3.56c-0.93-0.2-1.87-0.4-1.87-1.4c0-0.46,0.21-0.8,0.52-1.02c0.23-0.16,0.51-0.27,0.82-0.31
	c0.1-0.01,0.2-0.02,0.3-0.03c0.02,0,0.04,0,0.07,0c0.02,0,0.03,0,0.05,0c0.18,0.01,0.35,0.03,0.51,0.08
	c0.43,0.13,0.8,0.43,0.96,0.91c0.19,0.58,0.81,0.9,1.39,0.71c0.58-0.19,0.9-0.81,0.71-1.39c-0.41-1.25-1.34-2.01-2.42-2.34
	c-0.03-0.01-0.06-0.02-0.09-0.03v-1.13c0-0.61-0.49-1.11-1.1-1.11c-0.61,0-1.1,0.5-1.1,1.11v1.1c-0.48,0.12-0.94,0.32-1.34,0.61
	c-0.88,0.61-1.47,1.57-1.47,2.82c0,2.78,1.81,3.17,3.62,3.56c0.93,0.2,1.87,0.4,1.87,1.4c0,0.46-0.22,0.81-0.54,1.03
	c-0.23,0.16-0.52,0.26-0.82,0.31c-0.02,0-0.05,0.01-0.07,0.01c-0.05-0.01-0.1-0.01-0.14-0.01c-0.07,0-0.14,0.01-0.21,0.02
	c-0.17-0.01-0.33-0.04-0.49-0.08c-0.43-0.13-0.8-0.44-0.96-0.93c-0.18-0.58-0.8-0.91-1.38-0.72c-0.58,0.18-0.91,0.8-0.73,1.38
	c0.4,1.27,1.33,2.04,2.42,2.38c0.08,0.02,0.15,0.05,0.23,0.06v1.01c0,0.61,0.49,1.1,1.1,1.1S31.97,65.58,31.97,64.97L31.97,64.97
	L31.97,64.97z M49.48,63.46h31.58c0.61,0,1.1-0.5,1.1-1.11s-0.49-1.11-1.1-1.11H49.48c-0.61,0-1.11,0.49-1.11,1.11
	S48.87,63.46,49.48,63.46L49.48,63.46z M46.69,53.46h34.37c0.61,0,1.1-0.5,1.1-1.11s-0.49-1.11-1.1-1.11H46.69
	c-0.61,0-1.1,0.49-1.1,1.11S46.08,53.46,46.69,53.46L46.69,53.46z M41.71,43.47h39.36c0.61,0,1.1-0.49,1.1-1.11
	c0-0.61-0.49-1.11-1.1-1.11H41.71c-0.61,0-1.1,0.5-1.1,1.11C40.6,42.97,41.1,43.47,41.71,43.47L41.71,43.47z M56.09,15.13
	c-0.9-0.9-2.07-1.34-3.24-1.34c-1.17,0-2.35,0.45-3.24,1.34c-0.9,0.9-1.34,2.07-1.34,3.24s0.45,2.35,1.34,3.24
	c0.9,0.9,2.07,1.34,3.24,1.34c1.17,0,2.35-0.45,3.24-1.34c0.9-0.9,1.34-2.07,1.34-3.24S56.99,16.03,56.09,15.13L56.09,15.13z
	 M54.53,16.7c-0.46-0.46-1.07-0.7-1.68-0.7s-1.22,0.23-1.68,0.7c-0.46,0.46-0.7,1.07-0.7,1.68c0,0.61,0.23,1.22,0.7,1.68
	c0.46,0.46,1.07,0.7,1.68,0.7s1.22-0.23,1.68-0.7c0.46-0.46,0.7-1.07,0.7-1.68C55.23,17.77,55,17.16,54.53,16.7L54.53,16.7z
	 M50.99,32.3l15.78-15.79c0.43-0.43,0.43-1.13,0-1.56c-0.43-0.43-1.13-0.43-1.56,0L49.43,30.74c-0.43,0.43-0.43,1.13,0,1.56
	C49.86,32.73,50.56,32.73,50.99,32.3L50.99,32.3z M66.6,25.64c-0.9-0.9-2.07-1.34-3.24-1.34c-1.17,0-2.35,0.45-3.24,1.34
	c-0.9,0.9-1.34,2.07-1.34,3.24c0,1.17,0.45,2.35,1.34,3.24c0.9,0.9,2.07,1.34,3.24,1.34c1.17,0,2.35-0.45,3.24-1.34
	c0.9-0.9,1.34-2.07,1.34-3.24C67.94,27.71,67.49,26.53,66.6,25.64L66.6,25.64z M65.73,28.88c0-0.61-0.23-1.22-0.7-1.68
	c-0.46-0.46-1.07-0.7-1.68-0.7c-0.61,0-1.22,0.23-1.68,0.7c-0.46,0.46-0.7,1.07-0.7,1.68c0,0.61,0.23,1.22,0.7,1.68
	c0.46,0.46,1.07,0.7,1.68,0.7c0.61,0,1.22-0.23,1.68-0.7C65.5,30.1,65.73,29.49,65.73,28.88L65.73,28.88z M84.07,14.65
	c-0.01-0.03-0.02-0.05-0.03-0.07c-0.1-0.23-0.25-0.44-0.46-0.63l-8.82-8.01c-0.19-0.17-0.38-0.29-0.58-0.37
	c-0.14-0.05-0.29-0.09-0.45-0.1v6.21c0,0.82,0.33,1.56,0.87,2.1c0.54,0.54,1.28,0.87,2.1,0.87L84.07,14.65L84.07,14.65z"/>
</svg>
