<?xml version="1.0" encoding="utf-8"?>
<!-- Generator: Adobe Illustrator 28.1.0, SVG Export Plug-In . SVG Version: 6.00 Build 0)  -->
<svg version="1.1" id="Layer_1" xmlns="http://www.w3.org/2000/svg" xmlns:xlink="http://www.w3.org/1999/xlink" x="0px" y="0px"
	 viewBox="0 0 110.55 76.54" style="enable-background:new 0 0 110.55 76.54;" xml:space="preserve">
<style type="text/css">
	.st0{display:none;}
	.st1{display:inline;fill:none;}
</style>
<g id="Layer_2_00000073722119373351752270000017113015111246931634_" class="st0">
	<line class="st1" x1="-24.13" y1="74.54" x2="142.13" y2="74.54"/>
	<line class="st1" x1="-24.13" y1="2" x2="142.13" y2="2"/>
</g>
<g>
	<path d="M102.48,24.58c0,9.1-7.95,17.79-17.77,20.75c-1.52,0.46-3-0.79-2.79-2.36l0.61-4.48c0.1-0.75,0.62-1.36,1.32-1.64
		c5.71-2.32,10.38-7.39,10.38-12.27c0-2.22-0.9-4.02-2.7-5.35c-1.16-0.86-2.59-1.44-4.16-1.72c-1.11-0.2-1.84-1.28-1.68-2.4
		l0.53-3.9c0.16-1.21,1.3-2.06,2.5-1.85c2.86,0.49,5.51,1.58,7.75,3.25C100.34,15.48,102.48,19.74,102.48,24.58z M85.48,61.7H20.52
		c-2.26,0-3,3.03-1,4.08h0c0.31,0.16,0.65,0.25,1,0.25h64.96c0.35,0,0.69-0.08,1-0.25l0,0C88.49,64.73,87.74,61.7,85.48,61.7z
		 M73.75,68.41h-41.5c-2.32,0-3.01,3.16-0.9,4.13l0,0c0.28,0.13,0.59,0.2,0.9,0.2h41.5c0.31,0,0.62-0.07,0.9-0.2l0,0
		C76.76,71.57,76.07,68.41,73.75,68.41z M45.74,3.8v13.04c0,0.67,0.31,1.3,0.84,1.71l4.36,3.36c0.53,0.41,0.84,1.04,0.84,1.71v11.29
		c0,1.19-0.97,2.16-2.16,2.16h-11.4c-1.19,0-2.16-0.97-2.16-2.16V23.63c0-0.67,0.31-1.3,0.84-1.71l4.36-3.36
		c0.53-0.41,0.84-1.04,0.84-1.71V3.8L23.64,3.93c-1.31,0-2.32,1.15-2.14,2.45l5.55,41.07c0.01,0.06,0.01,0.12,0.02,0.18
		c0.04,1.01,0.76,11.72,11.79,11.72h28.3c11.28,0,11.79-11.79,11.79-11.79l5.57-41.17c0.18-1.3-0.83-2.45-2.14-2.45L45.74,3.8z"/>
</g>
</svg>
