<?xml version="1.0" encoding="utf-8"?>
<!-- Generator: Adobe Illustrator 28.1.0, SVG Export Plug-In . SVG Version: 6.00 Build 0)  -->
<svg version="1.1" id="Layer_1" xmlns="http://www.w3.org/2000/svg" xmlns:xlink="http://www.w3.org/1999/xlink" x="0px" y="0px"
	 viewBox="0 0 110.55 76.54" style="enable-background:new 0 0 110.55 76.54;" xml:space="preserve">
<style type="text/css">
	.st0{display:none;}
	.st1{display:inline;fill:none;}
</style>
<g id="Layer_2_00000073722119373351752270000017113015111246931634_" class="st0">
	<line class="st1" x1="-24.13" y1="74.54" x2="142.13" y2="74.54"/>
	<line class="st1" x1="-24.13" y1="2" x2="142.13" y2="2"/>
</g>
<g>
	<path d="M71.88,3.05L32.84,6.92c-0.23,0.02-0.44,0.13-0.58,0.31c-0.14,0.18-0.21,0.4-0.19,0.63l2.7,27.22
		c0.02,0.24,0.15,0.46,0.35,0.61c0.2,0.14,0.44,0.2,0.68,0.15l2.42-0.5c0.16-0.03,0.3-0.11,0.41-0.22l1.11-1.04l4.15,1.75
		c0.11,0.04,0.22,0.07,0.33,0.07c0.07,0,0.14-0.01,0.21-0.03l5.11-1.27c0.24-0.06,0.44-0.21,0.55-0.43l1.19-2.24l2.75,0.66
		c0.04,0.01,0.07,0.01,0.11,0.02l3.76,0.4c0.18,0.01,4.39,0.37,5.34,0.37c0.09,0,0.17,0,0.22-0.01c0.19-0.02,0.69-0.07,4.37-2.44
		l1.95,0.1l1.79,1.84c0.25,0.26,0.64,0.33,0.97,0.18l2.47-1.11c0.34-0.15,0.54-0.5,0.5-0.87l-2.7-27.22
		C72.77,3.35,72.34,3,71.88,3.05z M72.39,31.21l-1.6-1.65c-0.15-0.16-0.36-0.25-0.57-0.26l-2.57-0.13
		c-0.18-0.01-0.36,0.04-0.51,0.14c-1.53,0.99-3.41,2.14-3.89,2.33c-0.73,0-4-0.26-5.17-0.36l-3.69-0.39l-3.34-0.8
		c-0.38-0.09-0.77,0.09-0.96,0.43l-1.33,2.49l-4.46,1.11l-4.4-1.85c-0.11-0.05-0.22-0.07-0.33-0.07c-0.21,0-0.43,0.08-0.59,0.23
		l-1.34,1.26l-1.24,0.26L33.87,8.54l37.32-3.7l2.55,25.75L72.39,31.21z"/>
	<path d="M31.82,65.23l38.35,8.25c0.06,0.01,0.12,0.02,0.18,0.02c0.16,0,0.33-0.05,0.47-0.14c0.19-0.12,0.33-0.32,0.37-0.54
		l5.25-24.41c0.06-0.27-0.02-0.55-0.2-0.76c-0.19-0.2-0.46-0.31-0.73-0.28l-2.1,0.24l-1.02-2.06c-0.1-0.2-0.26-0.35-0.47-0.42
		l-2.4-0.91c-0.17-0.06-0.35-0.07-0.53-0.03c-1.77,0.48-3.9,0.99-4.42,1.03c-0.49-0.16-2.79-1.08-4.81-1.92l-3.39-1.5l-2.94-1.78
		c-0.33-0.2-0.76-0.15-1.04,0.12l-2.03,1.97l-4.58-0.31l-3.62-3.11c-0.26-0.22-0.62-0.27-0.93-0.12l-1.66,0.79l-2.21-0.24
		c-0.43-0.05-0.84,0.24-0.93,0.67L31.16,64.2C31.06,64.67,31.35,65.13,31.82,65.23z M37.92,40.91l1.69,0.18
		c0.16,0.02,0.32-0.01,0.46-0.08l1.38-0.65l3.42,2.93c0.14,0.12,0.32,0.19,0.5,0.21l5.25,0.35c0.25,0.02,0.48-0.07,0.66-0.24
		l1.82-1.77l2.42,1.47c0.03,0.02,0.06,0.04,0.1,0.05l3.46,1.53c1.38,0.58,4.66,1.93,5.18,2.04c0.08,0.02,0.17,0.03,0.27,0.03
		c0.76,0,3.48-0.7,4.64-1.02l1.83,0.69l1.14,2.29c0.16,0.32,0.51,0.51,0.87,0.47l1.51-0.17l-4.82,22.4l-36.67-7.89L37.92,40.91z"/>
</g>
</svg>
