<?xml version="1.0" encoding="utf-8"?>
<!-- Generator: Adobe Illustrator 28.1.0, SVG Export Plug-In . SVG Version: 6.00 Build 0)  -->
<svg version="1.1" id="Layer_1" xmlns="http://www.w3.org/2000/svg" xmlns:xlink="http://www.w3.org/1999/xlink" x="0px" y="0px"
	 viewBox="0 0 110.55 76.54" style="enable-background:new 0 0 110.55 76.54;" xml:space="preserve">
<style type="text/css">
	.st0{display:none;}
	.st1{display:inline;fill:none;}
</style>
<g id="Layer_2_00000073722119373351752270000017113015111246931634_" class="st0">
	<line class="st1" x1="-24.13" y1="74.54" x2="142.13" y2="74.54"/>
	<line class="st1" x1="-24.13" y1="2" x2="142.13" y2="2"/>
</g>
<g>
	<path d="M101.78,23.22c-0.9-0.9-21-22.4-46.6-22.4c-25.4,0-45.5,21.5-46.4,22.4c-1.3,1.5-1.3,3.8,0,5.3c0.9,0.9,21,22.4,46.4,22.4
		c1.2,0,2.3-0.2,3.5-0.4c-1.1,2.9-1.8,5.6-1.8,7.6c0,9.7,7.9,17.6,17.6,17.6s17.6-7.9,17.6-17.6c0-4.1-2.9-10.9-6.1-17.2
		c9.2-5.7,15.3-11.9,15.8-12.4C103.08,27.02,103.08,24.72,101.78,23.22z M34.98,37.62c-7.8-3.7-14.2-8.7-17.5-11.8
		c3.3-3,9.7-8.1,17.5-11.9c-2.1,3.6-3.3,7.5-3.3,11.9C31.67,30.22,32.88,34.22,34.98,37.62z M55.18,41.62c-8.6,0-15.6-7.1-15.6-15.7
		s7-15.7,15.6-15.7c8.7,0,15.7,7.1,15.7,15.7c0,0.6-0.3,1.1-0.3,1.7c-1.3,2.1-3.6,6-6.1,10.7C61.88,40.22,58.78,41.62,55.18,41.62z
		 M74.58,67.82c-5.3,0-9.7-4.3-9.7-9.7c0-3.5,4.9-13.4,9.7-21.7c4.7,8.3,9.7,18.2,9.7,21.7C84.28,63.52,79.88,67.82,74.58,67.82z
		 M82.28,34.02c-1.4-2.6-2.7-4.6-3.6-6c0.1-0.7,0.2-1.4,0.2-2.1c0-4.4-1.2-8.3-3.3-11.9c7.8,3.8,14.2,8.9,17.5,11.9
		C90.78,28.02,86.97,31.02,82.28,34.02z"/>
	<circle cx="55.28" cy="25.82" r="8.9"/>
</g>
</svg>
