<?xml version="1.0" encoding="utf-8"?>
<!-- Generator: Adobe Illustrator 28.1.0, SVG Export Plug-In . SVG Version: 6.00 Build 0)  -->
<svg version="1.1" id="Layer_1" xmlns="http://www.w3.org/2000/svg" xmlns:xlink="http://www.w3.org/1999/xlink" x="0px" y="0px"
	 viewBox="0 0 110.55 76.54" style="enable-background:new 0 0 110.55 76.54;" xml:space="preserve">
<style type="text/css">
	.st0{display:none;}
	.st1{display:inline;fill:none;}
	.st2{fill:#808080;}
</style>
<g id="Layer_2_00000073722119373351752270000017113015111246931634_" class="st0">
	<line class="st1" x1="-24.13" y1="74.54" x2="142.13" y2="74.54"/>
	<line class="st1" x1="-24.13" y1="2" x2="142.13" y2="2"/>
</g>
<g>
	<path class="st2" d="M2140.76,2326.2c-1.12,0-2.03,0.91-2.03,2.03c0,1.12,0.91,2.03,2.03,2.03c1.12,0,2.03-0.91,2.03-2.03
		C2142.8,2327.11,2141.89,2326.2,2140.76,2326.2z"/>
	<path class="st2" d="M2140.61,2325.28c1.12,0,2.03-0.91,2.03-2.03s-0.91-2.03-2.03-2.03c-1.12,0-2.03,0.91-2.03,2.03
		S2139.48,2325.28,2140.61,2325.28z"/>
	<path class="st2" d="M2131.48,2340.34c1.12,0,2.03-0.91,2.03-2.03c0-1.12-0.91-2.03-2.03-2.03c-1.12,0-2.03,0.91-2.03,2.03
		C2129.45,2339.43,2130.36,2340.34,2131.48,2340.34z"/>
	<path class="st2" d="M2126.6,2339.97c1.12,0,2.03-0.91,2.03-2.03c0-1.12-0.91-2.03-2.03-2.03c-1.12,0-2.03,0.91-2.03,2.03
		C2124.57,2339.06,2125.48,2339.97,2126.6,2339.97z"/>
	<circle class="st2" cx="2136.01" cy="2336.33" r="2.03"/>
	<path class="st2" d="M2139.66,2334.99c1.12,0,2.03-0.91,2.03-2.03c0-1.12-0.91-2.03-2.03-2.03s-2.03,0.91-2.03,2.03
		C2137.63,2334.08,2138.54,2334.99,2139.66,2334.99z"/>
	<path class="st2" d="M2141.18,2343.3l-0.65-1.6c4.77-3.51,7.88-9.14,7.88-15.49c0-10.61-8.63-19.24-19.24-19.24
		c-10.61,0-19.24,8.63-19.24,19.24c0,6.26,3.02,11.82,7.67,15.34l-0.68,1.48c-0.29,0.63-0.09,1.37,0.46,1.78l6.72,4.98l2.59,24.74
		c0.08,0.74,0.95,1.31,2.48,1.31s2.41-0.66,2.49-1.4l2.57-24.71l6.45-4.69C2141.23,2344.63,2141.43,2343.92,2141.18,2343.3z
		 M2112.84,2326.2c0-9,7.32-16.32,16.32-16.32c6.15,0,11.52,3.42,14.3,8.46c-0.54,0.37-0.89,0.98-0.89,1.68
		c0,1.12,0.91,2.03,2.03,2.03c0.11,0,0.22-0.02,0.32-0.03c0.19,0.7,0.33,1.42,0.42,2.16c-1.07,0.06-1.93,0.94-1.93,2.02
		s0.85,1.97,1.93,2.02c-0.08,0.61-0.19,1.2-0.33,1.79c-0.14-0.03-0.27-0.04-0.42-0.04c-1.12,0-2.03,0.91-2.03,2.03
		c0,0.76,0.42,1.42,1.05,1.77c-0.41,0.78-0.89,1.52-1.42,2.22c-0.32-0.22-0.71-0.34-1.13-0.34c-1.12,0-2.03,0.91-2.03,2.03
		c0,0.45,0.15,0.86,0.4,1.2c-0.65,0.53-1.35,1-2.08,1.43c-0.36-0.54-0.98-0.9-1.69-0.9c-1.12,0-2.03,0.91-2.03,2.03
		c0,0.15,0.02,0.3,0.05,0.45c-0.81,0.23-1.65,0.41-2.51,0.51c-0.11-1.02-0.96-1.81-2.01-1.81c-1.05,0-1.9,0.79-2.01,1.81
		c-0.73-0.09-1.44-0.23-2.14-0.42c0.05-0.17,0.08-0.35,0.08-0.54c0-1.12-0.91-2.03-2.03-2.03c-0.78,0-1.45,0.44-1.79,1.09
		C2116.25,2337.7,2112.84,2332.35,2112.84,2326.2z M2131.99,2347.74c-0.33,0.24-0.55,0.62-0.59,1.03l-1.95,18.7h-0.57l-1.95-18.63
		c-0.04-0.41-0.25-0.78-0.58-1.02l-6.29-4.66l0-0.01c2.71,1.46,5.81,2.3,9.1,2.3c3.19,0,6.2-0.79,8.85-2.18l0.03,0.07
		L2131.99,2347.74z"/>
	<polygon class="st2" points="2153.99,2355.96 2146.81,2355.96 2146.81,2353.31 2139.4,2358.48 2139.4,2358.48 2146.81,2363.65 
		2146.81,2361 2153.99,2361 2157.41,2361 2157.41,2355.96 	"/>
</g>
<g>
	<path d="M64.66,22.93c-1.12,0-2.03,0.91-2.03,2.03c0,1.12,0.91,2.03,2.03,2.03c1.12,0,2.03-0.91,2.03-2.03
		C66.69,23.84,65.78,22.93,64.66,22.93z"/>
	<path d="M64.51,22.01c1.12,0,2.03-0.91,2.03-2.03s-0.91-2.03-2.03-2.03c-1.12,0-2.03,0.91-2.03,2.03S63.38,22.01,64.51,22.01z"/>
	<path d="M55.38,37.06c1.12,0,2.03-0.91,2.03-2.03c0-1.12-0.91-2.03-2.03-2.03c-1.12,0-2.03,0.91-2.03,2.03
		C53.35,36.15,54.26,37.06,55.38,37.06z"/>
	<path d="M50.5,36.7c1.12,0,2.03-0.91,2.03-2.03c0-1.12-0.91-2.03-2.03-2.03c-1.12,0-2.03,0.91-2.03,2.03
		C48.47,35.79,49.38,36.7,50.5,36.7z"/>
	<circle cx="59.91" cy="33.05" r="2.03"/>
	<path d="M63.56,31.71c1.12,0,2.03-0.91,2.03-2.03c0-1.12-0.91-2.03-2.03-2.03s-2.03,0.91-2.03,2.03
		C61.53,30.8,62.44,31.71,63.56,31.71z"/>
	<path d="M65.07,40.02l-0.65-1.6c4.77-3.51,7.88-9.14,7.88-15.49c0-10.61-8.63-19.24-19.24-19.24c-10.61,0-19.24,8.63-19.24,19.24
		c0,6.26,3.02,11.82,7.67,15.34l-0.68,1.48c-0.29,0.63-0.09,1.37,0.46,1.78l6.72,4.98l2.59,24.74c0.08,0.74,0.95,1.31,2.48,1.31
		s2.41-0.66,2.49-1.4l2.57-24.71l6.45-4.69C65.12,41.36,65.33,40.64,65.07,40.02z M36.74,22.93c0-9,7.32-16.32,16.32-16.32
		c6.15,0,11.52,3.42,14.3,8.46c-0.54,0.37-0.89,0.98-0.89,1.68c0,1.12,0.91,2.03,2.03,2.03c0.11,0,0.22-0.02,0.32-0.03
		c0.19,0.7,0.33,1.42,0.42,2.16c-1.07,0.06-1.93,0.94-1.93,2.02s0.85,1.97,1.93,2.02c-0.08,0.61-0.19,1.2-0.33,1.79
		c-0.14-0.03-0.27-0.04-0.42-0.04c-1.12,0-2.03,0.91-2.03,2.03c0,0.76,0.42,1.42,1.05,1.77c-0.41,0.78-0.89,1.52-1.42,2.22
		c-0.32-0.22-0.71-0.34-1.13-0.34c-1.12,0-2.03,0.91-2.03,2.03c0,0.45,0.15,0.86,0.4,1.2c-0.65,0.53-1.35,1-2.08,1.43
		c-0.36-0.54-0.98-0.9-1.69-0.9c-1.12,0-2.03,0.91-2.03,2.03c0,0.15,0.02,0.3,0.05,0.45c-0.81,0.23-1.65,0.41-2.51,0.51
		c-0.11-1.02-0.96-1.81-2.01-1.81c-1.05,0-1.9,0.79-2.01,1.81c-0.73-0.09-1.44-0.23-2.14-0.42c0.05-0.17,0.08-0.35,0.08-0.54
		c0-1.12-0.91-2.03-2.03-2.03c-0.78,0-1.45,0.44-1.79,1.09C40.15,34.43,36.74,29.07,36.74,22.93z M55.88,44.46
		c-0.33,0.24-0.55,0.62-0.59,1.03l-1.95,18.7h-0.57l-1.95-18.63c-0.04-0.41-0.25-0.78-0.58-1.02l-6.29-4.66l0-0.01
		c2.71,1.46,5.81,2.3,9.1,2.3c3.19,0,6.2-0.79,8.85-2.18l0.03,0.07L55.88,44.46z"/>
	<polygon points="84.67,52.66 72.47,52.66 72.47,48.16 59.88,56.94 59.88,56.94 72.47,65.72 72.47,61.22 84.67,61.22 90.46,61.22 
		90.46,52.66 	"/>
</g>
</svg>
