<?xml version="1.0" encoding="utf-8"?>
<!-- Generator: Adobe Illustrator 28.1.0, SVG Export Plug-In . SVG Version: 6.00 Build 0)  -->
<svg version="1.1" id="Layer_1" xmlns="http://www.w3.org/2000/svg" xmlns:xlink="http://www.w3.org/1999/xlink" x="0px" y="0px"
	 viewBox="0 0 110.6 76.5" style="enable-background:new 0 0 110.6 76.5;" xml:space="preserve">
<style type="text/css">
	.st0{display:none;}
	.st1{display:inline;fill:none;}
	.st2{fill:#808080;}
</style>
<g id="Layer_2_00000073722119373351752270000017113015111246931634_" class="st0">
	<line class="st1" x1="-24.1" y1="74.5" x2="142.1" y2="74.5"/>
	<line class="st1" x1="-24.1" y1="2" x2="142.1" y2="2"/>
</g>
<g>
	<g>
		<path class="st2" d="M2198.7,1892.5c-0.1,0.6-0.2,0.9-0.8,1.1c-0.3,0.1-0.6,0.2-0.8,0.4c-0.1,0.1-0.1,0.2-0.2,0.3
			c0.1,0.1,0.3,0.2,0.4,0.2c0.4,0,0.7-0.1,1.1-0.2c0.1,0.9-0.1,1.1-1,1.3c-3.8,1.1-7.6,2.2-11.4,3.1c-3.3,0.8-7-1.7-7.4-5.1
			c-0.2-1.7-0.4-3.4-0.4-5.1c-0.1-2.1-0.9-4-1.9-5.8c-3.5-6.1-7-12.2-10.5-18.2c-0.6-1-1.2-2.1-1.8-3.1c-0.1-0.3-0.2-0.4,0.1-0.6
			c1.1-0.6,2.2-1.3,3.4-1.9c0.5,0.8,0.9,1.5,1.3,2.3c4,6.9,8,13.9,12,20.8c1,1.8,1.4,3.7,1.3,5.7c-0.1,1.3-0.2,2.6-0.2,3.9
			c0,1.7,1.2,2.9,3,2.9c4.5-0.1,8.9-0.6,13.2-1.8C2198.1,1892.6,2198.4,1892.5,2198.7,1892.5z"/>
		<path class="st2" d="M2154.7,1847.3c0.2,0.3,0.4,0.7,0.6,1c0.5,0.8,1,0.9,1.7,0.4c1.1-0.6,2.2-1.3,3.3-1.9
			c0.8-0.4,1.4-0.4,1.9,0.2c0.6,0.6,0.6,1.3,0.1,2.1c-0.1,0.1-0.1,0.2-0.2,0.4c0.9-0.2,1.6-0.1,2,0.7c0.4,0.8,0.1,1.4-0.4,2.2
			c1.1-0.2,1.8,0,2.2,0.9c0.4,1.1-0.2,1.8-1.2,2.2c0,0.1,0.1,0.1,0.1,0.1c0.2,0,0.4,0,0.6,0c0.7,0,1.4,0.4,1.6,1
			c0.2,0.7,0,1.4-0.7,1.8c-1.6,0.9-3.2,1.9-4.8,2.8c-1.2,0.7-2.5,1.1-3.8,1.3s-2.6,0.6-3.8,1.2c-0.8,0.4-1.2,0.3-1.6-0.5
			c-1.2-2.1-2.4-4.2-3.6-6.3c-0.4-0.6-0.3-1.1,0.2-1.5c2-1.4,3.2-3.4,4.1-5.5c0.4-0.8,0.9-1.6,1.4-2.3
			C2154.4,1847.4,2154.5,1847.4,2154.7,1847.3z"/>
		<path class="st2" d="M2140.8,1831.4c0.9-0.1,1.6-0.2,2.4-0.3c0.1,0,0.3,0,0.4,0.1c2.9,1.3,5.8,2.6,8.6,4c1.5,0.7,2.6,1.9,3.5,3.4
			c1.3,2.2,2.6,4.5,3.9,6.8c0.3,0.5,0.2,0.7-0.3,0.9c-1,0.5-2,1.1-3.1,1.8c-0.5-0.8-0.9-1.6-1.4-2.3c-0.9-1.6-1.8-3.2-2.8-4.7
			c-0.8-1.4-2.1-2.4-3.4-3.4c-2.5-1.9-5-3.9-7.5-5.8C2141.1,1831.7,2141,1831.6,2140.8,1831.4z"/>
	</g>
	<path class="st2" d="M2202.7,1888.8l-4.1,1.2c-0.1,0-0.1,0.2-0.1,0.3l0.2,0.6c0,0.1,0.1,0.2,0.2,0.2l1.4-0.4l3.4,11.1l1.1,1.1
		l0.3-1.5l-3.4-11.1l1.4-0.4c0.1,0,0.1-0.2,0.1-0.3l-0.2-0.6C2202.9,1888.9,2202.8,1888.8,2202.7,1888.8z"/>
</g>
<path d="M54.4,15.4l-0.3,0.6c-0.1,0.2,0,0.4,0.2,0.5c0.2,0.1,0.4,0,0.5-0.2l0.2-0.4l1.3-0.5c0.1,0,0.2-0.1,0.2-0.2l0.6-1.1h0.8
	l0.9,0.8c0.5,0.5,1.1,0.8,1.6,0.8c0.8,0,1.3-0.6,1.3-0.6c0,0,0-0.1,0.1-0.1l0.5-1.1l1.1-1.1c0,0,0.1-0.1,0.1-0.1l0.5-1.2
	c0.4-0.1,0.8-0.1,1.1,0.1c0.4,0.2,0.5,0.6,0.5,0.6c0,0.2,0.2,0.3,0.3,0.3c0.8,0.1,1.8,0.7,2.1,0.9l2.1,2.8c0,0,0,0,0.1,0.1l1.8,1.6
	l-0.3,2.3c0,0.1,0,0.1,0,0.2c0.5,1.8,2.8,3.9,2.9,4c0,0,0.1,0.1,0.2,0.1c1.1,0.4,1.6,0.8,1.7,1.1c0.1,0.3,0.1,0.5,0,0.5
	c-0.4,1.9,0.1,3.8,0.4,4.4l-1.6,1.4c0,0-0.1,0.1-0.1,0.1l-0.8,1.4c-1-0.3-1.6-1.8-1.6-1.8c0-0.1-0.1-0.2-0.3-0.2L71,30.7
	c-0.1,0-0.3,0-0.4,0.1l-0.4,0.3c-0.2,0.1-0.2,0.4,0,0.6c0.1,0.2,0.4,0.2,0.6,0l0.2-0.2l1,0.3c0.2,0.6,1,2.1,2.5,2.2c0,0,0,0,0,0
	c0.1,0,0.3-0.1,0.3-0.2l0.9-1.5l1.8-1.5c0.1-0.1,0.2-0.3,0.1-0.5c0,0-0.9-2.1-0.4-4.2c0-0.1,0.2-0.5-0.1-1.1c-0.3-0.6-1-1.1-2.1-1.5
	c-0.4-0.3-2.1-2.1-2.5-3.5l0.3-2.4c0-0.1,0-0.3-0.1-0.4l-1.9-1.7l-2.1-2.8c0,0-0.1-0.1-0.1-0.1c-0.1,0-1.2-0.7-2.2-1
	c-0.1-0.2-0.3-0.6-0.7-0.8c-0.5-0.3-1.1-0.3-1.9-0.1c-0.1,0-0.2,0.1-0.2,0.2l-0.6,1.3l-1.1,1.1c0,0-0.1,0.1-0.1,0.1l-0.5,1.1
	c-0.1,0.1-0.4,0.3-0.7,0.3c-0.4,0-0.7-0.2-1.1-0.6l-1.1-1c-0.1-0.1-0.2-0.1-0.3-0.1h-1.2c-0.1,0-0.3,0.1-0.3,0.2l-0.6,1.2l-1.3,0.5
	C54.5,15.2,54.4,15.3,54.4,15.4z"/>
<path d="M64.6,44.7l-0.7-1.9v-1.1c0-0.1-0.1-0.2-0.1-0.3l-2.3-2l-0.4-0.9l-0.4-1.7c0.6-0.3,1.7-1.1,2.1-2.5c0.1-0.2-0.1-0.4-0.3-0.5
	c-0.2-0.1-0.4,0.1-0.5,0.3c-0.3,1.4-1.9,2.1-1.9,2.1c-0.2,0.1-0.3,0.3-0.2,0.4l0.5,2.1l0.4,1.1c0,0.1,0.1,0.1,0.1,0.2l2.3,1.9v1
	c0,0,0,0.1,0,0.1l0.7,2c0.3,0.7,0.2,1,0.2,1c-0.1,0-0.3-0.1-0.5-0.2l-1.5-2.5c0-0.1-0.1-0.1-0.2-0.1l-1.4-0.7l-2-1.3
	c-0.3-0.4-0.7-0.5-0.9-0.5c-0.6,0-1.2,0.5-1.2,0.5c-0.1,0.1-0.1,0.2-0.1,0.3c-0.6-1-1.9-1-2.6-0.8c-0.4,0.1-0.5,0-0.5,0
	c-0.1-0.1,0.1-0.6,0.4-1c0,0,0-0.1,0.1-0.1l0.5-1.7c0-0.1,0-0.2,0-0.2L53.5,36c-0.2-0.3-0.4-0.6-0.8-0.7c-1.5-0.5-4.4,0.8-4.7,1
	c-0.1,0-0.2,0.1-0.2,0.2c0,0.1,0,0.2,0,0.3l1.1,1.8l-0.6,1.8c0,0,0,0.1,0,0.1v2.2L47.7,44l-1,1.4c0,0.1-0.1,0.1-0.1,0.2l-0.2,1.7
	l-1.7,3L44,52.7c0,0.1,0,0.3,0.1,0.4c0.7,1,0,2.3,0,2.3c-0.1,0.2-0.1,0.4,0.1,0.5l1.2,1.2c0.1,0.1,0.2,0.1,0.3,0.1
	c1.9-0.3,2.2,0,2.3,0.1c0.1,0.2-0.2,0.8-0.4,1.1c-0.1,0.1-0.1,0.2-0.1,0.4l0.7,2.4c0.1,0.2,0.2,0.3,0.4,0.3h1.1v2.2
	c0,0.1,0,0.2,0.1,0.2c0.4,0.6,0.5,0.9,0.6,1c0,0-0.1,0-0.1,0c-0.2,0-0.3,0-0.4,0.1c-0.1,0.1-0.1,0.3,0,0.4c2.1,3.8,5,3.4,5.1,3.4
	c0.2,0,0.3-0.2,0.3-0.4v-0.6h0.6c0.7,1.3,2.3,3.7,2.6,4.1c0.2,0.8-0.1,1.5-0.3,1.8l-1.4-0.7c-0.1,0-0.1-0.1-0.2,0
	c-0.6,0.1-1,0.3-1.3,0.7c-0.1,0.2-0.2,0.4-0.3,0.6c-0.3-0.1-0.5-0.2-0.8-0.3c0.6-1,0.1-2.5,0-2.6c-0.1-0.2-0.3-0.3-0.5-0.3
	c-0.5,0.1-1.4-0.4-1.8-0.8c-0.3-0.5-0.7-0.9-1.1-1c-0.6-0.1-1,0.1-1,0.2c-0.1,0.1-0.2,0.2-0.2,0.4c0.1,0.5-0.2,0.9-0.3,1.1
	c0,0-0.1,0-0.1,0c-0.5-0.2-1-1.5-1.2-2.3c-0.4-2.2-1.8-2.4-1.8-2.4c-0.1,0-0.3,0-0.4,0.2c-0.1,0.1-0.1,0.1-0.1,0.1
	c-0.2-0.1-0.6-0.8-0.9-1.5c-0.2-1.1-1.2-1.8-1.7-2.1c0-0.5-0.2-0.9-0.6-1.2c-0.6-0.5-1.5-0.3-1.6-0.3c-0.1,0-0.2,0.1-0.3,0.2
	l-0.6,1.5l-0.3,1.2l-0.9,0.2L38.6,64c0.9-1.2,0.8-3.7,0.8-4.2l0.6-2.4c1.4-3.2,1.3-3.4,1.3-3.5c0-0.2,0-1.1,0-2l1.8-2.3
	c1-0.4,1.4-2.1,1.5-2.9c1.7-0.7,1.8-3,1.8-3.1c0-0.2-0.1-0.4-0.3-0.4L45.3,43l0.3-1.4c0-0.1,0-0.3-0.1-0.4l-1.4-1.7l-0.4-1.9
	l0.6-2.8c0-0.1,0-0.3-0.1-0.4l-1.5-1.4l-2.5-3.6c-0.3-0.3-0.3-0.6-0.3-0.9c0.1-0.4,0.6-0.8,0.9-1c0.4,0.3,0.9,0.5,1.3,0.3
	c0.3-0.2,0.3-0.5,0.3-0.7c-0.2-1.2,0.4-2.5,0.6-2.9c0.4-0.1,0.9-0.4,1.3-1c0.1-0.2,0.1-0.4-0.1-0.6c-0.2-0.1-0.4-0.1-0.6,0.1
	c-0.4,0.5-0.7,0.7-1,0.7c-0.1,0-0.3,0.1-0.3,0.2c0,0.1-0.9,1.7-0.8,3.4c-0.1-0.1-0.3-0.2-0.4-0.3c-0.1-0.1-0.3-0.1-0.4,0
	c-0.1,0-1.2,0.6-1.5,1.7c-0.1,0.5,0,1.1,0.4,1.6l2.5,3.6c0,0,0,0,0.1,0.1l1.3,1.3l-0.6,2.7c0,0.1,0,0.1,0,0.2l0.4,2.1
	c0,0.1,0,0.1,0.1,0.2l1.4,1.6l-0.4,1.6c-0.1,0.2,0.1,0.4,0.3,0.5l0.7,0.2c-0.1,0.6-0.4,1.8-1.5,2.2c-0.2,0-0.3,0.2-0.3,0.3
	c-0.1,0.9-0.5,2.4-1,2.5c-0.1,0-0.2,0.1-0.2,0.1l-1.9,2.5c-0.1,0.1-0.1,0.1-0.1,0.2c0,0.6,0,2,0,2.2c0,0.3-0.7,1.8-1.3,3.2l-0.6,2.5
	c0,0,0,0.1,0,0.1c0,0.8,0,3-0.7,3.8c-0.1,0.1-0.1,0.2-0.1,0.4l0.3,1.1c0.1,0.2,0.3,0.3,0.5,0.3L40,65c0.1,0,0.3-0.1,0.3-0.3l0.3-1.4
	l0.5-1.2c0.2,0,0.5,0,0.8,0.2c0.2,0.1,0.3,0.4,0.3,0.8c0,0.2,0.1,0.3,0.2,0.4c0,0,1.3,0.6,1.5,1.6c0.2,0.6,0.7,2,1.5,2.1
	c0.2,0,0.4,0,0.6-0.2c0.3,0.1,0.8,0.6,1,1.8c0.1,0.2,0.6,2.3,1.6,2.8c0.3,0.1,0.6,0.2,0.9,0.1c0.1,0,0.1-0.1,0.2-0.1
	c0,0,0.5-0.6,0.5-1.5c0.1,0,0.1,0,0.2,0c0.2,0.1,0.4,0.3,0.6,0.6c0,0,0,0.1,0.1,0.1c0.1,0.1,1.2,1.1,2.2,1.1c0.1,0.5,0.3,1.6-0.4,2
	c-0.2,0.1-0.3,0.3-0.2,0.5c0,0.2,0.2,0.3,0.4,0.3c0.3,0,1.4,0.1,1.7,0.6c0.1,0.1,0.2,0.2,0.3,0.2c0.1,0,0.1,0,0.1,0
	c0.2-0.1,0.3-0.3,0.2-0.5c0,0-0.1-0.6,0.2-0.9c0.1-0.2,0.3-0.3,0.6-0.3l1.6,0.8c0.2,0.1,0.3,0.1,0.5-0.1c0,0,1.1-1.2,0.6-2.9
	c0,0,0-0.1-0.1-0.1c0,0-2-3-2.7-4.3c-0.1-0.1-0.2-0.2-0.4-0.2h-1.3c-0.2,0-0.4,0.2-0.4,0.4v0.6c-0.7,0-2.2-0.3-3.6-2.4
	c0.1,0,0.2-0.1,0.3-0.2c0.3-0.4,0.1-1-0.5-1.9v-2.4c0-0.2-0.2-0.4-0.4-0.4h-1.2l-0.6-1.9c0.3-0.4,0.8-1.2,0.4-1.8
	c-0.4-0.6-1.3-0.8-2.9-0.5l-0.9-0.8c0.2-0.5,0.6-1.7,0-2.7l0.7-2.1l1.7-3c0,0,0-0.1,0-0.2l0.2-1.7l0.9-1.4l0.7-1.4
	c0-0.1,0-0.1,0-0.2v-2.3l0.7-1.9c0-0.1,0-0.2,0-0.3l-1-1.5c1-0.4,2.8-1.1,3.7-0.7c0.2,0.1,0.3,0.2,0.3,0.3l0.5,1.5l-0.5,1.5
	c-0.2,0.3-0.8,1.2-0.4,1.8c0.2,0.4,0.7,0.5,1.4,0.4c0.1,0,1.7-0.3,2,0.8c0,0.1,0.1,0.2,0.3,0.3c0.1,0,0.5,0.2,0.9-0.1
	c0.2-0.2,0.3-0.5,0.2-0.8c0.1-0.1,0.3-0.2,0.5-0.2c0.1,0,0.2,0,0.4,0.3c0,0,0.1,0.1,0.1,0.1l2.1,1.3l1.3,0.6l1.5,2.5
	c0,0,0.1,0.1,0.1,0.1c0.2,0.1,1,0.6,1.5,0.2C65.1,46.2,64.8,45.4,64.6,44.7z"/>
<path d="M36.8,15.4l1.2,0.8l1.4,1.7c0,0,0.1,0.1,0.1,0.1l1.8,1.2l0.7,2.4c0,0.1,0,0.1,0.1,0.2c0,0,0.1,0.1,0.2,0.2
	c0.1,0,0.1,0.1,0.2,0.1c0.1,0,0.2-0.1,0.3-0.2c0.1-0.2,0.1-0.4-0.1-0.5L42,18.9c0-0.1-0.1-0.2-0.2-0.2L40,17.4l-1.4-1.7
	c0,0-0.1-0.1-0.1-0.1l-1.2-0.9c-0.7-0.4-0.9-1.4-0.9-2l0.5,0.2c0.1,0,0.2,0,0.3,0l0.9-0.4c0.1-0.1,0.2-0.1,0.2-0.2l0.4-1.6
	c0-0.1,0-0.1,0-0.2l-0.4-1.6l0.5-1.2c0-0.1,0-0.1,0-0.2c-0.1-1.2,0.3-1.7,0.5-1.9c0.5,0.9,1.5,1,1.6,1c0.9-0.1,1.4,0.4,1.4,0.5
	c0.1,0.1,0.2,0.2,0.4,0.2c0.1,0,0.3-0.1,0.3-0.2c0.4-0.8,1.2-0.7,1.3-0.7c0.1,0,0.3,0,0.3-0.1c0.1-0.1,0.1-0.2,0.1-0.3
	c-0.1-0.7,0-1.2,0.2-1.4c0.2-0.2,0.5-0.1,0.5-0.1c0.2,0,0.3,0,0.4-0.1l0.6-0.8h1.2c0,0,0.1,0,0.1,0l1.2-0.4c1.2-0.5,1.7-0.4,1.8-0.2
	l0.2,1.9c-0.1,0.6,0,1.1,0.4,1.4C52,6.5,53,6.3,53.2,6.3h1.1v1.6c0,0,0,0.1,0,0.1l0.5,1.4l-0.4,1l-0.9,0.4c-0.1,0.1-0.2,0.2-0.2,0.4
	v1.9l-0.5,1.2l-1,1.4c-0.1,0.2-0.1,0.4,0.1,0.6c0.2,0.1,0.4,0.1,0.6-0.1l1-1.5c0,0,0,0,0-0.1l0.5-1.3c0,0,0-0.1,0-0.2v-1.7l0.8-0.4
	c0.1,0,0.2-0.1,0.2-0.2l0.5-1.3c0-0.1,0-0.2,0-0.3l-0.5-1.4V5.9c0-0.2-0.2-0.4-0.4-0.4h-1.6c0,0-0.1,0-0.1,0c-0.2,0-0.8,0.1-1.1-0.2
	c-0.2-0.1-0.2-0.4-0.1-0.8c0,0,0-0.1,0-0.1l-0.2-2c0,0,0-0.1,0-0.1c0-0.1-0.2-0.4-0.6-0.5c-0.6-0.2-1.3-0.1-2.3,0.3l-1.1,0.4h-1.3
	c-0.1,0-0.2,0.1-0.3,0.2l-0.6,0.8c-0.3,0-0.6,0-0.9,0.3C44.1,4,43.9,4.6,44,5.4c-0.5,0-1,0.2-1.4,0.7c-0.3-0.2-0.9-0.5-1.6-0.4
	c0,0-0.8-0.1-1-0.8c-0.1-0.2-0.2-0.3-0.4-0.3c-0.1,0-0.6,0.1-1,0.5c-0.4,0.5-0.6,1.2-0.5,2.2l-0.5,1.3c0,0.1,0,0.2,0,0.2l0.4,1.6
	l-0.4,1.3l-0.6,0.3L36,11.8c-0.1,0-0.2,0-0.4,0c-0.1,0.1-0.2,0.2-0.2,0.3C35.5,12.2,35.4,14.5,36.8,15.4z"/>
<path d="M68.7,31.6v-2.4v-2.4v-3.6v-2.4v-2.4c0-0.2-0.2-0.4-0.4-0.4h-2.2c-0.2,0-0.4,0.2-0.4,0.4s0.2,0.4,0.4,0.4h1.8v1.6h-14h0
	h-1.2h-4.8h-1.1v-1.6H63c0.2,0,0.4-0.2,0.4-0.4s-0.2-0.4-0.4-0.4H46.3c-0.2,0-0.4,0.2-0.4,0.4v2.4v2.4v3.6v2.4v2.4
	c0,0.2,0.2,0.4,0.4,0.4h22C68.6,32,68.7,31.9,68.7,31.6z M67.9,26.4H46.7v-2.8h21.2V26.4z M46.7,27.2h21.2v1.6H46.7V27.2z
	 M47.9,21.1h4.8h1.2h0h14v1.6H46.7v-1.6H47.9z M67.9,31.2H46.7v-1.6h21.2V31.2z"/>
</svg>
