<?xml version="1.0" encoding="utf-8"?>
<!-- Generator: Adobe Illustrator 28.1.0, SVG Export Plug-In . SVG Version: 6.00 Build 0)  -->
<svg version="1.1" id="Layer_1" xmlns="http://www.w3.org/2000/svg" xmlns:xlink="http://www.w3.org/1999/xlink" x="0px" y="0px"
	 viewBox="0 0 110.55 76.54" style="enable-background:new 0 0 110.55 76.54;" xml:space="preserve">
<style type="text/css">
	.st0{display:none;}
	.st1{display:inline;fill:none;}
</style>
<g id="Layer_2_00000073722119373351752270000017113015111246931634_" class="st0">
	<line class="st1" x1="-24.13" y1="74.54" x2="142.13" y2="74.54"/>
	<line class="st1" x1="-24.13" y1="2" x2="142.13" y2="2"/>
</g>
<g>
	<g>
		<path d="M84.91,24.99c0,0.11-0.01,0.21-0.02,0.32c0.71-0.61,1.18-1.51,1.18-2.53c0-1.85-1.5-3.35-3.35-3.35
			c-1.02,0-1.92,0.46-2.53,1.18c0.1-0.01,0.21-0.02,0.32-0.02C82.94,20.58,84.91,22.56,84.91,24.99z"/>
		<path d="M88.99,30.63c-0.61-2.74-3.04-2.74-4.34-2.74h-0.84c-0.41,0.47-0.92,0.85-1.5,1.11c-0.01,0.02-0.02,0.03-0.03,0.05h0.15
			c1.25,0,4.58,0,5.37,3.57c0.23,1.05,1.12,6.59,1.36,8.11c0.01,0,0.02,0,0.02,0c0.8-0.13,1.34-0.87,1.21-1.67
			C90.29,38.32,89.24,31.74,88.99,30.63z"/>
		<path d="M85.1,53.66c0.66-0.14,1.16-0.72,1.16-1.43v-6.69c-0.32,0.31-0.72,0.51-1.16,0.61V53.66z"/>
		<path d="M82.7,27.2c0,0.11-0.01,0.21-0.02,0.32c0.71-0.61,1.18-1.51,1.18-2.53c0-1.85-1.5-3.35-3.35-3.35
			c-1.02,0-1.92,0.46-2.53,1.18c0.1-0.01,0.21-0.02,0.32-0.02C80.72,22.79,82.7,24.77,82.7,27.2z"/>
		<path d="M76.6,31.27c-0.35-0.14-0.67-0.33-0.96-0.56c-0.26,0.16-0.51,0.37-0.72,0.64c0.58-0.08,1.09-0.08,1.44-0.08H76.6z"/>
		<path d="M86.78,32.85c-0.61-2.74-3.04-2.74-4.34-2.74h-0.84c-0.44,0.5-0.99,0.9-1.61,1.16h0.24c1.25,0,4.58,0,5.38,3.57
			c0.21,0.93,0.92,5.35,1.36,8.11c0.01,0,0.02,0,0.02,0c0.8-0.13,1.34-0.87,1.21-1.67C88.07,40.53,87.02,33.95,86.78,32.85z"/>
		<path d="M82.89,55.88c0.66-0.14,1.16-0.72,1.16-1.43v-8.28c-0.43-0.09-0.84-0.27-1.16-0.55V55.88z"/>
		<circle cx="78.29" cy="27.2" r="3.35"/>
		<path d="M85.98,43.49c-0.12-0.75-1.17-7.33-1.41-8.43c-0.61-2.74-3.04-2.74-4.34-2.74h-3.86c-1.31,0-3.74,0-4.34,2.74
			c-0.25,1.1-1.29,7.68-1.41,8.43c-0.13,0.79,0.42,1.54,1.21,1.67c0.8,0.13,1.54-0.42,1.67-1.21c0.27-1.73,0.96-5.98,1.27-7.67
			v20.38c0,0.8,0.65,1.46,1.46,1.46c0.8,0,1.46-0.65,1.46-1.46V46.46h1.25v10.2c0,0.81,0.65,1.46,1.46,1.46
			c0.8,0,1.46-0.65,1.46-1.46V36.29c0.3,1.68,0.99,5.94,1.27,7.67c0.11,0.72,0.73,1.23,1.44,1.23c0.08,0,0.15-0.01,0.23-0.02
			C85.56,45.04,86.1,44.29,85.98,43.49z"/>
	</g>
	<g>
		<g>
			<path d="M10.44,56.84l-3.78-0.05V36.22H2.02v-3.08h4.64V19.27h3.78v13.87h5.13v3.08h-5.13V56.84z"/>
			<path d="M40.93,56.89H37V41.24c0-3.45-1.3-5.07-4.53-5.07c-3.73,0-6.91,4.48-6.91,9.88v10.85h-3.78V19.16h3.62V36.7
				c1.94-2.81,4.59-4.16,7.5-4.16c4.8,0,8.04,2.16,8.04,9.07V56.89z"/>
			<path d="M64.52,55.54c-2.27,1.46-4.27,2-6.8,2c-6.15,0-9.99-4.43-9.99-11.5c0-7.94,4.43-13.5,10.8-13.5
				c4.8,0,7.77,2.59,7.77,6.86c0,5.02-4.48,7.94-12.04,7.94c-0.97,0-1.35,0.05-2.64-0.05c0.43,4.32,2.81,6.85,6.42,6.85
				c2.1,0,4.21-0.76,6.48-2.32V55.54z M58.64,35.73c-3.62,0-6.59,4.1-6.96,8.31c1.19,0.16,1.73,0.11,2.65,0.11
				c4.86,0,8.04-1.94,8.04-4.86C62.36,37.4,60.91,35.73,58.64,35.73z"/>
		</g>
	</g>
	<g>
		<g>
			<path d="M97.8,56.89h-3.62V40.97c0-3.35-0.16-5.07-0.86-7.83h3.62c0.49,1.73,0.59,2.48,0.65,5.24c1.73-4.05,3.72-5.72,6.96-5.72
				c1.13,0,1.62,0.16,2.7,0.7l-0.16,3.4c-0.97-0.22-1.4-0.32-2.11-0.32c-4.32,0-7.18,4.43-7.18,11.12V56.89z"/>
		</g>
	</g>
</g>
</svg>
