<?xml version="1.0" encoding="utf-8"?>
<!-- Generator: Adobe Illustrator 28.1.0, SVG Export Plug-In . SVG Version: 6.00 Build 0)  -->
<svg version="1.1" id="Layer_1" xmlns="http://www.w3.org/2000/svg" xmlns:xlink="http://www.w3.org/1999/xlink" x="0px" y="0px"
	 viewBox="0 0 110.55 76.54" style="enable-background:new 0 0 110.55 76.54;" xml:space="preserve">
<style type="text/css">
	.st0{display:none;}
	.st1{display:inline;fill:none;}
</style>
<g id="Layer_2_00000073722119373351752270000017113015111246931634_" class="st0">
	<line class="st1" x1="-24.13" y1="74.54" x2="142.13" y2="74.54"/>
	<line class="st1" x1="-24.13" y1="2" x2="142.13" y2="2"/>
</g>
<g>
	<g>
		<path d="M63.46,23.93H42.13c1.65-1.48,2.18-3.52,1.48-6.08c-1.15-2.34-2.84-3.53-5.03-3.53c-0.65,0-1.35,0.11-2.12,0.34
			l-9.64,3.65l-1.45,0.61c-0.26,0.05-0.49,0.12-0.69,0.23c-0.18,0.03-0.35,0.09-0.52,0.19c-3.14,1.02-6.23,2.26-9.19,3.69
			c-3.04,1.47-5.77,3.48-8.16,6.03c-3.12,4.08-4.53,8.83-4.18,14.04c-0.1,5.15,1.59,9.68,5.06,13.51c3.73,3.58,8.25,5.49,13.43,5.69
			c0.09,0.01,0.17-0.01,0.25-0.03c0.14,0.12,0.28,0.25,0.43,0.36c0.1,0.1,0.23,0.18,0.38,0.22c0.13,0.03,0.28,0.08,0.46,0.14
			c0.12,0.09,0.26,0.16,0.4,0.19l0.43,0.09c0.08,0.05,0.16,0.08,0.24,0.1c0.26,0.07,0.59,0.1,1.01,0.1h15.22c0.03,0,0.07,0,0.1-0.01
			c3.1-0.39,4.91-2.23,5.24-5.33c0.01-0.06,0.01-0.12,0-0.18c-0.18-1.75-0.82-3.09-1.9-3.98c3.02-0.4,4.78-2.23,5.11-5.31
			c0.01-0.09-0.01-0.23-0.03-0.32c0.02-0.16,0.01-0.33-0.05-0.48c0-0.03-0.01-0.07-0.02-0.1c-0.01-0.22-0.07-0.46-0.14-0.61
			c0,0,0.03,0.07,0.03,0.19c0-0.11-0.06-0.3-0.1-0.4c0,0,0.03,0.07,0.03,0.18c0-0.11-0.06-0.3-0.1-0.4c0,0,0.03,0.07,0.03,0.18
			c0-0.09-0.05-0.25-0.08-0.36c-0.02-0.13-0.07-0.25-0.15-0.35c-0.03-0.07-0.05-0.13-0.08-0.18c-0.02-0.04-0.08-0.12-0.12-0.17
			c-0.01-0.01-0.01-0.02-0.02-0.03c-0.06-0.12-0.13-0.24-0.21-0.33c-0.1-0.16-0.21-0.27-0.33-0.35C47.1,45.06,47.06,45,47,44.95
			c-0.08-0.16-0.18-0.29-0.28-0.4c-0.06-0.06-0.13-0.11-0.21-0.15c-0.03-0.02-0.07-0.03-0.1-0.05c-0.04-0.04-0.08-0.07-0.12-0.1
			c2.27-0.68,3.6-2.4,3.88-5.06c0.01-0.06,0.01-0.12,0-0.18c-0.18-1.73-0.81-3.06-1.87-3.95l15.23,0c3.29-0.27,5.29-2.15,5.78-5.44
			c0.01-0.08,0.01-0.16,0-0.25C68.82,26.03,66.82,24.15,63.46,23.93z M43.62,58.04c-0.27,2.26-1.45,3.45-3.73,3.75H24.73
			c-0.2,0-0.34-0.01-0.43-0.02c-0.08-0.05-0.18-0.09-0.27-0.11l-0.41-0.08c-0.07-0.05-0.14-0.08-0.22-0.11
			c-0.22-0.07-0.41-0.13-0.58-0.18c-0.16-0.12-0.29-0.23-0.47-0.4c-0.92-0.76-1.37-1.69-1.37-2.78c0.21-2.35,1.42-3.54,3.75-3.75
			h14.78l0.36,0C42.16,54.56,43.35,55.73,43.62,58.04z M46.41,46.91L46.41,46.91c0.01,0.01,0.01,0.02,0.01,0.03
			c0.02,0.07,0.04,0.14,0.07,0.21c0.02,0.08,0.05,0.15,0.08,0.22c0.02,0.08,0.05,0.17,0.08,0.24c0.02,0.06,0.04,0.13,0.08,0.21
			c-0.01,0.14,0.01,0.27,0.06,0.4c0,0.02,0.01,0.04,0.01,0.06c-0.01,0.11,0,0.22,0.02,0.34c-0.28,2.27-1.49,3.45-3.79,3.71h-2.61
			c-0.22-0.05-0.42-0.05-0.62,0l-14.96,0c-0.22-0.05-0.44-0.05-0.66,0l-5.69,0.01c-2.37-0.29-3.58-1.51-3.79-3.67
			c0.25-2.36,1.44-3.56,3.68-3.77h24.68l0.51-0.01c0.05,0.01,0.13,0.03,0.22,0.06c0.11,0.06,0.3,0.15,0.43,0.15
			c0.12,0.06,0.11,0.08,0.24,0.08c0.11,0.05,0.08,0.07,0.21,0.07c0.01,0,0.01,0.01,0.02,0.01c0.04,0.04,0.09,0.07,0.13,0.1
			c0.09,0.09,0.2,0.18,0.35,0.25c0.03,0.02,0.07,0.03,0.1,0.04c0.08,0.12,0.18,0.2,0.32,0.23c0,0.01,0.01,0.01,0.01,0.01
			c0.06,0.11,0.14,0.21,0.23,0.28c0.01,0.02,0.03,0.03,0.04,0.05c0.06,0.07,0.13,0.13,0.19,0.19c0.01,0.01,0.02,0.02,0.04,0.03
			c0.02,0.02,0.03,0.05,0.05,0.07C46.25,46.75,46.4,46.9,46.41,46.91z M48.5,39.11c-0.27,2.3-1.45,3.49-3.72,3.75l-24.74,0.01
			c-2.29-0.33-3.45-1.55-3.65-3.69c0.21-2.35,1.42-3.54,3.75-3.75l24.61,0C47.03,35.63,48.23,36.8,48.5,39.11z M63.46,33.39H45.42
			c-0.25-0.05-0.48-0.04-0.7,0l-24.63,0c-3.47,0.22-5.46,2.18-5.73,5.75c0.08,1.73,0.68,3.13,1.8,4.18c-2.11,0.83-3.3,2.61-3.47,5.3
			c0.22,3.42,2.17,5.4,5.71,5.73h1.82c-0.83,0.97-1.28,2.2-1.35,3.68c0,0.89,0.18,1.7,0.54,2.44c-4.02-0.51-7.56-2.21-10.51-5.04
			c-3.14-3.46-4.68-7.6-4.59-12.38c-0.33-4.86,0.96-9.23,3.78-12.91c2.2-2.34,4.76-4.22,7.62-5.61c2.92-1.41,5.97-2.63,9.07-3.63
			c0.07-0.02,0.12-0.06,0.18-0.11c0.17,0,0.33-0.05,0.46-0.14c0.02-0.01,0.09-0.06,0.43-0.14l9.58-3.7l1.56-0.57
			c0.57-0.17,1.11-0.26,1.6-0.26c1.52,0,2.67,0.85,3.47,2.44c0.63,2.34-0.09,3.95-2.19,5.05l-1.31,0.51
			c-0.38,0.15-0.59,0.54-0.52,0.94c0.08,0.4,0.42,0.68,0.82,0.68l24.55,0c2.48,0.17,3.83,1.41,4.23,3.9
			C67.23,31.95,65.88,33.19,63.46,33.39z"/>
	</g>
	<path d="M109.06,29.95c0,4.31-4.98,7.45-9.49,4c-3.42-4.52-0.28-9.47,4.02-9.47C106.6,24.48,109.06,26.93,109.06,29.95"/>
</g>
</svg>
