<?xml version="1.0" encoding="utf-8"?>
<!-- Generator: Adobe Illustrator 28.1.0, SVG Export Plug-In . SVG Version: 6.00 Build 0)  -->
<svg version="1.1" id="Layer_1" xmlns="http://www.w3.org/2000/svg" xmlns:xlink="http://www.w3.org/1999/xlink" x="0px" y="0px"
	 viewBox="0 0 110.6 76.5" style="enable-background:new 0 0 110.6 76.5;" xml:space="preserve">
<style type="text/css">
	.st0{display:none;}
	.st1{display:inline;fill:none;}
	.st2{fill:#231F20;}
</style>
<g id="Layer_2_00000073722119373351752270000017113015111246931634_" class="st0">
	<line class="st1" x1="-24.1" y1="74.5" x2="142.1" y2="74.5"/>
	<line class="st1" x1="-24.1" y1="2" x2="142.1" y2="2"/>
</g>
<g>
	<polygon class="st2" points="14.4,21.3 16.2,21.3 16.2,11.5 18.6,11.5 18.6,10.1 16.2,10.1 16.2,3.5 14.4,3.5 14.4,10.1 12.2,10.1 
		12.2,11.5 14.4,11.5 	"/>
	<path class="st2" d="M23.3,16.2c0-2.6,1.5-4.7,3.3-4.7c1.5,0,2.1,0.8,2.1,2.4v7.4h1.9v-7.2c0-3.3-1.5-4.3-3.8-4.3
		c-1.4,0-2.6,0.6-3.6,2V3.4h-1.7v17.9h1.8V16.2z"/>
	<path class="st2" d="M38.5,22c1.3,0,2.3-0.3,3.5-1l0.2-0.1v-2.8l-0.7,0.5c-1,0.7-1.9,1-2.8,1c-1.3,0-2.3-0.9-2.5-2.4
		c0.2,0,0.3,0,0.4,0h0.3c3.8,0,6.1-1.6,6.1-4.2c0-2.2-1.6-3.7-4.1-3.7c-3.3,0-5.5,2.8-5.5,6.8C33.4,19.7,35.4,22,38.5,22z
		 M38.9,11.8c0.9-0.1,1.4,0.5,1.4,1.2c0,1.1-1.4,1.9-3.4,1.9h-0.3c-0.2,0-0.3,0-0.5,0C36.4,13.3,37.5,11.8,38.9,11.8z"/>
	<path class="st2" d="M45.1,15.5v1.6c0,3.2,1.3,4.8,3.9,4.8c1.2,0,2.1-0.4,3-1.2v1.1c0,4.5-1.6,5.1-2.9,5.1c-0.9,0-2.2-0.5-3-1.2
		l-0.5-0.4l-0.7,2.3l0.2,0.2c0.9,0.8,2.6,1.4,4,1.4c3.6,0,5.4-2.4,5.4-7.4V9.6h-2.6v5c0,3-1.1,4.8-2.8,4.8c-0.7,0-1.5-0.2-1.5-2.3
		v-1.4c0-2.2,0-4.1-0.3-5.8l-0.1-0.3h-2.6l0.1,0.5C45.1,11.8,45.1,13,45.1,15.5z"/>
	<path class="st2" d="M69.4,21.6c1.4,0,2.9-0.7,3.8-2.1l0.2,1.8H75c0,0-0.2-1.3-0.2-2.7v-8.2c-1.3-0.5-2.3-0.6-3.6-0.6
		c-3.6,0-6,2.5-6,6.4C65.2,19.7,67,21.6,69.4,21.6z M71.1,11.5c0.6,0,1.3,0,2,0.3V15c0,2.9-1.5,4.8-3.5,4.8c-1.6,0-2.5-1.2-2.5-3.4
		C67.1,13.3,68.6,11.5,71.1,11.5z"/>
	<path class="st2" d="M78.5,21.3h1.7v-4.4c0-3.2,1.4-5.3,3.4-5.3c0.3,0,0.5,0,1,0.1l0.1-1.6c-0.5-0.2-0.7-0.3-1.3-0.3
		c-1.5,0-2.5,0.8-3.3,2.7c0-1.3-0.1-1.7-0.3-2.5h-1.7c0.3,1.3,0.4,2.1,0.4,3.7V21.3z"/>
	<path class="st2" d="M90.8,21.6c1.2,0,2.2-0.3,3.2-1v-1.8c-1.1,0.7-2.1,1.1-3.1,1.1c-1.7,0-2.8-1.2-3-3.2c0.6,0.1,0.8,0,1.2,0
		c3.6,0,5.7-1.4,5.7-3.8c0-2-1.4-3.2-3.7-3.2c-3,0-5.1,2.6-5.1,6.4C86.1,19.5,87.9,21.6,90.8,21.6z M91.2,11.3
		c1.1,0,1.8,0.8,1.8,1.7c0,1.4-1.5,2.3-3.8,2.3c-0.4,0-0.7,0-1.2,0C88.1,13.2,89.5,11.3,91.2,11.3z"/>
	<polygon class="st2" points="24.9,63.1 24.9,53.4 27.4,53.4 27.4,51.9 24.9,51.9 24.9,45.3 23.1,45.3 23.1,51.9 20.9,51.9 
		20.9,53.4 23.1,53.4 23.1,63.1 	"/>
	<path class="st2" d="M35.6,51.7c-1.4,0-2.6,0.6-3.5,2v-8.3h-1.7v17.9h1.8V58c0-2.6,1.5-4.7,3.3-4.7c1.5,0,2.2,0.8,2.2,2.4v7.4h1.7
		V56C39.4,52.7,37.9,51.7,35.6,51.7z"/>
	<path class="st2" d="M45.7,59.1c3.8,0,6.1-1.6,6.1-4.2c0-2.2-1.6-3.7-4.1-3.7c-3.3,0-5.5,2.8-5.5,6.8c0,3.6,2,5.9,5.2,5.9
		c1.3,0,2.3-0.3,3.5-1l0.2-0.1V60l-0.7,0.5c-1,0.7-1.9,1-2.8,1c-1.3,0-2.3-0.9-2.5-2.4c0.2,0,0.3,0,0.4,0H45.7z M44.9,56.7
		c0.3-1.6,1.4-3.1,2.8-3.1c0.4,0,0.7,0.1,1,0.4c0.2,0.2,0.4,0.5,0.3,0.9c0.1,1-1.3,1.8-3.3,1.8h-0.3C45.2,56.7,45.1,56.7,44.9,56.7z
		"/>
	<path class="st2" d="M60.7,56.5c0,3-1.1,4.8-2.8,4.8c-0.7,0-1.5-0.2-1.5-2.3v-1.4c0-2.2,0-4.1-0.3-5.8L56,51.5h-2.6l0.2,0.5
		c0.3,1.7,0.3,2.9,0.3,5.4V59c0,3.2,1.3,4.8,3.9,4.8c1.2,0,2.2-0.4,3-1.2v1.1c0,4.5-1.6,5.1-2.9,5.1c-0.9,0-2.2-0.5-3-1.2l-0.5-0.4
		l-0.7,2.3l0.2,0.2c0.9,0.8,2.6,1.4,4,1.4c3.6,0,5.4-2.4,5.4-7.4V51.5h-2.6V56.5z"/>
	<path class="st2" d="M65.7,45.3c-0.5,0-1,0.4-1,0.9c0,0.8,1.2,1.4,1.2,2.6c0,0.9-0.4,1.6-1.4,2.8l0.6,0.8c1.6-1.4,2.3-2.8,2.3-4.4
		C67.5,46.5,66.7,45.3,65.7,45.3z"/>
	<path class="st2" d="M72.4,54.4c0-1.3-0.1-1.7-0.3-2.5h-1.7c0.3,1.3,0.4,2.1,0.4,3.7v7.5h1.7v-4.4c0-3.2,1.4-5.3,3.4-5.3
		c0.3,0,0.5,0,1,0.2L77,52c-0.5-0.2-0.7-0.3-1.3-0.3C74.2,51.7,73.2,52.5,72.4,54.4z"/>
	<path class="st2" d="M83.5,51.6c-3,0-5.1,2.6-5.1,6.4c0,3.4,1.8,5.4,4.7,5.4c1.2,0,2.2-0.3,3.2-1v-1.8c-1.1,0.7-2.1,1.1-3.1,1.1
		c-1.7,0-2.8-1.2-3-3.2c0.6,0.2,0.8,0.1,1.3,0.1c3.6,0,5.7-1.4,5.7-3.8C87.2,52.8,85.8,51.6,83.5,51.6z M81.5,57.1
		c-0.4,0-0.7,0-1.2,0c0.1-2,1.5-4,3.2-4c1.1,0,1.8,0.8,1.8,1.7C85.3,56.2,83.8,57.1,81.5,57.1z"/>
	<path class="st2" d="M70,41.6c-0.1-0.1-0.2-0.3-0.4-0.5l-2,0.7L70.5,23c0-0.3-0.1-0.5-0.4-0.6c-0.3,0-0.5,0.1-0.6,0.4l-2.9,18.7
		c-0.5-0.5-1.1-1.2-1.3-1.4l-0.6,0.5c0.6,1.1,1.3,2.3,2,3.6C68,43.3,69,42.4,70,41.6z"/>
	<path class="st2" d="M94.3,30.8H78.9c-0.3,0-0.5,0.2-0.5,0.5s0.2,0.5,0.5,0.5h15.5c0.3,0,0.5-0.2,0.5-0.5
		C94.8,31.1,94.6,30.8,94.3,30.8z"/>
	<path class="st2" d="M84.5,72.1H69c-0.3,0-0.5,0.2-0.5,0.5c0,0.3,0.2,0.5,0.5,0.5h15.5c0.3,0,0.5-0.2,0.5-0.5
		C85,72.3,84.8,72.1,84.5,72.1z"/>
	<path class="st2" d="M89.4,35.6h-4.7c0.4-0.5,1.1-1.5,1.3-1.7l-0.5-0.5c-1,0.8-2,1.6-3.3,2.5c1.2,1,2.2,1.9,3.2,2.8
		c0.1-0.1,0.3-0.3,0.4-0.4l-0.9-1.7h4.5c0.3,0,0.5-0.2,0.5-0.5C89.9,35.8,89.7,35.6,89.4,35.6z"/>
	<path class="st2" d="M28.9,36.1c0,0.3,0.2,0.5,0.5,0.5h5.2h0.1c-0.3,0.6-0.8,1.5-1,1.7l0.6,0.5c0.9-0.9,1.8-1.8,2.9-3
		c-1.3-0.9-2.4-1.6-3.5-2.3c-0.1,0.2-0.2,0.3-0.3,0.5l1.2,1.7h-5.2v-0.1C29.1,35.6,28.9,35.8,28.9,36.1z"/>
	<path class="st2" d="M56,31.3c0-0.3-0.2-0.5-0.5-0.5H13.6c-0.3,0-0.5,0.2-0.5,0.5s0.2,0.5,0.5,0.5h41.8C55.8,31.8,56,31.6,56,31.3z
		"/>
	<path class="st2" d="M62.8,72.1H21c-0.3,0-0.5,0.2-0.5,0.5c0,0.3,0.2,0.5,0.5,0.5h41.8c0.3,0,0.5-0.2,0.5-0.5
		C63.3,72.3,63.1,72.1,62.8,72.1z"/>
</g>
</svg>
