<?xml version="1.0" encoding="utf-8"?>
<!-- Generator: Adobe Illustrator 28.1.0, SVG Export Plug-In . SVG Version: 6.00 Build 0)  -->
<svg version="1.1" id="Layer_1" xmlns="http://www.w3.org/2000/svg" xmlns:xlink="http://www.w3.org/1999/xlink" x="0px" y="0px"
	 viewBox="0 0 110.55 76.54" style="enable-background:new 0 0 110.55 76.54;" xml:space="preserve">
<style type="text/css">
	.st0{display:none;}
	.st1{display:inline;fill:none;}
</style>
<g id="Layer_2_00000073722119373351752270000017113015111246931634_" class="st0">
	<line class="st1" x1="-24.13" y1="74.54" x2="142.13" y2="74.54"/>
	<line class="st1" x1="-24.13" y1="2" x2="142.13" y2="2"/>
</g>
<g>
	<g>
		<path d="M84.6,74.01H32.34c-0.5,0-0.9-0.4-0.9-0.9V57.8c0-2.48,2.02-4.5,4.5-4.5h1.8V38.88c0-2.48,2.02-4.5,4.5-4.5h24.33
			c0.5,0,0.9,0.4,0.9,0.9c0,0.5-0.4,0.9-0.9,0.9H42.25c-1.49,0-2.7,1.21-2.7,2.7v15.32c0,0.5-0.4,0.9-0.9,0.9h-2.7
			c-1.49,0-2.7,1.21-2.7,2.7v14.42H83.7V57.8c0-1.49-1.21-2.7-2.7-2.7H44.05c-0.5,0-0.9-0.4-0.9-0.9s0.4-0.9,0.9-0.9h36.94
			c2.48,0,4.5,2.02,4.5,4.5v15.32C85.5,73.61,85.1,74.01,84.6,74.01z"/>
		<path d="M78.29,55.09c-0.5,0-0.9-0.4-0.9-0.9V38.88c0-1.49-1.21-2.7-2.7-2.7h-2.7c-0.5,0-0.9-0.4-0.9-0.9c0-0.5,0.4-0.9,0.9-0.9
			h2.7c2.48,0,4.5,2.02,4.5,4.5v15.32C79.19,54.69,78.79,55.09,78.29,55.09z"/>
		<path d="M44.95,36.17c-0.5,0-0.9-0.4-0.9-0.9V24.46c0-2.48,2.02-4.5,4.5-4.5h19.82c2.48,0,4.5,2.02,4.5,4.5v7.21
			c0,0.5-0.4,0.9-0.9,0.9s-0.9-0.4-0.9-0.9v-7.21c0-1.49-1.21-2.7-2.7-2.7H48.56c-1.49,0-2.7,1.21-2.7,2.7v10.81
			C45.85,35.77,45.45,36.17,44.95,36.17z"/>
		<path d="M79.19,67.71H32.34c-0.5,0-0.9-0.4-0.9-0.9c0-0.5,0.4-0.9,0.9-0.9h46.85c0.5,0,0.9,0.4,0.9,0.9
			C80.09,67.3,79.69,67.71,79.19,67.71z"/>
		<path d="M84.6,60.5H37.75c-0.5,0-0.9-0.4-0.9-0.9s0.4-0.9,0.9-0.9H84.6c0.5,0,0.9,0.4,0.9,0.9S85.1,60.5,84.6,60.5z"/>
		<path d="M72.88,48.79H38.65c-0.5,0-0.9-0.4-0.9-0.9s0.4-0.9,0.9-0.9h34.24c0.5,0,0.9,0.4,0.9,0.9S73.38,48.79,72.88,48.79z"/>
		<path d="M78.29,41.58H44.05c-0.5,0-0.9-0.4-0.9-0.9s0.4-0.9,0.9-0.9h34.24c0.5,0,0.9,0.4,0.9,0.9S78.79,41.58,78.29,41.58z"/>
		<g>
			<path d="M36.84,64.1c-0.23,0-0.47-0.1-0.64-0.26c-0.16-0.17-0.26-0.4-0.26-0.64c0-0.23,0.1-0.47,0.26-0.64
				c0.34-0.33,0.94-0.33,1.28,0c0.16,0.17,0.26,0.41,0.26,0.64c0,0.24-0.1,0.47-0.26,0.64C37.31,64.01,37.08,64.1,36.84,64.1z"/>
			<path d="M40.45,64.1c-0.23,0-0.47-0.1-0.64-0.26c-0.16-0.17-0.26-0.41-0.26-0.64c0-0.23,0.1-0.47,0.26-0.64
				c0.33-0.33,0.94-0.33,1.28,0c0.17,0.17,0.26,0.41,0.26,0.64c0,0.23-0.1,0.47-0.26,0.64C40.92,64.01,40.68,64.1,40.45,64.1z"/>
			<path d="M44.05,64.1c-0.23,0-0.47-0.1-0.64-0.26c-0.16-0.17-0.26-0.4-0.26-0.64c0-0.23,0.1-0.47,0.26-0.64
				c0.34-0.33,0.94-0.33,1.28,0c0.17,0.17,0.26,0.41,0.26,0.64c0,0.23-0.09,0.47-0.26,0.64C44.52,64.01,44.29,64.1,44.05,64.1z"/>
			<path d="M47.66,64.1c-0.23,0-0.47-0.1-0.64-0.26c-0.16-0.17-0.26-0.41-0.26-0.64c0-0.23,0.1-0.47,0.26-0.64
				c0.34-0.33,0.95-0.33,1.28,0c0.16,0.17,0.26,0.41,0.26,0.64c0,0.23-0.1,0.47-0.26,0.64C48.13,64.01,47.89,64.1,47.66,64.1z"/>
			<path d="M51.26,64.1c-0.23,0-0.47-0.1-0.64-0.26c-0.16-0.17-0.26-0.41-0.26-0.64c0-0.23,0.1-0.47,0.27-0.64
				c0.32-0.33,0.93-0.33,1.27,0c0.16,0.17,0.26,0.41,0.26,0.64c0,0.23-0.1,0.47-0.26,0.64C51.73,64.01,51.49,64.1,51.26,64.1z"/>
			<path d="M54.86,64.1c-0.23,0-0.47-0.1-0.64-0.26c-0.16-0.17-0.26-0.4-0.26-0.64c0-0.24,0.1-0.47,0.27-0.64
				c0.32-0.32,0.93-0.33,1.27,0c0.16,0.17,0.26,0.41,0.26,0.64c0,0.23-0.1,0.47-0.26,0.64C55.33,64.01,55.1,64.1,54.86,64.1z"/>
			<path d="M58.47,64.1c-0.23,0-0.47-0.1-0.64-0.27c-0.16-0.16-0.26-0.39-0.26-0.63c0-0.23,0.1-0.47,0.26-0.64
				c0.34-0.33,0.94-0.33,1.28,0c0.17,0.17,0.26,0.41,0.26,0.64c0,0.23-0.09,0.47-0.26,0.64C58.94,64.01,58.7,64.1,58.47,64.1z"/>
			<path d="M62.07,64.1c-0.24,0-0.47-0.1-0.64-0.26c-0.16-0.17-0.26-0.41-0.26-0.64c0-0.23,0.1-0.47,0.26-0.64
				c0.33-0.33,0.94-0.33,1.28,0c0.17,0.17,0.26,0.41,0.26,0.64c0,0.23-0.1,0.47-0.26,0.64C62.54,64.01,62.32,64.1,62.07,64.1z"/>
			<path d="M65.68,64.1c-0.23,0-0.47-0.1-0.64-0.26c-0.16-0.17-0.26-0.41-0.26-0.64c0-0.23,0.1-0.47,0.26-0.64
				c0.34-0.33,0.94-0.33,1.28,0c0.16,0.17,0.26,0.41,0.26,0.64c0,0.23-0.1,0.47-0.26,0.64C66.14,64.01,65.92,64.1,65.68,64.1z"/>
			<path d="M69.28,64.1c-0.24,0-0.47-0.1-0.64-0.27c-0.16-0.16-0.26-0.39-0.26-0.63c0-0.23,0.1-0.47,0.26-0.64
				c0.33-0.33,0.94-0.33,1.28,0c0.17,0.17,0.26,0.41,0.26,0.64c0,0.23-0.09,0.47-0.26,0.64C69.75,64.01,69.51,64.1,69.28,64.1z"/>
			<path d="M72.88,64.1c-0.24,0-0.47-0.1-0.64-0.27c-0.16-0.16-0.26-0.39-0.26-0.63c0-0.24,0.1-0.47,0.27-0.64
				c0.32-0.33,0.94-0.33,1.27,0c0.16,0.17,0.26,0.41,0.26,0.64c0,0.23-0.1,0.47-0.26,0.64C73.36,64.01,73.13,64.1,72.88,64.1z"/>
			<path d="M76.49,64.1c-0.24,0-0.47-0.1-0.64-0.27c-0.16-0.16-0.26-0.39-0.26-0.63c0-0.23,0.1-0.47,0.26-0.64
				c0.34-0.33,0.95-0.33,1.28,0c0.16,0.17,0.26,0.41,0.26,0.64c0,0.23-0.1,0.47-0.26,0.64C76.96,64.01,76.73,64.1,76.49,64.1z"/>
			<path d="M80.09,64.1c-0.23,0-0.47-0.1-0.64-0.26c-0.16-0.17-0.26-0.41-0.26-0.64c0-0.23,0.1-0.47,0.26-0.64
				c0.33-0.33,0.94-0.33,1.28,0c0.17,0.17,0.26,0.41,0.26,0.64c0,0.23-0.09,0.47-0.26,0.64C80.56,64.01,80.33,64.1,80.09,64.1z"/>
		</g>
		<path d="M47.66,32.57c-1.99,0-3.6-1.62-3.6-3.6s1.62-3.6,3.6-3.6c1.99,0,3.6,1.62,3.6,3.6S49.64,32.57,47.66,32.57z M47.66,27.16
			c-0.99,0-1.8,0.81-1.8,1.8s0.81,1.8,1.8,1.8c0.99,0,1.8-0.81,1.8-1.8S48.65,27.16,47.66,27.16z"/>
		<path d="M53.06,32.57c-1.99,0-3.6-1.62-3.6-3.6s1.62-3.6,3.6-3.6s3.6,1.62,3.6,3.6S55.05,32.57,53.06,32.57z M53.06,27.16
			c-0.99,0-1.8,0.81-1.8,1.8s0.81,1.8,1.8,1.8s1.8-0.81,1.8-1.8S54.06,27.16,53.06,27.16z"/>
		<path d="M58.47,32.57c-1.99,0-3.6-1.62-3.6-3.6s1.62-3.6,3.6-3.6s3.6,1.62,3.6,3.6S60.46,32.57,58.47,32.57z M58.47,27.16
			c-0.99,0-1.8,0.81-1.8,1.8s0.81,1.8,1.8,1.8c0.99,0,1.8-0.81,1.8-1.8S59.46,27.16,58.47,27.16z"/>
		<path d="M63.87,32.57c-1.99,0-3.6-1.62-3.6-3.6s1.62-3.6,3.6-3.6c1.99,0,3.6,1.62,3.6,3.6S65.86,32.57,63.87,32.57z M63.87,27.16
			c-0.99,0-1.8,0.81-1.8,1.8s0.81,1.8,1.8,1.8c0.99,0,1.8-0.81,1.8-1.8S64.87,27.16,63.87,27.16z"/>
		<path d="M69.28,32.57c-1.99,0-3.6-1.62-3.6-3.6s1.62-3.6,3.6-3.6s3.6,1.62,3.6,3.6S71.27,32.57,69.28,32.57z M69.28,27.16
			c-0.99,0-1.8,0.81-1.8,1.8s0.81,1.8,1.8,1.8c0.99,0,1.8-0.81,1.8-1.8S70.27,27.16,69.28,27.16z"/>
		<path d="M43.15,45.18h-0.9c-0.5,0-0.9-0.4-0.9-0.9s0.4-0.9,0.9-0.9h0.9c0.5,0,0.9,0.4,0.9,0.9S43.65,45.18,43.15,45.18z"/>
		<path d="M47.66,45.18h-0.9c-0.5,0-0.9-0.4-0.9-0.9s0.4-0.9,0.9-0.9h0.9c0.5,0,0.9,0.4,0.9,0.9S48.15,45.18,47.66,45.18z"/>
		<path d="M52.16,45.18h-0.9c-0.5,0-0.9-0.4-0.9-0.9s0.4-0.9,0.9-0.9h0.9c0.5,0,0.9,0.4,0.9,0.9S52.66,45.18,52.16,45.18z"/>
		<path d="M56.67,45.18h-0.9c-0.5,0-0.9-0.4-0.9-0.9s0.4-0.9,0.9-0.9h0.9c0.5,0,0.9,0.4,0.9,0.9S57.16,45.18,56.67,45.18z"/>
		<path d="M61.17,45.18h-0.9c-0.5,0-0.9-0.4-0.9-0.9s0.4-0.9,0.9-0.9h0.9c0.5,0,0.9,0.4,0.9,0.9S61.67,45.18,61.17,45.18z"/>
		<path d="M65.68,45.18h-0.9c-0.5,0-0.9-0.4-0.9-0.9s0.4-0.9,0.9-0.9h0.9c0.5,0,0.9,0.4,0.9,0.9S66.17,45.18,65.68,45.18z"/>
		<path d="M70.18,45.18h-0.9c-0.5,0-0.9-0.4-0.9-0.9s0.4-0.9,0.9-0.9h0.9c0.5,0,0.9,0.4,0.9,0.9S70.68,45.18,70.18,45.18z"/>
		<path d="M74.69,45.18h-0.9c-0.5,0-0.9-0.4-0.9-0.9s0.4-0.9,0.9-0.9h0.9c0.5,0,0.9,0.4,0.9,0.9S75.18,45.18,74.69,45.18z"/>
	</g>
	<g transform="translate(0,-288.53332)">
		<path d="M25.64,322.96l11.33-2.01l-5.1-10.32l-1.95,3.85l-11.98-6.06l-2.34,4.62l11.98,6.06L25.64,322.96z"/>
	</g>
	<g transform="translate(0,-288.53332)">
		<path d="M17.95,341.34l11.33-2.01l-5.1-10.32l-1.95,3.85l-11.98-6.06l-2.34,4.62l11.98,6.06L17.95,341.34z"/>
	</g>
	<g transform="translate(0,-288.53332)">
		<path d="M35.29,305.59l11.33-2.01l-5.1-10.32l-1.95,3.85l-11.98-6.06l-2.34,4.62l11.98,6.06L35.29,305.59z"/>
	</g>
</g>
</svg>
