<?xml version="1.0" encoding="utf-8"?>
<!-- Generator: Adobe Illustrator 28.1.0, SVG Export Plug-In . SVG Version: 6.00 Build 0)  -->
<svg version="1.1" id="Layer_1" xmlns="http://www.w3.org/2000/svg" xmlns:xlink="http://www.w3.org/1999/xlink" x="0px" y="0px"
	 viewBox="0 0 110.55 76.54" style="enable-background:new 0 0 110.55 76.54;" xml:space="preserve">
<style type="text/css">
	.st0{display:none;}
	.st1{display:inline;fill:none;}
	.st2{fill:none;}
</style>
<g id="Layer_2_00000073722119373351752270000017113015111246931634_" class="st0">
	<line class="st1" x1="-24.13" y1="74.54" x2="142.13" y2="74.54"/>
	<line class="st1" x1="-24.13" y1="2" x2="142.13" y2="2"/>
</g>
<g>
	<g>
		<path class="st2" d="M52.99,14.62c4.13-1.63,5.85-3.41,5.87-3.89c-0.33-0.33-2.95-0.8-7.08,0.83c-4.19,1.66-5.76,3.82-5.73,4.26
			C46.32,16.14,48.8,16.28,52.99,14.62z"/>
		<path class="st2" d="M53.62,16.2c7.29-2.88,11.26-6.46,10.79-7.65c-0.47-1.19-5.96-1.47-13.26,1.42s-11.11,6.84-10.63,8.04
			C40.99,19.2,46.33,19.09,53.62,16.2z M51.36,10.82c2.87-1.14,8-2.71,8.83-0.61c0.83,2.1-3.81,4.59-6.68,5.72
			c-2.87,1.14-7.95,2.5-8.79,0.39C43.89,14.23,48.49,11.96,51.36,10.82z"/>
		<path class="st2" d="M34.61,49.07v17.83c0,2.06,7.28,4.92,19.13,4.92s19.13-2.87,19.13-4.92V49.07c-3.21,2.55-11.36,3.9-19.13,3.9
			S37.81,51.63,34.61,49.07z"/>
		<path class="st2" d="M34.61,40.64v1.77c0,2.06,7.28,4.92,19.13,4.92s19.13-2.87,19.13-4.92v-1.77c-3.21,2.55-11.36,3.9-19.13,3.9
			S37.81,43.2,34.61,40.64z"/>
		<path class="st2" d="M34.61,44.86v1.77c0,2.06,7.28,4.92,19.13,4.92s19.13-2.87,19.13-4.92v-1.77c-3.21,2.55-11.36,3.9-19.13,3.9
			S37.81,47.41,34.61,44.86z"/>
		<path d="M58.91,15.81c0.04-0.02,0.09-0.04,0.13-0.06c-0.12,0.02-0.25,0.02-0.37,0.04C58.75,15.8,58.83,15.81,58.91,15.81z"/>
		<path d="M54.14,17.52c6.59-2.61,12.69-6.71,11.59-9.49c-1.1-2.78-8.29-1.44-14.88,1.17s-12.75,6.55-11.65,9.33
			C40.3,21.31,47.55,20.13,54.14,17.52z M51.15,9.97c7.3-2.89,12.79-2.61,13.26-1.42c0.47,1.19-3.5,4.77-10.79,7.65
			c-7.29,2.88-12.63,3-13.1,1.81C40.04,16.81,43.85,12.86,51.15,9.97z"/>
		<g>
			<path class="st2" d="M34.61,49.07v17.83c0,2.06,7.28,4.92,19.13,4.92s19.13-2.87,19.13-4.92V49.07
				c-3.21,2.55-11.36,3.9-19.13,3.9S37.81,51.63,34.61,49.07z"/>
			<path class="st2" d="M34.61,44.86v1.77c0,2.06,7.28,4.92,19.13,4.92s19.13-2.87,19.13-4.92v-1.77c-3.21,2.55-11.36,3.9-19.13,3.9
				S37.81,47.41,34.61,44.86z"/>
			<path class="st2" d="M34.61,40.64v1.77c0,2.06,7.28,4.92,19.13,4.92s19.13-2.87,19.13-4.92v-1.77c-3.21,2.55-11.36,3.9-19.13,3.9
				S37.81,43.2,34.61,40.64z"/>
			<g>
				<path class="st2" d="M34.61,49.07v17.83c0,2.06,7.28,4.92,19.13,4.92s19.13-2.87,19.13-4.92V49.07
					c-3.21,2.55-11.36,3.9-19.13,3.9S37.81,51.63,34.61,49.07z"/>
				<path class="st2" d="M34.61,44.86v1.77c0,2.06,7.28,4.92,19.13,4.92s19.13-2.87,19.13-4.92v-1.77
					c-3.21,2.55-11.36,3.9-19.13,3.9S37.81,47.41,34.61,44.86z"/>
				<path class="st2" d="M34.61,40.64v1.77c0,2.06,7.28,4.92,19.13,4.92s19.13-2.87,19.13-4.92v-1.77
					c-3.21,2.55-11.36,3.9-19.13,3.9S37.81,43.2,34.61,40.64z"/>
				<g>
					<path class="st2" d="M34.61,49.07v17.83c0,2.06,7.28,4.92,19.13,4.92s19.13-2.87,19.13-4.92V49.07
						c-3.21,2.55-11.36,3.9-19.13,3.9S37.81,51.63,34.61,49.07z"/>
					<path class="st2" d="M45.5,22.08c-0.25,0.06-0.51,0.11-0.76,0.17c-2.12,0.46-4.29,0.82-6.46,0.71
						c-0.3-0.01-0.63-0.03-0.97-0.07c3.12,1.39,8.83,2.57,16.42,2.57c11.85,0,19.13-2.87,19.13-4.92c0-1.56-4.17-3.57-11.32-4.46
						c-2.19,1.17-4.46,2.19-6.74,3.1C51.78,20.37,48.67,21.37,45.5,22.08z"/>
					<path class="st2" d="M34.61,44.86v1.77c0,2.06,7.28,4.92,19.13,4.92s19.13-2.87,19.13-4.92v-1.77
						c-3.21,2.55-11.36,3.9-19.13,3.9S37.81,47.41,34.61,44.86z"/>
					<path class="st2" d="M34.61,40.64v1.77c0,2.06,7.28,4.92,19.13,4.92s19.13-2.87,19.13-4.92v-1.77
						c-3.21,2.55-11.36,3.9-19.13,3.9S37.81,43.2,34.61,40.64z"/>
					<g>
						<path class="st2" d="M34.61,44.86v1.77c0,2.06,7.28,4.92,19.13,4.92s19.13-2.87,19.13-4.92v-1.77
							c-3.21,2.55-11.36,3.9-19.13,3.9S37.81,47.41,34.61,44.86z"/>
						<path class="st2" d="M34.61,49.07v17.83c0,2.06,7.28,4.92,19.13,4.92s19.13-2.87,19.13-4.92V49.07
							c-3.21,2.55-11.36,3.9-19.13,3.9S37.81,51.63,34.61,49.07z"/>
						<path class="st2" d="M34.61,40.64v1.77c0,2.06,7.28,4.92,19.13,4.92s19.13-2.87,19.13-4.92v-1.77
							c-3.21,2.55-11.36,3.9-19.13,3.9S37.81,43.2,34.61,40.64z"/>
						<path class="st2" d="M54.27,17.86c1.68-0.66,3.21-1.35,4.64-2.04c0.04-0.02,0.09-0.04,0.13-0.06
							c7.86-3.85,11.84-7.9,11.21-9.51c-0.76-1.91-8.58-1.9-19.6,2.46c-11.02,4.36-16.73,9.7-15.97,11.62
							C35.43,22.23,43.26,22.22,54.27,17.86z"/>
						<path class="st2" d="M34.61,22.98V38.2c0,2.06,7.28,4.92,19.13,4.92s19.13-2.87,19.13-4.92V22.98
							c-3.21,2.55-11.36,3.9-19.13,3.9S37.81,25.53,34.61,22.98z"/>
						<path class="st2" d="M61.54,16.08c-2.19,1.17-4.46,2.19-6.74,3.1c-3.02,1.19-6.12,2.19-9.29,2.9
							c-0.25,0.06-0.51,0.11-0.76,0.17c-2.12,0.46-4.29,0.82-6.46,0.71c-0.3-0.01-0.63-0.03-0.97-0.07
							c3.12,1.39,8.83,2.57,16.42,2.57c11.85,0,19.13-2.87,19.13-4.92C72.86,18.98,68.69,16.97,61.54,16.08z"/>
						<path d="M63.56,14.94c1.07-0.64,2.11-1.31,3.12-2.03c2.05-1.48,4.78-3.53,5.07-6.26c0.12-1.17-0.92-2.1-1.9-2.5
							c-1.27-0.52-2.71-0.58-4.07-0.55C61.76,3.7,57.74,4.76,53.95,6c-1.29,0.42-2.56,0.88-3.82,1.38
							c-8.82,3.49-17.43,9.07-16.91,12.9c-0.01,0.09-0.03,0.17-0.03,0.26v46.37c0,4.12,10.58,6.34,20.54,6.34
							c9.96,0,20.55-2.22,20.55-6.34V20.54C74.28,17.8,69.61,15.91,63.56,14.94z M50.65,8.7c11.02-4.36,18.84-4.37,19.6-2.46
							c0.64,1.61-3.34,5.67-11.21,9.51c-0.04,0.02-0.09,0.04-0.13,0.06c-1.43,0.69-2.96,1.38-4.64,2.04
							c-11.02,4.36-18.84,4.37-19.6,2.46C33.92,18.4,39.63,13.06,50.65,8.7z M72.86,66.91c0,2.06-7.28,4.92-19.13,4.92
							s-19.13-2.87-19.13-4.92V49.07c3.21,2.55,11.36,3.9,19.13,3.9s15.92-1.35,19.13-3.9V66.91z M72.86,46.63
							c0,2.06-7.28,4.92-19.13,4.92s-19.13-2.87-19.13-4.92v-1.77c3.21,2.55,11.36,3.9,19.13,3.9s15.92-1.35,19.13-3.9V46.63z
							 M72.86,42.42c0,2.06-7.28,4.92-19.13,4.92s-19.13-2.87-19.13-4.92v-1.77c3.21,2.55,11.36,3.9,19.13,3.9s15.92-1.35,19.13-3.9
							V42.42z M72.86,38.2c0,2.06-7.28,4.92-19.13,4.92s-19.13-2.87-19.13-4.92V22.98c3.21,2.55,11.36,3.9,19.13,3.9
							s15.92-1.35,19.13-3.9V38.2z M53.73,25.46c-7.6,0-13.3-1.18-16.42-2.57c0.34,0.03,0.67,0.05,0.97,0.07
							c2.18,0.11,4.34-0.26,6.46-0.71c0.25-0.05,0.51-0.11,0.76-0.17c3.17-0.71,6.27-1.71,9.29-2.9c2.29-0.91,4.56-1.93,6.74-3.1
							c7.15,0.89,11.32,2.91,11.32,4.46C72.86,22.6,65.58,25.46,53.73,25.46z"/>
					</g>
				</g>
			</g>
		</g>
		<path d="M53.51,15.94c2.87-1.14,7.51-3.62,6.68-5.72c-0.83-2.1-5.96-0.53-8.83,0.61c-2.87,1.14-7.46,3.41-6.63,5.51
			C45.56,18.44,50.64,17.07,53.51,15.94z M51.78,11.57c4.13-1.63,6.74-1.16,7.08-0.83c-0.02,0.47-1.74,2.25-5.87,3.89
			c-4.19,1.66-6.67,1.51-6.94,1.21C46.02,15.39,47.59,13.23,51.78,11.57z"/>
	</g>
	<path d="M82.6,33.11c-0.21,0-0.43-0.08-0.59-0.25c-0.3-0.32-0.29-0.83,0.03-1.14l0.02-0.02c5.37-5.39,5.37-14.12,0.02-19.48
		c-0.31-0.31-0.31-0.82,0-1.14c0.31-0.31,0.82-0.31,1.14,0c5.98,5.99,5.98,15.74,0,21.73c-0.01,0.01-0.04,0.05-0.08,0.08
		C83,33.03,82.8,33.11,82.6,33.11z"/>
	<path d="M82.6,33.11c-0.21,0-0.43-0.08-0.59-0.25c-0.3-0.32-0.29-0.83,0.03-1.14l0.02-0.02c5.37-5.39,5.37-14.12,0.02-19.48
		c-0.31-0.31-0.31-0.82,0-1.14c0.31-0.31,0.82-0.31,1.14,0c5.98,5.99,5.98,15.74,0,21.73c-0.01,0.01-0.04,0.05-0.08,0.08
		C83,33.03,82.8,33.11,82.6,33.11z"/>
	<path d="M79.06,29.38c-0.22,0-0.44-0.09-0.6-0.27c-0.29-0.33-0.26-0.83,0.06-1.13c3.32-3.34,3.32-8.74,0.01-12.05
		c-0.31-0.31-0.31-0.82,0-1.14c0.31-0.31,0.82-0.31,1.14,0c3.94,3.95,3.94,10.37,0,14.31l-0.08,0.07
		C79.44,29.32,79.25,29.38,79.06,29.38z"/>
	<path d="M86.54,36.36c-0.22,0-0.43-0.09-0.59-0.26c-0.3-0.33-0.28-0.84,0.05-1.14l0.03-0.03c7.16-7.18,7.16-18.82,0.02-25.98
		c-0.31-0.31-0.31-0.82,0-1.14c0.31-0.31,0.82-0.31,1.14,0c7.76,7.78,7.76,20.44,0,28.22c-0.02,0.02-0.06,0.06-0.1,0.1
		C86.93,36.29,86.74,36.36,86.54,36.36z"/>
</g>
</svg>
