<?xml version="1.0" encoding="utf-8"?>
<!-- Generator: Adobe Illustrator 28.1.0, SVG Export Plug-In . SVG Version: 6.00 Build 0)  -->
<svg version="1.1" id="Layer_1" xmlns="http://www.w3.org/2000/svg" xmlns:xlink="http://www.w3.org/1999/xlink" x="0px" y="0px"
	 viewBox="0 0 110.55 76.54" style="enable-background:new 0 0 110.55 76.54;" xml:space="preserve">
<style type="text/css">
	.st0{display:none;}
	.st1{display:inline;fill:none;}
</style>
<g id="Layer_2_00000073722119373351752270000017113015111246931634_" class="st0">
	<line class="st1" x1="-24.13" y1="74.54" x2="142.13" y2="74.54"/>
	<line class="st1" x1="-24.13" y1="2" x2="142.13" y2="2"/>
</g>
<path d="M103.27,55.8C89.8,47.39,77.51,40.85,77.38,40.77c-0.07-0.03-0.14-0.06-0.2-0.09c-0.81-0.25-2.56-1.63-5.18-8.11
	c-1.82-4.53-3.52-10.14-4.89-14.66c-1.05-3.49-1.97-6.51-2.67-8.14c-1.47-3.42-4.09-4.75-6.03-5.26c-1.86-0.49-3.45-0.33-3.8-0.29
	c-0.88,0.04-14.05,0.76-18.94,1.13c-3.19,0.24-5.28,0.45-7.31,0.64c-1.54,0.14-3.14,0.3-5.22,0.46c-3.36,0.26-5.61,1.24-7.98,2.25
	c-1.17,0.5-2.39,1.02-3.79,1.48c-2.05,0.67-3.36,1.63-3.87,2.84c-0.37,0.89-0.22,1.73,0,2.21c0.01,0.02,0.01,0.04,0.02,0.06
	c0.67,1.18,1.61,1.94,2.68,2.42c3.45,1.54,8.22,0.08,9.53-0.38c4.31,0.91,10.29-0.77,11.88-1.25c0.24,0.09,0.46,0.17,0.69,0.24
	c0.14,1.39,0.58,4.82,1.74,7.38c-1.09-0.36-2.27-0.8-3.46-1.26c-2.04-0.77-4.35-1.64-6.65-2.28c-3.43-0.95-6.31-0.86-8.57,0.27
	c-1.6,0.81-2.86,2.16-3.64,3.89c-0.4,0.89-0.82,1.82-0.35,2.75c0.6,1.23,2.19,1.66,7.11,2.82l0.07,0.02
	c3.14,0.74,5.09,1.78,7.14,2.87c1.69,0.9,3.45,1.83,5.89,2.6c1.83,0.58,3.93,2.21,11.73,8.3c1.01,0.79,2.11,1.64,3.31,2.58
	c4.2,3.27,6.51,4.13,8.05,4.71c0.76,0.29,1.27,0.47,1.73,0.84C74.82,66.3,85.29,71.29,87.22,72.15c0.18,0.08,0.27,0.12,0.31,0.14
	c0.34,0.14,0.73,0.11,1.03-0.09c9.53-6.15,14.83-14.54,15.05-14.89C103.93,56.81,103.79,56.12,103.27,55.8L103.27,55.8z
	 M37.21,24.43c-0.81-0.59-1.59-2.36-2.13-4.85c-0.21-0.97-0.36-1.91-0.45-2.62c2.31,0.5,4.47,0.56,6.38,0.39
	c-0.04,0.42-0.23,0.92-0.71,1.4c-0.36,0.23-0.68,0.47-0.93,0.7c-0.43,0.38-0.49,1.03-0.15,1.49c0.12,0.17,0.26,0.28,0.44,0.36
	c0.32,0.15,0.7,0.14,1.02-0.06c0.36-0.21,0.67-0.45,0.96-0.69c0.25-0.15,0.53-0.31,0.84-0.43c0.51-0.21,0.92-0.27,1.24-0.24
	c-0.77,0.71-1.49,1.49-2.18,2.23c-0.69,0.75-1.33,1.45-1.97,2.02c-0.31,0.28-0.75,0.41-1.29,0.45c-0.05,0.01-0.11,0-0.17,0.01
	c-0.05,0-0.09,0.01-0.14,0.02c-0.22,0.05-0.4,0.03-0.59-0.07C37.32,24.5,37.27,24.48,37.21,24.43L37.21,24.43z M43.22,17.55
	c0.01,0.04,0.03,0.08,0.03,0.11c-0.01-0.01-0.03,0-0.05,0.01C43.21,17.63,43.22,17.6,43.22,17.55z M18.46,27.61
	c-2.12-0.51-4.51-1.09-5.04-1.49c0.05-0.22,0.24-0.64,0.35-0.88c0.05-0.11,0.1-0.22,0.16-0.32c2.82-1.37,5.05-0.48,6.05,0.11
	C19.21,26.07,18.75,26.96,18.46,27.61L18.46,27.61z M87.86,70.03c-1.01-0.47-3.47-1.68-7.27-3.95c-4.7-2.8-12.47-7.87-22.81-16
	c-0.42-0.33-0.85-0.57-1.29-0.77c-0.34-0.15-0.67-0.27-1.03-0.41c-1.49-0.55-3.54-1.33-7.47-4.38c-1.2-0.94-2.3-1.79-3.29-2.58
	c-8.25-6.43-10.21-7.97-12.43-8.66c-2.26-0.72-3.85-1.56-5.52-2.45c-1.91-1.02-3.88-2.06-6.8-2.85c0.31-0.66,0.83-1.59,1.68-2.64
	c0.25-0.31,0.21-0.76-0.09-1.03c-0.12-0.1-2.41-2.02-5.77-1.51c1.52-1.04,3.89-1.52,7.6-0.49c2.22,0.62,4.38,1.42,6.47,2.21
	c2.68,1.01,5.05,1.9,7.03,2.19l0,0l0,0c0.49,0.07,0.96,0.1,1.41,0.08c1.07-0.04,2-0.34,2.76-1.02c0.73-0.65,1.4-1.39,2.12-2.17
	c1-1.08,2.01-2.17,3.11-2.99c0.03-0.02,0.05-0.03,0.07-0.05c0.96-0.7,2-1.17,3.16-1.22c0.08,0,0.11,0,0.13-0.01
	c0.61-0.02,1.08-0.54,1.08-1.14c-0.02-0.61-0.52-1.09-1.12-1.09c-0.07,0-0.11,0-0.18,0c-1.4,0.04-2.87-0.08-3.66-0.27
	c0.34-0.25,0.93-0.64,2-1.18c0.78-0.32,1.23-0.58,1.31-0.61c0.52-0.29,0.73-0.94,0.46-1.46c-0.27-0.53-0.91-0.76-1.44-0.51
	c-0.4,0.18-0.77,0.35-1.14,0.53c-2.16,0.88-7.37,2.54-13.24,0.79c-0.53-0.16-1.06-0.35-1.61-0.56c-0.25-0.1-0.51-0.1-0.77-0.02
	c-0.07,0.02-7.09,2.31-11.38,1.25c-0.22-0.05-0.45-0.04-0.67,0.04c-0.02,0.01-2.03,0.78-4.32,0.99c-2.72,0.24-4.55-0.38-5.44-1.87
	c-0.02-0.07-0.04-0.21,0.07-0.42c0.13-0.26,0.63-0.94,2.49-1.55c1.5-0.48,2.77-1.03,3.97-1.55c2.29-0.99,4.28-1.85,7.29-2.08
	c2.1-0.16,3.7-0.32,5.26-0.47c2.01-0.19,4.08-0.38,7.26-0.63c5.02-0.37,18.8-1.11,18.94-1.11c0.03,0,0.07,0,0.11-0.02
	c0.22-0.03,5.38-0.74,7.51,4.22c0.65,1.51,1.55,4.47,2.58,7.9c3.75,12.4,7.19,22.77,11.43,24.23c1.09,0.58,12.26,6.57,24.69,14.29
	C99.51,59.34,94.89,65.34,87.86,70.03L87.86,70.03z"/>
</svg>
