<?xml version="1.0" encoding="utf-8"?>
<!-- Generator: Adobe Illustrator 28.1.0, SVG Export Plug-In . SVG Version: 6.00 Build 0)  -->
<svg version="1.1" id="Layer_1" xmlns="http://www.w3.org/2000/svg" xmlns:xlink="http://www.w3.org/1999/xlink" x="0px" y="0px"
	 viewBox="0 0 110.55 76.54" style="enable-background:new 0 0 110.55 76.54;" xml:space="preserve">
<style type="text/css">
	.st0{display:none;}
	.st1{display:inline;fill:none;}
</style>
<g id="Layer_2_00000073722119373351752270000017113015111246931634_" class="st0">
	<line class="st1" x1="-24.13" y1="74.54" x2="142.13" y2="74.54"/>
	<line class="st1" x1="-24.13" y1="2" x2="142.13" y2="2"/>
</g>
<g>
	<path d="M71.34,69.43c-0.69,0-1.28-0.58-1.28-1.28c0-0.7,0.56-1.25,1.28-1.25c0.67,0,1.28,0.58,1.28,1.31
		C72.62,68.9,72.06,69.43,71.34,69.43z"/>
	<path d="M78.34,69.43c-0.69,0-1.28-0.58-1.28-1.28c0-0.7,0.56-1.25,1.28-1.25c0.67,0,1.28,0.58,1.28,1.31
		C79.62,68.9,79.06,69.43,78.34,69.43z"/>
	<path d="M85.34,69.43c-0.69,0-1.28-0.58-1.28-1.28c0-0.7,0.56-1.25,1.28-1.25c0.67,0,1.28,0.58,1.28,1.31
		C86.62,68.9,86.06,69.43,85.34,69.43z"/>
</g>
<g>
	<path d="M58.56,55.02c0,4.33-1.92,7.06-5.56,7.06c-1.5,0-2.61-0.39-4.03-1.42l0.44-1.56c1.25,0.89,2.28,1.22,3.42,1.22
		c2.72,0,3.78-2.44,3.78-5.42v-2.78c-0.86,1.25-2.22,1.92-3.75,1.92c-2.78,0-4.64-2.17-4.64-5.56c0-4.64,2.53-7.2,7-7.2
		c1.42,0,1.97,0.08,3.33,0.5V55.02z M56.62,43.24c-0.69-0.14-0.94-0.19-1.56-0.19c-3,0-4.81,2-4.81,5.42c0,2.39,1.06,3.72,2.81,3.72
		c2.25,0,3.56-1.95,3.56-5.89V43.24z"/>
	<path d="M67.48,54.19c-3.39,0-5.42-2.39-5.42-6.36c0-4.08,2.08-6.64,5.5-6.64c3.36,0,5.42,2.39,5.42,6.31
		C72.98,51.63,70.87,54.19,67.48,54.19z M67.56,42.93c-2.22,0-3.47,1.81-3.47,5.03c0,2.89,1.19,4.47,3.36,4.47
		c2.17,0,3.5-1.92,3.5-5C70.95,44.57,69.73,42.93,67.56,42.93z"/>
	<path d="M77.64,39.07c-0.69,0-1.33-0.5-1.33-1.17c0-0.75,0.5-1.33,1.17-1.33c0.72,0,1.36,0.58,1.36,1.31
		C78.84,38.54,78.28,39.07,77.64,39.07z M78.53,53.8h-1.95V41.57h1.95V53.8z"/>
	<path d="M84.64,53.8H82.7v-8.31c0-1.33-0.25-3.03-0.56-3.92h1.89c0.25,0.64,0.28,0.81,0.44,2.03c1.22-1.7,2.45-2.33,4.03-2.33
		c2.36,0,4.08,1.53,4.08,4.67v7.86h-2.03v-7.81c0-1.83-0.78-2.86-2.2-2.86c-2.11,0-3.72,2.17-3.72,5.42V53.8z"/>
	<path d="M106.45,55.02c0,4.33-1.92,7.06-5.56,7.06c-1.5,0-2.61-0.39-4.03-1.42l0.44-1.56c1.25,0.89,2.28,1.22,3.42,1.22
		c2.72,0,3.78-2.44,3.78-5.42v-2.78c-0.86,1.25-2.22,1.92-3.75,1.92c-2.78,0-4.64-2.17-4.64-5.56c0-4.64,2.53-7.2,7-7.2
		c1.42,0,1.97,0.08,3.33,0.5V55.02z M104.51,43.24c-0.69-0.14-0.94-0.19-1.56-0.19c-3,0-4.81,2-4.81,5.42
		c0,2.39,1.06,3.72,2.81,3.72c2.25,0,3.56-1.95,3.56-5.89V43.24z"/>
</g>
<g>
	<path d="M11.29,57.47c-0.14,0-0.28-0.01-0.42-0.03c-1.62-0.2-2.88-1.54-2.97-3.18c-0.86-15.05,2.36-26.54,9.55-34.16
		c6.75-7.15,15.39-9.23,21.57-9.69V4.48c0-1.21,0.65-2.34,1.7-2.95c1.05-0.61,2.35-0.61,3.4,0l28.63,16.53
		c1.05,0.61,1.7,1.73,1.7,2.95c0,1.21-0.65,2.34-1.7,2.95L44.12,40.49c-1.05,0.61-2.35,0.61-3.4,0c-1.05-0.61-1.7-1.74-1.7-2.95
		v-5.59c-17.62,2.04-24.4,22.92-24.47,23.13C14.1,56.51,12.79,57.47,11.29,57.47z M10.45,53.8c0,0,0,0.01,0,0.01
		C10.45,53.81,10.45,53.81,10.45,53.8z M43.29,6v4.72c0,2.07-1.61,3.8-3.67,3.94c-5.43,0.37-13.15,2.12-19.07,8.39
		c-5.7,6.03-8.55,15.03-8.52,26.8c3.17-6.91,11.33-20.59,26.84-22.19c1.14-0.11,2.28,0.25,3.12,1.01c0.82,0.75,1.3,1.81,1.3,2.92
		v4.43l26-15.01L43.29,6z M70.61,21.77C70.61,21.77,70.61,21.77,70.61,21.77C70.61,21.78,70.61,21.77,70.61,21.77L70.61,21.77z"/>
</g>
</svg>
