<?xml version="1.0" encoding="utf-8"?>
<!-- Generator: Adobe Illustrator 28.1.0, SVG Export Plug-In . SVG Version: 6.00 Build 0)  -->
<svg version="1.1" id="Layer_1" xmlns="http://www.w3.org/2000/svg" xmlns:xlink="http://www.w3.org/1999/xlink" x="0px" y="0px"
	 viewBox="0 0 110.55 76.54" style="enable-background:new 0 0 110.55 76.54;" xml:space="preserve">
<style type="text/css">
	.st0{display:none;}
	.st1{display:inline;fill:none;}
	.st2{fill:#231F20;}
</style>
<g id="Layer_2_00000073722119373351752270000017113015111246931634_" class="st0">
	<line class="st1" x1="-24.13" y1="74.54" x2="142.13" y2="74.54"/>
	<line class="st1" x1="-24.13" y1="2" x2="142.13" y2="2"/>
</g>
<g>
	<path class="st2" d="M95.64,41.09c-0.6,1.79-2.53,2.76-4.32,2.16c-1.79-0.6-2.76-2.53-2.16-4.32c0.59-1.79,2.53-2.76,4.32-2.16
		C95.27,37.37,96.24,39.3,95.64,41.09"/>
	<path class="st2" d="M92.32,45.04c-0.58-0.3-1.21-0.37-1.81-0.27l0-0.01l-6.67,1.59l-6.55-1.05l-0.41,1.97l6.82,1.98
		c0.07,0.01,0.14,0.01,0.21,0.01c0.12,0,0.25-0.01,0.36-0.05l3-0.71l-3.08,5.97c-0.08,0.16-0.15,0.33-0.2,0.5l-5.42,5.73
		c-0.26,0.26-0.43,0.6-0.49,0.96l-1.43,8.37l3.56,0.61l1.33-7.81l3.7-3.92l-0.99,4.76c-0.02,0.11-0.03,0.2-0.02,0.31l-0.15,8.53
		h3.62l0.15-8.45l1.45-6.89c0.01-0.02,0.03-0.03,0.04-0.06l4.22-8.18C94.3,47.51,93.75,45.77,92.32,45.04"/>
	
		<rect x="74.67" y="34.24" transform="matrix(0.1753 -0.9845 0.9845 0.1753 25.4237 110.9464)" class="st2" width="8.54" height="12.11"/>
	
		<rect x="78.24" y="2.72" transform="matrix(0.1752 -0.9845 0.9845 0.1752 59.4186 88.4679)" class="st2" width="8.54" height="12.11"/>
	
		<rect x="77.5" y="23.43" transform="matrix(0.1753 -0.9845 0.9845 0.1753 39.9199 106.6288)" class="st2" width="12.2" height="12.11"/>
	
		<rect x="77.87" y="13.55" transform="matrix(0.1752 -0.9845 0.9845 0.1752 49.7535 95.3685)" class="st2" width="7.85" height="8.89"/>
</g>
<g>
	<path d="M28.56,26.31c-0.69,0-1.28-0.58-1.28-1.28s0.56-1.25,1.28-1.25c0.67,0,1.28,0.58,1.28,1.31
		C29.83,25.78,29.28,26.31,28.56,26.31z"/>
	<path d="M35.56,26.31c-0.69,0-1.28-0.58-1.28-1.28s0.56-1.25,1.28-1.25c0.67,0,1.28,0.58,1.28,1.31
		C36.83,25.78,36.28,26.31,35.56,26.31z"/>
	<path d="M42.56,26.31c-0.69,0-1.28-0.58-1.28-1.28s0.56-1.25,1.28-1.25c0.67,0,1.28,0.58,1.28,1.31
		C43.83,25.78,43.28,26.31,42.56,26.31z"/>
</g>
<g>
	<path d="M10.73,60.08H8.78v-7.92c0-1.72-0.14-2.95-0.56-4.31h1.92c0.22,0.78,0.31,1.06,0.42,1.89c1-1.61,1.95-2.17,3.53-2.17
		c1.61,0,2.78,0.56,3.58,2.14c0.69-1.2,2.25-2.14,3.72-2.14c2.28,0,4.03,1.58,4.03,4.64v7.86h-1.94v-8.06c0-1.78-1.03-2.7-2.22-2.7
		c-1.75,0-3.17,1.56-3.17,4.2v6.56h-1.95v-7.5c0-2.11-0.78-3.25-2.25-3.25c-1.81,0-3.17,1.97-3.17,4.47V60.08z"/>
	<path d="M37.51,58.14c-0.94,1.5-2.58,2.28-4.08,2.28c-2.56,0-4.5-2.06-4.5-5.92c0-4.2,2.61-6.95,6.56-6.95
		c1.42,0,2.44,0.14,3.89,0.64v8.92c0,1.56,0.17,2.97,0.17,2.97H37.7L37.51,58.14z M37.43,49.72c-0.78-0.25-1.47-0.31-2.17-0.31
		c-2.67,0-4.31,2-4.31,5.42c0,2.36,1,3.64,2.7,3.64c2.08,0,3.78-2,3.78-5.2V49.72z"/>
	<path d="M45.29,60.08h-1.95v-8.31c0-1.33-0.25-3.03-0.56-3.92h1.89c0.25,0.64,0.28,0.81,0.44,2.03c1.22-1.7,2.45-2.33,4.03-2.33
		c2.36,0,4.08,1.53,4.08,4.67v7.86H51.2v-7.81c0-1.83-0.78-2.86-2.2-2.86c-2.11,0-3.72,2.17-3.72,5.42V60.08z"/>
	<path d="M66.62,60.81c0,6.22-2.61,7.56-5.42,7.56c-1.53,0-3.22-0.67-4.06-1.42l0.44-1.56c0.89,0.78,2.36,1.42,3.53,1.42
		c2.28,0,3.64-1.58,3.64-6.03v-2.45c-1.03,1.42-2.17,2.03-3.72,2.03c-2.2,0-3.75-1.14-3.75-4.81c0-4.11,0.08-5.45-0.33-7.7h1.83
		c0.42,2.22,0.31,4.78,0.31,7.78c0,2.36,0.86,2.97,2.06,2.97c1.97,0,3.53-1.81,3.53-5.72v-5.03h1.94V60.81z"/>
</g>
</svg>
