<?xml version="1.0" encoding="utf-8"?>
<!-- Generator: Adobe Illustrator 28.1.0, SVG Export Plug-In . SVG Version: 6.00 Build 0)  -->
<svg version="1.1" id="Layer_1" xmlns="http://www.w3.org/2000/svg" xmlns:xlink="http://www.w3.org/1999/xlink" x="0px" y="0px"
	 viewBox="0 0 110.55 76.54" style="enable-background:new 0 0 110.55 76.54;" xml:space="preserve">
<style type="text/css">
	.st0{display:none;}
	.st1{display:inline;fill:none;}
</style>
<g id="Layer_2_00000073722119373351752270000017113015111246931634_" class="st0">
	<line class="st1" x1="-24.13" y1="74.54" x2="142.13" y2="74.54"/>
	<line class="st1" x1="-24.13" y1="2" x2="142.13" y2="2"/>
</g>
<g>
	<g>
		<path d="M32.49,60.72c-2.49,0-4.51,2.02-4.51,4.51c0,2.49,2.02,4.51,4.51,4.51c2.49,0,4.51-2.02,4.51-4.51
			C37,62.74,34.98,60.72,32.49,60.72z M32.49,66.63c-0.77,0-1.4-0.63-1.4-1.4c0-0.77,0.63-1.4,1.4-1.4s1.4,0.63,1.4,1.4
			C33.9,66,33.26,66.63,32.49,66.63z"/>
		<path d="M77.93,60.72c-2.49,0-4.51,2.02-4.51,4.51c0,2.49,2.02,4.51,4.51,4.51s4.51-2.02,4.51-4.51
			C82.44,62.74,80.42,60.72,77.93,60.72z M77.93,66.63c-0.77,0-1.4-0.63-1.4-1.4c0-0.77,0.63-1.4,1.4-1.4c0.77,0,1.4,0.63,1.4,1.4
			C79.33,66,78.7,66.63,77.93,66.63z"/>
		<path d="M92.62,46.94l-7.02-19.72c-1.34-3.76-4.93-6.29-8.92-6.29H62.42c-0.86,0-1.55,0.7-1.55,1.55V45h-2.96V32.17
			c0-0.55-0.31-1.02-0.74-1.29L25.7,3.26c-0.32-0.28-0.75-0.42-1.17-0.38c-0.42,0.04-0.81,0.25-1.08,0.58l-4.13,5.22
			c-0.51,0.64-0.43,1.58,0.18,2.12l4.91,4.38v8.65h-3.24c-0.86,0-1.55,0.7-1.55,1.55v5.57c0,0.86,0.69,1.55,1.55,1.55h1.66
			c-1.44,1.29-2.37,3.14-2.37,5.21c0,1.35,0.39,2.67,1.12,3.8c0.3,0.46,0.8,0.71,1.31,0.71c0.29,0,0.58-0.08,0.84-0.25
			c0.72-0.47,0.93-1.43,0.46-2.15c-0.41-0.63-0.62-1.36-0.62-2.11c0-1.62,0.99-3.01,2.4-3.6c1.41,0.59,2.4,1.98,2.4,3.6
			c0,0.76-0.22,1.49-0.62,2.11c-0.47,0.72-0.26,1.68,0.46,2.15c0.26,0.17,0.55,0.25,0.84,0.25c0.51,0,1.01-0.25,1.31-0.71
			c0.73-1.13,1.12-2.45,1.12-3.8c0-2.08-0.93-3.93-2.37-5.21h1.66c0.86,0,1.55-0.7,1.55-1.55v-5.57c0-0.86-0.69-1.55-1.55-1.55
			h-3.24v-5.88L46.88,35.2L40.98,45H27.38c-0.55,0-1.07,0.29-1.34,0.77l-6.8,11.69h-3.68c-0.86,0-1.55,0.7-1.55,1.55v6.26
			c0,0.86,0.69,1.55,1.55,1.55h7.59c0.76,4.49,4.66,7.92,9.36,7.92c4.71,0,8.61-3.44,9.36-7.94l26.72,0.02
			c0.76,4.49,4.66,7.92,9.36,7.92c4.71,0,8.62-3.44,9.36-7.95l3.67,0c0,0,0,0,0.01,0c2.19,0,4.26-0.85,5.81-2.41
			c1.55-1.55,2.41-3.62,2.41-5.81v-3.6C99.19,51.03,96.36,47.71,92.62,46.94z M29.22,29.4h-6.48v-2.46h6.48V29.4z M83.51,30.65
			l5.74,16.11l-14.79-0.09c-1.27,0-2.89-2.7-2.89-4.81v-7.9c0-1.83,1.3-3.31,2.89-3.31H83.51z M76.67,24.03
			c2.42,0,4.6,1.39,5.67,3.51h-7.88c-3.31,0-6,2.88-6,6.42v7.9c0,3.23,2.34,7.92,5.99,7.92L91,49.88c2.8,0.02,5.08,2.31,5.08,5.11
			v2.47H83.36c-1.54-1.08-3.41-1.71-5.43-1.71c-2.02,0-3.88,0.64-5.42,1.71h-8.53V24.03H76.67z M68.57,63.7h-4.59v-3.13h5.69
			C69.13,61.52,68.75,62.57,68.57,63.7z M60.87,63.7H41.85c-0.18-1.12-0.56-2.18-1.1-3.13h20.12V63.7z M22.68,9.46l2.2-2.78
			l27.27,23.95h-1.65c-0.55,0-1.05,0.29-1.33,0.75l-0.67,1.12L22.68,9.46z M51.38,33.73h3.41v11.27H44.61L51.38,33.73z M28.27,48.1
			h32.61v9.35H37.92c-1.54-1.08-3.41-1.71-5.42-1.71s-3.88,0.64-5.42,1.71h-4.24L28.27,48.1z M23.13,63.72h-5.08H17.1v-3.15h7.13
			C23.69,61.53,23.31,62.59,23.13,63.72z M32.49,71.64c-3.51,0-6.37-2.85-6.39-6.36c0,0,0,0,0-0.01c0-0.01,0-0.01,0-0.02
			c0,0,0,0,0-0.01c0-3.53,2.87-6.39,6.39-6.39s6.39,2.87,6.39,6.39C38.88,68.77,36.02,71.64,32.49,71.64z M77.93,71.64
			c-3.52,0-6.38-2.86-6.39-6.37c0-0.01,0-0.01,0-0.02c0-0.01,0-0.01,0-0.02c0.01-3.52,2.87-6.37,6.39-6.37
			c3.53,0,6.39,2.87,6.39,6.39C84.32,68.77,81.45,71.64,77.93,71.64z M90.97,63.7C90.97,63.7,90.97,63.7,90.97,63.7l-3.68,0
			c-0.18-1.12-0.56-2.17-1.1-3.13h9.49c-0.25,0.6-0.62,1.16-1.1,1.63C93.62,63.17,92.33,63.7,90.97,63.7z"/>
	</g>
</g>
</svg>
