<?xml version="1.0" encoding="utf-8"?>
<!-- Generator: Adobe Illustrator 28.1.0, SVG Export Plug-In . SVG Version: 6.00 Build 0)  -->
<svg version="1.1" id="Layer_1" xmlns="http://www.w3.org/2000/svg" xmlns:xlink="http://www.w3.org/1999/xlink" x="0px" y="0px"
	 viewBox="0 0 110.55 76.54" style="enable-background:new 0 0 110.55 76.54;" xml:space="preserve">
<style type="text/css">
	.st0{display:none;}
	.st1{display:inline;fill:none;}
</style>
<g id="Layer_2_00000073722119373351752270000017113015111246931634_" class="st0">
	<line class="st1" x1="-24.13" y1="74.54" x2="142.13" y2="74.54"/>
	<line class="st1" x1="-24.13" y1="2" x2="142.13" y2="2"/>
</g>
<g>
	<path d="M81.52,16.03c0.05,0.02,0.11,0.03,0.18,0.03h1.77c0,0.12,0,0.24,0,0.38c0.1,2.19,0.77,3.91,2.02,5.17
		c1.24,1.24,2.75,1.87,4.51,1.87c1.77,0,3.25-0.63,4.46-1.89c1.26-1.28,1.93-2.97,2.02-5.07c0.02-0.15,0.03-0.3,0.03-0.45h1.77
		c0.17,0,0.31-0.06,0.43-0.18c0.12-0.12,0.18-0.26,0.18-0.43c0-0.17-0.06-0.31-0.18-0.43c-0.12-0.13-0.26-0.2-0.43-0.2h-0.71
		c-0.08-1.93-0.84-3.61-2.27-5.04c-1.41-1.46-3.18-2.19-5.3-2.19s-3.94,0.73-5.47,2.19c-1.38,1.43-2.1,3.11-2.17,5.04h-0.66
		c-0.07,0-0.13,0.02-0.18,0.05c-0.08,0.02-0.16,0.07-0.23,0.15c-0.13,0.12-0.2,0.26-0.2,0.43c0,0.17,0.07,0.31,0.2,0.43
		C81.36,15.97,81.43,16.02,81.52,16.03z"/>
	<path d="M108.32,15.25l-1-0.96c-0.16-0.15-0.4-0.15-0.56,0.01L96.15,25.24c-0.53-0.15-1.09-0.23-1.67-0.23h-8.99
		c-1.7,0-3.18,0.64-4.46,1.91c-1.22,1.22-1.84,2.71-1.84,4.46v8.22c0,0.46,0.05,0.91,0.15,1.34l-7.44,7.67
		c-0.52,0.53-0.5,1.38,0.02,1.89l4.4,4.27c0.53,0.51,1.38,0.5,1.9-0.03c0.06-0.07,0.11-0.13,0.16-0.2l5.77-8.79
		c0.05,0.01,0.09,0.03,0.14,0.04v18.63c0,1.27,0.46,2.36,1.37,3.26c0.9,0.91,2.01,1.37,3.33,1.37h1.98c1.22,0,2.29-0.46,3.18-1.37
		c1.01-0.85,1.52-1.93,1.52-3.26V45.79c1.49-0.31,2.73-1.05,3.75-2.23c0.9-1.16,1.35-2.48,1.35-3.97v-8.22
		c0-1.67-0.57-3.1-1.69-4.29l4.22-4.35c0.16-0.16,0.16-0.4,0-0.56l-0.6-0.57l5.61-5.79C108.47,15.65,108.47,15.4,108.32,15.25z"/>
</g>
<g>
	<path d="M46.81,16.03c0.05,0.02,0.11,0.03,0.18,0.03h1.77c0,0.12,0,0.24,0,0.38c0.1,2.19,0.77,3.91,2.02,5.17
		c1.24,1.24,2.75,1.87,4.51,1.87c1.77,0,3.25-0.63,4.46-1.89c1.26-1.28,1.93-2.97,2.02-5.07c0.02-0.15,0.03-0.3,0.03-0.45h1.77
		c0.17,0,0.31-0.06,0.43-0.18c0.12-0.12,0.18-0.26,0.18-0.43c0-0.17-0.06-0.31-0.18-0.43c-0.12-0.13-0.26-0.2-0.43-0.2h-0.71
		c-0.08-1.93-0.84-3.61-2.27-5.04c-1.41-1.46-3.18-2.19-5.3-2.19s-3.94,0.73-5.47,2.19c-1.38,1.43-2.1,3.11-2.17,5.04h-0.66
		c-0.07,0-0.13,0.02-0.18,0.05c-0.08,0.02-0.16,0.07-0.23,0.15c-0.13,0.12-0.2,0.26-0.2,0.43c0,0.17,0.07,0.31,0.2,0.43
		C46.65,15.97,46.73,16.02,46.81,16.03z"/>
	<path d="M73.61,15.25l-1-0.96c-0.16-0.15-0.4-0.15-0.56,0.01L61.45,25.24c-0.53-0.15-1.09-0.23-1.67-0.23h-8.99
		c-1.7,0-3.18,0.64-4.46,1.91c-1.22,1.22-1.84,2.71-1.84,4.46v8.22c0,0.46,0.05,0.91,0.15,1.34l-7.44,7.67
		c-0.52,0.53-0.5,1.38,0.02,1.89l4.4,4.27c0.53,0.51,1.38,0.5,1.9-0.03c0.06-0.07,0.11-0.13,0.16-0.2l5.77-8.79
		c0.05,0.01,0.09,0.03,0.14,0.04v18.63c0,1.27,0.46,2.36,1.37,3.26c0.9,0.91,2.01,1.37,3.33,1.37h1.98c1.22,0,2.29-0.46,3.18-1.37
		c1.01-0.85,1.52-1.93,1.52-3.26V45.79c1.49-0.31,2.73-1.05,3.75-2.23c0.9-1.16,1.35-2.48,1.35-3.97v-8.22
		c0-1.67-0.57-3.1-1.69-4.29l4.22-4.35c0.16-0.16,0.16-0.4,0-0.56l-0.6-0.57l5.61-5.79C73.77,15.65,73.77,15.4,73.61,15.25z"/>
</g>
<g>
	<path d="M12.11,16.03c0.05,0.02,0.11,0.03,0.18,0.03h1.77c0,0.12,0,0.24,0,0.38c0.1,2.19,0.77,3.91,2.02,5.17
		c1.24,1.24,2.75,1.87,4.51,1.87c1.77,0,3.25-0.63,4.46-1.89c1.26-1.28,1.93-2.97,2.02-5.07c0.02-0.15,0.03-0.3,0.03-0.45h1.77
		c0.17,0,0.31-0.06,0.43-0.18c0.12-0.12,0.18-0.26,0.18-0.43c0-0.17-0.06-0.31-0.18-0.43c-0.12-0.13-0.26-0.2-0.43-0.2h-0.71
		c-0.08-1.93-0.84-3.61-2.27-5.04c-1.41-1.46-3.18-2.19-5.3-2.19s-3.94,0.73-5.47,2.19c-1.38,1.43-2.1,3.11-2.17,5.04h-0.66
		c-0.07,0-0.13,0.02-0.18,0.05c-0.08,0.02-0.16,0.07-0.23,0.15c-0.13,0.12-0.2,0.26-0.2,0.43c0,0.17,0.07,0.31,0.2,0.43
		C11.95,15.97,12.03,16.02,12.11,16.03z"/>
	<path d="M38.91,15.25l-1-0.96c-0.16-0.15-0.4-0.15-0.56,0.01L26.75,25.24c-0.53-0.15-1.09-0.23-1.67-0.23h-8.99
		c-1.7,0-3.18,0.64-4.46,1.91c-1.22,1.22-1.84,2.71-1.84,4.46v8.22c0,0.46,0.05,0.91,0.15,1.34L2.5,48.61
		c-0.52,0.53-0.5,1.38,0.02,1.89l4.4,4.27c0.53,0.51,1.38,0.5,1.9-0.03c0.06-0.07,0.11-0.13,0.16-0.2l5.77-8.79
		c0.05,0.01,0.09,0.03,0.14,0.04v18.63c0,1.27,0.46,2.36,1.37,3.26c0.9,0.91,2.01,1.37,3.33,1.37h1.98c1.22,0,2.29-0.46,3.18-1.37
		c1.01-0.85,1.52-1.93,1.52-3.26V45.79c1.49-0.31,2.73-1.05,3.75-2.23c0.9-1.16,1.35-2.48,1.35-3.97v-8.22
		c0-1.67-0.57-3.1-1.69-4.29l4.22-4.35c0.16-0.16,0.16-0.4,0-0.56l-0.6-0.57l5.61-5.79C39.07,15.65,39.07,15.4,38.91,15.25z"/>
</g>
</svg>
