<?xml version="1.0" encoding="utf-8"?>
<!-- Generator: Adobe Illustrator 28.1.0, SVG Export Plug-In . SVG Version: 6.00 Build 0)  -->
<svg version="1.1" id="Layer_1" xmlns="http://www.w3.org/2000/svg" xmlns:xlink="http://www.w3.org/1999/xlink" x="0px" y="0px"
	 viewBox="0 0 110.55 76.54" style="enable-background:new 0 0 110.55 76.54;" xml:space="preserve">
<style type="text/css">
	.st0{display:none;}
	.st1{display:inline;fill:none;}
</style>
<g id="Layer_2_00000073722119373351752270000017113015111246931634_" class="st0">
	<line class="st1" x1="-24.13" y1="74.54" x2="142.13" y2="74.54"/>
	<line class="st1" x1="-24.13" y1="2" x2="142.13" y2="2"/>
</g>
<path d="M21.15,74.43h71.58c0.34,0,0.65-0.18,0.81-0.48c0.16-0.3,0.15-0.66-0.04-0.94c-4.61-7.04-7.21-27.66-8.04-39.03l5.2-5.87
	c0.34-0.38,0.3-0.96-0.08-1.3c-0.07-0.07-0.16-0.1-0.24-0.14c-0.08-0.12-0.17-0.22-0.3-0.3c-0.43-0.25-1.08-0.58-1.9-1
	c-5.8-2.98-19.37-9.95-30.33-24.01c-0.03-0.04-0.08-0.05-0.11-0.09c-0.05-0.04-0.1-0.08-0.16-0.12c-0.04-0.02-0.07-0.04-0.1-0.06
	c-0.12-0.05-0.25-0.09-0.39-0.09c-0.14,0-0.27,0.04-0.39,0.1c-0.01,0-0.02,0.01-0.03,0.02c-0.09,0.05-0.16,0.1-0.23,0.17
	c-0.02,0.02-0.06,0.03-0.08,0.06C45.34,15.42,31.77,22.39,25.97,25.37c-0.82,0.42-1.47,0.75-1.9,1c-0.35,0.2-0.53,0.62-0.43,1.01
	c-0.03,0.25,0.03,0.52,0.21,0.72l5.19,5.87c-0.69,9.7-3.65,31.38-8.66,39.03c-0.18,0.28-0.2,0.64-0.04,0.94
	C20.5,74.25,20.81,74.43,21.15,74.43z M29.99,32.28l-3.7-4.19h7.41L29.99,32.28z M57.06,5.38c1.59,5.29,5.34,15.65,11.54,20.88
	H45.51C51.72,21.03,55.47,10.67,57.06,5.38z M69.89,28.09h7.41l-3.71,4.19L69.89,28.09z M66.4,28.09l-3.71,4.19l-3.71-4.19H66.4z
	 M55.5,28.09l-3.71,4.19l-3.71-4.19H55.5z M44.59,28.09l-3.7,4.19l-3.7-4.19H44.59z M46.34,28.89l4.76,5.38
	c0.35,0.39,1.03,0.39,1.37,0l4.76-5.38l4.76,5.38c0.17,0.2,0.42,0.31,0.69,0.31c0.26,0,0.51-0.11,0.69-0.31l4.77-5.38l1.69,1.91
	c0.38,5.6,2.35,31.17,7.52,41.8h-6.49c-0.04-0.04-0.07-0.09-0.12-0.12c-8.22-5.78-12.54-26.28-12.58-26.49
	c-0.09-0.43-0.49-0.73-0.92-0.73c-0.44,0-0.81,0.31-0.9,0.73c-0.04,0.21-4.36,20.71-12.58,26.49c-0.05,0.03-0.08,0.08-0.12,0.12
	h-6.6c5.23-10.15,7.25-35.9,7.65-41.87L46.34,28.89z M68.06,72.6h-21.6c5.69-5.45,9.26-16.68,10.8-22.54
	C58.8,55.91,62.37,67.14,68.06,72.6z M79.42,72.6c-3.93-7.14-6.48-25.09-7.58-39.53l1.07,1.21c0.17,0.2,0.42,0.31,0.69,0.31
	c0.26,0,0.51-0.11,0.69-0.31l4.77-5.39l4.57,5.15c0.31,4.12,2.31,28.53,7.52,38.56H79.42z M88.23,28.09l-3.71,4.19l-3.71-4.19H88.23
	z M85.85,26.25H71.7c-0.02-0.01-0.03-0.03-0.05-0.05c-6.48-3.82-10.62-14.44-12.51-20.36C68.91,16.97,80.19,23.3,85.85,26.25z
	 M54.98,5.84c-1.88,5.92-6.02,16.53-12.5,20.36c-0.02,0.01-0.04,0.04-0.06,0.05H28.27C33.92,23.3,45.21,16.97,54.98,5.84z
	 M30.88,34.04l4.56-5.15l4.76,5.38c0.17,0.2,0.42,0.31,0.69,0.31c0.26,0,0.51-0.11,0.69-0.31L42.7,33
	c-0.69,8.86-2.87,31.43-7.73,39.58c0,0.01,0,0.01-0.01,0.02H22.75C27.46,63.67,30.22,43.33,30.88,34.04z"/>
</svg>
