<?xml version="1.0" encoding="utf-8"?>
<!-- Generator: Adobe Illustrator 28.1.0, SVG Export Plug-In . SVG Version: 6.00 Build 0)  -->
<svg version="1.1" id="Layer_1" xmlns="http://www.w3.org/2000/svg" xmlns:xlink="http://www.w3.org/1999/xlink" x="0px" y="0px"
	 viewBox="0 0 110.55 76.54" style="enable-background:new 0 0 110.55 76.54;" xml:space="preserve">
<style type="text/css">
	.st0{display:none;}
	.st1{display:inline;fill:none;}
</style>
<g id="Layer_2_00000073722119373351752270000017113015111246931634_" class="st0">
	<line class="st1" x1="-24.13" y1="74.54" x2="142.13" y2="74.54"/>
	<line class="st1" x1="-24.13" y1="2" x2="142.13" y2="2"/>
</g>
<g>
	<g>
		<path d="M72.32,18.4c0,8.37-6.95,15.11-15.39,14.77c-7.61-0.31-13.89-6.61-14.17-14.22c-0.31-8.42,6.43-15.33,14.78-15.33
			C65.7,3.61,72.32,10.23,72.32,18.4"/>
		<path d="M72.32,58.14c0,8.37-6.95,15.11-15.39,14.77c-7.61-0.31-13.89-6.61-14.17-14.22c-0.31-8.42,6.43-15.33,14.78-15.33
			C65.7,43.36,72.32,49.98,72.32,58.14"/>
	</g>
</g>
</svg>
