<?xml version="1.0" encoding="utf-8"?>
<!-- Generator: Adobe Illustrator 28.1.0, SVG Export Plug-In . SVG Version: 6.00 Build 0)  -->
<svg version="1.1" id="Layer_1" xmlns="http://www.w3.org/2000/svg" xmlns:xlink="http://www.w3.org/1999/xlink" x="0px" y="0px"
	 viewBox="0 0 110.55 76.54" style="enable-background:new 0 0 110.55 76.54;" xml:space="preserve">
<style type="text/css">
	.st0{display:none;}
	.st1{display:inline;fill:none;}
	.st2{fill:none;}
	.st3{fill:#FFFFFF;}
	.st4{fill:#808080;}
</style>
<g id="Layer_2_00000073722119373351752270000017113015111246931634_" class="st0">
	<line class="st1" x1="-24.13" y1="74.54" x2="142.13" y2="74.54"/>
	<line class="st1" x1="-24.13" y1="2" x2="142.13" y2="2"/>
</g>
<g>
	<path class="st2" d="M-5240.72,925.05c-1.72,0-3.37,0.3-4.92,0.82l3.29,12.07l2.3,1.28c0.66,0.37,0.9,1.2,0.53,1.86
		c-0.25,0.45-0.71,0.7-1.19,0.7c-0.23,0-0.46-0.06-0.67-0.17l-2.8-1.56c-0.02-0.01-0.04-0.04-0.06-0.05
		c-0.1-0.06-0.19-0.14-0.27-0.23c-0.03-0.04-0.07-0.07-0.1-0.11c-0.08-0.11-0.14-0.24-0.19-0.38c0-0.02-0.02-0.04-0.03-0.06
		c0,0,0,0,0-0.01l-3.34-12.23c-4.72,2.63-7.92,7.66-7.92,13.44c0,8.48,6.9,15.37,15.37,15.37s15.37-6.9,15.37-15.37
		C-5225.34,931.95-5232.24,925.05-5240.72,925.05z"/>
	<path d="M-5339.6,903.64c-6.21,0-11.27,5.06-11.27,11.27v6.37c0,1.15,0.92,2.07,2.07,2.07c1.15,0,2.07-0.92,2.07-2.07v-6.37
		c0-1.53,0.54-2.99,1.3-4.14v33.36c0,1.38,1.15,2.53,2.53,2.53s2.53-1.15,2.53-2.53v-19.25h1.46v19.25c0,1.38,1.15,2.53,2.53,2.53
		s2.53-1.15,2.53-2.53v-33.36c0.84,1.15,1.3,2.61,1.3,4.14v6.37c0,1.15,0.92,2.07,2.07,2.07c1.15,0,2.07-0.92,2.07-2.07v-6.37
		C-5328.32,908.71-5333.39,903.64-5339.6,903.64z"/>
	<path d="M-5339.6,902.19c3.13,0,5.67-2.54,5.67-5.68c0-3.13-2.54-5.67-5.67-5.67c-3.13,0-5.68,2.54-5.68,5.67
		C-5345.27,899.65-5342.73,902.19-5339.6,902.19z"/>
	<path d="M-5307.39,914.92v5.83c1.33-0.33,2.72-0.53,4.14-0.58v-5.25c0.08-6.21-4.98-11.27-11.2-11.27
		c-6.21,0-11.27,5.06-11.27,11.27v6.37c0,1.15,0.92,2.07,2.07,2.07s2.07-0.92,2.07-2.07v-6.37c0-1.53,0.54-2.99,1.3-4.14v19.92
		c2.48-4.51,6.61-7.97,11.58-9.57v-10.34C-5307.85,911.93-5307.39,913.38-5307.39,914.92z"/>
	<path d="M-5314.44,902.19c3.13,0,5.67-2.54,5.67-5.68c0-3.13-2.54-5.67-5.67-5.67s-5.68,2.54-5.68,5.67
		C-5320.12,899.65-5317.58,902.19-5314.44,902.19z"/>
	<path class="st3" d="M-5320.27,944.14c0,0.49,0.15,0.96,0.4,1.35c-0.16-0.55-0.3-1.11-0.4-1.68V944.14z"/>
	<polygon class="st3" points="-5279.08,928.41 -5278.35,930.11 -5278.35,930.11 -5279.08,928.4 	"/>
	<path d="M-5313.75,933.59v10.55c0,1.38,1.15,2.53,2.53,2.53s2.53-1.15,2.53-2.53v-15.35
		C-5310.78,929.9-5312.52,931.57-5313.75,933.59z"/>
	<path class="st3" d="M-5303.56,941.23c-0.04-0.06-0.08-0.11-0.12-0.17c-0.03-0.06-0.06-0.13-0.08-0.19l-0.25,0.37H-5303.56z"/>
	<path d="M-5240.72,922.32c-1.97,0-3.86,0.33-5.64,0.91l-5.1-18.71l10.75-0.01c1.88,0,3.42,1.53,3.42,3.42
		c0,1.88-1.53,3.42-3.42,3.42c-0.76,0-1.37,0.61-1.37,1.37s0.61,1.37,1.37,1.37c3.39,0,6.15-2.76,6.15-6.15
		c0-3.39-2.76-6.15-6.15-6.15l-12.54,0.01c-0.06,0-0.12,0.03-0.18,0.04c-0.06,0.01-0.12,0-0.18,0.01c-0.03,0.01-0.05,0.03-0.08,0.04
		c-0.09,0.03-0.17,0.08-0.25,0.13c-0.07,0.04-0.14,0.08-0.21,0.14c-0.06,0.06-0.11,0.13-0.17,0.2c-0.05,0.07-0.11,0.14-0.14,0.22
		c-0.04,0.08-0.06,0.15-0.08,0.24c-0.03,0.09-0.05,0.18-0.06,0.28c0,0.03-0.02,0.06-0.02,0.09c0,0.06,0.03,0.12,0.04,0.18
		c0.01,0.06-0.01,0.12,0.01,0.18l2.93,10.74h-6.06c-0.17,0.95-0.43,1.86-0.76,2.73h5.31l-14.11,14.11c-0.21,0.88-0.3,1.77-0.24,2.72
		l0.05,1.34l16.9-16.9l1.64,6.04c-5.88,3-9.92,9.09-9.92,16.13c0,9.98,8.12,18.11,18.11,18.11c9.99,0,18.11-8.12,18.11-18.11
		C-5222.61,930.44-5230.73,922.32-5240.72,922.32z M-5240.72,955.8c-8.48,0-15.37-6.9-15.37-15.37c0-5.77,3.2-10.81,7.92-13.44
		l3.34,12.23c0,0,0,0,0,0.01c0.01,0.02,0.02,0.04,0.03,0.06c0.05,0.14,0.11,0.26,0.19,0.38c0.03,0.04,0.07,0.07,0.1,0.11
		c0.08,0.09,0.17,0.17,0.27,0.23c0.02,0.02,0.03,0.04,0.06,0.05l2.8,1.56c0.21,0.12,0.44,0.17,0.67,0.17c0.48,0,0.94-0.25,1.19-0.7
		c0.37-0.66,0.13-1.49-0.53-1.86l-2.3-1.28l-3.29-12.07c1.55-0.52,3.2-0.82,4.92-0.82c8.48,0,15.37,6.9,15.37,15.37
		C-5225.34,948.9-5232.24,955.8-5240.72,955.8z"/>
	<path d="M-5278.84,927.54l-4.55-10.55h11.13c0.75-1.05,1.25-1.93,1.56-2.73h-13.87l-3.56-8.26c1-0.09,1.98-0.18,2.84-0.26
		l-1.14-2.99l0.41-0.3l-9.11-0.82c-3.6-0.19-3.59,5.18,0,4.99c0,0,1.85-0.17,4.14-0.37l3.87,8.97l-6.4,9.48
		c-2.65-1.51-5.7-2.39-8.96-2.39c-0.36,0-0.71,0.01-1.07,0.03c-1.08,0.06-2.13,0.22-3.15,0.47c-0.68,0.16-1.35,0.36-1.99,0.6
		c-1.85,0.68-3.55,1.65-5.06,2.85c-0.51,0.41-1,0.84-1.46,1.29c-2.56,2.53-4.37,5.82-5.06,9.49c-0.21,1.09-0.32,2.22-0.32,3.37
		s0.11,2.28,0.32,3.37c0.11,0.57,0.24,1.13,0.4,1.68c2.19,7.53,9.15,13.05,17.38,13.05c9.52,0,17.33-7.39,18.04-16.74h2.55
		c0.22,0.85,0.59,1.64,1.08,2.35c0.23-1.26,0.74-2.39,1.47-3.33c-0.05-0.27-0.09-0.56-0.09-0.85c0-0.48,0.07-0.95,0.21-1.39
		l-0.08-1.09l-0.03-0.42l-0.21-2.68c-0.85,0.72-1.52,1.63-1.96,2.67c-0.27,0.63-0.46,1.3-0.55,2.01h-2.38
		c-0.39-5.18-2.96-9.76-6.81-12.82l5.42-8.03l4.03,9.35l2.16,5.01c0-1.39,0.2-2.79,0.56-4.18c0,0,0,0,0,0
		C-5279.01,928.12-5278.93,927.83-5278.84,927.54z M-5302.48,955.8c-6.36,0-11.83-3.88-14.16-9.4c-0.78-1.84-1.21-3.86-1.21-5.98
		c0-3.19,0.98-6.16,2.65-8.61c0.44-0.64,0.93-1.24,1.46-1.81c1.42-1.53,3.13-2.77,5.06-3.63c1.9-0.84,4-1.32,6.21-1.32
		c2.69,0,5.23,0.7,7.43,1.93l-8.56,12.68c-0.02,0.04-0.03,0.08-0.05,0.12c-0.04,0.08-0.08,0.17-0.11,0.26
		c-0.03,0.09-0.04,0.17-0.05,0.27c0,0.04-0.03,0.08-0.03,0.13c0,0.04,0.02,0.08,0.03,0.13c0.01,0.09,0.03,0.18,0.05,0.27
		c0,0.02,0.01,0.03,0.02,0.04c0.02,0.07,0.04,0.13,0.08,0.19c0.03,0.06,0.07,0.12,0.12,0.17c0.01,0.01,0.01,0.02,0.02,0.04
		c0.06,0.08,0.12,0.14,0.2,0.2c0.03,0.03,0.05,0.07,0.09,0.09c0.05,0.03,0.1,0.05,0.15,0.07c0.05,0.02,0.09,0.05,0.14,0.06
		c0.15,0.06,0.31,0.1,0.47,0.1h15.3C-5287.88,949.63-5294.47,955.8-5302.48,955.8z M-5299.91,939.06l7.12-10.55
		c3.13,2.55,5.23,6.3,5.61,10.55H-5299.91z"/>
	<path d="M-5262.02,917c0.42-0.88,0.76-1.78,0.98-2.73c0.21-0.89,0.33-1.82,0.33-2.81c0-5.34-3.65-10.33-11.74-10.33
		c-3.24,0-6.7,0.85-9.07,2.19c-0.35,0.2-0.68,0.41-0.98,0.62l0.54,1.42l1.14,3.01c1.76-1.34,4.57-2.18,7.1-2.18
		c4.43,0.07,6.68,2.46,6.68,6.05c0,0.69-0.1,1.37-0.26,2.03c-0.22,0.91-0.59,1.81-1.11,2.73c-0.83,1.5-2.02,3.07-3.55,4.86
		c-1.52,1.83-2.62,3.64-3.35,5.42c-0.37,0.91-0.64,1.81-0.82,2.7c-0.19,0.96-0.28,1.91-0.27,2.83c0.01,0.4,0.03,0.81,0.07,1.2
		l0.12,1.52l0.02,0.31h3.5h1.98l-0.07-1.83c0-0.05,0-0.1-0.01-0.15c-0.06-1.34,0.06-2.61,0.41-3.87c0.25-0.9,0.61-1.8,1.1-2.71
		c0.62-1.16,1.45-2.35,2.5-3.6C-5264.82,921.39-5263.12,919.28-5262.02,917z"/>
	<path d="M-5270.77,942.26c-0.71-0.63-1.63-1-2.73-1c-0.09,0-0.17,0.02-0.25,0.02c-1.37,0.07-2.51,0.72-3.2,1.76
		c-0.16,0.24-0.3,0.49-0.41,0.77c-0.23,0.56-0.35,1.19-0.35,1.87c0,2.46,1.69,4.36,4.15,4.36c0.48,0,0.93-0.07,1.34-0.19
		c1.8-0.54,2.87-2.17,2.87-4.17c0-0.25-0.03-0.49-0.06-0.72C-5269.56,943.84-5270.04,942.91-5270.77,942.26z"/>
</g>
<path class="st4" d="M818.86,1116.07v-0.51c0-1.08-0.87-1.95-1.95-1.95c-1.08,0-1.95,0.87-1.95,1.95v0.51c0,0.79,0,1.52-0.14,2.31
	h-22.84c-0.14-0.79-0.14-1.52-0.14-2.31v-0.51c0-1.08-0.87-1.95-1.95-1.95s-1.95,0.87-1.95,1.95v0.51c0,8.02,4.19,15.18,10.84,19.3
	c-7.23,3.47-10.84,7.66-10.84,12.57c0,4.91,3.69,9.11,10.84,12.57c-6.72,4.12-10.84,11.35-10.84,19.3v0.51
	c0,1.08,0.87,1.95,1.95,1.95s1.95-0.87,1.95-1.95v-0.51c0-0.79,0.07-1.52,0.14-2.31h22.91c0.07,0.79,0.07,1.52,0.07,2.31v0.51
	c0,1.08,0.87,1.95,1.95,1.95c1.08,0,1.95-0.87,1.95-1.95v-0.51c0-8.02-4.19-15.18-10.84-19.3c7.23-3.47,10.84-7.66,10.84-12.57
	c0-4.91-3.69-9.11-10.84-12.57C814.75,1131.24,818.86,1124.09,818.86,1116.07z M814.24,1121.34c-0.43,1.37-0.94,2.67-1.66,3.83
	h-18.36c-0.65-1.23-1.23-2.53-1.66-3.83H814.24z M814.96,1147.94c0,0.65-0.14,1.3-0.36,1.95h-22.4c-0.29-0.65-0.36-1.3-0.36-1.95
	s0.14-1.3,0.36-1.95h22.47C814.89,1146.64,814.96,1147.29,814.96,1147.94z M812.58,1152.85c-2.31,2.24-5.85,4.05-9.18,5.42
	c-3.32-1.3-6.87-3.11-9.18-5.42H812.58z M794.22,1143.02c2.31-2.24,5.85-4.05,9.18-5.42c3.32,1.3,6.87,3.11,9.18,5.42H794.22z
	 M792.56,1174.53c0.43-1.37,0.94-2.67,1.66-3.83h18.36c0.65,1.23,1.23,2.53,1.66,3.83H792.56z M810.48,1167.67h-14.16
	c1.88-2.17,4.26-3.97,7.08-5.13C806.22,1163.69,808.6,1165.5,810.48,1167.67z M803.4,1133.41c-2.82-1.23-5.2-2.96-7.08-5.13h14.16
	C808.6,1130.38,806.22,1132.18,803.4,1133.41z"/>
<path d="M98.77,51.48l-2-2c-0.23-0.23-0.64-0.23-0.88,0l-0.94,0.94L55.64,11.1c-0.04-0.04-0.08-0.07-0.12-0.1l-0.2-0.12
	c0-0.13,0-0.27-0.01-0.41l3.53-3.53c0.04-0.04,0.07-0.08,0.1-0.12l3.26-5.51c0.14-0.24,0.1-0.55-0.1-0.75
	c-0.2-0.2-0.51-0.24-0.75-0.1l-5.51,3.26c-0.05,0.03-0.09,0.06-0.12,0.1l-1.48,1.48c-0.43-1.07-0.95-1.99-1.51-2.68
	c-0.94-1.16-1.96-1.75-3.03-1.75c-1.32,0-2.52,0.89-3.58,2.64c-1.37,2.26-3.1,7.24-1.93,10.95l0.22,0.68L16.4,43.14l-0.94-0.94
	c-0.23-0.23-0.64-0.23-0.88,0l-2,2c-0.24,0.24-0.24,0.63,0,0.88l5,5c0.12,0.12,0.27,0.18,0.44,0.18c0.17,0,0.32-0.06,0.44-0.18l2-2
	c0.12-0.12,0.18-0.27,0.18-0.44c0-0.16-0.07-0.32-0.18-0.44l-0.94-0.94l26.2-26.2c0.24,0.8,0.58,1.86,1.01,3.1l-0.1,0.1l0.06,0.04
	l0.06-0.08c0.02,0.05,0.04,0.1,0.05,0.15l-0.11-0.07l-0.74,1c-0.28,0.43-6.82,10.71,0.09,25.3c-2.38,1.46-4.32,3.6-5.52,6.15
	c-0.01,0.01-0.01,0.02-0.01,0.03c-0.47,1-1.19,2.62-1.32,3.88c-0.14,1.25,0.01,3.28,0.03,3.31c0.29,3.6,1.9,6.82,4.36,9.18
	c0.03,0.03,0.06,0.08,0.1,0.1c0,0,0.01,0,0.01,0c1,0.94,3.99,2.78,4.25,2.79c0.86,0.36,1.76,0.64,2.69,0.83c0,0,0,0.01,0.01,0.01
	c0.16,0.09,0.45,0.14,0.83,0.14c0.02,0,0.06-0.01,0.08-0.01c0.64,0.09,1.28,0.15,1.94,0.15c2.5,0,6.92-1.78,6.93-1.78
	c0.03-0.01,0.12-0.07,0.26-0.17c4.27-2.49,7.14-7.1,7.14-12.38c0-2.33-1.62-6.65-1.68-6.72c-2.41-4.52-7.18-7.61-12.65-7.61
	c-1.41,0-2.77,0.21-4.05,0.59c-4.69-9.84-2.31-17.51-1.02-20.44c2.52,6.14,6.46,13.48,11.44,15.53c0.22,0.09,0.46,0.14,0.7,0.14
	c0.76,0,1.43-0.45,1.72-1.15c0.39-0.95-0.06-2.04-1.01-2.43c-4.29-1.76-8.2-10.06-10.53-16.4c1.18-1.46,2.77-3.88,3.77-7.09
	l37.31,37.31l-0.94,0.94c-0.24,0.24-0.24,0.63,0,0.88l2,2c0.12,0.12,0.27,0.18,0.44,0.18c0.17,0,0.32-0.06,0.44-0.18l5-5
	c0.12-0.12,0.18-0.28,0.18-0.44C98.96,51.76,98.89,51.6,98.77,51.48z M54.68,6.61l1.85-1.85l3.36-1.99l-1.99,3.36l-2.74,2.74
	c-0.05-0.36-0.12-0.71-0.19-1.05c-0.01-0.04-0.01-0.08-0.02-0.12c-0.04-0.17-0.08-0.33-0.13-0.49C54.78,7.01,54.74,6.81,54.68,6.61z
	 M45.37,14.08c-0.98-3.09,0.4-7.6,1.81-9.93c0.85-1.4,1.69-2.04,2.51-2.04c0.7,0,1.39,0.46,2.06,1.29c0.65,0.8,1.22,1.93,1.64,3.25
	c0.33,1.04,0.55,2.24,0.64,3.47l-1.3-0.77c0-0.01,0-0.02,0-0.03c-0.01-0.11-0.03-0.21-0.05-0.32c-0.03-0.23-0.06-0.47-0.11-0.69
	c0-0.02-0.02-0.04-0.03-0.06c-0.36-1.69-1-3.13-1.76-4.07c-0.51-0.63-0.94-0.85-1.17-0.85c-0.14,0-0.65,0.26-1.38,1.46
	c-1.24,2.05-2.31,5.71-1.79,8.3l-0.93,0.93C45.47,14.05,45.42,14.06,45.37,14.08z M48.93,17.76c-0.06-0.21-0.17-0.4-0.3-0.58
	l2.5-2.5c-0.47,1.67-1.15,3.1-1.85,4.26C49.14,18.51,49.02,18.11,48.93,17.76z M47.55,12c-0.1-2.08,0.7-4.81,1.75-6.56
	c0.16-0.26,0.3-0.46,0.41-0.6c0.03,0.04,0.07,0.08,0.11,0.13c0.6,0.75,1.12,1.93,1.44,3.31l-0.14,0.14l-1.12-0.66
	c-0.24-0.14-0.55-0.11-0.75,0.1c-0.2,0.2-0.24,0.51-0.1,0.75l0.66,1.12L47.55,12z M18.02,48.77l-4.12-4.12l1.12-1.12l2.06,2.06
	l1.13,1.12c0,0,0,0,0,0l0.94,0.94L18.02,48.77z M17.96,44.71l-0.69-0.69l33.2-33.2l0.4,0.68l0.62,1.05L18.65,45.39L17.96,44.71z
	 M43.49,53.41c0.13,0.07,0.29,0.09,0.44,0.05c0.07-0.02,6.92-1.81,12.2,2.38c-0.08,0.84-0.18,1.63-0.31,2.38
	c-4.07-3.69-10.86-3.28-13.65-2.91C42.56,54.63,43,53.99,43.49,53.41z M56.24,54.35c-1.46-1.02-2.99-1.66-4.47-2.04
	c1.13-0.55,3.04-0.81,4.52-0.87C56.31,52.45,56.29,53.43,56.24,54.35z M41.47,56.66c1.64-0.27,10.02-1.41,14.05,3.02
	c-0.16,0.68-0.33,1.33-0.53,1.93c-4.53-4.69-11.35-3.74-14.15-3.08C41.01,57.89,41.22,57.26,41.47,56.66z M40.41,61.83
	c0-0.66,0.07-1.31,0.16-1.94c2.11-0.56,9.59-2.05,13.95,3.04c-0.29,0.71-0.59,1.37-0.92,1.96c-1.36-1.51-5.18-4.47-13.19-2.9
	C40.41,61.94,40.41,61.88,40.41,61.83z M52.92,66c-0.83,1.25-1.73,2.19-2.6,2.88c-0.51,0.41-1.01,0.72-1.5,1
	c-2.46-2.28-1.12-6.6-1.11-6.64c0.02-0.05,0.02-0.1,0.02-0.16C50.85,63.74,52.39,65.32,52.92,66z M40.49,63.24
	c0.67-0.14,1.3-0.24,1.91-0.31c-0.17,1.16-0.42,4.44,1.29,7.54C41.94,68.49,40.78,65.99,40.49,63.24z M43.67,62.81
	c1.06-0.06,2.01-0.03,2.87,0.07c-0.11,0.35-1.44,4.78,1.12,7.58c-0.8,0.33-1.51,0.52-2.08,0.61C42.92,67.68,43.57,63.36,43.67,62.81
	z M66.21,58.74c0.24,0.99,0.38,2.02,0.38,3.09c0,2.96-1,5.69-2.66,7.89C64.98,67.34,65.93,63.84,66.21,58.74z M65.06,55.69
	C65.02,69,60.69,72.69,59.95,73.21c-1.29,0.73-2.72,1.25-4.23,1.51c0.17-0.09,0.33-0.16,0.5-0.26c3.72-2.33,7.98-7.84,7.53-20.76
	C64.24,54.32,64.68,54.99,65.06,55.69z M62.58,52.41c-0.06,0.1-0.11,0.22-0.1,0.35c0.63,11.95-2.81,17.39-5.81,19.84
	c-2.01,1.65-4.04,2.12-5,2.18c-0.43-0.06-0.85-0.14-1.27-0.24c0.78-0.28,1.64-0.67,2.48-1.2c4.13-2.58,8.88-8.52,8.28-22.1
	C61.67,51.6,62.14,51.99,62.58,52.41z M60.02,50.49c-0.06,0.1-0.1,0.22-0.1,0.35c0.62,11.78-2.93,17.49-6.02,20.21
	c-2.44,2.15-4.81,2.66-5.71,2.75c-0.89-0.4-1.73-0.9-2.51-1.48c1.18-0.19,2.7-0.68,4.21-1.62c3.11-1.95,6.62-6.03,7.46-14.59
	c0.01-0.01,0.15-2.91,0.15-5.2c0.01-0.04,0.02-0.07,0.02-0.11c0-0.04-0.02-0.08-0.02-0.12c0-0.49-0.01-0.94-0.03-1.33
	C58.37,49.64,59.22,50.03,60.02,50.49z M56.34,49.05c-0.06,0.1-0.1,0.21-0.09,0.33c0.01,0.28,0.01,0.53,0.02,0.81
	c-1.47,0.06-4.83,0.35-6.11,1.78c-2.17-0.32-4.08-0.16-5.27,0.03c2.31-2.03,5.32-3.27,8.62-3.27
	C54.47,48.74,55.42,48.85,56.34,49.05z M48.27,48.49c-0.39,0.15-0.76,0.33-1.13,0.51C40.58,35.08,46.73,25.39,47,24.99l0.17-0.17
	l0.28,0.33c0.11,0.3,0.23,0.61,0.35,0.92C46.86,27.76,42.63,36.53,48.27,48.49z M60.81,40.87c0.32,0.13,0.47,0.49,0.34,0.81
	c-0.1,0.24-0.33,0.38-0.58,0.38c-0.08,0-0.16-0.02-0.23-0.05c-7.39-3.03-12.58-19.42-13.62-22.95l1-1c0,0.01,0.01,0.01,0.01,0.02
	C47.79,18.29,53.26,37.77,60.81,40.87z M50.26,21.94c-0.18-0.5-0.34-0.98-0.49-1.45c1.03-1.52,2.16-3.65,2.77-6.25l1,1
	C52.74,18.17,51.38,20.44,50.26,21.94z M92.71,52.67L53.45,13.41l-0.98-1.66l-1.01-1.7l3.36,1.99L94.08,51.3l-0.69,0.69L92.71,52.67
	z M93.33,56.05l-1.12-1.12l2.06-2.06l1.13-1.12c0,0,0,0,0,0l0.93-0.94l1.12,1.12L93.33,56.05z"/>
</svg>
