<?xml version="1.0" encoding="utf-8"?>
<!-- Generator: Adobe Illustrator 28.1.0, SVG Export Plug-In . SVG Version: 6.00 Build 0)  -->
<svg version="1.1" id="Layer_1" xmlns="http://www.w3.org/2000/svg" xmlns:xlink="http://www.w3.org/1999/xlink" x="0px" y="0px"
	 viewBox="0 0 110.55 76.54" style="enable-background:new 0 0 110.55 76.54;" xml:space="preserve">
<style type="text/css">
	.st0{display:none;}
	.st1{display:inline;fill:none;}
	.st2{fill:none;}
	.st3{fill:#FFFFFF;}
	.st4{fill:#808080;}
	.st5{fill:#231F20;}
</style>
<g id="Layer_2_00000073722119373351752270000017113015111246931634_" class="st0">
	<line class="st1" x1="-24.13" y1="74.54" x2="142.13" y2="74.54"/>
	<line class="st1" x1="-24.13" y1="2" x2="142.13" y2="2"/>
</g>
<g>
	<path class="st2" d="M-5240.72,925.05c-1.72,0-3.37,0.3-4.92,0.82l3.29,12.07l2.3,1.28c0.66,0.37,0.9,1.2,0.53,1.86
		c-0.25,0.45-0.71,0.7-1.19,0.7c-0.23,0-0.46-0.06-0.67-0.17l-2.8-1.56c-0.02-0.01-0.04-0.04-0.06-0.05
		c-0.1-0.06-0.19-0.14-0.27-0.23c-0.03-0.04-0.07-0.07-0.1-0.11c-0.08-0.11-0.14-0.24-0.19-0.38c0-0.02-0.02-0.04-0.03-0.06
		c0,0,0,0,0-0.01l-3.34-12.23c-4.72,2.63-7.92,7.66-7.92,13.44c0,8.48,6.9,15.37,15.37,15.37s15.37-6.9,15.37-15.37
		C-5225.34,931.95-5232.24,925.05-5240.72,925.05z"/>
	<path d="M-5339.6,903.64c-6.21,0-11.27,5.06-11.27,11.27v6.37c0,1.15,0.92,2.07,2.07,2.07c1.15,0,2.07-0.92,2.07-2.07v-6.37
		c0-1.53,0.54-2.99,1.3-4.14v33.36c0,1.38,1.15,2.53,2.53,2.53s2.53-1.15,2.53-2.53v-19.25h1.46v19.25c0,1.38,1.15,2.53,2.53,2.53
		s2.53-1.15,2.53-2.53v-33.36c0.84,1.15,1.3,2.61,1.3,4.14v6.37c0,1.15,0.92,2.07,2.07,2.07c1.15,0,2.07-0.92,2.07-2.07v-6.37
		C-5328.32,908.71-5333.39,903.64-5339.6,903.64z"/>
	<path d="M-5339.6,902.19c3.13,0,5.67-2.54,5.67-5.68c0-3.13-2.54-5.67-5.67-5.67c-3.13,0-5.68,2.54-5.68,5.67
		C-5345.27,899.65-5342.73,902.19-5339.6,902.19z"/>
	<path d="M-5307.39,914.92v5.83c1.33-0.33,2.72-0.53,4.14-0.58v-5.25c0.08-6.21-4.98-11.27-11.2-11.27
		c-6.21,0-11.27,5.06-11.27,11.27v6.37c0,1.15,0.92,2.07,2.07,2.07s2.07-0.92,2.07-2.07v-6.37c0-1.53,0.54-2.99,1.3-4.14v19.92
		c2.48-4.51,6.61-7.97,11.58-9.57v-10.34C-5307.85,911.93-5307.39,913.38-5307.39,914.92z"/>
	<path d="M-5314.44,902.19c3.13,0,5.67-2.54,5.67-5.68c0-3.13-2.54-5.67-5.67-5.67s-5.68,2.54-5.68,5.67
		C-5320.12,899.65-5317.58,902.19-5314.44,902.19z"/>
	<path class="st3" d="M-5320.27,944.14c0,0.49,0.15,0.96,0.4,1.35c-0.16-0.55-0.3-1.11-0.4-1.68V944.14z"/>
	<polygon class="st3" points="-5279.08,928.41 -5278.35,930.11 -5278.35,930.11 -5279.08,928.4 	"/>
	<path d="M-5313.75,933.59v10.55c0,1.38,1.15,2.53,2.53,2.53s2.53-1.15,2.53-2.53v-15.35
		C-5310.78,929.9-5312.52,931.57-5313.75,933.59z"/>
	<path class="st3" d="M-5303.56,941.23c-0.04-0.06-0.08-0.11-0.12-0.17c-0.03-0.06-0.06-0.13-0.08-0.19l-0.25,0.37H-5303.56z"/>
	<path d="M-5240.72,922.32c-1.97,0-3.86,0.33-5.64,0.91l-5.1-18.71l10.75-0.01c1.88,0,3.42,1.53,3.42,3.42
		c0,1.88-1.53,3.42-3.42,3.42c-0.76,0-1.37,0.61-1.37,1.37s0.61,1.37,1.37,1.37c3.39,0,6.15-2.76,6.15-6.15
		c0-3.39-2.76-6.15-6.15-6.15l-12.54,0.01c-0.06,0-0.12,0.03-0.18,0.04c-0.06,0.01-0.12,0-0.18,0.01c-0.03,0.01-0.05,0.03-0.08,0.04
		c-0.09,0.03-0.17,0.08-0.25,0.13c-0.07,0.04-0.14,0.08-0.21,0.14c-0.06,0.06-0.11,0.13-0.17,0.2c-0.05,0.07-0.11,0.14-0.14,0.22
		c-0.04,0.08-0.06,0.15-0.08,0.24c-0.03,0.09-0.05,0.18-0.06,0.28c0,0.03-0.02,0.06-0.02,0.09c0,0.06,0.03,0.12,0.04,0.18
		c0.01,0.06-0.01,0.12,0.01,0.18l2.93,10.74h-6.06c-0.17,0.95-0.43,1.86-0.76,2.73h5.31l-14.11,14.11c-0.21,0.88-0.3,1.77-0.24,2.72
		l0.05,1.34l16.9-16.9l1.64,6.04c-5.88,3-9.92,9.09-9.92,16.13c0,9.98,8.12,18.11,18.11,18.11c9.99,0,18.11-8.12,18.11-18.11
		C-5222.61,930.44-5230.73,922.32-5240.72,922.32z M-5240.72,955.8c-8.48,0-15.37-6.9-15.37-15.37c0-5.77,3.2-10.81,7.92-13.44
		l3.34,12.23c0,0,0,0,0,0.01c0.01,0.02,0.02,0.04,0.03,0.06c0.05,0.14,0.11,0.26,0.19,0.38c0.03,0.04,0.07,0.07,0.1,0.11
		c0.08,0.09,0.17,0.17,0.27,0.23c0.02,0.02,0.03,0.04,0.06,0.05l2.8,1.56c0.21,0.12,0.44,0.17,0.67,0.17c0.48,0,0.94-0.25,1.19-0.7
		c0.37-0.66,0.13-1.49-0.53-1.86l-2.3-1.28l-3.29-12.07c1.55-0.52,3.2-0.82,4.92-0.82c8.48,0,15.37,6.9,15.37,15.37
		C-5225.34,948.9-5232.24,955.8-5240.72,955.8z"/>
	<path d="M-5278.84,927.54l-4.55-10.55h11.13c0.75-1.05,1.25-1.93,1.56-2.73h-13.87l-3.56-8.26c1-0.09,1.98-0.18,2.84-0.26
		l-1.14-2.99l0.41-0.3l-9.11-0.82c-3.6-0.19-3.59,5.18,0,4.99c0,0,1.85-0.17,4.14-0.37l3.87,8.97l-6.4,9.48
		c-2.65-1.51-5.7-2.39-8.96-2.39c-0.36,0-0.71,0.01-1.07,0.03c-1.08,0.06-2.13,0.22-3.15,0.47c-0.68,0.16-1.35,0.36-1.99,0.6
		c-1.85,0.68-3.55,1.65-5.06,2.85c-0.51,0.41-1,0.84-1.46,1.29c-2.56,2.53-4.37,5.82-5.06,9.49c-0.21,1.09-0.32,2.22-0.32,3.37
		s0.11,2.28,0.32,3.37c0.11,0.57,0.24,1.13,0.4,1.68c2.19,7.53,9.15,13.05,17.38,13.05c9.52,0,17.33-7.39,18.04-16.74h2.55
		c0.22,0.85,0.59,1.64,1.08,2.35c0.23-1.26,0.74-2.39,1.47-3.33c-0.05-0.27-0.09-0.56-0.09-0.85c0-0.48,0.07-0.95,0.21-1.39
		l-0.08-1.09l-0.03-0.42l-0.21-2.68c-0.85,0.72-1.52,1.63-1.96,2.67c-0.27,0.63-0.46,1.3-0.55,2.01h-2.38
		c-0.39-5.18-2.96-9.76-6.81-12.82l5.42-8.03l4.03,9.35l2.16,5.01c0-1.39,0.2-2.79,0.56-4.18c0,0,0,0,0,0
		C-5279.01,928.12-5278.93,927.83-5278.84,927.54z M-5302.48,955.8c-6.36,0-11.83-3.88-14.16-9.4c-0.78-1.84-1.21-3.86-1.21-5.98
		c0-3.19,0.98-6.16,2.65-8.61c0.44-0.64,0.93-1.24,1.46-1.81c1.42-1.53,3.13-2.77,5.06-3.63c1.9-0.84,4-1.32,6.21-1.32
		c2.69,0,5.23,0.7,7.43,1.93l-8.56,12.68c-0.02,0.04-0.03,0.08-0.05,0.12c-0.04,0.08-0.08,0.17-0.11,0.26
		c-0.03,0.09-0.04,0.17-0.05,0.27c0,0.04-0.03,0.08-0.03,0.13c0,0.04,0.02,0.08,0.03,0.13c0.01,0.09,0.03,0.18,0.05,0.27
		c0,0.02,0.01,0.03,0.02,0.04c0.02,0.07,0.04,0.13,0.08,0.19c0.03,0.06,0.07,0.12,0.12,0.17c0.01,0.01,0.01,0.02,0.02,0.04
		c0.06,0.08,0.12,0.14,0.2,0.2c0.03,0.03,0.05,0.07,0.09,0.09c0.05,0.03,0.1,0.05,0.15,0.07c0.05,0.02,0.09,0.05,0.14,0.06
		c0.15,0.06,0.31,0.1,0.47,0.1h15.3C-5287.88,949.63-5294.47,955.8-5302.48,955.8z M-5299.91,939.06l7.12-10.55
		c3.13,2.55,5.23,6.3,5.61,10.55H-5299.91z"/>
	<path d="M-5262.02,917c0.42-0.88,0.76-1.78,0.98-2.73c0.21-0.89,0.33-1.82,0.33-2.81c0-5.34-3.65-10.33-11.74-10.33
		c-3.24,0-6.7,0.85-9.07,2.19c-0.35,0.2-0.68,0.41-0.98,0.62l0.54,1.42l1.14,3.01c1.76-1.34,4.57-2.18,7.1-2.18
		c4.43,0.07,6.68,2.46,6.68,6.05c0,0.69-0.1,1.37-0.26,2.03c-0.22,0.91-0.59,1.81-1.11,2.73c-0.83,1.5-2.02,3.07-3.55,4.86
		c-1.52,1.83-2.62,3.64-3.35,5.42c-0.37,0.91-0.64,1.81-0.82,2.7c-0.19,0.96-0.28,1.91-0.27,2.83c0.01,0.4,0.03,0.81,0.07,1.2
		l0.12,1.52l0.02,0.31h3.5h1.98l-0.07-1.83c0-0.05,0-0.1-0.01-0.15c-0.06-1.34,0.06-2.61,0.41-3.87c0.25-0.9,0.61-1.8,1.1-2.71
		c0.62-1.16,1.45-2.35,2.5-3.6C-5264.82,921.39-5263.12,919.28-5262.02,917z"/>
	<path d="M-5270.77,942.26c-0.71-0.63-1.63-1-2.73-1c-0.09,0-0.17,0.02-0.25,0.02c-1.37,0.07-2.51,0.72-3.2,1.76
		c-0.16,0.24-0.3,0.49-0.41,0.77c-0.23,0.56-0.35,1.19-0.35,1.87c0,2.46,1.69,4.36,4.15,4.36c0.48,0,0.93-0.07,1.34-0.19
		c1.8-0.54,2.87-2.17,2.87-4.17c0-0.25-0.03-0.49-0.06-0.72C-5269.56,943.84-5270.04,942.91-5270.77,942.26z"/>
</g>
<path class="st4" d="M818.86,1116.07v-0.51c0-1.08-0.87-1.95-1.95-1.95c-1.08,0-1.95,0.87-1.95,1.95v0.51c0,0.79,0,1.52-0.14,2.31
	h-22.84c-0.14-0.79-0.14-1.52-0.14-2.31v-0.51c0-1.08-0.87-1.95-1.95-1.95s-1.95,0.87-1.95,1.95v0.51c0,8.02,4.19,15.18,10.84,19.3
	c-7.23,3.47-10.84,7.66-10.84,12.57c0,4.91,3.69,9.11,10.84,12.57c-6.72,4.12-10.84,11.35-10.84,19.3v0.51
	c0,1.08,0.87,1.95,1.95,1.95s1.95-0.87,1.95-1.95v-0.51c0-0.79,0.07-1.52,0.14-2.31h22.91c0.07,0.79,0.07,1.52,0.07,2.31v0.51
	c0,1.08,0.87,1.95,1.95,1.95c1.08,0,1.95-0.87,1.95-1.95v-0.51c0-8.02-4.19-15.18-10.84-19.3c7.23-3.47,10.84-7.66,10.84-12.57
	c0-4.91-3.69-9.11-10.84-12.57C814.75,1131.24,818.86,1124.09,818.86,1116.07z M814.24,1121.34c-0.43,1.37-0.94,2.67-1.66,3.83
	h-18.36c-0.65-1.23-1.23-2.53-1.66-3.83H814.24z M814.96,1147.94c0,0.65-0.14,1.3-0.36,1.95h-22.4c-0.29-0.65-0.36-1.3-0.36-1.95
	s0.14-1.3,0.36-1.95h22.47C814.89,1146.64,814.96,1147.29,814.96,1147.94z M812.58,1152.85c-2.31,2.24-5.85,4.05-9.18,5.42
	c-3.32-1.3-6.87-3.11-9.18-5.42H812.58z M794.22,1143.02c2.31-2.24,5.85-4.05,9.18-5.42c3.32,1.3,6.87,3.11,9.18,5.42H794.22z
	 M792.56,1174.53c0.43-1.37,0.94-2.67,1.66-3.83h18.36c0.65,1.23,1.23,2.53,1.66,3.83H792.56z M810.48,1167.67h-14.16
	c1.88-2.17,4.26-3.97,7.08-5.13C806.22,1163.69,808.6,1165.5,810.48,1167.67z M803.4,1133.41c-2.82-1.23-5.2-2.96-7.08-5.13h14.16
	C808.6,1130.38,806.22,1132.18,803.4,1133.41z"/>
<g>
	<path class="st5" d="M53.87,33.24l-2.45,0.91c-0.09,0.03-0.13,0.13-0.1,0.22l0.07,0.18c0.03,0.09,0.13,0.13,0.22,0.1l3.25-1.21
		c0.09-0.03,0.13-0.13,0.1-0.22l-0.07-0.18c-0.03-0.09-0.13-0.13-0.22-0.1L53.87,33.24z"/>
	<path class="st5" d="M54.2,30.9l-1.88,0.7l-1.88,0.7c-0.21,0.08-0.32,0.32-0.24,0.53l0.03,0.07c0.04,0.12,0.14,0.2,0.25,0.24
		c0.09,0.03,0.19,0.04,0.28,0l0.2-0.08c0.02-0.01,0.03-0.02,0.05-0.03l3.25-1.21c0.02-0.01,0.04,0,0.06-0.01l0.19-0.07
		c0.04-0.02,0.07-0.04,0.11-0.07c0.14-0.11,0.2-0.29,0.13-0.46l-0.02-0.07C54.65,30.93,54.41,30.83,54.2,30.9z"/>
	<path class="st5" d="M52.58,30.23l1.21-0.45c0.01,0,0.02,0,0.03,0c0.01,0,0.02,0,0.03,0l0.13-0.05c0.24-0.09,0.37-0.35,0.31-0.59
		c0-0.02,0-0.04-0.01-0.06l-0.03-0.07c-0.1-0.26-0.39-0.4-0.65-0.3l-0.47,0.17c0,0,0,0,0,0l-1.21,0.45l-0.39,0.14l-0.3,0.11
		l-1.76,0.66c-0.25,0.1-0.38,0.37-0.3,0.63c0,0.01,0,0.02,0,0.02l0.03,0.07c0.1,0.26,0.39,0.4,0.65,0.3l0.13-0.05
		c0.02-0.01,0.03-0.02,0.05-0.03l0.03-0.01l1.28-0.48L52.58,30.23z"/>
	<path class="st5" d="M79.09,56.73l-4.43-7.04v-3.13c0-0.06,0-0.13,0-0.19V46.3v-0.1c0-0.06,0-0.12,0-0.18
		c0-9.89-8.04-17.93-17.93-17.93c-0.09,0-0.18,0.01-0.27,0.01c0.01,0.02,0.02,0.03,0.03,0.05c0.19,0.52,0.24,1.03,0.16,1.52
		c0.13,0.19,0.25,0.39,0.33,0.61c0.14,0.38,0.2,0.77,0.18,1.15c2.41-0.02,4.81,0.53,6.75,1.7c3.08,1.87,4.77,5.18,4.77,8.85
		c0,3.55-3.8,4.44-6.53,4.8c-3.97,0.52-7.42,2.32-11.27,3.29c-3.2,0.81-6.24,0.15-6.59-3.76c-0.39-4.36,0.97-8.85,4.2-11.75
		c-0.21-0.25-0.4-0.52-0.52-0.85c-0.09-0.24-0.13-0.48-0.16-0.71c-0.39-0.32-0.69-0.73-0.88-1.21c-0.09-0.23-0.14-0.46-0.17-0.68
		c-4.8,3.22-7.97,8.7-7.97,14.9c0,4.73,1.81,9.16,5.11,12.53v15.85c0,0.46,0.37,0.83,0.83,0.83h19.31l-0.01,0.01
		c0.46,0,0.83-0.37,0.83-0.83v-5.79h5.17c2.54,0,4.61-2.07,4.61-4.61v-5.39L78.52,58c0.28-0.04,0.51-0.22,0.63-0.48
		C79.26,57.26,79.24,56.97,79.09,56.73z"/>
	<path class="st5" d="M41.26,24.15c0.01,0,0.01,0,0.02,0.01c0.01,0.01,0.02,0.02,0.03,0.03c0.08,0.05,0.17,0.11,0.29,0.18
		c0.02,0.01,0.04,0.03,0.1,0.06c0.01,0,0.17,0.1,0.41,0.26c0.18,0.12,0.41,0.28,0.68,0.49c0.97,0.74,2.41,1.99,3.51,3.67
		c0.19,0.29,0.42,0.54,0.68,0.74c0.33,0.26,0.7,0.44,1.09,0.55c-0.03,0.08-0.06,0.17-0.07,0.25c-0.06,0.3-0.04,0.61,0.07,0.92
		l0.02,0.06l0,0.01c0,0.01,0.01,0.02,0.02,0.03c0.18,0.45,0.53,0.78,0.96,0.95c-0.06,0.29-0.07,0.59,0.04,0.88l0.02,0.07
		c0,0,0,0,0,0.01c0.05,0.13,0.14,0.24,0.22,0.35c0.03,0.05,0.06,0.11,0.09,0.15c0.19,0.21,0.43,0.35,0.7,0.43
		c-0.01,0.18,0.01,0.37,0.08,0.55l0.07,0.18c0.09,0.24,0.26,0.43,0.45,0.58c0.36,0.28,0.84,0.4,1.3,0.22l3.25-1.21
		c0.46-0.17,0.75-0.58,0.84-1.03c0.04-0.24,0.05-0.48-0.04-0.72l-0.07-0.18c-0.07-0.18-0.17-0.34-0.3-0.47
		c0.12-0.2,0.2-0.42,0.23-0.66c0.01-0.1,0-0.2-0.01-0.3c-0.01-0.13-0.01-0.27-0.06-0.4c0,0,0-0.01,0-0.01l-0.03-0.07
		c-0.11-0.3-0.32-0.52-0.55-0.7c0.21-0.41,0.26-0.89,0.09-1.35c0,0,0,0,0-0.01c0,0,0-0.01,0-0.01l-0.03-0.07
		c-0.06-0.15-0.14-0.28-0.23-0.41c-0.15-0.2-0.33-0.36-0.54-0.47c0.22-0.34,0.39-0.72,0.46-1.13c0.06-0.33,0.08-0.67,0.03-1.02
		c-0.24-1.76-0.02-3.58,0.24-4.9c0.08-0.4,0.16-0.75,0.23-1.04c0.13-0.53,0.24-0.86,0.24-0.87c0-0.02,0.01-0.04,0.02-0.06
		c0.56-1.99,0.48-4.06-0.25-5.99c-1.86-4.98-7.42-7.52-12.41-5.66c-4.98,1.86-7.52,7.42-5.66,12.41
		C38.23,21.39,39.53,23.01,41.26,24.15z M50.07,31.16l-0.03,0.01c-0.02,0.01-0.03,0.02-0.05,0.03l-0.13,0.05
		c-0.26,0.1-0.55-0.03-0.65-0.3l-0.03-0.07c0-0.01,0-0.02,0-0.02c-0.08-0.26,0.05-0.53,0.3-0.63l1.76-0.66l0.3-0.11l0.39-0.14
		l1.21-0.45c0,0,0,0,0,0l0.47-0.17c0.26-0.1,0.55,0.03,0.65,0.3l0.03,0.07c0.01,0.02,0,0.04,0.01,0.06c0.06,0.25-0.06,0.5-0.31,0.59
		l-0.13,0.05c-0.01,0-0.02,0-0.03,0c-0.01,0-0.02,0-0.03,0l-1.21,0.45l-1.23,0.46L50.07,31.16z M54.9,33.04l0.07,0.18
		c0.03,0.09-0.01,0.19-0.1,0.22l-3.25,1.21c-0.09,0.03-0.19-0.01-0.22-0.1l-0.07-0.18c-0.03-0.09,0.01-0.19,0.1-0.22l2.45-0.91
		l0.81-0.3C54.77,32.91,54.87,32.95,54.9,33.04z M54.73,31.15l0.02,0.07c0.06,0.17,0,0.35-0.13,0.46c-0.03,0.03-0.07,0.05-0.11,0.07
		l-0.19,0.07c-0.02,0.01-0.04,0-0.06,0.01l-3.25,1.21c-0.02,0.01-0.03,0.02-0.05,0.03l-0.2,0.08c-0.09,0.04-0.19,0.03-0.28,0
		c-0.11-0.04-0.2-0.12-0.25-0.24l-0.03-0.07c-0.08-0.21,0.03-0.45,0.24-0.53l1.88-0.7l1.88-0.7C54.41,30.83,54.65,30.93,54.73,31.15
		z M43.57,8.16c4.37-1.63,9.24,0.59,10.87,4.96c0.64,1.71,0.71,3.54,0.21,5.29c-0.14,0.42-1.22,3.91-0.75,7.31
		c0.02,0.19,0.01,0.37-0.02,0.55c-0.01,0.08-0.03,0.16-0.05,0.24c-0.13,0.48-0.44,0.87-0.88,1.11l-0.41-1.09l-0.02-0.07l-2.58-6.92
		l0.14-4.48c0.01-0.33-0.25-0.6-0.58-0.61c-0.33-0.01-0.6,0.25-0.61,0.58l-0.14,4.6c0,0.08,0.01,0.15,0.04,0.23l2.65,7.09l0.42,1.14
		l-0.25,0.09l-0.88,0.33l-0.25,0.09l-0.42-1.14l0,0l-2.64-7.08c-0.03-0.07-0.07-0.14-0.12-0.2l-3.12-3.38
		c-0.22-0.24-0.6-0.26-0.84-0.04c-0.24,0.22-0.26,0.6-0.04,0.84l3.03,3.29l2.6,6.95l0.01,0.03l0.41,1.11
		c-0.47,0.12-0.95,0.05-1.36-0.18c-0.11-0.06-0.22-0.13-0.32-0.21c-0.13-0.12-0.26-0.24-0.37-0.4c-1.96-3.01-4.86-4.72-4.95-4.77
		c-0.05-0.03-0.1-0.07-0.15-0.1c-0.07-0.04-0.13-0.08-0.2-0.12c-0.03-0.03-0.07-0.04-0.1-0.06c-1.51-0.99-2.64-2.41-3.27-4.11
		C36.98,14.67,39.2,9.79,43.57,8.16z"/>
	<path class="st5" d="M41.81,5.15c0.11,0.31,0.46,0.46,0.77,0.35c0.31-0.11,0.46-0.46,0.35-0.77l-1.02-2.74
		c-0.11-0.31-0.46-0.46-0.77-0.35c-0.31,0.11-0.46,0.46-0.35,0.77L41.81,5.15z"/>
	<path class="st5" d="M35.24,19.3l-2.74,1.02c-0.31,0.11-0.46,0.46-0.35,0.77c0.11,0.31,0.46,0.46,0.77,0.35l2.74-1.02
		c0.31-0.11,0.46-0.46,0.35-0.77C35.9,19.34,35.55,19.18,35.24,19.3z"/>
	<path class="st5" d="M57.58,12.23l2.74-1.02c0.31-0.11,0.46-0.46,0.35-0.77c-0.11-0.31-0.46-0.46-0.77-0.35l-2.74,1.02
		c-0.31,0.11-0.46,0.46-0.35,0.77C56.93,12.19,57.27,12.34,57.58,12.23z"/>
	<path class="st5" d="M35.94,10.51l-2.68-1.18c-0.3-0.13-0.65,0-0.78,0.3c-0.13,0.3,0,0.65,0.3,0.78l2.68,1.18
		c0.15,0.06,0.31,0.06,0.45,0.01c0.15-0.05,0.27-0.16,0.33-0.32C36.38,11,36.25,10.64,35.94,10.51z"/>
	<path class="st5" d="M56.88,21.03l2.68,1.18c0.15,0.06,0.31,0.06,0.45,0.01c0.15-0.05,0.27-0.16,0.33-0.32
		c0.13-0.3,0-0.65-0.3-0.78l-2.68-1.18c-0.23-0.1-0.49-0.04-0.66,0.13c-0.05,0.05-0.09,0.11-0.13,0.18
		c-0.06,0.14-0.06,0.3-0.01,0.44C56.61,20.83,56.72,20.96,56.88,21.03z"/>
	<path class="st5" d="M51.15,5.73c0.15,0.07,0.32,0.07,0.46,0.02c0.15-0.05,0.26-0.16,0.33-0.3L53.2,2.8
		c0.14-0.3,0.02-0.65-0.28-0.79c-0.3-0.14-0.65-0.02-0.79,0.28l-1.25,2.64C50.73,5.23,50.85,5.59,51.15,5.73z"/>
	<path class="st5" d="M41.56,25.78c-0.27-0.07-0.56,0.05-0.68,0.31l-1.25,2.64c-0.14,0.3-0.02,0.65,0.28,0.79
		c0.15,0.07,0.32,0.07,0.46,0.02c0.14-0.05,0.26-0.16,0.33-0.3l1.25-2.64c0.09-0.19,0.06-0.4-0.04-0.57
		c-0.06-0.09-0.13-0.17-0.24-0.23C41.63,25.79,41.6,25.79,41.56,25.78z"/>
</g>
</svg>
