<?xml version="1.0" encoding="utf-8"?>
<!-- Generator: Adobe Illustrator 28.1.0, SVG Export Plug-In . SVG Version: 6.00 Build 0)  -->
<svg version="1.1" id="Layer_1" xmlns="http://www.w3.org/2000/svg" xmlns:xlink="http://www.w3.org/1999/xlink" x="0px" y="0px"
	 viewBox="0 0 110.55 76.54" style="enable-background:new 0 0 110.55 76.54;" xml:space="preserve">
<style type="text/css">
	.st0{display:none;}
	.st1{display:inline;fill:none;}
</style>
<g id="Layer_2_00000073722119373351752270000017113015111246931634_" class="st0">
	<line class="st1" x1="-24.13" y1="74.54" x2="142.13" y2="74.54"/>
	<line class="st1" x1="-24.13" y1="2" x2="142.13" y2="2"/>
</g>
<g>
	<path d="M-6205.14,2572.35c2.38-0.86,3.64-3.44,2.84-5.82s-3.44-3.64-5.82-2.84c-2.38,0.79-3.64,3.44-2.84,5.82
		C-6210.17,2571.96-6207.52,2573.21-6205.14,2572.35z"/>
	<path d="M-6194.76,2567.33c0.07-0.26,0.07-0.53,0.13-0.79c0.13-1.12-0.73-2.18-1.85-2.32c-0.2,0-0.4,0-0.6,0
		c-1.46-1.72-2.98-3.37-4.76-4.9c-0.46-0.4-1.12-0.33-1.52,0.13c-0.4,0.46-0.33,1.12,0.13,1.52c1.65,1.39,3.11,2.98,4.5,4.63
		c-0.07,0.13-0.07,0.26-0.07,0.46c-0.66,5.89-2.45,6.48-9.2,8.67c-0.99,0.33-1.59,1.39-1.39,2.38c0,0,0.79,5.23,1.59,8.93
		c0.4,1.92,1.59,3.18,3.31,3.64l0.99,4.7l-2.12,4.83c-0.53,1.19,0,2.58,1.19,3.18c0.33,0.13,0.66,0.2,0.99,0.2
		c0.93,0,1.79-0.53,2.18-1.39l2.45-5.49c0.2-0.46,0.26-0.99,0.13-1.46l-0.99-4.7l3.04-0.46l2.32,3.64c0.46,0.73,1.26,1.12,2.05,1.12
		c0.46,0,0.86-0.13,1.26-0.4c1.12-0.73,1.46-2.18,0.73-3.31l-3.18-4.96c-0.53-0.79-1.46-1.26-2.38-1.06l-4.43,0.66l-0.73-8.2
		c2.71-1.32,4.56-3.04,5.62-6.35c11.31,18.06,10.78,43.6,10.78,43.86c0,0.6,0.46,1.06,1.06,1.12l0,0c0.6,0,1.06-0.46,1.06-1.06
		c0-0.4,0.2-9.46-2.05-20.77C-6186.02,2585.58-6189,2575.66-6194.76,2567.33z"/>
	<path d="M-6150.23,2607.15h-26.33v-41.88c0-0.6-0.46-1.06-1.06-1.06c-0.6,0-1.06,0.46-1.06,1.06v48.89c0,0.6,0.46,1.06,1.06,1.06
		h27.39c0.6,0,1.06-0.46,1.06-1.06v-5.95C-6149.17,2607.61-6149.64,2607.15-6150.23,2607.15z"/>
	<path d="M-6187.81,2561.17c0.2,0,0.46-0.07,0.6-0.2c3.31-2.38,7.41-3.57,11.51-3.37l-1.19,1.06c-0.46,0.4-0.46,1.06-0.13,1.52
		c0.2,0.26,0.53,0.4,0.79,0.4s0.53-0.07,0.73-0.26l3.24-2.78c0.46-0.4,0.46-1.06,0.13-1.52l-2.78-3.24
		c-0.4-0.46-1.06-0.46-1.52-0.13c-0.46,0.4-0.46,1.06-0.13,1.52l1.12,1.26c-4.63-0.2-9.2,1.12-12.97,3.77
		c-0.46,0.33-0.6,0.99-0.26,1.52C-6188.47,2560.97-6188.14,2561.17-6187.81,2561.17z"/>
</g>
<path d="M55.29,1.4c-19.61,0-35.55,15.94-35.55,35.55c0,16.43,11.17,30.25,26.34,34.3v3.88h2.29v-4.38c0.01,0,0.02-0.04,0.02-0.12
	c2.11,0.42,4.31,0.65,6.55,0.65c1.5,0,2.98-0.1,4.43-0.3V52.06c3.6,3.12,6.35,5.5,10.45,9.06c0.15,0.2,0.38,0.36,0.6,0.5
	c0.25,0.16,0.54,0.28,0.85,0.32l2.79,0.42c1.16,0.17,2.24-0.63,2.41-1.79l3.14-18.79c0.13-0.75-0.16-1.48-0.7-1.94v-4.16
	c2.77-1.13,4.79-3.95,4.9-7.32c0.15-4.45-3.01-8.27-7.17-8.44h0c-0.02,0-0.03,0-0.05,0c-0.26-0.01-0.52-0.02-0.77,0
	c-3.78,0.29-6.78,3.71-6.92,7.87h0.05l-0.05,0.27c0,0.02,0,0.03,0,0.05c0,3.45,2.02,6.34,4.88,7.52v3.51
	c-0.59,0.3-1.05,0.89-1.17,1.59l-1.84,10.93l-11.45-9.88c0-0.01,0-0.04,0-0.05c-0.28-1.28-1.4-2.24-2.76-2.24H33.88
	c-1.57,0-2.81,1.29-2.81,2.86v17.37c-0.43-0.46-0.84-0.93-1.24-1.42V42.35c0-1.18-0.94-2.12-2.12-2.12h-2.86
	c-1.18,0-2.14,0.94-2.14,2.12v1.1c-0.41-2.1-0.65-4.27-0.65-6.5c0-18.38,14.85-33.23,33.23-33.23c18.38,0,33.21,14.85,33.21,33.23
	c0,15.72-10.85,28.88-25.49,32.36l-0.97,0.15l0.12,1.05c0.01,0.17,0.02,0.26,0.02,0.27v4.36h2.29v-3.88
	c15.17-4.05,26.34-17.87,26.34-34.3C90.81,17.34,74.9,1.4,55.29,1.4L55.29,1.4z M45.21,16.81c-5.87,0-10.63,4.81-10.63,10.68
	s4.76,10.6,10.63,10.6s10.6-4.74,10.6-10.6C55.81,21.62,51.07,16.81,45.21,16.81L45.21,16.81z M76.02,21.82
	c0.19-0.01,0.33-0.01,0.52,0c0.01,0,0.04,0,0.05,0c3.01,0.14,5.48,2.97,5.38,6.47c-0.07-0.07-0.15-0.1-0.25-0.1h-0.5
	c-0.21,0-0.37,0.17-0.37,0.37v3.21c-0.08,0.12-0.17,0.24-0.25,0.35v-3.56c0-0.28-0.17-0.5-0.45-0.5h-3.98
	c-0.23,0-0.44,0.16-0.5,0.37l-2.02,1.79l-0.35-1.94c-0.02-0.12-0.09-0.22-0.2-0.27v-0.65c0.5-0.21,0.85-0.72,0.85-1.32v-0.02
	c-0.02-0.73-0.55-1.35-1.22-1.39c-0.03-0.03-0.09,0-0.12,0c-0.73,0.03-1.3,0.69-1.27,1.47c0.02,0.59,0.42,1.07,0.9,1.27v0.77
	c-0.09,0.08-0.15,0.17-0.12,0.3l0.55,3.34c0.03,0.2,0.22,0.33,0.42,0.3l0.5-0.07c0.06-0.01,0.08-0.04,0.12-0.07
	c0.04-0.03,0.06-0.04,0.1-0.07c0.72-0.63,1.23-1.04,1.87-1.59v4.06c0.51,0.11,1.1,0.17,1.69,0.07c-0.19,0.18-0.3,0.43-0.3,0.7v4.13
	l-1.39-0.17v-3.96c0-0.21-0.06-0.41-0.19-0.58c-0.13-0.17-0.31-0.29-0.51-0.34c-2.36-0.68-4.19-3.07-4.21-6.02v-0.02l0.02-0.25h0
	c0-0.01,0-0.02,0-0.02C70.91,24.53,73.23,22.02,76.02,21.82L76.02,21.82z M78.14,24.08c-1.03,0-1.84,0.84-1.84,1.87
	c0,1.03,0.81,1.89,1.84,1.89s1.87-0.86,1.87-1.89C80.01,24.92,79.17,24.08,78.14,24.08z M72.61,24.93c0.53-0.02,1.02,0.47,1.05,1.1
	v0.02c-0.01,0.52-0.36,0.98-0.77,1.1c-0.07,0.02-0.13,0.08-0.12,0.15v0.7l-0.22,0.02v-0.72c0-0.02-0.01-0.05-0.02-0.07
	c0.08,0.01,0.15-0.03,0.22-0.05v-0.62c0.1,0.09,0.19,0.15,0.3,0.25c0.01,0-0.01,0.02,0,0.02h0.07c0.03,0,0.07,0.01,0.07-0.02
	l0.1-0.5c0-0.02,0.01-0.09,0-0.1v-0.1c0.03-0.01,0-0.05,0.02-0.07c-0.02,0.03-0.04,0.02-0.07,0.02l0,0c0,0.01,0,0.02,0,0.02
	c0,0.01,0,0.02,0,0.02v0.1h-0.05v-0.1h0c0.01,0,0.02,0,0.02,0c0-0.01,0-0.02,0-0.02c0-0.01,0-0.02,0-0.02c-0.01,0-0.02,0-0.02,0
	c-0.01,0-0.02,0-0.02,0c-0.03-0.01-0.05,0-0.07-0.02c0.02,0.02,0,0.06,0.02,0.07v0.1c-0.02,0.01-0.02,0.03-0.02,0.05l-0.05,0.3
	l-0.3-0.25c-0.01-0.03-0.04-0.1-0.07-0.1h-0.62c-0.04,0-0.07,0.06-0.07,0.1v0.5c-0.01-0.01-0.04-0.03-0.05-0.05V26.3
	c0-0.03,0.01-0.05-0.02-0.05h-0.07c-0.03,0-0.1,0.02-0.1,0.05c-0.01-0.07-0.02-0.13-0.02-0.2C71.67,25.48,72.08,24.96,72.61,24.93
	L72.61,24.93z M73.09,26.02c-0.02-0.03-0.05-0.08-0.05-0.12c0-0.05,0.02-0.1,0.05-0.12c-0.02,0.04-0.07,0.08-0.07,0.12
	C73.01,25.96,73.05,25.98,73.09,26.02z M73.09,25.77c0.03-0.03,0.06-0.03,0.1-0.02c0.08,0,0.18,0.05,0.17,0.15
	c0,0.04-0.03,0.1-0.05,0.12c0.03-0.04,0.07-0.07,0.07-0.12c0-0.12-0.09-0.22-0.2-0.22C73.12,25.68,73.12,25.72,73.09,25.77
	L73.09,25.77z M72.34,25.6c-0.16,0-0.27,0.14-0.27,0.3c0,0.16,0.11,0.27,0.27,0.27c0.16,0,0.32-0.11,0.32-0.27S72.5,25.6,72.34,25.6
	z"/>
</svg>
