<?xml version="1.0" encoding="utf-8"?>
<!-- Generator: Adobe Illustrator 28.1.0, SVG Export Plug-In . SVG Version: 6.00 Build 0)  -->
<svg version="1.1" id="Layer_1" xmlns="http://www.w3.org/2000/svg" xmlns:xlink="http://www.w3.org/1999/xlink" x="0px" y="0px"
	 viewBox="0 0 110.55 76.54" style="enable-background:new 0 0 110.55 76.54;" xml:space="preserve">
<style type="text/css">
	.st0{display:none;}
	.st1{display:inline;fill:none;}
</style>
<g id="Layer_2_00000073722119373351752270000017113015111246931634_" class="st0">
	<line class="st1" x1="-24.13" y1="74.54" x2="142.13" y2="74.54"/>
	<line class="st1" x1="-24.13" y1="2" x2="142.13" y2="2"/>
</g>
<g>
	<path d="M-6205.14,2572.35c2.38-0.86,3.64-3.44,2.84-5.82s-3.44-3.64-5.82-2.84c-2.38,0.79-3.64,3.44-2.84,5.82
		C-6210.17,2571.96-6207.52,2573.21-6205.14,2572.35z"/>
	<path d="M-6194.76,2567.33c0.07-0.26,0.07-0.53,0.13-0.79c0.13-1.12-0.73-2.18-1.85-2.32c-0.2,0-0.4,0-0.6,0
		c-1.46-1.72-2.98-3.37-4.76-4.9c-0.46-0.4-1.12-0.33-1.52,0.13c-0.4,0.46-0.33,1.12,0.13,1.52c1.65,1.39,3.11,2.98,4.5,4.63
		c-0.07,0.13-0.07,0.26-0.07,0.46c-0.66,5.89-2.45,6.48-9.2,8.67c-0.99,0.33-1.59,1.39-1.39,2.38c0,0,0.79,5.23,1.59,8.93
		c0.4,1.92,1.59,3.18,3.31,3.64l0.99,4.7l-2.12,4.83c-0.53,1.19,0,2.58,1.19,3.18c0.33,0.13,0.66,0.2,0.99,0.2
		c0.93,0,1.79-0.53,2.18-1.39l2.45-5.49c0.2-0.46,0.26-0.99,0.13-1.46l-0.99-4.7l3.04-0.46l2.32,3.64c0.46,0.73,1.26,1.12,2.05,1.12
		c0.46,0,0.86-0.13,1.26-0.4c1.12-0.73,1.46-2.18,0.73-3.31l-3.18-4.96c-0.53-0.79-1.46-1.26-2.38-1.06l-4.43,0.66l-0.73-8.2
		c2.71-1.32,4.56-3.04,5.62-6.35c11.31,18.06,10.78,43.6,10.78,43.86c0,0.6,0.46,1.06,1.06,1.12l0,0c0.6,0,1.06-0.46,1.06-1.06
		c0-0.4,0.2-9.46-2.05-20.77C-6186.02,2585.58-6189,2575.66-6194.76,2567.33z"/>
	<path d="M-6150.23,2607.15h-26.33v-41.88c0-0.6-0.46-1.06-1.06-1.06c-0.6,0-1.06,0.46-1.06,1.06v48.89c0,0.6,0.46,1.06,1.06,1.06
		h27.39c0.6,0,1.06-0.46,1.06-1.06v-5.95C-6149.17,2607.61-6149.64,2607.15-6150.23,2607.15z"/>
	<path d="M-6187.81,2561.17c0.2,0,0.46-0.07,0.6-0.2c3.31-2.38,7.41-3.57,11.51-3.37l-1.19,1.06c-0.46,0.4-0.46,1.06-0.13,1.52
		c0.2,0.26,0.53,0.4,0.79,0.4s0.53-0.07,0.73-0.26l3.24-2.78c0.46-0.4,0.46-1.06,0.13-1.52l-2.78-3.24
		c-0.4-0.46-1.06-0.46-1.52-0.13c-0.46,0.4-0.46,1.06-0.13,1.52l1.12,1.26c-4.63-0.2-9.2,1.12-12.97,3.77
		c-0.46,0.33-0.6,0.99-0.26,1.52C-6188.47,2560.97-6188.14,2561.17-6187.81,2561.17z"/>
</g>
<g>
	<path d="M57.84,57.03v-6.74h-1.86v6.74c-2.14,0.42-3.77,2.32-3.77,4.56c0,2.23,1.63,4.14,3.77,4.56v6h1.86v-6
		c2.14-0.42,3.77-2.32,3.77-4.56C61.61,59.35,59.98,57.45,57.84,57.03z"/>
	<path d="M73.27,42.9l-1.12,1.49l3.02,2.18H57.84v-6.97c2.23-0.42,3.95-2.37,3.95-4.7l0,0c5.02-1.21,8.79-5.72,8.79-11.11v-3.02
		c0.7,0.79,1.77,1.3,2.93,1.3V18.4c0-1.58-0.98-2.93-2.32-3.53v-0.65h3.58l-0.42-0.7c-0.79-1.39-2.18-2.28-3.77-2.37V9.24
		c0-2.65-2.18-4.83-4.88-4.83h-4.51l0,0c0,2.65,2.18,4.83,4.88,4.83h0.28c-2.32,0-4.23,1.86-4.23,4.23v4.18
		c0,1.53-1.26,2.84-2.84,2.84h-7.62c0-3.81-1.53-7.25-4.04-9.76s-5.95-4.04-9.76-4.04c-3.81,0-7.3,1.53-9.76,4.04l5.02,4.97
		c1.26,1.26,2.93,1.81,4.7,1.81h0.09c0.84,0,1.53,0.33,2.09,0.84c0.51,0.51,0.88,1.26,0.88,2.09v3.39c0,6.23,5.02,11.3,11.25,11.44
		c0.14,2.18,1.81,4,3.95,4.42v6.88h-8.32l-4-2.98H28.04l5.25,3.9l-5.25,3.9h15.71l4-2.98h8.23h1.86h17.34l-2.98,2.23l1.12,1.49
		l6.23-4.65L73.27,42.9z"/>
</g>
</svg>
