<?xml version="1.0" encoding="utf-8"?>
<!-- Generator: Adobe Illustrator 28.1.0, SVG Export Plug-In . SVG Version: 6.00 Build 0)  -->
<svg version="1.1" id="Layer_1" xmlns="http://www.w3.org/2000/svg" xmlns:xlink="http://www.w3.org/1999/xlink" x="0px" y="0px"
	 viewBox="0 0 110.55 76.54" style="enable-background:new 0 0 110.55 76.54;" xml:space="preserve">
<style type="text/css">
	.st0{display:none;}
	.st1{display:inline;fill:none;}
</style>
<g id="Layer_2_00000073722119373351752270000017113015111246931634_" class="st0">
	<line class="st1" x1="-24.13" y1="74.54" x2="142.13" y2="74.54"/>
	<line class="st1" x1="-24.13" y1="2" x2="142.13" y2="2"/>
</g>
<g>
	<path d="M55.1,29.68c-0.4,0-0.72-0.32-0.72-0.72v-1.3c0-0.4,0.32-0.72,0.72-0.72s0.72,0.32,0.72,0.72v1.3
		C55.83,29.36,55.5,29.68,55.1,29.68z"/>
	<path d="M55.1,50.1c-0.4,0-0.72-0.32-0.72-0.72v-1.3c0-0.4,0.32-0.72,0.72-0.72s0.72,0.32,0.72,0.72v1.3
		C55.83,49.78,55.5,50.1,55.1,50.1z"/>
	<path d="M66.11,39.53h-1.3c-0.4,0-0.72-0.32-0.72-0.72c0-0.4,0.32-0.72,0.72-0.72h1.3c0.4,0,0.72,0.32,0.72,0.72
		C66.84,39.2,66.51,39.53,66.11,39.53z"/>
	<path d="M45.69,39.53h-1.45c-0.4,0-0.72-0.32-0.72-0.72c0-0.4,0.32-0.72,0.72-0.72h1.45c0.4,0,0.72,0.32,0.72,0.72
		C46.41,39.2,46.09,39.53,45.69,39.53z"/>
	<path d="M50.55,31.02c-0.26,0-0.5-0.14-0.63-0.36l-0.76-1.32c-0.2-0.35-0.08-0.79,0.27-0.99c0.34-0.2,0.78-0.08,0.98,0.26
		l0.76,1.32c0.2,0.35,0.08,0.79-0.27,0.99C50.81,30.99,50.68,31.02,50.55,31.02L50.55,31.02z"/>
	<path d="M60.76,48.7c-0.26,0-0.5-0.14-0.63-0.36l-0.76-1.32c-0.2-0.35-0.08-0.79,0.27-0.99c0.34-0.2,0.78-0.08,0.98,0.26l0.76,1.32
		c0.2,0.35,0.08,0.79-0.27,0.99C61.01,48.67,60.89,48.7,60.76,48.7L60.76,48.7z"/>
	<path d="M63.43,34.56c-0.4,0-0.72-0.32-0.72-0.72c0-0.26,0.14-0.5,0.36-0.63l1.32-0.76c0.35-0.2,0.79-0.08,0.99,0.27
		c0.2,0.34,0.08,0.78-0.26,0.98l-1.32,0.76C63.68,34.52,63.56,34.56,63.43,34.56z"/>
	<path d="M45.75,44.77c-0.4,0-0.72-0.32-0.73-0.72c0-0.26,0.14-0.5,0.36-0.63l1.32-0.76c0.35-0.2,0.79-0.08,0.99,0.27
		c0.2,0.35,0.08,0.79-0.27,0.99l-1.32,0.76C46,44.74,45.88,44.77,45.75,44.77z"/>
	<path d="M47.09,34.47c-0.13,0-0.25-0.03-0.36-0.1l-1.33-0.76c-0.35-0.2-0.46-0.65-0.26-0.99c0.2-0.34,0.64-0.46,0.98-0.26
		l1.32,0.76c0.35,0.2,0.46,0.64,0.26,0.99C47.58,34.33,47.34,34.47,47.09,34.47L47.09,34.47z"/>
	<path d="M64.77,44.68c-0.13,0-0.25-0.03-0.36-0.1l-1.32-0.76c-0.35-0.2-0.46-0.65-0.26-0.99c0.2-0.34,0.64-0.46,0.98-0.26
		l1.32,0.76c0.35,0.2,0.46,0.64,0.26,0.99C65.27,44.54,65.03,44.68,64.77,44.68L64.77,44.68z"/>
	<path d="M60.02,31.09c-0.4,0-0.72-0.32-0.72-0.72c0-0.13,0.03-0.25,0.1-0.36l0.76-1.32c0.2-0.35,0.65-0.46,0.99-0.26
		c0.34,0.2,0.46,0.64,0.26,0.98l-0.76,1.32C60.51,30.95,60.27,31.09,60.02,31.09z"/>
	<path d="M49.81,48.77c-0.4,0-0.72-0.32-0.72-0.72c0-0.13,0.03-0.25,0.1-0.36l0.76-1.32c0.2-0.35,0.65-0.46,0.99-0.26
		c0.34,0.2,0.46,0.64,0.26,0.98l-0.76,1.32C50.3,48.64,50.07,48.77,49.81,48.77z"/>
	<path d="M55.22,50.63c-6.7,0-12.12-5.43-12.12-12.12s5.43-12.12,12.12-12.12s12.12,5.43,12.12,12.12c0,0,0,0,0,0.01
		C67.34,45.2,61.91,50.62,55.22,50.63z M55.22,27.83c-5.9,0-10.68,4.78-10.68,10.68s4.78,10.68,10.68,10.68
		c5.89,0,10.67-4.77,10.67-10.67C65.9,32.62,61.12,27.84,55.22,27.83z"/>
	<path d="M55.22,44.28c-3.19,0-5.77-2.58-5.77-5.77c0-3.19,2.58-5.77,5.77-5.77c3.19,0,5.77,2.58,5.77,5.77c0,0,0,0.01,0,0.01
		C60.99,41.7,58.41,44.28,55.22,44.28z M55.22,34.18c-2.39,0-4.33,1.93-4.33,4.32c0,2.39,1.93,4.33,4.32,4.33
		c2.39,0,4.32-1.93,4.33-4.32C59.55,36.13,57.61,34.19,55.22,34.18z"/>
	<path d="M55.23,70.32c-13.62,0.01-25.73-8.66-30.12-21.55c-0.14-0.37,0.04-0.79,0.42-0.94c0.37-0.14,0.79,0.04,0.94,0.42
		c0.01,0.02,0.01,0.03,0.02,0.05c4.19,12.31,15.75,20.58,28.75,20.57c1.16,0,2.32-0.07,3.48-0.2c0.4-0.03,0.75,0.26,0.78,0.66
		c0.03,0.38-0.24,0.72-0.62,0.78C57.66,70.25,56.45,70.32,55.23,70.32z"/>
	<path d="M81.42,55.99c-0.14,0-0.27-0.04-0.39-0.11c-0.34-0.22-0.43-0.66-0.22-1c0,0,0,0,0,0c3.13-4.88,4.79-10.56,4.78-16.37
		c0-16.74-13.62-30.36-30.36-30.36c-6.88-0.03-13.56,2.31-18.93,6.62c-5.27,4.22-9,10.07-10.59,16.63
		c-0.08,0.39-0.46,0.64-0.86,0.56c-0.39-0.08-0.64-0.46-0.56-0.86c0-0.01,0.01-0.03,0.01-0.04c1.67-6.88,5.57-13,11.09-17.42
		c13.73-10.96,33.75-8.7,44.71,5.03c4.5,5.64,6.95,12.63,6.94,19.84c0.01,6.08-1.73,12.03-5.01,17.14
		C81.89,55.87,81.66,55.99,81.42,55.99z"/>
	<path d="M82.72,43.24c-0.03,0-0.07,0-0.1-0.01c-0.4-0.05-0.67-0.42-0.62-0.82c0,0,0,0,0,0c1.3-9.39-3.36-16.2-3.41-16.27
		c-0.23-0.33-0.15-0.78,0.18-1.01c0.33-0.23,0.78-0.15,1.01,0.18c0.21,0.29,5.04,7.33,3.66,17.3
		C83.39,42.97,83.08,43.24,82.72,43.24z"/>
	<path d="M54,66.45c-0.03,0-0.05,0-0.08,0c-8.6-0.95-13.56-4.26-15.75-6.15c-0.3-0.26-0.34-0.72-0.07-1.02
		c0.26-0.3,0.72-0.34,1.02-0.07c2.06,1.78,6.75,4.9,14.96,5.81c0.4,0.02,0.71,0.36,0.69,0.76C54.74,66.17,54.4,66.48,54,66.45
		L54,66.45z"/>
	<path d="M31.15,49.09h-8.28c-1.23,0-2.23-1-2.23-2.23V32.92c0-1.23,1-2.23,2.23-2.23h8.28c1.23,0,2.23,1,2.23,2.23v13.93
		C33.38,48.09,32.38,49.09,31.15,49.09z M22.87,32.14c-0.43,0-0.78,0.35-0.78,0.78v13.93c0,0.43,0.35,0.78,0.78,0.78h8.28
		c0.43,0,0.78-0.35,0.78-0.78V32.92c0-0.43-0.35-0.78-0.78-0.78H22.87z"/>
	<path d="M36.66,46.26c-2.08-5.01-2.06-10.65,0.07-15.64l1.33,0.57c-1.97,4.63-1.99,9.87-0.06,14.52L36.66,46.26z"/>
	<path d="M52.56,58.44c-5.32-0.72-10.14-3.54-13.39-7.82l1.16-0.87c3.01,3.97,7.48,6.58,12.42,7.26L52.56,58.44z"/>
	<path d="M57.67,58.46c-0.4,0.02-0.74-0.28-0.77-0.68c-0.02-0.4,0.28-0.74,0.68-0.77c1.78-0.22,3.51-0.7,5.15-1.41
		c0.36-0.18,0.79-0.03,0.97,0.32s0.03,0.79-0.32,0.97c-0.02,0.01-0.05,0.02-0.07,0.03c-1.77,0.78-3.64,1.3-5.55,1.54
		C57.73,58.47,57.7,58.47,57.67,58.46z"/>
	<path d="M74.02,45.66l-1.35-0.52c1.7-4.49,1.61-9.46-0.25-13.89l1.33-0.56C75.76,35.46,75.86,40.82,74.02,45.66z"/>
	<path d="M70.88,27.8c-0.23,0-0.44-0.11-0.58-0.3c-3.04-4.15-7.65-6.86-12.74-7.51c-0.4-0.04-0.69-0.39-0.65-0.79
		c0.04-0.4,0.39-0.69,0.79-0.65c0.01,0,0.03,0,0.04,0.01c5.5,0.7,10.46,3.62,13.74,8.09c0.24,0.32,0.17,0.78-0.16,1.01
		c-0.12,0.09-0.27,0.14-0.42,0.14H70.88z"/>
	<path d="M39.74,27.56c-0.4,0-0.72-0.32-0.72-0.72c0-0.16,0.05-0.31,0.14-0.43c3.28-4.34,8.18-7.17,13.58-7.85
		c0.4-0.06,0.77,0.21,0.83,0.6c0.06,0.4-0.21,0.77-0.6,0.83c-0.02,0-0.03,0-0.05,0.01c-5.01,0.63-9.55,3.26-12.6,7.29
		C40.18,27.45,39.97,27.56,39.74,27.56z"/>
	<path d="M57.42,27.8c-0.4,0-0.72-0.32-0.72-0.72V16.76c0-0.46,0-0.73-1.45-0.73c-1.45,0-1.45,0.28-1.45,0.73v10.31
		c0,0.4-0.32,0.72-0.72,0.72s-0.72-0.32-0.72-0.72V16.76c0-2.18,2.03-2.18,2.9-2.18s2.9,0,2.9,2.18v10.31
		C58.15,27.47,57.82,27.8,57.42,27.8z"/>
	<path d="M55.25,62.36c-0.87,0-2.9,0-2.9-2.18V49.96c0-0.4,0.32-0.72,0.72-0.72s0.72,0.32,0.72,0.72v10.22c0,0.46,0,0.74,1.45,0.74
		c1.45,0,1.45-0.28,1.45-0.74V49.96c0-0.4,0.32-0.72,0.72-0.72c0.4,0,0.72,0.32,0.72,0.72v10.22
		C58.15,62.36,56.12,62.36,55.25,62.36z"/>
	<path d="M44.31,35.42c-0.13,0-0.25-0.03-0.36-0.1l-8.98-5.18c-0.94-0.54-1.12-1.27-1.1-1.79c0.02-0.63,0.33-1.25,0.66-1.82
		s0.71-1.16,1.25-1.49c0.43-0.27,1.16-0.49,2.1,0.06l8.98,5.18c0.35,0.2,0.47,0.64,0.27,0.99c-0.2,0.35-0.64,0.47-0.99,0.27
		c0,0-0.01,0-0.01,0l-8.99-5.19c-0.39-0.22-0.52-0.14-0.61-0.08c-0.27,0.17-0.56,0.64-0.76,0.98s-0.46,0.83-0.47,1.15
		c0,0.1-0.01,0.26,0.38,0.48l8.98,5.18c0.35,0.2,0.46,0.64,0.27,0.99C44.8,35.28,44.56,35.42,44.31,35.42L44.31,35.42z"/>
	<path d="M71.75,46.21c-0.13,0-0.25-0.03-0.36-0.1l-5.55-3.2c-0.35-0.2-0.46-0.65-0.26-0.99c0.2-0.34,0.64-0.46,0.98-0.26l5.55,3.2
		c0.35,0.2,0.46,0.64,0.26,0.99C72.25,46.07,72.01,46.21,71.75,46.21z"/>
	<path d="M66.73,48.36c-0.13,0-0.25-0.03-0.36-0.1l-2.72-1.57c-0.35-0.2-0.46-0.65-0.26-0.99c0.2-0.34,0.64-0.46,0.98-0.26
		l2.71,1.57c0.35,0.2,0.46,0.64,0.26,0.99C67.22,48.22,66.98,48.36,66.73,48.36L66.73,48.36z"/>
	<path d="M36.96,52.18c-0.34,0-0.67-0.1-0.96-0.28c-0.54-0.33-0.92-0.91-1.25-1.49c-0.43-0.75-1.45-2.52,0.43-3.61l8.92-5.15
		c0.35-0.2,0.79-0.09,0.99,0.26c0.2,0.35,0.09,0.79-0.26,0.99c0,0-0.01,0-0.01,0l-8.91,5.15c-0.4,0.23-0.64,0.37,0.09,1.63
		c0.2,0.34,0.49,0.81,0.76,0.98c0.08,0.05,0.22,0.14,0.61-0.08l8.92-5.15c0.35-0.2,0.79-0.08,0.99,0.27
		c0.2,0.34,0.08,0.78-0.26,0.98l-8.92,5.14C37.76,52.05,37.36,52.17,36.96,52.18z"/>
	<path d="M66.38,35.62c-0.4,0-0.72-0.32-0.72-0.72c0-0.26,0.14-0.5,0.36-0.63l8.92-5.14c0.4-0.23,0.64-0.37-0.09-1.63
		c-0.2-0.34-0.49-0.81-0.76-0.98c-0.08-0.05-0.22-0.14-0.61,0.08l-8.92,5.15c-0.35,0.2-0.79,0.09-0.99-0.26
		c-0.2-0.35-0.09-0.79,0.26-0.99c0,0,0.01,0,0.01,0l8.92-5.15c0.94-0.54,1.66-0.33,2.1-0.06c0.53,0.33,0.92,0.91,1.25,1.49
		c0.43,0.75,1.45,2.52-0.43,3.61l-8.92,5.15C66.64,35.59,66.51,35.62,66.38,35.62z"/>
	<path d="M72.78,68.67c-2.52,0-4.18-1.26-4.24-3.24c-0.01-0.4,0.3-0.73,0.7-0.75c0.4-0.01,0.73,0.3,0.75,0.7
		c0.02,0.56,0.33,1.87,2.87,1.84c0.83-0.01,1.63-0.33,2.06-0.82c0.28-0.32,0.4-0.75,0.33-1.17c-0.07-0.52-0.35-1.03-1.91-1.29
		l-0.43-0.07c-1.26-0.19-2.68-0.4-3.65-1.78c-0.39-0.53-0.53-1.2-0.41-1.85c0.19-0.88,0.72-1.64,1.47-2.13
		c1.08-0.72,2.73-0.84,4.12-0.28c1,0.4,1.8,1.2,2.2,2.2c0.16,0.37-0.02,0.79-0.39,0.95c-0.37,0.16-0.79-0.02-0.95-0.39
		c-0.01-0.01-0.01-0.02-0.01-0.04c-0.26-0.63-0.77-1.13-1.4-1.38c-0.94-0.39-2.07-0.33-2.75,0.13c-0.42,0.28-0.73,0.7-0.85,1.19
		c-0.05,0.27,0.01,0.54,0.17,0.76c0.61,0.87,1.53,1.01,2.69,1.18c0.14,0.02,0.3,0.04,0.44,0.07c0.7,0.11,2.85,0.46,3.12,2.53
		c0.12,0.83-0.12,1.67-0.67,2.3c-0.69,0.8-1.89,1.3-3.13,1.33L72.78,68.67z"/>
	<path d="M72.77,58.93c-0.4,0-0.72-0.32-0.72-0.72v-2.32c0-0.4,0.32-0.72,0.72-0.72c0.4,0,0.72,0.32,0.72,0.72v2.32
		C73.5,58.61,73.17,58.93,72.77,58.93z"/>
	<path d="M72.77,70.96c-0.4,0-0.72-0.32-0.72-0.72v-2.32c0-0.4,0.32-0.72,0.72-0.72c0.4,0,0.72,0.32,0.72,0.72v2.32
		C73.5,70.63,73.17,70.96,72.77,70.96z"/>
	<path d="M67.79,53.25c-0.28,0-0.53-0.16-0.65-0.41c-0.14-0.31-0.31-0.62-0.46-0.92c-0.55-1.07-1.12-2.17-1.29-3.55
		c-0.03-0.22,0.05-0.45,0.21-0.61c0.17-0.17,4.29-4.15,12.04-2.36c0.31,0.07,0.54,0.34,0.56,0.66c0.09,2.1-0.06,4.21-0.46,6.28
		c-0.08,0.39-0.46,0.65-0.85,0.57c-0.39-0.08-0.65-0.46-0.57-0.85c0.34-1.77,0.49-3.56,0.46-5.36c-5.62-1.11-8.94,1.11-9.88,1.86
		c0.19,0.96,0.63,1.81,1.08,2.7c0.16,0.31,0.32,0.62,0.48,0.95c0.17,0.36,0.02,0.79-0.34,0.96C68,53.22,67.89,53.25,67.79,53.25z"/>
	<path d="M80.56,55.34c-0.08,0-0.16-0.01-0.23-0.04c-0.38-0.13-0.58-0.54-0.45-0.92c0.49-1.43,0.47-2.54-0.04-3.31
		c-0.76-1.14-2.43-1.26-2.45-1.26c-0.4-0.02-0.71-0.36-0.68-0.76c0.02-0.4,0.36-0.71,0.76-0.68c0.1,0,2.39,0.14,3.56,1.88
		c0.79,1.17,0.87,2.71,0.22,4.59C81.14,55.14,80.87,55.34,80.56,55.34z"/>
	<path d="M78,74.73h-0.05l-10.66-0.03c-4.53-0.01-6.79-1.53-7.89-2.8c-1.3-1.5-1.78-3.54-1.42-6.05c1.03-7.27,6.24-11.77,6.66-12.11
		c0.29-0.28,3.2-2.85,8.14-2.85h0.03c4.91,0.01,7.57,2.54,7.9,2.88c0.49,0.42,5.6,4.94,6.59,12.15c0.34,2.51-0.14,4.55-1.45,6.04
		C84.74,73.23,82.49,74.73,78,74.73z M72.77,52.34c-4.53,0-7.13,2.44-7.16,2.46l-0.04,0.04c-0.05,0.04-5.19,4.38-6.17,11.22
		c-0.29,2.08,0.07,3.73,1.08,4.9c1.72,1.99,5,2.29,6.8,2.3l10.66,0.03c1.8,0,5.07-0.29,6.81-2.27c1.01-1.17,1.39-2.81,1.11-4.89
		c-0.94-6.87-6.06-11.22-6.11-11.26c-0.02-0.02-0.04-0.04-0.06-0.06c-0.02-0.02-2.4-2.45-6.89-2.46L72.77,52.34z"/>
	<path d="M90.3,74.72H53.95c-0.4,0-0.72-0.32-0.72-0.72c0-0.4,0.32-0.72,0.72-0.72H90.3c0.4,0,0.72,0.32,0.72,0.72
		C91.02,74.4,90.7,74.72,90.3,74.72z"/>
	<path d="M27.37,19.69c-0.34,0-0.63-0.24-0.71-0.57c-0.01-0.06-1.36-5.74-6.4-6.87c-0.39-0.09-0.64-0.47-0.55-0.86
		c0.06-0.28,0.29-0.5,0.57-0.55c0.23-0.04,5.68-1.17,6.37-6.87c0.05-0.4,0.41-0.68,0.81-0.63c0.32,0.04,0.57,0.28,0.62,0.6
		c0.23,1.12,0.64,2.2,1.21,3.19c1.22,2.11,2.95,3.36,5.14,3.71c0.4,0.06,0.67,0.43,0.6,0.83c-0.05,0.3-0.27,0.54-0.57,0.6
		c-0.22,0.05-5.53,1.24-6.38,6.82c-0.05,0.35-0.34,0.6-0.69,0.62H27.37z M22.61,11.55c2.48,1.23,3.9,3.38,4.67,5.03
		c0.72-1.74,1.94-3.22,3.52-4.24c0.4-0.27,0.82-0.51,1.25-0.72c-1.65-0.75-3.02-2.04-4.03-3.81c-0.21-0.37-0.41-0.76-0.58-1.15
		c-0.7,1.69-1.9,3.13-3.44,4.12C23.56,11.07,23.09,11.33,22.61,11.55z"/>
	<path d="M82.1,45.68c-0.05,0-0.1-0.01-0.15-0.02c-0.39-0.08-0.64-0.47-0.55-0.86c0,0,0,0,0,0l0.03-0.14
		c0.07-0.39,0.45-0.65,0.84-0.58c0.39,0.07,0.65,0.45,0.58,0.84c0,0.01-0.01,0.03-0.01,0.04l-0.03,0.14
		C82.73,45.44,82.44,45.68,82.1,45.68z"/>
	<path d="M36.69,58.84c-0.2,0-0.4-0.09-0.54-0.24l-0.1-0.11c-0.28-0.29-0.27-0.75,0.02-1.02s0.75-0.27,1.02,0.02
		c0.01,0.01,0.02,0.02,0.03,0.03l0.1,0.11c0.27,0.3,0.24,0.75-0.05,1.02C37.04,58.78,36.87,58.84,36.69,58.84z"/>
	<path d="M24.69,35.33h-0.14c-0.4,0-0.72-0.32-0.72-0.72s0.32-0.72,0.72-0.72h0.14c0.4,0,0.72,0.32,0.72,0.72
		S25.09,35.33,24.69,35.33z"/>
	<path d="M24.69,45.61h-0.14c-0.4,0-0.72-0.32-0.72-0.72s0.32-0.72,0.72-0.72h0.14c0.4,0,0.72,0.32,0.72,0.72
		S25.09,45.61,24.69,45.61z"/>
	<path d="M47.68,25.98c-0.26,0-0.5-0.14-0.63-0.36l-0.07-0.12c-0.2-0.35-0.09-0.79,0.26-0.99c0.35-0.2,0.79-0.09,0.99,0.26
		c0,0,0,0.01,0,0.01l0.07,0.12c0.2,0.35,0.08,0.79-0.27,0.99C47.93,25.94,47.81,25.98,47.68,25.98z"/>
	<path d="M63.18,52.77c-0.26,0-0.5-0.14-0.63-0.36l-0.07-0.12c-0.2-0.35-0.09-0.79,0.26-0.99c0.35-0.2,0.79-0.09,0.99,0.26
		c0,0,0,0.01,0,0.01l0.07,0.12c0.2,0.35,0.08,0.79-0.27,0.99C63.43,52.74,63.31,52.77,63.18,52.77z"/>
	<path d="M63.11,25.98c-0.13,0-0.25-0.03-0.36-0.1c-0.35-0.2-0.46-0.64-0.27-0.99l0.07-0.12c0.2-0.35,0.65-0.46,0.99-0.26
		c0.34,0.2,0.46,0.64,0.26,0.98l-0.07,0.12C63.6,25.84,63.36,25.98,63.11,25.98z"/>
	<path d="M47.61,52.77c-0.13,0-0.25-0.03-0.36-0.1c-0.35-0.2-0.46-0.64-0.27-0.99l0.07-0.12c0.2-0.35,0.65-0.46,0.99-0.26
		c0.34,0.2,0.46,0.64,0.26,0.98l-0.07,0.12C48.11,52.63,47.87,52.77,47.61,52.77z"/>
	<path d="M70.94,39.32H70.8c-0.4,0-0.72-0.32-0.72-0.72c0-0.4,0.32-0.72,0.72-0.72h0.14c0.4,0,0.72,0.32,0.72,0.72
		C71.67,39,71.34,39.32,70.94,39.32z"/>
	<path d="M39.99,39.3h-0.14c-0.4,0-0.72-0.32-0.72-0.72s0.32-0.72,0.72-0.72h0.14c0.4,0,0.72,0.32,0.72,0.72S40.39,39.3,39.99,39.3z
		"/>
</g>
</svg>
