<?xml version="1.0" encoding="utf-8"?>
<!-- Generator: Adobe Illustrator 28.1.0, SVG Export Plug-In . SVG Version: 6.00 Build 0)  -->
<svg version="1.1" id="Layer_1" xmlns="http://www.w3.org/2000/svg" xmlns:xlink="http://www.w3.org/1999/xlink" x="0px" y="0px"
	 viewBox="0 0 110.55 76.54" style="enable-background:new 0 0 110.55 76.54;" xml:space="preserve">
<style type="text/css">
	.st0{display:none;}
	.st1{display:inline;fill:none;}
</style>
<g id="Layer_2_00000073722119373351752270000017113015111246931634_" class="st0">
	<line class="st1" x1="-24.13" y1="74.54" x2="142.13" y2="74.54"/>
	<line class="st1" x1="-24.13" y1="2" x2="142.13" y2="2"/>
</g>
<g>
	<path d="M-6205.14,2572.35c2.38-0.86,3.64-3.44,2.84-5.82s-3.44-3.64-5.82-2.84c-2.38,0.79-3.64,3.44-2.84,5.82
		C-6210.17,2571.96-6207.52,2573.21-6205.14,2572.35z"/>
	<path d="M-6194.76,2567.33c0.07-0.26,0.07-0.53,0.13-0.79c0.13-1.12-0.73-2.18-1.85-2.32c-0.2,0-0.4,0-0.6,0
		c-1.46-1.72-2.98-3.37-4.76-4.9c-0.46-0.4-1.12-0.33-1.52,0.13c-0.4,0.46-0.33,1.12,0.13,1.52c1.65,1.39,3.11,2.98,4.5,4.63
		c-0.07,0.13-0.07,0.26-0.07,0.46c-0.66,5.89-2.45,6.48-9.2,8.67c-0.99,0.33-1.59,1.39-1.39,2.38c0,0,0.79,5.23,1.59,8.93
		c0.4,1.92,1.59,3.18,3.31,3.64l0.99,4.7l-2.12,4.83c-0.53,1.19,0,2.58,1.19,3.18c0.33,0.13,0.66,0.2,0.99,0.2
		c0.93,0,1.79-0.53,2.18-1.39l2.45-5.49c0.2-0.46,0.26-0.99,0.13-1.46l-0.99-4.7l3.04-0.46l2.32,3.64c0.46,0.73,1.26,1.12,2.05,1.12
		c0.46,0,0.86-0.13,1.26-0.4c1.12-0.73,1.46-2.18,0.73-3.31l-3.18-4.96c-0.53-0.79-1.46-1.26-2.38-1.06l-4.43,0.66l-0.73-8.2
		c2.71-1.32,4.56-3.04,5.62-6.35c11.31,18.06,10.78,43.6,10.78,43.86c0,0.6,0.46,1.06,1.06,1.12l0,0c0.6,0,1.06-0.46,1.06-1.06
		c0-0.4,0.2-9.46-2.05-20.77C-6186.02,2585.58-6189,2575.66-6194.76,2567.33z"/>
	<path d="M-6150.23,2607.15h-26.33v-41.88c0-0.6-0.46-1.06-1.06-1.06c-0.6,0-1.06,0.46-1.06,1.06v48.89c0,0.6,0.46,1.06,1.06,1.06
		h27.39c0.6,0,1.06-0.46,1.06-1.06v-5.95C-6149.17,2607.61-6149.64,2607.15-6150.23,2607.15z"/>
	<path d="M-6187.81,2561.17c0.2,0,0.46-0.07,0.6-0.2c3.31-2.38,7.41-3.57,11.51-3.37l-1.19,1.06c-0.46,0.4-0.46,1.06-0.13,1.52
		c0.2,0.26,0.53,0.4,0.79,0.4s0.53-0.07,0.73-0.26l3.24-2.78c0.46-0.4,0.46-1.06,0.13-1.52l-2.78-3.24
		c-0.4-0.46-1.06-0.46-1.52-0.13c-0.46,0.4-0.46,1.06-0.13,1.52l1.12,1.26c-4.63-0.2-9.2,1.12-12.97,3.77
		c-0.46,0.33-0.6,0.99-0.26,1.52C-6188.47,2560.97-6188.14,2561.17-6187.81,2561.17z"/>
</g>
<g>
	<path d="M26.75,25.17c2.72-0.98,4.16-3.93,3.25-6.66c-0.91-2.72-3.93-4.16-6.66-3.25c-2.72,0.91-4.16,3.93-3.25,6.66
		C21,24.71,24.02,26.15,26.75,25.17z"/>
	<path d="M38.62,19.42c0.08-0.3,0.08-0.61,0.15-0.91c0.15-1.29-0.83-2.5-2.12-2.65c-0.23,0-0.45,0-0.68,0
		c-1.66-1.97-3.4-3.86-5.45-5.6c-0.53-0.45-1.29-0.38-1.74,0.15c-0.45,0.53-0.38,1.29,0.15,1.74c1.89,1.59,3.55,3.4,5.14,5.29
		c-0.08,0.15-0.08,0.3-0.08,0.53c-0.76,6.73-2.8,7.41-10.51,9.91c-1.13,0.38-1.82,1.59-1.59,2.72c0,0,0.91,5.97,1.82,10.21
		c0.45,2.19,1.82,3.63,3.78,4.16l1.13,5.37l-2.42,5.52c-0.61,1.36,0,2.95,1.36,3.63c0.38,0.15,0.76,0.23,1.13,0.23
		c1.06,0,2.04-0.61,2.5-1.59l2.8-6.28c0.23-0.53,0.3-1.13,0.15-1.66l-1.13-5.37l3.48-0.53l2.65,4.16c0.53,0.83,1.44,1.29,2.34,1.29
		c0.53,0,0.98-0.15,1.44-0.45c1.29-0.83,1.66-2.5,0.83-3.78l-3.63-5.67c-0.61-0.91-1.66-1.44-2.72-1.21l-5.07,0.76l-0.83-9.38
		c3.1-1.51,5.22-3.48,6.43-7.26C50.87,43.4,50.27,72.59,50.27,72.89c0,0.68,0.53,1.21,1.21,1.29l0,0c0.68,0,1.21-0.53,1.21-1.21
		c0-0.45,0.23-10.81-2.34-23.75C48.6,40.29,45.2,28.95,38.62,19.42z"/>
	<path d="M89.52,64.95h-30.1V17.08c0-0.68-0.53-1.21-1.21-1.21S57,16.4,57,17.08v55.89c0,0.68,0.53,1.21,1.21,1.21h31.31
		c0.68,0,1.21-0.53,1.21-1.21v-6.81C90.73,65.48,90.2,64.95,89.52,64.95z"/>
	<path d="M46.56,12.39c0.23,0,0.53-0.08,0.68-0.23c3.78-2.72,8.47-4.08,13.16-3.86l-1.36,1.21c-0.53,0.45-0.53,1.21-0.15,1.74
		c0.23,0.3,0.61,0.45,0.91,0.45s0.61-0.08,0.83-0.3l3.71-3.18c0.53-0.45,0.53-1.21,0.15-1.74l-3.18-3.71
		c-0.45-0.53-1.21-0.53-1.74-0.15c-0.53,0.45-0.53,1.21-0.15,1.74l1.29,1.44c-5.29-0.23-10.51,1.29-14.82,4.31
		c-0.53,0.38-0.68,1.13-0.3,1.74C45.81,12.16,46.18,12.39,46.56,12.39z"/>
</g>
</svg>
