<?xml version="1.0" encoding="utf-8"?>
<!-- Generator: Adobe Illustrator 28.1.0, SVG Export Plug-In . SVG Version: 6.00 Build 0)  -->
<svg version="1.1" id="Layer_1" xmlns="http://www.w3.org/2000/svg" xmlns:xlink="http://www.w3.org/1999/xlink" x="0px" y="0px"
	 viewBox="0 0 110.55 76.54" style="enable-background:new 0 0 110.55 76.54;" xml:space="preserve">
<style type="text/css">
	.st0{display:none;}
	.st1{display:inline;fill:none;}
</style>
<g id="Layer_2_00000073722119373351752270000017113015111246931634_" class="st0">
	<line class="st1" x1="-24.13" y1="74.54" x2="142.13" y2="74.54"/>
	<line class="st1" x1="-24.13" y1="2" x2="142.13" y2="2"/>
</g>
<g>
	<path d="M-6205.14,2572.35c2.38-0.86,3.64-3.44,2.84-5.82s-3.44-3.64-5.82-2.84c-2.38,0.79-3.64,3.44-2.84,5.82
		C-6210.17,2571.96-6207.52,2573.21-6205.14,2572.35z"/>
	<path d="M-6194.76,2567.33c0.07-0.26,0.07-0.53,0.13-0.79c0.13-1.12-0.73-2.18-1.85-2.32c-0.2,0-0.4,0-0.6,0
		c-1.46-1.72-2.98-3.37-4.76-4.9c-0.46-0.4-1.12-0.33-1.52,0.13c-0.4,0.46-0.33,1.12,0.13,1.52c1.65,1.39,3.11,2.98,4.5,4.63
		c-0.07,0.13-0.07,0.26-0.07,0.46c-0.66,5.89-2.45,6.48-9.2,8.67c-0.99,0.33-1.59,1.39-1.39,2.38c0,0,0.79,5.23,1.59,8.93
		c0.4,1.92,1.59,3.18,3.31,3.64l0.99,4.7l-2.12,4.83c-0.53,1.19,0,2.58,1.19,3.18c0.33,0.13,0.66,0.2,0.99,0.2
		c0.93,0,1.79-0.53,2.18-1.39l2.45-5.49c0.2-0.46,0.26-0.99,0.13-1.46l-0.99-4.7l3.04-0.46l2.32,3.64c0.46,0.73,1.26,1.12,2.05,1.12
		c0.46,0,0.86-0.13,1.26-0.4c1.12-0.73,1.46-2.18,0.73-3.31l-3.18-4.96c-0.53-0.79-1.46-1.26-2.38-1.06l-4.43,0.66l-0.73-8.2
		c2.71-1.32,4.56-3.04,5.62-6.35c11.31,18.06,10.78,43.6,10.78,43.86c0,0.6,0.46,1.06,1.06,1.12l0,0c0.6,0,1.06-0.46,1.06-1.06
		c0-0.4,0.2-9.46-2.05-20.77C-6186.02,2585.58-6189,2575.66-6194.76,2567.33z"/>
	<path d="M-6150.23,2607.15h-26.33v-41.88c0-0.6-0.46-1.06-1.06-1.06c-0.6,0-1.06,0.46-1.06,1.06v48.89c0,0.6,0.46,1.06,1.06,1.06
		h27.39c0.6,0,1.06-0.46,1.06-1.06v-5.95C-6149.17,2607.61-6149.64,2607.15-6150.23,2607.15z"/>
	<path d="M-6187.81,2561.17c0.2,0,0.46-0.07,0.6-0.2c3.31-2.38,7.41-3.57,11.51-3.37l-1.19,1.06c-0.46,0.4-0.46,1.06-0.13,1.52
		c0.2,0.26,0.53,0.4,0.79,0.4s0.53-0.07,0.73-0.26l3.24-2.78c0.46-0.4,0.46-1.06,0.13-1.52l-2.78-3.24
		c-0.4-0.46-1.06-0.46-1.52-0.13c-0.46,0.4-0.46,1.06-0.13,1.52l1.12,1.26c-4.63-0.2-9.2,1.12-12.97,3.77
		c-0.46,0.33-0.6,0.99-0.26,1.52C-6188.47,2560.97-6188.14,2561.17-6187.81,2561.17z"/>
</g>
<g>
	<path d="M82.39,41.24c-6.1-5.18-13.84-5.75-18.06-5.6c0.38-4.66,0.36-9.17,0.15-13.22c2.99,2.84,7.03,6,10.98,6.99
		c1.28,0.32,2.59-0.46,2.91-1.74c0.32-1.28-0.46-2.59-1.74-2.91c-1.78-0.45-3.56-1.47-5.22-2.68c1.06-0.98,2.69-2.08,4.76-2.19
		c1.32-0.07,2.34-1.2,2.27-2.52c-0.07-1.32-1.2-2.34-2.52-2.27c-3.66,0.2-6.48,2.28-8.15,3.9c-1.91-1.83-3.35-3.52-3.93-4.22
		c-0.64-5.48-1.44-9-1.44-9c-0.29-1.29-1.58-2.1-2.87-1.81c-1.29,0.29-2.1,1.58-1.81,2.87c0,0,3.42,15.1,1.56,31.16
		c-0.09,0.75,0.19,1.51,0.74,2.02c0.55,0.52,1.32,0.74,2.07,0.61c0,0,10-1.85,17.2,4.26c1.01,0.86,2.52,0.73,3.38-0.28
		C83.53,43.61,83.4,42.09,82.39,41.24z"/>
	<path d="M61.67,45.46c-1.18,0-2.19,0.86-2.37,2.03c0,0-2.08,13.34,5.18,24.09c0.74,1.1,2.23,1.38,3.33,0.64
		c1.1-0.74,1.38-2.23,0.64-3.33c-4.58-6.78-4.81-14.76-4.61-18.51c7.35,0.82,12.12,5.57,12.12,5.57c0.93,0.94,2.45,0.94,3.39,0
		c0.94-0.93,0.94-2.45,0-3.39C79.34,52.56,72.28,45.46,61.67,45.46z"/>
	<path d="M32.02,29.31c1.23,0.49,2.62-0.12,3.11-1.35c3.93-9.99,14.71-14.66,14.71-14.66c1.14-0.5,1.71-1.78,1.32-2.95l-1.6-4.79
		c-0.42-1.26-1.78-1.93-3.03-1.52c-1.26,0.42-1.93,1.78-1.52,3.03l0.95,2.84c-3.73,2.08-11.79,7.42-15.29,16.29
		C30.19,27.44,30.79,28.83,32.02,29.31z"/>
	<path d="M51.28,54.38l1.6-30.36c0.04-0.83-0.35-1.62-1.03-2.09c-0.68-0.47-1.56-0.56-2.32-0.23C41.63,25.13,37.15,34,37.15,34
		c-0.59,1.18-0.11,2.62,1.07,3.22c1.18,0.59,2.62,0.11,3.22-1.07c0,0,2.26-4.59,6.41-7.87l-1.27,24.05
		c-1.47,0.42-3.63,1.2-5.96,2.59c-1.75-0.5-6.31-2.18-8.83-6.64c-0.66-1.15-2.12-1.56-3.27-0.9c-1.15,0.66-1.56,2.12-0.9,3.27
		c2.28,4.02,5.78,6.35,8.55,7.66c-2.04,1.95-3.97,4.47-5.45,7.75c-0.55,1.2-0.01,2.63,1.2,3.17c1.2,0.55,2.63,0.01,3.17-1.2
		c4.52-9.98,14.13-11.4,14.13-11.4C50.35,56.47,51.22,55.52,51.28,54.38z"/>
	<path d="M52.81,63.26c-0.32-1.28-1.6-2.06-2.88-1.75c-6.65,1.59-9.59,7.68-9.59,7.68c-0.58,1.19-0.08,2.63,1.11,3.2
		c1.19,0.58,2.63,0.08,3.2-1.11c0,0,1.3-2.68,4.16-4.24l0.94,3.78c0.32,1.28,1.62,2.06,2.91,1.75c1.28-0.32,2.06-1.62,1.74-2.91
		L52.81,63.26z"/>
</g>
</svg>
