<?xml version="1.0" encoding="utf-8"?>
<!-- Generator: Adobe Illustrator 28.1.0, SVG Export Plug-In . SVG Version: 6.00 Build 0)  -->
<svg version="1.1" id="Layer_1" xmlns="http://www.w3.org/2000/svg" xmlns:xlink="http://www.w3.org/1999/xlink" x="0px" y="0px"
	 viewBox="0 0 110.55 76.54" style="enable-background:new 0 0 110.55 76.54;" xml:space="preserve">
<style type="text/css">
	.st0{display:none;}
	.st1{display:inline;fill:none;}
	.st2{fill:#808080;}
</style>
<g id="Layer_2_00000073722119373351752270000017113015111246931634_" class="st0">
	<line class="st1" x1="-24.13" y1="74.54" x2="142.13" y2="74.54"/>
	<line class="st1" x1="-24.13" y1="2" x2="142.13" y2="2"/>
</g>
<path class="st2" d="M3521.66,2698.06c6.59,0,11.96-5.36,11.96-11.96s-5.36-11.96-11.96-11.96"/>
<path class="st2" d="M3502.66,2733.64h29.9h8.09v-22.07c0-5.45-3.31-10.13-8.02-12.16c-2.98,2.47-6.81,3.95-10.97,3.95"/>
<path class="st2" d="M3585.78,2698.06c6.59,0,11.96-5.36,11.96-11.96s-5.36-11.96-11.96-11.96c-6.59,0-11.96,5.36-11.96,11.96
	S3579.19,2698.06,3585.78,2698.06z"/>
<path class="st2" d="M3604.78,2711.57c0-5.45-3.31-10.13-8.02-12.16c-2.98,2.47-6.81,3.95-10.97,3.95s-7.99-1.48-10.97-3.95
	c-4.71,2.03-8.02,6.71-8.02,12.16v22.07h8.09h29.9"/>
<path class="st2" d="M3553.72,2691.6c7.4,0,13.42-6.02,13.42-13.42s-6.02-13.42-13.42-13.42c-7.4,0-13.42,6.02-13.42,13.42
	S3546.32,2691.6,3553.72,2691.6z"/>
<path class="st2" d="M3571.09,2695.34c-1.38-1.41-3.08-2.51-4.97-3.19c-3.31,2.93-7.64,4.73-12.4,4.73s-9.09-1.8-12.4-4.73
	c-1.89,0.68-3.59,1.78-4.97,3.19c5.71,3.16,9.59,9.24,9.59,16.22v22.07h15.55v-22.07
	C3561.49,2704.59,3565.38,2698.5,3571.09,2695.34z"/>
<g>
	<path d="M62.13,70.87h-7.04V13.14c-2.6,1.93-3.85,3.18-10.5,7.71l-3.76-5.4c4.14-2.79,10.89-7.33,15.23-11.95h6.07V70.87z"/>
</g>
</svg>
