<?xml version="1.0" encoding="utf-8"?>
<!-- Generator: Adobe Illustrator 28.1.0, SVG Export Plug-In . SVG Version: 6.00 Build 0)  -->
<svg version="1.1" id="Layer_1" xmlns="http://www.w3.org/2000/svg" xmlns:xlink="http://www.w3.org/1999/xlink" x="0px" y="0px"
	 viewBox="0 0 110.55 76.54" style="enable-background:new 0 0 110.55 76.54;" xml:space="preserve">
<style type="text/css">
	.st0{display:none;}
	.st1{display:inline;fill:none;}
	.st2{fill:#808080;}
</style>
<g id="Layer_2_00000073722119373351752270000017113015111246931634_" class="st0">
	<line class="st1" x1="-24.13" y1="74.54" x2="142.13" y2="74.54"/>
	<line class="st1" x1="-24.13" y1="2" x2="142.13" y2="2"/>
</g>
<path d="M-5351.56,183.13c0-4.69,1.76-9.61,2.23-11.95c0.47-2.23,1.29-10.9-7.97-10.9c-9.26,0-8.44,8.67-7.97,10.9
	c0.47,2.23,2.23,7.26,2.23,11.95c0,5.39-2.34,10.08-4.57,15.47c-2.81-7.5-6.44-13.83-6.44-21.09c0-5.62,2.11-11.6,2.69-14.3
	c0.47-2.81,1.52-13.12-9.61-13.12s-10.08,10.31-9.61,13.01c0.47,2.69,2.69,8.67,2.69,14.3c0,7.26-3.75,13.71-6.44,21.09
	c-2.11-5.27-4.57-10.08-4.57-15.47c0-4.69,1.76-9.61,2.23-11.95c0.47-2.23,1.29-10.9-7.97-10.9s-8.44,8.67-7.97,10.9
	s2.23,7.26,2.23,11.95c0,9.73-7.85,17.58-7.85,30c0,10.55,4.57,24.14,6.8,25.54h13.71c0.94-0.59,2.11-3.05,3.4-6.68
	c1.64,6.21,3.75,11.13,5.16,11.95h16.4c1.41-0.82,3.52-5.74,5.27-11.95c1.17,3.52,2.46,6.09,3.4,6.68h13.59
	c2.23-1.29,6.8-15,6.8-25.54C-5343.71,200.59-5351.56,192.74-5351.56,183.13z M-5361.05,165.09c0.7-0.82,1.99-1.29,3.75-1.29
	s3.05,0.47,3.75,1.29c1.17,1.41,1.05,4.1,0.82,5.39c-0.12,0.47-0.23,1.29-0.47,2.11c-0.23,1.05-0.59,2.23-0.94,3.63h-6.21
	c-0.23-1.41-0.59-2.58-0.94-3.63c-0.23-0.82-0.47-1.64-0.47-2.11C-5362.11,169.19-5362.23,166.49-5361.05,165.09z M-5354.96,184.3
	h-4.69c0-0.47,0.12-0.82,0.12-1.29c0-0.82-0.12-1.64-0.12-2.58h4.8c-0.12,0.82-0.12,1.64-0.12,2.58
	C-5355.08,183.48-5354.96,183.95-5354.96,184.3z M-5386.01,155.36c0.94-1.17,2.69-1.76,5.04-1.76c2.34,0,4.1,0.59,5.04,1.76
	c1.52,1.87,1.41,5.39,1.05,7.03c-0.12,0.59-0.35,1.52-0.59,2.58c-0.35,1.29-0.7,2.69-1.05,4.22h-8.91c-0.35-1.52-0.7-2.93-1.05-4.22
	c-0.23-1.05-0.59-1.99-0.59-2.58C-5387.42,160.63-5387.54,157.23-5386.01,155.36z M-5377.46,178.91h-7.03
	c0-0.47,0.12-1.05,0.12-1.52c0-1.05-0.12-1.99-0.12-3.05h7.03c-0.12,0.94-0.12,1.99-0.12,3.05
	C-5377.58,177.86-5377.58,178.44-5377.46,178.91z M-5408.39,165.09c0.7-0.82,1.99-1.29,3.75-1.29s3.05,0.47,3.75,1.29
	c1.17,1.41,1.05,4.1,0.82,5.39c-0.12,0.47-0.23,1.29-0.47,2.11c-0.23,1.05-0.59,2.23-0.94,3.63h-6.21
	c-0.35-1.41-0.59-2.58-0.94-3.63c-0.23-0.82-0.47-1.64-0.47-2.11C-5409.45,169.19-5409.56,166.49-5408.39,165.09z M-5402.3,184.3
	h-4.69c0-0.47,0-0.82,0-1.29c0-0.82,0-1.64-0.12-2.58h4.8c-0.12,0.82-0.12,1.64-0.12,2.58
	C-5402.42,183.48-5402.3,183.95-5402.3,184.3z M-5399.49,235.04h-10.31c-1.64-3.16-4.92-13.24-4.92-22.03
	c0-5.86,1.99-10.78,3.98-15.47c1.17-2.81,2.46-5.74,3.16-8.91h5.86c0.7,3.05,1.99,5.98,3.16,8.91c0.82,2.11,1.76,4.22,2.46,6.44
	c-0.7,2.93-1.17,5.98-1.17,9.37c0,3.75,0.47,7.73,1.17,11.6C-5397.14,229.41-5398.55,233.28-5399.49,235.04z M-5374.41,240.31
	h-13.12c-1.41-2.34-3.52-8.55-4.92-15.35c-0.82-3.87-1.29-7.85-1.29-11.6c0-3.4,0.59-6.44,1.41-9.37c0.94-3.28,2.23-6.44,3.52-9.49
	c1.41-3.4,2.81-6.8,3.75-10.43h8.55c0.82,3.63,2.34,7.03,3.75,10.43c1.29,3.05,2.58,6.09,3.52,9.49c0.82,2.93,1.41,5.98,1.41,9.37
	c0,3.75-0.47,7.85-1.29,11.6C-5370.78,231.76-5373.01,237.97-5374.41,240.31z M-5352.15,235.04h-10.31
	c-0.94-1.76-2.34-5.62-3.4-10.08c0.7-3.87,1.17-7.97,1.17-11.6c0-3.4-0.47-6.44-1.17-9.37c0.7-2.23,1.64-4.34,2.46-6.44
	c1.17-2.81,2.46-5.74,3.16-8.91h5.86c0.7,3.05,1.99,5.98,3.16,8.91c1.99,4.69,3.98,9.61,3.98,15.47
	C-5347.23,221.8-5350.51,231.87-5352.15,235.04z"/>
<g>
	<path d="M2837.21,223.42c-0.28,0-0.58-0.01-0.88-0.04c-1.76-0.17-3.86-1.99-6.4-5.58c-1.96-2.76-4.19-6.59-6.65-11.36
		c-4.17-8.13-7.85-16.84-8.92-19.52c-1.59-3.99-0.94-7.98,1.88-11.54c2.08-2.63,4.59-4.09,4.7-4.15l0.03-0.01
		c6.97-3.65,11.54-4.92,14.41-4c1.2,0.38,2.1,1.15,2.67,2.28c1.87,3.68-1.47,8.94-1.61,9.16l-0.05,0.07l-0.06,0.06
		c-3.8,3.83-5.87,7.96-6.15,12.27c-0.52,7.94,3.64,11.82,7.32,14.31c4.09,2.77,7.44,8.29,6.78,11.15c-0.66,2.82-1.84,4.8-3.51,5.89
		C2839.75,223.09,2838.58,223.42,2837.21,223.42z M2821.75,172.66c-0.18,0.11-2.43,1.46-4.25,3.77c-2.44,3.11-2.99,6.43-1.61,9.88
		c1.06,2.65,4.71,11.3,8.85,19.38c2.42,4.71,4.61,8.47,6.53,11.17c2.91,4.11,4.52,4.83,5.22,4.9c2.06,0.19,4.94-0.18,6.21-5.6
		c0.42-1.8-2.14-6.74-6.1-9.42c-3.73-2.52-8.61-6.91-8.03-15.78c0.31-4.69,2.51-9.14,6.55-13.25c0.36-0.58,2.83-4.81,1.49-7.47
		c-0.37-0.74-0.93-1.21-1.71-1.46C2832.53,168.03,2828.11,169.33,2821.75,172.66z"/>
	<path d="M2816.86,173.11c-0.29,0-0.59-0.07-0.88-0.2c-0.87-0.41-1.6-1.41-1.96-2.67c-0.59-2.05-0.05-4.02,1.25-4.58
		c0.5-0.22,1.07-0.2,1.61,0.05c0.87,0.41,1.6,1.4,1.97,2.67c0.59,2.05,0.05,4.01-1.25,4.58l0,0
		C2817.36,173.06,2817.11,173.11,2816.86,173.11z M2816,167.14c-0.04,0-0.07,0.01-0.08,0.02c-0.38,0.17-0.71,1.3-0.33,2.62
		c0.26,0.9,0.74,1.47,1.09,1.64c0.16,0.07,0.23,0.04,0.26,0.03c0.38-0.17,0.71-1.3,0.33-2.63c-0.26-0.9-0.74-1.47-1.09-1.64
		C2816.1,167.15,2816.04,167.14,2816,167.14z"/>
	<path d="M2821.58,169.13c-0.3,0-0.6-0.07-0.9-0.21c-0.89-0.42-1.65-1.45-2.02-2.75c-0.61-2.11-0.06-4.14,1.28-4.72
		c0.51-0.22,1.1-0.2,1.64,0.05c0.89,0.42,1.65,1.45,2.02,2.75c0.61,2.11,0.06,4.14-1.28,4.72l0,0
		C2822.09,169.08,2821.84,169.13,2821.58,169.13z M2820.69,162.94c-0.05,0-0.08,0.01-0.1,0.02c-0.41,0.18-0.76,1.37-0.36,2.76
		c0.27,0.95,0.78,1.55,1.15,1.73c0.18,0.08,0.26,0.05,0.29,0.03l0,0c0.41-0.18,0.76-1.37,0.36-2.76c-0.27-0.95-0.77-1.55-1.15-1.72
		C2820.8,162.95,2820.74,162.94,2820.69,162.94z"/>
	<path d="M2827.12,166.98c-0.31,0-0.63-0.07-0.94-0.22c-0.94-0.44-1.73-1.53-2.13-2.91c-0.64-2.23-0.07-4.37,1.34-4.98
		c0.54-0.23,1.14-0.21,1.71,0.06c0.94,0.44,1.74,1.53,2.13,2.91c0.65,2.23,0.07,4.37-1.34,4.98
		C2827.65,166.93,2827.39,166.98,2827.12,166.98z M2826.16,160.36c-0.06,0-0.11,0.02-0.13,0.03c-0.47,0.2-0.86,1.48-0.41,3.02
		c0.32,1.1,0.88,1.7,1.26,1.88c0.21,0.1,0.32,0.05,0.36,0.03l0,0c0.47-0.2,0.86-1.48,0.41-3.02c-0.32-1.1-0.88-1.7-1.26-1.88
		C2826.3,160.37,2826.22,160.36,2826.16,160.36z"/>
	<path d="M2834,165.94c-0.48,0-0.96-0.15-1.4-0.44c-1.09-0.72-1.9-2.23-2.16-4.04c-0.19-1.31-0.07-2.64,0.33-3.73
		c0.45-1.22,1.22-2.04,2.15-2.29c0.68-0.19,1.38-0.06,2.03,0.36c1.09,0.71,1.9,2.23,2.16,4.04c0.19,1.31,0.07,2.64-0.33,3.73
		c-0.45,1.22-1.21,2.04-2.15,2.29C2834.42,165.91,2834.21,165.94,2834,165.94z M2833.54,156.98c-0.06,0-0.12,0.01-0.19,0.03l0,0
		c-0.87,0.24-1.61,2.09-1.3,4.22c0.19,1.32,0.75,2.46,1.44,2.9c0.25,0.16,0.48,0.21,0.7,0.15c0.86-0.24,1.6-2.09,1.3-4.22
		c-0.19-1.32-0.75-2.46-1.44-2.91C2833.87,157.04,2833.71,156.98,2833.54,156.98z"/>
	<path d="M2812.84,177.71c-0.28,0-0.56-0.06-0.83-0.19c-0.8-0.38-1.48-1.29-1.81-2.45c-0.54-1.88-0.04-3.7,1.17-4.22
		c0.47-0.21,1.01-0.19,1.51,0.05c0.8,0.38,1.48,1.29,1.81,2.45h0c0.54,1.88,0.04,3.69-1.17,4.22
		C2813.31,177.66,2813.08,177.71,2812.84,177.71z M2812.06,172.34c-0.02,0-0.03,0.01-0.04,0.01c-0.28,0.12-0.59,1.07-0.25,2.26
		c0.23,0.79,0.63,1.28,0.94,1.43c0.11,0.05,0.15,0.03,0.17,0.03c0.28-0.12,0.59-1.07,0.24-2.26l0,0c-0.23-0.79-0.63-1.28-0.94-1.43
		C2812.13,172.35,2812.09,172.34,2812.06,172.34z"/>
	<path d="M2855.69,224.22c-1.06,0-2.02-0.23-2.9-0.69c-1.76-0.93-3.13-2.79-4.05-5.54c-0.94-2.78,1.88-8.6,5.69-11.74
		c3.43-2.83,7.2-7.09,5.93-14.94c-0.69-4.26-3.14-8.17-7.28-11.63l-0.07-0.05l-0.05-0.07c-0.16-0.21-3.98-5.12-2.47-8.97l0,0
		c0.46-1.18,1.28-2.03,2.44-2.52c2.77-1.18,7.44-0.35,14.73,2.61l0.03,0.01c0.11,0.05,2.75,1.26,5.07,3.68
		c3.14,3.28,4.17,7.19,2.97,11.31c-0.81,2.76-3.64,11.79-7.02,20.28c-1.99,4.99-3.85,9.01-5.54,11.94c-2.19,3.81-4.1,5.83-5.84,6.16
		C2856.74,224.16,2856.2,224.22,2855.69,224.22z M2854.18,178.47c4.41,3.7,7.03,7.93,7.78,12.57c1.42,8.78-3.03,13.6-6.5,16.47
		c-3.68,3.04-5.77,8.2-5.18,9.96c1.78,5.28,4.68,5.37,6.71,4.98c0.69-0.13,2.22-1.01,4.73-5.37c1.65-2.87,3.48-6.82,5.44-11.73
		c3.36-8.43,6.17-17.39,6.97-20.13c1.04-3.56,0.18-6.82-2.54-9.68c-2.03-2.13-4.4-3.26-4.59-3.35c-6.65-2.71-11.17-3.59-13.45-2.62
		c-0.75,0.32-1.26,0.85-1.56,1.62C2850.91,173.95,2853.77,177.92,2854.18,178.47z"/>
	<path d="M2871.74,172.16c-0.19,0-0.38-0.03-0.56-0.09c-1.35-0.44-2.07-2.35-1.68-4.44c0.24-1.29,0.88-2.35,1.7-2.84
		c0.51-0.3,1.07-0.37,1.6-0.2c1.35,0.44,2.07,2.35,1.68,4.44v0c-0.24,1.29-0.88,2.35-1.7,2.84
		C2872.44,172.06,2872.09,172.16,2871.74,172.16z M2872.23,166.13c-0.04,0-0.1,0.01-0.19,0.07c-0.34,0.2-0.76,0.81-0.93,1.74
		c-0.26,1.36,0.18,2.45,0.58,2.58c0.03,0.01,0.1,0.03,0.25-0.06c0.34-0.2,0.76-0.82,0.93-1.74v0c0.26-1.36-0.18-2.45-0.57-2.58
		C2872.28,166.14,2872.26,166.13,2872.23,166.13z"/>
	<path d="M2866.65,168.66c-0.19,0-0.39-0.03-0.58-0.09c-1.39-0.45-2.13-2.42-1.72-4.58c0.25-1.33,0.91-2.43,1.75-2.93
		c0.52-0.31,1.1-0.38,1.63-0.21c1.39,0.45,2.13,2.41,1.72,4.58v0c-0.25,1.33-0.91,2.43-1.75,2.93
		C2867.37,168.56,2867.01,168.66,2866.65,168.66z M2867.16,162.4c-0.05,0-0.12,0.01-0.22,0.07c-0.36,0.21-0.8,0.86-0.98,1.83
		c-0.27,1.43,0.19,2.58,0.62,2.72c0.03,0.01,0.12,0.04,0.29-0.06c0.36-0.21,0.8-0.86,0.98-1.83c0.27-1.43-0.19-2.58-0.61-2.71
		C2867.22,162.4,2867.2,162.4,2867.16,162.4z"/>
	<path d="M2860.93,167.05c-0.2,0-0.4-0.03-0.6-0.09c-1.46-0.47-2.23-2.55-1.8-4.83c0.26-1.41,0.95-2.57,1.85-3.1
		c0.54-0.32,1.15-0.4,1.7-0.22c1.46,0.47,2.23,2.55,1.8,4.83v0c-0.27,1.41-0.96,2.57-1.85,3.1
		C2861.68,166.94,2861.3,167.05,2860.93,167.05z M2861.47,160.35c-0.06,0-0.15,0.02-0.26,0.09c-0.36,0.22-0.86,0.87-1.07,1.99
		c-0.3,1.58,0.21,2.81,0.7,2.97c0.04,0.01,0.16,0.05,0.36-0.07c0.36-0.22,0.86-0.87,1.07-1.99c0.3-1.58-0.21-2.81-0.7-2.97
		C2861.55,160.36,2861.52,160.35,2861.47,160.35z"/>
	<path d="M2853.95,166.66c-0.14,0-0.27-0.01-0.41-0.04c-0.96-0.17-1.79-0.91-2.36-2.08c-0.51-1.05-0.75-2.36-0.69-3.68l0,0
		c0.09-1.83,0.75-3.42,1.77-4.23c0.6-0.48,1.29-0.67,1.99-0.55c0.96,0.17,1.8,0.91,2.36,2.08c0.51,1.05,0.75,2.36,0.69,3.69
		c-0.09,1.83-0.75,3.41-1.76,4.23C2855.05,166.46,2854.51,166.66,2853.95,166.66z M2853.84,157.69c-0.18,0-0.37,0.07-0.56,0.22
		c-0.64,0.51-1.09,1.7-1.15,3.03v0c-0.1,2.14,0.81,3.92,1.7,4.07c0.23,0.04,0.45-0.03,0.68-0.22c0.64-0.51,1.09-1.7,1.15-3.03
		c0.1-2.14-0.81-3.92-1.7-4.07C2853.92,157.69,2853.88,157.69,2853.84,157.69z"/>
	<path d="M2876.19,176.37c-0.18,0-0.36-0.03-0.53-0.08l0,0c-1.25-0.41-1.92-2.17-1.56-4.09c0.22-1.19,0.81-2.16,1.57-2.61
		c0.48-0.28,1.01-0.35,1.5-0.19c1.25,0.4,1.93,2.16,1.56,4.09c-0.22,1.18-0.81,2.16-1.57,2.61
		C2876.85,176.28,2876.52,176.37,2876.19,176.37z M2876.16,174.73c0.02,0.01,0.06,0.02,0.16-0.04c0.29-0.17,0.65-0.7,0.8-1.51
		c0.23-1.22-0.17-2.13-0.46-2.23c-0.02-0.01-0.06-0.02-0.16,0.04c-0.29,0.17-0.65,0.7-0.8,1.51
		C2875.47,173.71,2875.87,174.63,2876.16,174.73z"/>
</g>
<path class="st2" d="M4042.06,188.72c0.42-3.16,0.33-6.36-0.27-9.5l-2.14,0.24c0,1.39-1.07,4.08-2.45,6.71
	c-3.13-2.2-5.81-4.97-7.9-8.18c4.42-9.63,2.97-10.53,2.33-10.92c-1.07-0.49-2.33-0.36-3.28,0.35c-0.14-0.39-0.42-0.71-0.79-0.9
	c-1.22-0.61-4.8,0.82-8.81,2.86c-15.67-3.21-31.86-0.06-34.83,1.07c-2.36,0.91-9.81,0.69-12.57,0.52
	c-7.22,0.54-14.01,3.66-19.13,8.78c-2.02,1.98-3.45,4.49-4.12,7.24c-1.92,0.9-4.55,3.45-3.64,8.25c1.07,5.66,1.68,6.9,1.79,7.1
	l1.87-1.07c0,0-0.56-1.19-1.56-6.42c-0.48-1.71-0.07-3.54,1.07-4.89c-0.39,5.22,1.37,10.18,2.25,12.67c0.21,0.6,0.4,1.07,0.46,1.38
	c0.27,1.07-2.3,4.5-4.87,6.97l-0.35,0.33l0.96,21.11h8.67l-0.22-1.26c-0.66-3.37-1.12-6.78-1.38-10.21c0.07-1.7,1.5-3.15,4.22-4.28
	l4.87,15.77h9.24l-4.99-10.71l-0.09-0.15c-0.52-0.76-1.43-2.65-0.75-3.29c0.47-0.3,0.98-0.54,1.52-0.7
	c2.35-0.87,6.22-2.28,7.39-8.44c3.05,0.35,6.12,0.52,9.2,0.52c2.89,0,5.78-0.17,8.65-0.51c0.04,2.33,0.52,4.63,1.43,6.78
	c1.88,3.39,4.34,15.49,4.37,15.61l0.17,0.86h9.37l-4.28-11.65l-0.25-0.15c-0.11-0.14-0.72-1.22,0.6-4.49l7.96,16.28h8.89
	l-5.42-11.45l-0.12-0.24l-0.18-0.15c-0.05,0-1.38-1.19-0.52-4.13c0.91-3.14,1.99-7.91,2.34-9.47c1.2-0.58,2.35-1.27,3.44-2.04
	c0.76,0.16,1.53,0.24,2.3,0.24c2.86-0.17,5.67-0.8,8.33-1.87c0.83-0.29,1.63-0.56,2.28-0.74c4.61-1.26,9.35,1.01,9.4,1.07l0.92,0.45
	l0.49-0.9c0.82-1.52,4.9-9.23,4.9-11.95v-0.97l-0.87-0.15C4045.94,189.9,4043.96,189.44,4042.06,188.72z M4027.96,175.76
	c-0.58-1.07-0.97-1.85-1.18-2.32c0.52-1.04,0.96-2.11,1.33-3.21c0.62-0.59,1.35-1.06,2.14-1.37
	C4029.76,171.24,4028.99,173.56,4027.96,175.76z M3966.44,215.61c-0.82,0.23-1.59,0.62-2.26,1.15c-2.14,1.97,0,5.35,0.4,5.98
	l3.53,7.56h-4.28l-4.46-14.44c2.1-0.86,3.63-2.71,4.1-4.92l1.96-3.31c1.19,0.29,3.66,0.84,7.01,1.3
	C3971.48,213.77,3968.74,214.78,3966.44,215.61z M4012.35,215.84c-1.07,3.67,0.44,5.61,1.07,6.22l3.89,8.23h-4.16l-8.13-16.63
	c0.9-1.73,1.83-3.21,2.7-4.61h0.41c2.11-0.02,4.21-0.38,6.21-1.07c-0.49,2.09-1.3,5.47-1.99,7.86H4012.35z M4042.54,201.24
	c-3.16-1.26-6.63-1.53-9.95-0.76c-0.72,0.19-1.54,0.48-2.41,0.78c-3.35,1.16-7.94,2.74-11.32,0.93c-2.06-1.07-3.55-3.41-4.45-6.87
	l-2.08,0.54c1.07,3.98,2.85,6.72,5.35,8.14c-2.59,1.62-5.52,2.61-8.56,2.88c1.06-1.57,1.88-3.29,2.43-5.11l-2.14-0.52
	c-0.73,2.13-1.78,4.14-3.1,5.96c-1.45,2.17-2.75,4.44-3.9,6.79c-2.53,5.35-1.46,7.43-0.74,8.15l2.97,8.16h-4.53
	c-0.61-2.9-2.66-12.2-4.41-15.37c-1.51-2.71-1.35-10.98-1.16-13.92l-2.14-0.14c0,0.56-0.18,3.21-0.11,6.2
	c-8.58,0.94-17.26,0.48-25.69-1.36c1.07-1.69,1.85-3.05,2.04-3.3l-0.86-0.64l-0.82-0.69c-0.51,0.62-4.28,7.04-5.47,8.99l-0.13,0.22
	v0.24c0,0.11-0.26,2.54-3.67,3.75c-4.28,1.53-6.55,3.77-6.68,6.63c0.19,3.17,0.58,6.32,1.19,9.43h-4.09l-0.79-18.15
	c1.73-1.72,5.76-6.05,5.13-8.68c-0.1-0.39-0.27-0.89-0.52-1.6c-1.48-4.18-4.94-13.92,1.83-20.64c4.74-4.67,10.96-7.55,17.59-8.15
	c1.07,0.06,10.18,0.58,13.39-0.66c2.58-1.01,16.84-3.73,31.05-1.47c-1.28,0.7-2.56,1.42-3.77,2.14l1.07,1.85
	c5.2-3.03,11.48-6.18,13.37-6.48c-0.15,1.32-1.88,5-4.07,8.56l1.83,1.07c0.37-0.61,0.88-1.45,1.39-2.39
	c2.45,4.91,6.08,9.14,10.57,12.31c-0.94,1.72-1.86,3.28-2.45,4.22l1.82,1.13c1.71-2.73,3.25-5.57,4.61-8.49
	c-0.02,3.33-0.61,6.62-1.74,9.75l2.01,0.72c0.53-1.48,0.94-3,1.25-4.54c1.58,0.59,3.22,1.01,4.89,1.26
	C4045.5,195.28,4044.15,198.32,4042.54,201.24z"/>
<g>
	<path d="M-5085.32,317.26c-2,1.17-4.35,1.83-6.6,2.18c0.16,0.14,0.33,0.27,0.51,0.38c0.99,0.61,2.49,0.85,4.17,0.85
		c4.31,0,9.87-1.57,11.51-2.57c1.07-0.65,1.4-2.04,0.75-3.1c-0.65-1.07-2.04-1.4-3.1-0.75c-0.97,0.59-3.57,1.24-6.03,1.62
		C-5084.34,316.43-5084.75,316.93-5085.32,317.26z"/>
	<path d="M-5102.95,319.36c-0.76-0.13-1.42-0.54-1.87-1.17c-0.48-0.66-2.98-4.28-4.08-8.3l-2.33,11.5c0,0,0,0,0,0.01
		c-0.18,0.48-0.26,1.02-0.2,1.57l1.55,13.81l-8.93,14.05c-1,1.58-0.54,3.67,1.04,4.68c0.56,0.36,1.19,0.53,1.81,0.53
		c1.12,0,2.22-0.56,2.86-1.57l9.57-15.06c0.41-0.65,0.59-1.43,0.51-2.19l-0.91-8.14l2.38,0.53l9.21,24.25
		c0.51,1.35,1.8,2.19,3.17,2.19c0.4,0,0.81-0.07,1.2-0.22c1.75-0.66,2.63-2.62,1.96-4.37l-10.27-27.02l0.94-4.65
		c-0.57,0.03-1.12,0.04-1.64,0.04C-5100.21,319.81-5102.67,319.4-5102.95,319.36z"/>
	<ellipse cx="-5095.09" cy="294.78" rx="6.35" ry="6.35"/>
	<circle cx="-5078.46" cy="304.92" r="5.32"/>
	<path d="M-5054.55,292.85c-1.04-0.01-2.08,0.03-3.09,0.14l0.03,0.34c1-0.1,2.02-0.15,3.05-0.13L-5054.55,292.85z"/>
	<path d="M-5059.34,293.21c-8.46,1.42-12.77,6.55-12.81,6.6l0.26,0.22c0.04-0.05,4.27-5.08,12.61-6.48L-5059.34,293.21z"/>
	<path d="M-5104.29,317.81c0.35,0.48,0.87,0.81,1.45,0.91c0.21,0.04,2.67,0.44,5.89,0.44c3.51,0,7.92-0.48,11.3-2.46
		c1.08-0.63,1.44-2.01,0.81-3.09s-2.01-1.44-3.09-0.81c-4.1,2.4-10.79,1.88-13.22,1.59c-1.19-1.85-2.68-4.75-3.03-7.01l0.67,0.1
		c0.33,1.8,1.42,4.2,2.74,6.3c0.97,0.11,2.35,0.22,3.93,0.22c0.96,0,1.87-0.04,2.73-0.13l0.78-3.85c0.24,0.92,0.41,2.13,0.43,3.7
		c1.78-0.27,3.29-0.73,4.46-1.38c-0.21-3.25-1.04-5.73-2.46-7.41c-1.16-1.36-2.41-1.82-3.1-1.98c-0.04-0.01-0.08-0.02-0.13-0.03
		l-10.69-2.16c-0.9-0.18-1.78,0.22-2.26,0.94c-1.29,1.43-1.73,3.19-1.68,5.02C-5108.61,311.61-5104.87,317-5104.29,317.81z"/>
	<path d="M-5083.36,299.6c0.3-0.23,0.71-0.31,1.21-0.23c0.15,0.02,0.3-0.08,0.32-0.24c0.02-0.15-0.08-0.3-0.24-0.32
		c-0.66-0.1-1.21,0.02-1.64,0.34c-0.66,0.51-0.75,1.34-0.76,1.37c-0.02,0.15,0.1,0.29,0.25,0.31c0.01,0,0.02,0,0.03,0
		c0.14,0,0.26-0.11,0.28-0.25C-5083.91,300.59-5083.83,299.96-5083.36,299.6z"/>
	<path d="M-5082.01,297.56c-0.98-0.19-1.81-0.05-2.46,0.4c-0.99,0.69-1.19,1.87-1.2,1.92c-0.02,0.15,0.08,0.3,0.23,0.32
		c0.02,0,0.03,0,0.05,0c0.14,0,0.26-0.1,0.28-0.24c0-0.01,0.18-1,0.97-1.55c0.52-0.36,1.2-0.47,2.02-0.31
		c0.15,0.03,0.3-0.07,0.33-0.22C-5081.75,297.74-5081.85,297.59-5082.01,297.56z"/>
</g>
<path class="st2" d="M1347.35,468.51c1.75-1.75,1.75-4.6,0-6.35l-6.62-6.63l0.53-0.53c1.46-1.46,1.46-3.84,0-5.3l-3.3-3.3l3.34-3.34
	c9.59-9.6,9.59-25.21,0-34.81c-4.65-4.65-10.82-7.21-17.39-7.21c-6.57,0-12.75,2.56-17.39,7.21l-3.34,3.34l-3.3-3.3
	c-0.71-0.71-1.65-1.1-2.65-1.1s-1.94,0.39-2.65,1.1l-0.53,0.53l-6.61-6.61c-0.85-0.85-1.97-1.32-3.17-1.32l0,0
	c-1.2,0-2.33,0.47-3.17,1.32c-1.75,1.75-1.75,4.6,0,6.35l6.61,6.61l-0.53,0.53c-1.46,1.46-1.46,3.84,0,5.3l3.17,3.17l-3.5,3.5
	c-9.61,9.62-9.61,25.27,0,34.89c4.66,4.66,10.85,7.23,17.43,7.23c6.59,0,12.78-2.57,17.43-7.23l3.5-3.5l3.34,3.34
	c0.71,0.71,1.65,1.1,2.65,1.1c1,0,1.94-0.39,2.65-1.1l0.53-0.53l6.62,6.62c0.85,0.85,1.97,1.32,3.17,1.32
	S1346.5,469.36,1347.35,468.51z M1291.57,425.4l32.43,32.45l-3.5,3.5c-4.33,4.33-10.09,6.72-16.21,6.72
	c-6.12,0-11.88-2.39-16.21-6.72c-8.94-8.95-8.94-23.5,0-32.45L1291.57,425.4z M1292.85,410.05l-3.91,3.91l-6.61-6.61
	c-1.08-1.08-1.08-2.83,0-3.91c0.52-0.52,1.22-0.81,1.95-0.81l0,0c0.74,0,1.43,0.29,1.95,0.81L1292.85,410.05z M1336.75,445.18
	l-32.34-32.37l3.34-3.34c4.32-4.32,10.06-6.7,16.17-6.7c6.11,0,11.85,2.38,16.17,6.7c8.92,8.92,8.92,23.45,0,32.37L1336.75,445.18z
	 M1340.04,453.78l-7.41,7.42c-0.76,0.76-2.09,0.76-2.86,0l-41.37-41.4c-0.79-0.79-0.79-2.07,0-2.86l7.41-7.42
	c0.38-0.38,0.89-0.59,1.43-0.59s1.05,0.21,1.43,0.59l41.37,41.4C1340.83,451.71,1340.83,452.99,1340.04,453.78z M1346.13,467.29
	c-1.04,1.05-2.86,1.05-3.91,0l-6.62-6.63l3.91-3.91l6.62,6.63C1347.21,464.45,1347.21,466.21,1346.13,467.29z"/>
<g>
	<path d="M23.26,19.83c0.15,0.24,0.45,0.49,0.9,0.56c0.29,0.23,0.8,0.33,1.12,0.37c0.03,0,0.07,0.01,0.1,0.01
		c0.16,0,0.31-0.04,0.45-0.13l0.89-0.54c0.2-0.12,0.42-0.21,0.64-0.26c0.38-0.09,0.83-0.15,1.25-0.2c0.36,0.62,0.83,1.5,0.9,1.79
		c0.54,2.19,1.7,6.02,3.2,9.58c0.08,0.27,1.95,6.59,7.72,9.03c0.96,0.41,2.62,1.58,3.63,2.58c0.6,0.58,0.95,1.37,0.98,2.2
		c0.1,2.16-0.04,5.92-0.04,5.95l-0.08,1.29c0,0.05-0.05,1.19,0.08,2.61c-0.12,3.21-0.41,11.29-0.47,12.53l-1.67,1.55
		c-0.06,0.05-1.56,1.33-1.24,2.96c0,0.01,0,0.01,0,0.02c0,0,0,0.01,0,0.01c0,0.01,0.01,0.02,0.02,0.03
		c0.01,0.05,0.04,0.09,0.06,0.13c0.01,0.02,0.03,0.03,0.04,0.05c0.03,0.03,0.07,0.06,0.11,0.08c0.01,0.01,0.02,0.02,0.03,0.02
		c0.01,0,0.02,0,0.03,0c0.01,0,0.01,0.01,0.02,0.01c0.47,0.11,0.91,0.17,1.32,0.17c0.83,0,1.54-0.23,2.11-0.7
		c0.4-0.32,0.68-0.72,0.9-1.13h1.46c0.8,0,1.49-0.51,1.72-1.28c0.05-0.17,0.3-0.63,0.56-1.12c0.72-1.33,1.8-3.35,1.89-4.74
		c0.06-0.92,1.1-5.61,2.11-10.16c0.96-4.34,1.95-8.8,2.26-10.7c4.08-0.37,7.53-1.47,9.44-2.2c0.21,1.98,1.24,4.2,3.03,6.46
		c3.45,4.35,3.4,5.78,3.4,5.78c-0.01,0.04-0.01,0.08-0.01,0.12c0.16,1.66-5.64,9.08-9.28,13.31l-3.13,2.5
		c-0.29,0.23-0.4,0.61-0.29,0.97c0.12,0.35,0.43,0.59,0.81,0.61l2.37,0.09c0.04,0,0.07,0,0.11,0c0.9,0,1.73-0.43,2.25-1.18
		l0.38-0.54c0.13,0.05,0.28,0.07,0.42,0.05c0.32-0.02,0.61-0.18,0.8-0.43l11.27-14.79c0.69-0.92,0.76-2.15,0.18-3.14l-1.36-2.3
		c1.02,0.72,1.95,1.53,2.77,2.43c1.31,1.43,2.14,2.81,2.46,4.09c0.93,3.78,1.83,12.18,1.96,13.43c-1.15,1.63-2.8,4.26-2.49,5.34
		c0,0.08,0.03,0.16,0.07,0.23c0,0,0,0,0,0c0.01,0.01,0.02,0.02,0.03,0.03c0.03,0.03,0.05,0.06,0.09,0.08
		c0.02,0.01,0.05,0.02,0.08,0.03c0.02,0.01,0.05,0.02,0.07,0.03c0,0,0.01,0,0.01,0c0,0,0,0,0.01,0c0.02,0,0.04,0,0.05,0
		c0.25,0.04,0.49,0.06,0.71,0.06c1.91,0,3-1.2,3.05-1.26c0.06-0.06,0.09-0.14,0.1-0.23c0.17-1.32,0.91-2.57,1.11-2.89
		c0.88-0.57,0.66-2.46,0.6-2.85l-1.29-7.91c-0.01-0.06-0.98-5.68-0.78-7.61c0.23-2.24-1.61-3.53-1.65-3.55c0,0-1.93-1.68-4.33-3.76
		c-1.74-1.5-1.21-3.42-0.9-4.17c0.1-0.25,0.2-0.51,0.29-0.76c0.56-1.53,1.44-3.46,2.04-4.73c0.02,1.29,0.01,3.21-0.09,5
		c-0.14,2.7,1.14,5.27,1.19,5.38c0.08,0.15,0.24,0.25,0.41,0.23c0.17-0.01,0.32-0.12,0.37-0.29c0.27-0.79,0.46-1.32,0.6-1.71
		c0.4-1.11,0.41-1.15,0.49-2.26c0.03-0.37,0.06-0.86,0.12-1.56c0.29-3.29,0.15-6.28,0.15-6.33c-0.29-2.86-2.12-5.19-5.43-6.94
		c-3.42-1.81-7.47-2.35-11.71-1.57c-7.1,1.31-14.42,0.85-14.47,0.85c-0.05-0.01-5.42-0.6-9.6-0.69c-3.47-0.07-3.89-0.8-4.42-1.72
		c-0.08-0.14-0.16-0.28-0.25-0.43c-1.73-2.71-3.11-6.36-3.54-7.55c1.01-0.48,2.44-2,2.85-2.59c2.13-3.04,1.34-5.86,1.3-5.98
		c-0.03-0.11-0.11-0.2-0.2-0.25c-0.1-0.05-0.21-0.07-0.32-0.03c-3.5,1.03-5.27,3.94-6.08,5.32l-1.57-0.33
		c-0.41-0.11-0.77-0.13-1.14-0.07C29,9.08,27.51,5.65,23.8,4.83c-0.13-0.03-0.26,0-0.36,0.08c-0.1,0.08-0.16,0.2-0.16,0.33
		c0,0.23,0.06,5.3,2.49,7.27l-0.16,0.13c-0.26,0.22-0.42,0.53-0.44,0.87l-0.07,1.2c-0.01,0.18-0.09,0.35-0.22,0.48l-2.15,2.12
		c-0.3,0.3-0.47,0.71-0.46,1.12C22.3,19.1,22.66,19.59,23.26,19.83z M53.18,52.93c-1.06,4.78-2.07,9.3-2.13,10.28
		c-0.08,1.21-1.11,3.13-1.79,4.4c-0.32,0.6-0.55,1.03-0.63,1.28c-0.13,0.41-0.49,0.68-0.91,0.68h-1.11
		c0.17-0.58,0.24-1.12,0.25-1.44l0.3-0.09c0.16-0.05,0.27-0.19,0.29-0.35c0.01-0.06,0.06-0.48,0.13-1.1c0.88-0.87,1.54-1.9,1.9-3.01
		c1.13-3.42,1.16-9.89,1.16-10.17c0-0.38,0.09-0.77,0.26-1.11c0.19-0.4,1.39-7.35,1.05-9.79c0.52,0.03,1.04,0.05,1.55,0.05
		c0.64,0,1.27-0.02,1.89-0.06C55.07,44.45,54.11,48.75,53.18,52.93z M49.73,47.81c0.39-1.84,0.56-4.45,0.62-5.46
		c0.25,0.03,0.51,0.05,0.76,0.08c0.38,1.25-0.67,8.64-0.96,9.49c-0.22,0.46-0.34,0.97-0.34,1.48c0,0.07-0.03,6.61-1.12,9.9
		c-0.21,0.63-0.53,1.23-0.93,1.78c0.16-1.51,0.32-3.31,0.34-4.4c0.04-2.05,0.4-6.42,0.39-6.42C48.49,54.22,49.25,50.07,49.73,47.81z
		 M77.29,50.47c0.41,0.69,0.36,1.56-0.12,2.2L65.9,67.45c-0.06,0.08-0.14,0.09-0.18,0.1c-0.04,0-0.12,0-0.19-0.07
		c-0.09-0.09-0.21-0.13-0.34-0.12c-0.13,0.01-0.24,0.08-0.31,0.18l-0.6,0.87c-0.37,0.53-0.98,0.84-1.63,0.81l-0.13-0.01l0.53-0.51
		c0.17-0.16,0.17-0.43,0.01-0.6c-0.16-0.17-0.43-0.17-0.6-0.01l-1.08,1.04l-1.12-0.08l3.18-2.56c1-1.15,9.68-11.3,9.55-13.95
		c0.03-0.42-0.14-2.06-3.58-6.4c-1.41-1.78-2.34-3.56-2.71-5.16c1.42,1.55,3.67,3.46,7.1,5.07c0.45,0.21,0.87,0.44,1.29,0.68
		L77.29,50.47z M24.16,5.8c2.85,0.92,4.09,3.73,4.44,4.71c-0.52,0.22-1.03,0.51-1.49,0.89l-0.66,0.55
		C24.64,10.67,24.24,7.18,24.16,5.8z M23.33,17.91l2.15-2.12c0.28-0.28,0.45-0.65,0.47-1.04l0.07-1.2c0.01-0.1,0.05-0.2,0.13-0.26
		l1.49-1.24c0.46-0.38,0.97-0.68,1.5-0.87c0.44-0.16,0.75-0.17,1.2-0.05l1.89,0.4c0.01,0,0.01,0,0.02,0c0.03,0,0.05,0,0.08,0
		c0.03,0,0.06,0,0.09-0.01c0.01,0,0.02-0.01,0.03-0.01c0.04-0.01,0.08-0.03,0.11-0.05c0.01-0.01,0.02-0.02,0.03-0.03
		c0.03-0.03,0.06-0.06,0.08-0.09c0,0,0.01-0.01,0.01-0.01l0.07-0.11c0.68-1.17,2.23-3.85,5.23-4.94c0.12,0.83,0.18,2.76-1.27,4.82
		c-0.66,0.94-2.3,2.35-2.66,2.39c0,0,0,0-0.01,0c-0.01,0-0.01,0-0.02,0c-0.24-0.01-0.42,0.16-0.43,0.38c0,0,0,0,0,0
		c0,0.04,0.01,0.07,0.01,0.11c0,0.02,0,0.04,0.01,0.06c0,0,0,0,0,0c0.07,0.19,1.63,4.78,3.77,8.14c0.08,0.13,0.16,0.26,0.23,0.39
		c0.72,1.25,1.46,2.07,5.14,2.15c4.14,0.09,9.47,0.68,9.54,0.69c0.07,0,7.49,0.47,14.7-0.86c4.05-0.75,7.91-0.23,11.16,1.48
		c3.04,1.61,4.72,3.72,4.98,6.25c0,0.03,0.14,2.96-0.15,6.2c-0.06,0.71-0.1,1.21-0.13,1.58c-0.07,1.02-0.07,1.02-0.44,2.03
		c-0.07,0.19-0.15,0.41-0.24,0.68c-0.35-0.95-0.77-2.45-0.69-3.96c0.14-2.54,0.28-6.84-0.3-7.04c-0.2-0.07-0.43,0.03-0.53,0.22
		c-0.02,0.04-1.83,3.66-2.76,6.22c-0.09,0.25-0.18,0.49-0.28,0.73c-0.3,0.72-1.08,3.23,1.13,5.13c2.4,2.07,4.33,3.76,4.37,3.79
		c0.06,0.04,1.5,1.06,1.32,2.79c-0.21,2.05,0.74,7.61,0.78,7.84l1.29,7.9c0.12,0.85,0.04,1.89-0.24,2.02
		c-0.07,0.03-0.13,0.08-0.17,0.15c-0.04,0.06-1.02,1.52-1.28,3.2c-0.22,0.21-0.87,0.73-1.88,0.86l0.98-0.8
		c0.18-0.15,0.21-0.41,0.06-0.6c-0.15-0.18-0.42-0.21-0.6-0.06l-1.1,0.89c0.36-0.91,1.26-2.46,2.34-4c0.06-0.08,0.09-0.19,0.08-0.29
		c-0.04-0.39-0.98-9.58-1.99-13.71c-0.35-1.43-1.25-2.93-2.65-4.46c-1.26-1.38-2.75-2.55-4.42-3.51c-0.04-0.03-0.08-0.05-0.12-0.06
		c-0.45-0.25-0.9-0.5-1.37-0.72c-6.64-3.13-8.75-7.51-8.77-7.56c-0.1-0.21-0.35-0.3-0.56-0.2c-0.21,0.1-0.3,0.35-0.21,0.56
		c0.03,0.06,0.27,0.56,0.8,1.32c-2.72,1.03-8.64,2.85-14.96,2.1c0.15-0.6,0.46-1.74,0.74-2.78c0.05-0.17-0.02-0.35-0.16-0.45
		c-2.3-1.72-2.12-4.57-2.12-4.6c0.02-0.23-0.16-0.44-0.39-0.45c-0.24-0.02-0.44,0.16-0.45,0.39c-0.01,0.13-0.22,3.16,2.22,5.16
		c-0.35,1.28-0.73,2.71-0.78,3.02c0,0.01-0.01,0.01-0.01,0.02c0,0.01,0,0.01,0,0.01c0,0.01,0,0.02,0,0.03
		c0,0.04-0.16,3.55-0.63,5.77c-0.48,2.26-1.24,6.43-1.25,6.51c0,0.04-0.36,4.44-0.4,6.52c-0.03,1.76-0.47,5.59-0.6,6.64l-0.33,0.1
		c-0.18,0.06-0.3,0.23-0.3,0.41c0,0.02,0.02,2.1-1.19,3.07c-0.45,0.36-1.03,0.51-1.73,0.49l0.36-0.27c0.19-0.14,0.22-0.41,0.08-0.59
		c-0.14-0.19-0.41-0.22-0.59-0.08l-0.48,0.36c0.22-0.79,0.92-1.39,0.94-1.4l1.81-1.69c0.08-0.07,0.12-0.17,0.13-0.27
		c0.03-0.31,0.43-11.46,0.48-12.79c-0.13-1.41-0.08-2.54-0.08-2.54l0.08-1.29c0-0.04,0.14-3.84,0.04-6.03
		c-0.05-1.05-0.49-2.03-1.24-2.77c-1.09-1.07-2.84-2.3-3.89-2.75c-5.39-2.28-7.22-8.42-7.25-8.53c-1.5-3.56-2.64-7.34-3.17-9.5
		c-0.09-0.36-0.49-1.12-0.8-1.67c0.08-0.01,0.14-0.01,0.2-0.01c0.25-0.02,0.5-0.09,0.71-0.21l1.89-1.09
		c0.2-0.12,0.27-0.38,0.16-0.58c-0.12-0.2-0.38-0.27-0.58-0.16l-1.89,1.09c-0.1,0.06-0.22,0.09-0.34,0.1
		c-0.23,0.01-0.55,0.04-0.89,0.07c0,0-0.01,0-0.01,0c-0.52,0.05-1.11,0.13-1.61,0.24c-0.31,0.07-0.61,0.19-0.89,0.37l-0.9,0.54
		c-0.28-0.03-0.59-0.12-0.69-0.18c0-0.01-0.01-0.01-0.01-0.01c-0.05-0.07-0.12-0.11-0.2-0.14c-0.01,0-0.02,0-0.04-0.01
		c-0.03-0.01-0.05-0.02-0.08-0.02c-0.01,0-0.01,0-0.01,0c-0.08,0-0.15-0.02-0.2-0.05c0.25-0.22,0.55-0.44,0.75-0.45
		c0.23-0.01,0.42-0.2,0.41-0.44c-0.01-0.23-0.16-0.4-0.44-0.41c-0.55,0.02-1.11,0.48-1.41,0.78c-0.21-0.12-0.31-0.31-0.32-0.6
		C23.12,18.23,23.2,18.05,23.33,17.91z"/>
	<path d="M29.3,14.83c0.09,0,0.19-0.01,0.3-0.03c0.56-0.1,1.05-0.46,1.48-1.08c0.21,0.09,0.45,0,0.55-0.2
		c0.1-0.21,0.01-0.46-0.19-0.57c-0.78-0.38-2.47-0.66-3.34,0.98c-0.09,0.18-0.05,0.4,0.1,0.52C28.25,14.49,28.68,14.83,29.3,14.83z
		 M30.17,13.5c-0.23,0.26-0.47,0.42-0.72,0.46c-0.13,0.02-0.26,0.02-0.36-0.01C29.42,13.59,29.77,13.5,30.17,13.5z"/>
</g>
</svg>
