<?xml version="1.0" encoding="utf-8"?>
<!-- Generator: Adobe Illustrator 28.1.0, SVG Export Plug-In . SVG Version: 6.00 Build 0)  -->
<svg version="1.1" id="Layer_1" xmlns="http://www.w3.org/2000/svg" xmlns:xlink="http://www.w3.org/1999/xlink" x="0px" y="0px"
	 viewBox="0 0 110.6 76.5" style="enable-background:new 0 0 110.6 76.5;" xml:space="preserve">
<style type="text/css">
	.st0{display:none;}
	.st1{display:inline;fill:none;}
	.st2{fill:#808080;}
</style>
<g id="Layer_2_00000073722119373351752270000017113015111246931634_" class="st0">
	<line class="st1" x1="-24.1" y1="74.5" x2="142.1" y2="74.5"/>
	<line class="st1" x1="-24.1" y1="2" x2="142.1" y2="2"/>
</g>
<g>
	<g>
		<path class="st2" d="M2198.7,1892.5c-0.1,0.6-0.2,0.9-0.8,1.1c-0.3,0.1-0.6,0.2-0.8,0.4c-0.1,0.1-0.1,0.2-0.2,0.3
			c0.1,0.1,0.3,0.2,0.4,0.2c0.4,0,0.7-0.1,1.1-0.2c0.1,0.9-0.1,1.1-1,1.3c-3.8,1.1-7.6,2.2-11.4,3.1c-3.3,0.8-7-1.7-7.4-5.1
			c-0.2-1.7-0.4-3.4-0.4-5.1c-0.1-2.1-0.9-4-1.9-5.8c-3.5-6.1-7-12.2-10.5-18.2c-0.6-1-1.2-2.1-1.8-3.1c-0.1-0.3-0.2-0.4,0.1-0.6
			c1.1-0.6,2.2-1.3,3.4-1.9c0.5,0.8,0.9,1.5,1.3,2.3c4,6.9,8,13.9,12,20.8c1,1.8,1.4,3.7,1.3,5.7c-0.1,1.3-0.2,2.6-0.2,3.9
			c0,1.7,1.2,2.9,3,2.9c4.5-0.1,8.9-0.6,13.2-1.8C2198.1,1892.6,2198.4,1892.5,2198.7,1892.5z"/>
		<path class="st2" d="M2154.7,1847.3c0.2,0.3,0.4,0.7,0.6,1c0.5,0.8,1,0.9,1.7,0.4c1.1-0.6,2.2-1.3,3.3-1.9
			c0.8-0.4,1.4-0.4,1.9,0.2c0.6,0.6,0.6,1.3,0.1,2.1c-0.1,0.1-0.1,0.2-0.2,0.4c0.9-0.2,1.6-0.1,2,0.7c0.4,0.8,0.1,1.4-0.4,2.2
			c1.1-0.2,1.8,0,2.2,0.9c0.4,1.1-0.2,1.8-1.2,2.2c0,0.1,0.1,0.1,0.1,0.1c0.2,0,0.4,0,0.6,0c0.7,0,1.4,0.4,1.6,1
			c0.2,0.7,0,1.4-0.7,1.8c-1.6,0.9-3.2,1.9-4.8,2.8c-1.2,0.7-2.5,1.1-3.8,1.3s-2.6,0.6-3.8,1.2c-0.8,0.4-1.2,0.3-1.6-0.5
			c-1.2-2.1-2.4-4.2-3.6-6.3c-0.4-0.6-0.3-1.1,0.2-1.5c2-1.4,3.2-3.4,4.1-5.5c0.4-0.8,0.9-1.6,1.4-2.3
			C2154.4,1847.4,2154.5,1847.4,2154.7,1847.3z"/>
		<path class="st2" d="M2140.8,1831.4c0.9-0.1,1.6-0.2,2.4-0.3c0.1,0,0.3,0,0.4,0.1c2.9,1.3,5.8,2.6,8.6,4c1.5,0.7,2.6,1.9,3.5,3.4
			c1.3,2.2,2.6,4.5,3.9,6.8c0.3,0.5,0.2,0.7-0.3,0.9c-1,0.5-2,1.1-3.1,1.8c-0.5-0.8-0.9-1.6-1.4-2.3c-0.9-1.6-1.8-3.2-2.8-4.7
			c-0.8-1.4-2.1-2.4-3.4-3.4c-2.5-1.9-5-3.9-7.5-5.8C2141.1,1831.7,2141,1831.6,2140.8,1831.4z"/>
	</g>
	<path class="st2" d="M2202.7,1888.8l-4.1,1.2c-0.1,0-0.1,0.2-0.1,0.3l0.2,0.6c0,0.1,0.1,0.2,0.2,0.2l1.4-0.4l3.4,11.1l1.1,1.1
		l0.3-1.5l-3.4-11.1l1.4-0.4c0.1,0,0.1-0.2,0.1-0.3l-0.2-0.6C2202.9,1888.9,2202.8,1888.8,2202.7,1888.8z"/>
</g>
<g>
	<path d="M22.6,17.8c0.2,0.3,0.5,0.5,1,0.6c0.3,0.2,0.9,0.4,1.2,0.4c0,0,0.1,0,0.1,0c0.2,0,0.3,0,0.5-0.1l1-0.6
		c0.2-0.1,0.4-0.2,0.7-0.3c0.4-0.1,0.9-0.2,1.3-0.2c0.4,0.7,0.9,1.6,1,1.9c0.6,2.3,1.8,6.5,3.4,10.3c0.1,0.3,2.1,7.1,8.3,9.7
		c1,0.4,2.8,1.7,3.9,2.8c0.6,0.6,1,1.5,1.1,2.4c0.1,2.3,0,6.3,0,6.4l-0.1,1.4c0,0.1-0.1,1.3,0.1,2.8c-0.1,3.4-0.4,12.1-0.5,13.4
		l-1.8,1.7c-0.1,0.1-1.7,1.4-1.3,3.2c0,0,0,0,0,0c0,0,0,0,0,0c0,0,0,0,0,0c0,0.1,0,0.1,0.1,0.1c0,0,0,0,0,0.1c0,0,0.1,0.1,0.1,0.1
		c0,0,0,0,0,0c0,0,0,0,0,0c0,0,0,0,0,0c0.5,0.1,1,0.2,1.4,0.2c0.9,0,1.6-0.2,2.3-0.7c0.4-0.3,0.7-0.8,1-1.2h1.6
		c0.9,0,1.6-0.5,1.8-1.4c0.1-0.2,0.3-0.7,0.6-1.2c0.8-1.4,1.9-3.6,2-5.1c0.1-1,1.2-6,2.3-10.9c1-4.6,2.1-9.4,2.4-11.5
		c4.4-0.4,8.1-1.6,10.1-2.4c0.2,2.1,1.3,4.5,3.2,6.9c3.7,4.7,3.6,6.2,3.6,6.2c0,0,0,0.1,0,0.1c0.2,1.8-6,9.7-9.9,14.3l-3.3,2.7
		c-0.3,0.2-0.4,0.7-0.3,1c0.1,0.4,0.5,0.6,0.9,0.7l2.5,0.1c0,0,0.1,0,0.1,0c1,0,1.9-0.5,2.4-1.3l0.4-0.6c0.1,0,0.3,0.1,0.5,0.1
		c0.3,0,0.6-0.2,0.9-0.5l12.1-15.8c0.7-1,0.8-2.3,0.2-3.4l-1.5-2.5c1.1,0.8,2.1,1.6,3,2.6c1.4,1.5,2.3,3,2.6,4.4
		c1,4.1,2,13,2.1,14.4c-1.2,1.7-3,4.6-2.7,5.7c0,0.1,0,0.2,0.1,0.2c0,0,0,0,0,0c0,0,0,0,0,0c0,0,0.1,0.1,0.1,0.1c0,0,0.1,0,0.1,0
		c0,0,0,0,0.1,0c0,0,0,0,0,0c0,0,0,0,0,0c0,0,0,0,0.1,0c0.3,0,0.5,0.1,0.8,0.1c2,0,3.2-1.3,3.3-1.3c0.1-0.1,0.1-0.2,0.1-0.2
		c0.2-1.4,1-2.8,1.2-3.1c0.9-0.6,0.7-2.6,0.6-3.1L89.8,59c0-0.1-1-6.1-0.8-8.2c0.3-2.4-1.7-3.8-1.8-3.8c0,0-2.1-1.8-4.6-4
		c-1.9-1.6-1.3-3.7-1-4.5c0.1-0.3,0.2-0.5,0.3-0.8c0.6-1.6,1.5-3.7,2.2-5.1c0,1.4,0,3.4-0.1,5.4c-0.2,2.9,1.2,5.6,1.3,5.8
		c0.1,0.2,0.3,0.3,0.4,0.2c0.2,0,0.3-0.1,0.4-0.3c0.3-0.8,0.5-1.4,0.6-1.8c0.4-1.2,0.4-1.2,0.5-2.4c0-0.4,0.1-0.9,0.1-1.7
		c0.3-3.5,0.2-6.7,0.2-6.8c-0.3-3.1-2.3-5.6-5.8-7.4c-3.7-1.9-8-2.5-12.5-1.7c-7.6,1.4-15.4,0.9-15.5,0.9c-0.1,0-5.8-0.6-10.3-0.7
		c-3.7-0.1-4.2-0.9-4.7-1.8c-0.1-0.2-0.2-0.3-0.3-0.5c-1.9-2.9-3.3-6.8-3.8-8.1c1.1-0.5,2.6-2.1,3.1-2.8c2.3-3.3,1.4-6.3,1.4-6.4
		c0-0.1-0.1-0.2-0.2-0.3c-0.1-0.1-0.2-0.1-0.3,0c-3.7,1.1-5.6,4.2-6.5,5.7l-1.7-0.4c-0.4-0.1-0.8-0.1-1.2-0.1c-0.4-1.2-2-4.9-6-5.8
		c-0.1,0-0.3,0-0.4,0.1c-0.1,0.1-0.2,0.2-0.2,0.4c0,0.2,0.1,5.7,2.7,7.8l-0.2,0.1c-0.3,0.2-0.5,0.6-0.5,0.9l-0.1,1.3
		c0,0.2-0.1,0.4-0.2,0.5L22,15.1c-0.3,0.3-0.5,0.8-0.5,1.2C21.6,17,22,17.5,22.6,17.8z M54.6,53.2c-1.1,5.1-2.2,10-2.3,11
		c-0.1,1.3-1.2,3.4-1.9,4.7c-0.3,0.6-0.6,1.1-0.7,1.4c-0.1,0.4-0.5,0.7-1,0.7h-1.2c0.2-0.6,0.3-1.2,0.3-1.5l0.3-0.1
		c0.2-0.1,0.3-0.2,0.3-0.4c0-0.1,0.1-0.5,0.1-1.2c0.9-0.9,1.6-2,2-3.2c1.2-3.7,1.2-10.6,1.2-10.9c0-0.4,0.1-0.8,0.3-1.2
		c0.2-0.4,1.5-7.9,1.1-10.5c0.6,0,1.1,0.1,1.7,0.1c0.7,0,1.4,0,2-0.1C56.7,44.1,55.6,48.7,54.6,53.2z M50.9,47.7
		c0.4-2,0.6-4.8,0.7-5.9c0.3,0,0.5,0.1,0.8,0.1c0.4,1.3-0.7,9.2-1,10.2c-0.2,0.5-0.4,1-0.4,1.6c0,0.1,0,7.1-1.2,10.6
		c-0.2,0.7-0.6,1.3-1,1.9c0.2-1.6,0.3-3.5,0.4-4.7c0-2.2,0.4-6.9,0.4-6.9C49.6,54.6,50.4,50.1,50.9,47.7z M80.5,50.6
		c0.4,0.7,0.4,1.7-0.1,2.4L68.3,68.8c-0.1,0.1-0.1,0.1-0.2,0.1c0,0-0.1,0-0.2-0.1c-0.1-0.1-0.2-0.1-0.4-0.1c-0.1,0-0.3,0.1-0.3,0.2
		l-0.6,0.9c-0.4,0.6-1,0.9-1.7,0.9l-0.1,0l0.6-0.5c0.2-0.2,0.2-0.5,0-0.6c-0.2-0.2-0.5-0.2-0.6,0l-1.2,1.1l-1.2-0.1l3.4-2.7
		c1.1-1.2,10.4-12.1,10.2-14.9c0-0.4-0.2-2.2-3.8-6.8c-1.5-1.9-2.5-3.8-2.9-5.5c1.5,1.7,3.9,3.7,7.6,5.4c0.5,0.2,0.9,0.5,1.4,0.7
		L80.5,50.6z M23.6,2.7c3.1,1,4.4,4,4.8,5c-0.6,0.2-1.1,0.5-1.6,1L26,9.3C24.1,8,23.6,4.2,23.6,2.7z M22.7,15.7l2.3-2.3
		c0.3-0.3,0.5-0.7,0.5-1.1l0.1-1.3c0-0.1,0.1-0.2,0.1-0.3l1.6-1.3c0.5-0.4,1-0.7,1.6-0.9c0.5-0.2,0.8-0.2,1.3-0.1l2,0.4c0,0,0,0,0,0
		c0,0,0.1,0,0.1,0c0,0,0.1,0,0.1,0c0,0,0,0,0,0c0,0,0.1,0,0.1-0.1c0,0,0,0,0,0c0,0,0.1-0.1,0.1-0.1c0,0,0,0,0,0l0.1-0.1
		c0.7-1.3,2.4-4.1,5.6-5.3c0.1,0.9,0.2,3-1.4,5.2c-0.7,1-2.5,2.5-2.9,2.6c0,0,0,0,0,0c0,0,0,0,0,0c-0.3,0-0.4,0.2-0.5,0.4
		c0,0,0,0,0,0c0,0,0,0.1,0,0.1c0,0,0,0,0,0.1c0,0,0,0,0,0c0.1,0.2,1.7,5.1,4,8.7c0.1,0.1,0.2,0.3,0.3,0.4c0.8,1.3,1.6,2.2,5.5,2.3
		c4.4,0.1,10.1,0.7,10.2,0.7c0.1,0,8,0.5,15.7-0.9c4.3-0.8,8.5-0.3,12,1.6c3.3,1.7,5.1,4,5.3,6.7c0,0,0.1,3.2-0.2,6.6
		c-0.1,0.8-0.1,1.3-0.1,1.7c-0.1,1.1-0.1,1.1-0.5,2.2c-0.1,0.2-0.2,0.4-0.3,0.7c-0.4-1-0.8-2.6-0.7-4.2c0.1-2.7,0.3-7.3-0.3-7.5
		c-0.2-0.1-0.5,0-0.6,0.2c0,0-2,3.9-3,6.7c-0.1,0.3-0.2,0.5-0.3,0.8c-0.3,0.8-1.2,3.5,1.2,5.5c2.6,2.2,4.6,4,4.7,4.1
		c0.1,0,1.6,1.1,1.4,3c-0.2,2.2,0.8,8.1,0.8,8.4l1.4,8.5c0.1,0.9,0,2-0.3,2.2c-0.1,0-0.1,0.1-0.2,0.2c0,0.1-1.1,1.6-1.4,3.4
		c-0.2,0.2-0.9,0.8-2,0.9l1.1-0.9c0.2-0.2,0.2-0.4,0.1-0.6c-0.2-0.2-0.4-0.2-0.6-0.1l-1.2,1c0.4-1,1.3-2.6,2.5-4.3
		c0.1-0.1,0.1-0.2,0.1-0.3c0-0.4-1-10.3-2.1-14.7c-0.4-1.5-1.3-3.1-2.8-4.8c-1.4-1.5-2.9-2.7-4.7-3.8c0,0-0.1,0-0.1-0.1
		c-0.5-0.3-1-0.5-1.5-0.8c-7.1-3.4-9.4-8-9.4-8.1c-0.1-0.2-0.4-0.3-0.6-0.2c-0.2,0.1-0.3,0.4-0.2,0.6c0,0.1,0.3,0.6,0.9,1.4
		c-2.9,1.1-9.2,3-16,2.2c0.2-0.6,0.5-1.9,0.8-3c0-0.2,0-0.4-0.2-0.5c-2.5-1.8-2.3-4.9-2.3-4.9c0-0.2-0.2-0.5-0.4-0.5
		c-0.3,0-0.5,0.2-0.5,0.4c0,0.1-0.2,3.4,2.4,5.5c-0.4,1.4-0.8,2.9-0.8,3.2c0,0,0,0,0,0c0,0,0,0,0,0c0,0,0,0,0,0c0,0-0.2,3.8-0.7,6.2
		c-0.5,2.4-1.3,6.9-1.3,7c0,0-0.4,4.8-0.4,7c0,1.9-0.5,6-0.6,7.1l-0.3,0.1C47.1,68.8,47,69,47,69.2c0,0,0,2.2-1.3,3.3
		c-0.5,0.4-1.1,0.5-1.8,0.5l0.4-0.3c0.2-0.2,0.2-0.4,0.1-0.6c-0.2-0.2-0.4-0.2-0.6-0.1l-0.5,0.4c0.2-0.8,1-1.5,1-1.5l1.9-1.8
		c0.1-0.1,0.1-0.2,0.1-0.3c0-0.3,0.5-12.3,0.5-13.7c-0.1-1.5-0.1-2.7-0.1-2.7l0.1-1.4c0,0,0.1-4.1,0-6.5c-0.1-1.1-0.5-2.2-1.3-3
		c-1.2-1.1-3-2.5-4.2-2.9c-5.8-2.4-7.7-9-7.8-9.1c-1.6-3.8-2.8-7.9-3.4-10.2c-0.1-0.4-0.5-1.2-0.9-1.8c0.1,0,0.2,0,0.2,0
		c0.3,0,0.5-0.1,0.8-0.2l2-1.2c0.2-0.1,0.3-0.4,0.2-0.6c-0.1-0.2-0.4-0.3-0.6-0.2l-2,1.2c-0.1,0.1-0.2,0.1-0.4,0.1
		c-0.2,0-0.6,0-1,0.1c0,0,0,0,0,0c-0.6,0.1-1.2,0.1-1.7,0.3c-0.3,0.1-0.7,0.2-1,0.4l-1,0.6c-0.3,0-0.6-0.1-0.7-0.2c0,0,0,0,0,0
		c-0.1-0.1-0.1-0.1-0.2-0.1c0,0,0,0,0,0c0,0-0.1,0-0.1,0c0,0,0,0,0,0c-0.1,0-0.2,0-0.2-0.1c0.3-0.2,0.6-0.5,0.8-0.5
		c0.3,0,0.4-0.2,0.4-0.5c0-0.2-0.2-0.4-0.5-0.4c-0.6,0-1.2,0.5-1.5,0.8c-0.2-0.1-0.3-0.3-0.3-0.6C22.4,16,22.5,15.9,22.7,15.7z"/>
	<path d="M29.1,12.4c0.1,0,0.2,0,0.3,0c0.6-0.1,1.1-0.5,1.6-1.2c0.2,0.1,0.5,0,0.6-0.2c0.1-0.2,0-0.5-0.2-0.6
		c-0.8-0.4-2.6-0.7-3.6,1c-0.1,0.2-0.1,0.4,0.1,0.6C27.9,12,28.4,12.4,29.1,12.4z M30,11c-0.2,0.3-0.5,0.4-0.8,0.5
		c-0.1,0-0.3,0-0.4,0C29.2,11.1,29.6,11,30,11z"/>
</g>
</svg>
