<?xml version="1.0" encoding="utf-8"?>
<!-- Generator: Adobe Illustrator 28.1.0, SVG Export Plug-In . SVG Version: 6.00 Build 0)  -->
<svg version="1.1" id="Layer_1" xmlns="http://www.w3.org/2000/svg" xmlns:xlink="http://www.w3.org/1999/xlink" x="0px" y="0px"
	 viewBox="0 0 110.6 76.5" style="enable-background:new 0 0 110.6 76.5;" xml:space="preserve">
<style type="text/css">
	.st0{display:none;}
	.st1{display:inline;fill:none;}
	.st2{fill:#808080;}
</style>
<g id="Layer_2_00000073722119373351752270000017113015111246931634_" class="st0">
	<line class="st1" x1="-24.1" y1="74.5" x2="142.1" y2="74.5"/>
	<line class="st1" x1="-24.1" y1="2" x2="142.1" y2="2"/>
</g>
<g>
	<path class="st2" d="M1879.7,2086.8c3.3,0,6-2.7,6-6s-2.7-6-6-6c-3.3,0-6,2.7-6,6C1873.8,2084.2,1876.4,2086.8,1879.7,2086.8z"/>
	<path class="st2" d="M1886.1,2093.1c5.9-0.8,13.2-2.2,14.4-2.3c1.4-0.2,2.4-1.7,2.2-3.1s-1.7-2.4-3.1-2.2
		c-6.5,1.2-17.2,2.9-19.8,2.9c-10.4,0-15.2,6.9-15.3,7.2c-0.6,1-0.6,2.2,0.1,3.1l4.7,6.6c0.6,0.7,1.4,1.1,2.2,1.1
		c0.6,0,1.1-0.2,1.5-0.5c0.2-0.1,0.2-0.2,0.4-0.3v1.9l-1.7,19.9c-0.2,1.6,1.1,3.1,2.7,3.2c1.6,0.2,3.1-1.1,3.2-2.7l1.6-19.2h1.1
		l1.6,19.2c0.2,1.5,1.4,2.7,3,2.7c0.1,0,0.2,0,0.2,0c1.6-0.2,2.9-1.6,2.7-3.2l-1.7-19.9L1886.1,2093.1z M1873.3,2101.8l-3.2-4.6
		c0.7-0.6,1.8-1.5,3.3-2.2L1873.3,2101.8z"/>
</g>
<g>
	<path class="st2" d="M1933.8,2093.6c1.8,0.2,3.5,0.4,4.8,0.4c2,0,3.5-0.3,4.5-1.2c0.6-0.6,1.1-1.4,1.1-2.3c0.1-2.3-2.5-6.3-7.8-12
		c-0.9-1-2.5-1.1-3.6-0.1c-0.2,0.1-0.3,0.4-0.4,0.6c-0.8-2.4-2.9-4-5.6-4c-2.6,0-4.8,1.7-5.6,4c-0.1-0.2-0.3-0.4-0.4-0.6
		c-1-0.9-2.6-0.9-3.6,0.1c-5.3,5.7-7.9,9.7-7.8,12c0.1,0.9,0.4,1.7,1.1,2.3c1,0.9,2.5,1.2,4.5,1.2c1.3,0,3-0.1,4.8-0.4
		c0.4,0,0.7-0.1,1-0.1l0.3,12.5c0,0.1,0,0.2,0,0.4l-3.6,8.2c-0.4,0.9-0.6,1.9-0.8,2.8l-1.1,10c-0.2,1.6,0.9,3.1,2.6,3.3
		c0.1,0,0.2,0,0.4,0c1.4,0,2.7-1.1,2.9-2.6l1.3-10c0.1-0.4,0.1-0.9,0.4-1.2l3.8-8.7l3.8,8.7c0.1,0.4,0.3,0.8,0.4,1.2l1.3,10
		c0.2,1.6,1.6,2.7,3.3,2.6c1.6-0.2,2.7-1.6,2.6-3.3l-1.3-10c-0.1-1-0.4-1.9-0.8-2.8l-3.6-8.2c0-0.1,0-0.2,0-0.3l0.3-12.6
		C1933.2,2093.5,1933.5,2093.5,1933.8,2093.6z M1930.4,2088.4h-6.8c-1.1,0-2.5,0.1-3.9,0.3c-1.1,0.1-2.8,0.3-4.2,0.3
		c1.1-1.8,3.3-4.6,5.7-7c0-0.1,0.1-0.1,0.1-0.1c0.5,2.8,2.8,4.8,5.8,4.8c2.9,0,5.3-2.1,5.8-4.8c0,0.1,0.1,0.1,0.1,0.1
		c2.3,2.5,4.6,5.3,5.7,7c-1.3,0-3.1-0.2-4.2-0.3C1932.9,2088.5,1931.4,2088.4,1930.4,2088.4z"/>
</g>
<path class="st2" d="M1898.8,2079.8c0.4,0.4,1.1-0.1,0.8-0.6l-2.4-4.9l3.3-0.8c0.3-0.1,0.5-0.4,0.3-0.7l-4-7.5
	c-0.1-0.2-0.3-0.3-0.6-0.2l-3.5,0.8c-0.3,0.1-0.5,0.5-0.3,0.8l3.1,4.4l-3.1,0.7c-0.4,0.1-0.5,0.6-0.2,0.8L1898.8,2079.8z"/>
<path class="st2" d="M1905.6,2070.1l3.3,0.8l-2.4,4.9c-0.2,0.5,0.4,1,0.8,0.6l6.6-7.1c0.2-0.3,0.2-0.7-0.2-0.8l-3.1-0.8l3.1-4.4
	c0.2-0.3,0.1-0.7-0.3-0.8l-3.5-0.8c-0.2-0.1-0.5,0.1-0.6,0.2l-4,7.5C1905.1,2069.7,1905.3,2070.1,1905.6,2070.1z"/>
<g>
	<path class="st2" d="M2127.3,2077.1c4.1,0,7.4-3.4,7.4-7.4c0-4.1-3.3-7.5-7.4-7.5c-4.1,0-7.5,3.4-7.5,7.5
		C2119.8,2073.7,2123.2,2077.1,2127.3,2077.1L2127.3,2077.1z"/>
	<path class="st2" d="M2156.5,2130.5c-1.8,0-3.5-0.4-5-1.1c-1.5-0.7-3.3-1.1-5.1-1.1c-1.8,0-3.6,0.4-5.1,1.1c-1.5,0.7-3.2,1.1-5,1.1
		s-3.4-0.4-4.9-1.1c-1.5-0.7-3.3-1.1-5.1-1.1s-3.6,0.4-5.1,1.1c-1.5,0.7-3.2,1.1-4.9,1.1c-1.8,0-3.4-0.4-5-1.1
		c-1.5-0.7-3.3-1.1-5.1-1.1s-3.6,0.4-5.1,1.1c-1.5,0.7-3.2,1.1-4.9,1.1c-1.7,0-3.4-0.4-4.9-1.1c-1.5-0.7-3.3-1.1-5.1-1.1
		c-1.8,0-3.6,0.4-5.1,1.1c-1.5,0.7-3.2,1.1-4.9,1.1v-7.4c1.8,0,3.4-0.4,4.9-1.1c1.5-0.7,3.3-1.1,5.1-1.1c1.8,0,3.6,0.4,5.1,1.1
		c1.5,0.7,3.2,1.1,4.9,1.1c1.8,0,3.4-0.4,4.9-1.1c1.5-0.7,3.3-1.1,5.1-1.1s3.6,0.4,5.1,1.1c1.5,0.7,3.2,1.1,5,1.1s3.4-0.4,4.9-1.1
		c1.5-0.7,3.3-1.1,5.1-1.1s3.6,0.4,5.1,1.1c1.5,0.7,3.2,1.1,4.9,1.1c1.8,0,3.4-0.4,5-1.1c1.5-0.7,3.3-1.1,5.1-1.1
		c1.8,0,3.6,0.4,5.1,1.1c1.5,0.7,3.2,1.1,5,1.1V2130.5z"/>
	<path class="st2" d="M2081.1,2115.7c1.5-0.7,3.2-1.1,4.9-1.1c1.8,0,3.6,0.4,5.1,1.1c1.5,0.7,3.2,1.1,4.9,1.1c1.8,0,3.4-0.4,4.9-1.1
		c1.5-0.7,3.3-1.1,5.1-1.1s3.6,0.4,5.1,1.1c1.5,0.7,3.2,1.1,5,1.1s3.4-0.4,4.9-1.1c1-0.5,2-0.8,3.1-1l12.9-14.7h-16.6l6.9-11.8
		l15,8.2c5,2.8,8.6-3.7,3.6-6.5l-21.5-11.9c-7.9-4.4-11.3,2.9-11.3,2.9l-11.1,18.8l-29.2,0
		C2073.9,2105.2,2078.7,2112.4,2081.1,2115.7L2081.1,2115.7z"/>
	<path class="st2" d="M2128.1,2114.8c1.1,0.2,2.2,0.5,3.3,1c1.5,0.7,3.2,1.1,4.9,1.1c1.8,0,3.4-0.4,5-1.1c1.5-0.7,3.3-1.1,5.1-1.1
		c1.8,0,3.6,0.4,5.1,1.1c1.5,0.7,3.2,1.1,5,1.1l0-16.7l-15.5,0L2128.1,2114.8z"/>
</g>
<g>
	<path d="M27.7,44.4l-1.2,9.5L20.6,69c-0.8,1.9-0.1,4.2,1.7,5.2c0.4,0.2,0.7,0.3,1.1,0.4c1.8,0.4,3.8-0.5,4.5-2.3l3.2-7.6l1.6-10.6
		L27.7,44.4z"/>
	<path d="M54.1,74.7h11.8c0.5,0,0.8-0.4,0.8-0.8v-5.5c0-0.5-0.4-0.8-0.8-0.8H54.1c-0.5,0-0.8,0.4-0.8,0.8v5.5
		C53.3,74.3,53.6,74.7,54.1,74.7z"/>
	<path d="M69.5,74.7h11.8c0.5,0,0.8-0.4,0.8-0.8v-5.5c0-0.5-0.4-0.8-0.8-0.8H69.5c-0.5,0-0.8,0.4-0.8,0.8v5.5
		C68.6,74.3,69,74.7,69.5,74.7z"/>
	<path d="M73.6,58.5H61.8c-0.5,0-0.8,0.4-0.8,0.8v5.5c0,0.5,0.4,0.8,0.8,0.8h11.8c0.5,0,0.8-0.4,0.8-0.8v-5.5
		C74.3,58.8,74,58.5,73.6,58.5z"/>
	<path d="M77.1,65.6h11.8c0.5,0,0.8-0.4,0.8-0.8v-5.5c0-0.5-0.4-0.8-0.8-0.8H77.1c-0.5,0-0.8,0.4-0.8,0.8v5.5
		C76.3,65.2,76.7,65.6,77.1,65.6z"/>
	<path d="M65.9,49.4H54.1c-0.5,0-0.8,0.4-0.8,0.8v5.5c0,0.5,0.4,0.8,0.8,0.8h11.8c0.5,0,0.8-0.4,0.8-0.8v-5.5
		C66.7,49.8,66.3,49.4,65.9,49.4z"/>
	<path d="M81.3,49.4H69.5c-0.5,0-0.8,0.4-0.8,0.8v5.5c0,0.5,0.4,0.8,0.8,0.8h11.8c0.5,0,0.8-0.4,0.8-0.8v-5.5
		C82,49.8,81.7,49.4,81.3,49.4z"/>
	<path d="M84.8,74.7H89c0.5,0,0.8-0.4,0.8-0.8v-5.5c0-0.5-0.4-0.8-0.8-0.8h-4.2c-0.5,0-0.8,0.4-0.8,0.8v5.5
		C84,74.3,84.4,74.7,84.8,74.7z"/>
	<path d="M84.8,56.5H89c0.5,0,0.8-0.4,0.8-0.8v-5.5c0-0.5-0.4-0.8-0.8-0.8h-4.2c-0.5,0-0.8,0.4-0.8,0.8v5.5
		C84,56.1,84.4,56.5,84.8,56.5z"/>
	<path d="M55.2,40.9l1.5,2.2c0.2,0.4,0.7,0.5,1.1,0.2l9.9-6.5c0.4-0.2,0.5-0.7,0.2-1.1l-3-4.6c-0.2-0.4-0.7-0.5-1.1-0.2L59.1,34
		c0.3,0.8,0.4,1.7,0.2,2.6C58.8,38.7,57.2,40.4,55.2,40.9z"/>
	<path d="M54.1,65.6h4.2c0.5,0,0.8-0.4,0.8-0.8v-5.5c0-0.5-0.4-0.8-0.8-0.8h-4.2c-0.5,0-0.8,0.4-0.8,0.8v5.5
		C53.3,65.2,53.6,65.6,54.1,65.6z"/>
	<path d="M76.3,41v5.5c0,0.5,0.4,0.8,0.8,0.8h11.8c0.5,0,0.8-0.4,0.8-0.8V41c0-0.5-0.4-0.8-0.8-0.8H77.1
		C76.7,40.3,76.3,40.6,76.3,41z"/>
	<path d="M57.2,36.3c0.3-1.7-0.8-3.4-2.5-3.9l-7-2l-4.9-10c-0.1-0.2-0.4-0.8-1.2-1.5c-1.2-1.2-3-1.8-4.8-1.8
		c-1.7,0.1-3.3,0.9-4.4,2.2c-0.4,0.5-0.8,1.2-0.9,1.8l-4.1,16.3c-0.2,1-0.2,2,0.3,2.8l6.9,13.1c0.2,0.3,0.2,0.6,0.2,0.9l-2.4,15.6
		c-0.3,2,0.8,4.1,2.8,4.7c0.4,0.2,0.8,0.2,1.2,0.2c1.9,0,3.5-1.3,3.9-3.2l3.3-17.6c0.2-0.7,0.1-1.4-0.2-2.1L39.7,41
		c-0.1-0.3-0.2-0.6-0.1-0.9l1.7-7.4l1,2.1c0.4,0.8,1.2,1.5,2.1,1.7l8.6,2.5c0.3,0.1,0.6,0.2,0.9,0.2C55.5,39,56.9,37.9,57.2,36.3z"
		/>
	<circle cx="39.9" cy="8.6" r="7.1"/>
</g>
</svg>
