<?xml version="1.0" encoding="utf-8"?>
<!-- Generator: Adobe Illustrator 28.1.0, SVG Export Plug-In . SVG Version: 6.00 Build 0)  -->
<svg version="1.1" id="Layer_1" xmlns="http://www.w3.org/2000/svg" xmlns:xlink="http://www.w3.org/1999/xlink" x="0px" y="0px"
	 viewBox="0 0 110.6 76.5" style="enable-background:new 0 0 110.6 76.5;" xml:space="preserve">
<style type="text/css">
	.st0{display:none;}
	.st1{display:inline;fill:none;}
	.st2{fill:#808080;}
</style>
<g id="Layer_2_00000073722119373351752270000017113015111246931634_" class="st0">
	<line class="st1" x1="-24.1" y1="74.5" x2="142.1" y2="74.5"/>
	<line class="st1" x1="-24.1" y1="2" x2="142.1" y2="2"/>
</g>
<g>
	<path class="st2" d="M1879.7,2086.8c3.3,0,6-2.7,6-6s-2.7-6-6-6c-3.3,0-6,2.7-6,6C1873.8,2084.2,1876.4,2086.8,1879.7,2086.8z"/>
	<path class="st2" d="M1886.1,2093.1c5.9-0.8,13.2-2.2,14.4-2.3c1.4-0.2,2.4-1.7,2.2-3.1s-1.7-2.4-3.1-2.2
		c-6.5,1.2-17.2,2.9-19.8,2.9c-10.4,0-15.2,6.9-15.3,7.2c-0.6,1-0.6,2.2,0.1,3.1l4.7,6.6c0.6,0.7,1.4,1.1,2.2,1.1
		c0.6,0,1.1-0.2,1.5-0.5c0.2-0.1,0.2-0.2,0.4-0.3v1.9l-1.7,19.9c-0.2,1.6,1.1,3.1,2.7,3.2c1.6,0.2,3.1-1.1,3.2-2.7l1.6-19.2h1.1
		l1.6,19.2c0.2,1.5,1.4,2.7,3,2.7c0.1,0,0.2,0,0.2,0c1.6-0.2,2.9-1.6,2.7-3.2l-1.7-19.9L1886.1,2093.1z M1873.3,2101.8l-3.2-4.6
		c0.7-0.6,1.8-1.5,3.3-2.2L1873.3,2101.8z"/>
</g>
<g>
	<path class="st2" d="M1933.8,2093.6c1.8,0.2,3.5,0.4,4.8,0.4c2,0,3.5-0.3,4.5-1.2c0.6-0.6,1.1-1.4,1.1-2.3c0.1-2.3-2.5-6.3-7.8-12
		c-0.9-1-2.5-1.1-3.6-0.1c-0.2,0.1-0.3,0.4-0.4,0.6c-0.8-2.4-2.9-4-5.6-4c-2.6,0-4.8,1.7-5.6,4c-0.1-0.2-0.3-0.4-0.4-0.6
		c-1-0.9-2.6-0.9-3.6,0.1c-5.3,5.7-7.9,9.7-7.8,12c0.1,0.9,0.4,1.7,1.1,2.3c1,0.9,2.5,1.2,4.5,1.2c1.3,0,3-0.1,4.8-0.4
		c0.4,0,0.7-0.1,1-0.1l0.3,12.5c0,0.1,0,0.2,0,0.4l-3.6,8.2c-0.4,0.9-0.6,1.9-0.8,2.8l-1.1,10c-0.2,1.6,0.9,3.1,2.6,3.3
		c0.1,0,0.2,0,0.4,0c1.4,0,2.7-1.1,2.9-2.6l1.3-10c0.1-0.4,0.1-0.9,0.4-1.2l3.8-8.7l3.8,8.7c0.1,0.4,0.3,0.8,0.4,1.2l1.3,10
		c0.2,1.6,1.6,2.7,3.3,2.6c1.6-0.2,2.7-1.6,2.6-3.3l-1.3-10c-0.1-1-0.4-1.9-0.8-2.8l-3.6-8.2c0-0.1,0-0.2,0-0.3l0.3-12.6
		C1933.2,2093.5,1933.5,2093.5,1933.8,2093.6z M1930.4,2088.4h-6.8c-1.1,0-2.5,0.1-3.9,0.3c-1.1,0.1-2.8,0.3-4.2,0.3
		c1.1-1.8,3.3-4.6,5.7-7c0-0.1,0.1-0.1,0.1-0.1c0.5,2.8,2.8,4.8,5.8,4.8c2.9,0,5.3-2.1,5.8-4.8c0,0.1,0.1,0.1,0.1,0.1
		c2.3,2.5,4.6,5.3,5.7,7c-1.3,0-3.1-0.2-4.2-0.3C1932.9,2088.5,1931.4,2088.4,1930.4,2088.4z"/>
</g>
<path class="st2" d="M1898.8,2079.8c0.4,0.4,1.1-0.1,0.8-0.6l-2.4-4.9l3.3-0.8c0.3-0.1,0.5-0.4,0.3-0.7l-4-7.5
	c-0.1-0.2-0.3-0.3-0.6-0.2l-3.5,0.8c-0.3,0.1-0.5,0.5-0.3,0.8l3.1,4.4l-3.1,0.7c-0.4,0.1-0.5,0.6-0.2,0.8L1898.8,2079.8z"/>
<path class="st2" d="M1905.6,2070.1l3.3,0.8l-2.4,4.9c-0.2,0.5,0.4,1,0.8,0.6l6.6-7.1c0.2-0.3,0.2-0.7-0.2-0.8l-3.1-0.8l3.1-4.4
	c0.2-0.3,0.1-0.7-0.3-0.8l-3.5-0.8c-0.2-0.1-0.5,0.1-0.6,0.2l-4,7.5C1905.1,2069.7,1905.3,2070.1,1905.6,2070.1z"/>
<g>
	<path class="st2" d="M2127.3,2077.1c4.1,0,7.4-3.4,7.4-7.4c0-4.1-3.3-7.5-7.4-7.5c-4.1,0-7.5,3.4-7.5,7.5
		C2119.8,2073.7,2123.2,2077.1,2127.3,2077.1L2127.3,2077.1z"/>
	<path class="st2" d="M2156.5,2130.5c-1.8,0-3.5-0.4-5-1.1c-1.5-0.7-3.3-1.1-5.1-1.1c-1.8,0-3.6,0.4-5.1,1.1c-1.5,0.7-3.2,1.1-5,1.1
		s-3.4-0.4-4.9-1.1c-1.5-0.7-3.3-1.1-5.1-1.1s-3.6,0.4-5.1,1.1c-1.5,0.7-3.2,1.1-4.9,1.1c-1.8,0-3.4-0.4-5-1.1
		c-1.5-0.7-3.3-1.1-5.1-1.1s-3.6,0.4-5.1,1.1c-1.5,0.7-3.2,1.1-4.9,1.1c-1.7,0-3.4-0.4-4.9-1.1c-1.5-0.7-3.3-1.1-5.1-1.1
		c-1.8,0-3.6,0.4-5.1,1.1c-1.5,0.7-3.2,1.1-4.9,1.1v-7.4c1.8,0,3.4-0.4,4.9-1.1c1.5-0.7,3.3-1.1,5.1-1.1c1.8,0,3.6,0.4,5.1,1.1
		c1.5,0.7,3.2,1.1,4.9,1.1c1.8,0,3.4-0.4,4.9-1.1c1.5-0.7,3.3-1.1,5.1-1.1s3.6,0.4,5.1,1.1c1.5,0.7,3.2,1.1,5,1.1s3.4-0.4,4.9-1.1
		c1.5-0.7,3.3-1.1,5.1-1.1s3.6,0.4,5.1,1.1c1.5,0.7,3.2,1.1,4.9,1.1c1.8,0,3.4-0.4,5-1.1c1.5-0.7,3.3-1.1,5.1-1.1
		c1.8,0,3.6,0.4,5.1,1.1c1.5,0.7,3.2,1.1,5,1.1V2130.5z"/>
	<path class="st2" d="M2081.1,2115.7c1.5-0.7,3.2-1.1,4.9-1.1c1.8,0,3.6,0.4,5.1,1.1c1.5,0.7,3.2,1.1,4.9,1.1c1.8,0,3.4-0.4,4.9-1.1
		c1.5-0.7,3.3-1.1,5.1-1.1s3.6,0.4,5.1,1.1c1.5,0.7,3.2,1.1,5,1.1s3.4-0.4,4.9-1.1c1-0.5,2-0.8,3.1-1l12.9-14.7h-16.6l6.9-11.8
		l15,8.2c5,2.8,8.6-3.7,3.6-6.5l-21.5-11.9c-7.9-4.4-11.3,2.9-11.3,2.9l-11.1,18.8l-29.2,0
		C2073.9,2105.2,2078.7,2112.4,2081.1,2115.7L2081.1,2115.7z"/>
	<path class="st2" d="M2128.1,2114.8c1.1,0.2,2.2,0.5,3.3,1c1.5,0.7,3.2,1.1,4.9,1.1c1.8,0,3.4-0.4,5-1.1c1.5-0.7,3.3-1.1,5.1-1.1
		c1.8,0,3.6,0.4,5.1,1.1c1.5,0.7,3.2,1.1,5,1.1l0-16.7l-15.5,0L2128.1,2114.8z"/>
</g>
<g>
	<path d="M44.9,58.3c0.6,1.1,1.4,2,2.6,2.5c0.2,0.1,0.3,0.3,0.4,0.5c0.2,1.2,0.9,2.3,1.8,3.1c1.8,1.5,4.5,1.7,6.5,0.5
		c1.5-0.9,2.5-2.5,2.6-4.3c0.1-1.3,0.6-2.4,1.5-3.1l7.6-5.9l1.2,0.1c1.9,0.2,3.7-0.3,5.2-1.5c4.8-3.7,10.7-5.6,17.2-5.6
		c3.9,0.1,7.7-1.2,10.7-3.6c7-5.5,8.5-15.9,3.4-23.1c-2.8-3.9-7-6.5-11.8-7.1l0,0c-4.5-0.6-8.9,0.7-12.5,3.5c-2.7,2.1-4.7,5-5.8,8.3
		c-1.8,5.9-5.6,11.1-10.8,15.2c-0.3,0.3-0.7,0.6-1,1l-1.4,1.6l3.4,0.4c-0.4,0.2-0.7,0.3-1,0.6l-10.5,8.2c-1,0.8-2.3,0.9-3.1,0.8
		c-0.1,0-0.2,0-0.3,0s-0.2,0-0.3,0c-1.7-0.2-3.3,0.3-4.5,1.5C44.3,53.5,43.8,56.1,44.9,58.3z M77.6,23.4c0.9-2.9,2.6-5.4,5-7.2
		c3.1-2.4,7-3.5,10.9-3c4.1,0.5,7.8,2.7,10.2,6.1c4.5,6.3,3.1,15.3-2.9,20.1c-2.7,2.1-5.9,3.2-9.3,3.2c-7-0.1-13.4,2-18.6,6
		c-0.6,0.5-1.3,0.8-2,0.9l3.1-7l-4,0.8l0.3-2.1l0.2-1.8L67,38.8C72.1,34.6,75.7,29.3,77.6,23.4z M47.5,53.4c0.7-0.7,1.7-1,2.7-0.9
		l0.2,0c1.9,0.3,3.7-0.1,5.1-1.2L66,43.2c0.5-0.4,1.2-0.6,1.9-0.6L67.4,46l2.8-0.6l-1,2.3l-10.4,8.1c-1.4,1.1-2.2,2.7-2.4,4.7
		c-0.1,1.1-0.6,2-1.6,2.6c-1.2,0.7-2.8,0.6-3.9-0.3c-0.5-0.4-0.8-1-1-1.6c1.1-0.1,2.2-0.6,3.1-1.4c0.5-0.4,0.5-1.1,0.1-1.6
		c-0.2-0.2-0.4-0.3-0.7-0.4c-0.3,0-0.6,0-0.9,0.3c-0.7,0.7-1.7,1-2.7,0.9c-0.2,0-0.3,0-0.4,0c-0.1-0.1-0.2-0.1-0.3-0.2
		c-0.7-0.3-1.2-0.8-1.5-1.5C46.2,56,46.5,54.4,47.5,53.4z"/>
</g>
<g transform="translate(0.000000,512.000000) scale(0.100000,-0.100000)">
	<path d="M256.8,4973.9c-104.9-12-180.3-39-212.5-75.8c-11.8-13.5-17.4-29.1-18.3-50.5c-1.9-44.7-1.2-60,3.1-73.9
		c8.7-28,25.1-39.3,65.4-44.7c67.7-9.1,127.1-26.2,184-53c43.2-20.4,49.4-21.8,94.5-21.8c44.4,0.2,60,3.5,94.3,19.9
		c35.1,17.2,55.7,41.5,70,83.3c10.8,31.8,14.3,66.9,9.1,89.1c-8.1,34.3-34.5,71-66.3,92.4c-25.1,17-59.8,29.3-98.5,34.9
		C355.1,4978.1,292.1,4977.9,256.8,4973.9z M391.8,4945.3c60.7-13.9,98-39.7,119.2-82c12.9-25.3,14.5-51.3,4.4-67.7
		c-11.2-18.3-35.5-32.8-70.2-42c-17.9-4.8-24.3-5.4-57.5-5.6c-44.2-0.2-46.5,0.2-103.2,22.8c-48.4,19.1-69.6,24.3-127.3,30.9
		c-61.3,7.1-70.8,8.7-83.5,14.5c-18.1,8.1-24.5,24.3-18.5,45.7c11.4,39,86.4,70.4,203.8,85.2C290,4951.1,371.5,4949.8,391.8,4945.3z
		 M70.7,4787.8c6.2-2.3,21.8-5.4,34.3-6.9c12.7-1.7,39.3-4.8,59-7.3c46.3-5.6,67.1-11,111.3-28.9c49-19.9,62.3-23.3,97.8-24.5
		c44.4-1.7,83.7,4.8,114.7,19.1c8.3,3.9,15.2,6.4,15.2,5.8c0-0.8-2.9-5.8-6.4-11.4c-13.7-21.4-39.3-37.8-73.5-47.8
		c-14.3-4.2-21.2-4.8-50.9-4.8c-31.6,0.2-35.5,0.6-50.1,5.6c-8.5,3.1-24.9,10.2-36.3,15.8c-42.8,21.4-108.6,41.1-169.1,50.3
		c-38.2,6-44,7.5-50.3,12.5c-5.6,4.2-10.8,13.5-13.3,23.7c-1.2,5.4-1,5.8,2.5,4.4C57.6,4792.6,64.7,4789.9,70.7,4787.8z"/>
	<path d="M388.7,4905.2c-20.8-7.9-21.6-29.3-1.5-40.9c23.7-13.9,58.4-5.6,58.4,14.1c0,16.2-17.2,28.5-40.3,28
		C397.8,4906.4,390.4,4905.8,388.7,4905.2z"/>
</g>
</svg>
