<?xml version="1.0" encoding="utf-8"?>
<!-- Generator: Adobe Illustrator 28.1.0, SVG Export Plug-In . SVG Version: 6.00 Build 0)  -->
<svg version="1.1" id="Layer_1" xmlns="http://www.w3.org/2000/svg" xmlns:xlink="http://www.w3.org/1999/xlink" x="0px" y="0px"
	 viewBox="0 0 110.6 76.5" style="enable-background:new 0 0 110.6 76.5;" xml:space="preserve">
<style type="text/css">
	.st0{display:none;}
	.st1{display:inline;fill:none;}
	.st2{fill:#808080;}
	.st3{fill:#FFFFFF;}
	.st4{fill:#231F20;}
</style>
<g id="Layer_2_00000073722119373351752270000017113015111246931634_" class="st0">
	<line class="st1" x1="-24.1" y1="74.5" x2="142.1" y2="74.5"/>
	<line class="st1" x1="-24.1" y1="2" x2="142.1" y2="2"/>
</g>
<g>
	<path class="st2" d="M1879.7,2086.8c3.3,0,6-2.7,6-6s-2.7-6-6-6c-3.3,0-6,2.7-6,6C1873.8,2084.2,1876.4,2086.8,1879.7,2086.8z"/>
	<path class="st2" d="M1886.1,2093.1c5.9-0.8,13.2-2.2,14.4-2.3c1.4-0.2,2.4-1.7,2.2-3.1s-1.7-2.4-3.1-2.2
		c-6.5,1.2-17.2,2.9-19.8,2.9c-10.4,0-15.2,6.9-15.3,7.2c-0.6,1-0.6,2.2,0.1,3.1l4.7,6.6c0.6,0.7,1.4,1.1,2.2,1.1
		c0.6,0,1.1-0.2,1.5-0.5c0.2-0.1,0.2-0.2,0.4-0.3v1.9l-1.7,19.9c-0.2,1.6,1.1,3.1,2.7,3.2c1.6,0.2,3.1-1.1,3.2-2.7l1.6-19.2h1.1
		l1.6,19.2c0.2,1.5,1.4,2.7,3,2.7c0.1,0,0.2,0,0.2,0c1.6-0.2,2.9-1.6,2.7-3.2l-1.7-19.9L1886.1,2093.1z M1873.3,2101.8l-3.2-4.6
		c0.7-0.6,1.8-1.5,3.3-2.2L1873.3,2101.8z"/>
</g>
<g>
	<path class="st2" d="M1933.8,2093.6c1.8,0.2,3.5,0.4,4.8,0.4c2,0,3.5-0.3,4.5-1.2c0.6-0.6,1.1-1.4,1.1-2.3c0.1-2.3-2.5-6.3-7.8-12
		c-0.9-1-2.5-1.1-3.6-0.1c-0.2,0.1-0.3,0.4-0.4,0.6c-0.8-2.4-2.9-4-5.6-4c-2.6,0-4.8,1.7-5.6,4c-0.1-0.2-0.3-0.4-0.4-0.6
		c-1-0.9-2.6-0.9-3.6,0.1c-5.3,5.7-7.9,9.7-7.8,12c0.1,0.9,0.4,1.7,1.1,2.3c1,0.9,2.5,1.2,4.5,1.2c1.3,0,3-0.1,4.8-0.4
		c0.4,0,0.7-0.1,1-0.1l0.3,12.5c0,0.1,0,0.2,0,0.4l-3.6,8.2c-0.4,0.9-0.6,1.9-0.8,2.8l-1.1,10c-0.2,1.6,0.9,3.1,2.6,3.3
		c0.1,0,0.2,0,0.4,0c1.4,0,2.7-1.1,2.9-2.6l1.3-10c0.1-0.4,0.1-0.9,0.4-1.2l3.8-8.7l3.8,8.7c0.1,0.4,0.3,0.8,0.4,1.2l1.3,10
		c0.2,1.6,1.6,2.7,3.3,2.6c1.6-0.2,2.7-1.6,2.6-3.3l-1.3-10c-0.1-1-0.4-1.9-0.8-2.8l-3.6-8.2c0-0.1,0-0.2,0-0.3l0.3-12.6
		C1933.2,2093.5,1933.5,2093.5,1933.8,2093.6z M1930.4,2088.4h-6.8c-1.1,0-2.5,0.1-3.9,0.3c-1.1,0.1-2.8,0.3-4.2,0.3
		c1.1-1.8,3.3-4.6,5.7-7c0-0.1,0.1-0.1,0.1-0.1c0.5,2.8,2.8,4.8,5.8,4.8c2.9,0,5.3-2.1,5.8-4.8c0,0.1,0.1,0.1,0.1,0.1
		c2.3,2.5,4.6,5.3,5.7,7c-1.3,0-3.1-0.2-4.2-0.3C1932.9,2088.5,1931.4,2088.4,1930.4,2088.4z"/>
</g>
<path class="st2" d="M1898.8,2079.8c0.4,0.4,1.1-0.1,0.8-0.6l-2.4-4.9l3.3-0.8c0.3-0.1,0.5-0.4,0.3-0.7l-4-7.5
	c-0.1-0.2-0.3-0.3-0.6-0.2l-3.5,0.8c-0.3,0.1-0.5,0.5-0.3,0.8l3.1,4.4l-3.1,0.7c-0.4,0.1-0.5,0.6-0.2,0.8L1898.8,2079.8z"/>
<path class="st2" d="M1905.6,2070.1l3.3,0.8l-2.4,4.9c-0.2,0.5,0.4,1,0.8,0.6l6.6-7.1c0.2-0.3,0.2-0.7-0.2-0.8l-3.1-0.8l3.1-4.4
	c0.2-0.3,0.1-0.7-0.3-0.8l-3.5-0.8c-0.2-0.1-0.5,0.1-0.6,0.2l-4,7.5C1905.1,2069.7,1905.3,2070.1,1905.6,2070.1z"/>
<g>
	<path class="st2" d="M2127.3,2077.1c4.1,0,7.4-3.4,7.4-7.4c0-4.1-3.3-7.5-7.4-7.5c-4.1,0-7.5,3.4-7.5,7.5
		C2119.8,2073.7,2123.2,2077.1,2127.3,2077.1L2127.3,2077.1z"/>
	<path class="st2" d="M2156.5,2130.5c-1.8,0-3.5-0.4-5-1.1c-1.5-0.7-3.3-1.1-5.1-1.1c-1.8,0-3.6,0.4-5.1,1.1c-1.5,0.7-3.2,1.1-5,1.1
		s-3.4-0.4-4.9-1.1c-1.5-0.7-3.3-1.1-5.1-1.1s-3.6,0.4-5.1,1.1c-1.5,0.7-3.2,1.1-4.9,1.1c-1.8,0-3.4-0.4-5-1.1
		c-1.5-0.7-3.3-1.1-5.1-1.1s-3.6,0.4-5.1,1.1c-1.5,0.7-3.2,1.1-4.9,1.1c-1.7,0-3.4-0.4-4.9-1.1c-1.5-0.7-3.3-1.1-5.1-1.1
		c-1.8,0-3.6,0.4-5.1,1.1c-1.5,0.7-3.2,1.1-4.9,1.1v-7.4c1.8,0,3.4-0.4,4.9-1.1c1.5-0.7,3.3-1.1,5.1-1.1c1.8,0,3.6,0.4,5.1,1.1
		c1.5,0.7,3.2,1.1,4.9,1.1c1.8,0,3.4-0.4,4.9-1.1c1.5-0.7,3.3-1.1,5.1-1.1s3.6,0.4,5.1,1.1c1.5,0.7,3.2,1.1,5,1.1s3.4-0.4,4.9-1.1
		c1.5-0.7,3.3-1.1,5.1-1.1s3.6,0.4,5.1,1.1c1.5,0.7,3.2,1.1,4.9,1.1c1.8,0,3.4-0.4,5-1.1c1.5-0.7,3.3-1.1,5.1-1.1
		c1.8,0,3.6,0.4,5.1,1.1c1.5,0.7,3.2,1.1,5,1.1V2130.5z"/>
	<path class="st2" d="M2081.1,2115.7c1.5-0.7,3.2-1.1,4.9-1.1c1.8,0,3.6,0.4,5.1,1.1c1.5,0.7,3.2,1.1,4.9,1.1c1.8,0,3.4-0.4,4.9-1.1
		c1.5-0.7,3.3-1.1,5.1-1.1s3.6,0.4,5.1,1.1c1.5,0.7,3.2,1.1,5,1.1s3.4-0.4,4.9-1.1c1-0.5,2-0.8,3.1-1l12.9-14.7h-16.6l6.9-11.8
		l15,8.2c5,2.8,8.6-3.7,3.6-6.5l-21.5-11.9c-7.9-4.4-11.3,2.9-11.3,2.9l-11.1,18.8l-29.2,0
		C2073.9,2105.2,2078.7,2112.4,2081.1,2115.7L2081.1,2115.7z"/>
	<path class="st2" d="M2128.1,2114.8c1.1,0.2,2.2,0.5,3.3,1c1.5,0.7,3.2,1.1,4.9,1.1c1.8,0,3.4-0.4,5-1.1c1.5-0.7,3.3-1.1,5.1-1.1
		c1.8,0,3.6,0.4,5.1,1.1c1.5,0.7,3.2,1.1,5,1.1l0-16.7l-15.5,0L2128.1,2114.8z"/>
</g>
<g>
	<g>
		<path d="M61.3,66.3V54.4c1.2,1,2.8,2.5,5,4.5c0.7,0.7,1.8,1.1,2.8,1.1c0.1,0,0.3,0,0.4,0c1.2-0.1,2.3-0.8,2.9-1.8l4.8-7.1
			c0.9-1.4,0.5-3.3-0.9-4.2c-1.4-0.9-3.2-0.6-4.2,0.8l-3.5,5.3c-6.9-6.4-8.4-6.4-9.4-6.4h-9.2c-1,0-2.5,0-9.4,6.4l-3.5-5.3
			c-0.9-1.4-2.8-1.8-4.2-0.8c-1.4,0.9-1.8,2.8-0.8,4.2l4.7,7.1c0.7,1,1.8,1.6,2.9,1.8c1.2,0.1,2.3-0.3,3.2-1.1c2.2-2,3.8-3.5,5-4.5
			v11.7c0,1.6,0.9,3,2.3,3.8l4.3,0h4.3C60.5,69.3,61.3,67.8,61.3,66.3z"/>
		<circle cx="54.8" cy="37.7" r="7.2"/>
	</g>
	<path d="M54.8,71.2"/>
	<path d="M56.1,74"/>
	<g>
		<g>
			<path class="st3" d="M54.6,6.3c1.7,0,3,1.2,3,2.8c0,1.9-2.2,2.6-4.9,2.3V18h3.9v-3c3.5-0.5,5.4-2.6,5.4-5.9c0-4-2.8-6.6-6.9-6.6
				c-1.7,0-3.3,0.4-4.9,1.2l0.5,3.8C52.5,6.6,53.5,6.3,54.6,6.3z"/>
			<path class="st3" d="M54.5,20.4c-1.3,0-2.3,1.1-2.3,2.4c0,1.3,1.1,2.4,2.4,2.4c1.3,0,2.4-1,2.4-2.3C57,21.5,55.9,20.4,54.5,20.4z
				"/>
			<path class="st3" d="M30.3,18.4c-1.7,0-3.3,0.4-4.9,1.2l0.5,3.8c1.9-0.9,2.9-1.2,4-1.2c1.7,0,3,1.2,3,2.8c0,1.9-2.2,2.6-4.9,2.3
				v6.6h3.9v-3c3.5-0.5,5.4-2.6,5.4-5.9C37.3,21,34.5,18.4,30.3,18.4z"/>
			<path class="st3" d="M29.8,36.3c-1.3,0-2.3,1.1-2.3,2.4c0,1.3,1.1,2.4,2.4,2.4c1.3,0,2.4-1,2.4-2.3
				C32.3,37.4,31.2,36.3,29.8,36.3z"/>
			<path class="st3" d="M76.7,35.6c-1.3,0-2.3,1.1-2.3,2.4c0,1.3,1.1,2.4,2.4,2.4c1.3,0,2.4-1,2.4-2.3
				C79.2,36.7,78.1,35.6,76.7,35.6z"/>
			<path class="st3" d="M77.2,17.7c-1.7,0-3.3,0.4-4.9,1.2l0.5,3.8c1.9-0.9,2.9-1.2,4-1.2c1.7,0,3,1.2,3,2.8c0,1.9-2.2,2.6-4.9,2.3
				v6.6h3.9v-3c3.5-0.5,5.4-2.6,5.4-5.9C84.2,20.4,81.4,17.7,77.2,17.7z"/>
		</g>
		<g>
			<path class="st4" d="M54.6,6.3c1.7,0,3,1.2,3,2.8c0,1.9-2.2,2.6-4.9,2.3V18h3.9v-3c3.5-0.5,5.4-2.6,5.4-5.9c0-4-2.8-6.6-6.9-6.6
				c-1.7,0-3.3,0.4-4.9,1.2l0.5,3.8C52.5,6.6,53.5,6.3,54.6,6.3z"/>
			<path class="st4" d="M54.5,20.4c-1.3,0-2.3,1.1-2.3,2.4c0,1.3,1.1,2.4,2.4,2.4c1.3,0,2.4-1,2.4-2.3C57,21.5,55.9,20.4,54.5,20.4z
				"/>
			<path class="st4" d="M30.3,18.4c-1.7,0-3.3,0.4-4.9,1.2l0.5,3.8c1.9-0.9,2.9-1.2,4-1.2c1.7,0,3,1.2,3,2.8c0,1.9-2.2,2.6-4.9,2.3
				v6.6h3.9v-3c3.5-0.5,5.4-2.6,5.4-5.9C37.3,21,34.5,18.4,30.3,18.4z"/>
			<path class="st4" d="M29.8,36.3c-1.3,0-2.3,1.1-2.3,2.4c0,1.3,1.1,2.4,2.4,2.4c1.3,0,2.4-1,2.4-2.3
				C32.3,37.4,31.2,36.3,29.8,36.3z"/>
			<path class="st4" d="M76.7,35.6c-1.3,0-2.3,1.1-2.3,2.4c0,1.3,1.1,2.4,2.4,2.4c1.3,0,2.4-1,2.4-2.3
				C79.2,36.7,78.1,35.6,76.7,35.6z"/>
			<path class="st4" d="M77.2,17.7c-1.7,0-3.3,0.4-4.9,1.2l0.5,3.8c1.9-0.9,2.9-1.2,4-1.2c1.7,0,3,1.2,3,2.8c0,1.9-2.2,2.6-4.9,2.3
				v6.6h3.9v-3c3.5-0.5,5.4-2.6,5.4-5.9C84.2,20.4,81.4,17.7,77.2,17.7z"/>
		</g>
	</g>
</g>
</svg>
