<?xml version="1.0" encoding="utf-8"?>
<!-- Generator: Adobe Illustrator 28.1.0, SVG Export Plug-In . SVG Version: 6.00 Build 0)  -->
<svg version="1.1" id="Layer_1" xmlns="http://www.w3.org/2000/svg" xmlns:xlink="http://www.w3.org/1999/xlink" x="0px" y="0px"
	 viewBox="0 0 110.6 76.5" style="enable-background:new 0 0 110.6 76.5;" xml:space="preserve">
<style type="text/css">
	.st0{display:none;}
	.st1{display:inline;fill:none;}
	.st2{fill:#808080;}
</style>
<g id="Layer_2_00000073722119373351752270000017113015111246931634_" class="st0">
	<line class="st1" x1="-24.1" y1="74.5" x2="142.1" y2="74.5"/>
	<line class="st1" x1="-24.1" y1="2" x2="142.1" y2="2"/>
</g>
<g>
	<g>
		<path class="st2" d="M2198.7,1892.5c-0.1,0.6-0.2,0.9-0.8,1.1c-0.3,0.1-0.6,0.2-0.8,0.4c-0.1,0.1-0.1,0.2-0.2,0.3
			c0.1,0.1,0.3,0.2,0.4,0.2c0.4,0,0.7-0.1,1.1-0.2c0.1,0.9-0.1,1.1-1,1.3c-3.8,1.1-7.6,2.2-11.4,3.1c-3.3,0.8-7-1.7-7.4-5.1
			c-0.2-1.7-0.4-3.4-0.4-5.1c-0.1-2.1-0.9-4-1.9-5.8c-3.5-6.1-7-12.2-10.5-18.2c-0.6-1-1.2-2.1-1.8-3.1c-0.1-0.3-0.2-0.4,0.1-0.6
			c1.1-0.6,2.2-1.3,3.4-1.9c0.5,0.8,0.9,1.5,1.3,2.3c4,6.9,8,13.9,12,20.8c1,1.8,1.4,3.7,1.3,5.7c-0.1,1.3-0.2,2.6-0.2,3.9
			c0,1.7,1.2,2.9,3,2.9c4.5-0.1,8.9-0.6,13.2-1.8C2198.1,1892.6,2198.4,1892.5,2198.7,1892.5z"/>
		<path class="st2" d="M2154.7,1847.3c0.2,0.3,0.4,0.7,0.6,1c0.5,0.8,1,0.9,1.7,0.4c1.1-0.6,2.2-1.3,3.3-1.9
			c0.8-0.4,1.4-0.4,1.9,0.2c0.6,0.6,0.6,1.3,0.1,2.1c-0.1,0.1-0.1,0.2-0.2,0.4c0.9-0.2,1.6-0.1,2,0.7c0.4,0.8,0.1,1.4-0.4,2.2
			c1.1-0.2,1.8,0,2.2,0.9c0.4,1.1-0.2,1.8-1.2,2.2c0,0.1,0.1,0.1,0.1,0.1c0.2,0,0.4,0,0.6,0c0.7,0,1.4,0.4,1.6,1
			c0.2,0.7,0,1.4-0.7,1.8c-1.6,0.9-3.2,1.9-4.8,2.8c-1.2,0.7-2.5,1.1-3.8,1.3s-2.6,0.6-3.8,1.2c-0.8,0.4-1.2,0.3-1.6-0.5
			c-1.2-2.1-2.4-4.2-3.6-6.3c-0.4-0.6-0.3-1.1,0.2-1.5c2-1.4,3.2-3.4,4.1-5.5c0.4-0.8,0.9-1.6,1.4-2.3
			C2154.4,1847.4,2154.5,1847.4,2154.7,1847.3z"/>
		<path class="st2" d="M2140.8,1831.4c0.9-0.1,1.6-0.2,2.4-0.3c0.1,0,0.3,0,0.4,0.1c2.9,1.3,5.8,2.6,8.6,4c1.5,0.7,2.6,1.9,3.5,3.4
			c1.3,2.2,2.6,4.5,3.9,6.8c0.3,0.5,0.2,0.7-0.3,0.9c-1,0.5-2,1.1-3.1,1.8c-0.5-0.8-0.9-1.6-1.4-2.3c-0.9-1.6-1.8-3.2-2.8-4.7
			c-0.8-1.4-2.1-2.4-3.4-3.4c-2.5-1.9-5-3.9-7.5-5.8C2141.1,1831.7,2141,1831.6,2140.8,1831.4z"/>
	</g>
	<path class="st2" d="M2202.7,1888.8l-4.1,1.2c-0.1,0-0.1,0.2-0.1,0.3l0.2,0.6c0,0.1,0.1,0.2,0.2,0.2l1.4-0.4l3.4,11.1l1.1,1.1
		l0.3-1.5l-3.4-11.1l1.4-0.4c0.1,0,0.1-0.2,0.1-0.3l-0.2-0.6C2202.9,1888.9,2202.8,1888.8,2202.7,1888.8z"/>
</g>
<g>
	<path d="M28.2,45.8c-0.3,1-1.4,1.6-2.4,1.3c-1-0.3-1.6-1.4-1.3-2.4c2-6.5,6.1-12.1,11.5-16c5.2-3.8,11.7-6.1,18.7-6.1
		c8.5,0,16.3,3.4,22,8.9c5.3,5.1,8.8,12.1,9.5,19.8h7.3c1.1,0,1.9,0.9,1.9,1.9s-0.9,1.9-1.9,1.9H15.9c-1.1,0-1.9-0.9-1.9-1.9
		s0.9-1.9,1.9-1.9h66.5c-0.7-6.7-3.8-12.7-8.3-17.1c-5-4.8-11.8-7.8-19.3-7.8c-6.1,0-11.8,2-16.4,5.4C33.6,35.2,30,40.1,28.2,45.8
		L28.2,45.8z M40.8,9.6c-0.3-1,0.3-2.1,1.4-2.3c1-0.3,2.1,0.3,2.3,1.4l2.5,9.5c0.3,1-0.3,2.1-1.4,2.3s-2.1-0.3-2.3-1.4L40.8,9.6
		L40.8,9.6z M20.4,22.5c-0.7-0.7-0.7-2,0-2.7c0.7-0.7,2-0.7,2.7,0l7,7c0.7,0.7,0.7,2,0,2.7c-0.7,0.7-2,0.7-2.7,0L20.4,22.5
		L20.4,22.5z M28.1,11.8c-0.5-0.9-0.2-2.1,0.7-2.6c0.9-0.5,2.1-0.2,2.6,0.7L38,21.3c0.5,0.9,0.2,2.1-0.7,2.6
		c-0.9,0.5-2.1,0.2-2.6-0.7C34.7,23.2,28.1,11.8,28.1,11.8z M69.3,70.6c1.1,0,1.9,0.9,1.9,1.9c0,1.1-0.9,1.9-1.9,1.9H40.2
		c-1.1,0-1.9-0.9-1.9-1.9c0-1.1,0.9-1.9,1.9-1.9H69.3z M28.9,64.8c-1.1,0-1.9-0.9-1.9-1.9c0-1.1,0.9-1.9,1.9-1.9h51.7
		c1.1,0,1.9,0.9,1.9,1.9c0,1.1-0.9,1.9-1.9,1.9H28.9L28.9,64.8z M65,8.6c0.3-1,1.3-1.6,2.3-1.4c1,0.3,1.6,1.3,1.4,2.3l-2.5,9.5
		c-0.3,1-1.3,1.6-2.3,1.4c-1-0.3-1.6-1.3-1.4-2.3L65,8.6L65,8.6z M86.4,19.8c0.7-0.7,2-0.7,2.7,0c0.7,0.7,0.7,2,0,2.7l-7,7
		c-0.7,0.7-2,0.7-2.7,0c-0.7-0.7-0.7-2,0-2.7L86.4,19.8L86.4,19.8z M78.1,9.9c0.5-0.9,1.7-1.2,2.6-0.7c0.9,0.5,1.2,1.7,0.7,2.6
		l-6.6,11.4c-0.5,0.9-1.7,1.2-2.6,0.7c-0.9-0.5-1.2-1.7-0.7-2.6C71.5,21.3,78.1,9.9,78.1,9.9z M52.8,4.2c0-1.1,0.9-1.9,1.9-1.9
		c1.1,0,1.9,0.9,1.9,1.9v13.2c0,1.1-0.9,1.9-1.9,1.9c-1.1,0-1.9-0.9-1.9-1.9C52.8,17.3,52.8,4.2,52.8,4.2z"/>
</g>
</svg>
