<?xml version="1.0" encoding="utf-8"?>
<!-- Generator: Adobe Illustrator 28.1.0, SVG Export Plug-In . SVG Version: 6.00 Build 0)  -->
<svg version="1.1" id="Layer_1" xmlns="http://www.w3.org/2000/svg" xmlns:xlink="http://www.w3.org/1999/xlink" x="0px" y="0px"
	 viewBox="0 0 110.55 76.54" style="enable-background:new 0 0 110.55 76.54;" xml:space="preserve">
<style type="text/css">
	.st0{display:none;}
	.st1{display:inline;fill:none;}
</style>
<g id="Layer_2_00000073722119373351752270000017113015111246931634_" class="st0">
	<line class="st1" x1="-24.13" y1="74.54" x2="142.13" y2="74.54"/>
	<line class="st1" x1="-24.13" y1="2" x2="142.13" y2="2"/>
</g>
<g>
	<path d="M51.2,49.5c1.29,0,2.31-1.01,2.31-2.36c0-1.28-1.02-2.29-2.31-2.29c-1.36,0-2.38,1.01-2.38,2.29
		C48.81,48.49,49.84,49.5,51.2,49.5z"/>
	<path d="M51.2,44.02c0.21,0,0.39-0.17,0.39-0.39v-1.01c0-0.21-0.17-0.39-0.39-0.39s-0.39,0.17-0.39,0.39v1.01
		C50.81,43.85,50.98,44.02,51.2,44.02z"/>
	<path d="M54,44.91l0.68-0.74c0.14-0.16,0.13-0.4-0.02-0.55s-0.4-0.13-0.55,0.02l-0.68,0.74c-0.14,0.16-0.13,0.4,0.02,0.55
		S53.86,45.07,54,44.91z"/>
	<path d="M54.35,47.14c0,0.21,0.17,0.39,0.39,0.39h1.02c0.21,0,0.39-0.17,0.39-0.39s-0.17-0.39-0.39-0.39h-1.02
		C54.53,46.75,54.35,46.92,54.35,47.14z"/>
	<path d="M53.99,49.42c-0.15-0.15-0.4-0.15-0.55,0c-0.15,0.15-0.15,0.4,0,0.55l0.68,0.67c0.15,0.15,0.4,0.15,0.55,0
		c0.15-0.15,0.15-0.4,0-0.55L53.99,49.42z"/>
	<path d="M50.81,50.71v1.01c0,0.21,0.17,0.39,0.39,0.39s0.39-0.17,0.39-0.39v-1.01c0-0.21-0.17-0.39-0.39-0.39
		S50.81,50.5,50.81,50.71z"/>
	<path d="M48.34,49.42l-0.68,0.67c-0.15,0.15-0.15,0.4,0,0.55s0.4,0.15,0.55,0l0.68-0.67c0.15-0.15,0.15-0.4,0-0.55
		S48.49,49.27,48.34,49.42z"/>
	<path d="M46.57,47.53h1.02c0.21,0,0.39-0.17,0.39-0.39s-0.17-0.39-0.39-0.39h-1.02c-0.21,0-0.39,0.17-0.39,0.39
		S46.35,47.53,46.57,47.53z"/>
	<path d="M48.32,44.91c0.14,0.16,0.39,0.17,0.55,0.02s0.17-0.39,0.02-0.55l-0.68-0.74c-0.14-0.16-0.39-0.17-0.55-0.02
		s-0.17,0.39-0.02,0.55L48.32,44.91z"/>
	<path d="M41.02,35.95l16.05-8.5c0.42-0.23,0.58-0.75,0.35-1.18l-5.16-9.75v0l-2.46-4.64l0,0l-0.01-0.02
		c-0.23-0.43-0.76-0.59-1.18-0.36L23.64,24.72c-0.43,0.23-0.59,0.76-0.36,1.18l5.77,10.88c1.26,2.38,4.22,3.28,6.59,2.02l3.98-2.11
		V74.9H89.4V35.95H41.02z M25.66,26.65l-0.41-0.78l2-1.06l-0.94,3.07L25.66,26.65z M29.44,23.65l4.38-2.32l-1.46,4.74l-4.38,2.32
		L29.44,23.65z M36.01,20.17l4.39-2.32l-1.46,4.74l-4.39,2.32L36.01,20.17z M42.59,16.69l4.27-2.26l-1.46,4.74l-4.27,2.26
		L42.59,16.69z M48.86,13.87l1.43,2.7L47.59,18L48.86,13.87z M34.81,37.26c-1.52,0.81-3.41,0.23-4.22-1.3l-2.89-5.45l23.42-12.41
		l4.35,8.21L34.81,37.26z M86.95,72.14H42.14V38.72h44.81V72.14z"/>
	<polygon points="86.17,59.59 75.51,48.42 65.23,60.68 59.92,54.35 42.92,71.36 86.17,71.36 	"/>
	<path d="M23.31,24.4c0.04-0.02,0.09-0.05,0.13-0.08L45.58,6.78c0.38-0.3,0.44-0.85,0.14-1.23l-3.27-4.13
		c-0.3-0.38-0.85-0.44-1.23-0.14l-0.6,0.47c-0.02,0.02-0.04,0.03-0.06,0.05L19.08,18.81c-0.38,0.3-0.44,0.85-0.14,1.23l3.26,4.14
		c0.04,0.05,0.09,0.08,0.13,0.12c0.01,0.01,0.02,0.02,0.03,0.03c0.08,0.06,0.17,0.11,0.26,0.14c0.01,0,0.02,0.01,0.03,0.01
		c0.1,0.03,0.2,0.04,0.3,0.03c0.01,0,0.02,0,0.03,0C23.09,24.49,23.21,24.46,23.31,24.4z M33.7,13.96l-3.87,3.06l0.57-4.94
		l3.87-3.06L33.7,13.96z M36.2,7.48l3.83-3.03L39.46,9.4l-3.82,3.02L36.2,7.48z M27.9,18.55l-3.89,3.08l0.58-4.95l3.88-3.07
		L27.9,18.55z M43.81,5.95L41.4,7.86l0.5-4.32L43.81,5.95z M22.64,18.22l-0.37,3.21l-1.42-1.79L22.64,18.22z"/>
	<path d="M50.7,25.67l-1.9-3.58c-0.23-0.43-0.76-0.59-1.18-0.36l-7.47,3.96h0l0,0l-7.46,3.95c-0.43,0.23-0.59,0.76-0.36,1.18
		l1.9,3.58c0.23,0.43,0.76,0.59,1.18,0.36l14.93-7.91C50.76,26.62,50.93,26.09,50.7,25.67z M35.36,32.8l-1.08-2.03l5.91-3.13
		l1.08,2.03L35.36,32.8z M42.82,28.85l-1.08-2.03l5.92-3.14l1.08,2.03L42.82,28.85z"/>
</g>
</svg>
