<?xml version="1.0" encoding="utf-8"?>
<!-- Generator: Adobe Illustrator 28.1.0, SVG Export Plug-In . SVG Version: 6.00 Build 0)  -->
<svg version="1.1" id="Layer_1" xmlns="http://www.w3.org/2000/svg" xmlns:xlink="http://www.w3.org/1999/xlink" x="0px" y="0px"
	 viewBox="0 0 110.55 76.54" style="enable-background:new 0 0 110.55 76.54;" xml:space="preserve">
<style type="text/css">
	.st0{display:none;}
	.st1{display:inline;fill:none;}
	.st2{fill:#808080;}
	.st3{fill:none;stroke:#000000;stroke-width:14.1732;stroke-linecap:round;stroke-miterlimit:10;}
	.st4{fill-rule:evenodd;clip-rule:evenodd;}
</style>
<g id="Layer_2_00000073722119373351752270000017113015111246931634_" class="st0">
	<line class="st1" x1="-24.13" y1="74.54" x2="142.13" y2="74.54"/>
	<line class="st1" x1="-24.13" y1="2" x2="142.13" y2="2"/>
</g>
<g>
	<path class="st2" d="M1879.74,2086.84c3.3,0,5.96-2.66,5.96-5.96c0-3.3-2.66-5.96-5.96-5.96c-3.3,0-5.96,2.66-5.96,5.96
		C1873.77,2084.18,1876.43,2086.84,1879.74,2086.84z"/>
	<path class="st2" d="M1886.1,2093.13c5.88-0.81,13.22-2.18,14.43-2.34c1.45-0.24,2.42-1.69,2.18-3.14
		c-0.24-1.45-1.69-2.42-3.14-2.18c-6.53,1.21-17.17,2.9-19.83,2.9c-10.4,0-15.15,6.93-15.31,7.25c-0.64,0.97-0.56,2.18,0.08,3.06
		l4.67,6.61c0.56,0.73,1.37,1.13,2.18,1.13c0.56,0,1.05-0.16,1.53-0.48c0.16-0.08,0.24-0.24,0.4-0.32v1.85l-1.69,19.91
		c-0.16,1.61,1.05,3.06,2.74,3.22c1.61,0.16,3.06-1.05,3.22-2.74l1.61-19.18h1.13l1.61,19.18c0.16,1.53,1.45,2.74,2.98,2.74
		c0.08,0,0.16,0,0.24,0c1.61-0.16,2.9-1.61,2.74-3.22l-1.69-19.91L1886.1,2093.13z M1873.29,2101.83l-3.22-4.59
		c0.73-0.64,1.85-1.53,3.3-2.18L1873.29,2101.83z"/>
</g>
<g>
	<path class="st2" d="M1933.79,2093.61c1.85,0.21,3.48,0.36,4.83,0.36c1.99,0,3.48-0.28,4.48-1.21c0.64-0.57,1.07-1.35,1.07-2.27
		c0.14-2.27-2.49-6.33-7.75-12.01c-0.92-1-2.49-1.07-3.55-0.14c-0.21,0.14-0.28,0.36-0.43,0.57c-0.78-2.35-2.91-3.98-5.55-3.98
		c-2.56,0-4.76,1.71-5.55,3.98c-0.14-0.21-0.28-0.43-0.43-0.57c-1-0.92-2.56-0.85-3.55,0.14c-5.26,5.69-7.89,9.67-7.75,12.01
		c0.07,0.92,0.43,1.71,1.07,2.27c1,0.85,2.49,1.21,4.48,1.21c1.35,0,2.99-0.14,4.83-0.36c0.36,0,0.71-0.07,1-0.07l0.28,12.51
		c0,0.14,0,0.21,0,0.36l-3.55,8.25c-0.36,0.92-0.64,1.85-0.78,2.77l-1.07,10.02c-0.21,1.56,0.92,3.06,2.56,3.27
		c0.14,0,0.21,0,0.36,0c1.42,0,2.7-1.07,2.91-2.56l1.28-10.02c0.07-0.43,0.14-0.85,0.36-1.21l3.77-8.74l3.77,8.74
		c0.14,0.43,0.28,0.78,0.36,1.21l1.28,10.02c0.21,1.56,1.64,2.7,3.27,2.56c1.56-0.21,2.7-1.64,2.56-3.27l-1.28-10.02
		c-0.14-1-0.36-1.92-0.78-2.77l-3.55-8.25c0-0.07,0-0.21,0-0.28l0.28-12.58C1933.15,2093.54,1933.51,2093.54,1933.79,2093.61z
		 M1930.38,2088.35h-6.75c-1.14,0-2.49,0.14-3.91,0.28c-1.14,0.14-2.84,0.28-4.19,0.28c1.14-1.78,3.34-4.55,5.69-7.04
		c0-0.07,0.07-0.07,0.07-0.14c0.5,2.77,2.84,4.83,5.76,4.83c2.91,0,5.26-2.06,5.76-4.83c0,0.07,0.07,0.07,0.07,0.14
		c2.35,2.49,4.55,5.26,5.69,7.04c-1.35,0-3.06-0.21-4.19-0.28C1932.87,2088.49,1931.44,2088.35,1930.38,2088.35z"/>
</g>
<path class="st2" d="M1898.76,2079.8c0.4,0.4,1.05-0.08,0.81-0.56l-2.42-4.92l3.3-0.81c0.32-0.08,0.48-0.4,0.32-0.73l-4.03-7.5
	c-0.08-0.16-0.32-0.32-0.56-0.24l-3.47,0.81c-0.32,0.08-0.48,0.48-0.32,0.81l3.14,4.43l-3.06,0.73c-0.4,0.08-0.48,0.56-0.24,0.81
	L1898.76,2079.8z"/>
<path class="st2" d="M1905.57,2070.13l3.3,0.81l-2.42,4.92c-0.24,0.48,0.4,0.97,0.81,0.56l6.61-7.09c0.24-0.32,0.16-0.73-0.24-0.81
	l-3.06-0.81l3.14-4.43c0.24-0.32,0.08-0.73-0.32-0.81l-3.47-0.81c-0.24-0.08-0.48,0.08-0.56,0.24l-4.03,7.5
	C1905.08,2069.73,1905.32,2070.05,1905.57,2070.13z"/>
<g>
	<path class="st2" d="M2127.3,2077.06c4.13,0,7.45-3.35,7.45-7.45c0-4.13-3.33-7.47-7.45-7.47c-4.13,0-7.47,3.35-7.47,7.47
		C2119.83,2073.72,2123.17,2077.06,2127.3,2077.06L2127.3,2077.06z"/>
	<path class="st2" d="M2156.47,2130.52c-1.76,0-3.47-0.4-4.97-1.06c-1.54-0.72-3.29-1.14-5.11-1.14c-1.8,0-3.55,0.42-5.09,1.14
		c-1.52,0.66-3.21,1.06-4.97,1.06c-1.76,0-3.45-0.4-4.95-1.06c-1.54-0.72-3.29-1.14-5.11-1.14c-1.82,0-3.57,0.42-5.11,1.14
		c-1.5,0.66-3.18,1.06-4.95,1.06c-1.76,0-3.45-0.4-4.97-1.06c-1.54-0.72-3.27-1.14-5.09-1.14c-1.82,0-3.57,0.42-5.11,1.14
		c-1.5,0.66-3.19,1.06-4.95,1.06c-1.74,0-3.43-0.4-4.95-1.06c-1.54-0.72-3.29-1.14-5.09-1.14c-1.82,0-3.57,0.42-5.11,1.14
		c-1.5,0.66-3.19,1.06-4.95,1.06v-7.43c1.76,0,3.45-0.38,4.95-1.06c1.54-0.72,3.29-1.14,5.11-1.14c1.8,0,3.55,0.42,5.09,1.14
		c1.52,0.68,3.21,1.06,4.95,1.06c1.76,0,3.45-0.38,4.95-1.06c1.54-0.72,3.29-1.14,5.11-1.14c1.82,0,3.55,0.42,5.09,1.14
		c1.52,0.68,3.21,1.06,4.97,1.06c1.76,0,3.45-0.38,4.95-1.06c1.54-0.72,3.29-1.14,5.11-1.14c1.82,0,3.57,0.42,5.11,1.14
		c1.5,0.68,3.18,1.06,4.95,1.06c1.76,0,3.45-0.38,4.97-1.06c1.54-0.72,3.29-1.14,5.09-1.14c1.82,0,3.57,0.42,5.11,1.14
		c1.5,0.68,3.21,1.06,4.97,1.06V2130.52z"/>
	<path class="st2" d="M2081.13,2115.71c1.5-0.68,3.17-1.06,4.93-1.06c1.8,0,3.55,0.42,5.09,1.14c1.52,0.66,3.21,1.06,4.95,1.06
		c1.76,0,3.45-0.4,4.95-1.06c1.54-0.72,3.29-1.14,5.11-1.14c1.82,0,3.55,0.42,5.09,1.14c1.52,0.66,3.21,1.06,4.97,1.06
		c1.76,0,3.45-0.4,4.95-1.06c0.98-0.46,2-0.76,3.09-0.96l12.86-14.71h-16.55l6.85-11.76l15.03,8.21c4.97,2.8,8.64-3.67,3.65-6.47
		l-21.52-11.9c-7.92-4.41-11.26,2.91-11.26,2.91l-11.1,18.75l-29.23-0.02C2073.9,2105.2,2078.71,2112.37,2081.13,2115.71
		L2081.13,2115.71z"/>
	<path class="st2" d="M2128.12,2114.79c1.14,0.18,2.24,0.52,3.27,1c1.5,0.66,3.18,1.06,4.95,1.06c1.76,0,3.45-0.4,4.97-1.06
		c1.54-0.72,3.29-1.14,5.09-1.14c1.82,0,3.57,0.42,5.11,1.14c1.5,0.66,3.21,1.06,4.97,1.06l-0.04-16.73l-15.51-0.02L2128.12,2114.79
		z"/>
</g>
<g>
	<path class="st3" d="M50.42,54.71"/>
	<path d="M61.11,54.69c-0.6,0-1.14-0.43-1.26-1.04c-0.5-2.56-2.75-4.42-5.37-4.43c0,0,0,0-0.01,0c-2.59,0-4.85,1.84-5.37,4.39
		l-0.21,1.03h-7.33c0,0,0,0,0,0c-1.95,0-3.78-0.76-5.15-2.13c-1.38-1.38-2.14-3.21-2.14-5.16c0-2.17,0.96-4.22,2.63-5.61l5.4-4.54
		c0.54-0.46,1.35-0.39,1.81,0.16c0.46,0.54,0.38,1.35-0.16,1.81l-5.41,4.54c-1.09,0.91-1.71,2.23-1.71,3.64
		c0,1.26,0.49,2.45,1.39,3.34c0.89,0.89,2.08,1.38,3.34,1.38c0,0,0,0,0,0h5.31c1.11-3.19,4.15-5.41,7.6-5.41c0,0,0.01,0,0.01,0
		c3.84,0,7.15,2.74,7.88,6.5c0.13,0.69-0.32,1.37-1.01,1.5C61.27,54.69,61.19,54.69,61.11,54.69z"/>
	<g>
		<path d="M65.47,54.64c-0.71,0-1.28-0.57-1.28-1.28s0.57-1.28,1.28-1.28h9.23c1.64-0.01,3.19-0.75,4.25-2.01
			c2.08-2.5,1.59-6.04-0.07-7.94L67.9,33.14c-5.87-4.18-9.23-10.66-9.21-17.81V2.06c0-0.74,0.6-1.33,1.33-1.33
			c0.71,0,1.28,0.57,1.28,1.28c0,0.13-0.02,0.25-0.05,0.37v12.96c-0.02,6.32,2.96,12.05,8.16,15.74l0.07,0.05l11.17,9.14l0.06,0.07
			c2.78,3.07,2.86,8.17,0.2,11.37c-1.54,1.85-3.8,2.92-6.21,2.94L65.47,54.64z"/>
		<path d="M62.68,15.33"/>
		<path d="M69.67,30.02"/>
		<path class="st3" d="M80.76,39.02"/>
	</g>
	<path class="st4" d="M61.09,73.65c-0.35,0.77,0,1.75,0.84,2.03c0.21,0.07,0.42,0.14,0.63,0.14c0.63,0,1.19-0.35,1.47-0.98
		l0.56-1.26c0.84-1.96,0.49-4.19-0.84-5.8c-0.7-0.84-0.77-2.03-0.21-2.93l0.63-1.05c0.49-0.77,0.21-1.68-0.49-2.17
		c-0.77-0.49-1.68-0.21-2.17,0.49l-0.63,1.05c-1.26,2.03-1.12,4.68,0.42,6.57c0.63,0.77,0.77,1.75,0.35,2.58L61.09,73.65z"/>
	<path class="st4" d="M53.55,73.65c-0.35,0.77,0,1.75,0.84,2.03c0.21,0.07,0.42,0.14,0.63,0.14c0.63,0,1.19-0.35,1.47-0.98
		l0.56-1.26c0.84-1.96,0.49-4.19-0.84-5.8c-0.7-0.84-0.77-2.03-0.21-2.93l0.63-1.05c0.49-0.77,0.21-1.68-0.49-2.17
		c-0.77-0.49-1.68-0.21-2.17,0.49l-0.63,1.05c-1.26,2.03-1.12,4.68,0.42,6.57c0.63,0.77,0.77,1.75,0.35,2.58L53.55,73.65z"/>
	<path class="st4" d="M46.01,73.65c-0.35,0.77,0,1.75,0.84,2.03c0.21,0.07,0.42,0.14,0.63,0.14c0.63,0,1.19-0.35,1.47-0.98
		l0.56-1.26c0.84-1.96,0.49-4.19-0.84-5.8c-0.7-0.84-0.77-2.03-0.21-2.93l0.63-1.05c0.49-0.77,0.21-1.68-0.49-2.17
		c-0.77-0.42-1.68-0.21-2.17,0.49l-0.63,1.05c-1.26,2.03-1.12,4.68,0.42,6.57c0.63,0.77,0.77,1.75,0.35,2.58L46.01,73.65z"/>
</g>
</svg>
