<?xml version="1.0" encoding="utf-8"?>
<!-- Generator: Adobe Illustrator 28.1.0, SVG Export Plug-In . SVG Version: 6.00 Build 0)  -->
<svg version="1.1" id="Layer_1" xmlns="http://www.w3.org/2000/svg" xmlns:xlink="http://www.w3.org/1999/xlink" x="0px" y="0px"
	 viewBox="0 0 110.55 76.54" style="enable-background:new 0 0 110.55 76.54;" xml:space="preserve">
<style type="text/css">
	.st0{display:none;}
	.st1{display:inline;fill:none;}
</style>
<g id="Layer_2_00000073722119373351752270000017113015111246931634_" class="st0">
	<line class="st1" x1="-24.13" y1="74.54" x2="142.13" y2="74.54"/>
	<line class="st1" x1="-24.13" y1="2" x2="142.13" y2="2"/>
</g>
<g>
	<path d="M102.5,17.37c-2.86,0-5.42-1.2-7.23-3.46c-1.2-1.51-3.01-2.26-4.82-2.26c-1.81,0-3.61,0.9-4.82,2.26
		c-1.81,2.26-4.37,3.46-7.23,3.46s-5.42-1.2-7.23-3.46c-1.2-1.51-3.01-2.26-4.82-2.26s-3.61,0.9-4.82,2.26
		c-1.81,2.26-4.37,3.46-7.23,3.46s-5.42-1.2-7.23-3.46c-1.2-1.51-3.01-2.26-4.82-2.26s-3.61,0.9-4.82,2.26
		c-1.81,2.26-4.37,3.46-7.23,3.46c-2.86,0-5.42-1.2-7.23-3.46c-1.2-1.51-3.01-2.26-4.82-2.26c-1.81,0-3.61,0.9-4.82,2.26
		c-1.81,2.26-4.37,3.46-7.23,3.46c-0.9,0-1.51-0.6-1.51-1.51c0-0.9,0.6-1.51,1.51-1.51c1.96,0,3.61-0.9,4.82-2.26
		c1.81-2.26,4.37-3.46,7.23-3.46s5.42,1.2,7.23,3.46c1.2,1.51,3.01,2.26,4.82,2.26c1.81,0,3.61-0.9,4.82-2.26
		c1.81-2.26,4.37-3.46,7.23-3.46c2.86,0,5.42,1.2,7.23,3.46c1.2,1.51,3.01,2.26,4.82,2.26c1.81,0,3.61-0.9,4.82-2.26
		c1.81-2.26,4.37-3.46,7.23-3.46c2.86,0,5.42,1.2,7.23,3.46c1.2,1.51,3.01,2.26,4.82,2.26s3.61-0.9,4.82-2.26
		c1.81-2.26,4.37-3.46,7.23-3.46c2.86,0,5.42,1.2,7.23,3.46c1.2,1.51,3.01,2.26,4.82,2.26c0.9,0,1.51,0.6,1.51,1.51
		C104,16.77,103.25,17.37,102.5,17.37z"/>
	<path d="M102.5,32.88c-2.86,0-5.42-1.2-7.23-3.46c-1.2-1.51-3.01-2.26-4.82-2.26c-1.81,0-3.77,0.75-4.97,2.26
		c-1.81,2.26-4.37,3.46-7.23,3.46s-5.42-1.2-7.23-3.46c-1.2-1.51-3.01-2.26-4.82-2.26s-3.61,0.75-4.82,2.26
		c-1.81,2.26-4.37,3.46-7.23,3.46c-2.86,0-5.42-1.2-7.23-3.46c-1.2-1.51-3.01-2.26-4.82-2.26c-1.81,0-3.61,0.75-4.82,2.26
		c-1.81,2.26-4.37,3.46-7.23,3.46c-2.86,0-5.42-1.2-7.23-3.46c-1.2-1.51-3.01-2.26-4.82-2.26c-1.81,0-3.61,0.75-4.82,2.26
		c-1.81,2.26-4.37,3.46-7.23,3.46c-0.9,0-1.51-0.6-1.51-1.51s0.6-1.51,1.51-1.51c1.96,0,3.61-0.9,4.82-2.26
		c1.81-2.26,4.37-3.46,7.23-3.46s5.42,1.2,7.23,3.46c1.2,1.51,3.01,2.26,4.82,2.26s3.61-0.9,4.82-2.26
		c1.81-2.26,4.37-3.46,7.23-3.46s5.42,1.2,7.23,3.46c1.2,1.51,3.01,2.26,4.82,2.26s3.61-0.9,4.82-2.26
		c1.81-2.26,4.37-3.46,7.23-3.46c2.86,0,5.42,1.2,7.23,3.46c1.2,1.51,3.01,2.26,4.82,2.26c1.81,0,3.61-0.9,4.82-2.26
		c1.81-2.26,4.37-3.46,7.23-3.46c2.86,0,5.42,1.2,7.23,3.46c1.2,1.51,3.01,2.26,4.82,2.26c0.9,0,1.51,0.6,1.51,1.51
		S103.25,32.88,102.5,32.88z"/>
	<path d="M102.5,48.4c-2.86,0-5.42-1.2-7.23-3.46c-1.2-1.51-3.01-2.26-4.82-2.26c-1.81,0-3.61,0.9-4.82,2.26
		c-1.81,2.26-4.37,3.46-7.23,3.46s-5.42-1.2-7.23-3.46c-1.2-1.51-3.01-2.26-4.82-2.26s-3.61,0.9-4.82,2.26
		c-1.81,2.26-4.37,3.46-7.23,3.46s-5.42-1.2-7.23-3.46c-1.2-1.51-3.01-2.26-4.82-2.26s-3.61,0.9-4.82,2.26
		c-1.81,2.26-4.37,3.46-7.23,3.46c-2.86,0-5.42-1.2-7.23-3.46c-1.2-1.51-3.01-2.26-4.82-2.26c-1.81,0-3.61,0.9-4.82,2.26
		c-1.81,2.26-4.37,3.46-7.23,3.46c-0.9,0-1.51-0.6-1.51-1.51s0.6-1.51,1.51-1.51c1.96,0,3.61-0.9,4.82-2.26
		c1.81-2.26,4.37-3.46,7.23-3.46s5.42,1.2,7.23,3.46c1.2,1.51,3.01,2.26,4.82,2.26c1.81,0,3.61-0.9,4.82-2.26
		c1.81-2.26,4.37-3.46,7.23-3.46c2.86,0,5.42,1.2,7.23,3.46c1.2,1.51,3.01,2.26,4.82,2.26c1.81,0,3.61-0.9,4.82-2.26
		c1.81-2.26,4.37-3.46,7.23-3.46c2.86,0,5.42,1.2,7.23,3.46c1.2,1.51,3.01,2.26,4.82,2.26s3.61-0.9,4.82-2.26
		c1.81-2.26,4.37-3.46,7.23-3.46c2.86,0,5.42,1.2,7.23,3.46c1.2,1.51,3.01,2.26,4.82,2.26c0.9,0,1.51,0.6,1.51,1.51
		S103.25,48.4,102.5,48.4z"/>
	<path d="M102.5,63.91c-2.86,0-5.42-1.2-7.23-3.46c-1.2-1.51-3.01-2.26-4.82-2.26c-1.81,0-3.61,0.9-4.82,2.26
		c-1.81,2.26-4.37,3.46-7.23,3.46s-5.42-1.2-7.23-3.46c-1.2-1.51-3.01-2.26-4.82-2.26s-3.61,0.9-4.82,2.26
		c-1.81,2.26-4.37,3.46-7.23,3.46s-5.42-1.2-7.23-3.46c-1.2-1.51-3.01-2.26-4.82-2.26s-3.61,0.9-4.82,2.26
		c-1.81,2.26-4.37,3.46-7.23,3.46c-2.86,0-5.42-1.2-7.23-3.46c-1.2-1.51-3.01-2.26-4.82-2.26c-1.81,0-3.61,0.9-4.82,2.26
		c-1.81,2.26-4.37,3.46-7.23,3.46c-0.9,0-1.51-0.6-1.51-1.51S5.2,60.9,6.1,60.9c1.96,0,3.61-0.9,4.82-2.26
		c1.81-2.26,4.37-3.46,7.23-3.46s5.42,1.2,7.23,3.46c1.2,1.51,3.01,2.26,4.82,2.26c1.81,0,3.61-0.9,4.82-2.26
		c1.81-2.26,4.37-3.46,7.23-3.46c2.86,0,5.42,1.2,7.23,3.46c1.2,1.51,3.01,2.26,4.82,2.26c1.81,0,3.61-0.9,4.82-2.26
		c1.81-2.26,4.37-3.46,7.23-3.46c2.86,0,5.42,1.2,7.23,3.46c1.2,1.51,3.01,2.26,4.82,2.26s3.61-0.9,4.82-2.26
		c1.81-2.26,4.37-3.46,7.23-3.46c2.86,0,5.42,1.2,7.23,3.46c1.2,1.51,3.01,2.26,4.82,2.26c0.9,0,1.51,0.6,1.51,1.51
		S103.25,63.91,102.5,63.91z"/>
</g>
</svg>
