<?xml version="1.0" encoding="utf-8"?>
<!-- Generator: Adobe Illustrator 28.1.0, SVG Export Plug-In . SVG Version: 6.00 Build 0)  -->
<svg version="1.1" id="Layer_1" xmlns="http://www.w3.org/2000/svg" xmlns:xlink="http://www.w3.org/1999/xlink" x="0px" y="0px"
	 viewBox="0 0 110.55 76.54" style="enable-background:new 0 0 110.55 76.54;" xml:space="preserve">
<style type="text/css">
	.st0{display:none;}
	.st1{display:inline;fill:none;}
	.st2{fill-rule:evenodd;clip-rule:evenodd;}
</style>
<g id="Layer_2_00000073722119373351752270000017113015111246931634_" class="st0">
	<line class="st1" x1="-24.13" y1="74.54" x2="142.13" y2="74.54"/>
	<line class="st1" x1="-24.13" y1="2" x2="142.13" y2="2"/>
</g>
<path class="st2" d="M75.21,31.5c-11.97,0-21.69,9.72-21.69,21.69s9.72,21.69,21.69,21.69S96.9,65.16,96.9,53.19
	S87.18,31.5,75.21,31.5z M77.84,42.19v-0.82c0-1.45-1.18-2.63-2.63-2.63c-1.45,0-2.63,1.18-2.63,2.63v0.99
	c-1.15,0.31-2.21,0.91-3.06,1.77c-1.28,1.28-2.01,3.03-2.01,4.84c0,0,0,0,0,0.01c0,1.82,0.72,3.56,2.01,4.84
	c1.29,1.29,3.03,2.01,4.84,2.01h1.7c0.42,0,0.83,0.17,1.13,0.47c0.3,0.3,0.47,0.7,0.47,1.13c0,0,0,0,0,0.01
	c0,0.42-0.17,0.83-0.47,1.13c-0.3,0.3-0.7,0.47-1.13,0.47h-2.54c-0.41,0-0.74-0.33-0.75-0.75c-0.01-1.39-1.12-2.61-2.63-2.6
	c-1.62,0.01-2.62,1.37-2.63,2.6l0,0.02l0-0.01c0,3,2.2,5.48,5.07,5.93v0.82c0,1.45,1.18,2.63,2.63,2.63c1.45,0,2.63-1.18,2.63-2.63
	v-0.99c1.15-0.31,2.21-0.91,3.06-1.77c1.29-1.28,2.01-3.03,2.01-4.84c0,0,0,0,0-0.01c0-1.82-0.72-3.56-2.01-4.84
	c-1.28-1.29-3.03-2.01-4.84-2.01h-1.7c-0.42,0-0.83-0.17-1.13-0.47c-0.3-0.3-0.47-0.7-0.47-1.13c0,0,0,0,0-0.01
	c0-0.42,0.17-0.83,0.47-1.13c0.3-0.3,0.7-0.47,1.13-0.47h2.54c0.41,0,0.75,0.34,0.75,0.75c0,0.75,0.36,1.47,0.75,1.84
	c0.45,0.46,1.26,0.89,2.19,0.78c0.83-0.1,2.28-0.83,2.31-2.62l0,0C82.91,45.12,80.71,42.63,77.84,42.19z M52.07,66.99
	c-2.41-4.04-3.8-8.76-3.8-13.8c0-8.82,4.25-16.66,10.8-21.57c-0.99-0.15-2-0.23-3.03-0.23c-2.53,0-5.13,0-7.66,0
	c-10.95,0-19.83,8.88-19.83,19.83c0,4.59,0,7.82,0,10.52c0,2.9,2.35,5.26,5.26,5.26H52.07z M52.21,1.27
	c-7.25,0-13.14,5.89-13.14,13.14c0,7.25,5.89,13.14,13.14,13.14s13.14-5.89,13.14-13.14C65.35,7.16,59.46,1.27,52.21,1.27z"/>
</svg>
