<?xml version="1.0" encoding="utf-8"?>
<!-- Generator: Adobe Illustrator 28.1.0, SVG Export Plug-In . SVG Version: 6.00 Build 0)  -->
<svg version="1.1" id="Layer_1" xmlns="http://www.w3.org/2000/svg" xmlns:xlink="http://www.w3.org/1999/xlink" x="0px" y="0px"
	 viewBox="0 0 110.55 76.54" style="enable-background:new 0 0 110.55 76.54;" xml:space="preserve">
<style type="text/css">
	.st0{display:none;}
	.st1{display:inline;fill:none;}
	.st2{fill-rule:evenodd;clip-rule:evenodd;}
</style>
<g id="Layer_2_00000073722119373351752270000017113015111246931634_" class="st0">
	<line class="st1" x1="-24.13" y1="74.54" x2="142.13" y2="74.54"/>
	<line class="st1" x1="-24.13" y1="2" x2="142.13" y2="2"/>
</g>
<path class="st2" d="M72.48,32.11c-11.21,0-20.32,9.11-20.32,20.32s9.11,20.32,20.32,20.32S92.8,63.65,92.8,52.43
	S83.7,32.11,72.48,32.11z M74.95,42.12v-0.77c0-1.36-1.1-2.46-2.46-2.46c-1.36,0-2.46,1.1-2.46,2.46v0.92
	c-1.08,0.29-2.07,0.86-2.87,1.66c-1.2,1.2-1.88,2.84-1.88,4.54c0,0,0,0,0,0.01c0,1.7,0.68,3.34,1.88,4.54
	c1.2,1.2,2.84,1.88,4.54,1.88h1.59c0.4,0,0.78,0.16,1.06,0.44c0.28,0.28,0.44,0.66,0.44,1.06c0,0,0,0,0,0.01
	c0,0.4-0.16,0.78-0.44,1.06c-0.28,0.28-0.66,0.44-1.06,0.44h-2.38c-0.39,0-0.7-0.31-0.7-0.7c-0.01-1.3-1.05-2.45-2.46-2.44
	c-1.52,0.01-2.46,1.29-2.46,2.43l0,0.02l0-0.01c0,2.81,2.06,5.14,4.75,5.56v0.77c0,1.36,1.1,2.46,2.46,2.46
	c1.36,0,2.46-1.1,2.46-2.46v-0.92c1.08-0.29,2.07-0.86,2.87-1.66c1.2-1.2,1.88-2.84,1.88-4.54c0,0,0,0,0-0.01
	c0-1.7-0.68-3.34-1.88-4.54c-1.2-1.2-2.84-1.88-4.54-1.88h-1.59c-0.4,0-0.78-0.16-1.06-0.44c-0.28-0.28-0.44-0.66-0.44-1.06
	c0,0,0,0,0-0.01c0-0.4,0.16-0.78,0.44-1.06c0.28-0.28,0.66-0.44,1.06-0.44h2.38c0.39,0,0.7,0.32,0.7,0.7c0,0.7,0.33,1.38,0.7,1.72
	c0.42,0.43,1.18,0.84,2.05,0.73c0.78-0.1,2.14-0.78,2.17-2.46l0,0C79.7,44.87,77.64,42.54,74.95,42.12z M50.8,65.36
	c-2.26-3.78-3.56-8.21-3.56-12.93c0-8.26,3.98-15.61,10.12-20.21C56.43,32.08,55.48,32,54.52,32c-2.37,0-4.81,0-7.17,0
	c-10.26,0-18.58,8.32-18.58,18.58c0,4.3,0,7.33,0,9.85c0,2.72,2.21,4.93,4.93,4.93H50.8z M50.93,3.79c-6.8,0-12.31,5.52-12.31,12.32
	c0,6.8,5.52,12.31,12.31,12.31S63.25,22.9,63.25,16.1C63.25,9.31,57.73,3.79,50.93,3.79z"/>
</svg>
