<?xml version="1.0" encoding="utf-8"?>
<!-- Generator: Adobe Illustrator 28.1.0, SVG Export Plug-In . SVG Version: 6.00 Build 0)  -->
<svg version="1.1" id="Layer_1" xmlns="http://www.w3.org/2000/svg" xmlns:xlink="http://www.w3.org/1999/xlink" x="0px" y="0px"
	 viewBox="0 0 110.55 76.54" style="enable-background:new 0 0 110.55 76.54;" xml:space="preserve">
<style type="text/css">
	.st0{display:none;}
	.st1{display:inline;fill:none;}
	.st2{fill:#808080;}
</style>
<g id="Layer_2_00000073722119373351752270000017113015111246931634_" class="st0">
	<line class="st1" x1="-24.13" y1="74.54" x2="142.13" y2="74.54"/>
	<line class="st1" x1="-24.13" y1="2" x2="142.13" y2="2"/>
</g>
<g>
	<path class="st2" d="M1879.74,2086.84c3.3,0,5.96-2.66,5.96-5.96c0-3.3-2.66-5.96-5.96-5.96c-3.3,0-5.96,2.66-5.96,5.96
		C1873.77,2084.18,1876.43,2086.84,1879.74,2086.84z"/>
	<path class="st2" d="M1886.1,2093.13c5.88-0.81,13.22-2.18,14.43-2.34c1.45-0.24,2.42-1.69,2.18-3.14
		c-0.24-1.45-1.69-2.42-3.14-2.18c-6.53,1.21-17.17,2.9-19.83,2.9c-10.4,0-15.15,6.93-15.31,7.25c-0.64,0.97-0.56,2.18,0.08,3.06
		l4.67,6.61c0.56,0.73,1.37,1.13,2.18,1.13c0.56,0,1.05-0.16,1.53-0.48c0.16-0.08,0.24-0.24,0.4-0.32v1.85l-1.69,19.91
		c-0.16,1.61,1.05,3.06,2.74,3.22c1.61,0.16,3.06-1.05,3.22-2.74l1.61-19.18h1.13l1.61,19.18c0.16,1.53,1.45,2.74,2.98,2.74
		c0.08,0,0.16,0,0.24,0c1.61-0.16,2.9-1.61,2.74-3.22l-1.69-19.91L1886.1,2093.13z M1873.29,2101.83l-3.22-4.59
		c0.73-0.64,1.85-1.53,3.3-2.18L1873.29,2101.83z"/>
</g>
<g>
	<path class="st2" d="M1933.79,2093.61c1.85,0.21,3.48,0.36,4.83,0.36c1.99,0,3.48-0.28,4.48-1.21c0.64-0.57,1.07-1.35,1.07-2.27
		c0.14-2.27-2.49-6.33-7.75-12.01c-0.92-1-2.49-1.07-3.55-0.14c-0.21,0.14-0.28,0.36-0.43,0.57c-0.78-2.35-2.91-3.98-5.55-3.98
		c-2.56,0-4.76,1.71-5.55,3.98c-0.14-0.21-0.28-0.43-0.43-0.57c-1-0.92-2.56-0.85-3.55,0.14c-5.26,5.69-7.89,9.67-7.75,12.01
		c0.07,0.92,0.43,1.71,1.07,2.27c1,0.85,2.49,1.21,4.48,1.21c1.35,0,2.99-0.14,4.83-0.36c0.36,0,0.71-0.07,1-0.07l0.28,12.51
		c0,0.14,0,0.21,0,0.36l-3.55,8.25c-0.36,0.92-0.64,1.85-0.78,2.77l-1.07,10.02c-0.21,1.56,0.92,3.06,2.56,3.27
		c0.14,0,0.21,0,0.36,0c1.42,0,2.7-1.07,2.91-2.56l1.28-10.02c0.07-0.43,0.14-0.85,0.36-1.21l3.77-8.74l3.77,8.74
		c0.14,0.43,0.28,0.78,0.36,1.21l1.28,10.02c0.21,1.56,1.64,2.7,3.27,2.56c1.56-0.21,2.7-1.64,2.56-3.27l-1.28-10.02
		c-0.14-1-0.36-1.92-0.78-2.77l-3.55-8.25c0-0.07,0-0.21,0-0.28l0.28-12.58C1933.15,2093.54,1933.51,2093.54,1933.79,2093.61z
		 M1930.38,2088.35h-6.75c-1.14,0-2.49,0.14-3.91,0.28c-1.14,0.14-2.84,0.28-4.19,0.28c1.14-1.78,3.34-4.55,5.69-7.04
		c0-0.07,0.07-0.07,0.07-0.14c0.5,2.77,2.84,4.83,5.76,4.83c2.91,0,5.26-2.06,5.76-4.83c0,0.07,0.07,0.07,0.07,0.14
		c2.35,2.49,4.55,5.26,5.69,7.04c-1.35,0-3.06-0.21-4.19-0.28C1932.87,2088.49,1931.44,2088.35,1930.38,2088.35z"/>
</g>
<path class="st2" d="M1898.76,2079.8c0.4,0.4,1.05-0.08,0.81-0.56l-2.42-4.92l3.3-0.81c0.32-0.08,0.48-0.4,0.32-0.73l-4.03-7.5
	c-0.08-0.16-0.32-0.32-0.56-0.24l-3.47,0.81c-0.32,0.08-0.48,0.48-0.32,0.81l3.14,4.43l-3.06,0.73c-0.4,0.08-0.48,0.56-0.24,0.81
	L1898.76,2079.8z"/>
<path class="st2" d="M1905.57,2070.13l3.3,0.81l-2.42,4.92c-0.24,0.48,0.4,0.97,0.81,0.56l6.61-7.09c0.24-0.32,0.16-0.73-0.24-0.81
	l-3.06-0.81l3.14-4.43c0.24-0.32,0.08-0.73-0.32-0.81l-3.47-0.81c-0.24-0.08-0.48,0.08-0.56,0.24l-4.03,7.5
	C1905.08,2069.73,1905.32,2070.05,1905.57,2070.13z"/>
<g>
	<path class="st2" d="M2127.3,2077.06c4.13,0,7.45-3.35,7.45-7.45c0-4.13-3.33-7.47-7.45-7.47c-4.13,0-7.47,3.35-7.47,7.47
		C2119.83,2073.72,2123.17,2077.06,2127.3,2077.06L2127.3,2077.06z"/>
	<path class="st2" d="M2156.47,2130.52c-1.76,0-3.47-0.4-4.97-1.06c-1.54-0.72-3.29-1.14-5.11-1.14c-1.8,0-3.55,0.42-5.09,1.14
		c-1.52,0.66-3.21,1.06-4.97,1.06c-1.76,0-3.45-0.4-4.95-1.06c-1.54-0.72-3.29-1.14-5.11-1.14c-1.82,0-3.57,0.42-5.11,1.14
		c-1.5,0.66-3.18,1.06-4.95,1.06c-1.76,0-3.45-0.4-4.97-1.06c-1.54-0.72-3.27-1.14-5.09-1.14c-1.82,0-3.57,0.42-5.11,1.14
		c-1.5,0.66-3.19,1.06-4.95,1.06c-1.74,0-3.43-0.4-4.95-1.06c-1.54-0.72-3.29-1.14-5.09-1.14c-1.82,0-3.57,0.42-5.11,1.14
		c-1.5,0.66-3.19,1.06-4.95,1.06v-7.43c1.76,0,3.45-0.38,4.95-1.06c1.54-0.72,3.29-1.14,5.11-1.14c1.8,0,3.55,0.42,5.09,1.14
		c1.52,0.68,3.21,1.06,4.95,1.06c1.76,0,3.45-0.38,4.95-1.06c1.54-0.72,3.29-1.14,5.11-1.14c1.82,0,3.55,0.42,5.09,1.14
		c1.52,0.68,3.21,1.06,4.97,1.06c1.76,0,3.45-0.38,4.95-1.06c1.54-0.72,3.29-1.14,5.11-1.14c1.82,0,3.57,0.42,5.11,1.14
		c1.5,0.68,3.18,1.06,4.95,1.06c1.76,0,3.45-0.38,4.97-1.06c1.54-0.72,3.29-1.14,5.09-1.14c1.82,0,3.57,0.42,5.11,1.14
		c1.5,0.68,3.21,1.06,4.97,1.06V2130.52z"/>
	<path class="st2" d="M2081.13,2115.71c1.5-0.68,3.17-1.06,4.93-1.06c1.8,0,3.55,0.42,5.09,1.14c1.52,0.66,3.21,1.06,4.95,1.06
		c1.76,0,3.45-0.4,4.95-1.06c1.54-0.72,3.29-1.14,5.11-1.14c1.82,0,3.55,0.42,5.09,1.14c1.52,0.66,3.21,1.06,4.97,1.06
		c1.76,0,3.45-0.4,4.95-1.06c0.98-0.46,2-0.76,3.09-0.96l12.86-14.71h-16.55l6.85-11.76l15.03,8.21c4.97,2.8,8.64-3.67,3.65-6.47
		l-21.52-11.9c-7.92-4.41-11.26,2.91-11.26,2.91l-11.1,18.75l-29.23-0.02C2073.9,2105.2,2078.71,2112.37,2081.13,2115.71
		L2081.13,2115.71z"/>
	<path class="st2" d="M2128.12,2114.79c1.14,0.18,2.24,0.52,3.27,1c1.5,0.66,3.18,1.06,4.95,1.06c1.76,0,3.45-0.4,4.97-1.06
		c1.54-0.72,3.29-1.14,5.09-1.14c1.82,0,3.57,0.42,5.11,1.14c1.5,0.66,3.21,1.06,4.97,1.06l-0.04-16.73l-15.51-0.02L2128.12,2114.79
		z"/>
</g>
<g>
	<path d="M-4780.81,2202.62v-1.51c0-2.38-1.93-4.31-4.31-4.31h-0.32l-2.6-10.41c-0.16-0.64-0.73-1.09-1.39-1.09h-2.88
		c-0.66,0-1.23,0.45-1.39,1.09l-2.6,10.41h-0.32c-2.38,0-4.31,1.93-4.31,4.31v1.51c-2.44,0.35-4.31,2.43-4.31,4.96v9.34v25.87v2.16
		c0,0.4,0.32,0.72,0.72,0.72h1.44c0.4,0,0.72-0.32,0.72-0.72v-0.72h23v5.03c0,1.19-0.97,2.16-2.16,2.16h-18.69
		c-1.19,0-2.16-0.97-2.16-2.16c0-0.4-0.32-0.72-0.72-0.72h-1.44c-0.4,0-0.72,0.32-0.72,0.72c0,2.78,2.25,5.03,5.03,5.03h18.69
		c2.78,0,5.03-2.25,5.03-5.03v-6.47v-25.87v-9.34C-4776.49,2205.05-4778.37,2202.98-4780.81,2202.62z M-4791.18,2188.18h0.63
		l2.16,8.62h-4.94L-4791.18,2188.18z M-4798.05,2201.11c0-0.79,0.64-1.44,1.44-1.44h1.44h8.62h1.44c0.79,0,1.44,0.64,1.44,1.44v1.44
		h-14.37V2201.11z M-4800.21,2205.43h0.72h17.25h0.72c1.19,0,2.16,0.97,2.16,2.16v7.91h-23v-7.91
		C-4802.37,2206.39-4801.4,2205.43-4800.21,2205.43z M-4802.37,2241.36v-23h23v23H-4802.37z"/>
	<path d="M-4787.76,2224.52c0.4-0.13,0.84-0.24,1.37-0.31c0.72-0.09,1.27-0.69,1.27-1.41v-0.03c0-0.84-0.73-1.52-1.57-1.42
		c-1.03,0.13-1.95,0.39-2.75,0.74v-0.85c0-0.79-0.64-1.44-1.44-1.44s-1.44,0.64-1.44,1.44v0.56c-0.95-0.33-1.99-0.47-2.86-0.52
		c-0.79-0.05-1.45,0.57-1.45,1.36v0.16c0,0.72,0.58,1.31,1.3,1.36c0.8,0.05,1.38,0.15,1.81,0.27c-3.69,0.8-5.99,3.31-5.99,6.89
		c0,4.76,3.86,8.62,8.62,8.62c4.76,0,8.62-3.86,8.62-8.62C-4782.24,2227.88-4784.34,2225.43-4787.76,2224.52z M-4790.87,2237.05
		c-3.18,0-5.75-2.57-5.75-5.75c0-3.89,4.02-4.31,5.75-4.31c1.73,0,5.75,0.42,5.75,4.31
		C-4785.12,2234.47-4787.69,2237.05-4790.87,2237.05z"/>
</g>
<g>
	<path d="M76.28,65.18c-0.26,0-0.48-0.09-0.65-0.27c-0.17-0.16-0.26-0.39-0.26-0.63c0-0.12,0.01-0.24,0.06-0.35
		c0.05-0.11,0.11-0.21,0.2-0.29c0.33-0.35,0.94-0.35,1.28,0c0.08,0.07,0.15,0.18,0.2,0.29c0.04,0.1,0.06,0.23,0.06,0.35
		c0,0.24-0.09,0.47-0.26,0.63C76.74,65.09,76.51,65.18,76.28,65.18z M80.38,60.04c0.18-0.17,0.27-0.39,0.27-0.63
		c0-0.24-0.09-0.48-0.27-0.65c-0.33-0.33-0.94-0.33-1.27,0c-0.18,0.16-0.27,0.41-0.27,0.65c0,0.24,0.09,0.47,0.27,0.63
		c0.07,0.09,0.18,0.15,0.29,0.2c0.11,0.05,0.23,0.06,0.35,0.06C79.98,60.3,80.21,60.21,80.38,60.04z M85.8,47.83
		c0.18-0.18,0.27-0.41,0.27-0.65c0-0.11-0.01-0.23-0.06-0.35c-0.05-0.1-0.12-0.21-0.2-0.29c-0.35-0.35-0.95-0.33-1.29,0
		c-0.16,0.16-0.27,0.41-0.27,0.63c0,0.24,0.09,0.47,0.27,0.65c0.17,0.17,0.39,0.26,0.64,0.26C85.41,48.09,85.64,48,85.8,47.83z
		 M56.36,69.28c0.17-0.18,0.26-0.41,0.26-0.65s-0.09-0.47-0.26-0.63c-0.26-0.26-0.66-0.33-1-0.2c-0.1,0.05-0.21,0.11-0.29,0.2
		c-0.17,0.17-0.27,0.39-0.27,0.63c0,0.24,0.09,0.47,0.27,0.65c0.16,0.16,0.39,0.26,0.63,0.26C55.95,69.54,56.18,69.44,56.36,69.28z
		 M89.18,45.12c0.11-0.05,0.21-0.11,0.29-0.2c0.18-0.17,0.27-0.39,0.27-0.63c0-0.12-0.03-0.24-0.07-0.35
		c-0.05-0.11-0.11-0.21-0.2-0.3c-0.33-0.33-0.94-0.33-1.29,0c-0.07,0.09-0.15,0.18-0.2,0.3c-0.05,0.11-0.06,0.23-0.06,0.35
		c0,0.24,0.09,0.47,0.27,0.63c0.16,0.17,0.39,0.27,0.63,0.27C88.95,45.2,89.07,45.17,89.18,45.12z M82.01,64.29
		c0.17-0.16,0.27-0.39,0.27-0.63c0-0.24-0.11-0.47-0.27-0.63c-0.33-0.35-0.95-0.35-1.28,0c-0.17,0.17-0.26,0.39-0.26,0.63
		c0,0.24,0.09,0.47,0.26,0.63c0.18,0.18,0.41,0.27,0.65,0.27S81.84,64.47,82.01,64.29z M51.39,68.55c0.18-0.18,0.27-0.41,0.27-0.65
		c0-0.24-0.11-0.47-0.27-0.63c-0.33-0.35-0.94-0.35-1.29,0c-0.17,0.16-0.26,0.39-0.26,0.63c0,0.24,0.09,0.47,0.26,0.65
		c0.18,0.17,0.41,0.26,0.65,0.26S51.22,68.72,51.39,68.55z M69.18,55.46c0.18-0.18,0.27-0.41,0.27-0.65c0-0.24-0.09-0.47-0.26-0.63
		c-0.35-0.35-0.95-0.35-1.29,0c-0.16,0.17-0.27,0.39-0.27,0.63c0,0.24,0.09,0.47,0.27,0.65c0.17,0.17,0.39,0.26,0.64,0.26
		C68.78,55.72,69.01,55.63,69.18,55.46z M47.18,39.96c0-0.5-0.41-0.91-0.91-0.91H18.68c-0.5,0-0.91,0.41-0.91,0.91
		s0.41,0.91,0.91,0.91h27.59C46.78,40.87,47.18,40.46,47.18,39.96z M41.56,42.86c0.5,0,0.91,0.41,0.91,0.91
		c0,0.5-0.41,0.91-0.91,0.91h-5.25c-0.5,0-0.91-0.41-0.91-0.91c0-0.5,0.41-0.91,0.91-0.91C36.31,42.86,41.56,42.86,41.56,42.86z
		 M29.04,49.55c-0.5,0-0.91-0.41-0.91-0.91s0.41-0.91,0.91-0.91h3.06c0.5,0,0.91,0.41,0.91,0.91s-0.41,0.91-0.91,0.91L29.04,49.55z
		 M28.16,55.5c0-0.5,0.41-0.91,0.91-0.91h4.15c0.5,0,0.91,0.41,0.91,0.91c0,0.5-0.41,0.91-0.91,0.91h-4.15
		C28.57,56.41,28.16,56,28.16,55.5z M26.9,44.63c0.5,0,0.91,0.41,0.91,0.91s-0.41,0.91-0.91,0.91h-1.91c-0.5,0-0.91-0.41-0.91-0.91
		s0.41-0.91,0.91-0.91H26.9z M27.25,58.52c0,0.5-0.41,0.91-0.91,0.91h-2.47c-0.5,0-0.91-0.41-0.91-0.91s0.41-0.91,0.91-0.91h2.47
		C26.84,57.61,27.25,58.02,27.25,58.52z M92.81,34.22c-5.27-0.24-10.26-0.05-15.21,0.55l-1.65-6.2c-0.13-0.48-0.62-0.77-1.11-0.64
		c-0.48,0.13-0.77,0.63-0.64,1.11l3.69,13.81c0.06,0.24-0.08,0.48-0.31,0.54c-0.16,0.04-0.28-0.01-0.34-0.05
		c-0.06-0.03-0.16-0.11-0.21-0.27L72.57,26.4l1.48-0.4c0.95-0.25,1.69-0.89,2.11-1.7c0.04,0.02,0.07,0.06,0.11,0.08
		c0.52,0.3,1.1,0.46,1.69,0.46c0.29,0,0.59-0.04,0.88-0.12l1.97-0.53c0.95-0.25,1.69-0.89,2.11-1.7c0.04,0.02,0.07,0.06,0.11,0.08
		c0.78,0.45,1.69,0.58,2.57,0.34l1.97-0.53c0.88-0.23,1.61-0.79,2.06-1.58c0.45-0.78,0.57-1.7,0.34-2.57l-0.28-1.07
		C87.5,8.98,78.83,4.04,69.76,5.45l-0.34-1.26c-0.32-1.2-1.55-1.91-2.76-1.6c-1.2,0.32-1.92,1.56-1.6,2.76l0.34,1.28
		c-8.47,3.34-13.45,11.89-11.28,20.04l0.28,1.07c0.41,1.51,1.78,2.51,3.28,2.51c0.29,0,0.58-0.04,0.87-0.12l1.97-0.53
		c0.95-0.25,1.69-0.89,2.11-1.7c0.04,0.02,0.07,0.06,0.11,0.08c0.52,0.3,1.1,0.46,1.69,0.46c0.29,0,0.59-0.04,0.88-0.12l1.97-0.53
		c0.88-0.23,1.61-0.79,2.06-1.58c0.02-0.04,0.04-0.08,0.06-0.12c0.4,0.25,0.86,0.43,1.34,0.5l2.36,8.81
		c-2.62,0.44-5.11,0.94-7.5,1.43c-4.63,0.95-9,1.86-14.07,2.2c-0.42,0.03-0.76,0.34-0.83,0.76c-0.07,0.42,0.16,0.82,0.55,0.99
		c1.14,0.47,2.65,0.97,4.25,1.5c3.8,1.26,10.17,3.36,10.01,5.22c-0.09,1.03-4.72,1.84-7.49,2.33c-4.95,0.86-9.62,1.68-10.12,4.43
		c-0.37,1.97,2.03,3.19,4.34,4.37c0.95,0.49,3.19,1.63,3.14,2.11c-0.13,1.23-7.8,2.18-11.91,2.7c-8.01,1-15.58,1.94-16.3,5.33
		c-0.34,1.56,0.77,3.17,3.47,5.07c0.16,0.11,0.34,0.16,0.52,0.16c0.29,0,0.57-0.13,0.74-0.39c0.29-0.41,0.19-0.98-0.22-1.26
		c-2.69-1.89-2.81-2.87-2.74-3.21c0.45-2.13,9.05-3.2,14.75-3.91c8.43-1.05,13.22-1.77,13.49-4.3c0.18-1.72-1.91-2.79-4.11-3.92
		c-1.22-0.63-3.5-1.79-3.38-2.43c0.28-1.5,5.11-2.35,8.65-2.97c4.9-0.86,8.77-1.53,8.98-3.96c0.29-3.29-5.57-5.23-11.24-7.1
		c-0.12-0.04-0.23-0.07-0.34-0.11c3.54-0.45,6.82-1.13,10.24-1.83c2.43-0.5,4.95-1.01,7.61-1.45l1.7,6.36
		c0.16,0.58,0.53,1.07,1.05,1.37c0.35,0.2,0.73,0.3,1.13,0.3c0.19,0,0.39-0.02,0.59-0.08c1.2-0.32,1.92-1.56,1.6-2.76l-1.56-5.84
		c4.77-0.56,9.58-0.74,14.66-0.51c0.56,0.01,0.93-0.37,0.95-0.87C93.69,34.66,93.31,34.24,92.81,34.22z M80.35,22.45l-1.97,0.53
		c-0.41,0.11-0.83,0.05-1.2-0.16c-0.36-0.21-0.62-0.55-0.73-0.96l-0.28-1.07c-1.1-4.12-2.49-7.9-3.93-10.65
		c-0.57-1.1-1.13-1.97-1.66-2.65c4.41,0.55,8.83,5.34,10.6,11.96l0.28,1.06C81.68,21.36,81.18,22.23,80.35,22.45z M87.94,17.65
		l0.28,1.07c0.11,0.41,0.05,0.83-0.16,1.19c-0.21,0.36-0.55,0.62-0.96,0.73l-1.97,0.53c-0.41,0.11-0.83,0.05-1.2-0.16
		c-0.36-0.21-0.62-0.55-0.73-0.96v0l-0.28-1.06c-1.45-5.43-4.6-9.73-8.21-11.88C81.01,7.78,86.37,11.77,87.94,17.65z M66.82,4.89
		c-0.06-0.24,0.08-0.48,0.31-0.54c0.24-0.06,0.48,0.08,0.54,0.31l0.31,1.15C67.87,5.84,67.3,6,67.13,6.04L66.82,4.89z M67.78,25.33
		c-0.21,0.36-0.55,0.62-0.96,0.73l-1.97,0.53c-0.41,0.11-0.83,0.05-1.2-0.16c-0.36-0.21-0.62-0.55-0.73-0.96l-0.28-1.06
		c-1.1-4.13-0.98-8.38,0.33-11.65c0.19-0.46-0.04-0.99-0.5-1.18c-0.46-0.19-0.99,0.04-1.18,0.5c-1.46,3.63-1.6,8.29-0.4,12.8
		l0.28,1.06c0.22,0.84-0.28,1.7-1.11,1.93l-1.97,0.53c-0.84,0.22-1.7-0.28-1.93-1.11l-0.28-1.07C53.96,19,58.39,11.42,65.93,8.38
		c-0.18,0.92-0.24,2.08-0.18,3.5c0.13,3.1,0.81,7.07,1.9,11.19l0.28,1.06c0,0,0,0,0,0.01C68.05,24.54,67.99,24.96,67.78,25.33z
		 M69.69,23.67l-0.28-1.07c-2.36-8.83-2.1-14.42-1.34-14.95c0,0,0.01,0,0.01,0c0.96,0.07,3.98,4.79,6.34,13.62l0.28,1.07
		c0.22,0.84-0.28,1.7-1.11,1.93l-1.97,0.53C70.78,25,69.92,24.5,69.69,23.67z"/>
</g>
</svg>
