<?xml version="1.0" encoding="utf-8"?>
<!-- Generator: Adobe Illustrator 28.1.0, SVG Export Plug-In . SVG Version: 6.00 Build 0)  -->
<svg version="1.1" id="Layer_1" xmlns="http://www.w3.org/2000/svg" xmlns:xlink="http://www.w3.org/1999/xlink" x="0px" y="0px"
	 viewBox="0 0 110.55 76.54" style="enable-background:new 0 0 110.55 76.54;" xml:space="preserve">
<style type="text/css">
	.st0{display:none;}
	.st1{display:inline;fill:none;}
	.st2{fill:#808080;}
	.st3{fill:#221F1F;}
</style>
<g id="Layer_2_00000073722119373351752270000017113015111246931634_" class="st0">
	<line class="st1" x1="-24.13" y1="74.54" x2="142.13" y2="74.54"/>
	<line class="st1" x1="-24.13" y1="2" x2="142.13" y2="2"/>
</g>
<g>
	<path class="st2" d="M1879.74,2086.84c3.3,0,5.96-2.66,5.96-5.96c0-3.3-2.66-5.96-5.96-5.96c-3.3,0-5.96,2.66-5.96,5.96
		C1873.77,2084.18,1876.43,2086.84,1879.74,2086.84z"/>
	<path class="st2" d="M1886.1,2093.13c5.88-0.81,13.22-2.18,14.43-2.34c1.45-0.24,2.42-1.69,2.18-3.14
		c-0.24-1.45-1.69-2.42-3.14-2.18c-6.53,1.21-17.17,2.9-19.83,2.9c-10.4,0-15.15,6.93-15.31,7.25c-0.64,0.97-0.56,2.18,0.08,3.06
		l4.67,6.61c0.56,0.73,1.37,1.13,2.18,1.13c0.56,0,1.05-0.16,1.53-0.48c0.16-0.08,0.24-0.24,0.4-0.32v1.85l-1.69,19.91
		c-0.16,1.61,1.05,3.06,2.74,3.22c1.61,0.16,3.06-1.05,3.22-2.74l1.61-19.18h1.13l1.61,19.18c0.16,1.53,1.45,2.74,2.98,2.74
		c0.08,0,0.16,0,0.24,0c1.61-0.16,2.9-1.61,2.74-3.22l-1.69-19.91L1886.1,2093.13z M1873.29,2101.83l-3.22-4.59
		c0.73-0.64,1.85-1.53,3.3-2.18L1873.29,2101.83z"/>
</g>
<g>
	<path class="st2" d="M1933.79,2093.61c1.85,0.21,3.48,0.36,4.83,0.36c1.99,0,3.48-0.28,4.48-1.21c0.64-0.57,1.07-1.35,1.07-2.27
		c0.14-2.27-2.49-6.33-7.75-12.01c-0.92-1-2.49-1.07-3.55-0.14c-0.21,0.14-0.28,0.36-0.43,0.57c-0.78-2.35-2.91-3.98-5.55-3.98
		c-2.56,0-4.76,1.71-5.55,3.98c-0.14-0.21-0.28-0.43-0.43-0.57c-1-0.92-2.56-0.85-3.55,0.14c-5.26,5.69-7.89,9.67-7.75,12.01
		c0.07,0.92,0.43,1.71,1.07,2.27c1,0.85,2.49,1.21,4.48,1.21c1.35,0,2.99-0.14,4.83-0.36c0.36,0,0.71-0.07,1-0.07l0.28,12.51
		c0,0.14,0,0.21,0,0.36l-3.55,8.25c-0.36,0.92-0.64,1.85-0.78,2.77l-1.07,10.02c-0.21,1.56,0.92,3.06,2.56,3.27
		c0.14,0,0.21,0,0.36,0c1.42,0,2.7-1.07,2.91-2.56l1.28-10.02c0.07-0.43,0.14-0.85,0.36-1.21l3.77-8.74l3.77,8.74
		c0.14,0.43,0.28,0.78,0.36,1.21l1.28,10.02c0.21,1.56,1.64,2.7,3.27,2.56c1.56-0.21,2.7-1.64,2.56-3.27l-1.28-10.02
		c-0.14-1-0.36-1.92-0.78-2.77l-3.55-8.25c0-0.07,0-0.21,0-0.28l0.28-12.58C1933.15,2093.54,1933.51,2093.54,1933.79,2093.61z
		 M1930.38,2088.35h-6.75c-1.14,0-2.49,0.14-3.91,0.28c-1.14,0.14-2.84,0.28-4.19,0.28c1.14-1.78,3.34-4.55,5.69-7.04
		c0-0.07,0.07-0.07,0.07-0.14c0.5,2.77,2.84,4.83,5.76,4.83c2.91,0,5.26-2.06,5.76-4.83c0,0.07,0.07,0.07,0.07,0.14
		c2.35,2.49,4.55,5.26,5.69,7.04c-1.35,0-3.06-0.21-4.19-0.28C1932.87,2088.49,1931.44,2088.35,1930.38,2088.35z"/>
</g>
<path class="st2" d="M1898.76,2079.8c0.4,0.4,1.05-0.08,0.81-0.56l-2.42-4.92l3.3-0.81c0.32-0.08,0.48-0.4,0.32-0.73l-4.03-7.5
	c-0.08-0.16-0.32-0.32-0.56-0.24l-3.47,0.81c-0.32,0.08-0.48,0.48-0.32,0.81l3.14,4.43l-3.06,0.73c-0.4,0.08-0.48,0.56-0.24,0.81
	L1898.76,2079.8z"/>
<path class="st2" d="M1905.57,2070.13l3.3,0.81l-2.42,4.92c-0.24,0.48,0.4,0.97,0.81,0.56l6.61-7.09c0.24-0.32,0.16-0.73-0.24-0.81
	l-3.06-0.81l3.14-4.43c0.24-0.32,0.08-0.73-0.32-0.81l-3.47-0.81c-0.24-0.08-0.48,0.08-0.56,0.24l-4.03,7.5
	C1905.08,2069.73,1905.32,2070.05,1905.57,2070.13z"/>
<g>
	<path class="st2" d="M2127.3,2077.06c4.13,0,7.45-3.35,7.45-7.45c0-4.13-3.33-7.47-7.45-7.47c-4.13,0-7.47,3.35-7.47,7.47
		C2119.83,2073.72,2123.17,2077.06,2127.3,2077.06L2127.3,2077.06z"/>
	<path class="st2" d="M2156.47,2130.52c-1.76,0-3.47-0.4-4.97-1.06c-1.54-0.72-3.29-1.14-5.11-1.14c-1.8,0-3.55,0.42-5.09,1.14
		c-1.52,0.66-3.21,1.06-4.97,1.06c-1.76,0-3.45-0.4-4.95-1.06c-1.54-0.72-3.29-1.14-5.11-1.14c-1.82,0-3.57,0.42-5.11,1.14
		c-1.5,0.66-3.18,1.06-4.95,1.06c-1.76,0-3.45-0.4-4.97-1.06c-1.54-0.72-3.27-1.14-5.09-1.14c-1.82,0-3.57,0.42-5.11,1.14
		c-1.5,0.66-3.19,1.06-4.95,1.06c-1.74,0-3.43-0.4-4.95-1.06c-1.54-0.72-3.29-1.14-5.09-1.14c-1.82,0-3.57,0.42-5.11,1.14
		c-1.5,0.66-3.19,1.06-4.95,1.06v-7.43c1.76,0,3.45-0.38,4.95-1.06c1.54-0.72,3.29-1.14,5.11-1.14c1.8,0,3.55,0.42,5.09,1.14
		c1.52,0.68,3.21,1.06,4.95,1.06c1.76,0,3.45-0.38,4.95-1.06c1.54-0.72,3.29-1.14,5.11-1.14c1.82,0,3.55,0.42,5.09,1.14
		c1.52,0.68,3.21,1.06,4.97,1.06c1.76,0,3.45-0.38,4.95-1.06c1.54-0.72,3.29-1.14,5.11-1.14c1.82,0,3.57,0.42,5.11,1.14
		c1.5,0.68,3.18,1.06,4.95,1.06c1.76,0,3.45-0.38,4.97-1.06c1.54-0.72,3.29-1.14,5.09-1.14c1.82,0,3.57,0.42,5.11,1.14
		c1.5,0.68,3.21,1.06,4.97,1.06V2130.52z"/>
	<path class="st2" d="M2081.13,2115.71c1.5-0.68,3.17-1.06,4.93-1.06c1.8,0,3.55,0.42,5.09,1.14c1.52,0.66,3.21,1.06,4.95,1.06
		c1.76,0,3.45-0.4,4.95-1.06c1.54-0.72,3.29-1.14,5.11-1.14c1.82,0,3.55,0.42,5.09,1.14c1.52,0.66,3.21,1.06,4.97,1.06
		c1.76,0,3.45-0.4,4.95-1.06c0.98-0.46,2-0.76,3.09-0.96l12.86-14.71h-16.55l6.85-11.76l15.03,8.21c4.97,2.8,8.64-3.67,3.65-6.47
		l-21.52-11.9c-7.92-4.41-11.26,2.91-11.26,2.91l-11.1,18.75l-29.23-0.02C2073.9,2105.2,2078.71,2112.37,2081.13,2115.71
		L2081.13,2115.71z"/>
	<path class="st2" d="M2128.12,2114.79c1.14,0.18,2.24,0.52,3.27,1c1.5,0.66,3.18,1.06,4.95,1.06c1.76,0,3.45-0.4,4.97-1.06
		c1.54-0.72,3.29-1.14,5.09-1.14c1.82,0,3.57,0.42,5.11,1.14c1.5,0.66,3.21,1.06,4.97,1.06l-0.04-16.73l-15.51-0.02L2128.12,2114.79
		z"/>
</g>
<g>
	<path d="M54.7,57.35c-1.31-0.04-2.62-0.37-3.8-1.03c-1.8-1.01-3.51-2.45-5.09-4.29L25.83,28.49c-1.01-1.19-0.81-3.03,0.44-4.09
		c0.61-0.52,1.42-0.78,2.21-0.72c0.75,0.06,1.42,0.4,1.89,0.95l5.77,6.8c0.22-0.28,0.49-0.53,0.81-0.73
		c0.22-0.13,0.45-0.22,0.69-0.29L25.97,16.66c-0.51-0.6-0.76-1.37-0.69-2.17c0.07-0.8,0.43-1.52,1.04-2.03
		c1.25-1.06,3.14-0.91,4.2,0.34l11.37,13.4l1.54-0.97L29.18,8.44c-0.51-0.61-0.76-1.38-0.7-2.17c0.06-0.79,0.43-1.51,1.04-2.03
		c0.6-0.51,1.37-0.76,2.17-0.7c0.8,0.07,1.52,0.43,2.03,1.04l9.38,11.05L48.51,22l1.54-0.98l-6.52-7.68l-4.46-5.25
		c-1.06-1.25-0.91-3.14,0.34-4.2c1.25-1.06,3.14-0.91,4.2,0.35L55.2,17.76l1.54-0.98L44.99,3.07c-1.71-2.01-4.73-2.26-6.74-0.55
		c-0.86,0.73-1.39,1.7-1.59,2.73l-1.56-1.83c-0.82-0.97-1.98-1.57-3.26-1.67c-1.28-0.1-2.52,0.29-3.49,1.12
		c-0.97,0.83-1.56,1.99-1.67,3.25c-0.1,1.27,0.29,2.5,1.12,3.48l0.3,0.36c-1.05,0.03-2.09,0.4-2.95,1.13
		c-0.97,0.82-1.57,1.98-1.67,3.26c-0.1,1.28,0.29,2.52,1.12,3.48l3.44,4.05c-1.07,0.05-2.11,0.45-2.94,1.15
		c-1.03,0.87-1.6,2.07-1.7,3.3c-0.1,1.18,0.25,2.37,1.05,3.33l19.99,23.54c1.72,2,3.6,3.58,5.58,4.69c1.29,0.73,2.71,1.13,4.15,1.24
		c0.16-0.57,0.41-1.1,0.74-1.59C54.84,57.47,54.77,57.41,54.7,57.35z"/>
	<polygon points="57.48,26.08 60.72,28.34 60.93,24.39 57.69,22.14 	"/>
	<g>
		<polygon class="st3" points="62.2,37.82 55.74,33.31 55.3,41.18 61.77,45.68 		"/>
		<path class="st3" d="M90.41,49.72l-7.39-8.71c-1.28-1.51-3.18-2.2-5.01-2.02c0.13-5.25-2.61-11.72-3.76-14.19
			c0-0.01-0.01-0.01-0.01-0.02c0-0.01,0-0.01-0.01-0.02l-5.75-11.07c-0.32-0.81-0.79-1.35-1.39-1.61c-0.95-0.4-1.92,0.02-2.62,0.33
			c-0.12,0.05-0.23,0.1-0.33,0.14l-0.63,0.25c-1.18,0.45-2.12,1.48-2.6,2.83c-0.1,0.28-0.17,0.56-0.22,0.85
			c0.67,0.32,1.26,0.82,1.66,1.46l0.07,0.11c-0.07-0.59-0.02-1.23,0.19-1.81c0.3-0.86,0.85-1.48,1.55-1.74l0.65-0.26
			c0.12-0.05,0.26-0.11,0.39-0.17c0.4-0.18,0.96-0.42,1.2-0.32c0.14,0.06,0.3,0.29,0.43,0.64c0.01,0.03,0.03,0.07,0.04,0.1
			l5.76,11.1c2.09,4.49,3.84,9.99,3.56,13.9c-0.05,0.02-0.09,0.05-0.14,0.07c-0.43,0.21-0.85,0.47-1.24,0.8l-0.05,0.05L61.04,18.76
			c-0.35-0.54-0.89-0.93-1.52-1.07c-0.63-0.14-1.29-0.03-1.83,0.32l-17.33,11c-0.12,0.08-0.23,0.16-0.33,0.26
			c-0.1,0.1-0.2,0.2-0.29,0.31c-0.14,0.18-0.25,0.38-0.33,0.58c-0.16,0.41-0.21,0.86-0.14,1.3c0.04,0.22,0.1,0.43,0.2,0.64
			l-0.71-0.2c-0.08-0.02-0.17-0.04-0.26-0.05c-0.09-0.01-0.17,0-0.26,0.01c-0.17,0.02-0.34,0.08-0.49,0.17
			c-0.61,0.36-0.82,1.15-0.45,1.77l0.89,1.52l-0.47,1.7c-0.14,0.51,0.04,1.05,0.46,1.37c0.41,0.33,0.98,0.38,1.43,0.12l1.52-0.9
			l1.7,0.47c0.14,0.03,0.27,0.05,0.41,0.04l12.02,18.93c-0.12,0.15-0.24,0.31-0.35,0.47c-0.33,0.49-0.58,1.02-0.74,1.59
			c-0.11,0.37-0.18,0.76-0.21,1.16c-0.13,1.55,0.36,3.06,1.37,4.25l7.39,8.7c1.15,1.36,2.79,2.05,4.45,2.05
			c1.33,0,2.67-0.45,3.77-1.38l18.81-15.97C92.19,55.85,92.49,52.17,90.41,49.72z M43.29,36.94c-0.04,0.06-0.12,0.08-0.18,0.06
			l-1.93-0.54c-0.14-0.04-0.3-0.01-0.42,0.06l-1.73,1.01c-0.04,0.02-0.09,0.03-0.14,0.02c-0.09-0.03-0.14-0.12-0.11-0.21l0.53-1.93
			c0.04-0.15,0.02-0.3-0.06-0.43l-1.01-1.73c-0.04-0.05-0.05-0.12-0.02-0.18c0.04-0.08,0.14-0.11,0.22-0.07l1.93,0.54
			c0.15,0.04,0.3,0.02,0.43-0.06l0.79-0.47l0.93-0.55c0.04-0.02,0.09-0.03,0.14-0.02c0.09,0.03,0.14,0.12,0.11,0.21l-0.5,1.8
			l-0.01,0.04l-0.03,0.09c-0.04,0.15-0.02,0.31,0.06,0.44l0.93,1.58l0.09,0.15C43.34,36.81,43.33,36.88,43.29,36.94z M44.24,37.57
			c0.1-0.14,0.15-0.3,0.19-0.47c0.06-0.31,0.03-0.63-0.13-0.91l-0.89-1.52l0.47-1.71c0.14-0.51-0.04-1.06-0.47-1.37
			c-0.42-0.32-0.99-0.36-1.44-0.09L41.12,32l-0.33,0.19l-0.25-0.4c0,0,0,0,0,0c-0.39-0.61-0.21-1.42,0.4-1.81l17.33-11
			c0.29-0.19,0.65-0.25,0.99-0.18c0.34,0.08,0.64,0.28,0.82,0.58l13.8,21.75l-0.32,0.27L59.94,52.96l-1.84-1.28l-0.16,2.99
			l-1.54,1.31l-0.32,0.27L44.24,37.57z M88.55,56.53L69.73,72.5c-1.68,1.42-4.2,1.22-5.63-0.46l-7.39-8.7
			c-0.69-0.81-1.02-1.85-0.94-2.91c0.09-1.06,0.58-2.03,1.39-2.72l18.81-15.97c0.73-0.62,1.63-0.95,2.58-0.95
			c0.11,0,0.22,0,0.33,0.01c1.06,0.09,2.03,0.58,2.72,1.39l7.39,8.7C90.43,52.59,90.22,55.11,88.55,56.53z"/>
	</g>
</g>
</svg>
