<?xml version="1.0" encoding="utf-8"?>
<!-- Generator: Adobe Illustrator 28.1.0, SVG Export Plug-In . SVG Version: 6.00 Build 0)  -->
<svg version="1.1" id="Layer_1" xmlns="http://www.w3.org/2000/svg" xmlns:xlink="http://www.w3.org/1999/xlink" x="0px" y="0px"
	 viewBox="0 0 110.55 76.54" style="enable-background:new 0 0 110.55 76.54;" xml:space="preserve">
<style type="text/css">
	.st0{display:none;}
	.st1{display:inline;fill:none;}
	.st2{fill:#808080;}
</style>
<g id="Layer_2_00000073722119373351752270000017113015111246931634_" class="st0">
	<line class="st1" x1="-24.13" y1="74.54" x2="142.13" y2="74.54"/>
	<line class="st1" x1="-24.13" y1="2" x2="142.13" y2="2"/>
</g>
<g>
	<path class="st2" d="M1879.74,2086.84c3.3,0,5.96-2.66,5.96-5.96c0-3.3-2.66-5.96-5.96-5.96c-3.3,0-5.96,2.66-5.96,5.96
		C1873.77,2084.18,1876.43,2086.84,1879.74,2086.84z"/>
	<path class="st2" d="M1886.1,2093.13c5.88-0.81,13.22-2.18,14.43-2.34c1.45-0.24,2.42-1.69,2.18-3.14
		c-0.24-1.45-1.69-2.42-3.14-2.18c-6.53,1.21-17.17,2.9-19.83,2.9c-10.4,0-15.15,6.93-15.31,7.25c-0.64,0.97-0.56,2.18,0.08,3.06
		l4.67,6.61c0.56,0.73,1.37,1.13,2.18,1.13c0.56,0,1.05-0.16,1.53-0.48c0.16-0.08,0.24-0.24,0.4-0.32v1.85l-1.69,19.91
		c-0.16,1.61,1.05,3.06,2.74,3.22c1.61,0.16,3.06-1.05,3.22-2.74l1.61-19.18h1.13l1.61,19.18c0.16,1.53,1.45,2.74,2.98,2.74
		c0.08,0,0.16,0,0.24,0c1.61-0.16,2.9-1.61,2.74-3.22l-1.69-19.91L1886.1,2093.13z M1873.29,2101.83l-3.22-4.59
		c0.73-0.64,1.85-1.53,3.3-2.18L1873.29,2101.83z"/>
</g>
<g>
	<path class="st2" d="M1933.79,2093.61c1.85,0.21,3.48,0.36,4.83,0.36c1.99,0,3.48-0.28,4.48-1.21c0.64-0.57,1.07-1.35,1.07-2.27
		c0.14-2.27-2.49-6.33-7.75-12.01c-0.92-1-2.49-1.07-3.55-0.14c-0.21,0.14-0.28,0.36-0.43,0.57c-0.78-2.35-2.91-3.98-5.55-3.98
		c-2.56,0-4.76,1.71-5.55,3.98c-0.14-0.21-0.28-0.43-0.43-0.57c-1-0.92-2.56-0.85-3.55,0.14c-5.26,5.69-7.89,9.67-7.75,12.01
		c0.07,0.92,0.43,1.71,1.07,2.27c1,0.85,2.49,1.21,4.48,1.21c1.35,0,2.99-0.14,4.83-0.36c0.36,0,0.71-0.07,1-0.07l0.28,12.51
		c0,0.14,0,0.21,0,0.36l-3.55,8.25c-0.36,0.92-0.64,1.85-0.78,2.77l-1.07,10.02c-0.21,1.56,0.92,3.06,2.56,3.27
		c0.14,0,0.21,0,0.36,0c1.42,0,2.7-1.07,2.91-2.56l1.28-10.02c0.07-0.43,0.14-0.85,0.36-1.21l3.77-8.74l3.77,8.74
		c0.14,0.43,0.28,0.78,0.36,1.21l1.28,10.02c0.21,1.56,1.64,2.7,3.27,2.56c1.56-0.21,2.7-1.64,2.56-3.27l-1.28-10.02
		c-0.14-1-0.36-1.92-0.78-2.77l-3.55-8.25c0-0.07,0-0.21,0-0.28l0.28-12.58C1933.15,2093.54,1933.51,2093.54,1933.79,2093.61z
		 M1930.38,2088.35h-6.75c-1.14,0-2.49,0.14-3.91,0.28c-1.14,0.14-2.84,0.28-4.19,0.28c1.14-1.78,3.34-4.55,5.69-7.04
		c0-0.07,0.07-0.07,0.07-0.14c0.5,2.77,2.84,4.83,5.76,4.83c2.91,0,5.26-2.06,5.76-4.83c0,0.07,0.07,0.07,0.07,0.14
		c2.35,2.49,4.55,5.26,5.69,7.04c-1.35,0-3.06-0.21-4.19-0.28C1932.87,2088.49,1931.44,2088.35,1930.38,2088.35z"/>
</g>
<path class="st2" d="M1898.76,2079.8c0.4,0.4,1.05-0.08,0.81-0.56l-2.42-4.92l3.3-0.81c0.32-0.08,0.48-0.4,0.32-0.73l-4.03-7.5
	c-0.08-0.16-0.32-0.32-0.56-0.24l-3.47,0.81c-0.32,0.08-0.48,0.48-0.32,0.81l3.14,4.43l-3.06,0.73c-0.4,0.08-0.48,0.56-0.24,0.81
	L1898.76,2079.8z"/>
<path class="st2" d="M1905.57,2070.13l3.3,0.81l-2.42,4.92c-0.24,0.48,0.4,0.97,0.81,0.56l6.61-7.09c0.24-0.32,0.16-0.73-0.24-0.81
	l-3.06-0.81l3.14-4.43c0.24-0.32,0.08-0.73-0.32-0.81l-3.47-0.81c-0.24-0.08-0.48,0.08-0.56,0.24l-4.03,7.5
	C1905.08,2069.73,1905.32,2070.05,1905.57,2070.13z"/>
<g>
	<path class="st2" d="M2127.3,2077.06c4.13,0,7.45-3.35,7.45-7.45c0-4.13-3.33-7.47-7.45-7.47c-4.13,0-7.47,3.35-7.47,7.47
		C2119.83,2073.72,2123.17,2077.06,2127.3,2077.06L2127.3,2077.06z"/>
	<path class="st2" d="M2156.47,2130.52c-1.76,0-3.47-0.4-4.97-1.06c-1.54-0.72-3.29-1.14-5.11-1.14c-1.8,0-3.55,0.42-5.09,1.14
		c-1.52,0.66-3.21,1.06-4.97,1.06c-1.76,0-3.45-0.4-4.95-1.06c-1.54-0.72-3.29-1.14-5.11-1.14c-1.82,0-3.57,0.42-5.11,1.14
		c-1.5,0.66-3.18,1.06-4.95,1.06c-1.76,0-3.45-0.4-4.97-1.06c-1.54-0.72-3.27-1.14-5.09-1.14c-1.82,0-3.57,0.42-5.11,1.14
		c-1.5,0.66-3.19,1.06-4.95,1.06c-1.74,0-3.43-0.4-4.95-1.06c-1.54-0.72-3.29-1.14-5.09-1.14c-1.82,0-3.57,0.42-5.11,1.14
		c-1.5,0.66-3.19,1.06-4.95,1.06v-7.43c1.76,0,3.45-0.38,4.95-1.06c1.54-0.72,3.29-1.14,5.11-1.14c1.8,0,3.55,0.42,5.09,1.14
		c1.52,0.68,3.21,1.06,4.95,1.06c1.76,0,3.45-0.38,4.95-1.06c1.54-0.72,3.29-1.14,5.11-1.14c1.82,0,3.55,0.42,5.09,1.14
		c1.52,0.68,3.21,1.06,4.97,1.06c1.76,0,3.45-0.38,4.95-1.06c1.54-0.72,3.29-1.14,5.11-1.14c1.82,0,3.57,0.42,5.11,1.14
		c1.5,0.68,3.18,1.06,4.95,1.06c1.76,0,3.45-0.38,4.97-1.06c1.54-0.72,3.29-1.14,5.09-1.14c1.82,0,3.57,0.42,5.11,1.14
		c1.5,0.68,3.21,1.06,4.97,1.06V2130.52z"/>
	<path class="st2" d="M2081.13,2115.71c1.5-0.68,3.17-1.06,4.93-1.06c1.8,0,3.55,0.42,5.09,1.14c1.52,0.66,3.21,1.06,4.95,1.06
		c1.76,0,3.45-0.4,4.95-1.06c1.54-0.72,3.29-1.14,5.11-1.14c1.82,0,3.55,0.42,5.09,1.14c1.52,0.66,3.21,1.06,4.97,1.06
		c1.76,0,3.45-0.4,4.95-1.06c0.98-0.46,2-0.76,3.09-0.96l12.86-14.71h-16.55l6.85-11.76l15.03,8.21c4.97,2.8,8.64-3.67,3.65-6.47
		l-21.52-11.9c-7.92-4.41-11.26,2.91-11.26,2.91l-11.1,18.75l-29.23-0.02C2073.9,2105.2,2078.71,2112.37,2081.13,2115.71
		L2081.13,2115.71z"/>
	<path class="st2" d="M2128.12,2114.79c1.14,0.18,2.24,0.52,3.27,1c1.5,0.66,3.18,1.06,4.95,1.06c1.76,0,3.45-0.4,4.97-1.06
		c1.54-0.72,3.29-1.14,5.09-1.14c1.82,0,3.57,0.42,5.11,1.14c1.5,0.66,3.21,1.06,4.97,1.06l-0.04-16.73l-15.51-0.02L2128.12,2114.79
		z"/>
</g>
<path d="M102.78,56.06c-13.47-8.41-25.76-14.95-25.89-15.02c-0.07-0.03-0.14-0.06-0.2-0.09c-0.81-0.25-2.56-1.63-5.18-8.11
	c-1.82-4.53-3.52-10.14-4.89-14.66c-1.05-3.49-1.97-6.51-2.67-8.14c-1.47-3.42-4.09-4.75-6.03-5.26c-1.86-0.49-3.45-0.33-3.8-0.29
	c-0.88,0.04-14.05,0.76-18.94,1.13c-3.19,0.24-5.28,0.45-7.31,0.64c-1.54,0.14-3.14,0.3-5.22,0.46c-3.36,0.26-5.61,1.24-7.98,2.25
	c-1.17,0.5-2.39,1.02-3.79,1.48c-2.05,0.67-3.36,1.63-3.87,2.84c-0.37,0.89-0.22,1.73,0,2.21c0.01,0.02,0.01,0.04,0.02,0.06
	c0.67,1.18,1.61,1.94,2.68,2.42c3.45,1.54,8.22,0.08,9.53-0.38c4.31,0.91,10.29-0.77,11.88-1.25c0.24,0.09,0.46,0.17,0.69,0.24
	c0.14,1.39,0.58,4.82,1.74,7.38c-1.09-0.36-2.27-0.8-3.46-1.26c-2.04-0.77-4.35-1.64-6.65-2.28c-3.43-0.95-6.31-0.86-8.57,0.27
	c-1.6,0.81-2.86,2.16-3.64,3.89c-0.4,0.89-0.82,1.82-0.35,2.75c0.6,1.23,2.19,1.66,7.11,2.82l0.07,0.02
	c3.14,0.74,5.09,1.78,7.14,2.87c1.69,0.9,3.45,1.83,5.89,2.6c1.83,0.58,3.93,2.21,11.73,8.3c1.01,0.79,2.11,1.64,3.31,2.58
	c4.2,3.27,6.51,4.13,8.05,4.71c0.76,0.29,1.27,0.47,1.73,0.84C74.33,66.56,84.8,71.56,86.73,72.42c0.18,0.08,0.27,0.12,0.31,0.14
	c0.34,0.14,0.73,0.11,1.03-0.09c9.53-6.15,14.83-14.54,15.05-14.89C103.44,57.08,103.3,56.39,102.78,56.06L102.78,56.06z
	 M36.72,24.7c-0.81-0.59-1.59-2.36-2.13-4.85c-0.21-0.97-0.36-1.91-0.45-2.62c2.31,0.5,4.47,0.56,6.38,0.39
	c-0.04,0.42-0.23,0.92-0.71,1.4c-0.36,0.23-0.68,0.47-0.93,0.7c-0.43,0.38-0.49,1.03-0.15,1.49c0.12,0.17,0.26,0.28,0.44,0.36
	c0.32,0.15,0.7,0.14,1.02-0.06c0.36-0.21,0.67-0.45,0.96-0.69c0.25-0.15,0.53-0.31,0.84-0.43c0.51-0.21,0.92-0.27,1.24-0.24
	c-0.77,0.71-1.49,1.49-2.18,2.23c-0.69,0.75-1.33,1.45-1.97,2.02c-0.31,0.28-0.75,0.41-1.29,0.45c-0.05,0.01-0.11,0-0.17,0.01
	c-0.05,0-0.09,0.01-0.14,0.02c-0.22,0.05-0.4,0.03-0.59-0.07C36.83,24.77,36.78,24.75,36.72,24.7L36.72,24.7z M42.73,17.82
	c0.01,0.04,0.03,0.08,0.03,0.11c-0.01-0.01-0.03,0-0.05,0.01C42.72,17.9,42.73,17.87,42.73,17.82z M17.97,27.88
	c-2.12-0.51-4.51-1.09-5.04-1.49c0.05-0.22,0.24-0.64,0.35-0.88c0.05-0.11,0.1-0.22,0.16-0.32c2.82-1.37,5.05-0.48,6.05,0.11
	C18.72,26.34,18.26,27.23,17.97,27.88L17.97,27.88z M87.37,70.29c-1.01-0.47-3.47-1.68-7.27-3.95c-4.7-2.8-12.47-7.87-22.81-16
	c-0.42-0.33-0.85-0.57-1.29-0.77c-0.34-0.15-0.67-0.27-1.03-0.41c-1.49-0.55-3.54-1.33-7.47-4.38c-1.2-0.94-2.3-1.79-3.29-2.58
	c-8.25-6.43-10.21-7.97-12.43-8.66c-2.26-0.72-3.85-1.56-5.52-2.45c-1.91-1.02-3.88-2.06-6.8-2.85c0.31-0.66,0.83-1.59,1.68-2.64
	c0.25-0.31,0.21-0.76-0.09-1.03c-0.12-0.1-2.41-2.02-5.77-1.51c1.52-1.04,3.89-1.52,7.6-0.49c2.22,0.62,4.38,1.42,6.47,2.21
	c2.68,1.01,5.05,1.9,7.03,2.19l0,0l0,0c0.49,0.07,0.96,0.1,1.41,0.08c1.07-0.04,2-0.34,2.76-1.02c0.73-0.65,1.4-1.39,2.12-2.17
	c1-1.08,2.01-2.17,3.11-2.99c0.03-0.02,0.05-0.03,0.07-0.05c0.96-0.7,2-1.17,3.16-1.22c0.08,0,0.11,0,0.13-0.01
	c0.61-0.02,1.08-0.54,1.08-1.14c-0.02-0.61-0.52-1.09-1.12-1.09c-0.07,0-0.11,0-0.18,0c-1.4,0.04-2.87-0.08-3.66-0.27
	c0.34-0.25,0.93-0.64,2-1.18c0.78-0.32,1.23-0.58,1.31-0.61c0.52-0.29,0.73-0.94,0.46-1.46c-0.27-0.53-0.91-0.76-1.44-0.51
	c-0.4,0.18-0.77,0.35-1.14,0.53c-2.16,0.88-7.37,2.54-13.24,0.79c-0.53-0.16-1.06-0.35-1.61-0.56c-0.25-0.1-0.51-0.1-0.77-0.02
	c-0.07,0.02-7.09,2.31-11.38,1.25c-0.22-0.05-0.45-0.04-0.67,0.04c-0.02,0.01-2.03,0.78-4.32,0.99c-2.72,0.24-4.55-0.38-5.44-1.87
	C9.02,14.42,9,14.28,9.11,14.07c0.13-0.26,0.63-0.94,2.49-1.55c1.5-0.48,2.77-1.03,3.97-1.55c2.29-0.99,4.28-1.85,7.29-2.08
	c2.1-0.16,3.7-0.32,5.26-0.47c2.01-0.19,4.08-0.38,7.26-0.63c5.02-0.37,18.8-1.11,18.94-1.11c0.03,0,0.07,0,0.11-0.02
	c0.22-0.03,5.38-0.74,7.51,4.22c0.65,1.51,1.55,4.47,2.58,7.9c3.75,12.4,7.19,22.77,11.43,24.23c1.09,0.58,12.26,6.57,24.69,14.29
	C99.02,59.61,94.4,65.6,87.37,70.29L87.37,70.29z"/>
</svg>
