<?xml version="1.0" encoding="utf-8"?>
<!-- Generator: Adobe Illustrator 28.1.0, SVG Export Plug-In . SVG Version: 6.00 Build 0)  -->
<svg version="1.1" id="Layer_1" xmlns="http://www.w3.org/2000/svg" xmlns:xlink="http://www.w3.org/1999/xlink" x="0px" y="0px"
	 viewBox="0 0 110.55 76.54" style="enable-background:new 0 0 110.55 76.54;" xml:space="preserve">
<style type="text/css">
	.st0{display:none;}
	.st1{display:inline;fill:none;}
	.st2{fill:#808080;}
</style>
<g id="Layer_2_00000073722119373351752270000017113015111246931634_" class="st0">
	<line class="st1" x1="-24.13" y1="74.54" x2="142.13" y2="74.54"/>
	<line class="st1" x1="-24.13" y1="2" x2="142.13" y2="2"/>
</g>
<g>
	<path class="st2" d="M1879.74,2086.84c3.3,0,5.96-2.66,5.96-5.96c0-3.3-2.66-5.96-5.96-5.96c-3.3,0-5.96,2.66-5.96,5.96
		C1873.77,2084.18,1876.43,2086.84,1879.74,2086.84z"/>
	<path class="st2" d="M1886.1,2093.13c5.88-0.81,13.22-2.18,14.43-2.34c1.45-0.24,2.42-1.69,2.18-3.14
		c-0.24-1.45-1.69-2.42-3.14-2.18c-6.53,1.21-17.17,2.9-19.83,2.9c-10.4,0-15.15,6.93-15.31,7.25c-0.64,0.97-0.56,2.18,0.08,3.06
		l4.67,6.61c0.56,0.73,1.37,1.13,2.18,1.13c0.56,0,1.05-0.16,1.53-0.48c0.16-0.08,0.24-0.24,0.4-0.32v1.85l-1.69,19.91
		c-0.16,1.61,1.05,3.06,2.74,3.22c1.61,0.16,3.06-1.05,3.22-2.74l1.61-19.18h1.13l1.61,19.18c0.16,1.53,1.45,2.74,2.98,2.74
		c0.08,0,0.16,0,0.24,0c1.61-0.16,2.9-1.61,2.74-3.22l-1.69-19.91L1886.1,2093.13z M1873.29,2101.83l-3.22-4.59
		c0.73-0.64,1.85-1.53,3.3-2.18L1873.29,2101.83z"/>
</g>
<g>
	<path class="st2" d="M1933.79,2093.61c1.85,0.21,3.48,0.36,4.83,0.36c1.99,0,3.48-0.28,4.48-1.21c0.64-0.57,1.07-1.35,1.07-2.27
		c0.14-2.27-2.49-6.33-7.75-12.01c-0.92-1-2.49-1.07-3.55-0.14c-0.21,0.14-0.28,0.36-0.43,0.57c-0.78-2.35-2.91-3.98-5.55-3.98
		c-2.56,0-4.76,1.71-5.55,3.98c-0.14-0.21-0.28-0.43-0.43-0.57c-1-0.92-2.56-0.85-3.55,0.14c-5.26,5.69-7.89,9.67-7.75,12.01
		c0.07,0.92,0.43,1.71,1.07,2.27c1,0.85,2.49,1.21,4.48,1.21c1.35,0,2.99-0.14,4.83-0.36c0.36,0,0.71-0.07,1-0.07l0.28,12.51
		c0,0.14,0,0.21,0,0.36l-3.55,8.25c-0.36,0.92-0.64,1.85-0.78,2.77l-1.07,10.02c-0.21,1.56,0.92,3.06,2.56,3.27
		c0.14,0,0.21,0,0.36,0c1.42,0,2.7-1.07,2.91-2.56l1.28-10.02c0.07-0.43,0.14-0.85,0.36-1.21l3.77-8.74l3.77,8.74
		c0.14,0.43,0.28,0.78,0.36,1.21l1.28,10.02c0.21,1.56,1.64,2.7,3.27,2.56c1.56-0.21,2.7-1.64,2.56-3.27l-1.28-10.02
		c-0.14-1-0.36-1.92-0.78-2.77l-3.55-8.25c0-0.07,0-0.21,0-0.28l0.28-12.58C1933.15,2093.54,1933.51,2093.54,1933.79,2093.61z
		 M1930.38,2088.35h-6.75c-1.14,0-2.49,0.14-3.91,0.28c-1.14,0.14-2.84,0.28-4.19,0.28c1.14-1.78,3.34-4.55,5.69-7.04
		c0-0.07,0.07-0.07,0.07-0.14c0.5,2.77,2.84,4.83,5.76,4.83c2.91,0,5.26-2.06,5.76-4.83c0,0.07,0.07,0.07,0.07,0.14
		c2.35,2.49,4.55,5.26,5.69,7.04c-1.35,0-3.06-0.21-4.19-0.28C1932.87,2088.49,1931.44,2088.35,1930.38,2088.35z"/>
</g>
<path class="st2" d="M1898.76,2079.8c0.4,0.4,1.05-0.08,0.81-0.56l-2.42-4.92l3.3-0.81c0.32-0.08,0.48-0.4,0.32-0.73l-4.03-7.5
	c-0.08-0.16-0.32-0.32-0.56-0.24l-3.47,0.81c-0.32,0.08-0.48,0.48-0.32,0.81l3.14,4.43l-3.06,0.73c-0.4,0.08-0.48,0.56-0.24,0.81
	L1898.76,2079.8z"/>
<path class="st2" d="M1905.57,2070.13l3.3,0.81l-2.42,4.92c-0.24,0.48,0.4,0.97,0.81,0.56l6.61-7.09c0.24-0.32,0.16-0.73-0.24-0.81
	l-3.06-0.81l3.14-4.43c0.24-0.32,0.08-0.73-0.32-0.81l-3.47-0.81c-0.24-0.08-0.48,0.08-0.56,0.24l-4.03,7.5
	C1905.08,2069.73,1905.32,2070.05,1905.57,2070.13z"/>
<g>
	<path class="st2" d="M2127.3,2077.06c4.13,0,7.45-3.35,7.45-7.45c0-4.13-3.33-7.47-7.45-7.47c-4.13,0-7.47,3.35-7.47,7.47
		C2119.83,2073.72,2123.17,2077.06,2127.3,2077.06L2127.3,2077.06z"/>
	<path class="st2" d="M2156.47,2130.52c-1.76,0-3.47-0.4-4.97-1.06c-1.54-0.72-3.29-1.14-5.11-1.14c-1.8,0-3.55,0.42-5.09,1.14
		c-1.52,0.66-3.21,1.06-4.97,1.06c-1.76,0-3.45-0.4-4.95-1.06c-1.54-0.72-3.29-1.14-5.11-1.14c-1.82,0-3.57,0.42-5.11,1.14
		c-1.5,0.66-3.18,1.06-4.95,1.06c-1.76,0-3.45-0.4-4.97-1.06c-1.54-0.72-3.27-1.14-5.09-1.14c-1.82,0-3.57,0.42-5.11,1.14
		c-1.5,0.66-3.19,1.06-4.95,1.06c-1.74,0-3.43-0.4-4.95-1.06c-1.54-0.72-3.29-1.14-5.09-1.14c-1.82,0-3.57,0.42-5.11,1.14
		c-1.5,0.66-3.19,1.06-4.95,1.06v-7.43c1.76,0,3.45-0.38,4.95-1.06c1.54-0.72,3.29-1.14,5.11-1.14c1.8,0,3.55,0.42,5.09,1.14
		c1.52,0.68,3.21,1.06,4.95,1.06c1.76,0,3.45-0.38,4.95-1.06c1.54-0.72,3.29-1.14,5.11-1.14c1.82,0,3.55,0.42,5.09,1.14
		c1.52,0.68,3.21,1.06,4.97,1.06c1.76,0,3.45-0.38,4.95-1.06c1.54-0.72,3.29-1.14,5.11-1.14c1.82,0,3.57,0.42,5.11,1.14
		c1.5,0.68,3.18,1.06,4.95,1.06c1.76,0,3.45-0.38,4.97-1.06c1.54-0.72,3.29-1.14,5.09-1.14c1.82,0,3.57,0.42,5.11,1.14
		c1.5,0.68,3.21,1.06,4.97,1.06V2130.52z"/>
	<path class="st2" d="M2081.13,2115.71c1.5-0.68,3.17-1.06,4.93-1.06c1.8,0,3.55,0.42,5.09,1.14c1.52,0.66,3.21,1.06,4.95,1.06
		c1.76,0,3.45-0.4,4.95-1.06c1.54-0.72,3.29-1.14,5.11-1.14c1.82,0,3.55,0.42,5.09,1.14c1.52,0.66,3.21,1.06,4.97,1.06
		c1.76,0,3.45-0.4,4.95-1.06c0.98-0.46,2-0.76,3.09-0.96l12.86-14.71h-16.55l6.85-11.76l15.03,8.21c4.97,2.8,8.64-3.67,3.65-6.47
		l-21.52-11.9c-7.92-4.41-11.26,2.91-11.26,2.91l-11.1,18.75l-29.23-0.02C2073.9,2105.2,2078.71,2112.37,2081.13,2115.71
		L2081.13,2115.71z"/>
	<path class="st2" d="M2128.12,2114.79c1.14,0.18,2.24,0.52,3.27,1c1.5,0.66,3.18,1.06,4.95,1.06c1.76,0,3.45-0.4,4.97-1.06
		c1.54-0.72,3.29-1.14,5.09-1.14c1.82,0,3.57,0.42,5.11,1.14c1.5,0.66,3.21,1.06,4.97,1.06l-0.04-16.73l-15.51-0.02L2128.12,2114.79
		z"/>
</g>
<g>
	<path d="M-4780.81,2202.62v-1.51c0-2.38-1.93-4.31-4.31-4.31h-0.32l-2.6-10.41c-0.16-0.64-0.73-1.09-1.39-1.09h-2.88
		c-0.66,0-1.23,0.45-1.39,1.09l-2.6,10.41h-0.32c-2.38,0-4.31,1.93-4.31,4.31v1.51c-2.44,0.35-4.31,2.43-4.31,4.96v9.34v25.87v2.16
		c0,0.4,0.32,0.72,0.72,0.72h1.44c0.4,0,0.72-0.32,0.72-0.72v-0.72h23v5.03c0,1.19-0.97,2.16-2.16,2.16h-18.69
		c-1.19,0-2.16-0.97-2.16-2.16c0-0.4-0.32-0.72-0.72-0.72h-1.44c-0.4,0-0.72,0.32-0.72,0.72c0,2.78,2.25,5.03,5.03,5.03h18.69
		c2.78,0,5.03-2.25,5.03-5.03v-6.47v-25.87v-9.34C-4776.49,2205.05-4778.37,2202.98-4780.81,2202.62z M-4791.18,2188.18h0.63
		l2.16,8.62h-4.94L-4791.18,2188.18z M-4798.05,2201.11c0-0.79,0.64-1.44,1.44-1.44h1.44h8.62h1.44c0.79,0,1.44,0.64,1.44,1.44v1.44
		h-14.37V2201.11z M-4800.21,2205.43h0.72h17.25h0.72c1.19,0,2.16,0.97,2.16,2.16v7.91h-23v-7.91
		C-4802.37,2206.39-4801.4,2205.43-4800.21,2205.43z M-4802.37,2241.36v-23h23v23H-4802.37z"/>
	<path d="M-4787.76,2224.52c0.4-0.13,0.84-0.24,1.37-0.31c0.72-0.09,1.27-0.69,1.27-1.41v-0.03c0-0.84-0.73-1.52-1.57-1.42
		c-1.03,0.13-1.95,0.39-2.75,0.74v-0.85c0-0.79-0.64-1.44-1.44-1.44s-1.44,0.64-1.44,1.44v0.56c-0.95-0.33-1.99-0.47-2.86-0.52
		c-0.79-0.05-1.45,0.57-1.45,1.36v0.16c0,0.72,0.58,1.31,1.3,1.36c0.8,0.05,1.38,0.15,1.81,0.27c-3.69,0.8-5.99,3.31-5.99,6.89
		c0,4.76,3.86,8.62,8.62,8.62c4.76,0,8.62-3.86,8.62-8.62C-4782.24,2227.88-4784.34,2225.43-4787.76,2224.52z M-4790.87,2237.05
		c-3.18,0-5.75-2.57-5.75-5.75c0-3.89,4.02-4.31,5.75-4.31c1.73,0,5.75,0.42,5.75,4.31
		C-4785.12,2234.47-4787.69,2237.05-4790.87,2237.05z"/>
</g>
<path d="M13.67,31.49c-0.19-0.07-0.37-0.13-0.56-0.2c-0.26,0.31-0.53,0.63-0.8,0.95c-0.03-0.26-0.05-0.52-0.08-0.79
	c-0.04-0.51-0.09-1.02-0.16-1.53c-0.81-5.59,0.44-10.55,3.6-14.34c3.36-4.03,8.74-6.5,14.82-6.84c-0.19,0.46-0.37,0.91-0.56,1.37
	c0.14,0.12,0.29,0.24,0.43,0.37c0.95-0.89,1.9-1.78,3.08-2.88c-1.3-0.96-2.36-1.74-3.42-2.53l-0.38,0.46
	c0.22,0.3,0.44,0.62,0.71,0.98c-6.68,0.38-12.63,3.14-16.39,7.64c-3.58,4.3-5,9.86-4.1,16.09c0.07,0.47,0.11,0.94,0.15,1.4
	c0.04,0.46,0.09,0.93,0.16,1.41c-0.47-0.12-0.91-0.24-1.32-0.34l-0.29,0.69c1.15,0.64,2.3,1.27,3.7,2.05
	C12.8,33.95,13.24,32.72,13.67,31.49z"/>
<path d="M91.05,6.16c-1.07-0.91-2.24-0.8-3.53,0.01c-6.21,3.87-12.51,7.6-18.71,11.49c-1.8,1.13-3.5,1.22-5.53,0.92
	c-2.56-0.37-5.32-0.78-7.77-0.2c-7.23,1.72-14.56,2.26-21.91,2.97c-5.51,0.53-10.99,1.47-16.44,2.49c-2.54,0.48-3.12,2.68-1.36,4.62
	c0.72,0.8,1.88,1.49,2.92,1.64c1.85,0.26,3.76,0.07,5.64,0.07h11.4c-3.89,2.19-7.87,4.12-11.84,6.08c-0.53,0.26-1.06,0.52-1.6,0.78
	l-3.2,1.55c-2.13,1.03-4.25,2.09-6.33,3.22c-2.64,1.45-2.98,3.45-1.43,5.98c0.11,0.19,0.19,0.4,0.28,0.57
	c-2.87,2.38-3.13,3.06-2.17,5.54c0.84,2.17,2.05,2.87,4.72,2.74c0.21,3.89,2.12,5.57,5.99,4.68c5.99-1.38,11.96-2.92,17.84-4.71
	c5.23-1.59,10.33-3.6,15.49-5.42c0.09,0.1,0.19,0.2,0.28,0.3c-1.42,2.26-3.05,4.42-4.21,6.81c-0.99,2.03-1.68,4.28-2.07,6.51
	c-0.27,1.53,0.16,3.26,1.88,4.03c1.76,0.79,3.28,0.02,4.44-1.26c4.83-5.33,10.79-9.29,16.46-13.61c2.18-1.66,3.63-3.71,4.53-6.26
	c1.03-2.93,2.14-5.83,3.23-8.74c0.55-1.46,1.55-2.24,3.13-2.72c5.83-1.76,11.58-3.77,17.39-5.6c1.93-0.61,2.72-1.9,2.84-3.77
	C101.97,17.96,97.44,11.58,91.05,6.16z M97.19,29.16c-5.53,1.71-10.99,3.64-16.55,5.25c-2.1,0.6-3.48,1.64-4.23,3.6
	c-1.18,3.07-2.35,6.14-3.47,9.23c-0.77,2.12-2,3.8-3.83,5.2c-5.65,4.33-11.66,8.23-16.46,13.6c-0.31,0.35-0.81,0.54-1.33,0.7
	l-0.52,0.16c-0.09,0.03-0.17,0.06-0.26,0.09l-0.25,0.1c-0.32-0.87-1.07-1.83-0.89-2.58c0.48-1.98,1.13-3.99,2.13-5.76
	c1.94-3.45,4.17-6.73,6.24-10.1c0.29-0.47,0.4-1.04,0.74-1.96l-0.27,0.06c-0.68,0.14-1.09,0.17-1.42,0.35
	c-0.33,0.17-0.65,0.37-0.97,0.56l-0.95,0.6c-0.64,0.39-1.28,0.76-1.97,1.01c-10.18,3.76-20.34,7.58-30.99,9.85l-0.36,0.08
	l-0.72,0.17c-0.48,0.11-0.97,0.2-1.45,0.24l-0.36,0.01l-0.35-0.02c-0.8-0.07-1.83-0.59-2.21-1.24c-0.29-0.51,0.04-1.68,0.49-2.24
	c0.53-0.66,1.43-1.12,2.25-1.44c7.89-3.09,15.8-6.12,23.7-9.17c0.34-0.13,0.78-0.17,1-0.42c0.32-0.35,0.49-0.84,0.72-1.28
	c-0.46-0.16-0.99-0.56-1.36-0.44l-0.87,0.29c-1.15,0.41-2.27,0.89-3.41,1.33c-7.9,3.07-15.79,6.15-23.7,9.17
	c-0.54,0.21-1.19,0.42-1.78,0.48l-0.22,0.02c-0.29,0.01-0.56-0.02-0.78-0.12c-0.72-0.31-1.26-1.43-1.49-2.29
	c-0.12-0.46,0.48-1.42,0.99-1.66c3.8-1.77,7.62-3.51,11.5-5.09c5.59-2.27,11.24-4.41,16.86-6.6c0.34-0.13,0.78-0.18,1-0.42
	c0.31-0.36,0.46-0.85,0.68-1.29c-0.47-0.15-1.01-0.53-1.38-0.41l-1,0.35c-1.33,0.48-2.63,1.03-3.95,1.55
	c-6.64,2.6-13.28,5.2-19.93,7.78c-0.42,0.16-0.87,0.35-1.31,0.41l-0.22,0.02l-0.21-0.01c-0.51-0.05-1.24-0.4-1.41-0.81
	c-0.21-0.51-0.17-1.45,0.17-1.78c0.76-0.75,1.73-1.34,2.7-1.82c8.26-4.06,16.54-8.07,24.81-12.12c0.82-0.4,1.61-0.88,2.33-1.44
	c0.25-0.19,0.42-0.82,0.29-1.07c-0.14-0.28-0.78-0.6-1.02-0.5l-0.46,0.18c-1.38,0.51-2.78,0.7-4.19,0.74l-0.52,0.01
	c-1.92,0.02-3.85-0.2-5.77-0.22l-0.52,0l-0.52,0.01c-0.52,0.02-1.04,0.05-1.56,0.12c-2.35,0.29-4.75,0.2-7.13,0.31
	c-0.09,0-0.19,0.01-0.27,0.01l-0.26,0l-0.25,0c-2.05-0.03-2.97-0.66-3.92-2.83c3.69-0.62,7.13-1.34,10.6-1.76
	c7.87-0.94,15.76-1.71,23.64-2.59c1.02-0.11,2.05-0.35,3.03-0.68c1.66-0.56,3.33-0.82,5.01-0.8l0.5,0.01
	c1.17,0.05,2.34,0.24,3.51,0.55c0.86,0.23,1.69,0.34,2.48,0.33l0.34-0.01c1.47-0.09,2.87-0.59,4.28-1.49
	c5.98-3.79,12.07-7.39,18.09-11.11c0.49-0.3,0.94-0.53,1.39-0.53l0.15,0.01c0.3,0.03,0.6,0.17,0.9,0.46
	c5.1,4.8,9.17,10.12,9.13,17.6C99.59,27.43,99.02,28.59,97.19,29.16z"/>
<path d="M80.06,49.05c0.18,0.13,0.36,0.25,0.54,0.38c0.35-0.27,0.7-0.55,1.06-0.83c0.11,0.88,0.18,1.77,0.18,2.66
	c0,10.78-8.74,18.92-20.37,19.05c0.25-0.42,0.5-0.85,0.74-1.27c-0.14-0.14-0.29-0.29-0.43-0.43c-1.02,0.85-2.03,1.7-3.25,2.73
	c1.29,1.06,2.29,1.88,3.28,2.7l0.42-0.43c-0.2-0.35-0.41-0.7-0.63-1.07c12.83-0.19,22.46-9.26,22.46-21.27
	c0-1.08-0.09-2.17-0.24-3.23c0.47,0.15,0.91,0.28,1.34,0.41c0.11-0.19,0.21-0.38,0.32-0.57c-1.03-0.74-2.06-1.47-3.39-2.42
	C81.32,46.83,80.69,47.94,80.06,49.05z"/>
</svg>
