<?xml version="1.0" encoding="utf-8"?>
<!-- Generator: Adobe Illustrator 28.1.0, SVG Export Plug-In . SVG Version: 6.00 Build 0)  -->
<svg version="1.1" id="Layer_1" xmlns="http://www.w3.org/2000/svg" xmlns:xlink="http://www.w3.org/1999/xlink" x="0px" y="0px"
	 viewBox="0 0 110.55 76.54" style="enable-background:new 0 0 110.55 76.54;" xml:space="preserve">
<style type="text/css">
	.st0{display:none;}
	.st1{display:inline;fill:none;}
</style>
<g id="Layer_2_00000073722119373351752270000017113015111246931634_" class="st0">
	<line class="st1" x1="-24.13" y1="74.54" x2="142.13" y2="74.54"/>
	<line class="st1" x1="-24.13" y1="2" x2="142.13" y2="2"/>
</g>
<g>
	<path d="M97.48,64.98c-0.21-0.97-0.86-2.36-2.25-3.54c0.43-0.86,0.64-2.04,0.54-3.22c-0.21-2.36-1.4-4.51-3.11-5.8
		s-4.19-1.72-6.55-1.29l-0.64,2.68c1.93-0.75,4.29-0.54,5.69,0.54c1.4,1.07,2.04,2.79,2.15,4.08c0.11,1.07-0.11,2.04-0.64,2.47
		l-1.07,1.07l1.4,0.75c1.18,0.64,1.93,1.61,2.15,2.68c0.21,0.97,0,2.04-0.64,3.01c-0.64,0.97-1.82,1.72-3.22,1.82
		c-1.29,0.11-2.47-0.21-3.33-1.07l-0.97-0.86l-0.75,1.07c-1.82,2.15-7.94,3.11-10.63,1.07l-0.54-0.43l-0.64,0.21
		c-4.29,1.61-5.9,0.43-7.3-2.15c-0.64-1.18-0.43-2.79,0.32-4.08c0.32-0.54,1.4-1.82,3.22-1.72l1.5,0.11l-0.21-1.5
		c-0.43-2.79,1.4-4.4,3.33-5.05l-2.9-1.29c-1.72,1.29-2.79,3.11-2.9,5.26c-1.61,0.32-3.01,1.29-3.97,2.79
		c-1.29,2.04-1.5,4.62-0.43,6.55c1.4,2.47,3.76,5.47,9.77,3.44c1.4,0.86,3.22,1.29,5.05,1.29c2.79,0,5.69-0.86,7.41-2.25
		c1.29,0.86,2.79,1.18,4.4,0.97c1.93-0.21,3.86-1.29,4.94-2.9C97.48,68.41,97.91,66.7,97.48,64.98z"/>
	<path d="M89.64,16.35l-19.54,3.01c-0.97-5.69-4.51-9.77-10.41-11.7c-6.44-2.15-12.45,0-15.78,3.22c-3.54-4.19-8.27-5.58-13.74-3.97
		c-5.58,1.61-9.12,5.9-9.12,10.84c-7.73,0.43-12.56,4.51-12.77,10.84c-0.11,3.44,0.97,6.33,3.33,8.37c2.36,2.15,5.9,3.33,9.45,3.11
		c1.82,2.25,4.94,3.76,8.37,4.08c0.32,0,0.75,0,1.07,0c3.11,0,5.9-1.07,7.84-3.01l-1.82-1.82c-1.5,1.61-4.08,2.47-6.87,2.25
		c-2.9-0.21-5.58-1.61-6.98-3.54l-0.43-0.64l-0.75,0.11c-3.11,0.43-6.12-0.54-8.16-2.36c-1.72-1.61-2.58-3.86-2.47-6.44
		c0.21-5.26,4.51-8.37,11.59-8.37h1.5l-0.21-1.4c-0.75-4.94,3.11-8.27,7.19-9.45c4.94-1.4,9.02,0,11.92,4.19l0.97,1.4l1.07-1.29
		c2.15-2.58,7.73-5.69,14.17-3.54c4.94,1.61,7.84,4.94,8.7,9.66l-44.23,6.87l21.47,11.16l-3.54,26.09l19.22-18.68l20.83,9.98
		L89.64,16.35z M51,40.29l-6.01,15.78l3.01-17.39l40.69-21.47L51,40.29z"/>
</g>
</svg>
