<?xml version="1.0" encoding="utf-8"?>
<!-- Generator: Adobe Illustrator 28.1.0, SVG Export Plug-In . SVG Version: 6.00 Build 0)  -->
<svg version="1.1" id="Layer_1" xmlns="http://www.w3.org/2000/svg" xmlns:xlink="http://www.w3.org/1999/xlink" x="0px" y="0px"
	 viewBox="0 0 110.55 76.54" style="enable-background:new 0 0 110.55 76.54;" xml:space="preserve">
<style type="text/css">
	.st0{display:none;}
	.st1{display:inline;fill:none;}
</style>
<g id="Layer_2_00000073722119373351752270000017113015111246931634_" class="st0">
	<line class="st1" x1="-24.13" y1="74.54" x2="142.13" y2="74.54"/>
	<line class="st1" x1="-24.13" y1="2" x2="142.13" y2="2"/>
</g>
<g>
	<path d="M88.09,24.11c-1.57-0.24-3.27-0.48-5.08-0.73c-2.18-0.36-5.45-1.33-7.14-1.94c-0.61-0.24-0.97-0.36-1.33-0.36
		c-3.87-1.09-8.96-4.96-13.43-8.35c-5.57-4.11-9.92-7.5-13.31-7.26c-3.99,0.24-5.69,3.39-7.02,5.81c-1.09,1.94-1.94,3.63-3.75,4.36
		c-3.87,1.57-6.78,0.85-7.5,0.61l-8.23-4.96c-1.45-0.97-6.05-3.87-9.56-2.42c-0.97,0.36-2.54,1.45-2.9,3.99L8.7,13.46
		c-0.36,2.3-0.36,2.3-0.61,4.11c-0.12,1.57-0.48,4.84-1.45,13.31c-0.24,2.06-0.36,4.72-0.12,7.38c0,0.12,0,0.24,0,0.36h0.12
		c0.48,4.96,2.06,9.56,6.17,10.04H94.5c3.39-0.36,9.32-3.51,10.04-13.07C105.03,26.53,98.61,25.56,88.09,24.11z M93.77,43.84
		c-3.51,0.36-77.33,0.36-80.48,0c-0.48-0.12-1.09-1.21-1.57-3.15l86.89-1.33C97.4,42.51,95.23,43.72,93.77,43.84z M40.52,35.61
		c-8.59,0-16.7,0.12-22.39,0.12c-3.03,0-5.32,0.12-6.9,0.12l0,0c0-1.33,0-2.9,0.24-4.48c0.97-8.47,1.33-11.86,1.45-13.43
		c0.12-1.57,0.12-1.57,0.48-3.75l0.12-0.61c0-0.24,0.12-0.36,0.12-0.36c0.73-0.24,3.15,0.73,4.96,1.94l8.59,5.2l0.36,0.24
		c0.24,0.12,4.84,1.82,11.13-0.61c3.51-1.33,4.96-4.24,6.29-6.54c1.21-2.3,1.82-3.15,3.03-3.27c1.45-0.12,5.08,2.42,8.23,4.84
		l-2.78,4.11c-0.73,1.09-0.48,2.66,0.61,3.39c0.36,0.24,0.85,0.36,1.33,0.36c0.73,0,1.57-0.36,2.06-1.09l2.66-3.99
		c1.09,0.85,2.3,1.69,3.39,2.42l-2.42,3.63c-0.73,1.09-0.48,2.66,0.73,3.39c0.36,0.24,0.85,0.36,1.33,0.36
		c0.73,0,1.57-0.36,2.06-1.09l2.42-3.63c1.94,1.09,3.75,2.06,5.57,2.54c0.24,0.12,0.61,0.24,1.21,0.36
		c2.06,0.61,5.45,1.69,7.87,2.18l0,0c1.94,0.24,3.63,0.48,5.2,0.73c10.65,1.57,12.22,2.06,12.22,5.57
		C89.66,35.49,62.55,35.49,40.52,35.61z"/>
	<path d="M15.95,66.18"/>
	<g>
		<polygon points="53.8,51.94 53.79,51.94 47.79,60.56 50.86,60.56 50.86,68.91 50.86,72.87 56.73,72.87 56.73,68.91 56.73,60.56 
			59.8,60.56 		"/>
	</g>
</g>
</svg>
