<?xml version="1.0" encoding="utf-8"?>
<!-- Generator: Adobe Illustrator 28.1.0, SVG Export Plug-In . SVG Version: 6.00 Build 0)  -->
<svg version="1.1" id="Layer_1" xmlns="http://www.w3.org/2000/svg" xmlns:xlink="http://www.w3.org/1999/xlink" x="0px" y="0px"
	 viewBox="0 0 110.55 76.54" style="enable-background:new 0 0 110.55 76.54;" xml:space="preserve">
<style type="text/css">
	.st0{display:none;}
	.st1{display:inline;fill:none;}
	.st2{fill:#808080;}
	.st3{fill:#231F20;}
</style>
<g id="Layer_2_00000073722119373351752270000017113015111246931634_" class="st0">
	<line class="st1" x1="-24.13" y1="74.54" x2="142.13" y2="74.54"/>
	<line class="st1" x1="-24.13" y1="2" x2="142.13" y2="2"/>
</g>
<g>
	<path class="st2" d="M1879.74,2086.84c3.3,0,5.96-2.66,5.96-5.96c0-3.3-2.66-5.96-5.96-5.96c-3.3,0-5.96,2.66-5.96,5.96
		C1873.77,2084.18,1876.43,2086.84,1879.74,2086.84z"/>
	<path class="st2" d="M1886.1,2093.13c5.88-0.81,13.22-2.18,14.43-2.34c1.45-0.24,2.42-1.69,2.18-3.14
		c-0.24-1.45-1.69-2.42-3.14-2.18c-6.53,1.21-17.17,2.9-19.83,2.9c-10.4,0-15.15,6.93-15.31,7.25c-0.64,0.97-0.56,2.18,0.08,3.06
		l4.67,6.61c0.56,0.73,1.37,1.13,2.18,1.13c0.56,0,1.05-0.16,1.53-0.48c0.16-0.08,0.24-0.24,0.4-0.32v1.85l-1.69,19.91
		c-0.16,1.61,1.05,3.06,2.74,3.22c1.61,0.16,3.06-1.05,3.22-2.74l1.61-19.18h1.13l1.61,19.18c0.16,1.53,1.45,2.74,2.98,2.74
		c0.08,0,0.16,0,0.24,0c1.61-0.16,2.9-1.61,2.74-3.22l-1.69-19.91L1886.1,2093.13z M1873.29,2101.83l-3.22-4.59
		c0.73-0.64,1.85-1.53,3.3-2.18L1873.29,2101.83z"/>
</g>
<g>
	<path class="st2" d="M1933.79,2093.61c1.85,0.21,3.48,0.36,4.83,0.36c1.99,0,3.48-0.28,4.48-1.21c0.64-0.57,1.07-1.35,1.07-2.27
		c0.14-2.27-2.49-6.33-7.75-12.01c-0.92-1-2.49-1.07-3.55-0.14c-0.21,0.14-0.28,0.36-0.43,0.57c-0.78-2.35-2.91-3.98-5.55-3.98
		c-2.56,0-4.76,1.71-5.55,3.98c-0.14-0.21-0.28-0.43-0.43-0.57c-1-0.92-2.56-0.85-3.55,0.14c-5.26,5.69-7.89,9.67-7.75,12.01
		c0.07,0.92,0.43,1.71,1.07,2.27c1,0.85,2.49,1.21,4.48,1.21c1.35,0,2.99-0.14,4.83-0.36c0.36,0,0.71-0.07,1-0.07l0.28,12.51
		c0,0.14,0,0.21,0,0.36l-3.55,8.25c-0.36,0.92-0.64,1.85-0.78,2.77l-1.07,10.02c-0.21,1.56,0.92,3.06,2.56,3.27
		c0.14,0,0.21,0,0.36,0c1.42,0,2.7-1.07,2.91-2.56l1.28-10.02c0.07-0.43,0.14-0.85,0.36-1.21l3.77-8.74l3.77,8.74
		c0.14,0.43,0.28,0.78,0.36,1.21l1.28,10.02c0.21,1.56,1.64,2.7,3.27,2.56c1.56-0.21,2.7-1.64,2.56-3.27l-1.28-10.02
		c-0.14-1-0.36-1.92-0.78-2.77l-3.55-8.25c0-0.07,0-0.21,0-0.28l0.28-12.58C1933.15,2093.54,1933.51,2093.54,1933.79,2093.61z
		 M1930.38,2088.35h-6.75c-1.14,0-2.49,0.14-3.91,0.28c-1.14,0.14-2.84,0.28-4.19,0.28c1.14-1.78,3.34-4.55,5.69-7.04
		c0-0.07,0.07-0.07,0.07-0.14c0.5,2.77,2.84,4.83,5.76,4.83c2.91,0,5.26-2.06,5.76-4.83c0,0.07,0.07,0.07,0.07,0.14
		c2.35,2.49,4.55,5.26,5.69,7.04c-1.35,0-3.06-0.21-4.19-0.28C1932.87,2088.49,1931.44,2088.35,1930.38,2088.35z"/>
</g>
<path class="st2" d="M1898.76,2079.8c0.4,0.4,1.05-0.08,0.81-0.56l-2.42-4.92l3.3-0.81c0.32-0.08,0.48-0.4,0.32-0.73l-4.03-7.5
	c-0.08-0.16-0.32-0.32-0.56-0.24l-3.47,0.81c-0.32,0.08-0.48,0.48-0.32,0.81l3.14,4.43l-3.06,0.73c-0.4,0.08-0.48,0.56-0.24,0.81
	L1898.76,2079.8z"/>
<path class="st2" d="M1905.57,2070.13l3.3,0.81l-2.42,4.92c-0.24,0.48,0.4,0.97,0.81,0.56l6.61-7.09c0.24-0.32,0.16-0.73-0.24-0.81
	l-3.06-0.81l3.14-4.43c0.24-0.32,0.08-0.73-0.32-0.81l-3.47-0.81c-0.24-0.08-0.48,0.08-0.56,0.24l-4.03,7.5
	C1905.08,2069.73,1905.32,2070.05,1905.57,2070.13z"/>
<g>
	<path class="st2" d="M2127.3,2077.06c4.13,0,7.45-3.35,7.45-7.45c0-4.13-3.33-7.47-7.45-7.47c-4.13,0-7.47,3.35-7.47,7.47
		C2119.83,2073.72,2123.17,2077.06,2127.3,2077.06L2127.3,2077.06z"/>
	<path class="st2" d="M2156.47,2130.52c-1.76,0-3.47-0.4-4.97-1.06c-1.54-0.72-3.29-1.14-5.11-1.14c-1.8,0-3.55,0.42-5.09,1.14
		c-1.52,0.66-3.21,1.06-4.97,1.06c-1.76,0-3.45-0.4-4.95-1.06c-1.54-0.72-3.29-1.14-5.11-1.14c-1.82,0-3.57,0.42-5.11,1.14
		c-1.5,0.66-3.18,1.06-4.95,1.06c-1.76,0-3.45-0.4-4.97-1.06c-1.54-0.72-3.27-1.14-5.09-1.14c-1.82,0-3.57,0.42-5.11,1.14
		c-1.5,0.66-3.19,1.06-4.95,1.06c-1.74,0-3.43-0.4-4.95-1.06c-1.54-0.72-3.29-1.14-5.09-1.14c-1.82,0-3.57,0.42-5.11,1.14
		c-1.5,0.66-3.19,1.06-4.95,1.06v-7.43c1.76,0,3.45-0.38,4.95-1.06c1.54-0.72,3.29-1.14,5.11-1.14c1.8,0,3.55,0.42,5.09,1.14
		c1.52,0.68,3.21,1.06,4.95,1.06c1.76,0,3.45-0.38,4.95-1.06c1.54-0.72,3.29-1.14,5.11-1.14c1.82,0,3.55,0.42,5.09,1.14
		c1.52,0.68,3.21,1.06,4.97,1.06c1.76,0,3.45-0.38,4.95-1.06c1.54-0.72,3.29-1.14,5.11-1.14c1.82,0,3.57,0.42,5.11,1.14
		c1.5,0.68,3.18,1.06,4.95,1.06c1.76,0,3.45-0.38,4.97-1.06c1.54-0.72,3.29-1.14,5.09-1.14c1.82,0,3.57,0.42,5.11,1.14
		c1.5,0.68,3.21,1.06,4.97,1.06V2130.52z"/>
	<path class="st2" d="M2081.13,2115.71c1.5-0.68,3.17-1.06,4.93-1.06c1.8,0,3.55,0.42,5.09,1.14c1.52,0.66,3.21,1.06,4.95,1.06
		c1.76,0,3.45-0.4,4.95-1.06c1.54-0.72,3.29-1.14,5.11-1.14c1.82,0,3.55,0.42,5.09,1.14c1.52,0.66,3.21,1.06,4.97,1.06
		c1.76,0,3.45-0.4,4.95-1.06c0.98-0.46,2-0.76,3.09-0.96l12.86-14.71h-16.55l6.85-11.76l15.03,8.21c4.97,2.8,8.64-3.67,3.65-6.47
		l-21.52-11.9c-7.92-4.41-11.26,2.91-11.26,2.91l-11.1,18.75l-29.23-0.02C2073.9,2105.2,2078.71,2112.37,2081.13,2115.71
		L2081.13,2115.71z"/>
	<path class="st2" d="M2128.12,2114.79c1.14,0.18,2.24,0.52,3.27,1c1.5,0.66,3.18,1.06,4.95,1.06c1.76,0,3.45-0.4,4.97-1.06
		c1.54-0.72,3.29-1.14,5.09-1.14c1.82,0,3.57,0.42,5.11,1.14c1.5,0.66,3.21,1.06,4.97,1.06l-0.04-16.73l-15.51-0.02L2128.12,2114.79
		z"/>
</g>
<g>
	<path d="M-4780.81,2202.62v-1.51c0-2.38-1.93-4.31-4.31-4.31h-0.32l-2.6-10.41c-0.16-0.64-0.73-1.09-1.39-1.09h-2.88
		c-0.66,0-1.23,0.45-1.39,1.09l-2.6,10.41h-0.32c-2.38,0-4.31,1.93-4.31,4.31v1.51c-2.44,0.35-4.31,2.43-4.31,4.96v9.34v25.87v2.16
		c0,0.4,0.32,0.72,0.72,0.72h1.44c0.4,0,0.72-0.32,0.72-0.72v-0.72h23v5.03c0,1.19-0.97,2.16-2.16,2.16h-18.69
		c-1.19,0-2.16-0.97-2.16-2.16c0-0.4-0.32-0.72-0.72-0.72h-1.44c-0.4,0-0.72,0.32-0.72,0.72c0,2.78,2.25,5.03,5.03,5.03h18.69
		c2.78,0,5.03-2.25,5.03-5.03v-6.47v-25.87v-9.34C-4776.49,2205.05-4778.37,2202.98-4780.81,2202.62z M-4791.18,2188.18h0.63
		l2.16,8.62h-4.94L-4791.18,2188.18z M-4798.05,2201.11c0-0.79,0.64-1.44,1.44-1.44h1.44h8.62h1.44c0.79,0,1.44,0.64,1.44,1.44v1.44
		h-14.37V2201.11z M-4800.21,2205.43h0.72h17.25h0.72c1.19,0,2.16,0.97,2.16,2.16v7.91h-23v-7.91
		C-4802.37,2206.39-4801.4,2205.43-4800.21,2205.43z M-4802.37,2241.36v-23h23v23H-4802.37z"/>
	<path d="M-4787.76,2224.52c0.4-0.13,0.84-0.24,1.37-0.31c0.72-0.09,1.27-0.69,1.27-1.41v-0.03c0-0.84-0.73-1.52-1.57-1.42
		c-1.03,0.13-1.95,0.39-2.75,0.74v-0.85c0-0.79-0.64-1.44-1.44-1.44s-1.44,0.64-1.44,1.44v0.56c-0.95-0.33-1.99-0.47-2.86-0.52
		c-0.79-0.05-1.45,0.57-1.45,1.36v0.16c0,0.72,0.58,1.31,1.3,1.36c0.8,0.05,1.38,0.15,1.81,0.27c-3.69,0.8-5.99,3.31-5.99,6.89
		c0,4.76,3.86,8.62,8.62,8.62c4.76,0,8.62-3.86,8.62-8.62C-4782.24,2227.88-4784.34,2225.43-4787.76,2224.52z M-4790.87,2237.05
		c-3.18,0-5.75-2.57-5.75-5.75c0-3.89,4.02-4.31,5.75-4.31c1.73,0,5.75,0.42,5.75,4.31
		C-4785.12,2234.47-4787.69,2237.05-4790.87,2237.05z"/>
</g>
<g>
	<path class="st3" d="M62.56,35.47c-0.54-1.45-1.81-2.62-3.25-3.07c-1.18,0.72-2.53,1.08-3.98,1.08c-1.45,0-2.8-0.36-3.98-1.08
		c-1.45,0.45-2.71,1.63-3.25,3.07L43.94,46.4c-0.45,1.08,0.18,2.35,1.27,2.8c1.08,0.45,2.35-0.18,2.8-1.27l2.08-5.6v6.78l-1.63,20.7
		c-0.09,1.45,0.99,2.71,2.44,2.89c0.09,0,0.18,0,0.18,0c1.36,0,2.53-1.08,2.62-2.44l1.54-19.07l1.54,19.07
		c0.09,1.36,1.27,2.44,2.62,2.44c0.09,0,0.18,0,0.18,0c1.45-0.09,2.53-1.45,2.44-2.89l-1.54-20.7v-6.78l2.08,5.6
		c0.36,0.9,1.18,1.45,1.99,1.45c0.27,0,0.54-0.09,0.72-0.18c1.08-0.45,1.72-1.72,1.27-2.8L62.56,35.47z"/>
	<circle class="st3" cx="55.33" cy="25.8" r="5.88"/>
	<path class="st3" d="M36.98,23.45c-0.81-2.08-2.62-3.71-4.79-4.16c-1.45,0.81-3.07,1.27-4.79,1.27s-3.34-0.45-4.79-1.27
		c-2.17,0.54-3.98,2.08-4.79,4.16l-5.42,14.46c-0.54,1.45,0.18,3.16,1.63,3.71c1.45,0.54,3.16-0.18,3.71-1.63l2.8-7.41v8.95
		l-2.17,27.39c-0.18,1.9,1.27,3.62,3.25,3.8c0.09,0,0.18,0,0.27,0c1.81,0,3.34-1.36,3.53-3.25l1.99-25.22l1.99,25.22
		c0.18,1.81,1.72,3.25,3.53,3.25c0.09,0,0.18,0,0.27,0c1.9-0.18,3.34-1.9,3.25-3.8l-2.17-27.39v-8.95l2.8,7.41
		c0.45,1.18,1.54,1.9,2.71,1.9c0.36,0,0.72-0.09,0.99-0.18c1.45-0.54,2.26-2.26,1.63-3.71L36.98,23.45z"/>
	<circle class="st3" cx="27.4" cy="10.88" r="7.05"/>
	<path class="st3" d="M97.81,37.82l-6.78-15.37c-0.63-1.54-1.99-2.62-3.53-2.98c-1.36,0.72-2.89,1.18-4.52,1.18
		c-1.63,0-3.16-0.45-4.52-1.18c-1.54,0.45-2.89,1.54-3.53,2.98l-6.78,15.37c-0.63,1.36,0,2.98,1.45,3.62c1.36,0.63,2.98,0,3.62-1.45
		l3.07-7.05v4.16l-4.88,16.81c-0.27,0.9-0.09,1.81,0.45,2.53s1.36,1.18,2.26,1.18h0.9l-0.9,11.3c-0.18,1.9,1.27,3.53,3.07,3.62
		c0.09,0,0.18,0,0.27,0c1.72,0,3.25-1.36,3.34-3.16l0.99-11.84h2.44l0.99,11.84c0.18,1.81,1.63,3.16,3.34,3.16c0.09,0,0.18,0,0.27,0
		c1.9-0.18,3.25-1.81,3.07-3.62l-0.9-11.3h0.81c0.9,0,1.72-0.45,2.26-1.18s0.72-1.63,0.45-2.53l-4.88-16.81v-4.16l3.07,7.05
		c0.45,0.99,1.45,1.63,2.53,1.63c0.36,0,0.72-0.09,1.08-0.27C97.81,40.8,98.44,39.17,97.81,37.82z"/>
	<circle class="st3" cx="82.99" cy="10.88" r="7.05"/>
</g>
<polyline class="st3" points="59.37,18.52 67.7,15.77 65,13.89 70.85,5.51 67.61,3.25 61.76,11.64 59.07,9.76 59.37,18.52 "/>
</svg>
