<?xml version="1.0" encoding="utf-8"?>
<!-- Generator: Adobe Illustrator 28.1.0, SVG Export Plug-In . SVG Version: 6.00 Build 0)  -->
<svg version="1.1" id="Layer_1" xmlns="http://www.w3.org/2000/svg" xmlns:xlink="http://www.w3.org/1999/xlink" x="0px" y="0px"
	 viewBox="0 0 110.55 76.54" style="enable-background:new 0 0 110.55 76.54;" xml:space="preserve">
<style type="text/css">
	.st0{display:none;}
	.st1{display:inline;fill:none;}
	.st2{fill:#808080;}
</style>
<g id="Layer_2_00000073722119373351752270000017113015111246931634_" class="st0">
	<line class="st1" x1="-24.13" y1="74.54" x2="142.13" y2="74.54"/>
	<line class="st1" x1="-24.13" y1="2" x2="142.13" y2="2"/>
</g>
<g>
	<path class="st2" d="M1879.74,2086.84c3.3,0,5.96-2.66,5.96-5.96c0-3.3-2.66-5.96-5.96-5.96c-3.3,0-5.96,2.66-5.96,5.96
		C1873.77,2084.18,1876.43,2086.84,1879.74,2086.84z"/>
	<path class="st2" d="M1886.1,2093.13c5.88-0.81,13.22-2.18,14.43-2.34c1.45-0.24,2.42-1.69,2.18-3.14
		c-0.24-1.45-1.69-2.42-3.14-2.18c-6.53,1.21-17.17,2.9-19.83,2.9c-10.4,0-15.15,6.93-15.31,7.25c-0.64,0.97-0.56,2.18,0.08,3.06
		l4.67,6.61c0.56,0.73,1.37,1.13,2.18,1.13c0.56,0,1.05-0.16,1.53-0.48c0.16-0.08,0.24-0.24,0.4-0.32v1.85l-1.69,19.91
		c-0.16,1.61,1.05,3.06,2.74,3.22c1.61,0.16,3.06-1.05,3.22-2.74l1.61-19.18h1.13l1.61,19.18c0.16,1.53,1.45,2.74,2.98,2.74
		c0.08,0,0.16,0,0.24,0c1.61-0.16,2.9-1.61,2.74-3.22l-1.69-19.91L1886.1,2093.13z M1873.29,2101.83l-3.22-4.59
		c0.73-0.64,1.85-1.53,3.3-2.18L1873.29,2101.83z"/>
</g>
<g>
	<path class="st2" d="M1933.79,2093.61c1.85,0.21,3.48,0.36,4.83,0.36c1.99,0,3.48-0.28,4.48-1.21c0.64-0.57,1.07-1.35,1.07-2.27
		c0.14-2.27-2.49-6.33-7.75-12.01c-0.92-1-2.49-1.07-3.55-0.14c-0.21,0.14-0.28,0.36-0.43,0.57c-0.78-2.35-2.91-3.98-5.55-3.98
		c-2.56,0-4.76,1.71-5.55,3.98c-0.14-0.21-0.28-0.43-0.43-0.57c-1-0.92-2.56-0.85-3.55,0.14c-5.26,5.69-7.89,9.67-7.75,12.01
		c0.07,0.92,0.43,1.71,1.07,2.27c1,0.85,2.49,1.21,4.48,1.21c1.35,0,2.99-0.14,4.83-0.36c0.36,0,0.71-0.07,1-0.07l0.28,12.51
		c0,0.14,0,0.21,0,0.36l-3.55,8.25c-0.36,0.92-0.64,1.85-0.78,2.77l-1.07,10.02c-0.21,1.56,0.92,3.06,2.56,3.27
		c0.14,0,0.21,0,0.36,0c1.42,0,2.7-1.07,2.91-2.56l1.28-10.02c0.07-0.43,0.14-0.85,0.36-1.21l3.77-8.74l3.77,8.74
		c0.14,0.43,0.28,0.78,0.36,1.21l1.28,10.02c0.21,1.56,1.64,2.7,3.27,2.56c1.56-0.21,2.7-1.64,2.56-3.27l-1.28-10.02
		c-0.14-1-0.36-1.92-0.78-2.77l-3.55-8.25c0-0.07,0-0.21,0-0.28l0.28-12.58C1933.15,2093.54,1933.51,2093.54,1933.79,2093.61z
		 M1930.38,2088.35h-6.75c-1.14,0-2.49,0.14-3.91,0.28c-1.14,0.14-2.84,0.28-4.19,0.28c1.14-1.78,3.34-4.55,5.69-7.04
		c0-0.07,0.07-0.07,0.07-0.14c0.5,2.77,2.84,4.83,5.76,4.83c2.91,0,5.26-2.06,5.76-4.83c0,0.07,0.07,0.07,0.07,0.14
		c2.35,2.49,4.55,5.26,5.69,7.04c-1.35,0-3.06-0.21-4.19-0.28C1932.87,2088.49,1931.44,2088.35,1930.38,2088.35z"/>
</g>
<path class="st2" d="M1898.76,2079.8c0.4,0.4,1.05-0.08,0.81-0.56l-2.42-4.92l3.3-0.81c0.32-0.08,0.48-0.4,0.32-0.73l-4.03-7.5
	c-0.08-0.16-0.32-0.32-0.56-0.24l-3.47,0.81c-0.32,0.08-0.48,0.48-0.32,0.81l3.14,4.43l-3.06,0.73c-0.4,0.08-0.48,0.56-0.24,0.81
	L1898.76,2079.8z"/>
<path class="st2" d="M1905.57,2070.13l3.3,0.81l-2.42,4.92c-0.24,0.48,0.4,0.97,0.81,0.56l6.61-7.09c0.24-0.32,0.16-0.73-0.24-0.81
	l-3.06-0.81l3.14-4.43c0.24-0.32,0.08-0.73-0.32-0.81l-3.47-0.81c-0.24-0.08-0.48,0.08-0.56,0.24l-4.03,7.5
	C1905.08,2069.73,1905.32,2070.05,1905.57,2070.13z"/>
<g>
	<path class="st2" d="M2127.3,2077.06c4.13,0,7.45-3.35,7.45-7.45c0-4.13-3.33-7.47-7.45-7.47c-4.13,0-7.47,3.35-7.47,7.47
		C2119.83,2073.72,2123.17,2077.06,2127.3,2077.06L2127.3,2077.06z"/>
	<path class="st2" d="M2156.47,2130.52c-1.76,0-3.47-0.4-4.97-1.06c-1.54-0.72-3.29-1.14-5.11-1.14c-1.8,0-3.55,0.42-5.09,1.14
		c-1.52,0.66-3.21,1.06-4.97,1.06c-1.76,0-3.45-0.4-4.95-1.06c-1.54-0.72-3.29-1.14-5.11-1.14c-1.82,0-3.57,0.42-5.11,1.14
		c-1.5,0.66-3.18,1.06-4.95,1.06c-1.76,0-3.45-0.4-4.97-1.06c-1.54-0.72-3.27-1.14-5.09-1.14c-1.82,0-3.57,0.42-5.11,1.14
		c-1.5,0.66-3.19,1.06-4.95,1.06c-1.74,0-3.43-0.4-4.95-1.06c-1.54-0.72-3.29-1.14-5.09-1.14c-1.82,0-3.57,0.42-5.11,1.14
		c-1.5,0.66-3.19,1.06-4.95,1.06v-7.43c1.76,0,3.45-0.38,4.95-1.06c1.54-0.72,3.29-1.14,5.11-1.14c1.8,0,3.55,0.42,5.09,1.14
		c1.52,0.68,3.21,1.06,4.95,1.06c1.76,0,3.45-0.38,4.95-1.06c1.54-0.72,3.29-1.14,5.11-1.14c1.82,0,3.55,0.42,5.09,1.14
		c1.52,0.68,3.21,1.06,4.97,1.06c1.76,0,3.45-0.38,4.95-1.06c1.54-0.72,3.29-1.14,5.11-1.14c1.82,0,3.57,0.42,5.11,1.14
		c1.5,0.68,3.18,1.06,4.95,1.06c1.76,0,3.45-0.38,4.97-1.06c1.54-0.72,3.29-1.14,5.09-1.14c1.82,0,3.57,0.42,5.11,1.14
		c1.5,0.68,3.21,1.06,4.97,1.06V2130.52z"/>
	<path class="st2" d="M2081.13,2115.71c1.5-0.68,3.17-1.06,4.93-1.06c1.8,0,3.55,0.42,5.09,1.14c1.52,0.66,3.21,1.06,4.95,1.06
		c1.76,0,3.45-0.4,4.95-1.06c1.54-0.72,3.29-1.14,5.11-1.14c1.82,0,3.55,0.42,5.09,1.14c1.52,0.66,3.21,1.06,4.97,1.06
		c1.76,0,3.45-0.4,4.95-1.06c0.98-0.46,2-0.76,3.09-0.96l12.86-14.71h-16.55l6.85-11.76l15.03,8.21c4.97,2.8,8.64-3.67,3.65-6.47
		l-21.52-11.9c-7.92-4.41-11.26,2.91-11.26,2.91l-11.1,18.75l-29.23-0.02C2073.9,2105.2,2078.71,2112.37,2081.13,2115.71
		L2081.13,2115.71z"/>
	<path class="st2" d="M2128.12,2114.79c1.14,0.18,2.24,0.52,3.27,1c1.5,0.66,3.18,1.06,4.95,1.06c1.76,0,3.45-0.4,4.97-1.06
		c1.54-0.72,3.29-1.14,5.09-1.14c1.82,0,3.57,0.42,5.11,1.14c1.5,0.66,3.21,1.06,4.97,1.06l-0.04-16.73l-15.51-0.02L2128.12,2114.79
		z"/>
</g>
<g>
	<path d="M-4780.81,2202.62v-1.51c0-2.38-1.93-4.31-4.31-4.31h-0.32l-2.6-10.41c-0.16-0.64-0.73-1.09-1.39-1.09h-2.88
		c-0.66,0-1.23,0.45-1.39,1.09l-2.6,10.41h-0.32c-2.38,0-4.31,1.93-4.31,4.31v1.51c-2.44,0.35-4.31,2.43-4.31,4.96v9.34v25.87v2.16
		c0,0.4,0.32,0.72,0.72,0.72h1.44c0.4,0,0.72-0.32,0.72-0.72v-0.72h23v5.03c0,1.19-0.97,2.16-2.16,2.16h-18.69
		c-1.19,0-2.16-0.97-2.16-2.16c0-0.4-0.32-0.72-0.72-0.72h-1.44c-0.4,0-0.72,0.32-0.72,0.72c0,2.78,2.25,5.03,5.03,5.03h18.69
		c2.78,0,5.03-2.25,5.03-5.03v-6.47v-25.87v-9.34C-4776.49,2205.05-4778.37,2202.98-4780.81,2202.62z M-4791.18,2188.18h0.63
		l2.16,8.62h-4.94L-4791.18,2188.18z M-4798.05,2201.11c0-0.79,0.64-1.44,1.44-1.44h1.44h8.62h1.44c0.79,0,1.44,0.64,1.44,1.44v1.44
		h-14.37V2201.11z M-4800.21,2205.43h0.72h17.25h0.72c1.19,0,2.16,0.97,2.16,2.16v7.91h-23v-7.91
		C-4802.37,2206.39-4801.4,2205.43-4800.21,2205.43z M-4802.37,2241.36v-23h23v23H-4802.37z"/>
	<path d="M-4787.76,2224.52c0.4-0.13,0.84-0.24,1.37-0.31c0.72-0.09,1.27-0.69,1.27-1.41v-0.03c0-0.84-0.73-1.52-1.57-1.42
		c-1.03,0.13-1.95,0.39-2.75,0.74v-0.85c0-0.79-0.64-1.44-1.44-1.44s-1.44,0.64-1.44,1.44v0.56c-0.95-0.33-1.99-0.47-2.86-0.52
		c-0.79-0.05-1.45,0.57-1.45,1.36v0.16c0,0.72,0.58,1.31,1.3,1.36c0.8,0.05,1.38,0.15,1.81,0.27c-3.69,0.8-5.99,3.31-5.99,6.89
		c0,4.76,3.86,8.62,8.62,8.62c4.76,0,8.62-3.86,8.62-8.62C-4782.24,2227.88-4784.34,2225.43-4787.76,2224.52z M-4790.87,2237.05
		c-3.18,0-5.75-2.57-5.75-5.75c0-3.89,4.02-4.31,5.75-4.31c1.73,0,5.75,0.42,5.75,4.31
		C-4785.12,2234.47-4787.69,2237.05-4790.87,2237.05z"/>
</g>
<g>
	<g>
		<path d="M2.55,50.39c0.14-0.15,0.31-0.24,0.5-0.3c0.43-0.13,0.85-0.26,1.28-0.39c0.02-0.01,0.05-0.02,0.06-0.03
			c0.07-0.17,0.17-0.34,0.08-0.54c-0.16-0.35-0.28-0.71-0.36-1.09c-0.04-0.19-0.15-0.36-0.25-0.53c-0.25-0.44-0.42-0.89-0.32-1.4
			c0.07-0.34,0.23-0.63,0.45-0.89c0.26-0.32,0.54-0.62,0.85-0.9c0.72-0.66,1.48-1.26,2.31-1.77c0.34-0.21,0.71-0.39,1.07-0.57
			c0.09-0.05,0.12-0.1,0.07-0.2c-0.07-0.17-0.15-0.34-0.2-0.52c-0.12-0.38,0-0.73,0.16-1.06c0.17-0.36,0.43-0.64,0.75-0.88
			c0.15-0.11,0.3-0.2,0.47-0.31c-0.08-0.11-0.17-0.24-0.27-0.36c-0.14-0.19-0.3-0.37-0.41-0.58c-0.1-0.19-0.17-0.41-0.19-0.62
			C8.55,37,8.77,36.69,9.15,36.51c0.29-0.14,0.6-0.25,0.91-0.32c1.17-0.26,2.36-0.5,3.53-0.76c0.17-0.04,0.33-0.13,0.48-0.2
			c0.02-0.01,0.04-0.08,0.03-0.12c-0.07-0.5-0.17-1-0.22-1.5c-0.07-0.65,0.17-1.2,0.6-1.67c0.03-0.03,0.05-0.06,0.08-0.08
			c0.34-0.3,0.54-0.68,0.68-1.11c0.24-0.76,0.74-1.3,1.43-1.67c0.55-0.29,1.14-0.46,1.75-0.56c0.35-0.06,0.7-0.11,1.09-0.17
			c-0.13-0.14-0.24-0.28-0.36-0.4c-0.41-0.43-0.46-0.93-0.35-1.49c0.18-0.91,0.63-1.66,1.21-2.36c0.39-0.47,0.82-0.91,1.31-1.27
			c0.18-0.14,0.37-0.28,0.58-0.43c-0.21-0.16-0.4-0.3-0.6-0.44c-0.27-0.19-0.48-0.44-0.47-0.78c0-0.17,0.06-0.36,0.14-0.51
			c0.29-0.54,0.7-0.99,1.15-1.4c0.66-0.61,1.38-1.13,2.13-1.63c0.61-0.41,1.23-0.79,1.84-1.19c0.31-0.2,0.6-0.44,0.91-0.64
			c0.73-0.47,1.53-0.66,2.4-0.53c1.1,0.17,2.18,0.4,3.24,0.73c1.52,0.48,2.94,1.16,4.2,2.16c0.83,0.66,1.63,1.33,2.29,2.17
			c0.33,0.43,0.6,0.89,0.71,1.43c0.09,0.44,0.05,0.86-0.25,1.22c-0.15,0.18-0.3,0.35-0.47,0.53c0.05,0.02,0.1,0.03,0.15,0.05
			c0.47,0.21,0.96,0.39,1.38,0.69c0.36,0.26,0.69,0.56,0.84,1c0.06,0.18,0.08,0.38,0.09,0.57c0.02,0.23,0.01,0.46,0,0.7
			c0,0.13,0.05,0.2,0.18,0.23c0.17,0.05,0.34,0.11,0.51,0.18c0.4,0.17,0.61,0.49,0.59,0.91c-0.01,0.38-0.1,0.77-0.15,1.15
			c0,0.02-0.01,0.03-0.01,0.05c-0.05,0.25-0.03,0.3,0.23,0.36c0.39,0.09,0.78,0.17,1.17,0.26c0.87,0.2,1.52,0.71,2.01,1.44
			c0.47,0.7,0.8,1.47,1.13,2.24c0.14,0.32,0.26,0.66,0.38,0.99c0.19,0.47,0.1,0.9-0.21,1.3c-0.26,0.33-0.58,0.59-0.93,0.82
			c-0.19,0.13-0.39,0.25-0.58,0.38c-0.32,0.21-0.47,0.48-0.45,0.88c0.05,0.76-0.21,1.43-0.65,2.04c-0.08,0.11-0.14,0.23-0.21,0.34
			c-0.13,0.19-0.15,0.39-0.08,0.6c0.22,0.64,0.57,1.2,1.15,1.58c0.45,0.3,0.93,0.37,1.45,0.16c0.42-0.17,0.84-0.33,1.28-0.44
			c0.64-0.17,1.29-0.16,1.91,0.08c0.85,0.33,1.34,0.97,1.49,1.86c0.12,0.7,0,1.37-0.33,2c-0.02,0.04-0.03,0.08-0.05,0.12
			c0.2,0.1,0.4,0.18,0.59,0.28c0.53,0.28,1.01,0.63,1.35,1.14c0.1,0.15,0.18,0.23,0.39,0.24c0.25,0.01,0.51,0.22,0.44,0.59
			c-0.02,0.13-0.06,0.26-0.1,0.39c-0.09,0.29-0.1,0.58-0.07,0.88c0.07,0.68,0.06,1.35-0.19,2c-0.27,0.72-0.7,1.33-1.36,1.75
			c-0.41,0.26-0.85,0.36-1.33,0.38c-0.75,0.04-1.51,0.14-2.26,0.21c-0.61,0.06-1.21,0.14-1.82,0.18c-0.46,0.03-0.9-0.07-1.34-0.21
			c-0.22-0.07-0.45-0.11-0.68-0.11c-0.72-0.02-1.45-0.01-2.17-0.03c-0.25-0.01-0.44,0.07-0.57,0.29c-0.06,0.1-0.15,0.19-0.23,0.27
			c-0.24,0.23-0.51,0.36-0.86,0.35c-0.95-0.03-1.9-0.04-2.85-0.07c-0.25-0.01-0.51-0.03-0.76-0.05c-0.8-0.07-1.57,0.02-2.35,0.19
			c-1.26,0.28-2.53,0.5-3.79,0.75c-0.74,0.15-1.47,0.33-2.2,0.5c-1.13,0.26-2.27,0.48-3.43,0.45c-0.72-0.02-1.43-0.08-2.13-0.3
			c-0.7-0.22-1.42-0.28-2.14-0.4c-0.93-0.16-1.86-0.3-2.79-0.46c-1.04-0.18-2.06-0.43-3.05-0.81c-0.04-0.02-0.08-0.02-0.12-0.05
			c-0.36-0.23-0.76-0.22-1.16-0.24c-1.07-0.04-2.14-0.05-3.21,0.02c-1.18,0.07-2.36,0.17-3.54,0.27c-1.26,0.1-2.52,0.16-3.78,0.04
			c-0.15-0.01-0.29-0.05-0.43-0.07c-0.36-0.05-0.56-0.28-0.65-0.61c-0.08-0.27-0.16-0.54-0.23-0.81
			C2.55,52.15,2.55,51.27,2.55,50.39z M10.14,37.55c0.13,0.17,0.24,0.33,0.37,0.47c0.06,0.06,0.14,0.11,0.23,0.14
			c0.14,0.04,0.29,0.07,0.44,0.09c1.2,0.17,2.39,0.36,3.56,0.65c0.73,0.18,1.47,0.37,2.19,0.6c1.05,0.33,2.04,0.81,3,1.34
			c0.12,0.06,0.24,0.12,0.36,0.18c0.11,0.05,0.15,0.02,0.16-0.1c0-0.06-0.01-0.13-0.01-0.19c0-0.21-0.01-0.43,0.01-0.64
			c0.02-0.21,0.09-0.39,0.29-0.5c0.36-0.2,0.89,0.02,0.91,0.5c0.01,0.39,0.02,0.78,0.06,1.17c0.04,0.42,0.08,0.85,0.16,1.26
			c0.05,0.27,0.17,0.52,0.43,0.69c0.32,0.19,0.64,0.23,0.98,0.12c0.54-0.16,1.08-0.33,1.6-0.53c0.89-0.33,1.76-0.68,2.59-1.14
			c0.91-0.51,1.66-1.2,2.32-2c0.3-0.36,0.59-0.72,0.94-1.02c0.73-0.63,1.68-0.42,2.26,0.17c0.29,0.3,0.45,0.66,0.46,1.08
			c0.01,0.21,0.01,0.21,0.23,0.22c0.98,0.05,1.94,0.2,2.83,0.62c0.75,0.35,1.49,0.74,2.23,1.13c1.29,0.69,2.54,1.45,3.72,2.31
			c0.46,0.33,0.95,0.63,1.47,0.86c0.94,0.4,1.93,0.58,2.94,0.7c0.9,0.11,1.81,0.14,2.72,0.14c0.18,0,0.3-0.05,0.39-0.2
			c0.01-0.02,0.02-0.04,0.04-0.05c0.28-0.42,0.45-0.87,0.38-1.38c-0.07-0.48-0.35-0.8-0.82-0.89c-0.2-0.04-0.42-0.05-0.63-0.03
			c-0.43,0.03-0.81,0.21-1.21,0.36c-0.45,0.17-0.9,0.29-1.38,0.25c-0.88-0.07-1.59-0.49-2.2-1.1c-0.42-0.42-0.71-0.94-0.93-1.49
			c-0.09-0.23-0.23-0.36-0.48-0.4c-0.43-0.07-0.84-0.2-1.21-0.42c-0.22-0.13-0.44-0.27-0.67-0.39c-0.76-0.4-1.59-0.55-2.42-0.7
			c-0.93-0.16-1.83-0.43-2.67-0.87c-0.73-0.38-1.46-0.75-2.2-1.1c-0.66-0.31-1.35-0.47-2.08-0.4c-0.36,0.03-0.72,0.13-1.07,0.23
			c-1.07,0.3-2.09,0.74-3.05,1.3c-0.28,0.17-0.55,0.35-0.86,0.46c-0.27,0.09-0.55,0.14-0.84,0.1c-0.56-0.06-1.08-0.26-1.58-0.52
			c-1-0.51-2.04-0.92-3.11-1.28c-1.12-0.39-2.25-0.65-3.43-0.73c-1.31-0.09-2.6,0.01-3.89,0.25c-0.82,0.15-1.64,0.34-2.46,0.51
			C10.85,37.41,10.52,37.48,10.14,37.55z M45.17,46.79c0.26,0.3,0.59,0.49,0.91,0.69c0.46,0.29,0.93,0.57,1.37,0.89
			c0.41,0.3,0.82,0.58,1.29,0.78c0.17,0.08,0.34,0.19,0.48,0.32c0.22,0.2,0.24,0.48,0.08,0.75c-0.13,0.22-0.36,0.31-0.64,0.21
			c-0.23-0.08-0.46-0.18-0.67-0.3c-0.78-0.44-1.55-0.89-2.33-1.34c-0.42-0.24-0.83-0.5-1.17-0.84c-0.46-0.47-0.93-0.93-1.38-1.41
			c-1.06-1.11-2.26-2.03-3.6-2.76c-1.02-0.56-2.07-1.09-3.1-1.63c-0.75-0.39-1.56-0.62-2.4-0.68c-0.4-0.03-0.81-0.04-1.21-0.07
			c-0.23-0.02-0.47-0.05-0.7-0.12c-0.24-0.08-0.41-0.25-0.44-0.52c-0.03-0.27,0.05-0.48,0.3-0.62c0.03-0.02,0.07-0.03,0.09-0.05
			c0.03-0.04,0.07-0.09,0.06-0.13c-0.03-0.14-0.1-0.26-0.24-0.32c-0.12-0.05-0.22,0.03-0.3,0.1c-0.15,0.14-0.29,0.28-0.42,0.44
			c-0.78,0.96-1.61,1.86-2.69,2.47c0,0,0.01,0.01,0.01,0.01c0.89,0.18,1.79,0.35,2.68,0.53c0.79,0.16,1.56,0.38,2.29,0.74
			c0.94,0.46,1.76,1.09,2.56,1.76c0.14,0.11,0.3,0.21,0.46,0.27c0.55,0.2,1.11,0.38,1.66,0.58c1.07,0.38,2.08,0.87,3.01,1.52
			c0.85,0.6,1.54,1.35,2.22,2.13c0.33,0.37,0.65,0.75,0.99,1.11c0.41,0.43,0.86,0.81,1.39,1.08c0.65,0.33,1.34,0.38,2.05,0.3
			c1.18-0.14,2.36-0.3,3.56-0.35c0.1,0,0.21-0.05,0.3-0.1c0.38-0.24,0.64-0.59,0.82-1c0.24-0.54,0.29-1.11,0.22-1.69
			c-0.04-0.31-0.05-0.62-0.2-0.9c-0.32-0.57-0.76-1.02-1.36-1.31c-0.4-0.19-0.8-0.3-1.25-0.21c-0.12,0.02-0.24,0.04-0.36,0.05
			c-1.19,0.03-2.38-0.04-3.56-0.22C45.66,46.9,45.42,46.84,45.17,46.79z M8.39,43.43c-0.15,0.08-0.32,0.16-0.48,0.26
			c-0.64,0.36-1.21,0.84-1.77,1.31c-0.39,0.32-0.77,0.65-1.07,1.06c-0.09,0.12-0.13,0.24-0.11,0.38c0.03,0.33,0.18,0.61,0.32,0.89
			c0.15,0.29,0.27,0.59,0.33,0.92c0.04,0.24,0.14,0.45,0.33,0.61c0.41,0.36,0.77,0.77,1.11,1.21c0.13,0.17,0.25,0.21,0.45,0.12
			c0.6-0.26,1.18-0.57,1.68-0.99c0.48-0.41,0.93-0.85,1.43-1.23c0.6-0.46,1.24-0.87,1.86-1.3c0.94-0.63,1.88-1.26,2.96-1.64
			c0.64-0.23,1.3-0.39,1.98-0.35c0.58,0.03,1.17,0.09,1.74,0.22c1.12,0.24,2.23,0.53,3.34,0.82c0.83,0.21,1.66,0.45,2.49,0.68
			c0.91,0.25,1.81,0.51,2.72,0.77c0.29,0.08,0.58,0.09,0.87,0c0.7-0.21,1.4-0.44,2.09-0.71c0.9-0.35,1.86-0.45,2.81-0.53
			c0.15-0.01,0.3,0,0.49,0c-0.06-0.05-0.08-0.08-0.11-0.1c-0.47-0.37-0.99-0.66-1.56-0.85c-0.64-0.21-1.29-0.4-1.96-0.55
			c-1.08-0.23-2.18-0.41-3.27-0.62c-0.52-0.1-1.02-0.05-1.52,0.16c-0.45,0.19-0.9,0.37-1.35,0.54c-0.5,0.19-1.03,0.25-1.56,0.22
			c-0.42-0.02-0.83-0.08-1.25-0.12c-0.49-0.05-0.7-0.34-0.61-0.82c0.02-0.09,0-0.15-0.07-0.22c-0.23-0.21-0.49-0.34-0.79-0.41
			c-0.66-0.15-1.33-0.2-1.99-0.24c-1.39-0.08-2.76,0.01-4.12,0.3c-1.13,0.24-2.19,0.66-3.26,1.06c-0.24,0.09-0.48,0.19-0.72,0.22
			c-0.46,0.05-0.82-0.18-1.1-0.54C8.6,43.8,8.51,43.62,8.39,43.43z M17.48,32.07c-0.69-0.01-1.2,0.12-1.66,0.48
			c-0.45,0.35-0.58,0.82-0.52,1.35c0.03,0.32,0.11,0.64,0.17,0.96c0.06,0.33,0.06,0.33,0.4,0.32c1.06-0.03,2.12-0.04,3.16,0.19
			c0.67,0.14,1.34,0.32,1.99,0.52c1.07,0.33,2.09,0.76,3.11,1.22c0.32,0.15,0.63,0.33,0.97,0.46c0.43,0.17,0.88,0.19,1.31-0.04
			c0.3-0.16,0.61-0.31,0.92-0.47c1.01-0.54,2.04-1.01,3.16-1.27c0.93-0.22,1.84-0.21,2.75,0.08c0.96,0.31,1.87,0.73,2.74,1.23
			c0.92,0.53,1.89,0.86,2.92,1.03c0.81,0.14,1.6,0.33,2.35,0.67c0.47,0.21,0.95,0.42,1.36,0.74c0.19,0.15,0.29,0.16,0.5,0.04
			c0.08-0.05,0.16-0.1,0.23-0.17c0.38-0.4,0.63-0.87,0.76-1.4c0.03-0.11,0-0.19-0.05-0.28c-0.16-0.25-0.38-0.45-0.62-0.63
			c-0.51-0.4-1.12-0.58-1.72-0.77c-0.7-0.22-1.42-0.4-2.12-0.64c-0.9-0.31-1.79-0.66-2.68-1.01c-0.89-0.34-1.81-0.51-2.76-0.5
			c-0.95,0-1.89,0.03-2.83,0.18c-0.68,0.11-1.37,0.23-2.03,0.41c-0.68,0.19-1.33,0.47-2,0.7c-0.37,0.13-0.74,0.25-1.12,0.35
			c-0.26,0.06-0.54,0.08-0.75-0.13c-0.1-0.1-0.2-0.2-0.28-0.32c-0.13-0.17-0.28-0.28-0.49-0.32c-0.95-0.22-1.85-0.57-2.68-1.08
			c-0.65-0.4-1.3-0.8-1.96-1.17C19.18,32.32,18.29,32.09,17.48,32.07z M10.08,50.31c0.01,0.01,0.02,0.02,0.02,0.02
			c0.43,0.02,0.87,0.04,1.3,0.05c0.22,0,0.42-0.04,0.63-0.12c0.44-0.19,0.84-0.06,1.12,0.33c0.05,0.07,0.1,0.14,0.14,0.21
			c0.45,0.7,1.01,1.29,1.7,1.75c1.01,0.67,2.13,1.05,3.31,1.26c0.77,0.14,1.55,0.26,2.33,0.39c0.76,0.12,1.53,0.24,2.29,0.37
			c0.2,0.03,0.3,0,0.42-0.18c0.27-0.43,0.55-0.86,0.95-1.18c0.55-0.45,1.18-0.75,1.82-1.04c1-0.44,2.04-0.79,3.09-1.11
			c0.97-0.29,1.94-0.54,2.93-0.78c0.79-0.19,1.58-0.32,2.37-0.5c0.28-0.06,0.58-0.12,0.79-0.36c0.36-0.41,0.64-0.86,0.86-1.36
			c0.02-0.04,0.03-0.11,0.01-0.14c-0.05-0.09-0.12-0.17-0.19-0.24c-0.21-0.2-0.49-0.27-0.76-0.28c-0.57-0.03-1.13-0.05-1.7-0.03
			c-0.72,0.02-1.44,0.1-2.13,0.31c-0.76,0.23-1.51,0.47-2.25,0.75c-0.57,0.21-1.12,0.47-1.67,0.72c-0.99,0.44-1.97,0.91-2.98,1.33
			c-1.64,0.69-3.31,1.31-5.02,1.82c-0.6,0.18-1.21,0.34-1.82,0.49c-0.64,0.16-1.18-0.04-1.66-0.48c-0.69-0.63-1.39-1.26-2.09-1.89
			c-0.62-0.55-1.27-1.07-2.01-1.46c-0.13-0.07-0.22-0.08-0.33,0.02c-0.32,0.28-0.65,0.55-0.97,0.83
			C10.42,49.99,10.25,50.16,10.08,50.31z M28.95,16.62c-0.44,0-0.82,0.09-1.16,0.31c-0.37,0.24-0.72,0.51-1.1,0.75
			c-1.03,0.66-2.06,1.31-3.03,2.05c-0.43,0.33-0.86,0.67-1.2,1.11c-0.06,0.07-0.06,0.14-0.01,0.19c0.09,0.1,0.19,0.2,0.29,0.28
			c0.49,0.36,1.04,0.56,1.65,0.41c0.91-0.23,1.82-0.48,2.72-0.76c0.7-0.22,1.37-0.51,2.01-0.88c0.57-0.33,1.09-0.74,1.56-1.2
			c0.09-0.09,0.2-0.17,0.32-0.23c0.23-0.11,0.46-0.04,0.69,0.01c0.49,0.12,0.87,0.43,1.23,0.75c0.87,0.78,1.73,1.57,2.6,2.36
			c0.58,0.52,1.26,0.86,2.01,1.06c0.05,0.01,0.12,0.01,0.17-0.02c0.27-0.14,0.51-0.32,0.68-0.58c0.04-0.06,0.08-0.15,0.07-0.23
			c-0.02-0.33-0.12-0.64-0.36-0.87c-0.54-0.51-1.07-1.02-1.62-1.51c-0.95-0.84-2-1.51-3.18-1.98c-0.89-0.35-1.81-0.61-2.75-0.81
			C30,16.75,29.47,16.64,28.95,16.62z M12.93,47.98c0.07,0.05,0.11,0.09,0.16,0.13c0.41,0.31,0.83,0.59,1.21,0.92
			c0.89,0.77,1.76,1.57,2.63,2.36c0.1,0.09,0.2,0.13,0.34,0.09c0.38-0.11,0.78-0.19,1.16-0.31c0.89-0.27,1.78-0.54,2.65-0.85
			c0.98-0.35,1.94-0.74,2.9-1.12c0.52-0.21,1.04-0.43,1.55-0.66c0.23-0.1,0.46-0.21,0.7-0.33c-0.12-0.05-0.22-0.09-0.32-0.12
			c-1.15-0.39-2.31-0.72-3.49-1.01c-1.41-0.35-2.8-0.73-4.24-0.95c-0.64-0.1-1.27-0.12-1.89,0.05c-0.46,0.12-0.91,0.31-1.32,0.55
			C14.29,47.14,13.62,47.56,12.93,47.98z M44.82,35.8c0.03,0.01,0.04,0.01,0.05,0.01c0.03,0,0.05-0.01,0.08-0.02
			c0.4-0.12,0.73-0.35,1.03-0.63c0.22-0.2,0.29-0.45,0.16-0.74c-0.05-0.13-0.09-0.26-0.14-0.39c-0.24-0.63-0.48-1.26-0.8-1.86
			c-0.39-0.71-0.95-1.2-1.76-1.37c-0.72-0.15-1.44-0.23-2.18-0.26c-1.44-0.06-2.87,0.01-4.3,0.17c-1,0.11-1.99,0.22-2.99,0.32
			c-0.89,0.09-1.78,0.15-2.67,0.23c-0.69,0.07-1.38,0.14-2.07,0.22c-0.98,0.12-1.95,0.32-2.91,0.55c-0.36,0.09-0.72,0.17-1.1,0.26
			c0.02,0.07,0.04,0.14,0.07,0.2c0.23,0.52,0.47,1.03,0.71,1.55c0.04,0.08,0.1,0.16,0.16,0.23c0.04,0.06,0.1,0.07,0.17,0.04
			c0.26-0.1,0.52-0.19,0.78-0.3c1.16-0.47,2.35-0.82,3.58-0.99c1.25-0.17,2.51-0.24,3.77-0.28c1.02-0.03,2.04-0.05,3.06-0.1
			c1.72-0.07,3.44-0.16,5.16-0.23c0.4-0.02,0.81,0,1.21,0.05c0.6,0.07,0.97,0.43,1.1,1.03c0.14,0.64,0.11,1.27-0.06,1.9
			C44.89,35.55,44.85,35.67,44.82,35.8z M40.59,49.3c-0.21-0.13-0.41-0.24-0.61-0.37c-0.62-0.4-1.29-0.69-1.95-0.99
			c-0.2-0.09-0.31-0.06-0.41,0.14c-0.08,0.16-0.14,0.33-0.2,0.5c-0.18,0.51-0.38,1-0.72,1.43c-0.43,0.55-1.01,0.9-1.68,1.07
			c-0.7,0.18-1.41,0.31-2.12,0.47c-0.54,0.12-1.09,0.22-1.62,0.36c-0.87,0.24-1.73,0.51-2.59,0.77c-1.02,0.31-1.99,0.75-2.94,1.21
			c-0.47,0.22-0.87,0.54-1.16,0.98c-0.02,0.04-0.04,0.08-0.06,0.12c0.23,0.02,0.44,0.05,0.65,0.06c1.1,0.06,2.18-0.07,3.25-0.31
			c0.79-0.18,1.58-0.36,2.38-0.53c1.35-0.28,2.7-0.54,4.05-0.8c0.97-0.18,1.91-0.43,2.78-0.92c0.38-0.21,0.73-0.45,1.05-0.74
			c0.46-0.42,0.75-0.95,1.01-1.52c0.13-0.29,0.32-0.54,0.57-0.74C40.35,49.44,40.46,49.38,40.59,49.3z M25.03,29.48
			c0.19,0.43,0.42,0.83,0.73,1.16c0.05,0.05,0.16,0.09,0.24,0.08c0.24-0.03,0.47-0.09,0.71-0.13c0.66-0.12,1.32-0.27,1.99-0.35
			c1.35-0.17,2.71-0.31,4.06-0.45c0.96-0.1,1.93-0.18,2.89-0.3c1.15-0.14,2.3-0.23,3.46-0.27c0.6-0.02,1.2-0.05,1.81-0.08
			c0.08,0,0.18-0.03,0.22-0.08c0.2-0.25,0.3-0.55,0.35-0.87c-0.13-0.06-0.25-0.14-0.38-0.16c-0.6-0.08-1.19-0.16-1.79-0.21
			c-0.7-0.07-1.4-0.11-2.1-0.17c-0.87-0.08-1.75-0.19-2.62-0.26c-1.27-0.11-2.54-0.08-3.8,0.1c-0.96,0.14-1.9,0.35-2.81,0.7
			c-0.73,0.28-1.43,0.61-2.14,0.92C25.58,29.22,25.31,29.35,25.03,29.48z M33.48,25.96c0.42,0.02,1,0.04,1.57,0.09
			c0.81,0.07,1.62,0.18,2.42,0.26c0.67,0.07,1.34,0.11,2.01,0.17c0.09,0.01,0.19,0.02,0.28-0.01c0.21-0.07,0.44-0.43,0.43-0.65
			c0-0.03-0.01-0.07-0.03-0.09c-0.15-0.19-0.31-0.39-0.54-0.49c-0.43-0.2-0.86-0.4-1.3-0.57c-0.5-0.2-1-0.4-1.54-0.48
			c-0.22-0.03-0.4,0.01-0.57,0.13c-0.23,0.16-0.45,0.33-0.67,0.5c-0.61,0.46-1.27,0.44-1.95,0.18c-0.46-0.17-0.82-0.5-1.2-0.79
			c-0.37-0.28-0.74-0.57-1.11-0.86c-0.06-0.05-0.12-0.07-0.21-0.02c-0.58,0.4-1.19,0.75-1.84,1.04c-1.22,0.55-2.45,1.1-3.67,1.65
			c-0.38,0.17-0.74,0.39-0.99,0.74c-0.09,0.12-0.1,0.15,0.02,0.25c0.07,0.06,0.13,0.11,0.2,0.16c0.25,0.18,0.5,0.37,0.75,0.54
			c0.04,0.03,0.12,0.03,0.17,0.01c0.27-0.12,0.53-0.25,0.79-0.38c1.1-0.51,2.26-0.85,3.44-1.1C31.07,26.02,32.2,25.96,33.48,25.96z
			 M23.36,23.13c0.05,0.09,0.09,0.16,0.13,0.23c0.29,0.38,0.58,0.76,0.87,1.14c0.07,0.08,0.15,0.15,0.23,0.22
			c0.14,0.12,0.29,0.14,0.47,0.05c0.71-0.33,1.43-0.66,2.14-0.99c0.7-0.32,1.4-0.63,2.08-0.96c0.52-0.25,1.03-0.51,1.44-0.94
			c0.27-0.29,0.55-0.27,0.89-0.06c0.65,0.4,1.2,0.93,1.76,1.43c0.14,0.12,0.28,0.24,0.43,0.35c0.57,0.43,1.04,0.12,1.44-0.32
			c-0.15-0.12-0.29-0.25-0.44-0.37c-0.84-0.68-1.68-1.35-2.45-2.09c-0.21-0.21-0.43-0.41-0.65-0.61c-0.17-0.15-0.18-0.15-0.35-0.01
			c-0.23,0.19-0.45,0.4-0.69,0.58c-0.73,0.54-1.54,0.93-2.38,1.25c-1.08,0.42-2.18,0.74-3.31,0.99c-0.39,0.09-0.8,0.11-1.2,0.15
			C23.64,23.18,23.51,23.15,23.36,23.13z M13.18,52.81c-0.33-0.36-0.64-0.69-0.95-1.02c-0.04-0.04-0.13-0.05-0.2-0.05
			c-0.34,0-0.68,0.04-1.02,0.03c-0.8-0.03-1.57-0.21-2.35-0.39c-0.12-0.03-0.25,0-0.38,0.03c-0.08,0.01-0.15,0.06-0.23,0.09
			c-0.73,0.29-1.3,0.16-1.85-0.41c-0.08-0.08-0.16-0.17-0.25-0.24c-0.04-0.03-0.12-0.06-0.17-0.05c-0.34,0.07-0.68,0.14-1.02,0.23
			c-0.4,0.1-0.79,0.22-1.18,0.33c-0.09,0.02-0.15,0.07-0.13,0.17c0.09,0.48,0.19,0.95,0.38,1.4c0.08,0.19,0.22,0.29,0.43,0.29
			c0.38,0.01,0.77,0.05,1.15,0.03c1.24-0.07,2.48-0.16,3.72-0.24c1-0.06,2.01-0.13,3.01-0.18C12.49,52.8,12.82,52.81,13.18,52.81z
			 M16.9,30.62c0.01,0.01,0.01,0.03,0.02,0.04c0.17,0.01,0.35,0.02,0.52,0.02c0.52,0.02,1.04,0.1,1.54,0.24
			c0.74,0.21,1.42,0.53,2.09,0.91c0.69,0.39,1.36,0.82,2.05,1.2c0.31,0.17,0.65,0.3,0.98,0.44c0.01-0.01,0.02-0.02,0.03-0.03
			c-0.02-0.06-0.04-0.11-0.07-0.17c-0.11-0.24-0.22-0.48-0.32-0.72c-0.1-0.25-0.1-0.51,0.01-0.75c0.11-0.25,0.3-0.41,0.57-0.49
			c-0.03-0.04-0.05-0.07-0.08-0.09c-0.29-0.23-0.57-0.48-0.88-0.69c-0.51-0.35-1.09-0.53-1.69-0.65c-1.12-0.22-2.24-0.18-3.35,0.07
			c-0.46,0.1-0.9,0.26-1.28,0.55C16.99,30.54,16.95,30.58,16.9,30.62z M23.21,25.21c-0.09,0.12-0.17,0.24-0.26,0.34
			c-0.15,0.18-0.23,0.38-0.28,0.6c-0.05,0.22-0.11,0.44-0.19,0.65c-0.07,0.18-0.21,0.32-0.42,0.33c-0.28,0.02-0.58-0.24-0.57-0.54
			c0.02-0.82,0.18-1.6,0.8-2.2c0.02-0.02,0.05-0.05,0.06-0.08c0.01-0.03,0-0.08-0.01-0.1c-0.14-0.17-0.22-0.19-0.41-0.07
			c-0.06,0.04-0.12,0.08-0.18,0.13c-0.6,0.55-1.07,1.18-1.4,1.93c-0.26,0.6-0.23,0.8,0.27,1.24c0.18,0.16,0.34,0.33,0.49,0.51
			c0.23,0.3,0.51,0.52,0.87,0.63c0.48,0.14,0.95,0.3,1.38,0.56c0.06,0.04,0.13,0.07,0.2,0.1c0.01-0.02,0.02-0.02,0.02-0.03
			c0-0.01,0.01-0.03,0-0.04c-0.03-0.27,0.05-0.49,0.3-0.65c0.12-0.08,0.11-0.17,0.01-0.28c-0.16-0.18-0.33-0.34-0.48-0.53
			c-0.4-0.48-0.41-1.06-0.06-1.57c0.06-0.09,0.13-0.18,0.19-0.28c0.02-0.04,0.03-0.1,0.01-0.14C23.44,25.55,23.32,25.38,23.21,25.21
			z M9.76,42.72c0.44-0.12,2.95-2.2,3.21-2.67c-0.03-0.01-0.06-0.02-0.08-0.02c-0.25-0.03-0.5-0.07-0.76-0.09
			c-0.52-0.04-1.03-0.04-1.54,0.09c-0.35,0.09-0.66,0.24-0.92,0.49c-0.19,0.18-0.26,0.38-0.15,0.65c0.07,0.16,0.11,0.34,0.13,0.52
			C9.7,42.04,9.73,42.38,9.76,42.72z M38.63,33.9c0,0.01,0,0.02-0.01,0.03c0.41,0.14,0.82,0.28,1.23,0.42
			c1.16,0.4,2.37,0.69,3.5,1.17c0.07,0.03,0.12,0.02,0.15-0.06c0.12-0.48,0.27-0.96,0.17-1.47c-0.01-0.07-0.04-0.12-0.11-0.13
			c-0.19-0.02-0.38-0.06-0.58-0.05c-0.63,0.01-1.26,0.04-1.9,0.06c-0.76,0.01-1.51,0.02-2.27,0.02
			C38.75,33.89,38.69,33.9,38.63,33.9z M39.01,53.29c0.02,0,0.04,0.01,0.06,0.01c0.61,0.02,1.22,0.03,1.83,0.06
			c0.23,0.01,0.35-0.09,0.44-0.27c0.3-0.59,0.55-1.2,0.75-1.84c0.03-0.1,0.03-0.24-0.02-0.33c-0.09-0.17-0.23-0.32-0.35-0.48
			c-0.06-0.09-0.14-0.09-0.24-0.05c-0.36,0.14-0.59,0.4-0.73,0.76c-0.23,0.58-0.56,1.08-1.01,1.51
			C39.52,52.88,39.26,53.08,39.01,53.29z M18.43,41.61c0-0.02,0.01-0.04,0.01-0.05c-0.57-0.23-1.13-0.47-1.71-0.68
			c-0.51-0.18-1.03-0.31-1.54-0.46c-0.07-0.02-0.17-0.04-0.23-0.01c-0.17,0.08-0.34,0.16-0.48,0.27c-0.47,0.37-0.93,0.75-1.39,1.12
			c-0.07,0.05-0.13,0.11-0.19,0.17c0,0.02,0.01,0.03,0.01,0.05C14.73,41.57,16.56,41.4,18.43,41.61z M43.45,52.42
			c0.01-0.01,0.02-0.02,0.03-0.03c-0.08-0.07-0.16-0.14-0.26-0.23c0,0.09,0,0.14,0,0.19C43.3,52.37,43.38,52.4,43.45,52.42z"/>
		<path d="M19.1,18.31"/>
		<path d="M9.95,46.71c0.01,0.16-0.06,0.29-0.16,0.41c-0.27,0.35-0.58,0.64-0.95,0.88c-0.23,0.16-0.43,0.36-0.66,0.52
			c-0.13,0.09-0.27,0.16-0.42,0.21c-0.17,0.05-0.32-0.02-0.43-0.15c-0.26-0.34-0.27-0.51-0.03-0.82c0.14-0.18,0.31-0.34,0.49-0.49
			c0.41-0.34,0.83-0.67,1.24-1.01c0.2-0.16,0.41-0.13,0.61-0.05C9.84,46.31,9.94,46.49,9.95,46.71z"/>
	</g>
	<g>
		<g>
			<path d="M67.39,24.9c-0.07-0.13-0.14-0.24-0.2-0.35c-0.24-0.45-0.5-0.89-0.72-1.35c-0.11-0.24-0.18-0.52-0.21-0.78
				c-0.04-0.39,0.22-0.72,0.6-0.83c0.86-0.26,1.72-0.51,2.58-0.76c0.83-0.24,1.66-0.45,2.48-0.7c0.87-0.26,1.72-0.56,2.58-0.85
				c1.02-0.35,2.06-0.66,3.13-0.84c0.42-0.07,0.84-0.12,1.26-0.2c0.1-0.02,0.21-0.07,0.29-0.14c0.13-0.11,0.25-0.23,0.37-0.36
				c0.54-0.54,1.22-0.78,1.95-0.91c0.29-0.05,0.58-0.08,0.87-0.1c0.13-0.01,0.27,0.02,0.39,0.07c0.28,0.12,0.36,0.36,0.33,0.65
				c-0.03,0.23-0.02,0.23,0.21,0.21c1.16-0.08,2.31-0.19,3.47-0.22c1.3-0.04,2.6-0.03,3.9-0.03c0.12,0,0.14-0.04,0.17-0.15
				c0.03-0.15,0.09-0.31,0.18-0.44c0.13-0.2,0.34-0.25,0.58-0.2c1,0.19,1.98,0.46,2.89,0.93c0.24,0.13,0.45,0.31,0.68,0.47
				c0.06,0.04,0.13,0.09,0.2,0.09c0.93,0.1,1.86,0.2,2.76,0.43c0.74,0.19,1.47,0.42,2.21,0.63c1.46,0.42,2.92,0.83,4.38,1.26
				c0.88,0.26,1.75,0.54,2.63,0.79c0.66,0.19,0.84,0.74,0.65,1.31c-0.19,0.54-0.44,1.07-0.7,1.58c-0.31,0.62-0.64,1.23-0.97,1.86
				c0.03,0.02,0.06,0.04,0.09,0.06c0.4,0.2,0.8,0.39,1.19,0.6c0.14,0.07,0.26,0.18,0.37,0.29c0.26,0.25,0.31,0.56,0.2,0.9
				c-0.12,0.37-0.23,0.74-0.35,1.11c-0.39,1.19-0.78,2.37-1.17,3.55c-0.04,0.12-0.05,0.23-0.01,0.36c0.29,0.95,0.56,1.9,0.85,2.84
				c0.17,0.55,0.08,1.07-0.15,1.57c-0.03,0.06-0.03,0.14-0.02,0.2c0.07,0.33,0.15,0.67,0.23,1c0.1,0.39,0.18,0.79,0.31,1.18
				c0.15,0.46,0.1,0.9-0.06,1.34c-0.14,0.39-0.33,0.76-0.63,1.06c-0.03,0.03-0.04,0.09-0.04,0.14c0.04,0.26,0.07,0.51,0.13,0.77
				c0.02,0.07,0.08,0.15,0.14,0.2c0.32,0.29,0.68,0.55,0.97,0.86c0.29,0.31,0.29,0.68,0.07,1.05c-0.29,0.45-0.58,0.9-0.87,1.35
				c-0.07,0.11-0.15,0.23-0.22,0.35c0.34,0.52,0.22,1.04-0.06,1.56c-0.3,0.56-0.61,1.11-0.92,1.66c-0.55,0.95-1.09,1.9-1.66,2.83
				c-0.38,0.63-0.82,1.21-1.34,1.73c-0.4,0.4-0.87,0.7-1.43,0.81c-0.21,0.04-0.43,0.03-0.64,0c-0.74-0.1-1.47-0.22-2.21-0.33
				c-1.14-0.17-2.28-0.35-3.42-0.51c-1.1-0.16-2.2-0.3-3.29-0.46c-1.41-0.2-2.83-0.35-4.25-0.36c-1.81-0.01-3.62,0.01-5.42,0.03
				c-0.97,0.01-1.93,0.06-2.9,0.11c-1.19,0.06-2.38,0.2-3.55,0.41c-0.68,0.12-1.35,0.27-2.03,0.37c-0.82,0.12-1.5-0.19-2.03-0.81
				c-0.46-0.54-0.64-1.18-0.72-1.87c-0.09-0.75-0.2-1.49-0.31-2.24c-0.01-0.06-0.06-0.13-0.11-0.15c-0.59-0.25-1.18-0.49-1.77-0.72
				c-0.61-0.23-1.22-0.46-1.84-0.66c-0.91-0.29-1.48-0.9-1.74-1.8c-0.3-1.04-0.01-1.91,0.82-2.59c0.11-0.09,0.14-0.15,0.07-0.29
				c-0.46-0.99-0.39-1.96,0.18-2.9c0.29-0.47,0.58-0.95,0.87-1.42c0.05-0.08,0.06-0.13-0.01-0.21c-0.11-0.13-0.19-0.28-0.28-0.43
				c-0.64-1.09-1.28-2.19-1.92-3.28c-0.07-0.12-0.13-0.25-0.19-0.38c-0.21-0.43-0.13-0.8,0.24-1.1c0.47-0.39,0.95-0.76,1.43-1.14
				c0.3-0.24,0.61-0.48,0.9-0.74c0.21-0.18,0.17-0.15,0.06-0.37c-0.65-1.24-1.3-2.47-1.94-3.71c-0.12-0.23-0.24-0.46-0.33-0.7
				c-0.22-0.55-0.11-0.91,0.37-1.26c0.29-0.21,0.6-0.39,0.89-0.58C67.04,25.14,67.21,25.03,67.39,24.9z M71.09,28.04
				c0.2-0.14,0.37-0.28,0.56-0.39c0.36-0.21,0.72-0.41,1.09-0.61c0.06-0.03,0.15-0.03,0.21-0.01c0.49,0.12,0.67,0.72,0.32,1.09
				c-0.08,0.08-0.16,0.15-0.25,0.21c-0.22,0.14-0.45,0.28-0.68,0.41c-0.07,0.04-0.11,0.08-0.09,0.17c0.13,0.55,0.24,1.11,0.39,1.66
				c0.37,1.36,0.87,2.69,1.36,4.01c0.35,0.94,0.7,1.88,1.02,2.83c0.12,0.36,0.33,0.62,0.63,0.83c0.25,0.18,0.49,0.24,0.8,0.07
				c0.43-0.23,0.88-0.4,1.33-0.59c1.56-0.64,3.18-1.08,4.84-1.35c1.1-0.18,2.21-0.29,3.32-0.4c1.59-0.16,3.19-0.27,4.78-0.44
				c1.79-0.19,3.58-0.29,5.37-0.3c1.74-0.01,3.45,0.19,5.14,0.57c0.99,0.22,1.96,0.51,2.9,0.88c0.39,0.15,0.77,0.33,1.16,0.5
				c0.04,0.02,0.1,0.03,0.13,0.01c0.13-0.07,0.29-0.12,0.39-0.23c0.15-0.18,0.27-0.38,0.38-0.59c0.04-0.08,0.06-0.2,0.04-0.29
				c-0.18-0.6-0.35-1.2-0.55-1.79c-0.33-0.98-0.67-1.97-1.04-2.94c-0.29-0.75-0.63-1.49-0.95-2.23c-0.21-0.48-0.41-0.97-0.63-1.45
				c-0.03-0.07-0.11-0.14-0.19-0.18c-0.33-0.18-0.67-0.33-0.98-0.54c-0.33-0.22-0.33-0.72-0.05-1c0.16-0.16,0.41-0.21,0.61-0.13
				c0.37,0.16,0.75,0.32,1.11,0.5c0.23,0.11,0.44,0.25,0.66,0.37c0.31-0.27,2.15-3.7,2.31-4.33c-0.05-0.01-0.1-0.01-0.15-0.03
				c-0.82-0.24-1.64-0.48-2.45-0.74c-1.27-0.41-2.53-0.83-3.8-1.24c-0.65-0.21-1.3-0.43-1.96-0.58c-0.56-0.13-1.15-0.17-1.73-0.25
				c-0.31-0.04-0.62-0.06-0.95-0.09c0,0.06-0.01,0.11-0.01,0.15c-0.01,1.43-0.14,2.85-0.43,4.24c-0.19,0.88-0.44,1.75-0.67,2.62
				c-0.07,0.27-0.19,0.54-0.31,0.8c-0.18,0.37-0.52,0.51-0.9,0.37c-0.4-0.15-0.8-0.31-1.19-0.49c-0.49-0.23-0.98-0.49-1.39-0.85
				c-0.04-0.03-0.1-0.04-0.15-0.04c-0.17-0.02-0.35-0.01-0.52-0.05c-0.77-0.19-1.28-0.69-1.58-1.41c-0.02-0.04-0.06-0.09-0.11-0.1
				c-0.12-0.03-0.25-0.06-0.38-0.07c-0.05,0-0.11,0.02-0.14,0.06c-0.08,0.11-0.14,0.24-0.22,0.35c-0.33,0.45-0.72,0.83-1.28,0.95
				c-0.29,0.06-0.62,0.18-0.89-0.08c-0.09,0.08-0.16,0.17-0.25,0.24c-0.5,0.42-1,0.86-1.52,1.25c-0.28,0.21-0.61,0.35-0.93,0.48
				c-0.28,0.11-0.52,0.01-0.68-0.25c-0.11-0.17-0.22-0.35-0.32-0.53c-0.84-1.5-1.59-3.03-2.08-4.69c-0.25-0.85-0.47-1.7-0.55-2.59
				c-0.01-0.11-0.03-0.22-0.04-0.35c-0.52,0.08-1.03,0.14-1.53,0.24c-1.09,0.23-2.13,0.65-3.18,1.02c-0.82,0.29-1.64,0.61-2.47,0.86
				c-1.22,0.36-2.45,0.67-3.67,1.01c-0.1,0.03-0.2,0.07-0.3,0.1c0.1,0.19,0.18,0.36,0.27,0.52c0.87,1.57,1.83,3.08,2.84,4.57
				C70.94,27.88,71.03,27.96,71.09,28.04z M106.21,38.52c-0.04,0.01-0.07,0.01-0.1,0.02c-0.46,0.12-0.9,0.1-1.34-0.08
				c-0.5-0.21-1.02-0.38-1.53-0.57c-1.05-0.37-2.13-0.65-3.22-0.86c-0.59-0.11-1.19-0.18-1.78-0.24c-1.66-0.16-3.33-0.12-4.99,0
				c-1.16,0.08-2.31,0.2-3.47,0.32c-2.1,0.21-4.2,0.31-6.29,0.63c-1.31,0.2-2.59,0.51-3.86,0.89c-0.92,0.28-1.8,0.65-2.68,1.03
				c-1,0.43-2.06,0.05-2.69-0.63c-0.34-0.37-0.5-0.83-0.65-1.29c-0.24-0.7-0.45-1.4-0.69-2.09c-0.51-1.53-1.03-3.05-1.54-4.58
				c-0.17-0.52-0.34-1.05-0.7-1.48c-0.02-0.03-0.04-0.07-0.07-0.08c-0.29-0.11-0.45-0.34-0.61-0.58c-0.63-0.94-1.25-1.88-1.88-2.83
				c-0.35,0.21-0.71,0.43-1.06,0.65c-0.02,0.01-0.03,0.09-0.02,0.12c0.25,0.48,0.52,0.96,0.77,1.44c0.59,1.12,1.2,2.23,1.78,3.36
				c0.45,0.89,0.86,1.8,1.31,2.69c0.87,1.69,1.75,3.37,2.64,5.05c0.33,0.61,0.71,1.2,1.06,1.8c0.06,0.1,0.12,0.11,0.23,0.08
				c1.14-0.33,2.27-0.69,3.42-0.97c1.36-0.33,2.74-0.61,4.12-0.88c1.74-0.34,3.5-0.52,5.28-0.57c1.88-0.05,3.76-0.08,5.65-0.09
				c1.77-0.01,3.53,0.02,5.29,0.22c1.22,0.14,2.44,0.35,3.61,0.71c0.93,0.29,1.83,0.63,2.74,0.97c0.3,0.11,0.59,0.27,0.88,0.4
				c0.04,0.02,0.1,0.01,0.14-0.01c0.23-0.13,0.37-0.35,0.46-0.59c0.13-0.36,0.27-0.72,0.04-1.1c-0.04-0.07-0.05-0.16-0.07-0.24
				C106.31,38.93,106.26,38.73,106.21,38.52z M105.7,45.79c-0.07,0-0.13,0-0.19,0c-0.33-0.02-0.67-0.03-0.99-0.08
				c-1.15-0.18-2.3-0.37-3.45-0.57c-0.66-0.12-1.32-0.25-1.98-0.39c-0.58-0.12-1.16-0.27-1.74-0.39c-1.29-0.26-2.59-0.43-3.9-0.48
				c-2.25-0.09-4.5-0.11-6.75-0.04c-1.74,0.06-3.47,0.15-5.19,0.42c-1.12,0.18-2.24,0.4-3.31,0.79c-0.9,0.32-1.77,0.72-2.66,1.08
				c-0.29,0.12-0.59,0.22-0.9,0.18c-0.43-0.05-0.82-0.22-1.13-0.52c-0.62-0.61-0.95-1.35-0.95-2.23c0-0.97-0.02-1.93-0.03-2.9
				c0-0.11-0.02-0.22-0.03-0.33c-0.37,0.28-0.73,0.57-1.09,0.83c-0.17,0.12-0.18,0.1-0.1,0.32c0.21,0.54,0.45,1.07,0.63,1.61
				c0.17,0.52,0.33,1.04,0.41,1.58c0.13,0.81,0.15,1.64,0.12,2.46c-0.01,0.31,0.05,0.61,0.18,0.89c0.15,0.33,0.33,0.66,0.68,0.83
				c0.07,0.04,0.17,0.05,0.25,0.04c1.25-0.25,2.5-0.49,3.75-0.75c1.44-0.3,2.88-0.62,4.32-0.92c1.51-0.32,3.01-0.63,4.52-0.95
				c1.06-0.23,2.14-0.4,3.22-0.5c1.01-0.09,2.02-0.16,3.03-0.18c1.27-0.02,2.54,0.01,3.81,0.07c1.1,0.05,2.2,0.15,3.3,0.27
				c0.89,0.1,1.78,0.24,2.66,0.4c0.9,0.17,1.79,0.4,2.68,0.61c0.13,0.03,0.23-0.01,0.32-0.08C105.52,46.6,105.66,46.23,105.7,45.79z
				 M81.57,48.74c0.46,0.04,0.89,0.09,1.32,0.13c1.74,0.15,3.47,0.4,5.18,0.77c1.56,0.34,3.13,0.61,4.72,0.74
				c1.21,0.1,2.42,0.17,3.62,0.27c1.02,0.09,2.03,0.22,3.02,0.5c0.72,0.2,1.43,0.45,2.13,0.7c0.21,0.07,0.39,0.07,0.55-0.08
				c0.12-0.11,0.25-0.23,0.33-0.37c0.58-0.94,1.03-1.94,1.51-2.93c0.04-0.08,0.06-0.18,0.1-0.28c-0.35-0.08-0.67-0.15-1-0.24
				c-0.89-0.23-1.79-0.4-2.71-0.5c-0.92-0.1-1.84-0.22-2.76-0.26c-1.23-0.06-2.47-0.08-3.7-0.09c-1.54-0.01-3.09,0.01-4.63,0.2
				c-0.93,0.12-1.86,0.28-2.78,0.45c-1.03,0.19-2.06,0.42-3.08,0.63C82.8,48.5,82.19,48.62,81.57,48.74z M74.04,42.55
				c-0.01,0.02-0.01,0.03-0.02,0.05c-0.02,0.33-0.05,0.66-0.07,0.99c0,0.11,0.01,0.23,0.05,0.33c0.13,0.34,0.34,0.63,0.64,0.86
				c0.1,0.07,0.17,0.1,0.29,0.05c0.33-0.16,0.67-0.31,1.01-0.46c0.91-0.4,1.83-0.77,2.79-1.03c1.18-0.32,2.39-0.54,3.6-0.69
				c1.13-0.14,2.27-0.25,3.41-0.27c1.25-0.02,2.5-0.04,3.75-0.04c2.16-0.01,4.32,0.02,6.47,0.2c1.25,0.1,2.49,0.31,3.71,0.57
				c0.22,0.05,0.37-0.01,0.51-0.14c0.11-0.11,0.22-0.24,0.29-0.38c0.28-0.5,0.43-1.04,0.53-1.6c0.02-0.11-0.01-0.16-0.12-0.18
				c-0.38-0.07-0.75-0.14-1.13-0.22c-0.93-0.18-1.87-0.26-2.81-0.33c-1.73-0.11-3.47-0.1-5.2-0.09c-1.83,0-3.66,0.1-5.49,0.23
				c-1.27,0.09-2.54,0.25-3.8,0.47c-1.29,0.23-2.57,0.5-3.83,0.84c-0.75,0.2-1.5,0.39-2.25,0.58c-0.46,0.12-0.92,0.23-1.39,0.34
				C74.67,42.71,74.35,42.68,74.04,42.55z M72.8,50.18c0,0.07,0,0.14,0.01,0.2c0.07,0.49,0.14,0.99,0.21,1.48
				c0.05,0.38,0.17,0.73,0.42,1.03c0.34,0.41,0.39,0.43,0.91,0.33c0,0,0.01,0,0.01,0c0.73-0.14,1.46-0.3,2.19-0.43
				c1.61-0.29,3.23-0.43,4.86-0.52c1.76-0.1,3.53-0.16,5.3-0.15c1.49,0.01,2.97,0.06,4.44,0.27c1.47,0.22,2.95,0.39,4.43,0.6
				c1.98,0.28,3.96,0.57,5.94,0.85c0.23,0.03,0.5-0.07,0.63-0.24c-0.21,0.07-0.3,0.06-0.52-0.03c-0.33-0.14-0.66-0.29-1-0.4
				c-1.3-0.44-2.65-0.66-4.01-0.86c-0.75-0.11-1.51-0.15-2.26-0.23c-1.01-0.1-2.01-0.21-3.02-0.32c-1.11-0.12-2.22-0.31-3.31-0.55
				c-1.26-0.28-2.52-0.53-3.8-0.69c-0.85-0.11-1.71-0.17-2.57-0.23c-1.81-0.13-3.62-0.2-5.43-0.13c-0.74,0.03-1.48,0.03-2.21,0.19
				c-0.3,0.07-0.6,0.05-0.89-0.05C73.03,50.26,72.92,50.22,72.8,50.18z M91.2,18.78c-2.75-0.13-5.47-0.03-8.21,0.26
				c0.03,0.22,0.06,0.43,0.1,0.65c0.2,1.03,0.54,2.02,1,2.96c0.33,0.69,0.69,1.36,1.26,1.89c0.27,0.25,0.37,0.26,0.69,0.07
				c0.04-0.02,0.08-0.05,0.11-0.08c0.25-0.2,0.38-0.48,0.5-0.77c0.16-0.37,0.3-0.45,0.7-0.43c0.44,0.02,0.89,0.04,1.33,0.05
				c0.26,0.01,0.46,0.14,0.55,0.38c0.04,0.09,0.07,0.19,0.1,0.29c0.14,0.4,0.42,0.66,0.81,0.82c0.18,0.07,0.24,0.05,0.34-0.12
				c0.05-0.08,0.1-0.16,0.14-0.24c0.28-0.58,0.39-1.21,0.49-1.84c0.14-0.94,0.17-1.89,0.14-2.84C91.24,19.49,91.22,19.14,91.2,18.78
				z M66.7,34.63c1.02,1.87,2.25,3.64,3.33,5.51c0.23-0.15,0.46-0.28,0.67-0.43c0.29-0.21,0.56-0.44,0.83-0.66
				c0.07-0.06,0.09-0.12,0.04-0.21c-0.11-0.2-0.21-0.4-0.31-0.6c-0.79-1.47-1.55-2.95-2.22-4.48c-0.11-0.24-0.23-0.48-0.35-0.72
				C68.03,33.56,67.38,34.08,66.7,34.63z M81.65,18.12c-0.46,0.07-0.88,0.27-1.28,0.51c-0.04,0.03-0.08,0.09-0.1,0.14
				c-0.02,0.09-0.02,0.19-0.02,0.29c0,0.85,0.15,1.68,0.38,2.49c0.42,1.46,1,2.86,1.67,4.22c0.11,0.23,0.24,0.45,0.37,0.69
				c0.04-0.03,0.08-0.04,0.11-0.07c0.42-0.35,0.85-0.7,1.27-1.05c0.08-0.07,0.07-0.11,0.02-0.19c-0.22-0.32-0.46-0.63-0.64-0.97
				c-0.33-0.64-0.65-1.29-0.93-1.95c-0.38-0.88-0.63-1.81-0.76-2.76C81.7,19.02,81.69,18.57,81.65,18.12z M92.4,18.07
				c0,0.05,0,0.06,0,0.08c0.05,0.7,0.13,1.39,0.15,2.09c0.02,0.64-0.01,1.29-0.06,1.92c-0.09,1.14-0.28,2.25-0.9,3.26
				c0.47,0.35,1,0.58,1.56,0.8c0.09-0.29,0.17-0.57,0.26-0.85c0.28-0.91,0.47-1.85,0.58-2.79c0.1-0.79,0.14-1.59,0.19-2.39
				c0.03-0.44,0.01-0.88,0.02-1.32c0-0.07-0.01-0.12-0.1-0.16c-0.17-0.07-0.33-0.17-0.5-0.23C93.21,18.35,92.81,18.22,92.4,18.07z
				 M101.54,43.76c0.07,0.02,0.1,0.03,0.13,0.04c0.31,0.05,0.61,0.1,0.92,0.14c0.87,0.12,1.73,0.23,2.6,0.35
				c0.24,0.03,0.29,0.02,0.42-0.18c0.3-0.45,0.46-0.93,0.4-1.48c-0.01-0.08-0.03-0.1-0.1-0.12c-0.2-0.05-0.41-0.09-0.6-0.16
				c-0.77-0.29-1.53-0.59-2.3-0.89c-0.2-0.08-0.4-0.15-0.62-0.23C102.38,42.16,102.06,42.98,101.54,43.76z M71.09,47.98
				c0.05-0.21,0.03-0.36-0.11-0.53c-0.54-0.64-1.04-1.31-1.57-1.96c-0.08-0.09-0.17-0.19-0.28-0.23c-0.49-0.2-0.95-0.43-1.37-0.75
				c-0.09-0.07-0.15-0.06-0.22,0c-0.12,0.1-0.25,0.2-0.36,0.33c-0.07,0.09-0.14,0.21-0.15,0.31c-0.05,0.64,0.18,1.19,0.65,1.63
				c0.07,0.07,0.18,0.12,0.27,0.16c0.22,0.08,0.44,0.14,0.66,0.22c0.75,0.25,1.5,0.5,2.25,0.75C70.94,47.93,71.01,47.95,71.09,47.98
				z M70.73,44.65c-0.03-0.2-0.05-0.41-0.11-0.61c-0.17-0.57-0.35-1.14-0.53-1.71c-0.02-0.05-0.09-0.11-0.15-0.12
				c-0.19-0.05-0.35-0.16-0.46-0.31c-0.19-0.27-0.37-0.55-0.55-0.83c-0.1-0.16-0.19-0.33-0.28-0.49c-0.02-0.02-0.04-0.03-0.06-0.05
				c-0.03,0.06-0.06,0.12-0.09,0.17c-0.2,0.27-0.39,0.54-0.59,0.8c-0.08,0.1-0.18,0.19-0.27,0.29c-0.03,0.03-0.04,0.09-0.04,0.14
				c0,0.05,0.03,0.09,0.05,0.14c0.12,0.54,0.44,0.89,0.93,1.15C69.33,43.63,70.12,44,70.73,44.65z M105.77,30.74
				c0.34-1.04,0.67-2.05,1-3.05c-0.33-0.17-0.65-0.33-0.97-0.49c-0.08-0.04-0.13-0.04-0.18,0.05c-0.1,0.16-0.2,0.31-0.3,0.46
				c-0.17,0.26-0.38,0.47-0.67,0.55C105.02,29.08,105.39,29.91,105.77,30.74z"/>
			<path d="M88.42,28.94c0.52,0.01,0.94,0.21,1.17,0.69c0.28,0.58,0.04,1.2-0.55,1.46c-0.65,0.29-1.54,0.02-1.8-0.72
				c-0.19-0.54,0.02-1.02,0.54-1.29C87.98,28.97,88.19,28.92,88.42,28.94z"/>
			<path d="M88.94,32.02c0.52,0.01,0.94,0.21,1.17,0.69c0.28,0.58,0.04,1.2-0.55,1.46c-0.65,0.29-1.54,0.02-1.8-0.72
				c-0.19-0.54,0.02-1.02,0.54-1.29C88.49,32.06,88.71,32,88.94,32.02z"/>
			<path d="M87.92,26.37c0.3,0.04,0.57,0.12,0.81,0.3c0.3,0.22,0.41,0.53,0.36,0.88c-0.05,0.38-0.29,0.6-0.65,0.72
				c-0.56,0.18-1.14-0.07-1.38-0.44c-0.31-0.48-0.16-1.07,0.36-1.31C87.58,26.44,87.76,26.42,87.92,26.37z"/>
		</g>
	</g>
	<g>
		<path d="M69.93,58.76c0,0.18,0,0.37,0,0.55c0.37,0.12,0.74,0.25,1.12,0.37c0.13,0.03,0.23,0.06,0.32,0.09
			c-3.39,2.09-7.48,2.8-11.41,2.97c-2.09,0.09-4.18,0.03-6.27-0.11c-2.08-0.14-4.16-0.36-6.21-0.8c-2.26-0.49-4.5-1.24-6.4-2.6
			c-0.36-0.26-0.9-0.06-1.11,0.29c-0.24,0.41-0.07,0.86,0.29,1.11c3.57,2.56,8.25,3.22,12.52,3.56c4.38,0.35,8.87,0.39,13.18-0.57
			c2.29-0.51,4.55-1.35,6.52-2.63c0.01,0.11,0.01,0.21,0.01,0.31c0.05,0.44,0.09,0.85,0.13,1.24l0.72,0.01
			c0.19-1.22,0.37-2.44,0.6-3.93C72.44,58.67,71.18,58.71,69.93,58.76z"/>
	</g>
</g>
</svg>
