<?xml version="1.0" encoding="utf-8"?>
<!-- Generator: Adobe Illustrator 28.1.0, SVG Export Plug-In . SVG Version: 6.00 Build 0)  -->
<svg version="1.1" id="Layer_1" xmlns="http://www.w3.org/2000/svg" xmlns:xlink="http://www.w3.org/1999/xlink" x="0px" y="0px"
	 viewBox="0 0 110.55 76.54" style="enable-background:new 0 0 110.55 76.54;" xml:space="preserve">
<style type="text/css">
	.st0{display:none;}
	.st1{display:inline;fill:none;}
	.st2{fill:#808080;}
</style>
<g id="Layer_2_00000073722119373351752270000017113015111246931634_" class="st0">
	<line class="st1" x1="-24.13" y1="74.54" x2="142.13" y2="74.54"/>
	<line class="st1" x1="-24.13" y1="2" x2="142.13" y2="2"/>
</g>
<g>
	<path class="st2" d="M1879.74,2086.84c3.3,0,5.96-2.66,5.96-5.96c0-3.3-2.66-5.96-5.96-5.96c-3.3,0-5.96,2.66-5.96,5.96
		C1873.77,2084.18,1876.43,2086.84,1879.74,2086.84z"/>
	<path class="st2" d="M1886.1,2093.13c5.88-0.81,13.22-2.18,14.43-2.34c1.45-0.24,2.42-1.69,2.18-3.14
		c-0.24-1.45-1.69-2.42-3.14-2.18c-6.53,1.21-17.17,2.9-19.83,2.9c-10.4,0-15.15,6.93-15.31,7.25c-0.64,0.97-0.56,2.18,0.08,3.06
		l4.67,6.61c0.56,0.73,1.37,1.13,2.18,1.13c0.56,0,1.05-0.16,1.53-0.48c0.16-0.08,0.24-0.24,0.4-0.32v1.85l-1.69,19.91
		c-0.16,1.61,1.05,3.06,2.74,3.22c1.61,0.16,3.06-1.05,3.22-2.74l1.61-19.18h1.13l1.61,19.18c0.16,1.53,1.45,2.74,2.98,2.74
		c0.08,0,0.16,0,0.24,0c1.61-0.16,2.9-1.61,2.74-3.22l-1.69-19.91L1886.1,2093.13z M1873.29,2101.83l-3.22-4.59
		c0.73-0.64,1.85-1.53,3.3-2.18L1873.29,2101.83z"/>
</g>
<g>
	<path class="st2" d="M1933.79,2093.61c1.85,0.21,3.48,0.36,4.83,0.36c1.99,0,3.48-0.28,4.48-1.21c0.64-0.57,1.07-1.35,1.07-2.27
		c0.14-2.27-2.49-6.33-7.75-12.01c-0.92-1-2.49-1.07-3.55-0.14c-0.21,0.14-0.28,0.36-0.43,0.57c-0.78-2.35-2.91-3.98-5.55-3.98
		c-2.56,0-4.76,1.71-5.55,3.98c-0.14-0.21-0.28-0.43-0.43-0.57c-1-0.92-2.56-0.85-3.55,0.14c-5.26,5.69-7.89,9.67-7.75,12.01
		c0.07,0.92,0.43,1.71,1.07,2.27c1,0.85,2.49,1.21,4.48,1.21c1.35,0,2.99-0.14,4.83-0.36c0.36,0,0.71-0.07,1-0.07l0.28,12.51
		c0,0.14,0,0.21,0,0.36l-3.55,8.25c-0.36,0.92-0.64,1.85-0.78,2.77l-1.07,10.02c-0.21,1.56,0.92,3.06,2.56,3.27
		c0.14,0,0.21,0,0.36,0c1.42,0,2.7-1.07,2.91-2.56l1.28-10.02c0.07-0.43,0.14-0.85,0.36-1.21l3.77-8.74l3.77,8.74
		c0.14,0.43,0.28,0.78,0.36,1.21l1.28,10.02c0.21,1.56,1.64,2.7,3.27,2.56c1.56-0.21,2.7-1.64,2.56-3.27l-1.28-10.02
		c-0.14-1-0.36-1.92-0.78-2.77l-3.55-8.25c0-0.07,0-0.21,0-0.28l0.28-12.58C1933.15,2093.54,1933.51,2093.54,1933.79,2093.61z
		 M1930.38,2088.35h-6.75c-1.14,0-2.49,0.14-3.91,0.28c-1.14,0.14-2.84,0.28-4.19,0.28c1.14-1.78,3.34-4.55,5.69-7.04
		c0-0.07,0.07-0.07,0.07-0.14c0.5,2.77,2.84,4.83,5.76,4.83c2.91,0,5.26-2.06,5.76-4.83c0,0.07,0.07,0.07,0.07,0.14
		c2.35,2.49,4.55,5.26,5.69,7.04c-1.35,0-3.06-0.21-4.19-0.28C1932.87,2088.49,1931.44,2088.35,1930.38,2088.35z"/>
</g>
<path class="st2" d="M1898.76,2079.8c0.4,0.4,1.05-0.08,0.81-0.56l-2.42-4.92l3.3-0.81c0.32-0.08,0.48-0.4,0.32-0.73l-4.03-7.5
	c-0.08-0.16-0.32-0.32-0.56-0.24l-3.47,0.81c-0.32,0.08-0.48,0.48-0.32,0.81l3.14,4.43l-3.06,0.73c-0.4,0.08-0.48,0.56-0.24,0.81
	L1898.76,2079.8z"/>
<path class="st2" d="M1905.57,2070.13l3.3,0.81l-2.42,4.92c-0.24,0.48,0.4,0.97,0.81,0.56l6.61-7.09c0.24-0.32,0.16-0.73-0.24-0.81
	l-3.06-0.81l3.14-4.43c0.24-0.32,0.08-0.73-0.32-0.81l-3.47-0.81c-0.24-0.08-0.48,0.08-0.56,0.24l-4.03,7.5
	C1905.08,2069.73,1905.32,2070.05,1905.57,2070.13z"/>
<g>
	<path class="st2" d="M2127.3,2077.06c4.13,0,7.45-3.35,7.45-7.45c0-4.13-3.33-7.47-7.45-7.47c-4.13,0-7.47,3.35-7.47,7.47
		C2119.83,2073.72,2123.17,2077.06,2127.3,2077.06L2127.3,2077.06z"/>
	<path class="st2" d="M2156.47,2130.52c-1.76,0-3.47-0.4-4.97-1.06c-1.54-0.72-3.29-1.14-5.11-1.14c-1.8,0-3.55,0.42-5.09,1.14
		c-1.52,0.66-3.21,1.06-4.97,1.06c-1.76,0-3.45-0.4-4.95-1.06c-1.54-0.72-3.29-1.14-5.11-1.14c-1.82,0-3.57,0.42-5.11,1.14
		c-1.5,0.66-3.18,1.06-4.95,1.06c-1.76,0-3.45-0.4-4.97-1.06c-1.54-0.72-3.27-1.14-5.09-1.14c-1.82,0-3.57,0.42-5.11,1.14
		c-1.5,0.66-3.19,1.06-4.95,1.06c-1.74,0-3.43-0.4-4.95-1.06c-1.54-0.72-3.29-1.14-5.09-1.14c-1.82,0-3.57,0.42-5.11,1.14
		c-1.5,0.66-3.19,1.06-4.95,1.06v-7.43c1.76,0,3.45-0.38,4.95-1.06c1.54-0.72,3.29-1.14,5.11-1.14c1.8,0,3.55,0.42,5.09,1.14
		c1.52,0.68,3.21,1.06,4.95,1.06c1.76,0,3.45-0.38,4.95-1.06c1.54-0.72,3.29-1.14,5.11-1.14c1.82,0,3.55,0.42,5.09,1.14
		c1.52,0.68,3.21,1.06,4.97,1.06c1.76,0,3.45-0.38,4.95-1.06c1.54-0.72,3.29-1.14,5.11-1.14c1.82,0,3.57,0.42,5.11,1.14
		c1.5,0.68,3.18,1.06,4.95,1.06c1.76,0,3.45-0.38,4.97-1.06c1.54-0.72,3.29-1.14,5.09-1.14c1.82,0,3.57,0.42,5.11,1.14
		c1.5,0.68,3.21,1.06,4.97,1.06V2130.52z"/>
	<path class="st2" d="M2081.13,2115.71c1.5-0.68,3.17-1.06,4.93-1.06c1.8,0,3.55,0.42,5.09,1.14c1.52,0.66,3.21,1.06,4.95,1.06
		c1.76,0,3.45-0.4,4.95-1.06c1.54-0.72,3.29-1.14,5.11-1.14c1.82,0,3.55,0.42,5.09,1.14c1.52,0.66,3.21,1.06,4.97,1.06
		c1.76,0,3.45-0.4,4.95-1.06c0.98-0.46,2-0.76,3.09-0.96l12.86-14.71h-16.55l6.85-11.76l15.03,8.21c4.97,2.8,8.64-3.67,3.65-6.47
		l-21.52-11.9c-7.92-4.41-11.26,2.91-11.26,2.91l-11.1,18.75l-29.23-0.02C2073.9,2105.2,2078.71,2112.37,2081.13,2115.71
		L2081.13,2115.71z"/>
	<path class="st2" d="M2128.12,2114.79c1.14,0.18,2.24,0.52,3.27,1c1.5,0.66,3.18,1.06,4.95,1.06c1.76,0,3.45-0.4,4.97-1.06
		c1.54-0.72,3.29-1.14,5.09-1.14c1.82,0,3.57,0.42,5.11,1.14c1.5,0.66,3.21,1.06,4.97,1.06l-0.04-16.73l-15.51-0.02L2128.12,2114.79
		z"/>
</g>
<g>
	<path d="M-4780.81,2202.62v-1.51c0-2.38-1.93-4.31-4.31-4.31h-0.32l-2.6-10.41c-0.16-0.64-0.73-1.09-1.39-1.09h-2.88
		c-0.66,0-1.23,0.45-1.39,1.09l-2.6,10.41h-0.32c-2.38,0-4.31,1.93-4.31,4.31v1.51c-2.44,0.35-4.31,2.43-4.31,4.96v9.34v25.87v2.16
		c0,0.4,0.32,0.72,0.72,0.72h1.44c0.4,0,0.72-0.32,0.72-0.72v-0.72h23v5.03c0,1.19-0.97,2.16-2.16,2.16h-18.69
		c-1.19,0-2.16-0.97-2.16-2.16c0-0.4-0.32-0.72-0.72-0.72h-1.44c-0.4,0-0.72,0.32-0.72,0.72c0,2.78,2.25,5.03,5.03,5.03h18.69
		c2.78,0,5.03-2.25,5.03-5.03v-6.47v-25.87v-9.34C-4776.49,2205.05-4778.37,2202.98-4780.81,2202.62z M-4791.18,2188.18h0.63
		l2.16,8.62h-4.94L-4791.18,2188.18z M-4798.05,2201.11c0-0.79,0.64-1.44,1.44-1.44h1.44h8.62h1.44c0.79,0,1.44,0.64,1.44,1.44v1.44
		h-14.37V2201.11z M-4800.21,2205.43h0.72h17.25h0.72c1.19,0,2.16,0.97,2.16,2.16v7.91h-23v-7.91
		C-4802.37,2206.39-4801.4,2205.43-4800.21,2205.43z M-4802.37,2241.36v-23h23v23H-4802.37z"/>
	<path d="M-4787.76,2224.52c0.4-0.13,0.84-0.24,1.37-0.31c0.72-0.09,1.27-0.69,1.27-1.41v-0.03c0-0.84-0.73-1.52-1.57-1.42
		c-1.03,0.13-1.95,0.39-2.75,0.74v-0.85c0-0.79-0.64-1.44-1.44-1.44s-1.44,0.64-1.44,1.44v0.56c-0.95-0.33-1.99-0.47-2.86-0.52
		c-0.79-0.05-1.45,0.57-1.45,1.36v0.16c0,0.72,0.58,1.31,1.3,1.36c0.8,0.05,1.38,0.15,1.81,0.27c-3.69,0.8-5.99,3.31-5.99,6.89
		c0,4.76,3.86,8.62,8.62,8.62c4.76,0,8.62-3.86,8.62-8.62C-4782.24,2227.88-4784.34,2225.43-4787.76,2224.52z M-4790.87,2237.05
		c-3.18,0-5.75-2.57-5.75-5.75c0-3.89,4.02-4.31,5.75-4.31c1.73,0,5.75,0.42,5.75,4.31
		C-4785.12,2234.47-4787.69,2237.05-4790.87,2237.05z"/>
</g>
<g>
	<path d="M35.07,75.51h-5.04c-0.26,0-0.51-0.12-0.68-0.33c-0.17-0.21-0.24-0.48-0.19-0.74l1.34-5.56c0.14-0.5,0.21-1.14,0.22-1.86
		c-0.48-0.98-0.4-2.29-0.29-3.45c0.17-1.92,0.75-7.21,0.75-7.27c0.09-0.69,0.75-1.19,1.45-1.11c0.33,0.04,0.63,0.21,0.84,0.49
		c0.16,0.21,0.26,0.46,0.27,0.71l0.16-0.87c0.18-0.71,0.87-1.16,1.52-1.02c0.34,0.05,0.65,0.24,0.85,0.53
		c0.19,0.28,0.26,0.63,0.18,0.95l-0.42,2.25l0.9-2.98c0.25-0.67,0.92-1.02,1.59-0.85l0.04,0.01c0.65,0.24,1.01,0.9,0.84,1.57
		l-1.04,3.41l1.02-2.36c0.33-0.66,1.02-0.93,1.68-0.68l0.04,0.02c0.64,0.32,0.92,1,0.67,1.66c-0.02,0.05-1.51,3.45-1.8,4.18
		l-0.12,0.31c-0.21,0.54-0.35,0.89-0.49,1.43c0,0,0.01,0,0.01-0.01c0.01-0.01,0.91-0.68,1.44-1.02l0,0
		c0.71-0.47,1.45-0.42,1.93,0.13c0.25,0.29,0.38,0.68,0.35,1.06c-0.03,0.36-0.19,0.68-0.45,0.9c-0.08,0.08-2.51,2.53-3.98,3.52
		c-0.41,0.27-0.77,0.46-1.11,0.57c-0.23,0.41-0.48,0.91-0.57,1.35l-1.04,4.41C35.8,75.26,35.45,75.51,35.07,75.51z M32.48,56.01
		c-0.23,0-0.45,0.18-0.47,0.39c0,0.05-0.58,5.33-0.75,7.25c-0.11,1.16-0.16,2.34,0.24,3.08l0.05,0.09v0.1
		c0,0.85-0.08,1.58-0.25,2.17l-1.33,5.53c0,0,0.01,0.02,0.02,0.04c0.01,0.02,0.03,0.03,0.04,0.03h5.04c0.03,0,0.07-0.04,0.07-0.06
		l1.03-4.37c0.13-0.59,0.46-1.22,0.74-1.71l0.08-0.15l0.16-0.05c0.3-0.08,0.64-0.25,1.04-0.52c1.39-0.94,3.85-3.41,3.87-3.43
		c0.15-0.13,0.18-0.26,0.19-0.36c0.01-0.16-0.04-0.33-0.15-0.45c-0.25-0.29-0.6-0.15-0.85,0.02l0,0c-0.51,0.33-1.42,1.01-1.43,1.02
		c-0.39,0.24-0.76,0.24-1.04,0.03c-0.25-0.2-0.35-0.56-0.24-0.89c0.15-0.58,0.3-0.98,0.52-1.54l0.12-0.3
		c0.29-0.74,1.74-4.05,1.8-4.19c0.09-0.24,0-0.46-0.25-0.6c-0.26-0.09-0.5,0.01-0.63,0.26l-1.79,4.15
		c-0.14,0.27-0.39,0.42-0.67,0.42h-0.12l-0.06-0.02c-0.19-0.06-0.52-0.24-0.52-0.73l0.02-0.12l1.62-5.32
		c0.06-0.24-0.06-0.47-0.31-0.57c-0.26-0.06-0.5,0.07-0.59,0.32l-1.7,5.59c-0.16,0.32-0.46,0.47-0.75,0.39
		c-0.32-0.04-0.56-0.33-0.56-0.69l0.01-0.08l0.93-4.92c0.04-0.15-0.02-0.26-0.05-0.31c-0.07-0.1-0.18-0.17-0.29-0.18l-0.05-0.01
		c-0.24-0.06-0.49,0.16-0.54,0.39l-0.92,4.86c-0.03,0.34-0.32,0.59-0.7,0.59c-0.36,0-0.64-0.38-0.64-0.7l0-0.05l0.46-3.89
		c0.01-0.12-0.02-0.24-0.1-0.34c-0.08-0.1-0.18-0.16-0.29-0.18C32.51,56.01,32.49,56.01,32.48,56.01z"/>
	<path d="M84.03,75.4h-5.04c-0.43,0-0.76-0.25-0.86-0.65l-1.04-4.41c-0.1-0.44-0.35-0.94-0.57-1.35c-0.34-0.12-0.7-0.3-1.11-0.57
		c-1.41-0.99-3.9-3.43-4-3.54c-0.27-0.22-0.44-0.58-0.46-0.96c-0.01-0.38,0.13-0.73,0.4-1c0.57-0.48,1.24-0.49,1.91-0.05
		c0.49,0.32,1.3,0.92,1.45,1.03c-0.17-0.59-0.33-1.03-0.61-1.73c-0.28-0.73-1.77-4.12-1.79-4.16c-0.14-0.36-0.13-0.74,0.01-1.06
		c0.13-0.3,0.38-0.52,0.68-0.63c0.7-0.26,1.44,0.05,1.69,0.7l1.1,2.51l-1.07-3.5c-0.1-0.37-0.04-0.75,0.14-1.06
		c0.17-0.28,0.43-0.47,0.73-0.55c0.72-0.18,1.43,0.21,1.6,0.87l1.01,3.18l-0.48-2.55c-0.05-0.37,0.05-0.73,0.26-1.01
		c0.2-0.25,0.48-0.41,0.79-0.45c0.72-0.08,1.32,0.32,1.49,0.99l0.17,0.91c0.05-0.6,0.5-1.09,1.12-1.16c0.72-0.09,1.36,0.4,1.44,1.1
		c0.01,0.06,0.52,5.35,0.7,7.28c0.11,1.22,0.18,2.49-0.29,3.45c0.01,0.72,0.08,1.36,0.22,1.85l0,0.02l1.27,5.43
		c0.06,0.27-0.01,0.54-0.19,0.75C84.54,75.28,84.3,75.4,84.03,75.4z M72.29,63.36c-0.16,0-0.28,0.07-0.39,0.16
		c-0.11,0.11-0.13,0.26-0.13,0.36c0.01,0.15,0.07,0.29,0.19,0.38c0.05,0.05,2.56,2.52,3.91,3.46c0.39,0.26,0.73,0.43,1.03,0.51
		l0.16,0.05l0.08,0.15c0.27,0.49,0.6,1.12,0.74,1.71l1.04,4.4c0.01,0.02,0.02,0.03,0.06,0.03h5.04c0.01,0,0.03-0.01,0.04-0.03
		c0.01-0.01,0.02-0.03,0.02-0.05l-1.27-5.41c-0.16-0.59-0.24-1.32-0.24-2.16v-0.1l0.05-0.09c0.41-0.77,0.35-1.94,0.24-3.08
		c-0.17-1.92-0.69-7.21-0.7-7.26c-0.03-0.21-0.22-0.41-0.53-0.37c-0.22,0.03-0.42,0.21-0.39,0.52l0.47,3.88c0,0.4-0.28,0.7-0.64,0.7
		c-0.46,0-0.68-0.29-0.7-0.59l-0.92-4.89c-0.06-0.25-0.29-0.39-0.59-0.35c-0.11,0.01-0.19,0.08-0.23,0.14
		c-0.08,0.1-0.11,0.24-0.1,0.37l0.93,4.97c0,0.96-1.24,0.86-1.34,0.2L76.4,55.5c-0.07-0.26-0.37-0.35-0.61-0.3
		c-0.12,0.03-0.18,0.11-0.22,0.17c-0.07,0.12-0.09,0.27-0.06,0.41l1.62,5.3c0.05,0.16,0.04,0.33-0.03,0.48
		c-0.09,0.17-0.25,0.3-0.47,0.37l-0.06,0.02h-0.12c-0.28,0-0.53-0.15-0.66-0.4l-1.86-4.25c-0.11-0.28-0.41-0.32-0.64-0.24
		c-0.1,0.04-0.18,0.11-0.22,0.2c-0.05,0.12-0.06,0.27,0,0.41c0.05,0.12,1.51,3.43,1.8,4.17c0.29,0.73,0.47,1.21,0.65,1.87
		c0.1,0.35,0.01,0.7-0.25,0.89c-0.27,0.2-0.64,0.19-1-0.03c-0.04-0.03-0.95-0.7-1.46-1.04C72.59,63.41,72.42,63.36,72.29,63.36z
		 M76.34,61.33C76.34,61.33,76.34,61.34,76.34,61.33L76.34,61.33z"/>
	<path d="M49.67,75.57h-4.93c-0.52,0-0.88-0.36-0.88-0.87l0.93-13.75c0.05-0.55,0.01-1.48-0.09-2.09c-0.62-0.86-0.78-2.17-0.89-3.33
		c-0.17-1.93-0.52-7.22-0.52-7.27c-0.04-0.31,0.07-0.66,0.31-0.93c0.23-0.27,0.56-0.42,0.89-0.43c0.33-0.03,0.68,0.08,0.94,0.32
		c0.27,0.24,0.42,0.56,0.42,0.9l0.03,0.42l0.02-1.63c0-0.71,0.56-1.26,1.28-1.26c0.69,0,1.28,0.58,1.28,1.27l-0.03,2.76l0.43-3.55
		c0.09-0.68,0.75-1.19,1.44-1.1c0.33,0.04,0.63,0.21,0.84,0.49c0.21,0.27,0.31,0.62,0.27,0.94l-0.53,4.22l0.77-3.28
		c0.17-0.69,0.87-1.1,1.54-0.94c0.34,0.08,0.62,0.29,0.8,0.59c0.17,0.29,0.22,0.62,0.14,0.94c-0.01,0.03-0.87,3.66-1.04,4.45
		c-0.04,0.28-0.08,0.54-0.13,0.77c-0.06,0.36-0.12,0.68-0.15,1.06c0.13-0.14,0.84-0.88,1.28-1.26c0.4-0.39,0.8-0.56,1.16-0.5
		c0.25,0.04,0.46,0.19,0.61,0.43c0.27,0.25,0.43,0.6,0.46,0.96c0.03,0.35-0.08,0.69-0.3,0.94c-0.06,0.09-2.1,2.93-3.32,4.14
		c-0.32,0.32-0.63,0.56-0.93,0.73c-0.02,0.06-0.04,0.13-0.06,0.19c-0.14,0.44-0.28,0.85-0.28,1.24l-0.87,13.63
		C50.55,75.2,50.15,75.57,49.67,75.57z M44.51,47.73c-0.1,0-0.21,0.06-0.29,0.15c-0.08,0.09-0.12,0.2-0.11,0.3
		c0.01,0.08,0.35,5.36,0.52,7.28c0.1,1.09,0.25,2.3,0.78,2.98l0.06,0.08l0.02,0.1c0.13,0.69,0.18,1.75,0.12,2.4l-0.93,13.71
		c0,0.01,0,0.01,0.01,0.02c0,0,0.02,0,0.05,0h4.93c0.03,0,0.05-0.02,0.06-0.02l0.86-13.6c0-0.5,0.16-0.99,0.32-1.47
		c0.04-0.11,0.07-0.22,0.11-0.34l0.05-0.17l0.16-0.08c0.26-0.13,0.57-0.36,0.88-0.67c1.18-1.16,3.24-4.03,3.26-4.06
		c0.12-0.14,0.13-0.28,0.13-0.37c-0.01-0.17-0.1-0.34-0.23-0.45l-0.06-0.05l-0.04-0.07c-0.03-0.05-0.05-0.07-0.05-0.07
		c-0.02,0-0.19,0.03-0.45,0.29l-0.02,0.02c-0.44,0.38-1.24,1.22-1.24,1.23l-0.03,0.03c-0.33,0.28-0.7,0.34-1,0.18
		c-0.28-0.16-0.42-0.48-0.37-0.83c0.03-0.42,0.09-0.76,0.16-1.16c0.04-0.23,0.08-0.48,0.13-0.78c0.18-0.82,1.01-4.35,1.05-4.5
		c0.03-0.11,0.01-0.23-0.05-0.32c-0.06-0.11-0.17-0.18-0.29-0.21c-0.24-0.06-0.48,0.09-0.54,0.33l-1.03,4.42
		c-0.03,0.33-0.33,0.58-0.7,0.58H50.6c-0.4,0-0.7-0.3-0.7-0.7l0-0.05l0.7-5.49c0.01-0.11-0.02-0.23-0.1-0.33
		c-0.08-0.1-0.18-0.16-0.29-0.18c-0.24-0.03-0.5,0.16-0.53,0.39l-0.69,5.75c-0.02,0.34-0.33,0.61-0.7,0.61c-0.4,0-0.7-0.3-0.7-0.7
		l0.06-4.98c0-0.22-0.22-0.44-0.46-0.44c-0.23,0-0.46,0.15-0.46,0.45l-0.06,4.98c0,0.39-0.3,0.69-0.7,0.69
		c-0.32,0-0.55-0.25-0.66-0.45l-0.04-0.08l-0.24-3.92c0-0.12-0.05-0.22-0.14-0.3c-0.1-0.08-0.22-0.13-0.32-0.11L44.51,47.73z"/>
	<path d="M69.26,75.34h-5.04c-0.47,0-0.88-0.37-0.88-0.81l-0.87-13.58c-0.05-0.46-0.18-0.94-0.34-1.45
		c-0.33-0.17-0.65-0.41-0.99-0.75c-1.28-1.21-3.27-4.05-3.35-4.17c-0.23-0.3-0.34-0.68-0.28-1.04c0.05-0.35,0.25-0.67,0.55-0.9
		c0.33-0.23,0.99-0.49,1.85,0.25c0.44,0.38,1.16,1.13,1.29,1.27c-0.06-0.65-0.11-1.08-0.28-1.84c-0.12-0.8-1.03-4.41-1.04-4.45
		c-0.08-0.32-0.03-0.66,0.14-0.94c0.18-0.29,0.46-0.5,0.8-0.59c0.68-0.16,1.37,0.25,1.54,0.93l0.77,3.29l-0.53-4.22
		c-0.08-0.72,0.41-1.35,1.11-1.43c0.72-0.08,1.36,0.4,1.44,1.1l0.43,3.55l-0.03-2.75c0-0.69,0.59-1.28,1.28-1.28
		c0.69,0,1.28,0.58,1.28,1.27l0.02,1.61l0.03-0.44c0.09-0.73,0.71-1.25,1.36-1.19c0.36,0.01,0.7,0.17,0.94,0.44
		c0.2,0.24,0.3,0.54,0.26,0.81c-0.02,0.34-0.35,5.38-0.52,7.25c-0.05,1.09-0.2,2.46-0.89,3.34c-0.1,0.61-0.14,1.53-0.09,2.07
		l0.93,13.73C70.13,74.96,69.75,75.34,69.26,75.34z M64.16,74.5c0,0,0.03,0.01,0.05,0.01h5.04c0.01,0,0.05,0,0.05-0.05l-0.93-13.69
		c-0.06-0.64-0.01-1.7,0.12-2.39l0.02-0.11l0.07-0.08c0.6-0.7,0.73-2.02,0.77-2.95c0.17-1.93,0.52-7.21,0.52-7.27l0-0.04
		c0-0.02-0.01-0.09-0.07-0.17c-0.04-0.05-0.15-0.15-0.33-0.15l-0.05,0c-0.23-0.02-0.44,0.21-0.47,0.44l-0.23,3.8
		c0,0.33-0.31,0.62-0.7,0.62c-0.4,0-0.7-0.3-0.7-0.7l-0.06-4.97c0-0.23-0.22-0.45-0.46-0.45c-0.23,0-0.46,0.22-0.46,0.45l0.06,4.97
		c0,0.4-0.3,0.7-0.7,0.7c-0.31,0-0.55-0.24-0.66-0.45l-0.03-0.07l-0.7-5.85c-0.03-0.21-0.22-0.42-0.53-0.38
		c-0.22,0.03-0.42,0.21-0.39,0.52l0.7,5.53c0,0.4-0.3,0.7-0.7,0.7h-0.12c-0.32,0-0.57-0.19-0.68-0.51l-0.01-0.04l-1.04-4.46
		c-0.06-0.23-0.3-0.38-0.54-0.32c-0.12,0.03-0.23,0.1-0.29,0.21c-0.06,0.1-0.07,0.21-0.05,0.32c0.04,0.15,0.93,3.69,1.05,4.5
		c0.17,0.8,0.23,1.27,0.29,1.97c0.05,0.36-0.11,0.7-0.41,0.85c-0.31,0.16-0.68,0.07-0.99-0.24c-0.02-0.02-0.81-0.86-1.25-1.24
		c-0.5-0.43-0.74-0.27-0.83-0.2c-0.12,0.09-0.2,0.21-0.22,0.34c-0.02,0.14,0.03,0.3,0.13,0.44c0.03,0.04,2.03,2.91,3.26,4.07
		c0.33,0.33,0.63,0.54,0.92,0.66l0.18,0.08l0.06,0.18c0.18,0.58,0.36,1.18,0.42,1.79L64.16,74.5z M67.92,51.8c0,0.01,0,0.02,0,0.03
		L67.92,51.8z M68.16,51.77L68.16,51.77C68.16,51.77,68.16,51.77,68.16,51.77z"/>
</g>
<g>
	<g>
		<path d="M43.24,25.93c-0.61,0-1.09,0.4-1.28,1.15l-1.41,5.54c-0.07,0.3-0.01,0.64,0.2,0.9c0.25,0.32,0.67,0.56,1.08,0.56h9.1
			c0.41,0,0.83-0.25,1.08-0.57c0.09-0.12,0.15-0.27,0.19-0.4c0.04,0.13,0.1,0.3,0.19,0.42c0.25,0.32,0.67,0.56,1.08,0.56h9.1
			c0.41,0,0.83-0.25,1.08-0.57c0.09-0.12,0.15-0.27,0.19-0.4c0.04,0.13,0.1,0.3,0.19,0.42c0.25,0.32,0.67,0.56,1.08,0.56h9.1
			c0.41,0,0.83-0.25,1.08-0.57c0.2-0.26,0.27-0.59,0.19-0.88l-1.41-5.53c-0.19-0.75-0.67-1.16-1.28-1.16h-3.45
			c0.1-0.39,0.12-0.47,0.06-0.69l-1.41-5.53c-0.19-0.75-0.66-1.16-1.28-1.16h-3.45c0.1-0.39,0.12-0.49,0.06-0.7l-1.41-5.52
			c-0.19-0.75-0.66-1.15-1.28-1.15h-6.29c-0.61,0-1.09,0.37-1.28,1.12l-1.41,5.58c-0.05,0.22-0.03,0.28,0.06,0.67h-2.95
			c-0.61,0-1.09,0.39-1.28,1.13l-1.41,5.58c-0.05,0.22-0.03,0.27,0.06,0.66H43.24z M51.4,33.03c-0.1,0.13-0.3,0.27-0.47,0.27h-9.1
			c-0.17,0-0.37-0.14-0.47-0.27c-0.08-0.1-0.06-0.19-0.06-0.22l1.41-5.53c0.06-0.23,0.2-0.57,0.52-0.57h6.29
			c0.32,0,0.47,0.34,0.52,0.56l1.41,5.57C51.46,32.86,51.48,32.93,51.4,33.03z M52.2,32.57l-1.4-5.48c-0.04-0.17-0.1-0.39-0.17-0.39
			h3.14c-0.07,0-0.13,0.22-0.17,0.39L52.2,32.57z M57.77,25.17l-1.4-5.46c-0.04-0.17-0.1-0.38-0.17-0.38h3.14
			c-0.07,0-0.13,0.21-0.17,0.38L57.77,25.17z M57.77,25.68c0.02,0.06,0.03,0.11,0.06,0.17h-0.12
			C57.74,25.79,57.75,25.73,57.77,25.68z M63.04,33.03c-0.1,0.13-0.3,0.27-0.47,0.27h-9.1c-0.17,0-0.37-0.14-0.47-0.27
			c-0.08-0.1-0.06-0.19-0.05-0.22l1.41-5.53c0.06-0.23,0.2-0.57,0.52-0.57h6.29c0.32,0,0.47,0.34,0.52,0.56l1.41,5.57
			C63.1,32.86,63.12,32.93,63.04,33.03z M63.84,32.57l-1.4-5.48c-0.04-0.17-0.1-0.39-0.17-0.39h3.14c-0.07,0-0.13,0.22-0.17,0.39
			L63.84,32.57z M73.33,27.27l1.41,5.54c0.01,0.02,0.02,0.13-0.05,0.23c-0.1,0.13-0.3,0.26-0.47,0.26h-9.1
			c-0.17,0-0.37-0.14-0.47-0.27c-0.08-0.1-0.06-0.19-0.06-0.22l1.4-5.53c0.06-0.23,0.2-0.57,0.52-0.57h6.29
			C73.13,26.71,73.27,27.04,73.33,27.27z M67.26,19.88l1.41,5.53c0.01,0.02,0.02,0.14-0.05,0.24c-0.1,0.13-0.3,0.27-0.47,0.27h-9.1
			c-0.17,0-0.37-0.15-0.47-0.29c-0.08-0.1-0.06-0.2-0.06-0.22l1.41-5.52c0.06-0.23,0.2-0.56,0.52-0.56h6.29
			C67.06,19.34,67.2,19.66,67.26,19.88z M52.45,17.99l1.41-5.49c0.06-0.23,0.2-0.53,0.52-0.53h6.29c0.32,0,0.47,0.31,0.52,0.53
			l1.41,5.53c0.01,0.02,0.02,0.15-0.05,0.25c-0.1,0.13-0.3,0.28-0.47,0.28h-9.1c-0.17,0-0.37-0.17-0.47-0.3
			C52.42,18.16,52.44,18.01,52.45,17.99z M46.88,25.39l1.41-5.5c0.06-0.23,0.2-0.55,0.52-0.55h6.29c0.32,0,0.47,0.32,0.52,0.55
			l1.41,5.53c0.01,0.02,0.02,0.14-0.05,0.24c-0.1,0.13-0.3,0.27-0.47,0.27h-9.1c-0.17,0-0.37-0.16-0.47-0.29
			C46.85,25.54,46.87,25.41,46.88,25.39z"/>
		<path d="M74.21,34.21h-9.1c-0.43,0-0.9-0.24-1.19-0.61c-0.03-0.04-0.06-0.08-0.08-0.13c-0.02,0.04-0.05,0.08-0.08,0.12
			c-0.3,0.38-0.76,0.62-1.19,0.62h-9.1c-0.43,0-0.9-0.24-1.19-0.61c-0.03-0.04-0.06-0.08-0.08-0.13c-0.02,0.04-0.05,0.08-0.08,0.11
			c-0.3,0.38-0.76,0.62-1.19,0.62h-9.1c-0.43,0-0.9-0.24-1.19-0.61c-0.22-0.29-0.31-0.67-0.22-1.01l1.41-5.54
			c0.2-0.8,0.72-1.25,1.41-1.25h2.78c-0.06-0.25-0.08-0.34-0.02-0.55l1.41-5.58c0.2-0.79,0.71-1.24,1.41-1.24h2.78
			c-0.06-0.25-0.08-0.35-0.02-0.56l1.41-5.58c0.2-0.78,0.71-1.22,1.41-1.22h6.29c0.7,0,1.21,0.46,1.41,1.25l1.41,5.52
			c0.05,0.21,0.04,0.33-0.02,0.6h3.28c0.68,0,1.21,0.47,1.41,1.26l1.41,5.52c0.05,0.21,0.04,0.32-0.02,0.59h3.28
			c0.68,0,1.21,0.47,1.41,1.26l1.41,5.53c0.09,0.34,0,0.71-0.22,1C75.11,33.97,74.64,34.21,74.21,34.21z M63.91,32.84l0.06,0.22
			c0.04,0.15,0.1,0.28,0.17,0.37c0.24,0.3,0.63,0.5,0.97,0.5h9.1c0.34,0,0.73-0.21,0.97-0.52c0.17-0.22,0.23-0.51,0.17-0.76
			l-1.41-5.53c-0.17-0.67-0.59-1.06-1.14-1.06h-3.63l0.04-0.17c0.09-0.38,0.11-0.44,0.06-0.62l-1.41-5.53
			c-0.17-0.67-0.58-1.05-1.14-1.05H63.1l0.04-0.17c0.1-0.39,0.11-0.46,0.06-0.64l-1.41-5.52c-0.17-0.66-0.58-1.05-1.14-1.05h-6.29
			c-0.57,0-0.98,0.36-1.14,1.01l-1.41,5.58c-0.04,0.17-0.03,0.21,0.04,0.51l0.06,0.26h-3.13c-0.57,0-0.97,0.37-1.14,1.03l-1.41,5.58
			c-0.04,0.16-0.03,0.2,0.04,0.49l0.07,0.27h-3.13c-0.56,0-0.97,0.38-1.14,1.04l-1.41,5.54c-0.07,0.26,0,0.56,0.17,0.78
			c0.24,0.3,0.63,0.51,0.97,0.51h9.1c0.34,0,0.73-0.21,0.97-0.52c0.07-0.09,0.13-0.21,0.16-0.35l0.06-0.22l-1.46-5.71
			c-0.02-0.07-0.07-0.27-0.1-0.31c0.01,0.01,0.03,0.03,0.06,0.03v-0.28h3.14v0.28c0.04,0,0.06-0.02,0.06-0.03
			c-0.03,0.04-0.09,0.25-0.1,0.31l-1.46,5.71l0.06,0.22c0.04,0.15,0.1,0.29,0.16,0.37c0.24,0.3,0.63,0.51,0.97,0.51h9.1
			c0.34,0,0.73-0.21,0.97-0.52c0.09-0.12,0.14-0.27,0.16-0.35l0.06-0.23l-1.46-5.71c-0.02-0.07-0.07-0.27-0.1-0.31
			c0.01,0.01,0.03,0.02,0.06,0.02v-0.28h3.14v0.28c0.04,0,0.06-0.02,0.06-0.02c-0.02,0.03-0.06,0.13-0.1,0.31L63.91,32.84z
			 M50.87,26.84c0.02,0.07,0.04,0.14,0.06,0.22l1.27,4.96l1.27-4.96c0.02-0.08,0.04-0.16,0.06-0.22H50.87z M62.51,26.84
			c0.02,0.07,0.04,0.14,0.06,0.22l1.27,4.96l1.27-4.96c0.02-0.08,0.04-0.15,0.06-0.22H62.51z M74.21,33.44h-9.1
			c-0.22,0-0.45-0.16-0.58-0.32c-0.08-0.1-0.11-0.22-0.08-0.33l1.41-5.54c0.11-0.43,0.35-0.68,0.66-0.68h6.29
			c0.31,0,0.55,0.24,0.66,0.67l1.41,5.54c0.02,0.08,0.02,0.23-0.08,0.35C74.67,33.27,74.44,33.44,74.21,33.44z M66.52,26.84
			c-0.24,0-0.35,0.3-0.39,0.47l-1.4,5.53c0,0.02,0,0.06,0.03,0.1c0.08,0.11,0.24,0.22,0.36,0.22h9.1c0.12,0,0.28-0.11,0.36-0.21
			c0.04-0.05,0.03-0.11,0.03-0.11l-1.41-5.54c-0.04-0.17-0.15-0.46-0.39-0.46H66.52z M62.57,33.44h-9.1c-0.22,0-0.45-0.17-0.58-0.32
			c-0.11-0.14-0.09-0.28-0.08-0.33l1.41-5.53c0.11-0.43,0.35-0.68,0.66-0.68h6.29c0.31,0,0.55,0.24,0.66,0.67l1.41,5.57
			c0.03,0.1,0,0.21-0.08,0.31C63.03,33.27,62.79,33.44,62.57,33.44z M54.88,26.84c-0.24,0-0.35,0.29-0.39,0.47l-1.41,5.53
			c0,0.01-0.01,0.05,0.03,0.1c0.08,0.1,0.24,0.22,0.36,0.22h9.1c0.12,0,0.28-0.11,0.36-0.22l0,0c0.02-0.03,0.03-0.06,0.03-0.07
			l-1.41-5.57c-0.04-0.17-0.15-0.46-0.39-0.46H54.88z M50.93,33.44h-9.1c-0.22,0-0.45-0.17-0.58-0.32c-0.08-0.1-0.11-0.22-0.08-0.33
			l1.41-5.54c0.11-0.43,0.35-0.68,0.66-0.68h6.29c0.31,0,0.55,0.24,0.66,0.67l1.41,5.57c0.03,0.1,0,0.21-0.08,0.31l0,0
			C51.38,33.27,51.16,33.44,50.93,33.44z M43.24,26.84c-0.24,0-0.35,0.3-0.39,0.47l-1.41,5.53c0,0.02,0,0.06,0.03,0.1
			c0.08,0.1,0.24,0.22,0.36,0.22h9.1c0.12,0,0.28-0.11,0.36-0.22c0.02-0.03,0.03-0.06,0.03-0.07l-1.41-5.57
			c-0.04-0.17-0.15-0.46-0.39-0.46H43.24z M68.14,26.07h-9.1c-0.23,0-0.45-0.18-0.58-0.34c-0.11-0.15-0.09-0.3-0.08-0.34l1.41-5.52
			c0.11-0.42,0.35-0.67,0.66-0.67h6.29c0.31,0,0.55,0.24,0.66,0.65l1.41,5.53c0.01,0.02,0.04,0.2-0.08,0.36
			C68.59,25.9,68.36,26.07,68.14,26.07z M60.44,19.47c-0.24,0-0.35,0.29-0.39,0.46l-1.41,5.52c0,0.01-0.01,0.05,0.03,0.11
			c0.09,0.11,0.24,0.23,0.36,0.23h9.1c0.12,0,0.28-0.11,0.36-0.22c0.04-0.06,0.03-0.12,0.03-0.12l-1.41-5.53
			c-0.04-0.17-0.15-0.44-0.39-0.44H60.44z M56.5,26.07h-9.1c-0.25,0-0.48-0.21-0.58-0.34c-0.1-0.13-0.1-0.3-0.08-0.37l0,0l1.41-5.5
			c0.1-0.41,0.34-0.65,0.66-0.65h6.29c0.31,0,0.55,0.24,0.66,0.65l1.41,5.53c0.01,0.02,0.04,0.2-0.08,0.36
			C56.96,25.9,56.72,26.07,56.5,26.07z M47.01,25.42c0,0.01-0.01,0.09,0.03,0.14c0.09,0.11,0.25,0.23,0.36,0.23h9.1
			c0.12,0,0.28-0.11,0.36-0.22c0.04-0.05,0.03-0.12,0.03-0.12l-1.41-5.53c-0.04-0.17-0.15-0.44-0.39-0.44h-6.29
			c-0.24,0-0.35,0.28-0.39,0.44L47.01,25.42z M58.04,25.98H57.5l0.09-0.2c0.02-0.05,0.04-0.1,0.05-0.14l0.06-0.21l-1.46-5.68
			c-0.06-0.22-0.09-0.28-0.1-0.3c0.01,0.01,0.03,0.02,0.06,0.02V19.2h3.14v0.28c0.03,0,0.06-0.02,0.06-0.02
			c-0.01,0.02-0.04,0.08-0.1,0.3l-1.46,5.68l0.06,0.21c0.01,0.05,0.03,0.1,0.05,0.14L58.04,25.98z M56.45,19.47
			c0.02,0.06,0.04,0.13,0.06,0.21l1.27,4.94l1.27-4.94c0.02-0.07,0.04-0.14,0.06-0.21H56.45z M62.07,18.7h-9.1
			c-0.22,0-0.45-0.19-0.58-0.35c-0.11-0.14-0.09-0.33-0.08-0.39l0,0l1.41-5.49c0.1-0.4,0.34-0.64,0.66-0.64h6.29
			c0.32,0,0.56,0.23,0.66,0.64l1.41,5.53c0,0,0.05,0.2-0.08,0.37C62.52,18.52,62.29,18.7,62.07,18.7z M52.58,18.02
			c0,0.03-0.01,0.11,0.03,0.16c0.09,0.12,0.26,0.25,0.36,0.25h9.1c0.11,0,0.27-0.12,0.36-0.23c0.04-0.05,0.03-0.12,0.03-0.14
			l-1.41-5.52c-0.05-0.2-0.16-0.43-0.39-0.43h-6.29c-0.25,0-0.35,0.27-0.39,0.43L52.58,18.02z"/>
	</g>
	<g>
		<path d="M57.52,6.5c0.21,0,0.39-0.17,0.39-0.39V1.49c0-0.21-0.17-0.39-0.39-0.39c-0.21,0-0.39,0.17-0.39,0.39v4.62
			C57.14,6.33,57.31,6.5,57.52,6.5z"/>
		<path d="M57.52,6.64C57.23,6.64,57,6.4,57,6.11V1.49c0-0.29,0.24-0.53,0.53-0.53c0.29,0,0.53,0.24,0.53,0.53v4.62
			C58.05,6.4,57.81,6.64,57.52,6.64z M57.52,1.24c-0.14,0-0.25,0.11-0.25,0.25v4.62c0,0.14,0.11,0.25,0.25,0.25s0.25-0.11,0.25-0.25
			V1.49C57.77,1.35,57.66,1.24,57.52,1.24z"/>
	</g>
	<g>
		<path d="M64.94,8.35C65,8.39,65.06,8.4,65.13,8.4c0.13,0,0.26-0.07,0.34-0.19l2.31-4c0.11-0.19,0.04-0.42-0.14-0.53
			c-0.19-0.11-0.42-0.04-0.53,0.14l-2.31,4C64.69,8.01,64.75,8.25,64.94,8.35z"/>
		<path d="M65.13,8.54c-0.09,0-0.18-0.02-0.26-0.07c-0.25-0.15-0.34-0.47-0.19-0.72l2.31-4c0.14-0.25,0.47-0.34,0.72-0.19
			c0.12,0.07,0.21,0.18,0.24,0.32c0.04,0.14,0.02,0.28-0.05,0.4l-2.31,4C65.49,8.44,65.32,8.54,65.13,8.54z M67.44,3.77
			c-0.09,0-0.17,0.05-0.22,0.13l-2.31,4c-0.07,0.12-0.03,0.27,0.09,0.34h0c0.11,0.07,0.28,0.02,0.34-0.09l2.31-4
			c0.03-0.06,0.04-0.13,0.03-0.19c-0.02-0.06-0.06-0.12-0.12-0.15C67.53,3.78,67.48,3.77,67.44,3.77z"/>
	</g>
	<g>
		<path d="M70.7,13.82c0.07,0,0.13-0.02,0.19-0.05l4-2.31c0.19-0.11,0.25-0.34,0.14-0.53c-0.11-0.19-0.35-0.25-0.53-0.14l-4,2.31
			c-0.19,0.11-0.25,0.34-0.14,0.53C70.44,13.75,70.57,13.82,70.7,13.82z"/>
		<path d="M70.7,13.96c-0.19,0-0.36-0.1-0.46-0.26c-0.07-0.12-0.09-0.26-0.05-0.4c0.04-0.14,0.12-0.25,0.25-0.32l4-2.31
			c0.12-0.07,0.26-0.09,0.4-0.05c0.14,0.04,0.25,0.12,0.32,0.24c0.07,0.12,0.09,0.26,0.05,0.4c-0.04,0.14-0.12,0.25-0.25,0.32
			l-4,2.31C70.88,13.94,70.79,13.96,70.7,13.96z M74.7,10.87c-0.04,0-0.09,0.01-0.12,0.03l-4,2.31c-0.06,0.03-0.1,0.09-0.12,0.15
			c-0.02,0.06-0.01,0.13,0.02,0.19c0.07,0.12,0.23,0.16,0.34,0.09l4-2.31c0.06-0.03,0.1-0.09,0.12-0.15
			c0.02-0.06,0.01-0.13-0.02-0.19c-0.03-0.06-0.09-0.1-0.15-0.12C74.75,10.88,74.72,10.87,74.7,10.87z"/>
	</g>
	<g>
		<path d="M49.78,8.42c0.07,0.12,0.2,0.19,0.34,0.19c0.07,0,0.13-0.02,0.19-0.05c0.19-0.11,0.25-0.34,0.14-0.53l-2.31-4
			c-0.11-0.19-0.35-0.25-0.53-0.14C47.43,4,47.36,4.23,47.47,4.42L49.78,8.42z"/>
		<path d="M50.12,8.75c-0.19,0-0.36-0.1-0.46-0.26l0,0l-2.31-4c-0.07-0.12-0.09-0.26-0.05-0.4c0.04-0.14,0.12-0.25,0.25-0.32
			c0.12-0.07,0.26-0.09,0.4-0.05c0.14,0.04,0.25,0.12,0.32,0.25l2.31,4c0.07,0.12,0.09,0.26,0.05,0.4
			c-0.04,0.14-0.12,0.25-0.25,0.32C50.3,8.73,50.21,8.75,50.12,8.75z M49.9,8.35c0.07,0.12,0.22,0.16,0.34,0.09
			c0.06-0.03,0.1-0.09,0.12-0.15c0.02-0.06,0.01-0.13-0.03-0.19l-2.31-4c-0.03-0.06-0.09-0.1-0.15-0.12
			c-0.06-0.02-0.13-0.01-0.19,0.03c-0.06,0.03-0.1,0.09-0.12,0.15c-0.02,0.06-0.01,0.13,0.03,0.19L49.9,8.35z"/>
	</g>
	<g>
		<path d="M44.7,14.19c0.13,0,0.26-0.07,0.34-0.19c0.11-0.19,0.04-0.42-0.14-0.53l-4-2.31c-0.19-0.11-0.42-0.04-0.53,0.14
			c-0.11,0.19-0.04,0.42,0.14,0.53l4,2.31C44.57,14.17,44.63,14.19,44.7,14.19z"/>
		<path d="M44.7,14.32c-0.09,0-0.18-0.02-0.26-0.07l-4-2.31c-0.12-0.07-0.21-0.18-0.24-0.32c-0.04-0.14-0.02-0.28,0.05-0.4
			c0.14-0.25,0.47-0.34,0.72-0.19l4,2.31c0.25,0.14,0.34,0.47,0.19,0.72C45.06,14.22,44.89,14.32,44.7,14.32z M40.7,11.24
			c-0.09,0-0.17,0.04-0.22,0.13c-0.03,0.06-0.04,0.13-0.03,0.19c0.02,0.06,0.06,0.12,0.12,0.15l4,2.31
			c0.12,0.07,0.28,0.02,0.34-0.09c0.07-0.12,0.03-0.27-0.09-0.34l-4-2.31C40.78,11.25,40.74,11.24,40.7,11.24z"/>
	</g>
</g>
<g>
	<path d="M36.36,48.62c0.19,0.11,0.42,0.04,0.53-0.15l1.04-1.84c0.11-0.19,0.04-0.42-0.15-0.53c-0.19-0.11-0.42-0.04-0.53,0.15
		l-1.04,1.84C36.1,48.28,36.17,48.51,36.36,48.62z"/>
	<path d="M36.55,48.81c-0.09,0-0.18-0.02-0.26-0.07c-0.25-0.14-0.34-0.46-0.2-0.72l1.04-1.84c0.07-0.12,0.18-0.21,0.32-0.25
		c0.14-0.04,0.28-0.02,0.4,0.05c0.25,0.14,0.34,0.46,0.2,0.72L37,48.54c-0.07,0.12-0.18,0.21-0.32,0.25
		C36.64,48.8,36.59,48.81,36.55,48.81z M37.59,46.19c-0.02,0-0.05,0-0.07,0.01c-0.06,0.02-0.12,0.06-0.15,0.12l-1.04,1.84
		c-0.07,0.12-0.03,0.27,0.09,0.34c0.06,0.03,0.13,0.04,0.19,0.02c0.06-0.02,0.12-0.06,0.15-0.12l1.04-1.84
		c0.07-0.12,0.03-0.27-0.09-0.34C37.67,46.2,37.63,46.19,37.59,46.19z"/>
</g>
<g>
	<path d="M38.82,44.26c0.19,0.11,0.42,0.04,0.53-0.15l1.04-1.84c0.11-0.19,0.04-0.42-0.15-0.53c-0.19-0.11-0.42-0.04-0.53,0.15
		l-1.04,1.84C38.57,43.92,38.63,44.16,38.82,44.26z"/>
	<path d="M39.01,44.45c-0.09,0-0.18-0.02-0.26-0.07c-0.12-0.07-0.21-0.18-0.25-0.32c-0.04-0.13-0.02-0.28,0.05-0.4l1.04-1.84
		c0.07-0.12,0.18-0.21,0.32-0.25c0.14-0.04,0.28-0.02,0.4,0.05c0.12,0.07,0.21,0.18,0.25,0.32c0.04,0.14,0.02,0.28-0.05,0.4
		l-1.04,1.84c-0.07,0.12-0.18,0.21-0.32,0.25C39.1,44.45,39.06,44.45,39.01,44.45z M40.05,41.83c-0.02,0-0.05,0-0.07,0.01
		c-0.06,0.02-0.12,0.06-0.15,0.12l-1.04,1.84c-0.03,0.06-0.04,0.13-0.02,0.19c0.02,0.06,0.06,0.12,0.12,0.15
		c0.06,0.03,0.13,0.04,0.19,0.02c0.06-0.02,0.12-0.06,0.15-0.12l1.04-1.84c0.03-0.06,0.04-0.13,0.02-0.19
		c-0.02-0.06-0.06-0.12-0.12-0.15C40.14,41.85,40.1,41.83,40.05,41.83z"/>
</g>
<g>
	<path d="M41.28,39.91c0.19,0.11,0.42,0.04,0.53-0.15l1.04-1.84c0.11-0.19,0.04-0.42-0.15-0.53c-0.19-0.11-0.42-0.04-0.53,0.15
		l-1.04,1.84C41.03,39.57,41.1,39.8,41.28,39.91z"/>
	<path d="M41.47,40.1c-0.09,0-0.18-0.02-0.26-0.07c-0.25-0.14-0.34-0.46-0.2-0.72l1.04-1.84c0.14-0.25,0.46-0.34,0.72-0.2
		c0.25,0.14,0.34,0.46,0.2,0.72l-1.04,1.84c-0.07,0.12-0.18,0.21-0.32,0.25C41.57,40.09,41.52,40.1,41.47,40.1z M42.52,37.48
		c-0.09,0-0.17,0.05-0.22,0.13l-1.04,1.84c-0.07,0.12-0.03,0.27,0.09,0.34c0.06,0.03,0.13,0.04,0.19,0.02
		c0.06-0.02,0.12-0.06,0.15-0.12l1.04-1.84c0.07-0.12,0.03-0.27-0.09-0.34C42.6,37.49,42.56,37.48,42.52,37.48z"/>
</g>
<g>
	<path d="M49.55,43.62c0.2,0.06,0.42-0.05,0.49-0.26l0.63-2.02c0.06-0.2-0.05-0.42-0.26-0.49c-0.2-0.06-0.42,0.05-0.49,0.26
		l-0.63,2.02C49.23,43.34,49.35,43.55,49.55,43.62z"/>
	<path d="M49.67,43.77c-0.05,0-0.11-0.01-0.16-0.02c-0.13-0.04-0.24-0.13-0.31-0.26c-0.07-0.12-0.08-0.27-0.04-0.4l0.63-2.02
		c0.09-0.28,0.38-0.43,0.66-0.35c0.28,0.09,0.43,0.38,0.35,0.66l-0.63,2.02c-0.04,0.13-0.13,0.24-0.26,0.31
		C49.84,43.75,49.75,43.77,49.67,43.77z M50.3,40.97c-0.11,0-0.21,0.07-0.24,0.18l-0.63,2.02c-0.02,0.06-0.01,0.13,0.02,0.19
		c0.03,0.06,0.08,0.1,0.15,0.12h0c0.06,0.02,0.13,0.01,0.19-0.02c0.06-0.03,0.1-0.08,0.12-0.15l0.63-2.02
		c0.04-0.13-0.03-0.27-0.17-0.31C50.34,40.98,50.32,40.97,50.3,40.97z"/>
</g>
<g>
	<path d="M51.03,38.84c0.2,0.06,0.42-0.05,0.49-0.26l0.63-2.02c0.06-0.2-0.05-0.42-0.26-0.49s-0.42,0.05-0.49,0.26l-0.63,2.02
		C50.71,38.56,50.83,38.77,51.03,38.84z"/>
	<path d="M51.15,38.99c-0.05,0-0.11-0.01-0.16-0.02c-0.13-0.04-0.24-0.13-0.31-0.26c-0.07-0.12-0.08-0.27-0.04-0.4l0.63-2.02
		c0.09-0.28,0.38-0.43,0.66-0.35c0.28,0.09,0.43,0.38,0.35,0.66l-0.63,2.02c-0.04,0.13-0.13,0.24-0.26,0.31
		C51.32,38.97,51.23,38.99,51.15,38.99z M51.77,36.2c-0.11,0-0.21,0.07-0.24,0.18l-0.63,2.02c-0.02,0.06-0.01,0.13,0.02,0.19
		c0.03,0.06,0.08,0.1,0.15,0.12h0c0.06,0.02,0.13,0.01,0.19-0.02c0.06-0.03,0.1-0.08,0.12-0.15l0.63-2.02
		c0.04-0.13-0.03-0.27-0.17-0.31C51.82,36.2,51.8,36.2,51.77,36.2z"/>
</g>
<g>
	<path d="M64.7,43.48c0.21-0.06,0.32-0.28,0.26-0.48l-0.59-2.03c-0.06-0.21-0.28-0.32-0.48-0.26s-0.32,0.28-0.26,0.48l0.59,2.03
		C64.28,43.42,64.49,43.54,64.7,43.48z"/>
	<path d="M64.59,43.63c-0.09,0-0.17-0.02-0.25-0.06c-0.12-0.07-0.21-0.18-0.25-0.31l-0.59-2.03c-0.08-0.28,0.08-0.57,0.36-0.65
		c0.13-0.04,0.28-0.02,0.4,0.04c0.12,0.07,0.21,0.18,0.25,0.31l0.59,2.03c0.04,0.14,0.02,0.28-0.04,0.4
		c-0.07,0.12-0.18,0.21-0.31,0.25C64.69,43.63,64.64,43.63,64.59,43.63z M63.99,40.83c-0.02,0-0.05,0-0.07,0.01
		c-0.13,0.04-0.21,0.18-0.17,0.31l0.59,2.03c0.02,0.06,0.06,0.12,0.12,0.15c0.06,0.03,0.13,0.04,0.19,0.02h0
		c0.06-0.02,0.12-0.06,0.15-0.12c0.03-0.06,0.04-0.13,0.02-0.19l-0.59-2.03c-0.02-0.06-0.06-0.12-0.12-0.15
		C64.08,40.84,64.04,40.83,63.99,40.83z"/>
</g>
<g>
	<path d="M63.29,38.68c0.21-0.06,0.32-0.28,0.26-0.48l-0.59-2.03c-0.06-0.21-0.28-0.32-0.48-0.26s-0.32,0.28-0.26,0.48l0.59,2.03
		C62.87,38.62,63.09,38.74,63.29,38.68z"/>
	<path d="M63.18,38.83c-0.09,0-0.17-0.02-0.25-0.06c-0.12-0.07-0.21-0.18-0.25-0.31l-0.59-2.03c-0.08-0.28,0.08-0.57,0.36-0.65
		c0.13-0.04,0.28-0.02,0.4,0.04c0.12,0.07,0.21,0.18,0.25,0.31l0.59,2.03c0.08,0.28-0.08,0.57-0.36,0.65l-0.04-0.13l0.04,0.13
		C63.28,38.82,63.23,38.83,63.18,38.83z M62.59,36.02c-0.02,0-0.05,0-0.07,0.01c-0.13,0.04-0.21,0.18-0.17,0.31l0.59,2.03
		c0.02,0.06,0.06,0.12,0.12,0.15c0.06,0.03,0.13,0.04,0.19,0.02l0,0c0.13-0.04,0.21-0.18,0.17-0.31l-0.59-2.03
		c-0.02-0.06-0.06-0.12-0.12-0.15C62.67,36.03,62.63,36.02,62.59,36.02z"/>
</g>
<g>
	<g>
		<path d="M76.35,46.9l-1.04-1.84c-0.11-0.19-0.34-0.25-0.53-0.15c-0.19,0.11-0.25,0.34-0.15,0.53l1.04,1.84
			c0.11,0.19,0.34,0.25,0.53,0.15C76.4,47.32,76.46,47.08,76.35,46.9z"/>
		<path d="M76.02,47.61c-0.05,0-0.09-0.01-0.14-0.02c-0.14-0.04-0.25-0.13-0.32-0.25l-1.04-1.84c-0.14-0.25-0.05-0.57,0.2-0.72
			c0.25-0.14,0.57-0.05,0.72,0.2l1.04,1.84c0.14,0.25,0.05,0.57-0.2,0.72C76.2,47.59,76.11,47.61,76.02,47.61z M74.97,44.99
			c-0.04,0-0.08,0.01-0.12,0.03c-0.12,0.07-0.16,0.22-0.09,0.34l1.04,1.84c0.03,0.06,0.09,0.1,0.15,0.12
			c0.06,0.02,0.13,0.01,0.19-0.02c0.12-0.07,0.16-0.22,0.09-0.34l-1.04-1.84C75.15,45.04,75.06,44.99,74.97,44.99z"/>
	</g>
	<g>
		<path d="M73.89,42.54l-1.04-1.84c-0.11-0.19-0.34-0.25-0.53-0.15c-0.19,0.11-0.25,0.34-0.15,0.53l1.04,1.84
			c0.11,0.19,0.34,0.25,0.53,0.15S74,42.73,73.89,42.54z"/>
		<path d="M73.55,43.26c-0.18,0-0.36-0.1-0.46-0.27l-1.04-1.84c-0.14-0.25-0.05-0.57,0.2-0.72c0.12-0.07,0.26-0.09,0.4-0.05
			c0.14,0.04,0.25,0.13,0.32,0.25l1.04,1.84c0.14,0.25,0.05,0.57-0.2,0.72C73.73,43.23,73.64,43.26,73.55,43.26z M72.51,40.64
			c-0.04,0-0.08,0.01-0.12,0.03c-0.12,0.07-0.16,0.22-0.09,0.34l1.04,1.84c0.07,0.12,0.22,0.16,0.34,0.09
			c0.12-0.07,0.16-0.22,0.09-0.34l-1.04-1.84c-0.03-0.06-0.09-0.1-0.15-0.12C72.56,40.64,72.53,40.64,72.51,40.64z"/>
	</g>
	<g>
		<path d="M71.43,38.19l-1.04-1.84c-0.11-0.19-0.34-0.25-0.53-0.15c-0.19,0.11-0.25,0.34-0.15,0.53l1.04,1.84
			c0.11,0.19,0.34,0.25,0.53,0.15C71.47,38.61,71.53,38.37,71.43,38.19z"/>
		<path d="M71.09,38.9c-0.05,0-0.09-0.01-0.14-0.02c-0.14-0.04-0.25-0.13-0.32-0.25l-1.04-1.84c-0.14-0.25-0.05-0.57,0.2-0.72
			c0.12-0.07,0.26-0.09,0.4-0.05c0.14,0.04,0.25,0.13,0.32,0.25l1.04,1.84c0.07,0.12,0.09,0.26,0.05,0.4
			c-0.04,0.13-0.13,0.25-0.25,0.32C71.27,38.88,71.18,38.9,71.09,38.9z M70.05,36.28c-0.04,0-0.08,0.01-0.12,0.03
			c-0.12,0.07-0.16,0.22-0.09,0.34l1.04,1.84c0.03,0.06,0.09,0.1,0.15,0.12c0.06,0.02,0.13,0.01,0.19-0.02
			c0.06-0.03,0.1-0.09,0.12-0.15c0.02-0.06,0.01-0.13-0.02-0.19l-1.04-1.84c-0.03-0.06-0.09-0.1-0.15-0.12
			C70.09,36.29,70.07,36.28,70.05,36.28z"/>
	</g>
</g>
</svg>
