<?xml version="1.0" encoding="utf-8"?>
<!-- Generator: Adobe Illustrator 28.1.0, SVG Export Plug-In . SVG Version: 6.00 Build 0)  -->
<svg version="1.1" id="Layer_1" xmlns="http://www.w3.org/2000/svg" xmlns:xlink="http://www.w3.org/1999/xlink" x="0px" y="0px"
	 viewBox="0 0 110.55 76.54" style="enable-background:new 0 0 110.55 76.54;" xml:space="preserve">
<style type="text/css">
	.st0{display:none;}
	.st1{display:inline;fill:none;}
</style>
<g id="Layer_2_00000073722119373351752270000017113015111246931634_" class="st0">
	<line class="st1" x1="-24.13" y1="74.54" x2="142.13" y2="74.54"/>
	<line class="st1" x1="-24.13" y1="2" x2="142.13" y2="2"/>
</g>
<g>
	<g>
		<path d="M55.51,29.26c2.4,0,4.35-1.95,4.35-4.35s-1.95-4.35-4.35-4.35c-2.4,0-4.35,1.95-4.35,4.35S53.1,29.26,55.51,29.26z"/>
		<path d="M56.53,46.92l-7.73-3.31c-0.39-0.17-0.81-0.25-1.22-0.25c-0.6,0-1.19,0.17-1.71,0.51c-0.87,0.58-1.39,1.54-1.39,2.59v0.36
			c0,1.08,0.87,1.96,1.95,1.97l9.64,0.11l0.08,0c0.6-0.01,0.91-0.44,0.99-0.81C57.21,47.7,57.1,47.17,56.53,46.92z"/>
		<path d="M69.08,42.26l-3.31-3.28c-0.79-0.78-1.41-1.7-1.85-2.73l-1.42-3.34c-0.51-1.2-1.68-1.98-2.99-1.98H51.5
			c-1.31,0-2.48,0.78-2.99,1.98l-1.42,3.34c-0.43,1.03-1.06,1.94-1.85,2.73l-3.31,3.28c-0.32,0.32-0.36,0.83-0.07,1.19
			c0.29,0.37,0.82,0.45,1.2,0.19l4.27-2.86c0.88-0.59,1.97-1.32,2.49-2.17c0.01-0.01,0.01-0.01,0.02-0.02
			c0.01-0.01,0.02-0.03,0.04-0.04c0.01-0.01,0.03-0.02,0.04-0.03c0.01-0.01,0.03-0.02,0.05-0.02c0.02-0.01,0.03-0.01,0.05-0.01
			c0.01,0,0.02-0.01,0.03-0.01c0.01,0,0.01,0,0.02,0c0.02,0,0.03,0.01,0.05,0.01c0.02,0,0.03,0.01,0.05,0.02
			c0.01,0,0.01,0,0.02,0.01c0.01,0.01,0.01,0.01,0.02,0.02c0.01,0.01,0.03,0.02,0.04,0.04c0.01,0.01,0.02,0.03,0.03,0.04
			c0.01,0.01,0.02,0.03,0.02,0.04c0.01,0.02,0.01,0.03,0.01,0.05c0,0.01,0.01,0.02,0.01,0.03v4.94l5.23,2.24l5.18-2.22v-4.96
			c0-0.1,0.05-0.18,0.13-0.22c0,0,0-0.01,0.01-0.01c0,0,0,0,0.01,0c0.01-0.01,0.03-0.01,0.04-0.01c0.11-0.04,0.25,0,0.31,0.11
			c0.53,0.88,1.64,1.62,2.54,2.22l4.21,2.82c0.39,0.26,0.92,0.17,1.2-0.19C69.44,43.1,69.41,42.58,69.08,42.26z M59.07,36.9
			c-0.05,0.09-1.05,1.93-3.35,3.53c-0.04,0.03-0.1,0.05-0.15,0.05h-0.14c-0.05,0-0.11-0.02-0.15-0.05c-2.29-1.59-3.3-3.43-3.34-3.51
			c-0.02-0.03-0.93-2.06,0.69-3.33c0.48-0.38,0.99-0.53,1.51-0.47c0.63,0.08,1.11,0.46,1.36,0.71c0.25-0.25,0.74-0.63,1.36-0.71
			c0.52-0.06,1.03,0.09,1.51,0.47C60,34.86,59.08,36.88,59.07,36.9z"/>
		<path d="M65.14,43.89c-0.87-0.58-1.97-0.67-2.93-0.26l-6.02,2.58l0.54,0.23c0.81,0.35,1.04,1.13,0.91,1.75
			c-0.05,0.25-0.17,0.49-0.34,0.7l7.28-0.07c1.07-0.01,1.95-0.9,1.95-1.97v-0.36C66.54,45.44,66.01,44.47,65.14,43.89z"/>
	</g>
	<g>
		<path d="M55.1,5.89h-0.33c-0.44,0-0.79,0.38-0.75,0.82l0.17,2.07c0.03,0.39,0.36,0.69,0.75,0.69l0,0c0.39,0,0.72-0.3,0.75-0.69
			l0.17-2.07C55.89,6.27,55.54,5.89,55.1,5.89z"/>
		<path d="M55.04,1.17h-0.21c-0.68,0-1.21,0.58-1.16,1.26l0.1,1.29c0.05,0.6,0.55,1.07,1.16,1.07h0c0.61,0,1.11-0.47,1.16-1.07
			l0.1-1.29C56.25,1.75,55.71,1.17,55.04,1.17z"/>
		<path d="M54.93,18.15l0.28-3.5c0,0,0-0.24-0.28-0.24s-0.28,0.23-0.28,0.23L54.93,18.15z"/>
		<path d="M54.36,11.03l0.15,1.89c0.02,0.22,0.2,0.39,0.42,0.39h0c0.22,0,0.4-0.17,0.42-0.39l0.15-1.89
			c0.02-0.25-0.17-0.46-0.42-0.46h-0.3C54.53,10.57,54.34,10.78,54.36,11.03z"/>
	</g>
	<g>
		<path d="M40.1,11.08l-0.29,0.17c-0.38,0.22-0.49,0.72-0.24,1.08l1.18,1.71c0.22,0.32,0.66,0.42,1,0.23v0
			c0.34-0.2,0.47-0.62,0.3-0.98l-0.89-1.87C40.97,11.01,40.48,10.86,40.1,11.08z"/>
		<path d="M37.68,7.03l-0.18,0.1c-0.59,0.34-0.76,1.11-0.38,1.67l0.73,1.06c0.34,0.5,1.01,0.65,1.54,0.35v0
			c0.52-0.3,0.73-0.96,0.47-1.51l-0.55-1.17C39.02,6.92,38.27,6.69,37.68,7.03z"/>
		<path d="M46.09,21.79l-1.51-3.17c0,0-0.12-0.2-0.36-0.06c-0.24,0.14-0.13,0.34-0.13,0.34L46.09,21.79z"/>
		<path d="M42.03,15.9l1.08,1.56c0.12,0.18,0.37,0.24,0.56,0.13l0,0c0.19-0.11,0.26-0.35,0.17-0.55l-0.81-1.71
			c-0.11-0.22-0.38-0.31-0.59-0.18l-0.26,0.15C41.95,15.42,41.89,15.7,42.03,15.9z"/>
	</g>
	<g>
		<path d="M30.94,22.95l-0.17,0.29c-0.22,0.38-0.07,0.87,0.33,1.06l1.87,0.89c0.36,0.17,0.78,0.04,0.98-0.3v0
			c0.2-0.34,0.1-0.78-0.23-1l-1.71-1.18C31.66,22.45,31.16,22.57,30.94,22.95z"/>
		<path d="M26.82,20.64l-0.1,0.18c-0.34,0.59-0.11,1.34,0.51,1.63l1.17,0.55c0.55,0.26,1.2,0.06,1.51-0.47v0
			c0.3-0.52,0.15-1.19-0.35-1.54l-1.06-0.73C27.92,19.88,27.16,20.05,26.82,20.64z"/>
		<path d="M41.47,29.22l-2.89-1.99c0,0-0.2-0.12-0.34,0.13c-0.14,0.24,0.06,0.36,0.06,0.36L41.47,29.22z"/>
		<path d="M35.02,26.16l1.71,0.81c0.2,0.09,0.44,0.02,0.55-0.17l0,0c0.11-0.19,0.06-0.43-0.13-0.56l-1.56-1.08
			c-0.2-0.14-0.48-0.08-0.6,0.14l-0.15,0.26C34.71,25.78,34.8,26.05,35.02,26.16z"/>
	</g>
	<g>
		<path d="M27.36,37.74v0.33c0,0.44,0.38,0.79,0.82,0.75l2.07-0.17c0.39-0.03,0.69-0.36,0.69-0.75l0,0c0-0.39-0.3-0.72-0.69-0.75
			l-2.07-0.17C27.74,36.95,27.36,37.3,27.36,37.74z"/>
		<path d="M22.64,37.8v0.21c0,0.68,0.58,1.21,1.26,1.16l1.29-0.1c0.6-0.05,1.07-0.55,1.07-1.16v0c0-0.61-0.47-1.11-1.07-1.16
			l-1.29-0.1C23.22,36.59,22.64,37.12,22.64,37.8z"/>
		<path d="M39.62,37.91l-3.5-0.28c0,0-0.24,0-0.24,0.28s0.23,0.28,0.23,0.28L39.62,37.91z"/>
		<path d="M32.5,38.48l1.89-0.15c0.22-0.02,0.39-0.2,0.39-0.42l0,0c0-0.22-0.17-0.4-0.39-0.42l-1.89-0.15
			c-0.25-0.02-0.46,0.17-0.46,0.42v0.3C32.05,38.3,32.26,38.5,32.5,38.48z"/>
	</g>
	<g>
		<path d="M30.31,51.4l0.17,0.29c0.22,0.38,0.72,0.49,1.08,0.24l1.71-1.18c0.32-0.22,0.42-0.66,0.23-1l0,0
			c-0.2-0.34-0.62-0.47-0.98-0.3l-1.87,0.89C30.24,50.53,30.09,51.02,30.31,51.4z"/>
		<path d="M26.26,53.82l0.1,0.18c0.34,0.59,1.11,0.76,1.67,0.38l1.06-0.73c0.5-0.34,0.65-1.01,0.35-1.54h0
			c-0.3-0.52-0.96-0.73-1.51-0.47l-1.17,0.55C26.15,52.48,25.92,53.23,26.26,53.82z"/>
		<path d="M41.02,45.42l-3.17,1.51c0,0-0.2,0.12-0.06,0.36c0.14,0.24,0.34,0.13,0.34,0.13L41.02,45.42z"/>
		<path d="M35.13,49.47l1.56-1.08c0.18-0.12,0.24-0.37,0.13-0.56l0,0c-0.11-0.19-0.35-0.26-0.55-0.17l-1.71,0.81
			c-0.22,0.11-0.31,0.38-0.18,0.59l0.15,0.26C34.65,49.55,34.93,49.61,35.13,49.47z"/>
	</g>
	<g>
		<path d="M38.8,63.98l0.29,0.17c0.38,0.22,0.87,0.07,1.06-0.33l0.89-1.87c0.17-0.36,0.04-0.78-0.3-0.98h0
			c-0.34-0.2-0.78-0.1-1,0.23l-1.18,1.71C38.31,63.26,38.42,63.76,38.8,63.98z"/>
		<path d="M36.5,68.1l0.18,0.1c0.59,0.34,1.34,0.11,1.63-0.51l0.55-1.17c0.26-0.55,0.06-1.2-0.47-1.51l0,0
			c-0.52-0.3-1.19-0.15-1.54,0.35l-0.73,1.06C35.74,66.99,35.91,67.76,36.5,68.1z"/>
		<path d="M45.08,53.45l-1.99,2.89c0,0-0.12,0.2,0.13,0.34c0.24,0.14,0.36-0.06,0.36-0.06L45.08,53.45z"/>
		<path d="M42.01,59.9l0.81-1.71c0.09-0.2,0.02-0.44-0.17-0.55l0,0c-0.19-0.11-0.43-0.06-0.56,0.13l-1.08,1.56
			c-0.14,0.2-0.08,0.48,0.14,0.6l0.26,0.15C41.63,60.21,41.91,60.12,42.01,59.9z"/>
	</g>
	<g>
		<path d="M54.77,70.65h0.33c0.44,0,0.79-0.38,0.75-0.82l-0.17-2.07c-0.03-0.39-0.36-0.69-0.75-0.69l0,0c-0.39,0-0.72,0.3-0.75,0.69
			l-0.17,2.07C53.98,70.27,54.33,70.65,54.77,70.65z"/>
		<path d="M54.83,75.37h0.21c0.68,0,1.21-0.58,1.16-1.26l-0.1-1.29c-0.05-0.6-0.55-1.07-1.16-1.07h0c-0.61,0-1.11,0.47-1.16,1.07
			l-0.1,1.29C53.62,74.79,54.15,75.37,54.83,75.37z"/>
		<path d="M54.93,58.39l-0.28,3.5c0,0,0,0.24,0.28,0.24s0.28-0.23,0.28-0.23L54.93,58.39z"/>
		<path d="M55.5,65.51l-0.15-1.89c-0.02-0.22-0.2-0.39-0.42-0.39l0,0c-0.22,0-0.4,0.17-0.42,0.39l-0.15,1.89
			c-0.02,0.25,0.17,0.46,0.42,0.46h0.3C55.33,65.97,55.52,65.76,55.5,65.51z"/>
	</g>
	<g>
		<path d="M70.45,11.08l0.29,0.17c0.38,0.22,0.49,0.72,0.24,1.08l-1.18,1.71c-0.22,0.32-0.66,0.42-1,0.23v0
			c-0.34-0.2-0.47-0.62-0.3-0.98l0.89-1.87C69.58,11.01,70.07,10.86,70.45,11.08z"/>
		<path d="M72.87,7.03l0.18,0.1c0.59,0.34,0.76,1.11,0.38,1.67l-0.73,1.06c-0.34,0.5-1.01,0.65-1.54,0.35l0,0
			c-0.52-0.3-0.73-0.96-0.47-1.51l0.55-1.17C71.53,6.92,72.28,6.69,72.87,7.03z"/>
		<path d="M64.46,21.79l1.51-3.17c0,0,0.12-0.2,0.36-0.06c0.24,0.14,0.13,0.34,0.13,0.34L64.46,21.79z"/>
		<path d="M68.52,15.9l-1.08,1.56c-0.12,0.18-0.37,0.24-0.56,0.13l0,0c-0.19-0.11-0.26-0.35-0.17-0.55l0.81-1.71
			c0.11-0.22,0.38-0.31,0.59-0.18l0.26,0.15C68.6,15.42,68.66,15.7,68.52,15.9z"/>
	</g>
	<g>
		<path d="M79.61,22.95l0.17,0.29c0.22,0.38,0.07,0.87-0.33,1.06l-1.87,0.89c-0.36,0.17-0.78,0.04-0.98-0.3v0
			c-0.2-0.34-0.1-0.78,0.23-1l1.71-1.18C78.89,22.45,79.39,22.57,79.61,22.95z"/>
		<path d="M83.73,20.64l0.1,0.18c0.34,0.59,0.11,1.34-0.51,1.63l-1.17,0.55c-0.55,0.26-1.2,0.06-1.51-0.47v0
			C80.35,22.01,80.5,21.34,81,21l1.06-0.73C82.63,19.88,83.39,20.05,83.73,20.64z"/>
		<path d="M69.08,29.22l2.89-1.99c0,0,0.2-0.12,0.34,0.13c0.14,0.24-0.06,0.36-0.06,0.36L69.08,29.22z"/>
		<path d="M75.53,26.16l-1.71,0.81c-0.2,0.09-0.44,0.02-0.55-0.17l0,0c-0.11-0.19-0.06-0.43,0.13-0.56l1.56-1.08
			c0.2-0.14,0.48-0.08,0.6,0.14l0.15,0.26C75.84,25.78,75.75,26.05,75.53,26.16z"/>
	</g>
	<g>
		<path d="M83.19,37.74v0.33c0,0.44-0.38,0.79-0.82,0.75l-2.07-0.17c-0.39-0.03-0.69-0.36-0.69-0.75l0,0c0-0.39,0.3-0.72,0.69-0.75
			l2.07-0.17C82.81,36.95,83.19,37.3,83.19,37.74z"/>
		<path d="M87.91,37.8v0.21c0,0.68-0.58,1.21-1.26,1.16l-1.29-0.1c-0.6-0.05-1.07-0.55-1.07-1.16v0c0-0.61,0.47-1.11,1.07-1.16
			l1.29-0.1C87.33,36.59,87.91,37.12,87.91,37.8z"/>
		<path d="M70.93,37.91l3.5-0.28c0,0,0.24,0,0.24,0.28s-0.23,0.28-0.23,0.28L70.93,37.91z"/>
		<path d="M78.05,38.48l-1.89-0.15c-0.22-0.02-0.39-0.2-0.39-0.42l0,0c0-0.22,0.17-0.4,0.39-0.42l1.89-0.15
			c0.25-0.02,0.46,0.17,0.46,0.42v0.3C78.5,38.3,78.29,38.5,78.05,38.48z"/>
	</g>
	<g>
		<path d="M80.24,51.4l-0.17,0.29c-0.22,0.38-0.72,0.49-1.08,0.24l-1.71-1.18c-0.32-0.22-0.42-0.66-0.23-1l0,0
			c0.2-0.34,0.62-0.47,0.98-0.3l1.87,0.89C80.31,50.53,80.46,51.02,80.24,51.4z"/>
		<path d="M84.29,53.82L84.19,54c-0.34,0.59-1.11,0.76-1.67,0.38l-1.06-0.73c-0.5-0.34-0.65-1.01-0.35-1.54l0,0
			c0.3-0.52,0.96-0.73,1.51-0.47l1.17,0.55C84.4,52.48,84.63,53.23,84.29,53.82z"/>
		<path d="M69.53,45.42l3.17,1.51c0,0,0.2,0.12,0.06,0.36c-0.14,0.24-0.34,0.13-0.34,0.13L69.53,45.42z"/>
		<path d="M75.42,49.47l-1.56-1.08c-0.18-0.12-0.24-0.37-0.13-0.56l0,0c0.11-0.19,0.35-0.26,0.55-0.17l1.71,0.81
			c0.22,0.11,0.31,0.38,0.18,0.59l-0.15,0.26C75.9,49.55,75.62,49.61,75.42,49.47z"/>
	</g>
	<g>
		<path d="M71.75,63.98l-0.29,0.17c-0.38,0.22-0.87,0.07-1.06-0.33l-0.89-1.87c-0.17-0.36-0.04-0.78,0.3-0.98l0,0
			c0.34-0.2,0.78-0.1,1,0.23l1.18,1.71C72.24,63.26,72.13,63.76,71.75,63.98z"/>
		<path d="M74.05,68.1l-0.18,0.1c-0.59,0.34-1.34,0.11-1.63-0.51l-0.55-1.17c-0.26-0.55-0.06-1.2,0.47-1.51h0
			c0.52-0.3,1.19-0.15,1.54,0.35l0.73,1.06C74.81,66.99,74.64,67.76,74.05,68.1z"/>
		<path d="M65.47,53.45l1.99,2.89c0,0,0.12,0.2-0.13,0.34c-0.24,0.14-0.36-0.06-0.36-0.06L65.47,53.45z"/>
		<path d="M68.54,59.9l-0.81-1.71c-0.09-0.2-0.02-0.44,0.17-0.55l0,0c0.19-0.11,0.43-0.06,0.56,0.13l1.08,1.56
			c0.14,0.2,0.08,0.48-0.14,0.6l-0.26,0.15C68.92,60.21,68.64,60.12,68.54,59.9z"/>
	</g>
</g>
</svg>
