<?xml version="1.0" encoding="utf-8"?>
<!-- Generator: Adobe Illustrator 28.1.0, SVG Export Plug-In . SVG Version: 6.00 Build 0)  -->
<svg version="1.1" id="Layer_1" xmlns="http://www.w3.org/2000/svg" xmlns:xlink="http://www.w3.org/1999/xlink" x="0px" y="0px"
	 viewBox="0 0 110.55 76.54" style="enable-background:new 0 0 110.55 76.54;" xml:space="preserve">
<style type="text/css">
	.st0{display:none;}
	.st1{display:inline;fill:none;}
	.st2{fill:#808080;}
</style>
<g id="Layer_2_00000073722119373351752270000017113015111246931634_" class="st0">
	<line class="st1" x1="-24.13" y1="74.54" x2="142.13" y2="74.54"/>
	<line class="st1" x1="-24.13" y1="2" x2="142.13" y2="2"/>
</g>
<g>
	<path class="st2" d="M1879.74,2086.84c3.3,0,5.96-2.66,5.96-5.96s-2.66-5.96-5.96-5.96c-3.3,0-5.96,2.66-5.96,5.96
		C1873.77,2084.18,1876.43,2086.84,1879.74,2086.84z"/>
	<path class="st2" d="M1886.1,2093.13c5.88-0.81,13.22-2.18,14.43-2.34c1.45-0.24,2.42-1.69,2.18-3.14s-1.69-2.42-3.14-2.18
		c-6.53,1.21-17.17,2.9-19.83,2.9c-10.4,0-15.15,6.93-15.31,7.25c-0.64,0.97-0.56,2.18,0.08,3.06l4.67,6.61
		c0.56,0.73,1.37,1.13,2.18,1.13c0.56,0,1.05-0.16,1.53-0.48c0.16-0.08,0.24-0.24,0.4-0.32v1.85l-1.69,19.91
		c-0.16,1.61,1.05,3.06,2.74,3.22c1.61,0.16,3.06-1.05,3.22-2.74l1.61-19.18h1.13l1.61,19.18c0.16,1.53,1.45,2.74,2.98,2.74
		c0.08,0,0.16,0,0.24,0c1.61-0.16,2.9-1.61,2.74-3.22l-1.69-19.91L1886.1,2093.13z M1873.29,2101.83l-3.22-4.59
		c0.73-0.64,1.85-1.53,3.3-2.18L1873.29,2101.83z"/>
</g>
<g>
	<path class="st2" d="M1933.79,2093.61c1.85,0.21,3.48,0.36,4.83,0.36c1.99,0,3.48-0.28,4.48-1.21c0.64-0.57,1.07-1.35,1.07-2.27
		c0.14-2.27-2.49-6.33-7.75-12.01c-0.92-1-2.49-1.07-3.55-0.14c-0.21,0.14-0.28,0.36-0.43,0.57c-0.78-2.35-2.91-3.98-5.55-3.98
		c-2.56,0-4.76,1.71-5.55,3.98c-0.14-0.21-0.28-0.43-0.43-0.57c-1-0.92-2.56-0.85-3.55,0.14c-5.26,5.69-7.89,9.67-7.75,12.01
		c0.07,0.92,0.43,1.71,1.07,2.27c1,0.85,2.49,1.21,4.48,1.21c1.35,0,2.99-0.14,4.83-0.36c0.36,0,0.71-0.07,1-0.07l0.28,12.51
		c0,0.14,0,0.21,0,0.36l-3.55,8.25c-0.36,0.92-0.64,1.85-0.78,2.77l-1.07,10.02c-0.21,1.56,0.92,3.06,2.56,3.27
		c0.14,0,0.21,0,0.36,0c1.42,0,2.7-1.07,2.91-2.56l1.28-10.02c0.07-0.43,0.14-0.85,0.36-1.21l3.77-8.74l3.77,8.74
		c0.14,0.43,0.28,0.78,0.36,1.21l1.28,10.02c0.21,1.56,1.64,2.7,3.27,2.56c1.56-0.21,2.7-1.64,2.56-3.27l-1.28-10.02
		c-0.14-1-0.36-1.92-0.78-2.77l-3.55-8.25c0-0.07,0-0.21,0-0.28l0.28-12.58C1933.15,2093.54,1933.51,2093.54,1933.79,2093.61z
		 M1930.38,2088.35h-6.75c-1.14,0-2.49,0.14-3.91,0.28c-1.14,0.14-2.84,0.28-4.19,0.28c1.14-1.78,3.34-4.55,5.69-7.04
		c0-0.07,0.07-0.07,0.07-0.14c0.5,2.77,2.84,4.83,5.76,4.83c2.91,0,5.26-2.06,5.76-4.83c0,0.07,0.07,0.07,0.07,0.14
		c2.35,2.49,4.55,5.26,5.69,7.04c-1.35,0-3.06-0.21-4.19-0.28C1932.87,2088.49,1931.44,2088.35,1930.38,2088.35z"/>
</g>
<path class="st2" d="M1898.76,2079.8c0.4,0.4,1.05-0.08,0.81-0.56l-2.42-4.92l3.3-0.81c0.32-0.08,0.48-0.4,0.32-0.73l-4.03-7.5
	c-0.08-0.16-0.32-0.32-0.56-0.24l-3.47,0.81c-0.32,0.08-0.48,0.48-0.32,0.81l3.14,4.43l-3.06,0.73c-0.4,0.08-0.48,0.56-0.24,0.81
	L1898.76,2079.8z"/>
<path class="st2" d="M1905.57,2070.13l3.3,0.81l-2.42,4.92c-0.24,0.48,0.4,0.97,0.81,0.56l6.61-7.09c0.24-0.32,0.16-0.73-0.24-0.81
	l-3.06-0.81l3.14-4.43c0.24-0.32,0.08-0.73-0.32-0.81l-3.47-0.81c-0.24-0.08-0.48,0.08-0.56,0.24l-4.03,7.5
	C1905.08,2069.73,1905.32,2070.05,1905.57,2070.13z"/>
<g>
	<path class="st2" d="M2127.3,2077.06c4.13,0,7.45-3.35,7.45-7.45c0-4.13-3.33-7.47-7.45-7.47c-4.13,0-7.47,3.35-7.47,7.47
		C2119.83,2073.72,2123.17,2077.06,2127.3,2077.06L2127.3,2077.06z"/>
	<path class="st2" d="M2156.47,2130.52c-1.76,0-3.47-0.4-4.97-1.06c-1.54-0.72-3.29-1.14-5.11-1.14c-1.8,0-3.55,0.42-5.09,1.14
		c-1.52,0.66-3.21,1.06-4.97,1.06s-3.45-0.4-4.95-1.06c-1.54-0.72-3.29-1.14-5.11-1.14s-3.57,0.42-5.11,1.14
		c-1.5,0.66-3.18,1.06-4.95,1.06c-1.76,0-3.45-0.4-4.97-1.06c-1.54-0.72-3.27-1.14-5.09-1.14s-3.57,0.42-5.11,1.14
		c-1.5,0.66-3.19,1.06-4.95,1.06c-1.74,0-3.43-0.4-4.95-1.06c-1.54-0.72-3.29-1.14-5.09-1.14c-1.82,0-3.57,0.42-5.11,1.14
		c-1.5,0.66-3.19,1.06-4.95,1.06v-7.43c1.76,0,3.45-0.38,4.95-1.06c1.54-0.72,3.29-1.14,5.11-1.14c1.8,0,3.55,0.42,5.09,1.14
		c1.52,0.68,3.21,1.06,4.95,1.06c1.76,0,3.45-0.38,4.95-1.06c1.54-0.72,3.29-1.14,5.11-1.14s3.55,0.42,5.09,1.14
		c1.52,0.68,3.21,1.06,4.97,1.06s3.45-0.38,4.95-1.06c1.54-0.72,3.29-1.14,5.11-1.14s3.57,0.42,5.11,1.14
		c1.5,0.68,3.18,1.06,4.95,1.06c1.76,0,3.45-0.38,4.97-1.06c1.54-0.72,3.29-1.14,5.09-1.14c1.82,0,3.57,0.42,5.11,1.14
		c1.5,0.68,3.21,1.06,4.97,1.06V2130.52z"/>
	<path class="st2" d="M2081.13,2115.71c1.5-0.68,3.17-1.06,4.93-1.06c1.8,0,3.55,0.42,5.09,1.14c1.52,0.66,3.21,1.06,4.95,1.06
		c1.76,0,3.45-0.4,4.95-1.06c1.54-0.72,3.29-1.14,5.11-1.14s3.55,0.42,5.09,1.14c1.52,0.66,3.21,1.06,4.97,1.06s3.45-0.4,4.95-1.06
		c0.98-0.46,2-0.76,3.09-0.96l12.86-14.71h-16.55l6.85-11.76l15.03,8.21c4.97,2.8,8.64-3.67,3.65-6.47l-21.52-11.9
		c-7.92-4.41-11.26,2.91-11.26,2.91l-11.1,18.75l-29.23-0.02C2073.9,2105.2,2078.71,2112.37,2081.13,2115.71L2081.13,2115.71z"/>
	<path class="st2" d="M2128.12,2114.79c1.14,0.18,2.24,0.52,3.27,1c1.5,0.66,3.18,1.06,4.95,1.06c1.76,0,3.45-0.4,4.97-1.06
		c1.54-0.72,3.29-1.14,5.09-1.14c1.82,0,3.57,0.42,5.11,1.14c1.5,0.66,3.21,1.06,4.97,1.06l-0.04-16.73l-15.51-0.02L2128.12,2114.79
		z"/>
</g>
<g>
	<g>
		<g>
			<path d="M64,38.48c-0.13,0.24-2.73,4.99-8.67,9.13c-0.12,0.08-0.25,0.12-0.39,0.12h-0.38c-0.14,0-0.27-0.05-0.39-0.12
				c-5.93-4.12-8.54-8.89-8.64-9.09c-0.05-0.09-2.41-5.33,1.79-8.63c1.24-0.97,2.56-1.38,3.9-1.21c1.61,0.2,2.87,1.19,3.53,1.83
				c0.66-0.64,1.91-1.63,3.53-1.83c1.35-0.16,2.66,0.25,3.9,1.21C66.4,33.18,64.02,38.43,64,38.48z"/>
		</g>
	</g>
	<g>
		<path d="M55.15,9.92h-0.64c-0.84,0-1.5,0.72-1.44,1.55l0.32,3.92c0.06,0.74,0.68,1.32,1.44,1.32l0,0c0.75,0,1.37-0.58,1.44-1.32
			l0.32-3.92C56.65,10.64,55.99,9.92,55.15,9.92z"/>
		<path d="M55.04,0.95h-0.39c-1.3,0-2.31,1.1-2.2,2.39l0.2,2.45c0.09,1.15,1.05,2.04,2.2,2.04l0,0c1.15,0,2.11-0.88,2.2-2.04
			l0.2-2.45C57.33,2.06,56.32,0.95,55.04,0.95z"/>
		<path d="M53.75,19.7l0.28,3.59c0.04,0.41,0.38,0.74,0.8,0.74l0,0c0.41,0,0.77-0.32,0.8-0.74l0.28-3.59
			c0.04-0.47-0.33-0.86-0.8-0.86h-0.58C54.08,18.83,53.7,19.23,53.75,19.7z"/>
	</g>
	<g>
		<path d="M83.1,37.6v0.64c0,0.84-0.72,1.5-1.55,1.44l-3.92-0.32c-0.74-0.06-1.32-0.68-1.32-1.44l0,0c0-0.75,0.58-1.37,1.32-1.44
			l3.92-0.32C82.38,36.1,83.1,36.76,83.1,37.6z"/>
		<path d="M92.07,37.71v0.39c0,1.3-1.1,2.31-2.39,2.2l-2.45-0.2c-1.15-0.09-2.04-1.05-2.04-2.2l0,0c0-1.15,0.88-2.11,2.04-2.2
			l2.45-0.2C90.96,35.41,92.07,36.43,92.07,37.71z"/>
		<path d="M73.32,39l-3.59-0.28c-0.41-0.04-0.74-0.38-0.74-0.8l0,0c0-0.41,0.32-0.77,0.74-0.8l3.59-0.28
			c0.47-0.04,0.86,0.33,0.86,0.8v0.58C74.19,38.67,73.79,39.03,73.32,39z"/>
	</g>
	<path d="M54.45,65.95h0.64c0.84,0,1.5-0.72,1.44-1.55l-0.32-3.92c-0.06-0.74-0.68-1.32-1.44-1.32l0,0c-0.75,0-1.37,0.58-1.44,1.32
		l-0.32,3.92C52.95,65.23,53.61,65.95,54.45,65.95z"/>
	<path d="M54.56,74.93h0.39c1.3,0,2.31-1.1,2.2-2.39l-0.2-2.45c-0.09-1.15-1.05-2.04-2.2-2.04l0,0c-1.15,0-2.11,0.88-2.2,2.04
		l-0.2,2.45C52.26,73.82,53.27,74.93,54.56,74.93z"/>
	<path d="M55.85,56.18l-0.28-3.59c-0.04-0.41-0.38-0.74-0.8-0.74l0,0c-0.41,0-0.77,0.32-0.8,0.74l-0.28,3.59
		c-0.04,0.47,0.33,0.86,0.8,0.86h0.58C55.52,57.05,55.88,56.65,55.85,56.18z"/>
	<g>
		<path d="M26.84,37.6v0.64c0,0.84,0.72,1.5,1.55,1.44l3.92-0.32c0.74-0.06,1.32-0.68,1.32-1.44l0,0c0-0.75-0.58-1.37-1.32-1.44
			l-3.92-0.32C27.56,36.1,26.84,36.76,26.84,37.6z"/>
		<path d="M17.87,37.71v0.39c0,1.3,1.1,2.31,2.39,2.2l2.45-0.2c1.15-0.09,2.04-1.05,2.04-2.2l0,0c0-1.15-0.88-2.11-2.04-2.2
			l-2.45-0.2C18.97,35.41,17.87,36.43,17.87,37.71z"/>
		<path d="M36.61,39l3.59-0.28c0.41-0.04,0.74-0.38,0.74-0.8l0,0c0-0.41-0.32-0.77-0.74-0.8l-3.59-0.28
			c-0.47-0.04-0.86,0.33-0.86,0.8v0.58C35.75,38.67,36.15,39.03,36.61,39z"/>
	</g>
	<g>
		<path d="M36.46,5.83l-0.34,0.2C35,6.67,34.67,8.13,35.4,9.19l1.39,2.03c0.66,0.95,1.93,1.24,2.92,0.66l0,0
			c1-0.58,1.39-1.83,0.89-2.86L39.56,6.8C39.02,5.62,37.58,5.19,36.46,5.83z"/>
		<g>
			<path d="M41.06,13.54l-0.54,0.32c-0.73,0.42-0.94,1.37-0.46,2.06l2.24,3.24c0.42,0.61,1.25,0.8,1.9,0.42l0,0
				c0.65-0.38,0.89-1.19,0.58-1.86l-1.7-3.56C42.72,13.41,41.79,13.13,41.06,13.54z"/>
			<path d="M44.73,22.7l2.05,2.97c0.24,0.34,0.69,0.45,1.06,0.24l0,0c0.37-0.21,0.51-0.66,0.32-1.04l-1.54-3.25
				c-0.2-0.42-0.72-0.59-1.12-0.35L45,21.55C44.58,21.78,44.46,22.31,44.73,22.7z"/>
		</g>
	</g>
	<g>
		<path d="M30.56,23.94l-0.32,0.54c-0.42,0.73-0.13,1.66,0.62,2.01l3.56,1.7c0.67,0.32,1.48,0.07,1.86-0.58l0,0
			c0.38-0.65,0.19-1.47-0.42-1.9l-3.24-2.24C31.93,22.99,30.98,23.21,30.56,23.94z"/>
		<path d="M22.73,19.54l-0.2,0.34c-0.65,1.12-0.2,2.54,0.97,3.1l2.21,1.05c1.04,0.49,2.28,0.11,2.86-0.89l0,0
			c0.58-1,0.29-2.27-0.66-2.92l-2.03-1.39C24.84,18.11,23.38,18.44,22.73,19.54z"/>
		<path d="M38.33,30.04l3.25,1.54c0.38,0.18,0.82,0.04,1.04-0.32l0,0c0.21-0.37,0.11-0.82-0.24-1.06l-2.97-2.05
			c-0.39-0.27-0.92-0.14-1.15,0.26l-0.28,0.49C37.74,29.31,37.9,29.82,38.33,30.04z"/>
	</g>
	<g>
		<path d="M68.77,13.54l0.54,0.32c0.73,0.42,0.94,1.37,0.46,2.06l-2.24,3.24c-0.42,0.61-1.25,0.8-1.9,0.42l0,0
			c-0.65-0.38-0.89-1.19-0.58-1.86l1.7-3.56C67.11,13.41,68.04,13.13,68.77,13.54z"/>
		<path d="M65.09,22.7l-2.05,2.97c-0.24,0.34-0.69,0.45-1.06,0.24l0,0c-0.37-0.21-0.51-0.66-0.32-1.04l1.54-3.25
			c0.2-0.42,0.72-0.59,1.12-0.35l0.49,0.28C65.23,21.78,65.35,22.31,65.09,22.7z"/>
		<g>
			<path d="M73.35,5.83l0.34,0.2c1.12,0.65,1.45,2.11,0.72,3.17l-1.39,2.03c-0.66,0.95-1.93,1.24-2.92,0.66l0,0
				c-1-0.58-1.39-1.83-0.89-2.86l1.05-2.21C70.8,5.62,72.23,5.19,73.35,5.83z"/>
		</g>
	</g>
	<g>
		<path d="M79.15,23.84l0.32,0.54c0.42,0.73,0.13,1.66-0.62,2.01l-3.57,1.7c-0.67,0.32-1.48,0.07-1.86-0.58l0,0
			c-0.38-0.65-0.19-1.47,0.42-1.9l3.24-2.24C77.77,22.9,78.73,23.11,79.15,23.84z"/>
		<path d="M86.97,19.46l0.2,0.34c0.65,1.12,0.2,2.54-0.97,3.1l-2.21,1.05c-1.04,0.49-2.28,0.11-2.86-0.89l0,0
			c-0.58-1-0.29-2.27,0.66-2.92l2.03-1.39C84.87,18.01,86.34,18.34,86.97,19.46z"/>
		<path d="M71.39,29.94l-3.25,1.54c-0.38,0.18-0.82,0.04-1.04-0.32l0,0c-0.21-0.37-0.11-0.82,0.24-1.06l2.97-2.05
			c0.39-0.27,0.92-0.14,1.15,0.26l0.28,0.49C71.97,29.22,71.82,29.74,71.39,29.94z"/>
	</g>
	<g>
		<g>
			<path d="M40.21,61.96l0.54,0.32c0.73,0.42,1.66,0.13,2.01-0.62l1.7-3.56c0.32-0.67,0.07-1.48-0.58-1.86l0,0
				c-0.65-0.38-1.47-0.19-1.9,0.42l-2.24,3.24C39.28,60.59,39.49,61.55,40.21,61.96z"/>
			<path d="M35.83,69.79l0.34,0.2c1.12,0.65,2.54,0.2,3.1-0.97l1.05-2.21c0.49-1.04,0.11-2.28-0.89-2.86l0,0
				c-1-0.58-2.27-0.29-2.92,0.66l-1.39,2.03C34.38,67.7,34.71,69.16,35.83,69.79z"/>
			<path d="M46.31,54.21l1.54-3.25c0.18-0.38,0.04-0.82-0.32-1.04l0,0c-0.37-0.21-0.82-0.11-1.06,0.24l-2.05,2.97
				c-0.27,0.39-0.14,0.92,0.26,1.15l0.49,0.28C45.59,54.79,46.11,54.62,46.31,54.21z"/>
		</g>
	</g>
	<g>
		<path d="M69.39,61.92l-0.54,0.32c-0.73,0.42-1.66,0.13-2.01-0.62l-1.7-3.56c-0.32-0.67-0.07-1.48,0.58-1.86l0,0
			c0.65-0.38,1.47-0.19,1.9,0.42l2.24,3.24C70.33,60.56,70.12,61.5,69.39,61.92z"/>
		<path d="M63.29,54.16l-1.54-3.25c-0.18-0.38-0.04-0.82,0.32-1.04l0,0c0.37-0.21,0.82-0.11,1.06,0.24l2.05,2.97
			c0.27,0.39,0.14,0.92-0.26,1.15l-0.49,0.28C64.01,54.75,63.49,54.59,63.29,54.16z"/>
		<g>
			<path d="M73.78,69.76l-0.34,0.2c-1.12,0.65-2.54,0.2-3.1-0.97l-1.05-2.21c-0.49-1.04-0.11-2.28,0.89-2.86l0,0
				c1-0.58,2.27-0.29,2.92,0.66l1.39,2.03C75.22,67.65,74.89,69.11,73.78,69.76z"/>
		</g>
	</g>
	<g>
		<path d="M30.24,51.57l0.32,0.54c0.42,0.73,1.37,0.94,2.06,0.46l3.24-2.24c0.61-0.42,0.8-1.25,0.42-1.9l0,0
			c-0.38-0.65-1.19-0.89-1.86-0.58l-3.56,1.7C30.11,49.91,29.82,50.84,30.24,51.57z"/>
		<path d="M22.52,56.17l0.2,0.34c0.65,1.12,2.11,1.45,3.17,0.72l2.03-1.39c0.95-0.66,1.24-1.93,0.66-2.92l0,0
			c-0.58-1-1.83-1.39-2.86-0.89l-2.21,1.05C22.32,53.61,21.89,55.05,22.52,56.17z"/>
		<path d="M39.4,47.9l2.97-2.05c0.34-0.24,0.45-0.69,0.24-1.06l0,0c-0.21-0.37-0.66-0.51-1.04-0.32l-3.25,1.54
			c-0.42,0.2-0.59,0.72-0.35,1.12l0.28,0.49C38.49,48.05,39.02,48.17,39.4,47.9z"/>
	</g>
	<g>
		<path d="M79.46,51.57l-0.32,0.54c-0.42,0.73-1.37,0.94-2.06,0.46l-3.24-2.24c-0.61-0.42-0.8-1.25-0.42-1.9l0,0
			c0.38-0.65,1.19-0.89,1.86-0.58l3.56,1.7C79.59,49.91,79.88,50.84,79.46,51.57z"/>
		<path d="M87.17,56.17l-0.2,0.34c-0.65,1.12-2.11,1.45-3.17,0.72l-2.03-1.39c-0.95-0.66-1.24-1.93-0.66-2.92l0,0
			c0.58-1,1.83-1.39,2.86-0.89l2.21,1.05C87.37,53.61,87.82,55.05,87.17,56.17z"/>
		<path d="M70.3,47.9l-2.97-2.05c-0.34-0.24-0.45-0.69-0.24-1.06l0,0c0.21-0.37,0.66-0.51,1.04-0.32l3.25,1.54
			c0.42,0.2,0.59,0.72,0.35,1.12l-0.28,0.49C71.21,48.05,70.69,48.17,70.3,47.9z"/>
	</g>
</g>
</svg>
