<?xml version="1.0" encoding="utf-8"?>
<!-- Generator: Adobe Illustrator 28.1.0, SVG Export Plug-In . SVG Version: 6.00 Build 0)  -->
<svg version="1.1" id="Layer_1" xmlns="http://www.w3.org/2000/svg" xmlns:xlink="http://www.w3.org/1999/xlink" x="0px" y="0px"
	 viewBox="0 0 110.55 76.54" style="enable-background:new 0 0 110.55 76.54;" xml:space="preserve">
<style type="text/css">
	.st0{display:none;}
	.st1{display:inline;fill:none;}
	.st2{fill:#808080;}
</style>
<g id="Layer_2_00000073722119373351752270000017113015111246931634_" class="st0">
	<line class="st1" x1="-24.13" y1="74.54" x2="142.13" y2="74.54"/>
	<line class="st1" x1="-24.13" y1="2" x2="142.13" y2="2"/>
</g>
<g>
	<path class="st2" d="M1879.74,2086.84c3.3,0,5.96-2.66,5.96-5.96c0-3.3-2.66-5.96-5.96-5.96c-3.3,0-5.96,2.66-5.96,5.96
		C1873.77,2084.18,1876.43,2086.84,1879.74,2086.84z"/>
	<path class="st2" d="M1886.1,2093.13c5.88-0.81,13.22-2.18,14.43-2.34c1.45-0.24,2.42-1.69,2.18-3.14
		c-0.24-1.45-1.69-2.42-3.14-2.18c-6.53,1.21-17.17,2.9-19.83,2.9c-10.4,0-15.15,6.93-15.31,7.25c-0.64,0.97-0.56,2.18,0.08,3.06
		l4.67,6.61c0.56,0.73,1.37,1.13,2.18,1.13c0.56,0,1.05-0.16,1.53-0.48c0.16-0.08,0.24-0.24,0.4-0.32v1.85l-1.69,19.91
		c-0.16,1.61,1.05,3.06,2.74,3.22c1.61,0.16,3.06-1.05,3.22-2.74l1.61-19.18h1.13l1.61,19.18c0.16,1.53,1.45,2.74,2.98,2.74
		c0.08,0,0.16,0,0.24,0c1.61-0.16,2.9-1.61,2.74-3.22l-1.69-19.91L1886.1,2093.13z M1873.29,2101.83l-3.22-4.59
		c0.73-0.64,1.85-1.53,3.3-2.18L1873.29,2101.83z"/>
</g>
<g>
	<path class="st2" d="M1933.79,2093.61c1.85,0.21,3.48,0.36,4.83,0.36c1.99,0,3.48-0.28,4.48-1.21c0.64-0.57,1.07-1.35,1.07-2.27
		c0.14-2.27-2.49-6.33-7.75-12.01c-0.92-1-2.49-1.07-3.55-0.14c-0.21,0.14-0.28,0.36-0.43,0.57c-0.78-2.35-2.91-3.98-5.55-3.98
		c-2.56,0-4.76,1.71-5.55,3.98c-0.14-0.21-0.28-0.43-0.43-0.57c-1-0.92-2.56-0.85-3.55,0.14c-5.26,5.69-7.89,9.67-7.75,12.01
		c0.07,0.92,0.43,1.71,1.07,2.27c1,0.85,2.49,1.21,4.48,1.21c1.35,0,2.99-0.14,4.83-0.36c0.36,0,0.71-0.07,1-0.07l0.28,12.51
		c0,0.14,0,0.21,0,0.36l-3.55,8.25c-0.36,0.92-0.64,1.85-0.78,2.77l-1.07,10.02c-0.21,1.56,0.92,3.06,2.56,3.27
		c0.14,0,0.21,0,0.36,0c1.42,0,2.7-1.07,2.91-2.56l1.28-10.02c0.07-0.43,0.14-0.85,0.36-1.21l3.77-8.74l3.77,8.74
		c0.14,0.43,0.28,0.78,0.36,1.21l1.28,10.02c0.21,1.56,1.64,2.7,3.27,2.56c1.56-0.21,2.7-1.64,2.56-3.27l-1.28-10.02
		c-0.14-1-0.36-1.92-0.78-2.77l-3.55-8.25c0-0.07,0-0.21,0-0.28l0.28-12.58C1933.15,2093.54,1933.51,2093.54,1933.79,2093.61z
		 M1930.38,2088.35h-6.75c-1.14,0-2.49,0.14-3.91,0.28c-1.14,0.14-2.84,0.28-4.19,0.28c1.14-1.78,3.34-4.55,5.69-7.04
		c0-0.07,0.07-0.07,0.07-0.14c0.5,2.77,2.84,4.83,5.76,4.83c2.91,0,5.26-2.06,5.76-4.83c0,0.07,0.07,0.07,0.07,0.14
		c2.35,2.49,4.55,5.26,5.69,7.04c-1.35,0-3.06-0.21-4.19-0.28C1932.87,2088.49,1931.44,2088.35,1930.38,2088.35z"/>
</g>
<path class="st2" d="M1898.76,2079.8c0.4,0.4,1.05-0.08,0.81-0.56l-2.42-4.92l3.3-0.81c0.32-0.08,0.48-0.4,0.32-0.73l-4.03-7.5
	c-0.08-0.16-0.32-0.32-0.56-0.24l-3.47,0.81c-0.32,0.08-0.48,0.48-0.32,0.81l3.14,4.43l-3.06,0.73c-0.4,0.08-0.48,0.56-0.24,0.81
	L1898.76,2079.8z"/>
<path class="st2" d="M1905.57,2070.13l3.3,0.81l-2.42,4.92c-0.24,0.48,0.4,0.97,0.81,0.56l6.61-7.09c0.24-0.32,0.16-0.73-0.24-0.81
	l-3.06-0.81l3.14-4.43c0.24-0.32,0.08-0.73-0.32-0.81l-3.47-0.81c-0.24-0.08-0.48,0.08-0.56,0.24l-4.03,7.5
	C1905.08,2069.73,1905.32,2070.05,1905.57,2070.13z"/>
<g>
	<path class="st2" d="M2127.3,2077.06c4.13,0,7.45-3.35,7.45-7.45c0-4.13-3.33-7.47-7.45-7.47c-4.13,0-7.47,3.35-7.47,7.47
		C2119.83,2073.72,2123.17,2077.06,2127.3,2077.06L2127.3,2077.06z"/>
	<path class="st2" d="M2156.47,2130.52c-1.76,0-3.47-0.4-4.97-1.06c-1.54-0.72-3.29-1.14-5.11-1.14c-1.8,0-3.55,0.42-5.09,1.14
		c-1.52,0.66-3.21,1.06-4.97,1.06c-1.76,0-3.45-0.4-4.95-1.06c-1.54-0.72-3.29-1.14-5.11-1.14c-1.82,0-3.57,0.42-5.11,1.14
		c-1.5,0.66-3.18,1.06-4.95,1.06c-1.76,0-3.45-0.4-4.97-1.06c-1.54-0.72-3.27-1.14-5.09-1.14c-1.82,0-3.57,0.42-5.11,1.14
		c-1.5,0.66-3.19,1.06-4.95,1.06c-1.74,0-3.43-0.4-4.95-1.06c-1.54-0.72-3.29-1.14-5.09-1.14c-1.82,0-3.57,0.42-5.11,1.14
		c-1.5,0.66-3.19,1.06-4.95,1.06v-7.43c1.76,0,3.45-0.38,4.95-1.06c1.54-0.72,3.29-1.14,5.11-1.14c1.8,0,3.55,0.42,5.09,1.14
		c1.52,0.68,3.21,1.06,4.95,1.06c1.76,0,3.45-0.38,4.95-1.06c1.54-0.72,3.29-1.14,5.11-1.14c1.82,0,3.55,0.42,5.09,1.14
		c1.52,0.68,3.21,1.06,4.97,1.06c1.76,0,3.45-0.38,4.95-1.06c1.54-0.72,3.29-1.14,5.11-1.14c1.82,0,3.57,0.42,5.11,1.14
		c1.5,0.68,3.18,1.06,4.95,1.06c1.76,0,3.45-0.38,4.97-1.06c1.54-0.72,3.29-1.14,5.09-1.14c1.82,0,3.57,0.42,5.11,1.14
		c1.5,0.68,3.21,1.06,4.97,1.06V2130.52z"/>
	<path class="st2" d="M2081.13,2115.71c1.5-0.68,3.17-1.06,4.93-1.06c1.8,0,3.55,0.42,5.09,1.14c1.52,0.66,3.21,1.06,4.95,1.06
		c1.76,0,3.45-0.4,4.95-1.06c1.54-0.72,3.29-1.14,5.11-1.14c1.82,0,3.55,0.42,5.09,1.14c1.52,0.66,3.21,1.06,4.97,1.06
		c1.76,0,3.45-0.4,4.95-1.06c0.98-0.46,2-0.76,3.09-0.96l12.86-14.71h-16.55l6.85-11.76l15.03,8.21c4.97,2.8,8.64-3.67,3.65-6.47
		l-21.52-11.9c-7.92-4.41-11.26,2.91-11.26,2.91l-11.1,18.75l-29.23-0.02C2073.9,2105.2,2078.71,2112.37,2081.13,2115.71
		L2081.13,2115.71z"/>
	<path class="st2" d="M2128.12,2114.79c1.14,0.18,2.24,0.52,3.27,1c1.5,0.66,3.18,1.06,4.95,1.06c1.76,0,3.45-0.4,4.97-1.06
		c1.54-0.72,3.29-1.14,5.09-1.14c1.82,0,3.57,0.42,5.11,1.14c1.5,0.66,3.21,1.06,4.97,1.06l-0.04-16.73l-15.51-0.02L2128.12,2114.79
		z"/>
</g>
<g>
	<path d="M-4780.81,2202.62v-1.51c0-2.38-1.93-4.31-4.31-4.31h-0.32l-2.6-10.41c-0.16-0.64-0.73-1.09-1.39-1.09h-2.88
		c-0.66,0-1.23,0.45-1.39,1.09l-2.6,10.41h-0.32c-2.38,0-4.31,1.93-4.31,4.31v1.51c-2.44,0.35-4.31,2.43-4.31,4.96v9.34v25.87v2.16
		c0,0.4,0.32,0.72,0.72,0.72h1.44c0.4,0,0.72-0.32,0.72-0.72v-0.72h23v5.03c0,1.19-0.97,2.16-2.16,2.16h-18.69
		c-1.19,0-2.16-0.97-2.16-2.16c0-0.4-0.32-0.72-0.72-0.72h-1.44c-0.4,0-0.72,0.32-0.72,0.72c0,2.78,2.25,5.03,5.03,5.03h18.69
		c2.78,0,5.03-2.25,5.03-5.03v-6.47v-25.87v-9.34C-4776.49,2205.05-4778.37,2202.98-4780.81,2202.62z M-4791.18,2188.18h0.63
		l2.16,8.62h-4.94L-4791.18,2188.18z M-4798.05,2201.11c0-0.79,0.64-1.44,1.44-1.44h1.44h8.62h1.44c0.79,0,1.44,0.64,1.44,1.44v1.44
		h-14.37V2201.11z M-4800.21,2205.43h0.72h17.25h0.72c1.19,0,2.16,0.97,2.16,2.16v7.91h-23v-7.91
		C-4802.37,2206.39-4801.4,2205.43-4800.21,2205.43z M-4802.37,2241.36v-23h23v23H-4802.37z"/>
	<path d="M-4787.76,2224.52c0.4-0.13,0.84-0.24,1.37-0.31c0.72-0.09,1.27-0.69,1.27-1.41v-0.03c0-0.84-0.73-1.52-1.57-1.42
		c-1.03,0.13-1.95,0.39-2.75,0.74v-0.85c0-0.79-0.64-1.44-1.44-1.44s-1.44,0.64-1.44,1.44v0.56c-0.95-0.33-1.99-0.47-2.86-0.52
		c-0.79-0.05-1.45,0.57-1.45,1.36v0.16c0,0.72,0.58,1.31,1.3,1.36c0.8,0.05,1.38,0.15,1.81,0.27c-3.69,0.8-5.99,3.31-5.99,6.89
		c0,4.76,3.86,8.62,8.62,8.62c4.76,0,8.62-3.86,8.62-8.62C-4782.24,2227.88-4784.34,2225.43-4787.76,2224.52z M-4790.87,2237.05
		c-3.18,0-5.75-2.57-5.75-5.75c0-3.89,4.02-4.31,5.75-4.31c1.73,0,5.75,0.42,5.75,4.31
		C-4785.12,2234.47-4787.69,2237.05-4790.87,2237.05z"/>
</g>
<g>
	<path d="M80.9,66.05c1.78-0.39,3.5-0.76,5.22-1.13c-0.28-0.99-0.59-1.96-0.84-2.95c-0.29-1.18-0.54-2.37-0.78-3.56
		c-0.14-0.69,0.17-1.21,0.79-1.41c0.62-0.2,1.2,0.08,1.4,0.7c0.07,0.2,0.1,0.42,0.14,0.62c0.4,1.81,0.8,3.62,1.21,5.43
		c0.15,0.66,0.18,0.65,0.85,0.53c2.07-0.38,4.14-0.8,6.22-1.11c2.21-0.33,4.44-0.54,6.69-0.49c0.48,0.01,0.8,0.24,0.98,0.65
		c0.18,0.41,0.1,0.8-0.2,1.14c-0.27,0.31-0.6,0.51-1.04,0.51c-3.03,0.04-6.02,0.47-8.99,1c-2.34,0.42-4.66,0.91-6.97,1.46
		c-3.87,0.91-7.72,1.87-11.57,2.86c-2.82,0.72-5.62,1.53-8.44,2.28c-1.68,0.45-3.35,0.89-5.05,1.27c-1.43,0.32-2.89,0.5-4.37,0.32
		c-1.07-0.13-2.05-0.5-3.01-0.95c-1.77-0.83-3.53-1.69-5.33-2.46c-2.23-0.95-4.56-1.57-6.95-1.95c-1.9-0.3-3.81-0.36-5.72-0.4
		c-3.36-0.08-6.68,0.21-9.98,0.83c-3.31,0.63-6.53,1.58-9.66,2.81c-0.49,0.19-1,0.36-1.5,0.52c-0.17,0.05-0.34,0.08-0.52,0.09
		c-0.74,0.03-1.22-0.59-1-1.3c0.05-0.16,0.2-0.33,0.34-0.41c0.61-0.34,1.22-0.68,1.85-0.96c2.52-1.14,5.13-2,7.82-2.66
		c0.79-0.19,1.6-0.34,2.4-0.51c0.04-0.01,0.09-0.02,0.17-0.04c-0.16-0.5-0.32-0.98-0.46-1.47c-0.4-1.4-1.18-2.61-1.85-3.89
		c-0.56-1.07-1.3-2.01-2.04-2.95c-0.61-0.78-1.47-1.19-2.41-1.4c-1.28-0.29-2.58-0.53-3.87-0.81c-0.36-0.08-0.71-0.22-1.04-0.37
		c-0.33-0.16-0.48-0.45-0.45-0.83c0.03-0.38,0.26-0.61,0.61-0.71c0.18-0.05,0.36-0.09,0.55-0.09c1.44-0.02,2.83,0.23,4.18,0.69
		c0.11,0.04,0.22,0.06,0.34,0.09c0.01-0.02,0.03-0.04,0.04-0.06c-0.19-0.19-0.36-0.4-0.56-0.56c-0.73-0.56-1.45-1.13-2.21-1.64
		c-0.66-0.45-1.45-0.55-2.22-0.68c-1.34-0.23-2.69-0.47-4.03-0.72c-0.11-0.02-0.21-0.06-0.32-0.1c-0.26-0.11-0.56-0.19-0.59-0.55
		c-0.04-0.42,0.06-0.8,0.43-1.05c0.33-0.22,0.69-0.34,1.08-0.31c1.07,0.09,2.14,0.2,3.17,0.55c0.09,0.03,0.19,0.05,0.29,0.08
		c0.01-0.03,0.03-0.06,0.04-0.08c-0.32-0.2-0.63-0.42-0.97-0.59c-0.78-0.39-1.57-0.77-2.36-1.13c-0.26-0.12-0.55-0.17-0.82-0.25
		c-0.16-0.05-0.32-0.09-0.48-0.14c-0.59-0.22-0.76-0.44-0.7-0.94c0.07-0.63,0.38-0.98,0.95-1.07c0.73-0.11,1.37,0.18,1.93,0.57
		c1.2,0.83,2.36,1.71,3.54,2.56c0.03,0.02,0.06,0.03,0.1,0.06c0.18-0.23,0.04-0.43-0.02-0.63c-0.24-0.83-0.52-1.65-0.72-2.48
		c-0.18-0.76,0.11-1.24,0.73-1.39c0.7-0.17,1.41,0.19,1.59,0.87c0.14,0.54,0.17,1.1,0.25,1.65c0.15,1.05,0.25,2.1,0.46,3.14
		c0.24,1.18,0.83,2.17,1.9,2.92c0.02-0.24,0.03-0.43,0.04-0.62c0.09-1.66,0.16-3.32,0.27-4.98c0.04-0.65,0.57-1.03,1.27-0.99
		c0.64,0.04,1.08,0.48,1.04,1.14c-0.05,0.71-0.17,1.42-0.26,2.13c-0.2,1.61-0.39,3.21-0.15,4.83c0.16,1.1,0.57,2.11,1.14,3.06
		c0.17,0.27,0.34,0.55,0.52,0.84c0.05-0.56,0.05-1.09,0.16-1.6c0.24-1.09,0.48-2.18,0.82-3.23c0.39-1.19,0.88-2.34,1.36-3.5
		c0.17-0.41,0.41-0.8,0.67-1.15c0.4-0.53,1.03-0.5,1.47,0.01c0.41,0.48,0.45,0.98,0.17,1.55c-0.37,0.77-0.76,1.53-1.06,2.33
		c-0.81,2.21-1.45,4.47-1.62,6.83c-0.03,0.43-0.01,0.87,0.04,1.31c0.05,0.42,0.17,0.83,0.25,1.25c0.02,0,0.05,0,0.07,0
		c0.08-0.24,0.15-0.47,0.24-0.71c0.57-1.56,1.3-3.04,2.12-4.47c0.35-0.61,0.75-1.2,1.14-1.78c0.27-0.4,0.65-0.63,1.17-0.52
		c0.52,0.11,0.88,0.54,0.85,1.08c-0.02,0.43-0.17,0.81-0.4,1.17c-1.48,2.27-2.6,4.71-3.38,7.3c-0.21,0.68-0.29,1.4-0.43,2.1
		c-0.01,0.03,0,0.07,0.01,0.14c0.49-0.07,0.96-0.14,1.43-0.19c2.58-0.29,5.15-0.57,7.75-0.4c0.09,0.01,0.19,0.01,0.28-0.01
		c0.13-0.03,0.25-0.08,0.38-0.12c-0.05-0.13-0.08-0.28-0.15-0.4c-0.26-0.4-0.55-0.77-0.8-1.17c-0.92-1.52-1.48-3.18-1.77-4.93
		c-0.33-2.02-0.65-4.03-0.87-6.06c-0.24-2.21-0.4-4.44-0.52-6.66c-0.1-1.74-0.11-3.49-0.11-5.24c-0.01-1.46,0.38-2.84,1.05-4.14
		c0.02-0.04,0.03-0.08,0.05-0.15c-0.45-0.16-0.9-0.16-1.35-0.11c-2.12,0.24-4.19,0.71-6.22,1.34c-0.2,0.06-0.42,0.12-0.62,0.12
		c-0.13,0-0.31-0.09-0.39-0.2c-0.05-0.07,0.02-0.25,0.07-0.36c0.15-0.3,0.43-0.43,0.73-0.55c2.02-0.74,4.09-1.3,6.24-1.47
		c0.33-0.03,0.67-0.05,1-0.08c0.09-0.01,0.17-0.05,0.25-0.07c-0.21-0.77-0.88-1.23-1.63-1.17c-1.79,0.15-3.57,0.28-5.36,0.45
		c-0.69,0.06-1.38,0.2-2.07,0.3c-0.12,0.02-0.24,0.04-0.36,0.05c-0.24,0-0.45-0.07-0.53-0.32c-0.08-0.27,0.05-0.59,0.31-0.67
		c0.42-0.12,0.84-0.23,1.27-0.28c1.36-0.16,2.71-0.31,4.07-0.43c0.56-0.05,1.13-0.02,1.7-0.02c0.17,0,0.35,0,0.61,0
		c-0.15-0.25-0.29-0.42-0.36-0.61c-0.24-0.62-0.74-0.74-1.32-0.75c-1.79-0.03-3.55-0.34-5.31-0.57c-0.28-0.04-0.55-0.14-0.83-0.22
		c-0.04-0.01-0.09-0.03-0.13-0.05c-0.2-0.12-0.42-0.3-0.33-0.52c0.06-0.15,0.34-0.3,0.51-0.3c0.69,0.02,1.39,0.08,2.08,0.18
		c1.41,0.21,2.82,0.45,4.24,0.67c0.03,0.01,0.07,0,0.15,0c-0.05-0.12-0.07-0.21-0.12-0.3c-0.12-0.24-0.27-0.47-0.38-0.71
		c-0.24-0.52-0.63-0.8-1.21-0.87c-1.21-0.15-2.41-0.33-3.61-0.51c-0.02,0-0.04,0-0.06-0.01c-0.23-0.05-0.48-0.07-0.53-0.36
		c-0.03-0.21,0.28-0.54,0.54-0.56c0.41-0.03,0.82-0.05,1.22-0.03c0.8,0.05,1.61,0.12,2.43,0.19c-0.05-0.19-0.09-0.4-0.15-0.61
		c-0.85-2.89-0.62-5.75,0.27-8.58c0.19-0.6,0.39-1.2,0.61-1.79c0.14-0.39,0.12-0.69-0.24-0.95c-0.22-0.17-0.41-0.38-0.63-0.55
		c-1.22-0.95-1.92-2.22-2.27-3.7c-0.42-1.76-0.5-3.52,0.03-5.28c0.62-2.05,2.43-3.75,4.84-3.92c2.32-0.16,4.34,0.53,6.13,1.95
		C36.91,5,37.1,5.13,37.28,5.28c0.31,0.25,0.66,0.29,1.02,0.13c0.67-0.28,1.32-0.59,2-0.84c3.2-1.19,6.49-1.54,9.87-1.07
		c1.8,0.25,3.54,0.73,5.2,1.5c0.53,0.24,1.08,0.46,1.61,0.69c0.15,0.07,0.26,0.06,0.39-0.07c0.38-0.35,0.76-0.71,1.17-1.02
		c1.54-1.19,3.31-1.62,5.22-1.6c1.01,0.01,1.98,0.23,2.85,0.75c1.57,0.93,2.5,2.31,2.87,4.09c0.45,2.14,0.25,4.21-0.68,6.2
		c-0.51,1.09-1.34,1.94-2.35,2.58c-0.32,0.21-0.44,0.43-0.38,0.79c0.08,0.46,0.12,0.92,0.17,1.38c0.02,0.17,0.09,0.25,0.26,0.3
		c1.4,0.37,2.81,0.69,4.19,1.12c3.31,1.04,6.34,2.57,8.84,5.04c2.15,2.13,3.79,4.57,4.73,7.45c0.42,1.27,0.71,2.58,0.86,3.91
		c0.04,0.37,0.21,0.66,0.5,0.9c1.06,0.85,2.29,1.22,3.61,1.29c2.53,0.13,4.77-0.57,6.6-2.39c0.68-0.68,1.17-1.49,1.5-2.39
		c0.17-0.46,0.13-0.57-0.35-0.91c-0.92-0.66-1.59-1.51-1.97-2.57c-0.45-1.25-0.55-2.53-0.07-3.79c0.47-1.23,1.43-1.91,2.73-2.1
		c2.25-0.33,4.24,0.88,5.33,2.88c0.64,1.18,0.94,2.45,1.03,3.78c0.12,1.96-0.12,3.87-0.84,5.71c-0.59,1.52-1.38,2.92-2.4,4.19
		c-2.27,2.83-5.26,4.41-8.8,4.93c-2.26,0.34-4.54,0.28-6.78-0.23c-0.05-0.01-0.11,0-0.16-0.02c-0.19-0.08-0.25-0.02-0.28,0.19
		c-0.3,1.88-0.56,3.76-0.92,5.63c-0.37,1.89-0.85,3.76-1.26,5.65c-0.54,2.5-1.05,5.01-1.56,7.52C80.98,65.25,80.95,65.62,80.9,66.05
		z M46.66,56.16c-0.45-0.27-0.89-0.52-1.32-0.8c-1.92-1.27-3.71-2.7-5.29-4.38c-0.63-0.67-1.25-1.35-1.72-2.15
		c-0.45-0.77-0.21-1.51,0.62-1.83c0.14-0.05,0.35-0.05,0.47,0.02c0.29,0.19,0.58,0.4,0.82,0.66c0.66,0.71,1.26,1.47,1.93,2.16
		c2.12,2.19,4.57,3.95,7.28,5.36c1.16,0.6,2.4,0.87,3.71,0.8c0.27-0.01,0.46-0.1,0.63-0.32c0.54-0.7,1.08-1.39,1.67-2.05
		c1.55-1.73,3.15-3.41,4.95-4.89c0.43-0.35,0.86-0.79,1.1-1.28c0.46-0.94,0.85-1.92,1.14-2.92c0.51-1.76,0.62-3.6,0.79-5.42
		c0.05-0.57,0.39-0.86,0.96-0.82c0.77,0.05,1.27,0.8,1.27,1.36c-0.01,1.95-0.24,3.88-1.03,5.69c-0.33,0.75-0.78,1.45-1.19,2.17
		c-0.75,1.32-1.53,2.61-2.63,3.68c-0.46,0.45-0.93,0.89-1.35,1.36c-0.77,0.85-1.52,1.73-2.27,2.6c-0.73,0.85-1.43,1.73-1.95,2.74
		c-0.37,0.72-0.61,1.47-0.56,2.3c0.02,0.37,0.11,0.69,0.46,0.89c0.11,0.06,0.19,0.18,0.26,0.28c0.49,0.79,0.92,1.6,1.66,2.24
		c0.69,0.6,0.33,1.64-0.56,1.88c-0.63,0.16-1.27,0.28-1.89,0.48c-1.32,0.41-2.33,1.22-2.88,2.51c-0.24,0.57-0.19,1.11,0.32,1.54
		c0.25,0.21,0.49,0.43,0.77,0.59c0.46,0.25,0.95,0.45,1.43,0.68c0.22,0.1,0.43,0.21,0.72,0.35c-0.36-0.66-0.43-1.28-0.23-1.94
		c0.2-0.65,0.58-1.18,1.14-1.57c0.68-0.48,1.87-0.63,2.26-0.32c-0.39,0.26-0.82,0.49-1.18,0.8c-0.54,0.47-0.83,1.09-0.65,1.82
		c0.23,0.93,1.18,1.55,2.2,1.44c0.37-0.04,0.74-0.09,1.1-0.18c1.38-0.37,2.74-0.81,4.13-1.14c0.55-0.13,0.72-0.41,0.83-0.91
		c0.49-2.21,1.02-4.41,1.52-6.62c0.57-2.48,1.15-4.96,1.68-7.44c0.54-2.51,1.04-5.02,1.28-7.57c0.15-1.6,0.15-3.19-0.09-4.78
		c-0.2-1.29-0.46-2.58-1-3.79c-0.07-0.16-0.1-0.34-0.12-0.51c-0.11-1.37-0.22-2.74-0.32-4.11c-0.13-1.86-0.28-3.72-0.74-5.54
		c-0.11-0.41-0.22-0.82-0.33-1.24c-0.16,0.29-0.25,0.57-0.36,0.85c-0.12,0.3-0.25,0.6-0.39,0.89c-0.1,0.21-0.17,0.44-0.32,0.6
		c-0.38,0.41-0.79,0.78-1.19,1.16c-0.11,0.11-0.23,0.21-0.39,0.35c0.15,0.01,0.24,0.03,0.33,0.03c0.47,0.02,0.95,0.03,1.42,0.04
		c0.28,0.01,0.34,0.24,0.33,0.43c0,0.13-0.12,0.3-0.24,0.38c-0.1,0.07-0.27,0.08-0.4,0.08c-0.68-0.02-1.35-0.04-2.03-0.08
		c-0.39-0.02-0.69,0.15-0.89,0.58c0.18,0.05,0.35,0.13,0.52,0.14c0.98,0.03,1.91,0.25,2.84,0.54c0.27,0.09,0.29,0.29,0.28,0.51
		c-0.01,0.23-0.18,0.28-0.37,0.3c-0.15,0.01-0.3,0.02-0.44,0c-1.41-0.2-2.83-0.4-4.24-0.61c-0.26-0.04-0.46-0.01-0.67,0.17
		c-0.35,0.3-0.73,0.57-1.09,0.86c-0.07,0.05-0.11,0.14-0.2,0.26c0.22,0.04,0.37,0.08,0.52,0.09c1.27,0.12,2.53,0.27,3.75,0.67
		c0.92,0.3,1.85,0.56,2.69,1.05c0.11,0.07,0.31,0.11,0.22,0.32c-0.1,0.21-0.43,0.39-0.58,0.35c-0.33-0.1-0.65-0.21-0.98-0.31
		c-1.78-0.53-3.61-0.79-5.45-0.92c-0.28-0.02-0.52,0.03-0.68,0.37c0.14,0.12,0.27,0.28,0.44,0.36c0.69,0.32,1.39,0.6,2.09,0.91
		c0.24,0.1,0.48,0.21,0.68,0.37c0.1,0.08,0.2,0.29,0.16,0.39c-0.05,0.12-0.24,0.24-0.38,0.24c-1.7,0.02-3.3-0.36-4.7-1.37
		c-0.36-0.26-0.39-0.26-0.66,0.09c-0.09,0.11-0.18,0.22-0.25,0.33c-0.39,0.57-0.9,1.02-1.53,1.3c-0.56,0.24-1.15,0.42-1.73,0.61
		c-0.18,0.06-0.27,0.15-0.32,0.34c-0.07,0.29-0.15,0.57-0.25,0.86c-0.5,1.46-1.43,2.53-2.85,3.13c-1.82,0.76-3.65,0.64-5.46-0.05
		c-1-0.38-1.86-0.95-2.35-1.94c-0.26-0.53-0.42-1.11-0.61-1.67c-0.06-0.17-0.12-0.26-0.32-0.3c-0.64-0.15-1.29-0.3-1.9-0.53
		c-0.98-0.37-1.66-1.12-2.23-1.99c-0.13-0.2-0.3-0.37-0.45-0.55c-0.04,0-0.07,0-0.11,0c-0.17,0.4-0.37,0.78-0.5,1.19
		c-0.43,1.36-0.5,2.76-0.43,4.16c0.13,2.45,0.27,4.9,0.48,7.34c0.19,2.19,0.42,4.38,0.75,6.55c0.24,1.57,0.62,3.13,1.01,4.67
		c0.23,0.92,0.61,1.79,1.2,2.55c0.83,1.09,1.9,1.47,3.39,1.1c1.31-0.33,2.34-1.1,3.25-2.06c0.82-0.86,1.2-1.87,1.03-3.08
		c-0.08-0.58-0.06-1.19-0.04-1.78C45.87,57.51,46.11,56.79,46.66,56.16z M54.83,36.29c0.09-0.51,0.02-0.61-0.5-0.64
		c-0.12-0.01-0.24-0.02-0.36-0.01c-0.84,0.1-1.68,0.2-2.51,0.3c-0.24,0.03-0.48,0.06-0.72,0.05c-0.29-0.01-0.53-0.3-0.54-0.62
		c-0.01-0.29,0.26-0.27,0.43-0.3c0.52-0.1,1.04-0.17,1.57-0.25c0.89-0.13,1.78-0.37,2.71-0.03c0.08-0.62,0.38-1.27-0.39-1.67
		c-0.04-0.02-0.06-0.07-0.09-0.1c-0.26-0.34-0.31-0.81-0.11-1.09c0.33-0.46,1.01-0.6,1.46-0.33c0.15-0.08,0.28-0.16,0.42-0.22
		c0.54-0.24,1.04-0.53,1.4-1.02c0.3-0.4,0.6-0.8,0.9-1.21c0.67-0.93,1.53-1.67,2.47-2.31c0.16-0.11,0.4-0.19,0.6-0.18
		c0.66,0.05,1.15,0.71,1.05,1.36c-0.08,0.5-0.38,0.87-0.73,1.19c-0.93,0.85-1.88,1.69-2.81,2.53c-0.33,0.3-0.7,0.39-1.14,0.3
		c-0.12-0.03-0.28-0.06-0.38-0.01c-0.45,0.21-0.9,0.43-1.32,0.7c-0.27,0.17-0.22,0.41,0.07,0.55c0.33,0.16,0.64,0.33,0.74,0.73
		c0.04,0.16,0.16,0.1,0.26,0.02c0.37-0.28,0.75-0.55,1.11-0.84c1.25-0.95,2.52-1.87,3.73-2.87c0.81-0.67,1.38-1.56,1.77-2.54
		c0.61-1.51,0.71-3.11,0.52-4.69c-0.21-1.67-0.6-3.32-0.87-4.99c-0.1-0.61-0.37-1.11-0.77-1.57c-0.49-0.56-0.95-1.14-1.41-1.73
		c-0.56-0.71-0.95-1.5-1.02-2.43c-0.12-1.6,0.48-2.85,1.81-3.73c0.94-0.63,2.09-0.4,2.77,0.51c0.38,0.51,0.53,1.1,0.63,1.71
		c0.22,1.28,0,2.44-1.01,3.36c-0.29,0.27-0.27,0.37,0.03,0.63c0.25,0.22,0.47,0.11,0.68-0.04c0.49-0.36,0.95-0.77,1.22-1.32
		c0.99-1.98,1.21-4.02,0.32-6.1c-0.41-0.96-1.08-1.65-2.14-1.86c-1.09-0.22-2.17-0.16-3.21,0.22c-0.75,0.27-1.43,0.67-1.86,1.39
		c-0.13,0.21-0.3,0.4-0.47,0.59c-0.49,0.53-1.09,0.76-1.81,0.6c-0.22-0.05-0.43-0.11-0.64-0.19c-0.58-0.25-1.15-0.53-1.73-0.77
		c-1.32-0.55-2.68-1-4.1-1.23c-0.86-0.14-1.73-0.21-2.6-0.31c-0.15-0.02-0.26,0-0.26,0.19c0,0.78,0,1.55,0,2.34
		c0.09,0.01,0.14,0.01,0.2,0.02c0.91,0.12,1.83,0.21,2.73,0.38c1.02,0.19,2.03,0.48,2.89,1.1c0.47,0.34,0.94,0.72,1.08,1.3
		c0.21,0.88-0.09,1.35-0.99,1.15c-0.62-0.14-1.23-0.34-1.84-0.54c-1.3-0.43-2.63-0.71-4-0.8c-0.12-0.01-0.25,0-0.39,0
		c0.01,0.12,0.02,0.21,0.02,0.29c0.05,0.72,0.12,1.44,0.14,2.16c0.01,0.22,0.05,0.3,0.28,0.34c1.35,0.26,2.67,0.65,3.93,1.2
		c0.32,0.14,0.65,0.28,0.95,0.46c0.39,0.24,0.47,0.5,0.35,0.95c-0.08,0.3-0.29,0.49-0.55,0.64c-0.48,0.28-0.99,0.28-1.51,0.16
		c-0.97-0.23-1.94-0.49-2.92-0.72c-0.42-0.1-0.84-0.16-1.32-0.25c0,0.27-0.01,0.46,0,0.66c0.04,0.51,0.09,1.02,0.13,1.53
		c0.04,0.54-0.2,0.98-0.59,1.33c-0.13,0.12-0.37,0.17-0.55,0.16c-0.51-0.03-0.72-0.43-0.84-0.85c-0.16-0.54-0.12-1.1,0.02-1.65
		c0.08-0.3,0.12-0.61,0.19-0.96c-0.16,0.02-0.26,0.02-0.36,0.04c-0.76,0.16-1.53,0.32-2.29,0.48c-0.47,0.1-0.94,0.26-1.42,0.1
		c-0.38-0.13-0.75-0.33-0.86-0.76c-0.12-0.44,0.11-0.78,0.45-1.03c0.23-0.17,0.47-0.33,0.73-0.45c1.17-0.55,2.39-0.91,3.67-1.06
		c0.09-0.01,0.21-0.12,0.23-0.2c0.15-0.6,0.28-1.21,0.39-1.82c0.04-0.21,0.01-0.43,0.01-0.72c-1.15,0.14-2.25,0.25-3.34,0.41
		c-0.69,0.1-1.36,0.29-2.04,0.42c-0.34,0.06-0.67,0.02-0.95-0.21c-0.46-0.38-0.47-1.05-0.01-1.56c0.34-0.39,0.77-0.64,1.25-0.81
		c1.62-0.57,3.3-0.77,5.01-0.76c0.09,0,0.18,0,0.28,0c0.03-0.87,0.06-1.72,0.09-2.59c-0.48,0.06-0.92,0.1-1.36,0.16
		c-1.53,0.21-3.03,0.56-4.45,1.18c-0.52,0.23-1.03,0.47-1.55,0.69c-0.89,0.39-1.73,0.34-2.51-0.27c-0.4-0.31-0.8-0.61-1.19-0.92
		c-1.23-0.96-2.6-1.51-4.18-1.42c-1.26,0.08-2.21,0.68-2.66,1.88c-0.8,2.11-0.6,4.15,0.55,6.1c0.28,0.47,0.68,0.81,1.18,1.03
		c0.18,0.08,0.3,0.04,0.41-0.14c0.13-0.21,0.01-0.35-0.07-0.51c-0.6-1.19-0.88-2.45-0.6-3.77c0.13-0.64,0.4-1.25,1.03-1.59
		c0.81-0.43,1.78-0.25,2.46,0.48c0.89,0.96,1.14,2.09,0.88,3.36c-0.2,0.97-0.69,1.82-1.2,2.65c-0.57,0.94-1.18,1.86-1.59,2.9
		c-1.1,2.76-1.82,5.57-1.32,8.58c0.26,1.57,0.78,3.03,1.76,4.31c1.03,1.34,2.33,2.36,3.81,3.15c0.53,0.28,1.06,0.6,1.63,0.77
		c1.06,0.32,2.16,0.55,3.24,0.81c0.25,0.06,0.33,0.21,0.3,0.45c-0.04,0.29-0.17,0.42-0.47,0.38c-0.52-0.07-1.04-0.18-1.56-0.27
		c-0.48-0.08-0.97-0.14-1.45-0.22c-0.1,0.49,0.02,0.66,0.45,0.7c0.22,0.02,0.45,0.02,0.67,0.06c0.48,0.1,0.96,0.2,1.43,0.33
		c0.26,0.07,0.43,0.28,0.49,0.56c0.04,0.18-0.03,0.26-0.18,0.26c-0.21,0.01-0.43,0.01-0.64-0.02c-0.59-0.08-1.17-0.18-1.76-0.27
		c-0.09-0.01-0.19,0-0.28,0c-0.01,0.03-0.02,0.05-0.04,0.08c0.33,0.35,0.63,0.74,0.99,1.04c0.81,0.68,1.79,0.86,2.82,0.96
		c1.33,0.12,2.42-0.33,3.36-1.22c0.58-0.55,0.58-0.99,0-1.52c-0.66-0.62-1.42-1.09-2.2-1.56c-0.4-0.24-0.77-0.52-1.12-0.82
		c-0.23-0.2-0.32-0.5-0.2-0.79c0.11-0.29,0.4-0.33,0.67-0.36c0.07-0.01,0.15-0.01,0.22,0c0.42,0.04,0.83,0.06,1.25,0.12
		c1.2,0.15,2.4,0.29,3.61,0.19c0.74-0.06,1.48-0.07,2.22-0.1c0.22-0.01,0.44,0.08,0.48,0.29c0.03,0.15-0.05,0.36-0.16,0.49
		c-0.5,0.65-1.15,1.13-1.85,1.54c-0.58,0.34-1.02,0.8-1.25,1.44c-0.07,0.21-0.05,0.39,0.1,0.57c0.69,0.8,1.53,1.39,2.56,1.58
		c0.77,0.14,1.57,0.08,2.36,0.08c0.22,0,0.45-0.05,0.65-0.12c0.87-0.32,1.5-0.94,2.06-1.64c0.09-0.12,0.13-0.28,0.21-0.47
		c-0.17,0.02-0.29,0.04-0.41,0.05c-0.88,0.06-1.76,0.15-2.64,0.18c-0.52,0.02-0.61-0.11-0.6-0.62c0-0.15,0.05-0.2,0.21-0.21
		C52.16,36.46,53.48,36.37,54.83,36.29z M71.21,22.88c-0.03,0.03-0.05,0.06-0.08,0.09c0.08,0.12,0.15,0.24,0.23,0.36
		c0.29,0.43,0.62,0.84,0.87,1.29c0.63,1.17,0.98,2.45,1.18,3.75c0.15,0.93,0.2,1.88,0.26,2.83c0.09,1.55,0.06,3.1-0.2,4.64
		c-0.11,0.62-0.24,1.24-0.43,1.84c-0.15,0.48-0.44,0.63-0.85,0.6c-0.42-0.04-0.69-0.26-0.77-0.74c-0.08-0.42-0.11-0.85-0.11-1.27
		c0.01-1.99,0.05-3.98-0.16-5.96c-0.19-1.85-0.59-3.64-1.58-5.26c-0.73-1.21-1.65-2.23-2.81-3.11c0.03,0.59,0.08,1.13,0.08,1.67
		c0,0.31,0.1,0.55,0.3,0.78c0.27,0.32,0.55,0.63,0.76,0.99c0.72,1.25,1.12,2.63,1.41,4.03c0.46,2.24,0.68,4.52,0.77,6.8
		c0.06,1.53,0.36,3,0.85,4.44c0.36,1.04,0.56,2.11,0.62,3.22c0.11,1.97,0.12,3.94-0.19,5.89c-0.28,1.76-0.57,3.52-0.88,5.27
		c-0.06,0.31-0.01,0.56,0.17,0.8c0.22,0.3,0.47,0.58,0.66,0.89c0.18,0.29,0.34,0.6,0.44,0.92c0.27,0.89,0.13,1.79,0.05,2.69
		c-0.2,2.19-0.42,4.38-0.62,6.57c-0.05,0.52-0.05,1.05-0.08,1.6c0.18-0.04,0.32-0.06,0.47-0.09c2.19-0.55,4.39-1.11,6.58-1.66
		c0.2-0.05,0.28-0.17,0.31-0.37c0.18-1.22,0.33-2.45,0.55-3.66c0.47-2.51,0.97-5.01,1.47-7.51c0.41-2.07,0.88-4.12,1.25-6.19
		c0.33-1.83,0.58-3.67,0.82-5.51c0.15-1.12,0.27-2.26,0.29-3.39c0.04-2.78-0.48-5.46-1.48-8.06c-0.55-1.43-1.37-2.65-2.51-3.66
		c-0.08-0.07-0.19-0.12-0.31-0.2c-0.01,0.1-0.01,0.15-0.02,0.2c-0.08,1.06-0.13,2.13-0.25,3.19c-0.1,0.84-0.37,1.63-0.86,2.33
		c-0.31,0.43-0.77,0.59-1.24,0.43c-0.38-0.13-0.68-0.6-0.66-1.07c0.02-0.45,0.07-0.91,0.12-1.36c0.2-1.9,0.26-3.82,1.01-5.62
		c0.09-0.23,0.04-0.37-0.15-0.49c-0.66-0.44-1.3-0.94-2-1.31C73.41,23.9,72.3,23.41,71.21,22.88z M54.3,63.78
		c-0.04-0.08-0.07-0.15-0.11-0.21c-0.29-0.43-0.56-0.87-0.87-1.29c-0.17-0.23-0.39-0.44-0.62-0.63c-0.21-0.18-0.46-0.31-0.7-0.46
		c-0.39-0.24-0.6-0.59-0.67-1.04c-0.05-0.29-0.11-0.58-0.18-0.87c-0.02-0.06-0.09-0.16-0.14-0.16c-0.6-0.09-1.21-0.16-1.82-0.23
		c-0.73-0.08-0.72-0.08-0.75,0.67c-0.06,1.54-0.53,2.95-1.34,4.25c-0.85,1.36-2,2.4-3.37,3.22c-0.05,0.03-0.09,0.07-0.19,0.15
		c2.09,0.26,3.98,0.97,5.83,1.77c0.02-0.02,0.03-0.03,0.03-0.03c0-0.04,0-0.07,0-0.11c-0.08-0.72,0.11-1.38,0.5-1.99
		c0.79-1.25,1.94-2.08,3.28-2.65C53.54,64.01,53.92,63.9,54.3,63.78z M42.35,40.52c0.15,0.21,0.27,0.39,0.41,0.56
		c0.27,0.33,0.5,0.71,0.82,0.98c1.17,0.97,2.52,1.18,3.96,0.81c1.06-0.27,1.82-0.89,2.1-2.01c0.07-0.29,0-0.4-0.28-0.45
		c-1.29-0.25-2.48-0.75-3.6-1.44c-0.18-0.11-0.35-0.08-0.52,0.05C44.37,39.69,43.38,40.13,42.35,40.52z M99.79,38.29
		c-0.55-0.18-1.04-0.34-1.53-0.51c-0.13-0.05-0.2-0.01-0.31,0.08c-0.49,0.46-0.99,0.92-1.51,1.35c-0.16,0.13-0.21,0.23-0.12,0.41
		c0.3,0.63,0.3,1.29,0.22,1.96c-0.02,0.18-0.04,0.35-0.06,0.58C97.91,41.11,98.97,39.81,99.79,38.29z M67.13,69.48
		c0.71,0.01,1.3-0.23,1.89-0.46c0.04-0.02,0.07-0.14,0.07-0.21c-0.01-1.89-0.02-3.79-0.02-5.68c0-0.26,0.03-0.51,0.05-0.77
		C68.38,64.7,67.53,67.01,67.13,69.48z M85.14,43.62c0.75,0.07,1.47,0.15,2.2,0.2c0.05,0,0.15-0.14,0.16-0.23
		c0.11-0.8,0.2-1.6,0.29-2.4c0.01-0.06-0.08-0.18-0.14-0.2c-0.69-0.19-1.39-0.36-2.13-0.55C85.4,41.46,85.27,42.5,85.14,43.62z
		 M93.55,43.43c-0.13-0.87-0.26-1.67-0.38-2.47c-0.03-0.18-0.12-0.17-0.25-0.15c-0.58,0.1-1.17,0.2-1.75,0.29
		c-0.17,0.03-0.21,0.12-0.22,0.26c-0.05,0.74-0.11,1.48-0.17,2.22c-0.02,0.22,0.08,0.27,0.28,0.25c0.54-0.07,1.09-0.12,1.63-0.21
		C92.99,43.58,93.29,43.49,93.55,43.43z M101.67,33.56c-0.43,0.1-0.78,0.18-1.13,0.25c-0.17,0.04-0.35,0.03-0.52,0.08
		c-0.08,0.03-0.18,0.12-0.2,0.2c-0.08,0.31-0.14,0.63-0.19,0.95c-0.01,0.07,0.04,0.2,0.09,0.21c0.46,0.1,0.92,0.17,1.39,0.26
		C101.3,34.85,101.49,34.21,101.67,33.56z"/>
	<path d="M94.21,58.28c0.5,0.1,0.99,0.17,1.46,0.29c0.28,0.07,0.56,0.21,0.68,0.52c0.18,0.47-0.16,1.03-0.74,1.07
		c-0.87,0.06-1.74,0.06-2.61,0.03c-0.32-0.01-0.51,0.03-0.68,0.32c-0.33,0.56-0.69,1.1-1.07,1.63c-0.28,0.4-0.7,0.56-1.19,0.55
		c-0.65-0.01-1.04-0.52-0.88-1.15c0.12-0.46,0.38-0.85,0.73-1.16c0.23-0.2,0.34-0.42,0.27-0.73c-0.23-1.05-0.42-2.11-0.65-3.16
		c-0.1-0.47-0.06-0.72,0.21-0.9c0.3-0.19,0.98-0.19,1.23,0.01c0.07,0.06,0.11,0.17,0.14,0.26c0.05,0.16,0.08,0.32,0.12,0.52
		c0.08-0.32,0.13-0.6,0.22-0.87c0.18-0.55,0.48-1.02,0.88-1.44c0.07-0.07,0.15-0.14,0.24-0.19c0.24-0.15,0.49-0.22,0.75-0.03
		c0.24,0.17,0.37,0.5,0.28,0.79c-0.11,0.38-0.26,0.75-0.39,1.13c-0.01,0.02-0.01,0.05-0.01,0.1c0.33-0.58,0.59-1.19,0.97-1.7
		c0.53-0.71,1.13-1.37,1.74-2.02c0.17-0.18,0.46-0.28,0.71-0.34c0.45-0.1,0.81,0.1,0.99,0.48c0.13,0.26,0.03,0.69-0.24,0.97
		c-0.15,0.15-0.31,0.3-0.49,0.41c-0.62,0.39-1.04,0.97-1.46,1.55c-0.05,0.07-0.04,0.19-0.06,0.33c0.58-0.39,1.1-0.76,1.63-1.1
		c0.42-0.27,0.87-0.26,1.29-0.02c0.15,0.08,0.28,0.21,0.39,0.35c0.22,0.27,0.2,0.65-0.09,0.84c-0.42,0.28-0.89,0.48-1.34,0.72
		c-0.64,0.34-1.3,0.64-1.91,1.02C94.92,57.61,94.57,57.97,94.21,58.28z"/>
	<path d="M64.23,55.1c-0.29-0.04-0.75-0.09-1.21-0.16c-0.3-0.05-0.48-0.28-0.51-0.61c-0.08-0.73,0.12-1.1,0.78-1.43
		c0.58-0.29,1.19-0.45,1.83-0.29c0.3,0.07,0.61,0.21,0.87,0.4c0.47,0.35,0.51,0.9,0.15,1.37C65.69,54.94,65.08,55.1,64.23,55.1z"/>
	<path d="M66.17,49.3c-0.22-0.02-0.45,0-0.65-0.06c-0.18-0.06-0.38-0.17-0.5-0.32c-0.36-0.44-0.24-1.2,0.22-1.54
		c0.62-0.45,1.35-0.6,2.08-0.76c0.66-0.14,1.13,0.18,1.21,0.86c0.05,0.43-0.19,0.76-0.52,0.98c-0.44,0.29-0.91,0.53-1.38,0.77
		C66.5,49.3,66.32,49.28,66.17,49.3z"/>
	<path d="M38.02,44.41c-0.3,0-0.6,0.03-0.89-0.01c-0.69-0.08-1.23-0.84-1.09-1.53c0.02-0.09,0.08-0.2,0.16-0.25
		c0.58-0.43,1.22-0.65,1.92-0.31c0.39,0.19,0.76,0.42,1.13,0.65c0.34,0.21,0.43,0.53,0.34,0.9c-0.08,0.32-0.36,0.43-0.65,0.48
		c-0.3,0.05-0.61,0.06-0.91,0.09C38.02,44.44,38.02,44.43,38.02,44.41z"/>
	<path d="M39.38,56.27c-0.66-0.01-0.97-0.18-1.12-0.63c-0.18-0.52-0.03-0.93,0.47-1.14c0.75-0.32,1.53-0.46,2.31-0.06
		c0.35,0.18,0.52,0.47,0.49,0.86c-0.03,0.36-0.26,0.59-0.58,0.68c-0.51,0.15-1.04,0.24-1.56,0.36
		C39.39,56.32,39.39,56.3,39.38,56.27z"/>
	<path d="M59.59,59.54c-0.4-0.1-0.82-0.18-1.22-0.32c-0.33-0.12-0.47-0.4-0.47-0.75c0-0.37,0.17-0.62,0.5-0.76
		c0.29-0.12,0.59-0.23,0.89-0.3c0.69-0.16,1.26,0.11,1.73,0.6c0.4,0.42,0.27,0.98-0.29,1.22C60.4,59.38,60.01,59.43,59.59,59.54z"/>
	<path d="M63.21,62.67c-0.4-0.08-0.8-0.14-1.18-0.26c-0.29-0.09-0.53-0.31-0.54-0.64c0-0.34,0.22-0.55,0.53-0.68
		c0.75-0.32,1.5-0.57,2.3-0.18c0.29,0.14,0.53,0.34,0.57,0.67c0.04,0.33-0.19,0.54-0.45,0.71C64.07,62.54,63.65,62.61,63.21,62.67z"
		/>
	<path d="M52.14,27.66c-0.15,0.86-0.26,1.76-0.46,2.65c-0.17,0.76-0.41,1.51-0.95,2.11c-0.06,0.06-0.11,0.12-0.17,0.18
		c-0.5,0.48-1.21,0.3-1.35-0.38c-0.08-0.35-0.07-0.74-0.02-1.1c0.24-1.7,0.49-3.4,0.78-5.09c0.15-0.89,0.51-1.72,1.03-2.48
		c0.73-1.07,1.76-1.68,3.03-1.89c1.38-0.23,2.7-0.02,3.96,0.59c1.27,0.61,2.6,0.98,4.02,0.97c0.35,0,0.7,0.06,1.04,0.16
		c0.54,0.15,0.82,0.54,0.81,1.03c-0.01,0.6-0.34,1.09-0.87,1.23c-0.32,0.08-0.66,0.15-0.99,0.16c-0.69,0.02-1.4,0.07-2.08-0.02
		c-0.87-0.12-1.31-0.69-1.37-1.57c-0.01-0.09,0-0.19-0.02-0.28c-0.02-0.07-0.08-0.13-0.12-0.2c-0.06,0.05-0.16,0.09-0.19,0.16
		c-0.06,0.18-0.1,0.38-0.13,0.57c-0.17,1.19-0.65,2.22-1.61,2.99c-0.97,0.78-2.08,0.89-3.24,0.61
		C52.85,27.97,52.47,27.78,52.14,27.66z M52.89,25.99c0.28,0.62,0.7,0.89,1.32,0.87c1.01-0.04,1.87-0.67,2.15-1.64
		c0.13-0.47,0.2-0.96,0.23-1.45c0.04-0.53-0.18-0.68-0.74-0.57c0,0.08-0.01,0.18-0.02,0.27c-0.04,0.38-0.05,0.76-0.13,1.13
		c-0.24,1.09-0.96,1.59-2.07,1.49C53.39,26.06,53.16,26.03,52.89,25.99z"/>
	<path d="M32.67,22.96c0.92-1.14,2.21-1.37,3.53-1.47c0.73-0.05,1.47-0.05,2.19,0.04c1.28,0.17,2.17,0.93,2.77,2.06
		c0.57,1.09,0.82,2.28,0.87,3.48c0.06,1.51,0.02,3.02,0.02,4.54c0,0.5-0.18,0.9-0.7,1.09c-0.29,0.1-0.52,0.06-0.73-0.17
		c-0.43-0.47-0.66-1.03-0.69-1.66c-0.05-1.05-0.08-2.1-0.12-3.15c0-0.08-0.01-0.16-0.02-0.27c-1.31,0.72-2.53,0.42-3.66-0.36
		c-1.18-0.81-1.41-2.09-1.51-3.43c-0.22,0.06-0.41,0.1-0.58,0.18c-0.06,0.03-0.12,0.15-0.12,0.22c0.01,0.43-0.24,0.65-0.6,0.82
		c-0.21,0.1-0.43,0.22-0.61,0.37c-0.71,0.57-1.81,0.27-2.09-0.59c-0.13-0.41-0.17-0.83,0.03-1.25
		C31.1,22.51,31.87,22.32,32.67,22.96z M36.2,23.14c-0.04,0.19-0.11,0.37-0.12,0.54c-0.01,0.29,0.02,0.57,0.05,0.86
		c0.12,1.32,0.89,2,2.34,2.14c0.37,0.03,0.6-0.19,0.78-0.49c-0.35-0.07-0.69-0.12-1.02-0.2c-0.95-0.23-1.5-0.72-1.55-1.73
		c-0.02-0.33-0.06-0.66-0.09-0.98C36.47,23.24,36.38,23.2,36.2,23.14z"/>
	<path d="M33.71,30.53c-1.36-0.36-2.18-1.26-2.35-2.54c-0.05-0.41,0.03-0.77,0.32-1.08c0.34-0.37,0.67-0.43,1.04-0.1
		c0.31,0.28,0.55,0.62,0.83,0.93c0.15,0.17,0.29,0.34,0.46,0.48c0.25,0.2,0.34,0.46,0.29,0.74c-0.02,0.12-0.17,0.25-0.29,0.33
		c-0.38,0.25-0.38,0.24-0.19,0.64C33.95,30.21,33.95,30.21,33.71,30.53z"/>
	<path d="M56.71,20.22c-0.63,0-1.13-0.17-1.61-0.41c-0.97-0.49-0.75-1.59-0.26-2.07c0.63-0.61,1.65-0.53,2.17,0.18
		c0.38,0.53,0.52,1.14,0.54,1.78c0.01,0.26-0.11,0.4-0.35,0.45C57.01,20.18,56.82,20.2,56.71,20.22z"/>
	<path d="M35.74,30.05c0.71,0.1,1.16,0.41,1.47,0.94c0.16,0.27,0.14,0.57-0.04,0.82c-0.26,0.36-0.55,0.69-0.85,1.02
		c-0.05,0.06-0.19,0.07-0.28,0.05c-0.63-0.13-1.1-0.48-1.38-1.06c-0.24-0.5,0.03-1.21,0.56-1.54C35.4,30.18,35.61,30.11,35.74,30.05
		z"/>
	<path d="M38.52,18.57c-0.03,0.22-0.19,0.54-0.46,0.8c-0.11,0.11-0.25,0.2-0.36,0.31c-0.4,0.4-0.9,0.34-1.38,0.24
		c-0.34-0.07-0.67-0.68-0.57-1.02c0.19-0.66,0.57-1.18,1.19-1.5C37.68,17.03,38.58,17.87,38.52,18.57z"/>
	<path d="M60.98,20.49c-1,0.08-1.53-1.05-1.3-1.76c0.06-0.2,0.29-0.38,0.48-0.49c0.24-0.13,0.52-0.18,0.79-0.22
		c0.48-0.07,0.86,0.14,1.05,0.58c0.1,0.23,0.21,0.48,0.23,0.74C62.3,20.06,61.82,20.48,60.98,20.49z"/>
	<path d="M32.1,19.19c-0.01-0.57,0.34-1.08,0.82-1.49c0.29-0.25,0.67-0.27,1.03-0.14c0.35,0.13,0.48,0.44,0.52,0.79
		c0.05,0.5-0.08,0.96-0.38,1.36c-0.32,0.44-1.13,0.64-1.62,0.41C32.12,19.96,32.1,19.63,32.1,19.19z"/>
	<path d="M50.89,20.09c0.06-0.57,0.63-1.4,1.14-1.6c0.21-0.08,0.39-0.07,0.57,0.07c0.35,0.28,0.56,0.61,0.48,1.08
		c-0.08,0.47-0.21,0.92-0.54,1.28c-0.06,0.07-0.13,0.13-0.21,0.18c-0.48,0.29-0.84,0.22-1.13-0.26C51.06,20.61,51,20.34,50.89,20.09
		z"/>
	<path d="M40.98,19.58c-0.04,0.22-0.05,0.44-0.12,0.65c-0.24,0.67-0.95,0.83-1.47,0.34c-0.71-0.68-0.55-1.87,0.31-2.35
		c0.23-0.13,0.44-0.1,0.65,0.04C40.81,18.57,40.97,19.03,40.98,19.58z"/>
	<path d="M76.22,48.1c-0.79-0.01-1.15-0.55-0.78-1.19c0.21-0.37,0.51-0.72,0.85-0.97c1.34-1.03,2.81-1.83,4.41-2.38
		c0.35-0.12,0.68-0.16,0.97,0.09c0.31,0.27,0.31,0.64,0.23,1.01c-0.08,0.4-0.33,0.69-0.62,0.97c-0.68,0.65-1.49,1.1-2.34,1.48
		c-0.76,0.34-1.54,0.63-2.32,0.94C76.47,48.09,76.31,48.09,76.22,48.1z"/>
	<path d="M77.24,41.28c-0.63-0.06-0.91-0.34-0.91-0.96c0-0.34,0.07-0.66,0.3-0.91c0.86-0.9,1.72-1.79,2.61-2.66
		c0.19-0.18,0.48-0.28,0.74-0.37c0.26-0.1,0.57,0.08,0.75,0.36c0.26,0.41,0.28,0.85,0.08,1.28c-0.4,0.9-1.02,1.64-1.73,2.29
		c-0.29,0.26-0.61,0.49-0.95,0.68C77.86,41.14,77.54,41.19,77.24,41.28z"/>
	<path d="M77.16,54.05c-0.1-0.03-0.25-0.05-0.39-0.1c-0.4-0.12-0.5-0.28-0.46-0.7c0.05-0.51,0.25-0.94,0.65-1.25
		c0.73-0.55,1.46-1.11,2.23-1.6c0.73-0.46,1.55-0.01,1.65,0.87c0.01,0.1-0.02,0.23-0.08,0.32c-0.76,1.3-1.92,2.04-3.34,2.43
		C77.35,54.05,77.27,54.04,77.16,54.05z"/>
	<path d="M72.03,43.7c0.13-1.06,0.31-2.14,0.68-3.17c0.22-0.61,0.84-0.91,1.43-0.75c0.35,0.09,0.51,0.25,0.48,0.61
		c-0.05,0.54-0.12,1.09-0.25,1.62c-0.22,0.87-0.5,1.73-0.98,2.51c-0.15,0.24-0.32,0.44-0.65,0.36c-0.35-0.08-0.61-0.33-0.66-0.64
		C72.06,44.06,72.05,43.9,72.03,43.7z"/>
	<path d="M77.27,59.23c-0.45-0.06-0.89-0.08-1.26-0.36c-0.44-0.33-0.43-0.86,0.04-1.14c0.58-0.35,1.21-0.55,1.91-0.5
		c0.45,0.04,0.93,0.37,1,0.72c0.07,0.37-0.17,0.83-0.62,1.02C78,59.1,77.63,59.14,77.27,59.23z"/>
</g>
</svg>
