<?xml version="1.0" encoding="utf-8"?>
<!-- Generator: Adobe Illustrator 28.1.0, SVG Export Plug-In . SVG Version: 6.00 Build 0)  -->
<svg version="1.1" id="Layer_1" xmlns="http://www.w3.org/2000/svg" xmlns:xlink="http://www.w3.org/1999/xlink" x="0px" y="0px"
	 viewBox="0 0 110.55 76.54" style="enable-background:new 0 0 110.55 76.54;" xml:space="preserve">
<style type="text/css">
	.st0{display:none;}
	.st1{display:inline;fill:none;}
</style>
<g id="Layer_2_00000073722119373351752270000017113015111246931634_" class="st0">
	<line class="st1" x1="-24.13" y1="74.54" x2="142.13" y2="74.54"/>
	<line class="st1" x1="-24.13" y1="2" x2="142.13" y2="2"/>
</g>
<g>
	<path d="M32.93,16.79c-3.29,2.1-7.66,1.14-9.77-2.15c-2.1-3.29-1.14-7.66,2.15-9.77c3.29-2.1,7.66-1.14,9.77,2.15
		C37.19,10.32,36.22,14.69,32.93,16.79z"/>
	<g>
		<path d="M55.76,27.31c0.38,0.41,0.72,0.85,1.03,1.32c0.05,0.07,0.09,0.14,0.11,0.23c0.05,0.22-0.4,2.33-0.86,3.07
			c-0.12,0.19-0.29,0.19-0.4,0.14c-0.71-0.33-1.17-1.02-1.6-1.67c-0.5-0.75-1.01-1.49-1.49-2.24c-0.1-0.16-0.2-0.38-0.08-0.53
			c0.07-0.08,0.18-0.11,0.29-0.13C53.34,27.38,54.42,27.14,55.76,27.31"/>
	</g>
	<g>
		<path d="M68.97,54.58l-12.08-0.15c-0.07-4.14-0.2-11.33-0.2-13.21c0-3.63-1.54-6.11-1.85-6.58l-9.27-14.13l6.71,0.03l5.63,8.27
			c0.95,1.4,2.87,1.77,4.27,0.81c1.4-0.96,1.77-2.87,0.81-4.27l-6.54-9.61c-0.57-0.84-1.52-1.34-2.53-1.34l-11.21-0.04
			c-1.06-0.03-3.59,0.04-5.27,1.24c-1.03,0.73-4.7,3.59-5.45,4.17c-2.31,1.56-3.02,3.98-2.92,5.67l0.08,9.29l-7.11,0
			c-1.7,0-3.07,1.38-3.07,3.08c0,1.7,1.38,3.07,3.07,3.07c0,0,0,0,0,0l10.21-0.01c0.82,0,1.61-0.33,2.18-0.91
			c0.58-0.58,0.9-1.37,0.89-2.19l-0.09-9.41l9.17,14.36l-6.34,11.4c-0.26,0.46-0.39,0.98-0.39,1.52l0.09,14.1
			c0.01,1.69,1.39,3.05,3.07,3.05c0.01,0,0.01,0,0.02,0c1.7-0.01,3.06-1.4,3.05-3.1l-0.09-13.29l6.75-12.12
			c0.06,4.8,0.21,12.83,0.22,13.26c0.03,1.66,1.38,3,3.04,3.02l15.06,0.18c0.01,0,0.03,0,0.04,0c1.68,0,3.05-1.35,3.07-3.04
			C72.03,56,70.67,54.6,68.97,54.58z"/>
		<path d="M89.74,24.56c-0.51-0.83-1.15-1.59-1.88-2.23c-1.91-1.71-4.38-2.73-6.9-3.2c-3.27-0.62-6.69-0.35-9.84,0.73
			c-1.23,0.42-2.29,1.17-3.44,1.75c-0.93,0.47-2.37,0.55-3.13,1.23C64.16,23.16,64,23.69,64,24.21c0,0.51,0.15,1.01,0.31,1.5
			c0.24,0.73,0.52,1.48,1.07,2.01c0.73,0.7,1.8,0.91,2.52,1.63c0.82,0.83,1.44,1.86,2.3,2.68c1.83,1.75,4.06,3.09,6.48,3.83
			c3.23,0.99,6.81,0.87,9.92-0.45c1.28-0.54,2.51-1.31,3.33-2.43c0.82-1.12,1.2-2.53,1.19-3.91C91.09,27.47,90.58,25.91,89.74,24.56
			z M85.82,30.21l-1.44-0.49c-0.7,1.45-0.92,1.74-1.97,2.88l-2.07-0.63c1.37-1.37,1.49-1.53,2.21-2.92l-2.73-0.97
			c-2.13,2.06-3.24,2.59-4.8,2.11c-1.85-0.56-2.7-2.23-1.98-4.61l-1.24-0.45l0.36-1.18l1.27,0.47c0.4-0.92,0.93-1.77,1.5-2.37
			l2.06,0.66c-0.97,1.03-1.31,1.51-1.69,2.42l2.54,0.89c1.9-2.11,3.17-2.68,4.88-2.16c2.12,0.64,2.65,2.52,1.99,4.67l1.46,0.5
			L85.82,30.21z"/>
		<path d="M75.46,27.97c0.47,0.14,0.97-0.1,1.66-0.82c0,0-1.83-0.62-2.21-0.76C74.62,27.33,74.92,27.81,75.46,27.97z"/>
		<path d="M82.35,26.12c-0.57-0.17-1.12,0.08-1.82,0.88l2.43,0.84C83.21,26.93,82.99,26.31,82.35,26.12z"/>
	</g>
</g>
</svg>
