<?xml version="1.0" encoding="utf-8"?>
<!-- Generator: Adobe Illustrator 28.1.0, SVG Export Plug-In . SVG Version: 6.00 Build 0)  -->
<svg version="1.1" id="Layer_1" xmlns="http://www.w3.org/2000/svg" xmlns:xlink="http://www.w3.org/1999/xlink" x="0px" y="0px"
	 viewBox="0 0 110.55 76.54" style="enable-background:new 0 0 110.55 76.54;" xml:space="preserve">
<style type="text/css">
	.st0{display:none;}
	.st1{display:inline;fill:none;}
</style>
<g id="Layer_2_00000073722119373351752270000017113015111246931634_" class="st0">
	<line class="st1" x1="-24.13" y1="74.54" x2="142.13" y2="74.54"/>
	<line class="st1" x1="-24.13" y1="2" x2="142.13" y2="2"/>
</g>
<g>
	<path d="M98.46,36.76c0-0.05-0.05-0.05-0.05-0.05c-0.05-0.05-0.05-0.09-0.09-0.09c0,0-0.05,0-0.05-0.05
		c-0.05-0.05-0.05-0.05-0.09-0.09l-7.3-4.37V21.92l7.3-3.52c0.05,0,0.05-0.05,0.05-0.05c0.05-0.05,0.09-0.05,0.09-0.09
		c0.05-0.05,0.05-0.05,0.05-0.09c0-0.05,0.05-0.05,0.05-0.09c0-0.05,0-0.09,0.05-0.14c0-0.05,0-0.05,0-0.09v-5.41
		c0-0.05,0-0.05,0-0.09c0-0.05,0-0.05,0-0.09v-0.05l-0.05-0.05c0-0.05-0.05-0.05-0.05-0.09l-0.05-0.05L98.28,12l-0.05-0.05
		L86.15,4.88c-0.27-0.14-0.63-0.05-0.77,0.18c-0.14,0.27-0.05,0.63,0.18,0.77l11.18,6.63L30.47,43.88l-17.09-9.97L79.71,2.45
		l2.03,1.22c0.09,0.05,0.18,0.09,0.27,0.09c0.18,0,0.36-0.09,0.5-0.27c0.18-0.27,0.09-0.63-0.18-0.77l-2.3-1.35h-0.05
		c-0.05,0-0.09-0.05-0.09-0.05c-0.05,0-0.05,0-0.09,0c-0.05,0-0.09,0-0.09,0c-0.05,0-0.09,0-0.09,0.05h-0.05L11.94,33.38l-0.05,0.05
		c-0.05,0-0.05,0.05-0.09,0.05c0,0-0.05,0-0.05,0.05l-0.05,0.05l-0.05,0.05c0,0,0,0,0,0.05c0,0,0,0.05-0.05,0.05
		c0,0.05,0,0.05,0,0.09s0,0.05,0,0.09c0,0,0,0,0,0.05v5.41c0,0,0,0,0,0.05c-0.05,0.23,0.09,0.45,0.27,0.54l6.36,3.7v11.36
		l-6.31,3.11c0,0-0.05,0-0.05,0.05c-0.05,0-0.05,0.05-0.09,0.05l-0.05,0.05l-0.05,0.05l-0.05,0.05c0,0,0,0,0,0.05
		c0,0,0,0.05-0.05,0.05c0,0.05,0,0.05,0,0.09c0,0.05,0,0.05,0,0.09c0,0,0,0,0,0.05v5.41c-0.05,0.23,0.09,0.45,0.27,0.54l18.31,10.6
		c0.05,0,0.05,0.05,0.09,0.05h0.05c0.05,0,0.09,0,0.14,0s0.09,0,0.14,0h0.05c0.05,0,0.05,0,0.09-0.05l67.5-32.29
		c0.05,0,0.05-0.05,0.05-0.05c0.05-0.05,0.09-0.05,0.09-0.09c0.05-0.05,0.05-0.05,0.05-0.09s0.05-0.05,0.05-0.09
		c0-0.05,0-0.09,0.05-0.14c0-0.05,0-0.05,0-0.09v-5.41c0-0.05,0-0.09,0-0.09C98.51,36.8,98.51,36.76,98.46,36.76z M31.01,44.88
		L97.38,13.4v4.15L31.01,49.16V44.88z M18.25,56.19v5.19l-4.87-2.8L18.25,56.19z M29.93,73.69L12.7,63.72v-4.19l5.77,3.34h0.05h0.05
		c0.05,0.05,0.14,0.05,0.18,0.05c0.05,0,0.14,0,0.18-0.05h0.05c0.05-0.05,0.09-0.05,0.18-0.09c0.05-0.05,0.05-0.09,0.09-0.09
		c0,0,0,0,0-0.05s0.05-0.09,0.05-0.09c0-0.05,0-0.09,0-0.09s0,0,0-0.05V43.3c0-0.05,0-0.05,0-0.05c0-0.05,0-0.09-0.05-0.14
		c0-0.05-0.05-0.05-0.05-0.09s-0.05-0.05-0.05-0.09c-0.05-0.05-0.05-0.05-0.09-0.09l-0.05-0.05l-6.36-3.7v-4.19l17.18,9.97v4.24
		l-6.4-3.83c-0.05-0.05-0.09-0.05-0.14-0.05c-0.05,0-0.09,0-0.09,0h-0.05c-0.05,0-0.05,0-0.05,0c-0.05,0-0.09,0-0.14,0.05
		c-0.05,0-0.05,0.05-0.09,0.05c-0.05,0-0.05,0.05-0.09,0.05c-0.05,0.05-0.05,0.05-0.09,0.09l-0.05,0.05c0,0,0,0,0,0.05
		s-0.05,0.09-0.05,0.09c0,0.05,0,0.09,0,0.09s0,0,0,0.05v19.16c0,0.05,0,0.05,0,0.09s0,0.09,0.05,0.14c0,0.05,0.05,0.05,0.05,0.09
		s0.05,0.05,0.05,0.09c0.05,0.05,0.05,0.05,0.09,0.09l0.05,0.05l7.03,4.06L29.93,73.69z M30.47,68.5l-6.36-3.7l8.66-4.37
		c0.27-0.14,0.41-0.5,0.23-0.77c-0.14-0.27-0.5-0.41-0.77-0.23l-8.52,4.33v-17l6.45,3.79c0.05,0,0.05,0.05,0.09,0.05h0.05
		c0.05,0,0.09,0,0.14,0c0.05,0,0.09,0,0.14,0h0.05c0.05,0,0.05,0,0.09-0.05l59.02-28.14v9.65h0.05L41.51,54.93
		c-0.27,0.14-0.41,0.45-0.27,0.77c0.09,0.23,0.32,0.32,0.5,0.32c0.09,0,0.18,0,0.23-0.05l48.29-22.86l6.49,3.83L30.47,68.5z
		 M31.01,73.73V69.5l66.37-31.65v4.15h0.05L31.01,73.73z"/>
	<path d="M38.94,56.15l-0.41,0.23c-0.27,0.14-0.36,0.5-0.23,0.77c0.09,0.18,0.32,0.32,0.5,0.32c0.09,0,0.18-0.05,0.27-0.09
		l0.41-0.23c0.27-0.14,0.36-0.5,0.23-0.77C39.58,56.1,39.22,56.01,38.94,56.15z"/>
	<path d="M36.51,57.32l-1.8,0.9c-0.27,0.14-0.41,0.5-0.27,0.77c0.09,0.23,0.27,0.32,0.5,0.32c0.09,0,0.18,0,0.27-0.05l1.8-0.9
		c0.27-0.14,0.41-0.5,0.27-0.77C37.14,57.32,36.78,57.19,36.51,57.32z"/>
	<path d="M83.54,4.7l0.32,0.18c0.09,0.05,0.18,0.09,0.27,0.09c0.18,0,0.41-0.09,0.5-0.27c0.14-0.27,0.05-0.63-0.23-0.77l-0.32-0.18
		c-0.27-0.14-0.63-0.05-0.77,0.23C83.18,4.2,83.27,4.52,83.54,4.7z"/>
</g>
</svg>
