<?xml version="1.0" encoding="utf-8"?>
<!-- Generator: Adobe Illustrator 28.1.0, SVG Export Plug-In . SVG Version: 6.00 Build 0)  -->
<svg version="1.1" id="Layer_1" xmlns="http://www.w3.org/2000/svg" xmlns:xlink="http://www.w3.org/1999/xlink" x="0px" y="0px"
	 viewBox="0 0 110.55 76.54" style="enable-background:new 0 0 110.55 76.54;" xml:space="preserve">
<style type="text/css">
	.st0{display:none;}
	.st1{display:inline;fill:none;}
	.st2{fill:#808080;}
</style>
<g id="Layer_2_00000073722119373351752270000017113015111246931634_" class="st0">
	<line class="st1" x1="-24.13" y1="74.54" x2="142.13" y2="74.54"/>
	<line class="st1" x1="-24.13" y1="2" x2="142.13" y2="2"/>
</g>
<g>
	<path class="st2" d="M1879.74,2086.84c3.3,0,5.96-2.66,5.96-5.96c0-3.3-2.66-5.96-5.96-5.96c-3.3,0-5.96,2.66-5.96,5.96
		C1873.77,2084.18,1876.43,2086.84,1879.74,2086.84z"/>
	<path class="st2" d="M1886.1,2093.13c5.88-0.81,13.22-2.18,14.43-2.34c1.45-0.24,2.42-1.69,2.18-3.14
		c-0.24-1.45-1.69-2.42-3.14-2.18c-6.53,1.21-17.17,2.9-19.83,2.9c-10.4,0-15.15,6.93-15.31,7.25c-0.64,0.97-0.56,2.18,0.08,3.06
		l4.67,6.61c0.56,0.73,1.37,1.13,2.18,1.13c0.56,0,1.05-0.16,1.53-0.48c0.16-0.08,0.24-0.24,0.4-0.32v1.85l-1.69,19.91
		c-0.16,1.61,1.05,3.06,2.74,3.22c1.61,0.16,3.06-1.05,3.22-2.74l1.61-19.18h1.13l1.61,19.18c0.16,1.53,1.45,2.74,2.98,2.74
		c0.08,0,0.16,0,0.24,0c1.61-0.16,2.9-1.61,2.74-3.22l-1.69-19.91L1886.1,2093.13z M1873.29,2101.83l-3.22-4.59
		c0.73-0.64,1.85-1.53,3.3-2.18L1873.29,2101.83z"/>
</g>
<g>
	<path class="st2" d="M1933.79,2093.61c1.85,0.21,3.48,0.36,4.83,0.36c1.99,0,3.48-0.28,4.48-1.21c0.64-0.57,1.07-1.35,1.07-2.27
		c0.14-2.27-2.49-6.33-7.75-12.01c-0.92-1-2.49-1.07-3.55-0.14c-0.21,0.14-0.28,0.36-0.43,0.57c-0.78-2.35-2.91-3.98-5.55-3.98
		c-2.56,0-4.76,1.71-5.55,3.98c-0.14-0.21-0.28-0.43-0.43-0.57c-1-0.92-2.56-0.85-3.55,0.14c-5.26,5.69-7.89,9.67-7.75,12.01
		c0.07,0.92,0.43,1.71,1.07,2.27c1,0.85,2.49,1.21,4.48,1.21c1.35,0,2.99-0.14,4.83-0.36c0.36,0,0.71-0.07,1-0.07l0.28,12.51
		c0,0.14,0,0.21,0,0.36l-3.55,8.25c-0.36,0.92-0.64,1.85-0.78,2.77l-1.07,10.02c-0.21,1.56,0.92,3.06,2.56,3.27
		c0.14,0,0.21,0,0.36,0c1.42,0,2.7-1.07,2.91-2.56l1.28-10.02c0.07-0.43,0.14-0.85,0.36-1.21l3.77-8.74l3.77,8.74
		c0.14,0.43,0.28,0.78,0.36,1.21l1.28,10.02c0.21,1.56,1.64,2.7,3.27,2.56c1.56-0.21,2.7-1.64,2.56-3.27l-1.28-10.02
		c-0.14-1-0.36-1.92-0.78-2.77l-3.55-8.25c0-0.07,0-0.21,0-0.28l0.28-12.58C1933.15,2093.54,1933.51,2093.54,1933.79,2093.61z
		 M1930.38,2088.35h-6.75c-1.14,0-2.49,0.14-3.91,0.28c-1.14,0.14-2.84,0.28-4.19,0.28c1.14-1.78,3.34-4.55,5.69-7.04
		c0-0.07,0.07-0.07,0.07-0.14c0.5,2.77,2.84,4.83,5.76,4.83c2.91,0,5.26-2.06,5.76-4.83c0,0.07,0.07,0.07,0.07,0.14
		c2.35,2.49,4.55,5.26,5.69,7.04c-1.35,0-3.06-0.21-4.19-0.28C1932.87,2088.49,1931.44,2088.35,1930.38,2088.35z"/>
</g>
<path class="st2" d="M1898.76,2079.8c0.4,0.4,1.05-0.08,0.81-0.56l-2.42-4.92l3.3-0.81c0.32-0.08,0.48-0.4,0.32-0.73l-4.03-7.5
	c-0.08-0.16-0.32-0.32-0.56-0.24l-3.47,0.81c-0.32,0.08-0.48,0.48-0.32,0.81l3.14,4.43l-3.06,0.73c-0.4,0.08-0.48,0.56-0.24,0.81
	L1898.76,2079.8z"/>
<path class="st2" d="M1905.57,2070.13l3.3,0.81l-2.42,4.92c-0.24,0.48,0.4,0.97,0.81,0.56l6.61-7.09c0.24-0.32,0.16-0.73-0.24-0.81
	l-3.06-0.81l3.14-4.43c0.24-0.32,0.08-0.73-0.32-0.81l-3.47-0.81c-0.24-0.08-0.48,0.08-0.56,0.24l-4.03,7.5
	C1905.08,2069.73,1905.32,2070.05,1905.57,2070.13z"/>
<g>
	<path class="st2" d="M2127.3,2077.06c4.13,0,7.45-3.35,7.45-7.45c0-4.13-3.33-7.47-7.45-7.47c-4.13,0-7.47,3.35-7.47,7.47
		C2119.83,2073.72,2123.17,2077.06,2127.3,2077.06L2127.3,2077.06z"/>
	<path class="st2" d="M2156.47,2130.52c-1.76,0-3.47-0.4-4.97-1.06c-1.54-0.72-3.29-1.14-5.11-1.14c-1.8,0-3.55,0.42-5.09,1.14
		c-1.52,0.66-3.21,1.06-4.97,1.06c-1.76,0-3.45-0.4-4.95-1.06c-1.54-0.72-3.29-1.14-5.11-1.14c-1.82,0-3.57,0.42-5.11,1.14
		c-1.5,0.66-3.18,1.06-4.95,1.06c-1.76,0-3.45-0.4-4.97-1.06c-1.54-0.72-3.27-1.14-5.09-1.14c-1.82,0-3.57,0.42-5.11,1.14
		c-1.5,0.66-3.19,1.06-4.95,1.06c-1.74,0-3.43-0.4-4.95-1.06c-1.54-0.72-3.29-1.14-5.09-1.14c-1.82,0-3.57,0.42-5.11,1.14
		c-1.5,0.66-3.19,1.06-4.95,1.06v-7.43c1.76,0,3.45-0.38,4.95-1.06c1.54-0.72,3.29-1.14,5.11-1.14c1.8,0,3.55,0.42,5.09,1.14
		c1.52,0.68,3.21,1.06,4.95,1.06c1.76,0,3.45-0.38,4.95-1.06c1.54-0.72,3.29-1.14,5.11-1.14c1.82,0,3.55,0.42,5.09,1.14
		c1.52,0.68,3.21,1.06,4.97,1.06c1.76,0,3.45-0.38,4.95-1.06c1.54-0.72,3.29-1.14,5.11-1.14c1.82,0,3.57,0.42,5.11,1.14
		c1.5,0.68,3.18,1.06,4.95,1.06c1.76,0,3.45-0.38,4.97-1.06c1.54-0.72,3.29-1.14,5.09-1.14c1.82,0,3.57,0.42,5.11,1.14
		c1.5,0.68,3.21,1.06,4.97,1.06V2130.52z"/>
	<path class="st2" d="M2081.13,2115.71c1.5-0.68,3.17-1.06,4.93-1.06c1.8,0,3.55,0.42,5.09,1.14c1.52,0.66,3.21,1.06,4.95,1.06
		c1.76,0,3.45-0.4,4.95-1.06c1.54-0.72,3.29-1.14,5.11-1.14c1.82,0,3.55,0.42,5.09,1.14c1.52,0.66,3.21,1.06,4.97,1.06
		c1.76,0,3.45-0.4,4.95-1.06c0.98-0.46,2-0.76,3.09-0.96l12.86-14.71h-16.55l6.85-11.76l15.03,8.21c4.97,2.8,8.64-3.67,3.65-6.47
		l-21.52-11.9c-7.92-4.41-11.26,2.91-11.26,2.91l-11.1,18.75l-29.23-0.02C2073.9,2105.2,2078.71,2112.37,2081.13,2115.71
		L2081.13,2115.71z"/>
	<path class="st2" d="M2128.12,2114.79c1.14,0.18,2.24,0.52,3.27,1c1.5,0.66,3.18,1.06,4.95,1.06c1.76,0,3.45-0.4,4.97-1.06
		c1.54-0.72,3.29-1.14,5.09-1.14c1.82,0,3.57,0.42,5.11,1.14c1.5,0.66,3.21,1.06,4.97,1.06l-0.04-16.73l-15.51-0.02L2128.12,2114.79
		z"/>
</g>
<g>
	<path d="M74.55,20.32c5.02,0,9.11-4.09,9.11-9.11c0-5.02-4.09-9.11-9.11-9.11c-5.02,0-9.11,4.09-9.11,9.11
		C65.44,16.23,69.53,20.32,74.55,20.32z M74.55,5.76c3,0,5.44,2.44,5.44,5.44c0,3-2.44,5.44-5.44,5.44c-3,0-5.44-2.44-5.44-5.44
		C69.1,8.21,71.55,5.76,74.55,5.76z"/>
	<path d="M21.52,39.02c0.28,0,0.6-0.06,0.93-0.12c0.79-0.15,1.29-1.34,1.38-2.14c0,0,0.07-0.1,0.32-0.22
		c1.1-0.54,3.87,0.43,5.85,1.48v13.16c0,1.01,0.82,1.83,1.83,1.83c1.01,0,1.83-0.82,1.83-1.83V37.92c2.2-1.07,4.8-1.77,5.62-1.2
		c0.21,0.15,0.27,0.24,0.28,0.24c0,0.03-0.02,0.08,0,0.06l2.96,2.16c0.15-0.21,0.91-1.34,0.66-2.82c-0.12-0.72-0.53-1.77-1.8-2.66
		c-1.94-1.34-4.74-0.85-6.99-0.06c0.47-1.43,1.1-2.67,1.81-3.02c0.51-0.25,0.85-0.29,0.98-0.29c0.7,0.51,1.68,0.47,2.33-0.14
		c0.74-0.69,0.78-1.85,0.09-2.59c-0.18-0.19-1.83-1.82-5-0.27c-1.17,0.57-2.04,1.63-2.7,2.85c-0.66-1.28-1.56-2.42-2.78-3.02
		c-1.39-0.68-2.5-0.53-3.2-0.29c-1.42,0.5-2.03,1.71-2.14,1.94c-0.34,0.74,0.2,1.2,0.81,1.74c0.61,0.53,1.85,0.2,2.54-0.22
		c0,0,0.11-0.01,0.37,0.12c0.73,0.36,1.38,1.71,1.85,3.22c-2.11-0.82-4.77-1.43-6.8-0.43c-1.39,0.68-1.95,1.66-2.18,2.35
		c-0.47,1.43,0.11,2.65,0.23,2.88C20.8,38.9,21.13,39.02,21.52,39.02z"/>
	<path d="M83.36,47.79c-1.94-1.34-4.72-0.86-6.98-0.07c0.48-1.47,1.13-2.68,1.8-3.01c0.51-0.25,0.83-0.3,0.98-0.29
		c0.7,0.51,1.68,0.47,2.33-0.14c0.74-0.69,0.78-1.85,0.09-2.59c-0.18-0.19-1.83-1.82-5.01-0.27c-1.17,0.57-2.05,1.63-2.71,2.85
		c-0.66-1.29-1.56-2.43-2.77-3.03c-1.38-0.68-2.5-0.53-3.2-0.29c-1.42,0.5-2.04,1.71-2.14,1.94c-0.34,0.73,0.21,1.2,0.81,1.74
		c0.61,0.54,1.85,0.21,2.54-0.22c0,0,0.12-0.01,0.37,0.12c0.71,0.35,1.38,1.67,1.86,3.23c-2.11-0.82-4.79-1.44-6.81-0.44
		c-1.39,0.68-1.95,1.66-2.18,2.35c-0.47,1.43,0.11,2.65,0.23,2.88c0.22,0.42,0.54,0.54,0.93,0.54c0.28,0,0.6-0.06,0.93-0.12
		c0.79-0.15,1.29-1.34,1.38-2.14c0,0,0.07-0.1,0.32-0.22c1.09-0.54,3.87,0.43,5.85,1.48v13.16c0,1.01,0.82,1.83,1.83,1.83
		c1.01,0,1.83-0.82,1.83-1.83V52c2.21-1.07,4.8-1.77,5.62-1.2c0.21,0.15,0.27,0.25,0.28,0.25c0,0.03-0.02,0.07,0,0.06l2.96,2.16
		c0.15-0.21,0.91-1.33,0.66-2.82C85.04,49.72,84.63,48.67,83.36,47.79z"/>
	<path d="M37.45,43.72c-0.99-0.18-1.95,0.47-2.13,1.47c-0.18,0.99,0.47,1.95,1.47,2.13c2.39,0.44,3.54,1.11,3.81,1.42
		c0,0.01-0.01,0.02-0.02,0.04c-1.59,3.31-11.02,23.3-11.11,23.5c-0.43,0.91-0.04,2.01,0.87,2.44c0.25,0.12,0.52,0.17,0.78,0.17
		c0.69,0,1.35-0.39,1.66-1.05c0.1-0.2,9.52-20.18,11.1-23.48c0.52-1.08,0.53-2.23,0.02-3.22C43.07,45.5,40.9,44.35,37.45,43.72z"/>
	<path d="M26.66,43.52h-6.87c-1.01,0-1.83,0.82-1.83,1.83c0,1.01,0.82,1.83,1.83,1.83h6.87c1.01,0,1.83-0.82,1.83-1.83
		C28.49,44.34,27.67,43.52,26.66,43.52z"/>
	<path d="M68.55,63.59c-0.92-0.43-2.01-0.04-2.44,0.87l-3.69,7.81c-0.43,0.91-0.04,2.01,0.87,2.44c0.25,0.12,0.52,0.17,0.78,0.17
		c0.69,0,1.35-0.39,1.66-1.05l3.69-7.81C69.85,65.11,69.46,64.02,68.55,63.59z"/>
	<path d="M89.38,43.52h-2.98c-1.01,0-1.83,0.82-1.83,1.83c0,1.01,0.82,1.83,1.83,1.83h2.98c1.01,0,1.83-0.82,1.83-1.83
		C91.21,44.34,90.39,43.52,89.38,43.52z"/>
	<path d="M90.3,26.67H78.7c-1.01,0-1.83,0.82-1.83,1.83c0,1.01,0.82,1.83,1.83,1.83h11.6c1.01,0,1.83-0.82,1.83-1.83
		C92.13,27.49,91.31,26.67,90.3,26.67z"/>
	<path d="M43.37,30.34h26.17c1.01,0,1.83-0.82,1.83-1.83c0-1.01-0.82-1.83-1.83-1.83H43.37c-1.01,0-1.83,0.82-1.83,1.83
		C41.54,29.52,42.36,30.34,43.37,30.34z"/>
</g>
</svg>
