<?xml version="1.0" encoding="utf-8"?>
<!-- Generator: Adobe Illustrator 28.1.0, SVG Export Plug-In . SVG Version: 6.00 Build 0)  -->
<svg version="1.1" id="Layer_1" xmlns="http://www.w3.org/2000/svg" xmlns:xlink="http://www.w3.org/1999/xlink" x="0px" y="0px"
	 viewBox="0 0 110.55 76.54" style="enable-background:new 0 0 110.55 76.54;" xml:space="preserve">
<style type="text/css">
	.st0{display:none;}
	.st1{display:inline;fill:none;}
	.st2{fill:#231F20;}
</style>
<g id="Layer_2_00000073722119373351752270000017113015111246931634_" class="st0">
	<line class="st1" x1="-24.13" y1="74.54" x2="142.13" y2="74.54"/>
	<line class="st1" x1="-24.13" y1="2" x2="142.13" y2="2"/>
</g>
<g>
	<path class="st2" d="M92.24,16.19l-9.85-4.08h0L56.51,1.41c-0.09-0.04-0.19-0.06-0.28-0.08c0,0,0,0-0.01,0
		c-0.18-0.03-0.37-0.01-0.55,0.05c-0.01,0-0.02,0-0.02,0L19.79,13.33c0,0-1.16,0.53-0.67,1.63c0.49,1.1,1.51,0.69,1.51,0.69
		L54.81,4.26v36.82l-4.93,1.64V32.11c0-0.39-0.18-0.76-0.5-0.99c-0.31-0.23-0.72-0.3-1.09-0.19l-28.33,8.62
		c-0.52,0.16-0.87,0.64-0.87,1.18v12.32v7.39c0,0.47,0.27,0.91,0.7,1.11l13.1,6.27l2.9,1.39l12.33,5.9
		c0.04,0.02,0.07,0.02,0.11,0.04c0.04,0.02,0.08,0.03,0.12,0.04c0.07,0.02,0.14,0.03,0.22,0.03c0.03,0,0.06,0.01,0.08,0.01
		c0.01,0,0.02,0,0.03-0.01c0.08,0,0.15-0.02,0.22-0.03c0.03-0.01,0.07-0.01,0.1-0.02c0.03-0.01,0.06-0.03,0.09-0.04
		c0.01-0.01,0.02,0,0.04-0.01L75,64.03c0.45-0.19,0.75-0.64,0.75-1.13v-5.34l-0.04-2.39c-0.01-0.43-0.14-0.57-0.7-0.79l-8.83-3.79
		l-14.06-6.02L56,43.28l9.43,3.9h0l25.87,10.7c0.15,0.06,0.31,0.09,0.47,0.09c0.24,0,0.48-0.07,0.68-0.21
		c0.34-0.23,0.55-0.61,0.55-1.02V17.33C93,16.83,92.69,16.38,92.24,16.19z M21.55,41.64l25.87-7.87v9.74l-1.23,0.37V39.5
		c0-0.4-0.19-0.77-0.51-1c-0.32-0.23-0.74-0.29-1.11-0.17l-7.39,2.46c-0.5,0.17-0.84,0.64-0.84,1.17v4.92l-2.46,0.75V43.2
		c0-0.4-0.19-0.77-0.51-1c-0.32-0.23-0.74-0.29-1.11-0.17l-7.39,2.46c-0.5,0.17-0.84,0.64-0.84,1.17v4.98l-2.46,0.75V41.64z
		 M43.72,41.21v3.43l-2.05,0.62l-2.87,0.88v-3.29L43.72,41.21z M31.41,44.91v3.48l-4.93,1.5v-3.34L31.41,44.91z M47.42,72.04
		l-11.08-5.3h0l-14.78-7.07V55l25.87,12.37V72.04z M73.29,62.09l-23.4,10.03v-4.71l23.4-10.03V62.09z M71.39,55.51l-22.71,9.73
		l-5.16-2.47l22.17-9.71L71.39,55.51z M62.59,51.74l-22,9.63L23.71,53.3l1.89-0.58L33,50.48l3.15-0.96l1.78-0.54h0l7.39-2.25
		l3.26-0.99L62.59,51.74z M64.66,28.41v4.93V44.2l-7.39-3.06V4.39l7.39,3.06V28.41z M80.68,43.84v2.65v1.01v3.32l-13.55-5.61v-1.14
		v-3.85l13.55-3.85V43.84z M80.68,18.45v8.14v2.65v2.27v2.29l-13.55,3.85V34.3v-2.54v-2.39v-2.54v-1.75V8.47l13.55,5.61V18.45z
		 M90.53,54.9l-7.39-3.06v-6.18V33.34v-4.93V15.09l7.39,3.06V54.9z"/>
	<path class="st2" d="M23.17,35.74l22.17-7.39c0.5-0.17,0.84-0.64,0.84-1.17V12.4c0-0.4-0.19-0.77-0.51-1
		c-0.32-0.23-0.74-0.3-1.11-0.17l-22.17,7.39c-0.5,0.17-0.84,0.64-0.84,1.17v14.78c0,0.4,0.19,0.77,0.51,1
		c0.21,0.15,0.47,0.23,0.72,0.23C22.91,35.81,23.05,35.78,23.17,35.74z M24.02,20.68l19.71-6.57V26.3l-19.71,6.57V20.68z"/>
	<path class="st2" d="M34.77,23.31l-2.97-0.99c-0.36-0.12-0.76-0.07-1.07,0.14l-3.7,2.46l1.37,2.05l3.19-2.13l3.12,1.04
		c0.44,0.15,0.93,0.03,1.26-0.3l4.93-4.93l-1.74-1.74L34.77,23.31z"/>
</g>
</svg>
