<?xml version="1.0" encoding="utf-8"?>
<!-- Generator: Adobe Illustrator 28.1.0, SVG Export Plug-In . SVG Version: 6.00 Build 0)  -->
<svg version="1.1" id="Layer_1" xmlns="http://www.w3.org/2000/svg" xmlns:xlink="http://www.w3.org/1999/xlink" x="0px" y="0px"
	 viewBox="0 0 110.55 76.54" style="enable-background:new 0 0 110.55 76.54;" xml:space="preserve">
<style type="text/css">
	.st0{display:none;}
	.st1{display:inline;fill:none;}
	.st2{fill-rule:evenodd;clip-rule:evenodd;}
</style>
<g id="Layer_2_00000073722119373351752270000017113015111246931634_" class="st0">
	<line class="st1" x1="-24.13" y1="74.54" x2="142.13" y2="74.54"/>
	<line class="st1" x1="-24.13" y1="2" x2="142.13" y2="2"/>
</g>
<g>
	<circle class="st2" cx="55.04" cy="38.27" r="19.48"/>
	<path class="st2" d="M52.61,65.05v7.3c0,1.34,1.09,2.43,2.43,2.43c1.34,0,2.43-1.09,2.43-2.43v-7.3c0-1.34-1.09-2.43-2.43-2.43
		C53.7,62.62,52.61,63.71,52.61,65.05z"/>
	<path class="st2" d="M34.38,55.49l-5.17,5.16c-0.95,0.95-0.95,2.49,0,3.45c0.95,0.95,2.49,0.95,3.45,0l5.16-5.17
		c0.95-0.95,0.95-2.49,0-3.44C36.88,54.54,35.33,54.54,34.38,55.49z"/>
	<path class="st2" d="M28.26,35.84h-7.3c-1.34,0-2.43,1.09-2.43,2.43s1.09,2.43,2.43,2.43h7.3c1.34,0,2.43-1.09,2.43-2.43
		S29.6,35.84,28.26,35.84z"/>
	<path class="st2" d="M37.83,17.61l-5.16-5.17c-0.95-0.95-2.49-0.95-3.45,0c-0.95,0.95-0.95,2.49,0,3.45l5.17,5.16
		c0.95,0.95,2.49,0.95,3.44,0S38.78,18.56,37.83,17.61z"/>
	<path class="st2" d="M52.61,4.18v7.3c0,1.34,1.09,2.43,2.43,2.43c1.34,0,2.43-1.09,2.43-2.43v-7.3c0-1.34-1.09-2.43-2.43-2.43
		C53.7,1.75,52.61,2.84,52.61,4.18z"/>
	<path class="st2" d="M77.42,12.44l-5.16,5.17c-0.95,0.95-0.95,2.49,0,3.44c0.95,0.95,2.49,0.95,3.44,0l5.17-5.16
		c0.95-0.95,0.95-2.49,0-3.45C79.92,11.49,78.38,11.49,77.42,12.44z"/>
	<path class="st2" d="M89.13,35.84h-7.3c-1.34,0-2.43,1.09-2.43,2.43s1.09,2.43,2.43,2.43h7.3c1.34,0,2.43-1.09,2.43-2.43
		S90.47,35.84,89.13,35.84z"/>
	<path class="st2" d="M80.87,60.65l-5.17-5.16c-0.95-0.95-2.49-0.95-3.44,0c-0.95,0.95-0.95,2.49,0,3.44l5.16,5.17
		c0.95,0.95,2.49,0.95,3.45,0C81.82,63.14,81.82,61.6,80.87,60.65z"/>
</g>
</svg>
