<?xml version="1.0" encoding="utf-8"?>
<!-- Generator: Adobe Illustrator 28.1.0, SVG Export Plug-In . SVG Version: 6.00 Build 0)  -->
<svg version="1.1" id="Layer_1" xmlns="http://www.w3.org/2000/svg" xmlns:xlink="http://www.w3.org/1999/xlink" x="0px" y="0px"
	 viewBox="0 0 110.55 76.54" style="enable-background:new 0 0 110.55 76.54;" xml:space="preserve">
<style type="text/css">
	.st0{display:none;}
	.st1{display:inline;fill:none;}
</style>
<g id="Layer_2_00000073722119373351752270000017113015111246931634_" class="st0">
	<line class="st1" x1="-24.13" y1="74.54" x2="142.13" y2="74.54"/>
	<line class="st1" x1="-24.13" y1="2" x2="142.13" y2="2"/>
</g>
<path d="M100.94,14.21c-1.69,0-3.27,0.56-4.62,1.46l-13.4,9.35c-5.97-6.76-15.99-11.26-27.36-11.26s-21.4,4.5-27.25,11.37
	l-13.4-9.46c-1.35-1.01-3.04-1.46-4.62-1.46c-4.5,0-8.11,3.6-8.11,8.11v33.89c0,4.5,3.6,8.11,8.11,8.11c1.69,0,3.27-0.56,4.62-1.46
	l13.4-9.35c5.86,6.87,15.88,11.37,27.25,11.37s21.4-4.5,27.25-11.37l13.4,9.46c1.35,1.01,3.04,1.46,4.62,1.46
	c4.5,0,8.11-3.6,8.11-8.11V22.32C109.04,17.82,105.44,14.21,100.94,14.21z M57.58,19.51l-9.57,38.85c-3.04-0.68-5.86-1.69-8.33-3.04
	l8.56-35.13c2.36-0.45,4.73-0.79,7.32-0.79C56.23,19.39,56.91,19.51,57.58,19.51z M11.64,58.24c-0.45,0.34-0.9,0.45-1.35,0.45
	c-1.24,0-2.48-1.01-2.48-2.48V22.32c0-1.46,1.13-2.48,2.48-2.48c0.45,0,0.9,0.11,1.35,0.45l13.51,9.46
	c-1.46,2.93-2.36,6.19-2.36,9.46c0,3.38,0.9,6.53,2.36,9.46L11.64,58.24z M28.42,39.32c0-7.32,5.41-13.74,13.51-17.12l-7.32,29.73
	C30.67,48.45,28.42,44.05,28.42,39.32z M53.64,59.14l9.57-38.85c3.04,0.68,5.86,1.69,8.33,3.04l-8.67,35.13
	c-2.36,0.45-4.73,0.79-7.32,0.79C54.88,59.26,54.21,59.14,53.64,59.14z M69.18,56.44l7.32-29.73c3.83,3.38,6.08,7.77,6.08,12.61
	C82.7,46.64,77.29,53.06,69.18,56.44z M103.3,56.33c0,1.46-1.13,2.48-2.48,2.48c-0.45,0-0.9-0.11-1.35-0.45L85.96,48.9
	c1.46-2.93,2.36-6.19,2.36-9.46c0-3.38-0.9-6.53-2.36-9.46l13.51-9.46c0.23-0.11,0.45-0.23,0.68-0.34c0.23-0.11,0.45-0.11,0.68-0.11
	c1.24,0,2.48,1.01,2.48,2.48V56.33z"/>
</svg>
