<?xml version="1.0" encoding="utf-8"?>
<!-- Generator: Adobe Illustrator 28.1.0, SVG Export Plug-In . SVG Version: 6.00 Build 0)  -->
<svg version="1.1" id="Layer_1" xmlns="http://www.w3.org/2000/svg" xmlns:xlink="http://www.w3.org/1999/xlink" x="0px" y="0px"
	 viewBox="0 0 110.55 76.54" style="enable-background:new 0 0 110.55 76.54;" xml:space="preserve">
<style type="text/css">
	.st0{display:none;}
	.st1{display:inline;fill:none;}
	.st2{fill:none;}
	.st3{fill:#FFFFFF;}
</style>
<g id="Layer_2_00000073722119373351752270000017113015111246931634_" class="st0">
	<line class="st1" x1="-24.13" y1="74.54" x2="142.13" y2="74.54"/>
	<line class="st1" x1="-24.13" y1="2" x2="142.13" y2="2"/>
</g>
<g>
	<path class="st2" d="M-5240.72,925.05c-1.72,0-3.37,0.3-4.92,0.82l3.29,12.07l2.3,1.28c0.66,0.37,0.9,1.2,0.53,1.86
		c-0.25,0.45-0.71,0.7-1.19,0.7c-0.23,0-0.46-0.06-0.67-0.17l-2.8-1.56c-0.02-0.01-0.04-0.04-0.06-0.05
		c-0.1-0.06-0.19-0.14-0.27-0.23c-0.03-0.04-0.07-0.07-0.1-0.11c-0.08-0.11-0.14-0.24-0.19-0.38c0-0.02-0.02-0.04-0.03-0.06
		c0,0,0,0,0-0.01l-3.34-12.23c-4.72,2.63-7.92,7.66-7.92,13.44c0,8.48,6.9,15.37,15.37,15.37s15.37-6.9,15.37-15.37
		C-5225.34,931.95-5232.24,925.05-5240.72,925.05z"/>
	<path d="M-5339.6,903.64c-6.21,0-11.27,5.06-11.27,11.27v6.37c0,1.15,0.92,2.07,2.07,2.07c1.15,0,2.07-0.92,2.07-2.07v-6.37
		c0-1.53,0.54-2.99,1.3-4.14v33.36c0,1.38,1.15,2.53,2.53,2.53s2.53-1.15,2.53-2.53v-19.25h1.46v19.25c0,1.38,1.15,2.53,2.53,2.53
		s2.53-1.15,2.53-2.53v-33.36c0.84,1.15,1.3,2.61,1.3,4.14v6.37c0,1.15,0.92,2.07,2.07,2.07c1.15,0,2.07-0.92,2.07-2.07v-6.37
		C-5328.32,908.71-5333.39,903.64-5339.6,903.64z"/>
	<path d="M-5339.6,902.19c3.13,0,5.67-2.54,5.67-5.68c0-3.13-2.54-5.67-5.67-5.67c-3.13,0-5.68,2.54-5.68,5.67
		C-5345.27,899.65-5342.73,902.19-5339.6,902.19z"/>
	<path d="M-5307.39,914.92v5.83c1.33-0.33,2.72-0.53,4.14-0.58v-5.25c0.08-6.21-4.98-11.27-11.2-11.27
		c-6.21,0-11.27,5.06-11.27,11.27v6.37c0,1.15,0.92,2.07,2.07,2.07s2.07-0.92,2.07-2.07v-6.37c0-1.53,0.54-2.99,1.3-4.14v19.92
		c2.48-4.51,6.61-7.97,11.58-9.57v-10.34C-5307.85,911.93-5307.39,913.38-5307.39,914.92z"/>
	<path d="M-5314.44,902.19c3.13,0,5.67-2.54,5.67-5.68c0-3.13-2.54-5.67-5.67-5.67s-5.68,2.54-5.68,5.67
		C-5320.12,899.65-5317.58,902.19-5314.44,902.19z"/>
	<path class="st3" d="M-5320.27,944.14c0,0.49,0.15,0.96,0.4,1.35c-0.16-0.55-0.3-1.11-0.4-1.68V944.14z"/>
	<polygon class="st3" points="-5279.08,928.41 -5278.35,930.11 -5278.35,930.11 -5279.08,928.4 	"/>
	<path d="M-5313.75,933.59v10.55c0,1.38,1.15,2.53,2.53,2.53s2.53-1.15,2.53-2.53v-15.35
		C-5310.78,929.9-5312.52,931.57-5313.75,933.59z"/>
	<path class="st3" d="M-5303.56,941.23c-0.04-0.06-0.08-0.11-0.12-0.17c-0.03-0.06-0.06-0.13-0.08-0.19l-0.25,0.37H-5303.56z"/>
	<path d="M-5240.72,922.32c-1.97,0-3.86,0.33-5.64,0.91l-5.1-18.71l10.75-0.01c1.88,0,3.42,1.53,3.42,3.42
		c0,1.88-1.53,3.42-3.42,3.42c-0.76,0-1.37,0.61-1.37,1.37s0.61,1.37,1.37,1.37c3.39,0,6.15-2.76,6.15-6.15
		c0-3.39-2.76-6.15-6.15-6.15l-12.54,0.01c-0.06,0-0.12,0.03-0.18,0.04c-0.06,0.01-0.12,0-0.18,0.01c-0.03,0.01-0.05,0.03-0.08,0.04
		c-0.09,0.03-0.17,0.08-0.25,0.13c-0.07,0.04-0.14,0.08-0.21,0.14c-0.06,0.06-0.11,0.13-0.17,0.2c-0.05,0.07-0.11,0.14-0.14,0.22
		c-0.04,0.08-0.06,0.15-0.08,0.24c-0.03,0.09-0.05,0.18-0.06,0.28c0,0.03-0.02,0.06-0.02,0.09c0,0.06,0.03,0.12,0.04,0.18
		c0.01,0.06-0.01,0.12,0.01,0.18l2.93,10.74h-6.06c-0.17,0.95-0.43,1.86-0.76,2.73h5.31l-14.11,14.11c-0.21,0.88-0.3,1.77-0.24,2.72
		l0.05,1.34l16.9-16.9l1.64,6.04c-5.88,3-9.92,9.09-9.92,16.13c0,9.98,8.12,18.11,18.11,18.11c9.99,0,18.11-8.12,18.11-18.11
		C-5222.61,930.44-5230.73,922.32-5240.72,922.32z M-5240.72,955.8c-8.48,0-15.37-6.9-15.37-15.37c0-5.77,3.2-10.81,7.92-13.44
		l3.34,12.23c0,0,0,0,0,0.01c0.01,0.02,0.02,0.04,0.03,0.06c0.05,0.14,0.11,0.26,0.19,0.38c0.03,0.04,0.07,0.07,0.1,0.11
		c0.08,0.09,0.17,0.17,0.27,0.23c0.02,0.02,0.03,0.04,0.06,0.05l2.8,1.56c0.21,0.12,0.44,0.17,0.67,0.17c0.48,0,0.94-0.25,1.19-0.7
		c0.37-0.66,0.13-1.49-0.53-1.86l-2.3-1.28l-3.29-12.07c1.55-0.52,3.2-0.82,4.92-0.82c8.48,0,15.37,6.9,15.37,15.37
		C-5225.34,948.9-5232.24,955.8-5240.72,955.8z"/>
	<path d="M-5278.84,927.54l-4.55-10.55h11.13c0.75-1.05,1.25-1.93,1.56-2.73h-13.87l-3.56-8.26c1-0.09,1.98-0.18,2.84-0.26
		l-1.14-2.99l0.41-0.3l-9.11-0.82c-3.6-0.19-3.59,5.18,0,4.99c0,0,1.85-0.17,4.14-0.37l3.87,8.97l-6.4,9.48
		c-2.65-1.51-5.7-2.39-8.96-2.39c-0.36,0-0.71,0.01-1.07,0.03c-1.08,0.06-2.13,0.22-3.15,0.47c-0.68,0.16-1.35,0.36-1.99,0.6
		c-1.85,0.68-3.55,1.65-5.06,2.85c-0.51,0.41-1,0.84-1.46,1.29c-2.56,2.53-4.37,5.82-5.06,9.49c-0.21,1.09-0.32,2.22-0.32,3.37
		s0.11,2.28,0.32,3.37c0.11,0.57,0.24,1.13,0.4,1.68c2.19,7.53,9.15,13.05,17.38,13.05c9.52,0,17.33-7.39,18.04-16.74h2.55
		c0.22,0.85,0.59,1.64,1.08,2.35c0.23-1.26,0.74-2.39,1.47-3.33c-0.05-0.27-0.09-0.56-0.09-0.85c0-0.48,0.07-0.95,0.21-1.39
		l-0.08-1.09l-0.03-0.42l-0.21-2.68c-0.85,0.72-1.52,1.63-1.96,2.67c-0.27,0.63-0.46,1.3-0.55,2.01h-2.38
		c-0.39-5.18-2.96-9.76-6.81-12.82l5.42-8.03l4.03,9.35l2.16,5.01c0-1.39,0.2-2.79,0.56-4.18c0,0,0,0,0,0
		C-5279.01,928.12-5278.93,927.83-5278.84,927.54z M-5302.48,955.8c-6.36,0-11.83-3.88-14.16-9.4c-0.78-1.84-1.21-3.86-1.21-5.98
		c0-3.19,0.98-6.16,2.65-8.61c0.44-0.64,0.93-1.24,1.46-1.81c1.42-1.53,3.13-2.77,5.06-3.63c1.9-0.84,4-1.32,6.21-1.32
		c2.69,0,5.23,0.7,7.43,1.93l-8.56,12.68c-0.02,0.04-0.03,0.08-0.05,0.12c-0.04,0.08-0.08,0.17-0.11,0.26
		c-0.03,0.09-0.04,0.17-0.05,0.27c0,0.04-0.03,0.08-0.03,0.13c0,0.04,0.02,0.08,0.03,0.13c0.01,0.09,0.03,0.18,0.05,0.27
		c0,0.02,0.01,0.03,0.02,0.04c0.02,0.07,0.04,0.13,0.08,0.19c0.03,0.06,0.07,0.12,0.12,0.17c0.01,0.01,0.01,0.02,0.02,0.04
		c0.06,0.08,0.12,0.14,0.2,0.2c0.03,0.03,0.05,0.07,0.09,0.09c0.05,0.03,0.1,0.05,0.15,0.07c0.05,0.02,0.09,0.05,0.14,0.06
		c0.15,0.06,0.31,0.1,0.47,0.1h15.3C-5287.88,949.63-5294.47,955.8-5302.48,955.8z M-5299.91,939.06l7.12-10.55
		c3.13,2.55,5.23,6.3,5.61,10.55H-5299.91z"/>
	<path d="M-5262.02,917c0.42-0.88,0.76-1.78,0.98-2.73c0.21-0.89,0.33-1.82,0.33-2.81c0-5.34-3.65-10.33-11.74-10.33
		c-3.24,0-6.7,0.85-9.07,2.19c-0.35,0.2-0.68,0.41-0.98,0.62l0.54,1.42l1.14,3.01c1.76-1.34,4.57-2.18,7.1-2.18
		c4.43,0.07,6.68,2.46,6.68,6.05c0,0.69-0.1,1.37-0.26,2.03c-0.22,0.91-0.59,1.81-1.11,2.73c-0.83,1.5-2.02,3.07-3.55,4.86
		c-1.52,1.83-2.62,3.64-3.35,5.42c-0.37,0.91-0.64,1.81-0.82,2.7c-0.19,0.96-0.28,1.91-0.27,2.83c0.01,0.4,0.03,0.81,0.07,1.2
		l0.12,1.52l0.02,0.31h3.5h1.98l-0.07-1.83c0-0.05,0-0.1-0.01-0.15c-0.06-1.34,0.06-2.61,0.41-3.87c0.25-0.9,0.61-1.8,1.1-2.71
		c0.62-1.16,1.45-2.35,2.5-3.6C-5264.82,921.39-5263.12,919.28-5262.02,917z"/>
	<path d="M-5270.77,942.26c-0.71-0.63-1.63-1-2.73-1c-0.09,0-0.17,0.02-0.25,0.02c-1.37,0.07-2.51,0.72-3.2,1.76
		c-0.16,0.24-0.3,0.49-0.41,0.77c-0.23,0.56-0.35,1.19-0.35,1.87c0,2.46,1.69,4.36,4.15,4.36c0.48,0,0.93-0.07,1.34-0.19
		c1.8-0.54,2.87-2.17,2.87-4.17c0-0.25-0.03-0.49-0.06-0.72C-5269.56,943.84-5270.04,942.91-5270.77,942.26z"/>
</g>
<path d="M82.58,58.51c-0.73-2.78-3.11-4.84-6.04-5.25c-0.22-0.05-0.45-0.07-0.67-0.08c-0.01,0-0.02,0-0.03,0l-9.63-0.65
	c-3.05-0.2-5.52-2.57-5.82-5.48l17.33-3.96c0.27-0.06,0.46-0.3,0.46-0.57c0.02-0.91,0.26-22.47-9.87-32.76
	c-3.44-3.49-7.7-5.27-12.66-5.27c-4.96,0-9.22,1.77-12.66,5.27c-10.12,10.29-9.88,31.84-9.86,32.75c0,0.27,0.2,0.51,0.46,0.57
	l17.33,3.97c-0.3,2.91-2.77,5.28-5.83,5.48l-9.63,0.65c-0.01,0-0.02,0-0.03,0c-0.22,0.01-0.45,0.03-0.63,0.07
	c-0.01,0-0.02,0-0.03,0.01c0,0-0.01,0-0.01,0c0,0,0,0-0.01,0c-2.95,0.43-5.31,2.49-6.04,5.25c-1.26,4.81-1.01,10.49-0.58,14.41
	c0.03,0.3,0.29,0.53,0.59,0.53h53.83c0.3,0,0.56-0.23,0.59-0.53C83.59,69,83.84,63.32,82.58,58.51z M34.32,42.02
	c0.02-3.22,0.55-22.3,9.52-31.43c3.21-3.26,7.18-4.91,11.81-4.91c4.63,0,8.6,1.65,11.81,4.91c8.98,9.12,9.5,28.22,9.53,31.44
	l-16.64,3.8c0-0.07,0-0.15,0-0.22c0-0.2,0-0.39,0-0.58c0-0.09,0-0.19,0-0.28c0.11-0.08,0.21-0.17,0.32-0.25
	c0.14-0.11,0.29-0.22,0.43-0.34c0.15-0.12,0.3-0.25,0.44-0.38c0.14-0.12,0.29-0.25,0.43-0.38c0.15-0.14,0.29-0.28,0.44-0.42
	c0.14-0.14,0.28-0.27,0.42-0.42c0.15-0.15,0.29-0.31,0.43-0.47c0.14-0.15,0.27-0.3,0.41-0.45c0.14-0.16,0.28-0.34,0.42-0.51
	c0.13-0.16,0.26-0.32,0.39-0.49c0.14-0.18,0.27-0.36,0.4-0.55c0.13-0.17,0.25-0.34,0.37-0.52c0.13-0.19,0.26-0.39,0.38-0.59
	c0.12-0.18,0.24-0.36,0.35-0.55c0.12-0.21,0.24-0.42,0.36-0.63c0.11-0.19,0.22-0.38,0.32-0.57c0.12-0.22,0.22-0.44,0.34-0.67
	c0.1-0.2,0.2-0.4,0.3-0.6c0.11-0.23,0.2-0.47,0.31-0.7c0.09-0.21,0.18-0.41,0.26-0.62c0.1-0.25,0.18-0.5,0.27-0.75
	c0.08-0.21,0.16-0.42,0.23-0.63c0.09-0.26,0.16-0.53,0.24-0.8c0.03-0.12,0.07-0.23,0.1-0.35c0.11,0.03,0.22,0.07,0.34,0.09
	c0.11,0.02,0.22,0.02,0.33,0.02c0.55,0,1.09-0.19,1.59-0.57c0.85-0.64,1.47-1.78,1.64-3.05c0.17-1.26-0.11-2.52-0.76-3.38
	c-0.45-0.59-1.04-0.95-1.7-1.04c-0.21-0.03-0.42-0.02-0.63,0.01c-0.05-0.09-0.12-0.18-0.22-0.24c-0.17-0.1-0.37-0.09-0.54-0.01
	c-0.02,0.01-0.04,0.02-0.07,0.03c-0.03,0.02-0.06,0.04-0.09,0.06c-0.04,0.03-0.07,0.07-0.1,0.11c-0.01,0.02-0.03,0.02-0.04,0.04
	c0,0.01,0,0.01-0.01,0.02c0,0.01-0.01,0.01-0.01,0.02l-3.36,6.53c-5.9-3.09-7.25-8.31-7.26-8.37c-0.06-0.23-0.25-0.41-0.49-0.45
	c-0.24-0.04-0.47,0.07-0.6,0.28l-4.23,6.94c-6.76-1.97-8.72-10.15-8.74-10.24c-0.06-0.26-0.29-0.45-0.56-0.46
	c-0.27-0.01-0.51,0.16-0.59,0.42c-0.5,1.64-0.79,3.43-0.89,5.32c-0.2-0.02-0.4-0.04-0.59-0.01c-0.66,0.09-1.25,0.45-1.7,1.04
	c-0.65,0.85-0.93,2.11-0.76,3.38c0.17,1.26,0.79,2.4,1.64,3.05c0.49,0.37,1.04,0.57,1.59,0.57c0.11,0,0.22-0.01,0.33-0.02
	c0.12-0.02,0.23-0.06,0.35-0.09c0.03,0.12,0.07,0.23,0.1,0.34c0.08,0.27,0.15,0.54,0.24,0.8c0.07,0.21,0.15,0.42,0.23,0.63
	c0.09,0.25,0.18,0.51,0.28,0.75c0.08,0.21,0.18,0.41,0.26,0.62c0.1,0.23,0.2,0.47,0.3,0.7c0.1,0.21,0.2,0.4,0.3,0.61
	c0.11,0.22,0.22,0.45,0.33,0.66c0.1,0.2,0.22,0.38,0.33,0.58c0.12,0.21,0.24,0.42,0.36,0.63c0.11,0.19,0.23,0.37,0.35,0.55
	c0.13,0.2,0.25,0.4,0.38,0.59c0.12,0.18,0.25,0.35,0.37,0.52c0.13,0.18,0.27,0.37,0.4,0.55c0.13,0.17,0.26,0.33,0.39,0.49
	c0.14,0.17,0.28,0.34,0.42,0.51c0.13,0.16,0.27,0.3,0.41,0.45c0.14,0.16,0.29,0.32,0.43,0.47c0.14,0.14,0.28,0.28,0.42,0.42
	c0.15,0.14,0.29,0.29,0.44,0.42c0.14,0.13,0.28,0.25,0.43,0.38c0.15,0.13,0.3,0.26,0.45,0.38c0.14,0.12,0.29,0.22,0.43,0.33
	c0.11,0.08,0.22,0.17,0.32,0.25c0,0.09,0,0.19,0,0.29c0,0.19,0,0.38,0,0.57c0,0.07,0,0.15,0,0.23L34.32,42.02z M59.42,43.95
	C59.42,43.95,59.42,43.95,59.42,43.95C59.42,43.95,59.42,43.95,59.42,43.95c-1.41,0.99-2.75,1.53-3.76,1.53
	c-0.25,0-0.53-0.03-0.82-0.1c-0.87-0.2-1.89-0.69-2.94-1.43c-3.57-2.5-7.17-7.37-8.48-13.45c-0.03-0.15-0.07-0.31-0.1-0.46
	c-0.06-0.33-0.12-0.67-0.17-1c-0.02-0.14-0.05-0.28-0.06-0.42c-0.05-0.36-0.08-0.72-0.11-1.08c-0.01-0.13-0.03-0.25-0.03-0.38
	c-0.03-0.49-0.05-0.98-0.05-1.48c0,0,0-0.01,0-0.01c0-1.55,0.13-3.03,0.39-4.41c1.11,2.85,3.79,7.81,9.38,9.19
	c0.25,0.06,0.52-0.05,0.65-0.27l3.8-6.24c0.81,1.95,2.96,5.75,7.99,8.17c0.29,0.14,0.64,0.02,0.79-0.26l2.49-4.85
	c0,0.01,0,0.02,0,0.03c-0.17,2.87-0.87,5.55-1.91,7.94c-1.21,2.79-2.88,5.18-4.69,6.99C61.01,42.72,60.21,43.39,59.42,43.95z
	 M69.61,25.67C69.61,25.67,69.61,25.67,69.61,25.67C69.61,25.67,69.61,25.67,69.61,25.67c0-0.09,0-0.18,0-0.27
	c0.13-0.02,0.26-0.03,0.39-0.01c0.43,0.06,0.74,0.35,0.91,0.58c0.46,0.61,0.66,1.54,0.53,2.49c-0.13,0.96-0.57,1.8-1.18,2.26
	c-0.23,0.18-0.61,0.37-1.04,0.31c-0.07-0.01-0.14-0.03-0.21-0.05c0.03-0.15,0.06-0.3,0.09-0.45c0.01-0.06,0.03-0.12,0.04-0.18
	c0.01-0.07,0.02-0.14,0.04-0.21c0.07-0.35,0.13-0.71,0.18-1.06c0.01-0.09,0.03-0.17,0.04-0.25c0.01-0.06,0.01-0.12,0.02-0.17
	c0.05-0.36,0.08-0.73,0.11-1.09c0.01-0.1,0.02-0.2,0.03-0.3c0-0.03,0-0.07,0-0.1C69.59,26.68,69.61,26.18,69.61,25.67
	C69.61,25.68,69.61,25.68,69.61,25.67z M41.69,25.67C41.69,25.68,41.69,25.68,41.69,25.67c0,0.51,0.02,1,0.05,1.5
	c0,0.03,0,0.07,0,0.1c0.01,0.1,0.02,0.2,0.03,0.3c0.03,0.37,0.06,0.73,0.11,1.09c0.01,0.06,0.01,0.12,0.02,0.17
	c0.01,0.09,0.03,0.17,0.04,0.25c0.05,0.36,0.11,0.71,0.18,1.06c0.01,0.07,0.02,0.14,0.04,0.21c0.01,0.06,0.03,0.12,0.04,0.18
	c0.03,0.15,0.05,0.3,0.09,0.45c-0.07,0.02-0.14,0.04-0.21,0.05c-0.43,0.06-0.8-0.14-1.04-0.31c-0.61-0.46-1.05-1.3-1.18-2.26
	c-0.13-0.96,0.07-1.89,0.53-2.49c0.18-0.23,0.48-0.53,0.92-0.58c0.05-0.01,0.1-0.01,0.15-0.01c0.08,0,0.15,0.01,0.23,0.02
	C41.69,25.49,41.69,25.58,41.69,25.67C41.69,25.67,41.69,25.67,41.69,25.67C41.69,25.67,41.69,25.67,41.69,25.67z M45.17,53.71
	c3.83-0.26,6.89-3.38,6.97-7.12c0.01-0.36,0.01-0.72,0.01-1.06c0.03,0.02,0.05,0.03,0.08,0.04c0.28,0.16,0.55,0.31,0.82,0.43
	c0.04,0.02,0.08,0.03,0.12,0.05c0.25,0.11,0.49,0.21,0.73,0.29c0.04,0.01,0.09,0.03,0.13,0.05c0.26,0.08,0.5,0.14,0.75,0.19
	c0.05,0.01,0.1,0.02,0.15,0.03c0.25,0.04,0.49,0.06,0.72,0.06c0.23,0,0.47-0.03,0.72-0.06c0.05-0.01,0.1-0.02,0.15-0.03
	c0.24-0.05,0.49-0.11,0.75-0.19c0.04-0.01,0.09-0.03,0.13-0.05c0.24-0.08,0.48-0.18,0.73-0.29c0.04-0.02,0.08-0.03,0.12-0.05
	c0.27-0.13,0.55-0.27,0.83-0.43c0.03-0.02,0.05-0.03,0.08-0.04c0,0.34,0,0.7,0.01,1.06c0.08,3.74,3.14,6.87,6.97,7.12l8.02,0.54
	c-4.8,2.02-11.39,3.15-18.5,3.15c-7.11,0-13.7-1.14-18.5-3.15L45.17,53.71z M82.03,72.26h-8.7v-4.31c0-0.33-0.27-0.59-0.59-0.59
	c-0.33,0-0.59,0.27-0.59,0.59v4.31H39.16v-4.31c0-0.33-0.27-0.59-0.59-0.59c-0.33,0-0.59,0.27-0.59,0.59v4.31h-8.7
	c-0.38-3.79-0.55-9.03,0.61-13.45c0.59-2.25,2.5-3.92,4.93-4.34c5.04,2.63,12.61,4.13,20.84,4.13c8.23,0,15.8-1.51,20.84-4.13
	c2.41,0.4,4.34,2.09,4.93,4.34C82.58,63.23,82.41,68.47,82.03,72.26z"/>
</svg>
