<?xml version="1.0" encoding="utf-8"?>
<!-- Generator: Adobe Illustrator 28.1.0, SVG Export Plug-In . SVG Version: 6.00 Build 0)  -->
<svg version="1.1" id="Layer_1" xmlns="http://www.w3.org/2000/svg" xmlns:xlink="http://www.w3.org/1999/xlink" x="0px" y="0px"
	 viewBox="0 0 110.55 76.54" style="enable-background:new 0 0 110.55 76.54;" xml:space="preserve">
<style type="text/css">
	.st0{display:none;}
	.st1{display:inline;fill:none;}
	.st2{fill:none;}
	.st3{fill:#FFFFFF;}
</style>
<g id="Layer_2_00000073722119373351752270000017113015111246931634_" class="st0">
	<line class="st1" x1="-24.13" y1="74.54" x2="142.13" y2="74.54"/>
	<line class="st1" x1="-24.13" y1="2" x2="142.13" y2="2"/>
</g>
<g>
	<path class="st2" d="M-5240.72,925.05c-1.72,0-3.37,0.3-4.92,0.82l3.29,12.07l2.3,1.28c0.66,0.37,0.9,1.2,0.53,1.86
		c-0.25,0.45-0.71,0.7-1.19,0.7c-0.23,0-0.46-0.06-0.67-0.17l-2.8-1.56c-0.02-0.01-0.04-0.04-0.06-0.05
		c-0.1-0.06-0.19-0.14-0.27-0.23c-0.03-0.04-0.07-0.07-0.1-0.11c-0.08-0.11-0.14-0.24-0.19-0.38c0-0.02-0.02-0.04-0.03-0.06
		c0,0,0,0,0-0.01l-3.34-12.23c-4.72,2.63-7.92,7.66-7.92,13.44c0,8.48,6.9,15.37,15.37,15.37s15.37-6.9,15.37-15.37
		C-5225.34,931.95-5232.24,925.05-5240.72,925.05z"/>
	<path d="M-5339.6,903.64c-6.21,0-11.27,5.06-11.27,11.27v6.37c0,1.15,0.92,2.07,2.07,2.07c1.15,0,2.07-0.92,2.07-2.07v-6.37
		c0-1.53,0.54-2.99,1.3-4.14v33.36c0,1.38,1.15,2.53,2.53,2.53s2.53-1.15,2.53-2.53v-19.25h1.46v19.25c0,1.38,1.15,2.53,2.53,2.53
		s2.53-1.15,2.53-2.53v-33.36c0.84,1.15,1.3,2.61,1.3,4.14v6.37c0,1.15,0.92,2.07,2.07,2.07c1.15,0,2.07-0.92,2.07-2.07v-6.37
		C-5328.32,908.71-5333.39,903.64-5339.6,903.64z"/>
	<path d="M-5339.6,902.19c3.13,0,5.67-2.54,5.67-5.68c0-3.13-2.54-5.67-5.67-5.67c-3.13,0-5.68,2.54-5.68,5.67
		C-5345.27,899.65-5342.73,902.19-5339.6,902.19z"/>
	<path d="M-5307.39,914.92v5.83c1.33-0.33,2.72-0.53,4.14-0.58v-5.25c0.08-6.21-4.98-11.27-11.2-11.27
		c-6.21,0-11.27,5.06-11.27,11.27v6.37c0,1.15,0.92,2.07,2.07,2.07s2.07-0.92,2.07-2.07v-6.37c0-1.53,0.54-2.99,1.3-4.14v19.92
		c2.48-4.51,6.61-7.97,11.58-9.57v-10.34C-5307.85,911.93-5307.39,913.38-5307.39,914.92z"/>
	<path d="M-5314.44,902.19c3.13,0,5.67-2.54,5.67-5.68c0-3.13-2.54-5.67-5.67-5.67s-5.68,2.54-5.68,5.67
		C-5320.12,899.65-5317.58,902.19-5314.44,902.19z"/>
	<path class="st3" d="M-5320.27,944.14c0,0.49,0.15,0.96,0.4,1.35c-0.16-0.55-0.3-1.11-0.4-1.68V944.14z"/>
	<polygon class="st3" points="-5279.08,928.41 -5278.35,930.11 -5278.35,930.11 -5279.08,928.4 	"/>
	<path d="M-5313.75,933.59v10.55c0,1.38,1.15,2.53,2.53,2.53s2.53-1.15,2.53-2.53v-15.35
		C-5310.78,929.9-5312.52,931.57-5313.75,933.59z"/>
	<path class="st3" d="M-5303.56,941.23c-0.04-0.06-0.08-0.11-0.12-0.17c-0.03-0.06-0.06-0.13-0.08-0.19l-0.25,0.37H-5303.56z"/>
	<path d="M-5240.72,922.32c-1.97,0-3.86,0.33-5.64,0.91l-5.1-18.71l10.75-0.01c1.88,0,3.42,1.53,3.42,3.42
		c0,1.88-1.53,3.42-3.42,3.42c-0.76,0-1.37,0.61-1.37,1.37s0.61,1.37,1.37,1.37c3.39,0,6.15-2.76,6.15-6.15
		c0-3.39-2.76-6.15-6.15-6.15l-12.54,0.01c-0.06,0-0.12,0.03-0.18,0.04c-0.06,0.01-0.12,0-0.18,0.01c-0.03,0.01-0.05,0.03-0.08,0.04
		c-0.09,0.03-0.17,0.08-0.25,0.13c-0.07,0.04-0.14,0.08-0.21,0.14c-0.06,0.06-0.11,0.13-0.17,0.2c-0.05,0.07-0.11,0.14-0.14,0.22
		c-0.04,0.08-0.06,0.15-0.08,0.24c-0.03,0.09-0.05,0.18-0.06,0.28c0,0.03-0.02,0.06-0.02,0.09c0,0.06,0.03,0.12,0.04,0.18
		c0.01,0.06-0.01,0.12,0.01,0.18l2.93,10.74h-6.06c-0.17,0.95-0.43,1.86-0.76,2.73h5.31l-14.11,14.11c-0.21,0.88-0.3,1.77-0.24,2.72
		l0.05,1.34l16.9-16.9l1.64,6.04c-5.88,3-9.92,9.09-9.92,16.13c0,9.98,8.12,18.11,18.11,18.11c9.99,0,18.11-8.12,18.11-18.11
		C-5222.61,930.44-5230.73,922.32-5240.72,922.32z M-5240.72,955.8c-8.48,0-15.37-6.9-15.37-15.37c0-5.77,3.2-10.81,7.92-13.44
		l3.34,12.23c0,0,0,0,0,0.01c0.01,0.02,0.02,0.04,0.03,0.06c0.05,0.14,0.11,0.26,0.19,0.38c0.03,0.04,0.07,0.07,0.1,0.11
		c0.08,0.09,0.17,0.17,0.27,0.23c0.02,0.02,0.03,0.04,0.06,0.05l2.8,1.56c0.21,0.12,0.44,0.17,0.67,0.17c0.48,0,0.94-0.25,1.19-0.7
		c0.37-0.66,0.13-1.49-0.53-1.86l-2.3-1.28l-3.29-12.07c1.55-0.52,3.2-0.82,4.92-0.82c8.48,0,15.37,6.9,15.37,15.37
		C-5225.34,948.9-5232.24,955.8-5240.72,955.8z"/>
	<path d="M-5278.84,927.54l-4.55-10.55h11.13c0.75-1.05,1.25-1.93,1.56-2.73h-13.87l-3.56-8.26c1-0.09,1.98-0.18,2.84-0.26
		l-1.14-2.99l0.41-0.3l-9.11-0.82c-3.6-0.19-3.59,5.18,0,4.99c0,0,1.85-0.17,4.14-0.37l3.87,8.97l-6.4,9.48
		c-2.65-1.51-5.7-2.39-8.96-2.39c-0.36,0-0.71,0.01-1.07,0.03c-1.08,0.06-2.13,0.22-3.15,0.47c-0.68,0.16-1.35,0.36-1.99,0.6
		c-1.85,0.68-3.55,1.65-5.06,2.85c-0.51,0.41-1,0.84-1.46,1.29c-2.56,2.53-4.37,5.82-5.06,9.49c-0.21,1.09-0.32,2.22-0.32,3.37
		s0.11,2.28,0.32,3.37c0.11,0.57,0.24,1.13,0.4,1.68c2.19,7.53,9.15,13.05,17.38,13.05c9.52,0,17.33-7.39,18.04-16.74h2.55
		c0.22,0.85,0.59,1.64,1.08,2.35c0.23-1.26,0.74-2.39,1.47-3.33c-0.05-0.27-0.09-0.56-0.09-0.85c0-0.48,0.07-0.95,0.21-1.39
		l-0.08-1.09l-0.03-0.42l-0.21-2.68c-0.85,0.72-1.52,1.63-1.96,2.67c-0.27,0.63-0.46,1.3-0.55,2.01h-2.38
		c-0.39-5.18-2.96-9.76-6.81-12.82l5.42-8.03l4.03,9.35l2.16,5.01c0-1.39,0.2-2.79,0.56-4.18c0,0,0,0,0,0
		C-5279.01,928.12-5278.93,927.83-5278.84,927.54z M-5302.48,955.8c-6.36,0-11.83-3.88-14.16-9.4c-0.78-1.84-1.21-3.86-1.21-5.98
		c0-3.19,0.98-6.16,2.65-8.61c0.44-0.64,0.93-1.24,1.46-1.81c1.42-1.53,3.13-2.77,5.06-3.63c1.9-0.84,4-1.32,6.21-1.32
		c2.69,0,5.23,0.7,7.43,1.93l-8.56,12.68c-0.02,0.04-0.03,0.08-0.05,0.12c-0.04,0.08-0.08,0.17-0.11,0.26
		c-0.03,0.09-0.04,0.17-0.05,0.27c0,0.04-0.03,0.08-0.03,0.13c0,0.04,0.02,0.08,0.03,0.13c0.01,0.09,0.03,0.18,0.05,0.27
		c0,0.02,0.01,0.03,0.02,0.04c0.02,0.07,0.04,0.13,0.08,0.19c0.03,0.06,0.07,0.12,0.12,0.17c0.01,0.01,0.01,0.02,0.02,0.04
		c0.06,0.08,0.12,0.14,0.2,0.2c0.03,0.03,0.05,0.07,0.09,0.09c0.05,0.03,0.1,0.05,0.15,0.07c0.05,0.02,0.09,0.05,0.14,0.06
		c0.15,0.06,0.31,0.1,0.47,0.1h15.3C-5287.88,949.63-5294.47,955.8-5302.48,955.8z M-5299.91,939.06l7.12-10.55
		c3.13,2.55,5.23,6.3,5.61,10.55H-5299.91z"/>
	<path d="M-5262.02,917c0.42-0.88,0.76-1.78,0.98-2.73c0.21-0.89,0.33-1.82,0.33-2.81c0-5.34-3.65-10.33-11.74-10.33
		c-3.24,0-6.7,0.85-9.07,2.19c-0.35,0.2-0.68,0.41-0.98,0.62l0.54,1.42l1.14,3.01c1.76-1.34,4.57-2.18,7.1-2.18
		c4.43,0.07,6.68,2.46,6.68,6.05c0,0.69-0.1,1.37-0.26,2.03c-0.22,0.91-0.59,1.81-1.11,2.73c-0.83,1.5-2.02,3.07-3.55,4.86
		c-1.52,1.83-2.62,3.64-3.35,5.42c-0.37,0.91-0.64,1.81-0.82,2.7c-0.19,0.96-0.28,1.91-0.27,2.83c0.01,0.4,0.03,0.81,0.07,1.2
		l0.12,1.52l0.02,0.31h3.5h1.98l-0.07-1.83c0-0.05,0-0.1-0.01-0.15c-0.06-1.34,0.06-2.61,0.41-3.87c0.25-0.9,0.61-1.8,1.1-2.71
		c0.62-1.16,1.45-2.35,2.5-3.6C-5264.82,921.39-5263.12,919.28-5262.02,917z"/>
	<path d="M-5270.77,942.26c-0.71-0.63-1.63-1-2.73-1c-0.09,0-0.17,0.02-0.25,0.02c-1.37,0.07-2.51,0.72-3.2,1.76
		c-0.16,0.24-0.3,0.49-0.41,0.77c-0.23,0.56-0.35,1.19-0.35,1.87c0,2.46,1.69,4.36,4.15,4.36c0.48,0,0.93-0.07,1.34-0.19
		c1.8-0.54,2.87-2.17,2.87-4.17c0-0.25-0.03-0.49-0.06-0.72C-5269.56,943.84-5270.04,942.91-5270.77,942.26z"/>
</g>
<path d="M32.3,34.35c-1.37-0.33-3.04,0.26-3.59,2.22c-0.38,1.36,0.13,3.07,1.54,3.15c1.41,0.07,3.44-0.87,3.51-2.27
	C33.83,36.04,33.84,34.72,32.3,34.35z"/>
<path d="M88.87,52.1c-0.3-0.02-0.59,0-0.88,0.04c-0.75-4.45-2.47-8.9-4.83-12.29c-6.74-9.68-21.15-10.84-32.47-7.68
	c-5.92,1.65-7.46,1.37-7.72,1.29c-0.59-0.71-1.69-4.27-1.72-5.02c0.08-0.39,0.88-1.74,1.52-2.83c1.27-2.14,2.85-4.8,3.65-7.34
	c1.27-4.03,1-10.65-2.31-12.26c-0.72-0.35-1.61-0.29-2.64,0.17c-0.96,0.43-2.07,1.24-3.16,2.22c-0.46-1.3-1.69-3.94-4.24-4.06
	c-3.99-0.2-6.81,8.46-7.12,9.45c-0.86,2.77,0.94,10.98,1.73,14.3c-1.87,0.84-3.63,2.16-5.08,3.83c-2.31,2.66-3.55,5.84-4.72,9.14
	c-0.69,1.94-1.61,5.55-0.01,7.86c0.56,0.82,1.68,1.79,3.81,1.9c0.08,0,0.16,0.01,0.25,0.01c1.75,0.03,3.5-0.05,5.23-0.23
	c1.37,4.32,4.34,8.44,8.19,11.32c-0.57,1.74-1.17,3.09-1.56,3.37c-0.8,0.53-1.93,0.58-3.12,0.63c-1.45,0.06-3.1,0.14-4.5,1.13
	c-0.75,0.53-1.28,1.38-1.43,2.28c-0.12,0.77,0.04,1.51,0.47,2.1c0.81,1.11,2.2,1.28,3.04,1.32c0.1,0.01,0.19,0.01,0.28,0.01
	l0.58,0.02c3.09,0.12,6.6,0.25,9.69-1.27c0.4-0.2,0.77-0.42,1.12-0.66c0.05-0.01,0.09,0,0.14-0.01c0.24-0.01,0.82,0.01,1.29,0.03
	c4.59,0.17,6.92,0,7.71-1.41c0.27-0.48,0.48-1.02,0.65-1.54c1.38,0.3,2.92,0.62,4.54,0.95c-0.02,0.06-0.04,0.12-0.06,0.18
	c-0.38,1.38-0.13,2.73,0.68,3.62c0.79,0.87,1.88,1.11,2.8,1.15c0.44,0.02,0.84,0,1.15-0.01l1.1-0.06
	c5.19-0.27,10.55-0.55,15.83-1.02c0.58-0.05,1.47-0.13,2.22-0.68c1.2-0.87,1.35-2.33,1.33-3.34c0.53-0.4,1.1-0.79,1.7-1.19
	c1.73-1.14,3.51-2.31,4.64-4.29c0.14-0.24,0.25-0.49,0.37-0.74c0.42,0.13,0.87,0.22,1.32,0.24c2.92,0.15,5.42-2.11,5.57-5.03
	C94.05,54.75,91.79,52.25,88.87,52.1z M29.37,14.54c1.31-4.19,3.6-7.72,4.56-7.67c1.05,0.05,1.87,1.92,2.1,2.82
	c0.06,0.24,0.19,0.45,0.36,0.61c-1.56,1.74-2.84,3.65-3.22,5.05c-0.56,2.02-0.8,6.31-0.97,9.44c-0.05,0.84-0.1,1.76-0.14,2.38
	c-0.29,0.01-0.61,0.06-0.96,0.12C30.04,22.83,28.82,16.29,29.37,14.54z M22.96,48.26c-0.32-0.01-0.59-0.04-0.82-0.1
	c0.32-0.4,0.59-0.84,0.7-1.35c0.13-0.66-0.22-1.64-0.69-2.12c-0.36-0.37-0.95-0.33-1.55-0.15c0.11-0.8,0.33-1.7,0.67-2.65
	c1.13-3.18,2.22-6,4.24-8.32c1.6-1.84,3.61-3.15,5.68-3.7c1.51-0.4,1.68-0.24,2.97,1.01l0.43,0.42c0.51,0.48,1.32,0.46,1.8-0.05
	c0.48-0.51,0.46-1.32-0.05-1.8l-0.42-0.4c-0.47-0.46-0.91-0.87-1.37-1.19c0.06-0.54,0.11-1.41,0.19-2.93
	c0.16-2.84,0.39-7.14,0.88-8.9c0.72-2.6,5.93-7.71,7.41-7.71c1.41,0.8,2.13,5.4,0.94,9.18c-0.71,2.26-2.21,4.78-3.41,6.81
	c-1.23,2.08-1.83,3.12-1.87,3.95c-0.05,0.89,0.98,4.99,2.21,6.69c-0.04,0.11-0.07,0.22-0.07,0.34c-0.19,3.42-0.77,8.21-3.65,10.32
	c-1.02,0.75-2.34,1.14-3.61,1.46C30.11,47.92,26.53,48.33,22.96,48.26z M47.9,68.05c-0.65,0.31-2.75,0.31-4.24,0.28
	c0.03-0.03,0.06-0.06,0.09-0.09c0.52-0.55,1.04-1.08,1.58-1.56c0.58,0.14,1.59,0.37,2.88,0.65C48.1,67.6,48,67.85,47.9,68.05z
	 M84.43,61.94c-0.83,1.45-2.28,2.41-3.83,3.42c-0.38,0.25-0.76,0.5-1.14,0.76l-1.58-3.24c-0.31-0.63-1.07-0.9-1.7-0.59
	c-0.63,0.31-0.9,1.07-0.59,1.7l2.14,4.4c0.05,0.87-0.04,1.41-0.26,1.57c-0.18,0.13-0.62,0.17-0.95,0.2
	c-5.23,0.47-10.57,0.75-15.74,1.02l-1.1,0.06c-0.51,0.03-1.58,0.08-1.94-0.31c-0.2-0.22-0.25-0.72-0.11-1.22
	c0.08-0.3,0.23-0.58,0.4-0.85c0.12-0.11,0.21-0.24,0.28-0.39c0.27-0.31,0.58-0.57,0.94-0.75c0.77-0.39,1.61-0.32,2.66-0.23
	c0.23,0.02,0.46,0.04,0.69,0.05c0.62,0.04,1.24,0.07,1.86,0.11c0.77,0.04,1.54,0.08,2.32,0.14c1.71,0.12,3.43,0.26,5.14,0.42
	c0.7,0.08,1.32-0.45,1.39-1.15c0.06-0.7-0.45-1.32-1.15-1.39c-1.24-0.12-2.49-0.21-3.73-0.31c-0.45-0.87-0.93-1.72-1.4-2.55
	c-1.09-1.91-2.12-3.72-2.78-5.73c-1.03-3.15-1.05-6.21-0.04-8.63c0.79-1.9,2.29-3.17,4.21-3.56c2.33-0.47,4.85,0.41,6.9,2.42
	c0.5,0.49,1.31,0.48,1.8-0.02c0.49-0.5,0.48-1.31-0.02-1.8c-2.67-2.61-6.01-3.74-9.19-3.1c-2.74,0.56-4.95,2.41-6.06,5.08
	c-1.24,2.98-1.25,6.68-0.03,10.4c0.74,2.26,1.88,4.26,2.99,6.2c0.2,0.35,0.4,0.71,0.6,1.07c-0.27-0.02-0.55-0.03-0.82-0.05
	c-0.61-0.03-1.22-0.07-1.83-0.1c-0.21-0.01-0.42-0.03-0.63-0.05c-1.23-0.1-2.62-0.22-4.04,0.5c-0.54,0.28-1.03,0.64-1.46,1.08
	c-2.4-0.48-4.65-0.96-6.51-1.37c-0.01,0-0.02-0.01-0.03-0.01c-0.01,0-0.03,0-0.04-0.01c-0.43-0.09-0.83-0.18-1.21-0.27
	c1.69-0.63,3.91-1.84,5.1-4.05c0.9-1.67,1.47-7.39,1.57-8.52c0.06-0.7-0.45-1.32-1.15-1.39c-0.02,0-0.04,0-0.06,0
	c-0.68-0.03-1.27,0.47-1.33,1.16c-0.24,2.6-0.8,6.66-1.28,7.55c-1.03,1.91-3.35,2.81-4.64,3.18c-2.26,0.64-3.74,2.2-5.17,3.7
	c-1.04,1.09-2.02,2.12-3.23,2.72c-2.51,1.24-5.54,1.12-8.47,1.01l-0.59-0.02c-0.29-0.01-1.17-0.04-1.35-0.29
	c-0.03-0.05-0.02-0.15-0.02-0.19c0.04-0.22,0.19-0.47,0.39-0.61c0.78-0.56,1.92-0.61,3.13-0.66c1.42-0.06,3.02-0.13,4.41-1.05
	c1.81-1.19,3.13-6.3,3.61-8.44c0.15-0.69-0.28-1.37-0.96-1.52c-0.68-0.16-1.37,0.28-1.52,0.96c-0.06,0.29-0.13,0.58-0.21,0.86
	c-2.94-2.42-5.21-5.64-6.37-9.02c1.16-0.19,2.32-0.41,3.47-0.69c1.52-0.38,3.12-0.87,4.5-1.88c3.56-2.61,4.39-7.73,4.65-11.61
	c1.46,0.06,3.86-0.28,8.06-1.45c10.08-2.81,23.66-1.92,29.65,6.69c2.52,3.62,4.33,8.81,4.71,13.55
	C85.93,56.74,85.82,59.5,84.43,61.94z M88.46,60.16c-0.2-0.01-0.39-0.05-0.57-0.1c0.51-1.99,0.54-3.92,0.43-5.39
	c0.14-0.01,0.28-0.03,0.43-0.02c1.52,0.08,2.69,1.38,2.62,2.9C91.28,59.06,89.98,60.24,88.46,60.16z"/>
</svg>
