<?xml version="1.0" encoding="utf-8"?>
<!-- Generator: Adobe Illustrator 28.1.0, SVG Export Plug-In . SVG Version: 6.00 Build 0)  -->
<svg version="1.1" id="Layer_1" xmlns="http://www.w3.org/2000/svg" xmlns:xlink="http://www.w3.org/1999/xlink" x="0px" y="0px"
	 viewBox="0 0 110.55 76.54" style="enable-background:new 0 0 110.55 76.54;" xml:space="preserve">
<style type="text/css">
	.st0{display:none;}
	.st1{display:inline;fill:none;}
	.st2{fill:none;}
	.st3{fill:#FFFFFF;}
	.st4{fill:#231F20;}
</style>
<g id="Layer_2_00000073722119373351752270000017113015111246931634_" class="st0">
	<line class="st1" x1="-24.13" y1="74.54" x2="142.13" y2="74.54"/>
	<line class="st1" x1="-24.13" y1="2" x2="142.13" y2="2"/>
</g>
<g>
	<path class="st2" d="M-5240.72,925.05c-1.72,0-3.37,0.3-4.92,0.82l3.29,12.07l2.3,1.28c0.66,0.37,0.9,1.2,0.53,1.86
		c-0.25,0.45-0.71,0.7-1.19,0.7c-0.23,0-0.46-0.06-0.67-0.17l-2.8-1.56c-0.02-0.01-0.04-0.04-0.06-0.05
		c-0.1-0.06-0.19-0.14-0.27-0.23c-0.03-0.04-0.07-0.07-0.1-0.11c-0.08-0.11-0.14-0.24-0.19-0.38c0-0.02-0.02-0.04-0.03-0.06
		c0,0,0,0,0-0.01l-3.34-12.23c-4.72,2.63-7.92,7.66-7.92,13.44c0,8.48,6.9,15.37,15.37,15.37s15.37-6.9,15.37-15.37
		C-5225.34,931.95-5232.24,925.05-5240.72,925.05z"/>
	<path d="M-5339.6,903.64c-6.21,0-11.27,5.06-11.27,11.27v6.37c0,1.15,0.92,2.07,2.07,2.07c1.15,0,2.07-0.92,2.07-2.07v-6.37
		c0-1.53,0.54-2.99,1.3-4.14v33.36c0,1.38,1.15,2.53,2.53,2.53s2.53-1.15,2.53-2.53v-19.25h1.46v19.25c0,1.38,1.15,2.53,2.53,2.53
		s2.53-1.15,2.53-2.53v-33.36c0.84,1.15,1.3,2.61,1.3,4.14v6.37c0,1.15,0.92,2.07,2.07,2.07c1.15,0,2.07-0.92,2.07-2.07v-6.37
		C-5328.32,908.71-5333.39,903.64-5339.6,903.64z"/>
	<path d="M-5339.6,902.19c3.13,0,5.67-2.54,5.67-5.68c0-3.13-2.54-5.67-5.67-5.67c-3.13,0-5.68,2.54-5.68,5.67
		C-5345.27,899.65-5342.73,902.19-5339.6,902.19z"/>
	<path d="M-5307.39,914.92v5.83c1.33-0.33,2.72-0.53,4.14-0.58v-5.25c0.08-6.21-4.98-11.27-11.2-11.27
		c-6.21,0-11.27,5.06-11.27,11.27v6.37c0,1.15,0.92,2.07,2.07,2.07s2.07-0.92,2.07-2.07v-6.37c0-1.53,0.54-2.99,1.3-4.14v19.92
		c2.48-4.51,6.61-7.97,11.58-9.57v-10.34C-5307.85,911.93-5307.39,913.38-5307.39,914.92z"/>
	<path d="M-5314.44,902.19c3.13,0,5.67-2.54,5.67-5.68c0-3.13-2.54-5.67-5.67-5.67s-5.68,2.54-5.68,5.67
		C-5320.12,899.65-5317.58,902.19-5314.44,902.19z"/>
	<path class="st3" d="M-5320.27,944.14c0,0.49,0.15,0.96,0.4,1.35c-0.16-0.55-0.3-1.11-0.4-1.68V944.14z"/>
	<polygon class="st3" points="-5279.08,928.41 -5278.35,930.11 -5278.35,930.11 -5279.08,928.4 	"/>
	<path d="M-5313.75,933.59v10.55c0,1.38,1.15,2.53,2.53,2.53s2.53-1.15,2.53-2.53v-15.35
		C-5310.78,929.9-5312.52,931.57-5313.75,933.59z"/>
	<path class="st3" d="M-5303.56,941.23c-0.04-0.06-0.08-0.11-0.12-0.17c-0.03-0.06-0.06-0.13-0.08-0.19l-0.25,0.37H-5303.56z"/>
	<path d="M-5240.72,922.32c-1.97,0-3.86,0.33-5.64,0.91l-5.1-18.71l10.75-0.01c1.88,0,3.42,1.53,3.42,3.42
		c0,1.88-1.53,3.42-3.42,3.42c-0.76,0-1.37,0.61-1.37,1.37s0.61,1.37,1.37,1.37c3.39,0,6.15-2.76,6.15-6.15
		c0-3.39-2.76-6.15-6.15-6.15l-12.54,0.01c-0.06,0-0.12,0.03-0.18,0.04c-0.06,0.01-0.12,0-0.18,0.01c-0.03,0.01-0.05,0.03-0.08,0.04
		c-0.09,0.03-0.17,0.08-0.25,0.13c-0.07,0.04-0.14,0.08-0.21,0.14c-0.06,0.06-0.11,0.13-0.17,0.2c-0.05,0.07-0.11,0.14-0.14,0.22
		c-0.04,0.08-0.06,0.15-0.08,0.24c-0.03,0.09-0.05,0.18-0.06,0.28c0,0.03-0.02,0.06-0.02,0.09c0,0.06,0.03,0.12,0.04,0.18
		c0.01,0.06-0.01,0.12,0.01,0.18l2.93,10.74h-6.06c-0.17,0.95-0.43,1.86-0.76,2.73h5.31l-14.11,14.11c-0.21,0.88-0.3,1.77-0.24,2.72
		l0.05,1.34l16.9-16.9l1.64,6.04c-5.88,3-9.92,9.09-9.92,16.13c0,9.98,8.12,18.11,18.11,18.11c9.99,0,18.11-8.12,18.11-18.11
		C-5222.61,930.44-5230.73,922.32-5240.72,922.32z M-5240.72,955.8c-8.48,0-15.37-6.9-15.37-15.37c0-5.77,3.2-10.81,7.92-13.44
		l3.34,12.23c0,0,0,0,0,0.01c0.01,0.02,0.02,0.04,0.03,0.06c0.05,0.14,0.11,0.26,0.19,0.38c0.03,0.04,0.07,0.07,0.1,0.11
		c0.08,0.09,0.17,0.17,0.27,0.23c0.02,0.02,0.03,0.04,0.06,0.05l2.8,1.56c0.21,0.12,0.44,0.17,0.67,0.17c0.48,0,0.94-0.25,1.19-0.7
		c0.37-0.66,0.13-1.49-0.53-1.86l-2.3-1.28l-3.29-12.07c1.55-0.52,3.2-0.82,4.92-0.82c8.48,0,15.37,6.9,15.37,15.37
		C-5225.34,948.9-5232.24,955.8-5240.72,955.8z"/>
	<path d="M-5278.84,927.54l-4.55-10.55h11.13c0.75-1.05,1.25-1.93,1.56-2.73h-13.87l-3.56-8.26c1-0.09,1.98-0.18,2.84-0.26
		l-1.14-2.99l0.41-0.3l-9.11-0.82c-3.6-0.19-3.59,5.18,0,4.99c0,0,1.85-0.17,4.14-0.37l3.87,8.97l-6.4,9.48
		c-2.65-1.51-5.7-2.39-8.96-2.39c-0.36,0-0.71,0.01-1.07,0.03c-1.08,0.06-2.13,0.22-3.15,0.47c-0.68,0.16-1.35,0.36-1.99,0.6
		c-1.85,0.68-3.55,1.65-5.06,2.85c-0.51,0.41-1,0.84-1.46,1.29c-2.56,2.53-4.37,5.82-5.06,9.49c-0.21,1.09-0.32,2.22-0.32,3.37
		s0.11,2.28,0.32,3.37c0.11,0.57,0.24,1.13,0.4,1.68c2.19,7.53,9.15,13.05,17.38,13.05c9.52,0,17.33-7.39,18.04-16.74h2.55
		c0.22,0.85,0.59,1.64,1.08,2.35c0.23-1.26,0.74-2.39,1.47-3.33c-0.05-0.27-0.09-0.56-0.09-0.85c0-0.48,0.07-0.95,0.21-1.39
		l-0.08-1.09l-0.03-0.42l-0.21-2.68c-0.85,0.72-1.52,1.63-1.96,2.67c-0.27,0.63-0.46,1.3-0.55,2.01h-2.38
		c-0.39-5.18-2.96-9.76-6.81-12.82l5.42-8.03l4.03,9.35l2.16,5.01c0-1.39,0.2-2.79,0.56-4.18c0,0,0,0,0,0
		C-5279.01,928.12-5278.93,927.83-5278.84,927.54z M-5302.48,955.8c-6.36,0-11.83-3.88-14.16-9.4c-0.78-1.84-1.21-3.86-1.21-5.98
		c0-3.19,0.98-6.16,2.65-8.61c0.44-0.64,0.93-1.24,1.46-1.81c1.42-1.53,3.13-2.77,5.06-3.63c1.9-0.84,4-1.32,6.21-1.32
		c2.69,0,5.23,0.7,7.43,1.93l-8.56,12.68c-0.02,0.04-0.03,0.08-0.05,0.12c-0.04,0.08-0.08,0.17-0.11,0.26
		c-0.03,0.09-0.04,0.17-0.05,0.27c0,0.04-0.03,0.08-0.03,0.13c0,0.04,0.02,0.08,0.03,0.13c0.01,0.09,0.03,0.18,0.05,0.27
		c0,0.02,0.01,0.03,0.02,0.04c0.02,0.07,0.04,0.13,0.08,0.19c0.03,0.06,0.07,0.12,0.12,0.17c0.01,0.01,0.01,0.02,0.02,0.04
		c0.06,0.08,0.12,0.14,0.2,0.2c0.03,0.03,0.05,0.07,0.09,0.09c0.05,0.03,0.1,0.05,0.15,0.07c0.05,0.02,0.09,0.05,0.14,0.06
		c0.15,0.06,0.31,0.1,0.47,0.1h15.3C-5287.88,949.63-5294.47,955.8-5302.48,955.8z M-5299.91,939.06l7.12-10.55
		c3.13,2.55,5.23,6.3,5.61,10.55H-5299.91z"/>
	<path d="M-5262.02,917c0.42-0.88,0.76-1.78,0.98-2.73c0.21-0.89,0.33-1.82,0.33-2.81c0-5.34-3.65-10.33-11.74-10.33
		c-3.24,0-6.7,0.85-9.07,2.19c-0.35,0.2-0.68,0.41-0.98,0.62l0.54,1.42l1.14,3.01c1.76-1.34,4.57-2.18,7.1-2.18
		c4.43,0.07,6.68,2.46,6.68,6.05c0,0.69-0.1,1.37-0.26,2.03c-0.22,0.91-0.59,1.81-1.11,2.73c-0.83,1.5-2.02,3.07-3.55,4.86
		c-1.52,1.83-2.62,3.64-3.35,5.42c-0.37,0.91-0.64,1.81-0.82,2.7c-0.19,0.96-0.28,1.91-0.27,2.83c0.01,0.4,0.03,0.81,0.07,1.2
		l0.12,1.52l0.02,0.31h3.5h1.98l-0.07-1.83c0-0.05,0-0.1-0.01-0.15c-0.06-1.34,0.06-2.61,0.41-3.87c0.25-0.9,0.61-1.8,1.1-2.71
		c0.62-1.16,1.45-2.35,2.5-3.6C-5264.82,921.39-5263.12,919.28-5262.02,917z"/>
	<path d="M-5270.77,942.26c-0.71-0.63-1.63-1-2.73-1c-0.09,0-0.17,0.02-0.25,0.02c-1.37,0.07-2.51,0.72-3.2,1.76
		c-0.16,0.24-0.3,0.49-0.41,0.77c-0.23,0.56-0.35,1.19-0.35,1.87c0,2.46,1.69,4.36,4.15,4.36c0.48,0,0.93-0.07,1.34-0.19
		c1.8-0.54,2.87-2.17,2.87-4.17c0-0.25-0.03-0.49-0.06-0.72C-5269.56,943.84-5270.04,942.91-5270.77,942.26z"/>
</g>
<g>
	<path class="st4" d="M14.78,9.14c-0.72,0.4-1.12,1.22-0.98,2.04C13.67,10.35,14.06,9.54,14.78,9.14z"/>
	<polygon class="st4" points="23.25,35.61 16.46,18.19 23.25,35.61 20.39,38.59 18.93,40.15 18.93,40.15 20.39,38.59 	"/>
	<path class="st4" d="M97.12,60.8c-0.5-0.07-1-0.16-1.5-0.27C96.12,60.63,96.62,60.73,97.12,60.8z"/>
	<path class="st4" d="M18.86,40.25c-0.23,0.32-0.27,0.73-0.11,1.08C18.59,40.98,18.63,40.57,18.86,40.25z"/>
	<path class="st4" d="M17.63,10.27l2.18,5.6L17.63,10.27c-0.33-1.04-1.44-1.62-2.48-1.29c-0.1,0.03-0.19,0.08-0.29,0.12
		c0.09-0.05,0.18-0.09,0.29-0.12C16.19,8.65,17.3,9.23,17.63,10.27z"/>
	<path class="st4" d="M20.47,45.67c-2.01,3.03-5.62,8.43-7.65,9.97c-0.1,0.07-0.19,0.16-0.26,0.26c0.07-0.1,0.16-0.19,0.26-0.26
		C14.86,54.1,18.46,48.71,20.47,45.67z"/>
	<path class="st4" d="M36.38,67.33L36.38,67.33c0.99,0.94,1.94,1.91,2.87,2.91C38.33,69.24,37.38,68.26,36.38,67.33z"/>
	<path class="st4" d="M29.1,29.34c-0.93,1.03-1.89,2.08-2.84,3.09l0,0C27.21,31.42,28.17,30.37,29.1,29.34z"/>
	<path class="st4" d="M18.76,68.38c0.12,0.32,0.38,0.55,0.72,0.65C19.14,68.93,18.88,68.69,18.76,68.38z"/>
	<path class="st4" d="M27.11,69.22c0.25,0.1,0.53,0.11,0.8,0.01l0.14-0.07l-0.14,0.07C27.64,69.34,27.35,69.32,27.11,69.22z"/>
	<path class="st4" d="M99.21,60.54C99.2,60.54,99.2,60.54,99.21,60.54C99.2,60.54,99.2,60.54,99.21,60.54z"/>
	<polygon class="st4" points="28.27,69.03 29.65,68.13 30.83,69.5 29.64,68.12 	"/>
	<path class="st4" d="M91.65,49.36C91.65,49.36,91.65,49.36,91.65,49.36c0.01,0.02,0,0.04,0.01,0.06
		C91.66,49.4,91.66,49.38,91.65,49.36z"/>
	<path class="st4" d="M9.2,69.96c0.15,0.02,0.3,0.01,0.45-0.04l6.04-1.81l-6.04,1.8C9.51,69.97,9.35,69.98,9.2,69.96z"/>
	<path class="st4" d="M33.18,24.6c-0.01,0.01-0.02,0.02-0.03,0.03C33.16,24.62,33.17,24.61,33.18,24.6L33.18,24.6z"/>
	<polygon class="st4" points="18.74,67.21 18.69,67.78 18.74,67.21 	"/>
	<path class="st4" d="M103.07,70.01C103.07,70.01,103.07,70.01,103.07,70.01c0.01,0.04,0,0.08,0.01,0.12
		C103.07,70.1,103.08,70.06,103.07,70.01z"/>
	<path class="st4" d="M82.31,31.31c-0.04-0.08-0.07-0.17-0.11-0.26l0,0C82.24,31.13,82.27,31.22,82.31,31.31z"/>
	<path class="st4" d="M85.04,31.36c0.43-0.07,0.8-0.37,0.94-0.8c0.01-0.04,0.01-0.09,0.02-0.13c-0.01,0.04,0,0.09-0.02,0.13
		C85.84,30.99,85.47,31.29,85.04,31.36z"/>
	<path class="st4" d="M91.03,50.78l-1.58,0.63L91.03,50.78c0.23-0.09,0.39-0.25,0.51-0.44C91.42,50.52,91.26,50.69,91.03,50.78z"/>
	<path class="st4" d="M92.45,53.83c1.17,0.76,2.32,1.55,3.43,2.39C94.76,55.38,93.62,54.58,92.45,53.83
		c-1.19-0.82-2.38-1.66-3.26-2.31l0,0C90.07,52.17,91.26,53,92.45,53.83z"/>
	<path class="st4" d="M82.49,31.09l0.9,0.13c0.39,0.08,0.8,0.11,1.2,0.14c-0.4-0.03-0.8-0.07-1.2-0.14L82.49,31.09z"/>
	<path class="st4" d="M88.99,43.79c0.16-0.23,0.23-0.52,0.17-0.82c-0.01-0.03-0.03-0.06-0.04-0.1c0.01,0.03,0.03,0.06,0.04,0.1
		C89.22,43.27,89.15,43.56,88.99,43.79z"/>
	<path class="st4" d="M89.43,39.33c0.05-0.12,0.08-0.24,0.08-0.38c0-0.04-0.01-0.08-0.01-0.12c0,0.04,0.01,0.08,0.01,0.12
		C89.51,39.09,89.47,39.21,89.43,39.33z"/>
	<path class="st4" d="M89.35,38.39c-0.07-0.12-0.16-0.23-0.27-0.32c-0.53-0.48-1.06-0.97-1.59-1.46c0.53,0.49,1.06,0.98,1.59,1.47
		C89.19,38.16,89.28,38.27,89.35,38.39z"/>
	<path class="st4" d="M28.66,22.72c-0.44,0.4-0.49,1.08-0.1,1.53c0.21,0.24,0.51,0.37,0.83,0.37c-0.31,0-0.62-0.13-0.82-0.37
		C28.17,23.8,28.21,23.12,28.66,22.72z"/>
	<path class="st4" d="M99.43,59.15c-0.05-0.11-0.12-0.2-0.21-0.29c-1.06-0.9-2.16-1.77-3.27-2.6c1.12,0.83,2.21,1.7,3.27,2.6
		C99.31,58.95,99.38,59.05,99.43,59.15z"/>
	<path class="st4" d="M56.43,4.52c3.83,0,7.57,2.7,10.88,5.08c0.86,0.66,1.75,1.27,2.67,1.84c-0.92-0.58-1.81-1.18-2.67-1.84
		C64.01,7.23,60.27,4.52,56.43,4.52c-2.54,0-7.63,0.76-13.36,5.74L28.67,22.7c0,0,0,0,0,0l14.41-12.44
		C48.8,5.28,53.9,4.52,56.43,4.52z"/>
	<path class="st4" d="M102.74,69.45v0.01c0.13,0.11,0.22,0.26,0.28,0.42c-0.06-0.16-0.15-0.31-0.28-0.42L102.74,69.45
		c-1.13-1-5.75-5.86-8.82-9.31l0,0C96.99,63.59,101.6,68.45,102.74,69.45z"/>
	<path class="st4" d="M72.08,12.79c-0.07-0.09-0.15-0.18-0.25-0.24l-0.03-0.02l0.03,0.02C71.93,12.61,72.01,12.7,72.08,12.79z"/>
	<path class="st4" d="M72.16,14.06C72.16,14.06,72.16,14.06,72.16,14.06c0.24-0.38,0.22-0.86-0.02-1.21
		C72.38,13.2,72.41,13.68,72.16,14.06z"/>
	<path class="st4" d="M99.44,60.21c-0.05,0.11-0.12,0.2-0.2,0.29C99.31,60.41,99.39,60.32,99.44,60.21c0.16-0.34,0.16-0.72,0-1.05
		C99.59,59.48,99.6,59.87,99.44,60.21z"/>
	<path class="st4" d="M74.95,19.76c-1.65-1.58-3.37-3.09-5.17-4.51c0,0,0,0,0,0C71.57,16.67,73.3,18.17,74.95,19.76z"/>
	<path class="st4" d="M8.37,69.42c0-0.01-0.01-0.01-0.01-0.01C8.36,69.41,8.37,69.41,8.37,69.42z"/>
	<path class="st4" d="M86.79,71.39C86.79,71.39,86.79,71.39,86.79,71.39C86.79,71.39,86.79,71.39,86.79,71.39
		c0.27-0.62,0.5-1.26,0.69-1.92c0,0,0,0,0,0C87.3,70.13,87.07,70.77,86.79,71.39z"/>
	<path class="st4" d="M47.87,68.41c-0.02-0.02-0.04-0.03-0.06-0.04C47.83,68.39,47.85,68.4,47.87,68.41z"/>
	<path class="st4" d="M69.95,72.71c-0.02,0.04-0.05,0.08-0.08,0.12C69.89,72.79,69.92,72.75,69.95,72.71l2.18-4.41c0,0,0,0,0,0
		L69.95,72.71z"/>
	<path class="st4" d="M27.07,69.22c-0.04-0.02-0.07-0.05-0.11-0.08C27,69.16,27.03,69.2,27.07,69.22z"/>
	<path class="st4" d="M85.32,71.96l-5.74-2.68c0,0,0,0,0,0L85.32,71.96c0.27,0.13,0.58,0.13,0.84,0.03
		C85.9,72.09,85.6,72.09,85.32,71.96z"/>
	<path class="st4" d="M78.08,70.88l-0.2-0.16L78.08,70.88c0.29,0.26,0.69,0.32,1.04,0.21C78.77,71.19,78.37,71.14,78.08,70.88z"/>
	<path class="st4" d="M88.54,46.02c1.12,1.14,2.27,2.33,2.89,3c0.05,0.05,0.07,0.11,0.11,0.17c-0.04-0.06-0.06-0.12-0.11-0.17
		C90.82,48.35,89.66,47.16,88.54,46.02l-1.51-1.51l0,0L88.54,46.02z"/>
	<path class="st4" d="M93.16,71.36c0.1,0.03,0.2,0.06,0.31,0.06c0.23-0.01,0.43-0.1,0.61-0.23c-0.17,0.13-0.38,0.22-0.61,0.22
		C93.37,71.41,93.27,71.39,93.16,71.36z"/>
	<path class="st4" d="M76.98,70.25c-0.85-0.43-1.71-0.81-2.6-1.16C75.27,69.43,76.13,69.82,76.98,70.25z"/>
	<path class="st4" d="M79.63,70.79c0.02-0.02,0.03-0.05,0.04-0.08C79.65,70.74,79.65,70.76,79.63,70.79
		C79.63,70.79,79.63,70.79,79.63,70.79z"/>
	<path class="st4" d="M94.63,68.89c-0.18-0.09-0.36-0.17-0.54-0.26C94.27,68.71,94.45,68.8,94.63,68.89
		c2.69,1.3,5.24,2.54,6.94,2.54c0.17,0,0.34-0.03,0.52-0.06c-0.17,0.03-0.34,0.06-0.52,0.06C99.87,71.42,97.32,70.18,94.63,68.89z"
		/>
	<path class="st4" d="M94.12,69.45c0.26,0.2,0.42,0.51,0.43,0.85c0,0.05-0.02,0.09-0.02,0.14c0.01-0.05,0.03-0.09,0.02-0.14
		C94.54,69.96,94.38,69.65,94.12,69.45l-1.71-1.62c0,0,0,0,0,0L94.12,69.45z"/>
	<path class="st4" d="M72.12,14.1c-0.46,0.48-1.03,0.84-1.67,1.02C71.08,14.94,71.66,14.59,72.12,14.1z"/>
	<path class="st4" d="M79.17,23.94c1.14,1.08,2.32,2.12,3.54,3.12C81.5,26.06,80.32,25.02,79.17,23.94z"/>
	<path class="st4" d="M58.87,68.48c0.03-0.27,0.08-0.54,0.11-0.82c0,0,0,0,0,0C58.95,67.94,58.91,68.21,58.87,68.48z"/>
	<path class="st4" d="M58.21,72.44c0-0.01,0-0.01,0.01-0.02c0.06-0.29,0.1-0.57,0.16-0.86c-0.06,0.29-0.1,0.58-0.16,0.86
		C58.22,72.43,58.22,72.43,58.21,72.44z"/>
	<path class="st4" d="M44.27,70.18c-0.53,0.73-1.13,1.41-1.79,2.03l0,0C43.14,71.59,43.74,70.91,44.27,70.18
		c0.57-0.74,1.13-1.46,1.69-1.88C45.39,68.73,44.84,69.44,44.27,70.18z"/>
	<path class="st4" d="M41.17,72.28c0.22,0.15,0.48,0.2,0.73,0.17C41.64,72.48,41.39,72.42,41.17,72.28z"/>
	<path class="st4" d="M68.25,73.01c-0.01-0.01-0.32-0.24-0.82-0.6C67.92,72.76,68.23,73,68.25,73.01c0.29,0.27,0.69,0.33,1.05,0.22
		C68.94,73.33,68.54,73.27,68.25,73.01z"/>
	<path class="st4" d="M56.76,73.2l-6.56-2.99c-0.38-0.21-0.73-0.46-1.07-0.73c0.34,0.27,0.69,0.52,1.07,0.73L56.76,73.2
		c0.22,0.09,0.45,0.08,0.67,0.02C57.21,73.27,56.98,73.28,56.76,73.2z"/>
	<path class="st4" d="M64.26,46.37c-0.57-0.44-1.37-0.44-1.94,0c-0.29,0.27-0.48,0.63-0.53,1.03l-0.43,2.69
		c-0.59-0.6-1.12-1.26-1.6-1.95c-0.37-0.53-0.95-0.88-1.59-0.96c-0.46-0.03-0.9,0.16-1.19,0.51c-0.07,0.08-0.13,0.17-0.18,0.27
		c-0.38-0.65-0.88-1.22-1.49-1.68h-0.08c0,0,0,0,0,0c-0.52-0.3-1.19-0.13-1.5,0.4c-0.15,0.25-0.28,0.52-0.4,0.79l-0.82-1.46
		c-0.3-0.53-0.96-0.72-1.49-0.42c-0.53,0.3-0.72,0.96-0.42,1.49l2.19,3.89c0.19,0.33,0.53,0.54,0.91,0.55
		c0.61,0.02,1.11-0.45,1.13-1.06c0.01-0.4,0.07-0.8,0.17-1.19l0.37,0.64c0.46,0.97,1.13,1.83,1.97,2.51
		c0.27,0.19,0.62,0.25,0.94,0.16c0.58-0.16,0.92-0.77,0.75-1.35c-0.06-0.2-0.11-0.4-0.16-0.6c0.78,0.88,1.66,1.68,2.61,2.38
		c0.19,0.14,0.42,0.21,0.65,0.21c0.53,0,0.98-0.37,1.08-0.88l0.63-3.67c0.43,0.29,0.82,0.62,1.19,0.98
		c0.44,0.42,1.13,0.41,1.55-0.03c0.42-0.44,0.41-1.13-0.03-1.55C65.87,47.41,65.09,46.84,64.26,46.37z"/>
	<path class="st4" d="M58.87,68.48c-0.13,1.03-0.29,2.06-0.49,3.08C58.58,70.54,58.74,69.51,58.87,68.48z"/>
	<path class="st4" d="M72.16,14.06C72.16,14.06,72.16,14.06,72.16,14.06c-0.01,0.01-0.03,0.03-0.04,0.04
		C72.13,14.08,72.15,14.07,72.16,14.06z"/>
	<path class="st4" d="M91.65,49.36c-0.02-0.06-0.07-0.11-0.11-0.17C91.58,49.24,91.63,49.3,91.65,49.36
		C91.65,49.36,91.65,49.36,91.65,49.36z"/>
	<path class="st4" d="M91.54,50.34c0.17-0.27,0.23-0.59,0.12-0.91C91.77,49.74,91.71,50.07,91.54,50.34z"/>
	<path class="st4" d="M89.35,38.39c0.08,0.14,0.13,0.29,0.14,0.45C89.48,38.68,89.43,38.53,89.35,38.39z"/>
	<path class="st4" d="M79.63,70.79C79.63,70.79,79.63,70.79,79.63,70.79c-0.14,0.16-0.32,0.24-0.51,0.3
		C79.31,71.03,79.49,70.94,79.63,70.79z"/>
	<polygon class="st4" points="89.19,51.52 89.45,51.41 89.19,51.52 	"/>
	<path class="st4" d="M27.11,69.22c-0.01,0-0.02,0-0.04-0.01C27.08,69.22,27.09,69.22,27.11,69.22z"/>
	<path class="st4" d="M18.93,40.15c-0.03,0.03-0.04,0.07-0.07,0.1C18.89,40.22,18.9,40.18,18.93,40.15L18.93,40.15z"/>
	<path class="st4" d="M28.67,22.7c-0.01,0-0.01,0.01-0.01,0.02C28.66,22.72,28.66,22.71,28.67,22.7L28.67,22.7z"/>
	<path class="st4" d="M95.88,56.21c0.02,0.02,0.04,0.03,0.07,0.05C95.93,56.24,95.91,56.23,95.88,56.21z"/>
	<path class="st4" d="M14.78,9.14c0.03-0.01,0.06-0.02,0.08-0.04C14.84,9.12,14.81,9.12,14.78,9.14z"/>
	<path class="st4" d="M99.24,60.49c-0.01,0.01-0.02,0.03-0.03,0.04C99.22,60.52,99.23,60.51,99.24,60.49z"/>
	<path class="st4" d="M103.07,70.01c-0.01-0.05-0.04-0.09-0.05-0.13C103.03,69.93,103.06,69.97,103.07,70.01
		C103.07,70.01,103.07,70.01,103.07,70.01z"/>
	<path class="st4" d="M97.12,60.8c0.34,0.05,0.67,0.11,1.01,0.14c0.4,0.04,0.79-0.11,1.07-0.39c-0.27,0.28-0.66,0.43-1.07,0.39
		C97.79,60.9,97.46,60.84,97.12,60.8z"/>
	<path class="st4" d="M72.08,12.79c0.02,0.02,0.05,0.04,0.06,0.06C72.12,12.83,72.1,12.81,72.08,12.79z"/>
	<path class="st4" d="M99.43,59.15C99.43,59.16,99.43,59.16,99.43,59.15C99.43,59.16,99.43,59.16,99.43,59.15z"/>
	<path class="st4" d="M29.1,29.34c1.51-1.67,2.93-3.31,4.05-4.71C32.03,26.03,30.61,27.66,29.1,29.34z"/>
	<path class="st4" d="M93.92,60.14C93.92,60.14,93.92,60.14,93.92,60.14l0.64,0.14c0.35,0.1,0.71,0.17,1.06,0.25
		c-0.36-0.08-0.71-0.15-1.06-0.25L93.92,60.14z"/>
	<path class="st4" d="M33.34,70.54c-0.21,0.23-0.51,0.35-0.82,0.34c-0.31,0-0.61-0.14-0.81-0.38l-0.87-1.01l0.87,1.01
		c0.2,0.24,0.5,0.38,0.81,0.38C32.82,70.9,33.12,70.77,33.34,70.54l3.05-3.21c0,0,0,0,0,0L33.34,70.54z"/>
	<path class="st4" d="M47.87,68.41c0.24,0.19,0.48,0.39,0.7,0.61c0.17,0.17,0.36,0.31,0.55,0.46c-0.19-0.15-0.38-0.3-0.55-0.46
		C48.35,68.8,48.12,68.6,47.87,68.41z"/>
	<path class="st4" d="M26.49,68.61l-0.69-1.77l-5.63,2.17c-0.16,0.06-0.34,0.09-0.51,0.07c-0.07-0.01-0.12-0.04-0.18-0.06
		c0.06,0.02,0.11,0.05,0.18,0.06c0.17,0.02,0.35-0.01,0.51-0.07l5.63-2.17L26.49,68.61c0.09,0.24,0.27,0.4,0.47,0.52
		C26.76,69.02,26.58,68.85,26.49,68.61z"/>
	<path class="st4" d="M57.42,73.22c0.33-0.09,0.62-0.3,0.75-0.64c0.02-0.04,0.03-0.09,0.04-0.13c-0.01,0.05-0.03,0.09-0.04,0.13
		C58.04,72.91,57.75,73.13,57.42,73.22z"/>
	<path class="st4" d="M58.98,67.66c2.99,0.97,6.8,3.56,8.44,4.74C65.78,71.23,61.97,68.63,58.98,67.66
		C58.98,67.66,58.98,67.66,58.98,67.66z"/>
	<polygon class="st4" points="28.05,69.16 28.1,69.14 28.27,69.03 28.1,69.14 	"/>
	<path class="st4" d="M69.29,73.22c0.18-0.06,0.36-0.14,0.5-0.29c0.03-0.03,0.05-0.07,0.07-0.1c-0.02,0.03-0.04,0.07-0.07,0.1
		C69.65,73.08,69.48,73.17,69.29,73.22z"/>
	<path class="st4" d="M39.26,70.24c0.57,0.61,1.13,1.22,1.67,1.85c0.07,0.08,0.15,0.13,0.24,0.18c-0.08-0.05-0.17-0.11-0.24-0.18
		C40.39,71.46,39.82,70.85,39.26,70.24z"/>
	<path class="st4" d="M41.9,72.45c0.21-0.03,0.41-0.09,0.58-0.23c0,0,0,0,0,0c0,0,0,0,0,0c0,0,0,0,0,0
		C42.31,72.36,42.1,72.42,41.9,72.45z"/>
	<path class="st4" d="M46.98,67.89c-0.35,0-0.69,0.16-1.03,0.41C46.29,68.04,46.63,67.89,46.98,67.89l0.13,0
		c0.24,0.15,0.48,0.31,0.7,0.48c-0.23-0.17-0.46-0.34-0.7-0.48H46.98z"/>
	<path class="st4" d="M92.4,67.83c0.56,0.25,1.13,0.52,1.69,0.8C93.53,68.35,92.96,68.08,92.4,67.83L92.4,67.83z"/>
	<path class="st4" d="M94.08,71.19c0.24-0.18,0.41-0.44,0.44-0.76C94.49,70.75,94.32,71.01,94.08,71.19z"/>
	<path class="st4" d="M72.13,68.3c0.76,0.23,1.52,0.5,2.26,0.79C73.64,68.8,72.89,68.53,72.13,68.3L72.13,68.3z"/>
	<path class="st4" d="M103.08,70.14c0.07,0.54-0.26,1.07-0.81,1.2c-0.06,0.01-0.12,0.01-0.18,0.02c0.06-0.01,0.13-0.01,0.19-0.02
		C102.82,71.21,103.15,70.68,103.08,70.14z"/>
	<path class="st4" d="M88.31,69.58c-0.27-0.07-0.55-0.11-0.82-0.11c0,0,0,0,0,0C87.76,69.47,88.04,69.51,88.31,69.58l4.76,1.76
		c0.03,0.01,0.06,0.01,0.1,0.02c-0.03-0.01-0.07-0.01-0.1-0.02L88.31,69.58z"/>
	<path class="st4" d="M76.98,70.25c0.29,0.14,0.58,0.29,0.86,0.44l0.04,0.03l-0.04-0.03C77.56,70.53,77.27,70.39,76.98,70.25z"/>
	<path class="st4" d="M86.16,71.99c0.26-0.1,0.49-0.29,0.61-0.56c0.01-0.01,0.01-0.03,0.02-0.04c-0.01,0.01-0.01,0.03-0.02,0.04
		C86.65,71.7,86.42,71.9,86.16,71.99z"/>
	<path class="st4" d="M79.67,70.71c0.33-0.43,0.3-1.04-0.09-1.43l0,0C79.97,69.67,80,70.28,79.67,70.71z"/>
	<path class="st4" d="M87.49,36.61c-1.86-1.73-3.65-3.44-4.91-4.69c-0.08-0.21-0.18-0.41-0.27-0.61c0.09,0.2,0.19,0.4,0.27,0.61
		C83.84,33.17,85.64,34.88,87.49,36.61z"/>
	<path class="st4" d="M79.17,23.94c-0.79-0.75-1.57-1.52-2.33-2.31c-0.62-0.64-1.25-1.26-1.9-1.88c0.64,0.61,1.27,1.24,1.89,1.88
		C77.6,22.42,78.38,23.19,79.17,23.94z"/>
	<path class="st4" d="M84.59,31.37c0.07,0,0.13,0.02,0.2,0.02c0.09,0,0.17-0.02,0.25-0.03c-0.08,0.01-0.17,0.03-0.26,0.03
		C84.72,31.39,84.65,31.38,84.59,31.37z"/>
	<path class="st4" d="M85.99,30.43c0.11-0.55-0.16-1.11-0.68-1.33c-0.88-0.66-1.74-1.34-2.59-2.04c0.85,0.7,1.71,1.38,2.59,2.04
		C85.83,29.32,86.1,29.88,85.99,30.43z"/>
	<path class="st4" d="M69.78,15.25c0.23-0.02,0.45-0.06,0.67-0.13C70.23,15.18,70.01,15.23,69.78,15.25
		C69.78,15.25,69.78,15.25,69.78,15.25z"/>
	<path class="st4" d="M71.8,12.53l-0.09-0.04c-0.59-0.32-1.16-0.68-1.72-1.04c0.57,0.36,1.14,0.71,1.72,1.04L71.8,12.53z"/>
	<path class="st4" d="M88.4,40.04h-0.14c-0.01-0.01-0.69-0.09-1.56-0.16c0.85,0.83,1.62,1.74,2.31,2.7
		c0.06,0.09,0.09,0.19,0.12,0.29c-0.03-0.1-0.06-0.2-0.11-0.29c-0.69-0.97-1.46-1.87-2.31-2.7c0.87,0.06,1.55,0.14,1.56,0.16
		L88.4,40.04c0.47,0.01,0.87-0.29,1.03-0.71C89.27,39.75,88.87,40.04,88.4,40.04z"/>
	<path class="st4" d="M18.69,67.78l-0.01,0.09c-0.02,0.18,0.02,0.34,0.08,0.5c-0.06-0.16-0.1-0.32-0.08-0.5L18.69,67.78z"/>
	<path class="st4" d="M87.03,44.5L87.03,44.5l1.26-0.25c0.3-0.06,0.54-0.23,0.7-0.46c-0.16,0.23-0.4,0.4-0.7,0.46L87.03,44.5z"/>
	<polygon class="st4" points="82.2,31.05 82.49,31.09 82.2,31.05 	"/>
	<path class="st4" d="M33.26,24.26l-3.77,0.36c-0.04,0-0.07,0-0.1,0c0.03,0,0.07,0.01,0.1,0L33.26,24.26l-0.08,0.33c0,0,0,0,0,0
		L33.26,24.26z"/>
	<polygon class="st4" points="15.69,68.12 18.74,67.21 18.74,67.21 	"/>
	<path class="st4" d="M8.46,68.2c2.57-3.31,5-6.8,7.24-10.37h-0.94c-1.19,0-2.08,0-2.38-0.88c-0.11-0.36-0.04-0.75,0.18-1.05
		c-0.22,0.3-0.29,0.68-0.18,1.05c0.3,0.88,1.19,0.88,2.38,0.88h0.94C13.46,61.4,11.03,64.89,8.46,68.2
		c-0.28,0.36-0.31,0.83-0.11,1.21C8.15,69.03,8.18,68.55,8.46,68.2z"/>
	<path class="st4" d="M8.37,69.42c0.07,0.12,0.15,0.23,0.27,0.32C8.8,69.87,9,69.94,9.2,69.96c-0.2-0.02-0.4-0.09-0.57-0.23
		C8.52,69.65,8.44,69.54,8.37,69.42z"/>
	<polygon class="st4" points="26.26,32.43 19.81,15.88 26.26,32.43 	"/>
	<path class="st4" d="M13.93,11.64c-0.03-0.06-0.05-0.12-0.07-0.19c-0.03-0.09-0.04-0.19-0.06-0.28c0.01,0.09,0.03,0.19,0.06,0.28
		C13.88,11.52,13.9,11.58,13.93,11.64l0,0.06l2.53,6.48l-2.53-6.48V11.64z"/>
	<path class="st4" d="M22.1,43.29c0.18-0.23,0.31-0.4,0.4-0.56h-0.26c-1.25,0.16-2.51-0.28-3.38-1.19c-0.05-0.06-0.07-0.14-0.1-0.21
		c0.03,0.07,0.06,0.14,0.1,0.21c0.87,0.91,2.13,1.35,3.38,1.19h0.26C22.41,42.88,22.28,43.06,22.1,43.29
		c-0.18,0.23-0.8,1.19-1.51,2.22c-0.03,0.05-0.07,0.11-0.11,0.17c0.04-0.05,0.08-0.11,0.11-0.17C21.3,44.48,21.92,43.52,22.1,43.29z
		"/>
	<path class="st4" d="M103.08,70.14c-0.01-0.04,0-0.08-0.01-0.12c-0.01-0.05-0.04-0.09-0.05-0.13c-0.06-0.16-0.15-0.31-0.28-0.42
		v-0.01c-1.13-1-5.75-5.86-8.82-9.31l0,0c0,0,0,0,0,0l0.64,0.14c0.35,0.1,0.71,0.17,1.06,0.25c0.5,0.11,1,0.2,1.5,0.27
		c0.34,0.05,0.67,0.11,1.01,0.14c0.4,0.04,0.79-0.11,1.07-0.39c0,0,0.01,0,0.01-0.01c0.01-0.01,0.02-0.03,0.03-0.04
		c0.08-0.09,0.15-0.18,0.2-0.29c0.16-0.34,0.16-0.72,0-1.05c0,0,0,0,0-0.01c-0.05-0.11-0.12-0.2-0.21-0.29
		c-1.06-0.9-2.16-1.77-3.27-2.6c-0.02-0.02-0.04-0.03-0.07-0.05c-1.12-0.83-2.26-1.63-3.43-2.39c-1.19-0.82-2.38-1.66-3.26-2.31l0,0
		c0,0,0,0,0,0l0.26-0.11l1.58-0.63c0.22-0.09,0.39-0.25,0.51-0.44c0.17-0.27,0.23-0.59,0.12-0.91c-0.01-0.02,0-0.04-0.01-0.06
		c-0.02-0.06-0.07-0.11-0.11-0.17c-0.04-0.06-0.06-0.12-0.11-0.17c-0.62-0.67-1.77-1.86-2.89-3l-1.51-1.51l0,0l0,0l1.26-0.25
		c0.3-0.06,0.54-0.23,0.7-0.46c0.16-0.23,0.23-0.52,0.17-0.82c-0.01-0.03-0.03-0.06-0.04-0.1c-0.03-0.1-0.06-0.2-0.12-0.29
		c-0.69-0.97-1.46-1.87-2.31-2.7c0.87,0.06,1.55,0.14,1.56,0.16h0.14c0.47,0.01,0.87-0.29,1.03-0.71c0.05-0.12,0.08-0.24,0.08-0.38
		c0-0.04-0.01-0.08-0.01-0.12c-0.02-0.16-0.06-0.31-0.14-0.45c-0.07-0.12-0.16-0.23-0.27-0.32c-0.53-0.48-1.06-0.97-1.59-1.47
		c-1.86-1.73-3.65-3.44-4.91-4.69c-0.08-0.21-0.17-0.41-0.27-0.61c-0.04-0.08-0.07-0.17-0.11-0.26l0,0c0,0,0,0,0,0l0.3,0.04
		l0.9,0.13c0.4,0.08,0.8,0.12,1.2,0.14c0.07,0,0.13,0.02,0.19,0.02c0.09,0,0.17-0.02,0.26-0.03c0.43-0.08,0.8-0.37,0.94-0.8
		c0.01-0.04,0.01-0.09,0.02-0.13c0.11-0.55-0.16-1.11-0.69-1.33c-0.88-0.66-1.74-1.34-2.59-2.04c-1.22-1-2.4-2.04-3.54-3.12
		c-0.79-0.75-1.58-1.52-2.33-2.31c-0.62-0.64-1.25-1.26-1.89-1.88c-1.65-1.58-3.37-3.09-5.17-4.51c0,0,0,0,0,0c0,0,0,0,0,0
		c0.23-0.02,0.45-0.06,0.67-0.13c0.63-0.18,1.21-0.54,1.67-1.02c0.01-0.01,0.03-0.02,0.04-0.04c0.24-0.38,0.22-0.86-0.02-1.21
		c-0.02-0.02-0.04-0.04-0.06-0.06c-0.07-0.09-0.15-0.18-0.25-0.24l-0.03-0.02l-0.09-0.04c-0.59-0.32-1.16-0.68-1.72-1.04
		c-0.92-0.58-1.81-1.18-2.67-1.84c-3.31-2.38-7.05-5.08-10.88-5.08c-2.54,0-7.63,0.76-13.36,5.74L28.67,22.7
		c-0.01,0-0.01,0.01-0.01,0.02c-0.44,0.4-0.49,1.08-0.09,1.53c0.21,0.24,0.51,0.37,0.82,0.37c0.03,0,0.07,0.01,0.1,0l3.77-0.36
		l-0.08,0.33c0,0,0,0,0,0v0c-0.01,0.01-0.02,0.02-0.03,0.03c-1.12,1.4-2.54,3.03-4.05,4.71c-0.93,1.03-1.89,2.08-2.84,3.09l0,0
		c0,0,0,0,0,0l-6.45-16.55l-2.18-5.6c-0.33-1.04-1.44-1.62-2.48-1.29c-0.1,0.03-0.19,0.08-0.29,0.12c-0.03,0.01-0.06,0.02-0.08,0.04
		c-0.72,0.4-1.11,1.22-0.98,2.04c0.02,0.09,0.03,0.19,0.06,0.28c0.02,0.06,0.04,0.13,0.07,0.19v0.06l2.53,6.48l6.79,17.42
		l-2.86,2.98l-1.47,1.56c-0.03,0.03-0.04,0.07-0.07,0.1c-0.23,0.32-0.27,0.73-0.11,1.08c0.03,0.07,0.06,0.14,0.1,0.21
		c0.87,0.91,2.13,1.35,3.38,1.19h0.26c-0.09,0.16-0.23,0.33-0.4,0.56c-0.18,0.23-0.8,1.19-1.51,2.22c-0.04,0.05-0.07,0.11-0.11,0.17
		c-2.01,3.03-5.62,8.43-7.65,9.97c-0.1,0.07-0.19,0.16-0.26,0.26c-0.22,0.3-0.29,0.68-0.18,1.05c0.3,0.88,1.19,0.88,2.38,0.88h0.94
		c-2.24,3.57-4.67,7.06-7.24,10.37c-0.28,0.35-0.31,0.83-0.11,1.21c0,0.01,0.01,0.01,0.01,0.01c0.07,0.12,0.15,0.23,0.27,0.32
		C8.8,69.87,9,69.94,9.2,69.96c0.15,0.02,0.3,0.01,0.45-0.04l6.04-1.8l3.05-0.91l0,0l0,0l-0.05,0.57l-0.01,0.09
		c-0.02,0.18,0.02,0.34,0.08,0.5c0.12,0.32,0.39,0.55,0.72,0.65c0.06,0.02,0.11,0.05,0.18,0.06c0.17,0.02,0.35-0.01,0.51-0.07
		l5.63-2.17l0.69,1.77c0.09,0.23,0.27,0.4,0.47,0.52c0.04,0.02,0.07,0.06,0.11,0.08c0.01,0,0.02,0,0.04,0.01
		c0.25,0.1,0.53,0.11,0.8,0.01l0.14-0.07l0.05-0.03l0.17-0.11l1.38-0.9l1.19,1.38l0.87,1.01c0.2,0.24,0.5,0.38,0.81,0.38
		c0.31,0.01,0.61-0.12,0.82-0.34l3.05-3.22c0,0,0,0,0,0l0,0c0.99,0.93,1.94,1.91,2.87,2.91c0.57,0.61,1.13,1.22,1.67,1.85
		c0.07,0.08,0.15,0.13,0.24,0.18c0.22,0.15,0.48,0.2,0.73,0.17c0.2-0.03,0.41-0.09,0.57-0.23c0,0,0,0,0,0
		c0.66-0.62,1.26-1.3,1.79-2.03c0.57-0.74,1.13-1.46,1.69-1.88c0.34-0.26,0.68-0.41,1.03-0.41h0.13c0.24,0.15,0.48,0.31,0.7,0.48
		c0.02,0.02,0.04,0.03,0.06,0.04c0.24,0.19,0.48,0.39,0.7,0.61c0.17,0.17,0.36,0.31,0.55,0.46c0.34,0.27,0.69,0.52,1.07,0.73
		l6.56,2.99c0.22,0.09,0.45,0.08,0.67,0.02c0.33-0.09,0.62-0.3,0.75-0.64c0.02-0.04,0.03-0.09,0.04-0.13c0-0.01,0-0.01,0.01-0.02
		c0.06-0.29,0.1-0.57,0.16-0.86c0.2-1.02,0.36-2.05,0.49-3.08c0.03-0.27,0.08-0.54,0.11-0.82c0,0,0,0,0,0c0,0,0,0,0,0
		c2.99,0.97,6.8,3.56,8.44,4.74c0.5,0.36,0.81,0.59,0.82,0.6c0.3,0.27,0.69,0.32,1.05,0.22c0.18-0.06,0.36-0.14,0.5-0.29
		c0.03-0.03,0.05-0.07,0.07-0.1c0.03-0.04,0.06-0.07,0.08-0.12l2.18-4.41c0,0,0,0,0,0l0,0c0.76,0.23,1.52,0.5,2.26,0.79
		c0.88,0.34,1.75,0.73,2.6,1.16c0.29,0.14,0.58,0.29,0.86,0.44l0.04,0.03l0.2,0.16c0.29,0.26,0.69,0.32,1.04,0.21
		c0.19-0.06,0.37-0.14,0.51-0.3c0.02-0.02,0.03-0.05,0.05-0.08c0.32-0.43,0.3-1.04-0.09-1.43l0,0c0,0,0,0,0,0l5.74,2.68
		c0.28,0.13,0.58,0.13,0.84,0.03c0.26-0.1,0.48-0.29,0.61-0.56c0.01-0.01,0.01-0.03,0.02-0.04c0,0,0,0,0,0
		c0.27-0.62,0.5-1.26,0.69-1.92c0,0,0,0,0,0c0,0,0,0,0,0c0.28,0,0.55,0.04,0.82,0.11l4.76,1.76c0.03,0.01,0.06,0.01,0.1,0.02
		c0.1,0.03,0.2,0.06,0.31,0.05c0.23,0,0.43-0.1,0.61-0.22c0.24-0.18,0.4-0.44,0.44-0.76c0.01-0.05,0.03-0.09,0.02-0.14
		c-0.01-0.33-0.16-0.64-0.43-0.85l-1.71-1.62c0,0,0,0,0,0l0,0c0.56,0.25,1.13,0.52,1.69,0.8c0.18,0.09,0.36,0.18,0.54,0.26
		c2.69,1.3,5.24,2.53,6.94,2.53c0.17,0,0.35-0.03,0.52-0.06c0.06-0.01,0.12-0.01,0.18-0.02C102.82,71.21,103.15,70.68,103.08,70.14z
		 M95.58,66.96l0.01-0.05c-2.7-1.35-5.23-2.53-6.95-2.53c-0.24,0-0.47,0.03-0.7,0.08c-0.59,0.14-0.95,0.73-0.81,1.32
		c0.05,0.22,0.17,0.41,0.33,0.56l1.19,1.01c-0.47-0.08-0.96-0.12-1.44-0.11h-0.62c-0.53,0.03-0.97,0.44-1.02,0.98
		c-0.07,0.4-0.18,0.8-0.32,1.19l-7.98-3.67c-0.55-0.26-1.2-0.03-1.46,0.52c-0.1,0.21-0.13,0.44-0.09,0.67c0,0.1,0.02,0.21,0.06,0.32
		c-1.8-0.7-3.57-1.26-3.9-1.37c-0.51-0.16-1.07,0.08-1.31,0.56l-2.01,4.08c-2.11-1.5-6.86-4.67-10.28-5.26
		c-0.59-0.11-1.16,0.29-1.27,0.88c0,0,0,0.01,0,0.01v0.07c-0.17,1.48-0.33,2.93-0.61,4.42l-5.3-2.38c-0.39-0.26-0.75-0.55-1.08-0.87
		c-0.71-0.79-1.62-1.36-2.63-1.66h-0.4c-2.01,0-3.31,1.68-4.45,3.16c-0.25,0.32-0.49,0.63-0.74,0.93c-1.5-1.67-3.09-3.26-4.76-4.76
		c-0.44-0.4-1.11-0.37-1.52,0.06l-2.96,3.11l-1.88-2.18c-0.35-0.41-0.95-0.51-1.42-0.22l-1.26,0.8l-0.61-1.55
		c-0.18-0.58-0.79-0.9-1.37-0.72c-0.01,0-0.01,0-0.02,0.01l-4.99,1.93v-0.52c0.08-0.6-0.34-1.15-0.94-1.23
		c-0.16-0.02-0.31-0.01-0.46,0.04l-7.44,2.23c2.18-2.98,4.24-6.05,6.16-9.19c0.21-0.37,0.21-0.82,0-1.19
		c-0.38-0.68-1.19-0.79-2.45-0.8c2.33-2.84,4.49-5.82,6.46-8.92c0.66-0.99,1.19-1.76,1.42-2.1c0.79-1.03,1.45-2.12,0.99-3.09
		c-0.47-0.98-1.48-0.96-2.44-0.96h-0.65l0.37-0.38l2.17-2.25l3.36,8.59l-2.38,0.93c-1.01,0.39-1.52,1.52-1.13,2.53
		c0.04,0.11,0.09,0.22,0.16,0.32c0.03,0.15,0.07,0.29,0.13,0.43l0.25,0.64c0.19,0.48,0.42,1.03,0.67,1.61
		c0.25,0.58,0.53,1.19,0.8,1.82c0.56,1.19,1.11,2.48,1.51,3.4l0.13,0.32c-0.69,0.73-1.32,1.53-1.87,2.38
		c-0.35,0.49-0.24,1.18,0.26,1.53c0.49,0.35,1.18,0.24,1.53-0.26l0.07-0.11c0.42-0.67,0.9-1.31,1.43-1.9h0.08
		c0.25-0.09,0.44-0.3,0.5-0.56l0.45-0.44c0.27,0.46,0.36,1,0.26,1.52c-0.13,0.59,0.24,1.18,0.83,1.31c0.32,0.07,0.65,0,0.91-0.2
		c0.85-0.71,1.57-1.58,2.12-2.55c0.29-0.47,0.61-0.93,0.95-1.36l0.53,2.25c0.14,0.59,0.73,0.95,1.32,0.81
		c0.16-0.04,0.32-0.11,0.45-0.22c0.9-0.81,1.63-1.79,2.17-2.88l0.37-0.63c0.43-0.96,1.22-1.71,2.19-2.1
		c0.59-0.14,0.96-0.73,0.82-1.32c-0.14-0.59-0.73-0.96-1.32-0.82c-0.88,0.24-1.67,0.72-2.29,1.39l-0.3-0.73
		c-0.33-0.96-0.78-2.24-1.19-3.57c-0.21-0.64-0.43-1.28-0.64-1.88c-0.21-0.59-0.42-1.19-0.6-1.63l-0.25-0.64
		c-0.04-0.14-0.1-0.27-0.18-0.39c-0.21-1.07-1.23-1.76-2.3-1.56l-0.36,0.11l-2.38,0.93l-4.06-10.3c1.87-1.99,3.85-4.14,5.56-6.13
		c0.18,0.58,0.8,0.9,1.37,0.71c0.12-0.04,0.23-0.09,0.33-0.17c1-0.67,2.04-1.3,3.09-1.88c-0.61,1.12-0.96,2.36-1.03,3.63
		c0,0.61,0.49,1.1,1.09,1.1c0.26,0,0.52-0.09,0.72-0.26c0.7-0.59,1.44-1.13,2.22-1.62c0.04,0.57,0.52,1.01,1.1,1.01
		c0.6,0,1.1-0.49,1.1-1.1v-1.79c0-0.6-0.5-1.09-1.1-1.09c-0.17,0-0.33,0.04-0.48,0.11c-0.54,0.27-1.06,0.56-1.57,0.87
		c0.47-0.91,0.81-1.87,1.01-2.87c0.11-0.59-0.28-1.17-0.87-1.28c-0.23-0.04-0.46-0.01-0.67,0.09c-1.31,0.61-2.59,1.28-3.83,2.02
		c0-0.17,0.06-0.32,0.09-0.49c0.59-0.76,1.11-1.45,1.48-2.04c0.32-0.51,0.17-1.19-0.34-1.51c-0.2-0.13-0.45-0.19-0.69-0.16
		l-2.99,0.29l11.8-10.25c3.79-3.29,8.13-5.19,11.91-5.2c3.12,0,6.56,2.48,9.6,4.67c0.94,0.68,1.86,1.33,2.74,1.92
		c-0.88,0.09-1.69,0.52-2.28,1.19C66.16,15,66.31,15.67,66.82,16h0.07c2.38,1.32,5.36,4.2,8.47,7.24c1.96,1.93,3.97,3.89,5.95,5.56
		h-0.2c-0.74-0.08-1.48,0.19-2,0.73c-0.3,0.39-0.4,0.89-0.27,1.37c0.28,0.67,0.73,1.26,1.3,1.7l-5.88-2.52
		c-0.56-0.24-1.2,0.01-1.44,0.57c-0.15,0.35-0.11,0.75,0.11,1.06c0.37,0.54,0.69,1.11,0.94,1.71c-0.28-0.24-0.53-0.49-0.78-0.76
		c-0.34-0.38-0.9-0.48-1.35-0.24c-0.7,0.42-1.09,1.2-1,2.01l-1.8-2.1c-0.39-0.46-1.09-0.51-1.55-0.12
		c-0.46,0.39-0.51,1.09-0.12,1.55l2.38,2.81c0.23,0.29,0.53,0.52,0.87,0.65c0.17,0.06,0.35,0.09,0.54,0.1c0.35,0,0.7-0.12,0.98-0.33
		c0.46-0.39,0.76-0.94,0.83-1.54c0.7,0.54,1.46,0.98,2.26,1.34c0.55,0.24,1.2,0,1.45-0.56c0.09-0.2,0.12-0.42,0.08-0.63
		c-0.11-0.81-0.3-1.61-0.57-2.38l5.45,2.38c0.44,0.19,0.96,0.07,1.27-0.3l2.46,2.38h-0.3c-0.5,0-1,0.03-1.5,0.09
		c-0.58,0.18-0.9,0.8-0.72,1.37c0.08,0.25,0.24,0.47,0.47,0.6c1.09,0.78,2.07,1.68,2.94,2.7l-1.46,0.29
		c-0.59,0.11-0.98,0.69-0.87,1.28c0.04,0.2,0.13,0.39,0.27,0.54c0.62,0.67,1.77,1.86,2.89,3l1.75,1.8l-2.16,0.86
		c-0.56,0.22-0.84,0.86-0.62,1.42c0.06,0.16,0.17,0.31,0.3,0.43c0.62,0.55,2.62,1.95,4.94,3.57c1.02,0.71,2.26,1.59,3.38,2.38
		c-0.97-0.27-1.97-0.45-2.98-0.54c-0.54-0.05-1.06,0.23-1.3,0.71c-0.26,0.46-0.2,1.03,0.17,1.42c1.73,2.04,5.31,5.95,7.95,8.69
		C97.52,67.9,96.52,67.41,95.58,66.96z M32.57,56.2l0.4,0.95c-0.22,0.3-0.4,0.61-0.6,0.89l-0.2,0.32c-0.31-0.63-0.76-1.18-1.33-1.59
		c-0.39-0.3-0.94-0.3-1.33,0l-0.58,0.49c-0.32-0.92-0.7-2.06-1.08-3.21c-0.21-0.64-0.43-1.29-0.64-1.88
		c-0.14-0.42-0.29-0.8-0.42-1.19l3.01-1.19l0.48,1.19c0.25,0.58,0.52,1.19,0.8,1.82C31.62,53.98,32.17,55.27,32.57,56.2z
		 M31.81,49.05v-0.11c0.01,0.03,0.02,0.06,0.03,0.09l2.98-1.18l0.48,1.19c0.25,0.58,0.53,1.19,0.8,1.82
		c0.56,1.19,1.12,2.48,1.52,3.4l0.48,1.19l0.18,0.44l-0.17,0.27l-0.39,0.68l-0.39,0.68l-0.39-1.67c-0.09-0.6-0.65-1.01-1.25-0.92
		c-0.03,0-0.06,0.01-0.09,0.02h-0.14c-0.48,0.19-0.93,0.47-1.32,0.81l-0.07-0.19c-0.33-0.96-0.78-2.24-1.19-3.57
		c-0.21-0.64-0.43-1.28-0.64-1.88c-0.13-0.37-0.26-0.73-0.38-1.1L31.81,49.05z"/>
	<path class="st4" d="M31.81,49.05l0.03-0.01c-0.01-0.03-0.02-0.06-0.03-0.09V49.05z"/>
</g>
</svg>
