<?xml version="1.0" encoding="utf-8"?>
<!-- Generator: Adobe Illustrator 28.1.0, SVG Export Plug-In . SVG Version: 6.00 Build 0)  -->
<svg version="1.1" id="Layer_1" xmlns="http://www.w3.org/2000/svg" xmlns:xlink="http://www.w3.org/1999/xlink" x="0px" y="0px"
	 viewBox="0 0 110.55 76.54" style="enable-background:new 0 0 110.55 76.54;" xml:space="preserve">
<style type="text/css">
	.st0{display:none;}
	.st1{display:inline;fill:none;}
</style>
<g id="Layer_2_00000073722119373351752270000017113015111246931634_" class="st0">
	<line class="st1" x1="-24.13" y1="74.54" x2="142.13" y2="74.54"/>
	<line class="st1" x1="-24.13" y1="2" x2="142.13" y2="2"/>
</g>
<g>
	<circle cx="43.19" cy="30.36" r="10.47"/>
	<path d="M91.37,18.37L70.35,8.5V5.47c0-1.37-1.14-2.5-2.5-2.5s-2.5,1.14-2.5,2.5V52.9h-3.87c0,0-9.03-7.28-9.87-7.89
		c-0.83-0.61-2.28-1.29-3.79-1.29h-9.11c-3.26,0-5.92,2.66-5.92,5.92v22.99c0,1.29,1.06,2.35,2.35,2.35h16.16
		c1.29,0,2.35-1.06,2.35-2.35l-0.08-13.81l3.04,2.43c0.83,0.68,1.9,1.06,2.96,1.06h5.62V72.4c0,1.37,1.14,2.5,2.5,2.5
		c1.44,0,2.5-1.14,2.5-2.5V62.3h0.38c2.5,0,4.78-1.9,4.93-4.48c0.15-2.81-2.05-5.08-4.78-5.08H70.2V32.86L91.37,23
		c0.91-0.46,1.44-1.29,1.44-2.28C92.82,19.66,92.21,18.82,91.37,18.37z"/>
</g>
</svg>
