<?xml version="1.0" encoding="utf-8"?>
<!-- Generator: Adobe Illustrator 28.1.0, SVG Export Plug-In . SVG Version: 6.00 Build 0)  -->
<svg version="1.1" id="Layer_1" xmlns="http://www.w3.org/2000/svg" xmlns:xlink="http://www.w3.org/1999/xlink" x="0px" y="0px"
	 viewBox="0 0 110.55 76.54" style="enable-background:new 0 0 110.55 76.54;" xml:space="preserve">
<style type="text/css">
	.st0{display:none;}
	.st1{display:inline;fill:none;}
</style>
<g id="Layer_2_00000073722119373351752270000017113015111246931634_" class="st0">
	<line class="st1" x1="-24.13" y1="74.54" x2="142.13" y2="74.54"/>
	<line class="st1" x1="-24.13" y1="2" x2="142.13" y2="2"/>
</g>
<g>
	<g>
		<g>
			<g>
				<path d="M85.98,72.25H22.54c-0.29,0-0.52-0.23-0.52-0.52v-7.28c0-4.46,2.31-6.17,6.58-7.77c4.49-1.68,8.06-3.23,10.33-4.49
					c0.25-0.14,0.57-0.05,0.71,0.2c0.14,0.25,0.05,0.57-0.2,0.71c-2.31,1.28-5.93,2.86-10.47,4.55c-4,1.49-5.9,2.89-5.9,6.79v6.76
					h62.4v-6.76c0-3.9-1.9-5.3-5.9-6.79c-4.62-1.73-8.14-3.26-10.47-4.55c-0.25-0.14-0.34-0.46-0.2-0.71
					c0.14-0.25,0.46-0.34,0.71-0.2c2.29,1.27,5.76,2.78,10.33,4.49c4.27,1.59,6.58,3.3,6.58,7.77v7.28
					C86.5,72.02,86.27,72.25,85.98,72.25z"/>
			</g>
		</g>
		<g>
			<g>
				<path d="M54.26,53.53c-7.22,0-18.72-10.23-18.72-22.36c0-0.29,0.23-0.52,0.52-0.52c0.29,0,0.52,0.23,0.52,0.52
					c0,11.56,10.86,21.32,17.68,21.32c6.82,0,17.68-9.76,17.68-21.32c0-0.29,0.23-0.52,0.52-0.52c0.29,0,0.52,0.23,0.52,0.52
					C72.98,43.3,61.48,53.53,54.26,53.53z"/>
			</g>
		</g>
		<g>
			<g>
				<path d="M54.29,57.69c-0.29,0-0.53-0.23-0.53-0.52c0-0.29,0.23-0.52,0.51-0.52h0.01c0.29,0,0.52,0.23,0.52,0.52
					C54.81,57.46,54.58,57.69,54.29,57.69z"/>
			</g>
		</g>
		<g>
			<g>
				<path d="M54.29,61.85c-0.29,0-0.53-0.23-0.53-0.52c0-0.29,0.23-0.52,0.51-0.52h0.01c0.29,0,0.52,0.23,0.52,0.52
					C54.81,61.62,54.58,61.85,54.29,61.85z"/>
			</g>
		</g>
		<g>
			<g>
				<path d="M54.29,66.01c-0.29,0-0.53-0.23-0.53-0.52c0-0.29,0.23-0.52,0.51-0.52h0.01c0.29,0,0.52,0.23,0.52,0.52
					C54.81,65.78,54.58,66.01,54.29,66.01z"/>
			</g>
		</g>
		<g>
			<g>
				<path d="M54.29,70.17c-0.29,0-0.53-0.23-0.53-0.52c0-0.29,0.23-0.52,0.51-0.52h0.01c0.29,0,0.52,0.23,0.52,0.52
					C54.81,69.94,54.58,70.17,54.29,70.17z"/>
			</g>
		</g>
		<g>
			<g>
				<g>
					<path d="M67.26,51.45c-0.29,0-0.52-0.23-0.52-0.52v-2.08c0-0.29,0.23-0.52,0.52-0.52s0.52,0.23,0.52,0.52v2.08
						C67.78,51.22,67.55,51.45,67.26,51.45z"/>
				</g>
			</g>
			<g>
				<g>
					<path d="M62.06,58.73c-0.11,0-0.21-0.03-0.3-0.1c-0.23-0.17-0.29-0.49-0.12-0.73l5.2-7.28c0.17-0.23,0.49-0.29,0.73-0.12
						c0.23,0.17,0.29,0.49,0.12,0.73l-5.2,7.28C62.38,58.66,62.22,58.73,62.06,58.73z"/>
				</g>
			</g>
			<g>
				<g>
					<path d="M62.06,58.73c-0.08,0-0.16-0.02-0.23-0.05l-6.24-3.12c-0.26-0.13-0.36-0.44-0.23-0.7c0.13-0.26,0.44-0.36,0.7-0.23
						l6.24,3.12c0.26,0.13,0.36,0.44,0.23,0.7C62.43,58.62,62.25,58.73,62.06,58.73z"/>
				</g>
			</g>
		</g>
		<g>
			<g>
				<g>
					<path d="M41.26,51.45c-0.29,0-0.52-0.23-0.52-0.52v-2.08c0-0.29,0.23-0.52,0.52-0.52c0.29,0,0.52,0.23,0.52,0.52v2.08
						C41.78,51.22,41.55,51.45,41.26,51.45z"/>
				</g>
			</g>
			<g>
				<g>
					<path d="M46.46,58.73c-0.16,0-0.32-0.08-0.42-0.22l-5.2-7.28c-0.17-0.23-0.11-0.56,0.12-0.73c0.23-0.17,0.56-0.11,0.73,0.12
						l5.2,7.28c0.17,0.23,0.11,0.56-0.12,0.73C46.67,58.7,46.57,58.73,46.46,58.73z"/>
				</g>
			</g>
			<g>
				<g>
					<path d="M46.46,58.73c-0.19,0-0.37-0.11-0.47-0.29c-0.13-0.26-0.02-0.57,0.23-0.7l6.24-3.12c0.26-0.13,0.57-0.02,0.7,0.23
						c0.13,0.26,0.02,0.57-0.23,0.7l-6.24,3.12C46.62,58.71,46.54,58.73,46.46,58.73z"/>
				</g>
			</g>
		</g>
		<g>
			<g>
				<path d="M36.06,29.61c-0.04,0-0.07,0-0.11-0.01c-0.22-0.05-0.38-0.23-0.41-0.46c-0.65-6.97,0.84-12.5,4.44-16.45
					c5.27-5.78,13.9-7,20.22-7c3.69,0,6.43,0.43,6.73,0.47c0.23,0.04,0.41,0.22,0.43,0.45c0.03,0.23-0.1,0.45-0.32,0.54
					c-3.72,1.53-3.12,5.23-2.81,6.44c0.1,0,0.23-0.01,0.36-0.01c1.48,0,4.26,0.36,6.33,2.77c2.27,2.65,2.95,6.96,2.04,12.81
					c-0.03,0.22-0.2,0.39-0.41,0.43c-0.22,0.05-0.43-0.05-0.55-0.24l-4.34-7.1c-1.65,0.64-7.81,2.86-13.56,2.86
					c-5.74,0-11.83-2.21-13.48-2.86l-4.13,7.08C36.42,29.51,36.24,29.61,36.06,29.61z M67.89,21.1c0.18,0,0.35,0.09,0.44,0.25
					l3.81,6.22c0.55-4.8-0.12-8.34-2-10.54c-1.79-2.09-4.24-2.41-5.54-2.41c-0.4,0-0.65,0.03-0.67,0.03
					c-0.24,0.03-0.48-0.11-0.56-0.34c-0.02-0.05-1.6-4.78,1.85-7.33c-1.18-0.13-2.94-0.26-5.02-0.26c-6.11,0-14.44,1.15-19.45,6.66
					c-3.1,3.41-4.54,8.1-4.29,13.98l3.5-6.01c0.13-0.23,0.41-0.32,0.65-0.22c0.07,0.03,7.14,2.95,13.5,2.95
					c6.37,0,13.51-2.92,13.58-2.95C67.76,21.11,67.83,21.1,67.89,21.1z"/>
			</g>
		</g>
		<g>
			<g>
				<path d="M55.82,72.25c-0.29,0-0.52-0.23-0.52-0.52V57.17c0-0.29,0.23-0.52,0.52-0.52c0.29,0,0.52,0.23,0.52,0.52v14.56
					C56.34,72.02,56.11,72.25,55.82,72.25z"/>
			</g>
		</g>
		<g>
			<g>
				<path d="M52.7,72.25c-0.29,0-0.52-0.23-0.52-0.52V57.17c0-0.29,0.23-0.52,0.52-0.52s0.52,0.23,0.52,0.52v14.56
					C53.22,72.02,52.99,72.25,52.7,72.25z"/>
			</g>
		</g>
		<g>
			<g>
				<path d="M74.54,68.09h-10.4c-0.29,0-0.52-0.23-0.52-0.52c0-0.29,0.23-0.52,0.52-0.52h10.4c0.29,0,0.52,0.23,0.52,0.52
					C75.06,67.86,74.83,68.09,74.54,68.09z"/>
			</g>
		</g>
		<g>
			<g>
				<path d="M64.14,70.17c-0.29,0-0.52-0.23-0.52-0.52v-2.08c0-0.29,0.23-0.52,0.52-0.52c0.29,0,0.52,0.23,0.52,0.52v2.08
					C64.66,69.94,64.43,70.17,64.14,70.17z"/>
			</g>
		</g>
		<g>
			<g>
				<path d="M74.54,70.17c-0.29,0-0.52-0.23-0.52-0.52v-2.08c0-0.29,0.23-0.52,0.52-0.52c0.29,0,0.52,0.23,0.52,0.52v2.08
					C75.06,69.94,74.83,70.17,74.54,70.17z"/>
			</g>
		</g>
		<g>
			<g>
				<path d="M65.18,67.05c-0.13,0-0.27-0.05-0.37-0.15c-0.2-0.2-0.2-0.53,0-0.74l3.12-3.12c0.2-0.2,0.53-0.2,0.74,0
					c0.2,0.2,0.2,0.53,0,0.74l-3.12,3.12C65.45,67,65.31,67.05,65.18,67.05z"/>
			</g>
		</g>
		<g>
			<g>
				<path d="M71.42,67.05c-0.13,0-0.27-0.05-0.37-0.15l-3.12-3.12c-0.2-0.2-0.2-0.53,0-0.74c0.2-0.2,0.53-0.2,0.74,0l3.12,3.12
					c0.2,0.2,0.2,0.53,0,0.74C71.69,67,71.55,67.05,71.42,67.05z"/>
			</g>
		</g>
		<g>
			<g>
				<path d="M73.5,67.05c-0.13,0-0.27-0.05-0.37-0.15l-3.12-3.12c-0.2-0.2-0.2-0.53,0-0.74c0.2-0.2,0.53-0.2,0.74,0l3.12,3.12
					c0.2,0.2,0.2,0.53,0,0.74C73.77,67,73.63,67.05,73.5,67.05z"/>
			</g>
		</g>
	</g>
</g>
<path d="M42.47,53.26"/>
</svg>
