<?xml version="1.0" encoding="utf-8"?>
<!-- Generator: Adobe Illustrator 28.1.0, SVG Export Plug-In . SVG Version: 6.00 Build 0)  -->
<svg version="1.1" id="Layer_1" xmlns="http://www.w3.org/2000/svg" xmlns:xlink="http://www.w3.org/1999/xlink" x="0px" y="0px"
	 viewBox="0 0 110.55 76.54" style="enable-background:new 0 0 110.55 76.54;" xml:space="preserve">
<style type="text/css">
	.st0{display:none;}
	.st1{display:inline;fill:none;}
	.st2{fill-rule:evenodd;clip-rule:evenodd;}
</style>
<g id="Layer_2_00000073722119373351752270000017113015111246931634_" class="st0">
	<line class="st1" x1="-24.13" y1="74.54" x2="142.13" y2="74.54"/>
	<line class="st1" x1="-24.13" y1="2" x2="142.13" y2="2"/>
</g>
<g>
	<path d="M93.6,9.26c0.85,0.28,1.43,1.07,1.42,1.95c0.04,5.23-3.29,9.89-8.3,11.64c-0.38,0.13-0.76,0.24-1.15,0.33
		c0.26,1.48,0.14,3.4-0.53,5.89c-0.25,0.94-0.69,1.75-1.91,2.04c-3.55,0.84-8.72-0.55-11.66-3.12c-0.94-0.83-0.89-1.78-0.64-2.73
		c0.67-2.52,1.54-4.24,2.52-5.4c-0.26-0.26-0.52-0.52-0.76-0.8c-3.46-4.01-4.02-9.72-1.37-14.23c0.56-0.98,1.82-1.32,2.82-0.74
		c0.99,0.57,1.32,1.83,0.73,2.79c-1.79,3.05-1.42,6.86,0.93,9.6c2.36,2.74,6.19,3.76,9.6,2.57c3.41-1.18,5.64-4.31,5.62-7.84
		C90.89,9.82,92.25,8.83,93.6,9.26z"/>
	<path d="M14.95,9.26c-0.86,0.28-1.44,1.07-1.43,1.95c-0.04,5.23,3.29,9.89,8.3,11.64c0.38,0.13,0.76,0.24,1.15,0.33
		c-0.26,1.48-0.15,3.4,0.52,5.89c0.26,0.94,0.69,1.75,1.92,2.04c3.54,0.84,8.72-0.55,11.66-3.12c0.94-0.83,0.89-1.78,0.64-2.73
		c-0.68-2.52-1.54-4.24-2.52-5.4c0.26-0.26,0.52-0.52,0.76-0.8c3.47-4.01,4.02-9.72,1.37-14.23c-0.55-0.98-1.82-1.32-2.82-0.74
		c-0.99,0.57-1.32,1.83-0.73,2.79c1.79,3.05,1.42,6.86-0.93,9.6c-2.36,2.74-6.19,3.76-9.6,2.57c-3.41-1.18-5.64-4.31-5.61-7.84
		C17.66,9.82,16.29,8.83,14.95,9.26z"/>
	<path d="M43.82,11.22c-0.89,0.05-1.66,0.66-1.88,1.52c-1.39,5.04,0.62,10.4,5.01,13.39c0.33,0.22,0.68,0.43,1.03,0.62
		c-0.64,1.36-1.02,3.24-1.02,5.83c0,0.97,0.21,1.87,1.32,2.46c3.21,1.72,8.57,1.72,12.07,0c1.12-0.55,1.32-1.49,1.32-2.46
		c0-2.61-0.38-4.5-1.03-5.87c0.31-0.18,0.63-0.37,0.93-0.58c4.39-2.98,6.4-8.35,5.01-13.39c-0.28-1.09-1.42-1.75-2.53-1.45
		c-1.11,0.3-1.76,1.43-1.44,2.51c0.94,3.4-0.4,6.99-3.39,9.03c-2.98,2.03-6.95,2.03-9.94,0c-2.99-2.03-4.33-5.63-3.39-9.03
		C46.29,12.47,45.23,11.15,43.82,11.22z"/>
	<path d="M41.58,42.79c-1.1,0.06-2.02,0.81-2.29,1.87c-1.69,6.24,0.76,12.9,6.09,16.6c0.4,0.28,0.82,0.53,1.24,0.77
		c-0.77,1.69-1.24,4.02-1.24,7.22c0,1.21,0.26,2.31,1.61,3.05c3.9,2.14,10.42,2.14,14.67,0c1.37-0.69,1.6-1.84,1.6-3.05
		c0-3.23-0.47-5.58-1.26-7.27c0.38-0.23,0.77-0.46,1.14-0.72c5.33-3.7,7.77-10.35,6.08-16.6c-0.34-1.35-1.72-2.17-3.07-1.8
		s-2.13,1.76-1.74,3.11c1.14,4.22-0.49,8.67-4.11,11.19c-3.63,2.52-8.46,2.52-12.08,0c-3.63-2.52-5.27-6.97-4.12-11.19
		C44.57,44.32,43.28,42.7,41.58,42.79z"/>
	<path class="st2" d="M14.44,37.84c-1.4,0.07-2.34,0.81-2.61,1.85c-1.44,5.19,0.1,10.75,4.03,14.54c1,0.96,2.11,1.78,3.31,2.44
		c-0.77,1.65-1.24,3.92-1.23,7.04c0,1.19,0.25,2.26,1.6,2.99c3.9,2.09,10.43,2.09,14.69,0c1.37-0.67,1.6-1.8,1.6-2.99
		c0-5.05-1.21-7.89-2.99-9.43c-1.19-1.04-1.98-1.19-3.29-0.88c-3.67,0.85-7.52-0.06-10.19-2.63c-2.66-2.57-3.69-6.29-2.72-9.8
		C17.13,39.36,15.84,37.78,14.44,37.84z"/>
	<path class="st2" d="M94.09,37.84c1.4,0.07,2.33,0.81,2.6,1.85c1.44,5.19-0.1,10.75-4.02,14.54c-1,0.96-2.12,1.78-3.32,2.44
		c0.77,1.65,1.24,3.92,1.24,7.04c0,1.19-0.26,2.26-1.61,2.99c-3.9,2.09-10.43,2.09-14.68,0c-1.37-0.67-1.6-1.8-1.61-2.99
		c0-5.05,1.21-7.89,2.98-9.43c1.2-1.04,1.98-1.19,3.3-0.88c3.67,0.85,7.52-0.06,10.18-2.63c2.66-2.57,3.69-6.29,2.72-9.8
		C91.4,39.36,92.68,37.78,94.09,37.84z"/>
	<path d="M50.21,50.38h7.99c0,2.27-1.78,4-3.99,4C51.99,54.38,50.21,52.66,50.21,50.38z M54.2,41.52c-4.31,0-7.79,3.36-7.79,7.79
		c0,4.43,3.48,7.79,7.79,7.79s7.79-3.36,7.79-7.79C61.99,44.89,58.52,41.52,54.2,41.52z"/>
	<path d="M23,44.74h7.99c0,2.27-1.78,4-4,4C24.78,48.74,23,47.02,23,44.74z M26.99,35.89c-4.31,0-7.79,3.36-7.79,7.79
		c0,4.43,3.47,7.79,7.79,7.79c4.32,0,7.79-3.36,7.79-7.79S31.31,35.89,26.99,35.89z"/>
	<path d="M77.53,44.74h8c0,2.27-1.78,4-4,4C79.32,48.74,77.53,47.02,77.53,44.74z M81.53,35.89c-4.31,0-7.79,3.36-7.79,7.79
		c0,4.43,3.47,7.79,7.79,7.79c4.31,0,7.79-3.36,7.79-7.79S85.84,35.89,81.53,35.89z"/>
	<path d="M51.17,17.28h6.07c0,1.72-1.35,3.03-3.03,3.03C52.52,20.31,51.17,19,51.17,17.28z M54.26,9.8c-3.54,0-6.38,2.76-6.38,6.38
		c0,3.63,2.85,6.38,6.38,6.38c3.53,0,6.38-2.75,6.38-6.38C60.64,12.56,57.8,9.8,54.26,9.8z"/>
	<path d="M29.4,11.62c0.45,1.67-0.52,3.28-2.14,3.72c-1.63,0.44-3.27-0.48-3.72-2.15L29.4,11.62z M26.51,4.95
		C25.88,4.93,25.23,5,24.59,5.17c-3.41,0.92-5.45,4.32-4.51,7.82c0.94,3.5,4.4,5.42,7.81,4.51c3.41-0.92,5.45-4.31,4.51-7.81
		C31.64,6.84,29.22,5.03,26.51,4.95z"/>
	<path d="M79.12,11.62l5.87,1.57c-0.45,1.67-2.1,2.58-3.72,2.15C79.65,14.9,78.68,13.29,79.12,11.62z M82.02,4.95
		c-2.72,0.08-5.14,1.89-5.91,4.74c-0.94,3.51,1.09,6.9,4.51,7.81c3.41,0.91,6.88-1.01,7.82-4.51c0.94-3.51-1.1-6.9-4.52-7.82
		C83.29,5,82.65,4.93,82.02,4.95z"/>
</g>
</svg>
