<?xml version="1.0" encoding="utf-8"?>
<!-- Generator: Adobe Illustrator 28.1.0, SVG Export Plug-In . SVG Version: 6.00 Build 0)  -->
<svg version="1.1" id="Layer_1" xmlns="http://www.w3.org/2000/svg" xmlns:xlink="http://www.w3.org/1999/xlink" x="0px" y="0px"
	 viewBox="0 0 110.55 76.54" style="enable-background:new 0 0 110.55 76.54;" xml:space="preserve">
<style type="text/css">
	.st0{display:none;}
	.st1{display:inline;fill:none;}
	.st2{fill:none;}
	.st3{fill:#FFFFFF;}
</style>
<g id="Layer_2_00000073722119373351752270000017113015111246931634_" class="st0">
	<line class="st1" x1="-24.13" y1="74.54" x2="142.13" y2="74.54"/>
	<line class="st1" x1="-24.13" y1="2" x2="142.13" y2="2"/>
</g>
<g>
	<path class="st2" d="M-5240.72,925.05c-1.72,0-3.37,0.3-4.92,0.82l3.29,12.07l2.3,1.28c0.66,0.37,0.9,1.2,0.53,1.86
		c-0.25,0.45-0.71,0.7-1.19,0.7c-0.23,0-0.46-0.06-0.67-0.17l-2.8-1.56c-0.02-0.01-0.04-0.04-0.06-0.05
		c-0.1-0.06-0.19-0.14-0.27-0.23c-0.03-0.04-0.07-0.07-0.1-0.11c-0.08-0.11-0.14-0.24-0.19-0.38c0-0.02-0.02-0.04-0.03-0.06
		c0,0,0,0,0-0.01l-3.34-12.23c-4.72,2.63-7.92,7.66-7.92,13.44c0,8.48,6.9,15.37,15.37,15.37s15.37-6.9,15.37-15.37
		C-5225.34,931.95-5232.24,925.05-5240.72,925.05z"/>
	<path d="M-5339.6,903.64c-6.21,0-11.27,5.06-11.27,11.27v6.37c0,1.15,0.92,2.07,2.07,2.07c1.15,0,2.07-0.92,2.07-2.07v-6.37
		c0-1.53,0.54-2.99,1.3-4.14v33.36c0,1.38,1.15,2.53,2.53,2.53s2.53-1.15,2.53-2.53v-19.25h1.46v19.25c0,1.38,1.15,2.53,2.53,2.53
		s2.53-1.15,2.53-2.53v-33.36c0.84,1.15,1.3,2.61,1.3,4.14v6.37c0,1.15,0.92,2.07,2.07,2.07c1.15,0,2.07-0.92,2.07-2.07v-6.37
		C-5328.32,908.71-5333.39,903.64-5339.6,903.64z"/>
	<path d="M-5339.6,902.19c3.13,0,5.67-2.54,5.67-5.68c0-3.13-2.54-5.67-5.67-5.67c-3.13,0-5.68,2.54-5.68,5.67
		C-5345.27,899.65-5342.73,902.19-5339.6,902.19z"/>
	<path d="M-5307.39,914.92v5.83c1.33-0.33,2.72-0.53,4.14-0.58v-5.25c0.08-6.21-4.98-11.27-11.2-11.27
		c-6.21,0-11.27,5.06-11.27,11.27v6.37c0,1.15,0.92,2.07,2.07,2.07s2.07-0.92,2.07-2.07v-6.37c0-1.53,0.54-2.99,1.3-4.14v19.92
		c2.48-4.51,6.61-7.97,11.58-9.57v-10.34C-5307.85,911.93-5307.39,913.38-5307.39,914.92z"/>
	<path d="M-5314.44,902.19c3.13,0,5.67-2.54,5.67-5.68c0-3.13-2.54-5.67-5.67-5.67s-5.68,2.54-5.68,5.67
		C-5320.12,899.65-5317.58,902.19-5314.44,902.19z"/>
	<path class="st3" d="M-5320.27,944.14c0,0.49,0.15,0.96,0.4,1.35c-0.16-0.55-0.3-1.11-0.4-1.68V944.14z"/>
	<polygon class="st3" points="-5279.08,928.41 -5278.35,930.11 -5278.35,930.11 -5279.08,928.4 	"/>
	<path d="M-5313.75,933.59v10.55c0,1.38,1.15,2.53,2.53,2.53s2.53-1.15,2.53-2.53v-15.35
		C-5310.78,929.9-5312.52,931.57-5313.75,933.59z"/>
	<path class="st3" d="M-5303.56,941.23c-0.04-0.06-0.08-0.11-0.12-0.17c-0.03-0.06-0.06-0.13-0.08-0.19l-0.25,0.37H-5303.56z"/>
	<path d="M-5240.72,922.32c-1.97,0-3.86,0.33-5.64,0.91l-5.1-18.71l10.75-0.01c1.88,0,3.42,1.53,3.42,3.42
		c0,1.88-1.53,3.42-3.42,3.42c-0.76,0-1.37,0.61-1.37,1.37s0.61,1.37,1.37,1.37c3.39,0,6.15-2.76,6.15-6.15
		c0-3.39-2.76-6.15-6.15-6.15l-12.54,0.01c-0.06,0-0.12,0.03-0.18,0.04c-0.06,0.01-0.12,0-0.18,0.01c-0.03,0.01-0.05,0.03-0.08,0.04
		c-0.09,0.03-0.17,0.08-0.25,0.13c-0.07,0.04-0.14,0.08-0.21,0.14c-0.06,0.06-0.11,0.13-0.17,0.2c-0.05,0.07-0.11,0.14-0.14,0.22
		c-0.04,0.08-0.06,0.15-0.08,0.24c-0.03,0.09-0.05,0.18-0.06,0.28c0,0.03-0.02,0.06-0.02,0.09c0,0.06,0.03,0.12,0.04,0.18
		c0.01,0.06-0.01,0.12,0.01,0.18l2.93,10.74h-6.06c-0.17,0.95-0.43,1.86-0.76,2.73h5.31l-14.11,14.11c-0.21,0.88-0.3,1.77-0.24,2.72
		l0.05,1.34l16.9-16.9l1.64,6.04c-5.88,3-9.92,9.09-9.92,16.13c0,9.98,8.12,18.11,18.11,18.11c9.99,0,18.11-8.12,18.11-18.11
		C-5222.61,930.44-5230.73,922.32-5240.72,922.32z M-5240.72,955.8c-8.48,0-15.37-6.9-15.37-15.37c0-5.77,3.2-10.81,7.92-13.44
		l3.34,12.23c0,0,0,0,0,0.01c0.01,0.02,0.02,0.04,0.03,0.06c0.05,0.14,0.11,0.26,0.19,0.38c0.03,0.04,0.07,0.07,0.1,0.11
		c0.08,0.09,0.17,0.17,0.27,0.23c0.02,0.02,0.03,0.04,0.06,0.05l2.8,1.56c0.21,0.12,0.44,0.17,0.67,0.17c0.48,0,0.94-0.25,1.19-0.7
		c0.37-0.66,0.13-1.49-0.53-1.86l-2.3-1.28l-3.29-12.07c1.55-0.52,3.2-0.82,4.92-0.82c8.48,0,15.37,6.9,15.37,15.37
		C-5225.34,948.9-5232.24,955.8-5240.72,955.8z"/>
	<path d="M-5278.84,927.54l-4.55-10.55h11.13c0.75-1.05,1.25-1.93,1.56-2.73h-13.87l-3.56-8.26c1-0.09,1.98-0.18,2.84-0.26
		l-1.14-2.99l0.41-0.3l-9.11-0.82c-3.6-0.19-3.59,5.18,0,4.99c0,0,1.85-0.17,4.14-0.37l3.87,8.97l-6.4,9.48
		c-2.65-1.51-5.7-2.39-8.96-2.39c-0.36,0-0.71,0.01-1.07,0.03c-1.08,0.06-2.13,0.22-3.15,0.47c-0.68,0.16-1.35,0.36-1.99,0.6
		c-1.85,0.68-3.55,1.65-5.06,2.85c-0.51,0.41-1,0.84-1.46,1.29c-2.56,2.53-4.37,5.82-5.06,9.49c-0.21,1.09-0.32,2.22-0.32,3.37
		s0.11,2.28,0.32,3.37c0.11,0.57,0.24,1.13,0.4,1.68c2.19,7.53,9.15,13.05,17.38,13.05c9.52,0,17.33-7.39,18.04-16.74h2.55
		c0.22,0.85,0.59,1.64,1.08,2.35c0.23-1.26,0.74-2.39,1.47-3.33c-0.05-0.27-0.09-0.56-0.09-0.85c0-0.48,0.07-0.95,0.21-1.39
		l-0.08-1.09l-0.03-0.42l-0.21-2.68c-0.85,0.72-1.52,1.63-1.96,2.67c-0.27,0.63-0.46,1.3-0.55,2.01h-2.38
		c-0.39-5.18-2.96-9.76-6.81-12.82l5.42-8.03l4.03,9.35l2.16,5.01c0-1.39,0.2-2.79,0.56-4.18c0,0,0,0,0,0
		C-5279.01,928.12-5278.93,927.83-5278.84,927.54z M-5302.48,955.8c-6.36,0-11.83-3.88-14.16-9.4c-0.78-1.84-1.21-3.86-1.21-5.98
		c0-3.19,0.98-6.16,2.65-8.61c0.44-0.64,0.93-1.24,1.46-1.81c1.42-1.53,3.13-2.77,5.06-3.63c1.9-0.84,4-1.32,6.21-1.32
		c2.69,0,5.23,0.7,7.43,1.93l-8.56,12.68c-0.02,0.04-0.03,0.08-0.05,0.12c-0.04,0.08-0.08,0.17-0.11,0.26
		c-0.03,0.09-0.04,0.17-0.05,0.27c0,0.04-0.03,0.08-0.03,0.13c0,0.04,0.02,0.08,0.03,0.13c0.01,0.09,0.03,0.18,0.05,0.27
		c0,0.02,0.01,0.03,0.02,0.04c0.02,0.07,0.04,0.13,0.08,0.19c0.03,0.06,0.07,0.12,0.12,0.17c0.01,0.01,0.01,0.02,0.02,0.04
		c0.06,0.08,0.12,0.14,0.2,0.2c0.03,0.03,0.05,0.07,0.09,0.09c0.05,0.03,0.1,0.05,0.15,0.07c0.05,0.02,0.09,0.05,0.14,0.06
		c0.15,0.06,0.31,0.1,0.47,0.1h15.3C-5287.88,949.63-5294.47,955.8-5302.48,955.8z M-5299.91,939.06l7.12-10.55
		c3.13,2.55,5.23,6.3,5.61,10.55H-5299.91z"/>
	<path d="M-5262.02,917c0.42-0.88,0.76-1.78,0.98-2.73c0.21-0.89,0.33-1.82,0.33-2.81c0-5.34-3.65-10.33-11.74-10.33
		c-3.24,0-6.7,0.85-9.07,2.19c-0.35,0.2-0.68,0.41-0.98,0.62l0.54,1.42l1.14,3.01c1.76-1.34,4.57-2.18,7.1-2.18
		c4.43,0.07,6.68,2.46,6.68,6.05c0,0.69-0.1,1.37-0.26,2.03c-0.22,0.91-0.59,1.81-1.11,2.73c-0.83,1.5-2.02,3.07-3.55,4.86
		c-1.52,1.83-2.62,3.64-3.35,5.42c-0.37,0.91-0.64,1.81-0.82,2.7c-0.19,0.96-0.28,1.91-0.27,2.83c0.01,0.4,0.03,0.81,0.07,1.2
		l0.12,1.52l0.02,0.31h3.5h1.98l-0.07-1.83c0-0.05,0-0.1-0.01-0.15c-0.06-1.34,0.06-2.61,0.41-3.87c0.25-0.9,0.61-1.8,1.1-2.71
		c0.62-1.16,1.45-2.35,2.5-3.6C-5264.82,921.39-5263.12,919.28-5262.02,917z"/>
	<path d="M-5270.77,942.26c-0.71-0.63-1.63-1-2.73-1c-0.09,0-0.17,0.02-0.25,0.02c-1.37,0.07-2.51,0.72-3.2,1.76
		c-0.16,0.24-0.3,0.49-0.41,0.77c-0.23,0.56-0.35,1.19-0.35,1.87c0,2.46,1.69,4.36,4.15,4.36c0.48,0,0.93-0.07,1.34-0.19
		c1.8-0.54,2.87-2.17,2.87-4.17c0-0.25-0.03-0.49-0.06-0.72C-5269.56,943.84-5270.04,942.91-5270.77,942.26z"/>
</g>
<g>
	<g>
		<path d="M22.25,69.61c-0.26,0-0.5-0.16-0.6-0.4c-0.1-0.25-0.05-0.52,0.14-0.71c0.4-0.4,0.59-0.8,0.59-1.22
			c-0.01-0.73-0.59-1.31-0.62-1.34c-0.15-0.14-0.22-0.34-0.2-0.54l1.11-10.48c0.03-0.25,0.18-0.46,0.42-0.55
			c0.08-0.03,0.93-0.41,1.62-1.78c0.67-1.36,1.28-3.96,0.34-8.63c-0.45-2.28-0.5-4.41-0.14-6.35c0.3-1.57,0.86-3.01,1.67-4.28
			c1.28-2.01,2.78-2.96,3.07-3.14c0.25-0.18,1.52-1.1,3.77-1.86c1.43-0.48,2.98-0.81,4.58-0.96c2-0.19,4.12-0.13,6.28,0.2
			c0.36,0.05,0.6,0.39,0.55,0.74c-0.05,0.35-0.39,0.6-0.74,0.55c-4.62-0.7-8.09-0.01-10.19,0.69c-2.28,0.76-3.48,1.69-3.49,1.7
			c-0.03,0.02-0.05,0.04-0.09,0.06c-0.01,0.01-1.47,0.85-2.69,2.78c-1.63,2.59-2.07,5.83-1.31,9.61c1.69,8.43-1.29,11.04-2.4,11.7
			l-1.04,9.84c0.3,0.36,0.78,1.09,0.8,2c0,0.36-0.06,0.71-0.2,1.05l1.61-0.01l0.19-2.15c0.07-2.91,0.63-5.46,1.09-7.08
			c0.5-1.77,0.99-2.84,1.01-2.89c0.04-0.09,0.09-0.16,0.16-0.22c5.35-4.68,8.21-8.74,9.67-11.33c1.58-2.79,1.89-4.5,1.89-4.52
			c0.06-0.35,0.4-0.59,0.75-0.53c0.35,0.06,0.59,0.4,0.53,0.75c-0.01,0.07-0.34,1.89-2,4.85c-0.96,1.72-2.18,3.48-3.62,5.24
			c-1.77,2.16-3.87,4.32-6.27,6.42c-0.14,0.32-0.51,1.26-0.9,2.61c-0.44,1.55-0.97,3.97-1.03,6.74c0,0.02,0,0.03,0,0.04l-0.24,2.76
			c-0.03,0.34-0.31,0.59-0.64,0.59L22.25,69.61C22.25,69.61,22.25,69.61,22.25,69.61z M23.09,54.37L23.09,54.37L23.09,54.37z"/>
		<path d="M54.93,30.04c-2.56,0-5.39-0.38-8.68-0.87c-0.36-0.05-0.6-0.39-0.55-0.74c0.05-0.36,0.39-0.6,0.74-0.55
			c8.96,1.33,12.61,1.47,18.43-2.13c0.31-0.19,0.71-0.09,0.9,0.21c0.19,0.31,0.09,0.71-0.21,0.9c-3.11,1.92-5.73,2.85-8.77,3.11
			C56.18,30.02,55.56,30.04,54.93,30.04z"/>
		<path d="M65.1,33.47c-0.02,0-0.04,0-0.07,0c-0.27-0.03-0.5-0.23-0.57-0.49c-0.41-1.65-0.42-3.45-0.03-5.34
			c0.34-1.66,0.99-3.4,1.93-5.16c1.58-2.95,3.95-5.92,6.51-8.15c0.27-0.24,0.68-0.21,0.92,0.07c0.24,0.27,0.21,0.68-0.07,0.92
			c-2.45,2.13-4.71,4.96-6.22,7.78c-1.04,1.95-2.12,4.67-2.07,7.47l1.02-2.14c0.12-0.25,0.39-0.4,0.66-0.37
			c0.28,0.03,0.5,0.23,0.56,0.51l0.16,0.73c0.42-0.86,0.94-1.99,1.42-3.21c0.09-0.24,0.32-0.4,0.57-0.41
			c0.25-0.01,0.5,0.12,0.61,0.35c0.01,0.02,0.18,0.34,0.35,0.75c0.73-1.2,1.88-3.32,2.66-5.9c0.08-0.25,0.3-0.43,0.56-0.46
			c0.26-0.02,0.51,0.11,0.64,0.34c0.02,0.03,0.18,0.33,0.34,0.79c0.61-1.3,1.41-3.13,1.9-4.68c0.09-0.27,0.33-0.45,0.61-0.46
			c0,0,0,0,0.01,0c0.28,0,0.53,0.18,0.62,0.44c0.05,0.13,0.28,0.83,0.46,1.63c1.12-1.68,2.89-4.43,3.84-6.26
			c0.16-0.32,0.56-0.44,0.88-0.28c0.32,0.16,0.44,0.56,0.28,0.88c-1.48,2.86-4.78,7.68-4.92,7.89c-0.17,0.25-0.49,0.35-0.77,0.24
			c-0.28-0.11-0.45-0.39-0.41-0.69c0.03-0.25,0-0.6-0.07-0.99c-0.92,2.3-2.03,4.47-2.09,4.58c-0.14,0.27-0.44,0.41-0.73,0.34
			c-0.29-0.07-0.5-0.33-0.5-0.64c0-0.15-0.01-0.3-0.03-0.45c-1.27,3.26-2.85,5.42-2.92,5.53c-0.15,0.21-0.41,0.3-0.66,0.25
			s-0.45-0.25-0.5-0.5c-0.02-0.12-0.06-0.25-0.11-0.38c-0.87,1.98-1.67,3.44-1.71,3.52c-0.13,0.24-0.39,0.37-0.66,0.33
			c-0.27-0.04-0.48-0.24-0.55-0.5l-0.14-0.65l-1.15,2.42C65.58,33.32,65.35,33.47,65.1,33.47z"/>
		<path d="M75.55,13.69c-0.2,0-0.4-0.09-0.53-0.27c-0.21-0.29-0.14-0.7,0.15-0.91c2.9-2.07,5.01-2.71,6.28-2.89
			c0.36-0.05,0.68,0.2,0.73,0.56s-0.2,0.68-0.56,0.73c-0.92,0.12-2.87,0.64-5.7,2.66C75.81,13.65,75.68,13.69,75.55,13.69z"/>
		<path d="M93.01,27.83c-0.06,0-0.12,0-0.18,0c-1.01-0.06-1.99-0.64-2.92-1.7c-0.7-0.8-1.68-1.35-2.75-1.53
			c-1.31-0.23-2.47-0.66-3.44-1.29c-1.34-0.87-2.29-2.1-2.82-3.65c-0.12-0.34,0.07-0.71,0.41-0.83c0.34-0.12,0.71,0.07,0.83,0.41
			c0.96,2.79,3.38,3.76,5.25,4.08c1.37,0.23,2.61,0.93,3.51,1.95c0.48,0.55,1.22,1.21,2.02,1.26c0.51,0.03,1-0.18,1.52-0.63
			c0.81-0.72,1.03-1.6,0.66-2.69c-0.3-0.9-0.89-1.59-0.9-1.59c-0.02-0.03-0.05-0.06-0.07-0.09c-0.02-0.04-2.06-3.44-4.92-8.31
			c-0.95-1.62-2.99-2.16-4.52-2.31c-0.36-0.04-0.62-0.36-0.58-0.71c0.04-0.36,0.36-0.62,0.71-0.58c2.64,0.27,4.54,1.29,5.51,2.95
			c2.68,4.57,4.64,7.84,4.89,8.25c0.16,0.2,0.76,0.96,1.1,1.95c0.24,0.7,0.31,1.37,0.2,2c-0.14,0.8-0.55,1.52-1.22,2.12
			C94.57,27.51,93.8,27.83,93.01,27.83z"/>
		<path d="M57.49,51.42c-0.01,0-0.02,0-0.02,0c-0.36,0-0.65-0.29-0.65-0.65s0.29-0.65,0.65-0.65c0.01,0,0.02,0,0.02,0
			c2.85,0,5.35-0.57,7.42-1.69c0.32-0.17,0.71-0.05,0.89,0.26c0.17,0.32,0.05,0.71-0.26,0.89C63.26,50.79,60.55,51.42,57.49,51.42z"
			/>
		<path d="M55.5,51.33c-0.02,0-0.04,0-0.05,0c-2.16-0.18-4.46-0.64-6.82-1.36c-2.24-0.68-3.99-1.44-4.83-1.83
			c-1.86-0.86-3.81-0.89-5.79-0.09c-1.52,0.62-2.49,1.51-2.5,1.52c-0.26,0.25-0.67,0.23-0.92-0.03c-0.25-0.26-0.23-0.67,0.03-0.92
			c0.05-0.04,1.13-1.05,2.86-1.76c1.02-0.42,2.06-0.65,3.09-0.69c1.29-0.05,2.57,0.22,3.78,0.78c1.32,0.61,6.02,2.64,11.21,3.07
			c0.36,0.03,0.62,0.34,0.59,0.7C56.12,51.07,55.83,51.33,55.5,51.33z"/>
		<path d="M72.72,70.36h-3.24c-0.36,0-0.65-0.29-0.65-0.65c0-0.83-0.99-1.9-1.34-2.21c-0.13-0.12-0.21-0.29-0.22-0.46l-0.36-9.6
			l-2.98-12.88c-0.08-0.35,0.14-0.7,0.49-0.78c0.35-0.08,0.7,0.14,0.78,0.49l2.99,12.94c0.01,0.04,0.02,0.08,0.02,0.12l0.35,9.4
			c0.17,0.17,0.41,0.43,0.66,0.75c0.42,0.55,0.7,1.08,0.83,1.59h1.82c-0.39-1.11-0.97-1.88-0.98-1.89
			c-0.09-0.11-0.14-0.25-0.14-0.39v-9.48c0-0.03,0-0.07,0.01-0.1l1.64-10.64c0.02-0.14,0.09-0.28,0.2-0.38
			c1.54-1.44,2.45-3.12,2.69-4.99c0.34-2.65,1.05-5.25,2.12-7.73c1.52-3.54,3.05-7.63,4.54-12.16c0.11-0.34,0.48-0.53,0.82-0.41
			c0.34,0.11,0.53,0.48,0.41,0.82c-1.5,4.57-3.04,8.69-4.58,12.27c-1.02,2.37-1.7,4.85-2.02,7.38c-0.12,0.96-0.41,1.9-0.84,2.78
			c-0.5,1.02-1.2,1.98-2.09,2.84l-1.6,10.37v9.22c0.3,0.43,1,1.58,1.31,3.01c0.04,0.19-0.01,0.39-0.13,0.55
			C73.1,70.27,72.92,70.36,72.72,70.36z"/>
		<path d="M80.88,11.82c-0.04-0.16-0.86-3.85,4.57-7.4c0.2-0.13,0.45-0.14,0.66-0.03c0.21,0.11,0.34,0.33,0.34,0.57
			c0,0.04,0.01,1.04-0.11,2.21c-0.18,1.67-0.54,2.79-1.09,3.41c-0.24,0.27-0.65,0.29-0.92,0.05c-0.27-0.24-0.29-0.65-0.05-0.92
			c0.34-0.39,0.63-1.36,0.77-2.67c0.03-0.27,0.05-0.53,0.07-0.77c-1.36,1.07-2.29,2.23-2.73,3.42c-0.4,1.09-0.25,1.82-0.25,1.83
			l0-0.01L80.88,11.82z"/>
		<g>
			<path d="M88.75,17.93c-0.34,0-0.63-0.27-0.65-0.61c-0.02-0.39-0.14-0.67-0.34-0.84c-0.31-0.26-0.76-0.22-0.77-0.22H87l-0.16-1.29
				c0.1-0.01,1.01-0.1,1.74,0.5c0.49,0.41,0.76,1,0.81,1.77c0.02,0.36-0.25,0.67-0.61,0.69C88.78,17.93,88.77,17.93,88.75,17.93z"/>
		</g>
		<path d="M94.31,27.03c-0.12,0-0.23-0.03-0.34-0.1c-1.27-0.78-2.23-2.02-2.28-2.07c-0.22-0.28-0.16-0.69,0.12-0.91
			c0.28-0.22,0.69-0.17,0.91,0.12c0.02,0.02,0.86,1.11,1.93,1.76c0.31,0.19,0.4,0.59,0.21,0.9C94.74,26.92,94.53,27.03,94.31,27.03z
			"/>
		<path d="M94.08,24.38c-0.05,0-0.09,0-0.14-0.02c-0.35-0.08-0.57-0.43-0.5-0.78c0.15-0.66,0.52-0.99,0.81-1.14
			c0.72-0.39,1.56-0.09,1.66-0.05l-0.46,1.22l0,0c-0.15-0.05-0.44-0.1-0.58-0.02c-0.03,0.02-0.11,0.06-0.16,0.28
			C94.65,24.18,94.38,24.38,94.08,24.38z"/>
		<path d="M27.45,73.31h-5.2c-0.21,0-0.41-0.1-0.54-0.28c-0.12-0.18-0.15-0.39-0.08-0.59c0.02-0.05,0.52-1.54-0.01-3.29
			c-0.11-0.34,0.09-0.71,0.43-0.81c0.34-0.11,0.71,0.09,0.81,0.43c0.39,1.3,0.33,2.48,0.2,3.23h3.59c-0.2-0.89-0.5-1.48-0.74-1.84
			c-0.32-0.49-0.59-0.68-0.59-0.68c0.01,0,0.01,0,0.01,0l0.69-1.11c0.07,0.05,0.48,0.32,0.92,0.97c0.57,0.84,0.96,1.92,1.14,3.21
			c0.03,0.19-0.03,0.38-0.15,0.52C27.82,73.23,27.64,73.31,27.45,73.31z"/>
		<path d="M31.36,69.61c-0.26,0-0.5-0.16-0.6-0.4c-0.1-0.25-0.05-0.52,0.14-0.71c0.4-0.4,0.59-0.8,0.59-1.22
			c-0.01-0.73-0.59-1.31-0.62-1.34c-0.13-0.12-0.2-0.28-0.2-0.45l-0.26-8.82c0-0.11,0.02-0.2,0.06-0.3c0.02-0.05,0.5-1.15,0.62-3.48
			c0.02-0.36,0.33-0.64,0.69-0.61c0.36,0.02,0.64,0.33,0.62,0.69c-0.12,2.16-0.51,3.39-0.67,3.8l0.25,8.44
			c0.3,0.35,0.82,1.1,0.83,2.05c0,0.36-0.06,0.71-0.2,1.05l1.61-0.01l0.19-2.15c0.12-5.51,0.95-9.65,0.98-9.83
			c0.01-0.07,0.04-0.13,0.07-0.19c1.9-3.34,3.16-6.39,3.84-9.33c0.08-0.35,0.43-0.57,0.78-0.49c0.35,0.08,0.57,0.43,0.49,0.78
			c-0.71,3.03-1.99,6.17-3.93,9.58c-0.13,0.67-0.83,4.58-0.94,9.52c0,0.02,0,0.03,0,0.04L35.45,69c-0.03,0.34-0.31,0.59-0.64,0.59
			L31.36,69.61C31.36,69.61,31.36,69.61,31.36,69.61z"/>
		<path d="M36.56,73.31h-4.55c-0.2,0-0.38-0.08-0.51-0.23c-0.12-0.15-0.17-0.34-0.13-0.54c0.01-0.07,0.19-1.33-0.61-3.33
			c-0.14-0.34,0.03-0.71,0.36-0.85c0.34-0.14,0.71,0.03,0.85,0.36c0.58,1.45,0.72,2.59,0.73,3.29h3.08c-0.2-0.89-0.5-1.48-0.74-1.84
			c-0.32-0.49-0.59-0.68-0.59-0.68c0.01,0,0.01,0,0.01,0l0.69-1.11c0.07,0.05,0.48,0.32,0.92,0.97c0.57,0.84,0.96,1.92,1.14,3.21
			c0.03,0.19-0.03,0.38-0.15,0.52C36.93,73.23,36.75,73.31,36.56,73.31z"/>
		<path d="M74.3,73.65h-4.82c-0.2,0-0.39-0.09-0.51-0.25c-0.12-0.16-0.17-0.36-0.12-0.56c0-0.01,0.34-1.39,0-3.06
			c-0.07-0.35,0.16-0.7,0.51-0.77c0.35-0.07,0.7,0.16,0.77,0.51c0.23,1.14,0.19,2.16,0.12,2.83h3.26c-0.22-0.93-0.54-1.55-0.79-1.92
			c-0.29-0.42-0.53-0.59-0.53-0.6c-0.3-0.19-0.4-0.59-0.21-0.9c0.19-0.3,0.59-0.4,0.9-0.21c0.07,0.05,0.48,0.32,0.92,0.97
			c0.57,0.84,0.96,1.92,1.14,3.21c0.03,0.19-0.03,0.38-0.15,0.52C74.66,73.57,74.49,73.65,74.3,73.65z"/>
		<path d="M63.6,70.36h-3.14c-0.36,0-0.65-0.29-0.65-0.65c0-0.86-1.02-1.87-1.42-2.19c-0.18-0.14-0.27-0.37-0.24-0.59l1.25-9.65
			l0.56-6.65c0.03-0.36,0.34-0.62,0.7-0.59c0.36,0.03,0.62,0.34,0.59,0.7l-0.56,6.67c0,0.01,0,0.02,0,0.03l-1.2,9.31
			c0.18,0.16,0.41,0.4,0.64,0.68c0.46,0.55,0.76,1.1,0.89,1.63h1.72c-0.39-1.11-0.97-1.88-0.98-1.89c-0.11-0.14-0.16-0.32-0.12-0.5
			l1.61-9.48c0-0.03,0.01-0.06,0.02-0.09l2.09-6.52c0.11-0.34,0.48-0.53,0.82-0.42c0.34,0.11,0.53,0.48,0.42,0.82l-2.08,6.47
			l-1.56,9.17c0.32,0.47,0.98,1.58,1.27,2.96c0.04,0.19-0.01,0.39-0.13,0.55C63.99,70.27,63.8,70.36,63.6,70.36z"/>
		<path d="M65.18,73.65h-4.82c-0.21,0-0.4-0.1-0.52-0.26c-0.12-0.16-0.16-0.38-0.1-0.58c0-0.01,0.43-1.48,0.09-2.93
			c-0.09-0.35,0.13-0.7,0.48-0.79c0.35-0.09,0.7,0.13,0.79,0.48c0.25,1.05,0.18,2.08,0.07,2.77h3.23c-0.2-0.89-0.5-1.48-0.74-1.84
			c-0.32-0.49-0.59-0.68-0.59-0.68c0.01,0,0.01,0,0.01,0l0.69-1.11c0.07,0.05,0.48,0.32,0.92,0.97c0.57,0.84,0.96,1.92,1.14,3.21
			c0.03,0.19-0.03,0.38-0.15,0.52C65.55,73.57,65.37,73.65,65.18,73.65z"/>
		<path d="M22.68,45.92c-0.02,0-0.03,0-0.05,0c-0.36-0.02-0.63-0.34-0.6-0.69c0.05-0.69,0.07-1.37,0.07-2c0-2.4,0.43-4.64,1.24-6.46
			c0.89-1.99,2.21-3.44,3.84-4.2c0.33-0.15,0.71-0.01,0.87,0.32c0.15,0.33,0.01,0.71-0.32,0.87c-2.67,1.24-4.32,4.87-4.32,9.48
			c0,0.66-0.02,1.37-0.08,2.09C23.31,45.66,23.02,45.92,22.68,45.92z"/>
		<path d="M16.17,68.37c-0.05,0-0.09,0-0.14-0.02c-0.27-0.06-0.47-0.28-0.51-0.55c0-0.04-0.5-3.7-0.71-8.76
			c-0.12-2.97-0.12-5.85,0-8.54c0.16-3.37,0.5-6.47,1.04-9.21c0.55-2.82,1.63-5.17,3.2-6.98c1.27-1.46,2.86-2.57,4.73-3.3
			c3.16-1.23,5.99-0.95,6.11-0.94c0.36,0.04,0.62,0.36,0.58,0.72c-0.04,0.36-0.36,0.62-0.72,0.58c-0.04,0-2.68-0.26-5.54,0.87
			c-3.79,1.5-6.18,4.62-7.08,9.29c-1.18,6.06-1.2,12.82-1.02,17.43c0.11,2.69,0.3,4.97,0.45,6.51c0.27-0.6,0.59-1.35,0.92-2.23
			c0.92-2.47,2.14-6.55,2.73-11.96c0.03-0.27,0.23-0.5,0.5-0.57c0.18-0.04,0.36,0,0.5,0.09c0.18-0.91,0.41-2.19,0.59-3.64
			c0.04-0.36,0.37-0.61,0.73-0.57c0.36,0.04,0.61,0.37,0.57,0.73c-0.36,2.97-0.92,5.16-0.95,5.25c-0.07,0.25-0.27,0.44-0.53,0.48
			c-0.11,0.02-0.21,0-0.32-0.03c-0.26,1.9-0.61,3.75-1.04,5.53c-0.44,1.82-0.98,3.57-1.58,5.19c-1.04,2.78-1.93,4.23-1.97,4.29
			C16.61,68.25,16.39,68.37,16.17,68.37z"/>
	</g>
</g>
</svg>
