<?xml version="1.0" encoding="utf-8"?>
<!-- Generator: Adobe Illustrator 28.1.0, SVG Export Plug-In . SVG Version: 6.00 Build 0)  -->
<svg version="1.1" id="Layer_1" xmlns="http://www.w3.org/2000/svg" xmlns:xlink="http://www.w3.org/1999/xlink" x="0px" y="0px"
	 viewBox="0 0 110.55 76.54" style="enable-background:new 0 0 110.55 76.54;" xml:space="preserve">
<style type="text/css">
	.st0{display:none;}
	.st1{display:inline;fill:none;}
</style>
<g id="Layer_2_00000073722119373351752270000017113015111246931634_" class="st0">
	<line class="st1" x1="-24.13" y1="74.54" x2="142.13" y2="74.54"/>
	<line class="st1" x1="-24.13" y1="2" x2="142.13" y2="2"/>
</g>
<g transform="translate(0,-952.36216)">
	<path d="M52.34,957.49c-2.85,0-5.42,0.29-7.37,0.79c-0.97,0.25-1.79,0.54-2.46,0.95c-0.66,0.4-1.34,1.02-1.34,1.98
		c0,0.96,0.67,1.57,1.34,1.97c0.66,0.4,1.48,0.7,2.46,0.95c1.95,0.5,4.52,0.79,7.37,0.79c2.85,0,5.43-0.29,7.38-0.79
		c0.97-0.25,1.79-0.55,2.46-0.95c0.66-0.4,1.34-1.02,1.34-1.97s-0.67-1.57-1.34-1.98c-0.66-0.4-1.48-0.7-2.46-0.95
		C57.77,957.78,55.19,957.49,52.34,957.49z M52.34,959.77c2.69,0,5.13,0.29,6.81,0.72c0.84,0.22,1.49,0.48,1.84,0.69
		c0.02,0.02,0.02,0.02,0.04,0.03c0.27-0.18,0.2-0.23,0.2,0c0,0.23,0.06,0.18-0.2,0c-0.02,0.02-0.01,0.02-0.04,0.03
		c-0.35,0.21-1,0.47-1.84,0.69c-1.68,0.43-4.12,0.71-6.81,0.71c-2.69,0-5.13-0.28-6.81-0.71c-0.84-0.22-1.49-0.48-1.84-0.69
		c-0.02-0.02-0.02-0.02-0.04-0.03c-0.27,0.18-0.2,0.23-0.2,0c0-0.23-0.06-0.18,0.2,0c0.02-0.02,0.01-0.02,0.04-0.03
		c0.35-0.21,1-0.47,1.84-0.69C47.22,960.06,49.65,959.77,52.34,959.77z M39.14,966.83c-0.63-0.02-1.15,0.48-1.17,1.11
		c-0.01,0.39,0.18,0.76,0.5,0.98l1.51,1.06c0.5,0.38,1.22,0.28,1.59-0.23c0.38-0.5,0.28-1.22-0.23-1.59
		c-0.02-0.02-0.04-0.03-0.06-0.05l-1.51-1.06C39.59,966.91,39.37,966.83,39.14,966.83L39.14,966.83z M65.51,966.83
		c-0.22,0.01-0.43,0.09-0.6,0.21l-1.51,1.06c-0.51,0.36-0.64,1.07-0.27,1.59c0.36,0.51,1.07,0.63,1.58,0.28l1.51-1.06
		c0.52-0.35,0.65-1.06,0.3-1.58C66.29,966.99,65.91,966.8,65.51,966.83L65.51,966.83z M52.32,967.07c-5.6,0-10.15,4.55-10.15,10.15
		c0,5.63,4.56,10.15,10.15,10.15c5.63,0,10.2-4.52,10.2-10.15C62.52,971.63,57.95,967.07,52.32,967.07z M31.23,968.42
		c-0.63,0.02-1.12,0.55-1.1,1.18c0.02,0.47,0.32,0.89,0.77,1.04l7.63,2.78c0.59,0.22,1.25-0.08,1.47-0.67
		c0.22-0.59-0.08-1.25-0.67-1.47c-0.01,0-0.01-0.01-0.02-0.01l-7.63-2.78C31.53,968.44,31.38,968.41,31.23,968.42L31.23,968.42z
		 M73.43,968.42c-0.14,0-0.28,0.02-0.41,0.07l-7.63,2.78c-0.59,0.22-0.9,0.87-0.68,1.46c0.22,0.59,0.87,0.9,1.46,0.68l7.63-2.78
		c0.59-0.21,0.91-0.85,0.7-1.45C74.34,968.73,73.91,968.42,73.43,968.42L73.43,968.42z M68.4,974.67L68.4,974.67
		c-0.03,0-0.05,0-0.08,0l-1.84,0.16c-0.63,0.04-1.1,0.58-1.06,1.21c0.04,0.63,0.58,1.1,1.21,1.06c0.02,0,0.03,0,0.05,0l1.84-0.16
		c0.63-0.04,1.1-0.58,1.06-1.21C69.54,975.12,69.02,974.64,68.4,974.67L68.4,974.67z M36.25,974.67c-0.63,0-1.14,0.51-1.14,1.14
		c0,0.6,0.46,1.09,1.05,1.13l1.84,0.16c0.63,0.07,1.19-0.38,1.26-1.01c0.07-0.63-0.38-1.19-1.01-1.26c-0.02,0-0.03,0-0.05,0
		l-1.84-0.16C36.33,974.68,36.29,974.68,36.25,974.67L36.25,974.67L36.25,974.67z M38.26,978.56c-0.06,0-0.13,0.01-0.19,0.02
		l-7.99,1.41c-0.62,0.09-1.06,0.66-0.97,1.28s0.66,1.06,1.28,0.97c0.03,0,0.05-0.01,0.08-0.01l7.99-1.41
		c0.62-0.1,1.04-0.69,0.94-1.31C39.31,978.96,38.83,978.55,38.26,978.56L38.26,978.56z M66.39,978.56
		c-0.63,0.01-1.13,0.53-1.12,1.15c0.01,0.55,0.41,1.02,0.95,1.11l7.99,1.41c0.62,0.13,1.22-0.26,1.35-0.88
		c0.13-0.62-0.26-1.22-0.88-1.35c-0.03-0.01-0.05-0.01-0.08-0.01l-7.99-1.41C66.54,978.57,66.47,978.56,66.39,978.56L66.39,978.56z
		 M39.42,982.12c-0.18,0-0.36,0.04-0.52,0.11l-1.67,0.78c-0.57,0.26-0.82,0.94-0.56,1.51c0.26,0.57,0.94,0.82,1.51,0.56
		c0,0,0.01,0,0.01,0l1.67-0.78c0.57-0.26,0.83-0.93,0.57-1.51C40.26,982.39,39.86,982.13,39.42,982.12L39.42,982.12z M65.23,982.12
		c-0.63,0.03-1.11,0.57-1.08,1.19c0.02,0.43,0.28,0.81,0.67,0.98l1.67,0.78c0.57,0.27,1.25,0.02,1.52-0.55
		c0.27-0.57,0.02-1.25-0.55-1.52c0,0,0,0-0.01,0l-1.67-0.78C65.61,982.15,65.42,982.11,65.23,982.12L65.23,982.12z M39.91,990.41
		c-0.84,0-1.85,0.15-2.58,0.37c-7.04,2.38-11.8,9.52-11.62,16.97c0.11,4.6,2.37,9.41,6.87,12.69c4.51,3.28,10.98,5.11,19.74,5.11
		c5.39,0.08,5.39-8.05,0-7.97c-7.63,0-12.38-1.65-15.05-3.59c-2.67-1.94-3.54-4.09-3.59-6.43c-0.08-3.3,2-6.79,4.88-8.53v13.99
		c2.4,1.58,6.73,3.04,13.76,3.04c7.07,0,11.42-1.48,13.81-3.07v-13.93c2.86,1.75,4.92,5.21,4.84,8.5c-0.06,2.34-0.92,4.49-3.59,6.43
		c-2.2,1.6-5.84,2.98-11.31,3.43c0.14,0.12,0.29,0.24,0.42,0.37c0.96,1.06,1.4,2.43,1.4,3.78c0,1.34-0.44,2.71-1.4,3.78
		c-0.01,0.02-0.03,0.03-0.05,0.04c6.7-0.5,11.86-2.21,15.63-4.95c4.51-3.28,6.76-8.08,6.87-12.69c0.18-7.44-4.56-14.56-11.57-16.95
		c-0.74-0.22-1.74-0.39-2.58-0.39L39.91,990.41L39.91,990.41z M66.11,990.41c0,0.02,0.01,0,0.02,0.02v-0.02H66.11z"/>
</g>
<path d="M99.46,5.02c-0.4-0.28-0.92-0.35-1.39-0.18L86.94,8.91c-0.6,0.22-0.99,0.79-0.99,1.42v11.49c-0.81-0.1-1.63-0.01-2.4,0.26
	c-1.2,0.38-2.2,1.22-2.78,2.34c-0.37,0.74-0.43,1.61-0.16,2.39c0.59,1.39,1.99,2.25,3.5,2.15c0.6,0,1.2-0.11,1.77-0.31
	c1.2-0.38,2.2-1.22,2.78-2.34c0.2-0.42,0.31-0.87,0.32-1.34v-8.76l8.11-3.18v4.62c-0.81-0.11-1.64-0.02-2.41,0.26
	c-1.2,0.38-2.2,1.22-2.78,2.34c-0.37,0.74-0.43,1.6-0.16,2.39c0.59,1.39,1.99,2.25,3.5,2.15c0.6,0,1.2-0.11,1.77-0.31
	c1.2-0.38,2.2-1.22,2.78-2.34c0.11-0.24,0.19-0.5,0.25-0.76c0.05-0.15,0.08-0.31,0.08-0.47V6.26C100.11,5.77,99.87,5.3,99.46,5.02z
	 M97.08,9.79l-8.11,3.18v-1.58l8.11-2.96V9.79z"/>
</svg>
