<?xml version="1.0" encoding="utf-8"?>
<!-- Generator: Adobe Illustrator 28.1.0, SVG Export Plug-In . SVG Version: 6.00 Build 0)  -->
<svg version="1.1" id="Layer_1" xmlns="http://www.w3.org/2000/svg" xmlns:xlink="http://www.w3.org/1999/xlink" x="0px" y="0px"
	 viewBox="0 0 110.55 76.54" style="enable-background:new 0 0 110.55 76.54;" xml:space="preserve">
<style type="text/css">
	.st0{display:none;}
	.st1{display:inline;fill:none;}
	.st2{fill-rule:evenodd;clip-rule:evenodd;}
</style>
<g id="Layer_2_00000073722119373351752270000017113015111246931634_" class="st0">
	<line class="st1" x1="-24.13" y1="74.54" x2="142.13" y2="74.54"/>
	<line class="st1" x1="-24.13" y1="2" x2="142.13" y2="2"/>
</g>
<g>
	<path class="st2" d="M35.15,33.01c0.09-2.16,1.92-3.83,4.07-3.73c2.16,0.09,3.83,1.92,3.73,4.07c-0.09,2.16-1.92,3.83-4.07,3.73
		C36.73,36.99,35.05,35.17,35.15,33.01z M39.11,31.88c-0.72-0.03-1.33,0.53-1.36,1.24s0.53,1.33,1.24,1.36
		c0.72,0.03,1.33-0.53,1.36-1.24C40.39,32.52,39.83,31.91,39.11,31.88z"/>
	<path class="st2" d="M45.73,21.09c-1.61-1.44-4.08-1.31-5.52,0.3c-1.44,1.61-1.31,4.08,0.3,5.52l3.88,3.48
		c1.61,1.44,4.08,1.31,5.52-0.3c1.44-1.61,1.31-4.08-0.3-5.52L45.73,21.09z M42.15,23.12c0.48-0.54,1.3-0.58,1.84-0.1l3.88,3.48
		c0.54,0.48,0.58,1.3,0.1,1.84c-0.48,0.54-1.3,0.58-1.84,0.1l-3.88-3.48C41.72,24.48,41.67,23.66,42.15,23.12z"/>
	<path d="M36.73,26.56c-0.03,0.72-0.64,1.28-1.36,1.24c-0.72-0.03-1.28-0.64-1.24-1.36c0.03-0.72,0.64-1.28,1.36-1.24
		C36.21,25.24,36.76,25.85,36.73,26.56z"/>
	<path d="M45.45,36.07c0.72,0.03,1.33-0.53,1.36-1.24c0.03-0.72-0.53-1.33-1.24-1.36c-0.72-0.03-1.33,0.53-1.36,1.24
		C44.17,35.43,44.73,36.04,45.45,36.07z"/>
	<path class="st2" d="M28.81,28.83c0.31-7.19,6.39-12.76,13.58-12.45c7.19,0.31,12.76,6.39,12.45,13.58
		c-0.31,7.19-6.39,12.76-13.58,12.45C34.07,42.09,28.5,36.01,28.81,28.83z M42.28,18.98c-5.75-0.25-10.61,4.21-10.86,9.96
		c-0.25,5.75,4.21,10.61,9.96,10.86c5.75,0.25,10.61-4.21,10.86-9.96C52.49,24.1,48.03,19.23,42.28,18.98z"/>
</g>
<g>
	<path d="M71.18,33.12l1.24,0.75l-1.74,2.86l5.1,2.99l1.62-2.86l1.24,0.75c1.24,0.75,2.74,0.25,3.36-0.87l1-1.74
		c-1.74-1.24-2.99-3.24-2.99-5.48c0-3.61,2.99-6.6,6.6-6.6c1.12,0,2.12,0.25,2.99,0.75l1.49-2.74c0.75-1.24,0.25-2.74-0.87-3.36
		l-1.24-0.75l1.49-2.49l-5.1-3.11L84,13.7l-1.24-0.75c-1.24-0.75-2.74-0.25-3.36,0.87l-9.08,15.93
		C69.57,30.88,69.94,32.5,71.18,33.12z"/>
	<path d="M86.74,25.28c-2.24,0-4.11,1.87-4.11,4.11s1.87,4.11,4.11,4.11s4.11-1.87,4.11-4.11S88.98,25.28,86.74,25.28z M86.74,31
		c-0.87,0-1.62-0.75-1.62-1.62c0-0.87,0.75-1.62,1.62-1.62s1.62,0.75,1.62,1.62S87.61,31,86.74,31z"/>
	<path d="M95.95,62.86c5.72-3.36,9.58-9.58,9.58-16.68c0-8.21-5.1-15.18-12.32-17.92c0.37,1.62,0,3.48-1.12,4.98
		c4.98,2.24,8.34,7.22,8.34,13.07s-3.48,10.83-8.46,13.07c-3.61-2.61-8.34-2.61-11.95-0.12c-1.99-1-3.73-2.36-5.1-4.11h5.85v-6.22
		H57.5v6.22h11.57c1.62,3.24,4.11,5.85,7.22,7.72l-4.73,4.48c-1.37,1.37-0.37,3.61,1.49,3.61h25.88c1.87,0,2.86-2.24,1.49-3.61
		L95.95,62.86z M85.99,65.85c-1.62,0-2.86-1.24-2.86-2.86s1.24-2.86,2.86-2.86s2.86,1.24,2.86,2.86
		C88.85,64.48,87.61,65.85,85.99,65.85z"/>
</g>
<path d="M41.5,55.16c-12.34,0-22.38-10.04-22.38-22.38S29.16,10.39,41.5,10.39c12.34,0,22.38,10.04,22.38,22.38
	S53.84,55.16,41.5,55.16z M41.5,13.92c-10.4,0-18.86,8.46-18.86,18.86S31.1,51.63,41.5,51.63c10.4,0,18.86-8.46,18.86-18.86
	S51.9,13.92,41.5,13.92z"/>
<path d="M4.96,69.96c-0.45,0-0.9-0.17-1.25-0.52c-0.69-0.69-0.69-1.8,0-2.49l21.32-21.32c0.69-0.69,1.8-0.69,2.49,0
	c0.69,0.69,0.69,1.8,0,2.49L6.2,69.44C5.86,69.79,5.41,69.96,4.96,69.96z"/>
</svg>
