<?xml version="1.0" encoding="utf-8"?>
<!-- Generator: Adobe Illustrator 28.1.0, SVG Export Plug-In . SVG Version: 6.00 Build 0)  -->
<svg version="1.1" id="Layer_1" xmlns="http://www.w3.org/2000/svg" xmlns:xlink="http://www.w3.org/1999/xlink" x="0px" y="0px"
	 viewBox="0 0 110.55 76.54" style="enable-background:new 0 0 110.55 76.54;" xml:space="preserve">
<style type="text/css">
	.st0{display:none;}
	.st1{display:inline;fill:none;}
	.st2{fill:#231F20;}
</style>
<g id="Layer_2_00000073722119373351752270000017113015111246931634_" class="st0">
	<line class="st1" x1="-24.13" y1="74.54" x2="142.13" y2="74.54"/>
	<line class="st1" x1="-24.13" y1="2" x2="142.13" y2="2"/>
</g>
<g>
	<g>
		<path class="st2" d="M21.23,51.36c-0.8,0-1.45,0.65-1.45,1.45c0,0.8,0.65,1.45,1.45,1.45h16v-2.91H21.23z"/>
		<path class="st2" d="M39.71,69.24l-2.91-2.91c-0.57-0.57-1.49-0.57-2.06,0c-0.57,0.57-0.57,1.49,0,2.06l0.43,0.43h-5.22
			c-0.8,0-1.45,0.65-1.45,1.45c0,0.8,0.65,1.45,1.45,1.45h5.22l-0.43,0.43c-0.57,0.57-0.57,1.49,0,2.06
			c0.28,0.28,0.66,0.43,1.03,0.43c0.37,0,0.74-0.14,1.03-0.43l2.91-2.91c0.14-0.14,0.24-0.3,0.32-0.47c0.15-0.35,0.15-0.76,0-1.11
			C39.95,69.54,39.84,69.38,39.71,69.24z"/>
		<path class="st2" d="M37.23,58.64c0,0.8,0.65,1.45,1.45,1.45h1.45v1.45c0,0.8,0.65,1.45,1.45,1.45h1.45v1.45
			c0,0.8,0.65,1.45,1.45,1.45h1.45v1.45c0,0.8,0.65,1.45,1.45,1.45h1.45v1.45c0,0.8,0.65,1.45,1.45,1.45h1.45v1.45
			c0,0.8,0.65,1.45,1.45,1.45h26.18c0.8,0,1.45-0.65,1.45-1.45V54.27H37.23V58.64z"/>
		<path class="st2" d="M80.87,27.23l6.24,6.24c0.28,0.28,0.66,0.43,1.03,0.43c0.37,0,0.74-0.14,1.03-0.43
			c0.57-0.57,0.57-1.49,0-2.06l-8.73-8.73c0,0,0,0,0,0L60.08,2.33c-0.57-0.57-1.49-0.57-2.06,0L37.65,22.69c0,0,0,0,0,0l-8.73,8.73
			c-0.57,0.57-0.57,1.49,0,2.06c0.29,0.28,0.66,0.42,1.03,0.42s0.74-0.14,1.03-0.43l6.24-6.24v24.13h43.64V27.23z"/>
		<path class="st2" d="M96.87,51.36h-16v2.91h16c0.8,0,1.45-0.65,1.45-1.45C98.32,52.01,97.67,51.36,96.87,51.36z"/>
	</g>
</g>
</svg>
