<?xml version="1.0" encoding="utf-8"?>
<!-- Generator: Adobe Illustrator 28.1.0, SVG Export Plug-In . SVG Version: 6.00 Build 0)  -->
<svg version="1.1" id="Layer_1" xmlns="http://www.w3.org/2000/svg" xmlns:xlink="http://www.w3.org/1999/xlink" x="0px" y="0px"
	 viewBox="0 0 110.55 76.54" style="enable-background:new 0 0 110.55 76.54;" xml:space="preserve">
<style type="text/css">
	.st0{display:none;}
	.st1{display:inline;fill:none;}
	.st2{fill:#808080;}
	.st3{fill:#FFFFFF;}
	.st4{fill:none;}
</style>
<g id="Layer_2_00000073722119373351752270000017113015111246931634_" class="st0">
	<line class="st1" x1="-24.13" y1="74.54" x2="142.13" y2="74.54"/>
	<line class="st1" x1="-24.13" y1="2" x2="142.13" y2="2"/>
</g>
<path d="M-5351.56,183.13c0-4.69,1.76-9.61,2.23-11.95c0.47-2.23,1.29-10.9-7.97-10.9c-9.26,0-8.44,8.67-7.97,10.9
	c0.47,2.23,2.23,7.26,2.23,11.95c0,5.39-2.34,10.08-4.57,15.47c-2.81-7.5-6.44-13.83-6.44-21.09c0-5.62,2.11-11.6,2.69-14.3
	c0.47-2.81,1.52-13.12-9.61-13.12s-10.08,10.31-9.61,13.01c0.47,2.69,2.69,8.67,2.69,14.3c0,7.26-3.75,13.71-6.44,21.09
	c-2.11-5.27-4.57-10.08-4.57-15.47c0-4.69,1.76-9.61,2.23-11.95c0.47-2.23,1.29-10.9-7.97-10.9s-8.44,8.67-7.97,10.9
	s2.23,7.26,2.23,11.95c0,9.73-7.85,17.58-7.85,30c0,10.55,4.57,24.14,6.8,25.54h13.71c0.94-0.59,2.11-3.05,3.4-6.68
	c1.64,6.21,3.75,11.13,5.16,11.95h16.4c1.41-0.82,3.52-5.74,5.27-11.95c1.17,3.52,2.46,6.09,3.4,6.68h13.59
	c2.23-1.29,6.8-15,6.8-25.54C-5343.71,200.59-5351.56,192.74-5351.56,183.13z M-5361.05,165.09c0.7-0.82,1.99-1.29,3.75-1.29
	s3.05,0.47,3.75,1.29c1.17,1.41,1.05,4.1,0.82,5.39c-0.12,0.47-0.23,1.29-0.47,2.11c-0.23,1.05-0.59,2.23-0.94,3.63h-6.21
	c-0.23-1.41-0.59-2.58-0.94-3.63c-0.23-0.82-0.47-1.64-0.47-2.11C-5362.11,169.19-5362.23,166.49-5361.05,165.09z M-5354.96,184.3
	h-4.69c0-0.47,0.12-0.82,0.12-1.29c0-0.82-0.12-1.64-0.12-2.58h4.8c-0.12,0.82-0.12,1.64-0.12,2.58
	C-5355.08,183.48-5354.96,183.95-5354.96,184.3z M-5386.01,155.36c0.94-1.17,2.69-1.76,5.04-1.76c2.34,0,4.1,0.59,5.04,1.76
	c1.52,1.87,1.41,5.39,1.05,7.03c-0.12,0.59-0.35,1.52-0.59,2.58c-0.35,1.29-0.7,2.69-1.05,4.22h-8.91c-0.35-1.52-0.7-2.93-1.05-4.22
	c-0.23-1.05-0.59-1.99-0.59-2.58C-5387.42,160.63-5387.54,157.23-5386.01,155.36z M-5377.46,178.91h-7.03
	c0-0.47,0.12-1.05,0.12-1.52c0-1.05-0.12-1.99-0.12-3.05h7.03c-0.12,0.94-0.12,1.99-0.12,3.05
	C-5377.58,177.86-5377.58,178.44-5377.46,178.91z M-5408.39,165.09c0.7-0.82,1.99-1.29,3.75-1.29s3.05,0.47,3.75,1.29
	c1.17,1.41,1.05,4.1,0.82,5.39c-0.12,0.47-0.23,1.29-0.47,2.11c-0.23,1.05-0.59,2.23-0.94,3.63h-6.21
	c-0.35-1.41-0.59-2.58-0.94-3.63c-0.23-0.82-0.47-1.64-0.47-2.11C-5409.45,169.19-5409.56,166.49-5408.39,165.09z M-5402.3,184.3
	h-4.69c0-0.47,0-0.82,0-1.29c0-0.82,0-1.64-0.12-2.58h4.8c-0.12,0.82-0.12,1.64-0.12,2.58
	C-5402.42,183.48-5402.3,183.95-5402.3,184.3z M-5399.49,235.04h-10.31c-1.64-3.16-4.92-13.24-4.92-22.03
	c0-5.86,1.99-10.78,3.98-15.47c1.17-2.81,2.46-5.74,3.16-8.91h5.86c0.7,3.05,1.99,5.98,3.16,8.91c0.82,2.11,1.76,4.22,2.46,6.44
	c-0.7,2.93-1.17,5.98-1.17,9.37c0,3.75,0.47,7.73,1.17,11.6C-5397.14,229.41-5398.55,233.28-5399.49,235.04z M-5374.41,240.31
	h-13.12c-1.41-2.34-3.52-8.55-4.92-15.35c-0.82-3.87-1.29-7.85-1.29-11.6c0-3.4,0.59-6.44,1.41-9.37c0.94-3.28,2.23-6.44,3.52-9.49
	c1.41-3.4,2.81-6.8,3.75-10.43h8.55c0.82,3.63,2.34,7.03,3.75,10.43c1.29,3.05,2.58,6.09,3.52,9.49c0.82,2.93,1.41,5.98,1.41,9.37
	c0,3.75-0.47,7.85-1.29,11.6C-5370.78,231.76-5373.01,237.97-5374.41,240.31z M-5352.15,235.04h-10.31
	c-0.94-1.76-2.34-5.62-3.4-10.08c0.7-3.87,1.17-7.97,1.17-11.6c0-3.4-0.47-6.44-1.17-9.37c0.7-2.23,1.64-4.34,2.46-6.44
	c1.17-2.81,2.46-5.74,3.16-8.91h5.86c0.7,3.05,1.99,5.98,3.16,8.91c1.99,4.69,3.98,9.61,3.98,15.47
	C-5347.23,221.8-5350.51,231.87-5352.15,235.04z"/>
<g>
	<path d="M2837.21,223.42c-0.28,0-0.58-0.01-0.88-0.04c-1.76-0.17-3.86-1.99-6.4-5.58c-1.96-2.76-4.19-6.59-6.65-11.36
		c-4.17-8.13-7.85-16.84-8.92-19.52c-1.59-3.99-0.94-7.98,1.88-11.54c2.08-2.63,4.59-4.09,4.7-4.15l0.03-0.01
		c6.97-3.65,11.54-4.92,14.41-4c1.2,0.38,2.1,1.15,2.67,2.28c1.87,3.68-1.47,8.94-1.61,9.16l-0.05,0.07l-0.06,0.06
		c-3.8,3.83-5.87,7.96-6.15,12.27c-0.52,7.94,3.64,11.82,7.32,14.31c4.09,2.77,7.44,8.29,6.78,11.15c-0.66,2.82-1.84,4.8-3.51,5.89
		C2839.75,223.09,2838.58,223.42,2837.21,223.42z M2821.75,172.66c-0.18,0.11-2.43,1.46-4.25,3.77c-2.44,3.11-2.99,6.43-1.61,9.88
		c1.06,2.65,4.71,11.3,8.85,19.38c2.42,4.71,4.61,8.47,6.53,11.17c2.91,4.11,4.52,4.83,5.22,4.9c2.06,0.19,4.94-0.18,6.21-5.6
		c0.42-1.8-2.14-6.74-6.1-9.42c-3.73-2.52-8.61-6.91-8.03-15.78c0.31-4.69,2.51-9.14,6.55-13.25c0.36-0.58,2.83-4.81,1.49-7.47
		c-0.37-0.74-0.93-1.21-1.71-1.46C2832.53,168.03,2828.11,169.33,2821.75,172.66z"/>
	<path d="M2816.86,173.11c-0.29,0-0.59-0.07-0.88-0.2c-0.87-0.41-1.6-1.41-1.96-2.67c-0.59-2.05-0.05-4.02,1.25-4.58
		c0.5-0.22,1.07-0.2,1.61,0.05c0.87,0.41,1.6,1.4,1.97,2.67c0.59,2.05,0.05,4.01-1.25,4.58l0,0
		C2817.36,173.06,2817.11,173.11,2816.86,173.11z M2816,167.14c-0.04,0-0.07,0.01-0.08,0.02c-0.38,0.17-0.71,1.3-0.33,2.62
		c0.26,0.9,0.74,1.47,1.09,1.64c0.16,0.07,0.23,0.04,0.26,0.03c0.38-0.17,0.71-1.3,0.33-2.63c-0.26-0.9-0.74-1.47-1.09-1.64
		C2816.1,167.15,2816.04,167.14,2816,167.14z"/>
	<path d="M2821.58,169.13c-0.3,0-0.6-0.07-0.9-0.21c-0.89-0.42-1.65-1.45-2.02-2.75c-0.61-2.11-0.06-4.14,1.28-4.72
		c0.51-0.22,1.1-0.2,1.64,0.05c0.89,0.42,1.65,1.45,2.02,2.75c0.61,2.11,0.06,4.14-1.28,4.72l0,0
		C2822.09,169.08,2821.84,169.13,2821.58,169.13z M2820.69,162.94c-0.05,0-0.08,0.01-0.1,0.02c-0.41,0.18-0.76,1.37-0.36,2.76
		c0.27,0.95,0.78,1.55,1.15,1.73c0.18,0.08,0.26,0.05,0.29,0.03l0,0c0.41-0.18,0.76-1.37,0.36-2.76c-0.27-0.95-0.77-1.55-1.15-1.72
		C2820.8,162.95,2820.74,162.94,2820.69,162.94z"/>
	<path d="M2827.12,166.98c-0.31,0-0.63-0.07-0.94-0.22c-0.94-0.44-1.73-1.53-2.13-2.91c-0.64-2.23-0.07-4.37,1.34-4.98
		c0.54-0.23,1.14-0.21,1.71,0.06c0.94,0.44,1.74,1.53,2.13,2.91c0.65,2.23,0.07,4.37-1.34,4.98
		C2827.65,166.93,2827.39,166.98,2827.12,166.98z M2826.16,160.36c-0.06,0-0.11,0.02-0.13,0.03c-0.47,0.2-0.86,1.48-0.41,3.02
		c0.32,1.1,0.88,1.7,1.26,1.88c0.21,0.1,0.32,0.05,0.36,0.03l0,0c0.47-0.2,0.86-1.48,0.41-3.02c-0.32-1.1-0.88-1.7-1.26-1.88
		C2826.3,160.37,2826.22,160.36,2826.16,160.36z"/>
	<path d="M2834,165.94c-0.48,0-0.96-0.15-1.4-0.44c-1.09-0.72-1.9-2.23-2.16-4.04c-0.19-1.31-0.07-2.64,0.33-3.73
		c0.45-1.22,1.22-2.04,2.15-2.29c0.68-0.19,1.38-0.06,2.03,0.36c1.09,0.71,1.9,2.23,2.16,4.04c0.19,1.31,0.07,2.64-0.33,3.73
		c-0.45,1.22-1.21,2.04-2.15,2.29C2834.42,165.91,2834.21,165.94,2834,165.94z M2833.54,156.98c-0.06,0-0.12,0.01-0.19,0.03l0,0
		c-0.87,0.24-1.61,2.09-1.3,4.22c0.19,1.32,0.75,2.46,1.44,2.9c0.25,0.16,0.48,0.21,0.7,0.15c0.86-0.24,1.6-2.09,1.3-4.22
		c-0.19-1.32-0.75-2.46-1.44-2.91C2833.87,157.04,2833.71,156.98,2833.54,156.98z"/>
	<path d="M2812.84,177.71c-0.28,0-0.56-0.06-0.83-0.19c-0.8-0.38-1.48-1.29-1.81-2.45c-0.54-1.88-0.04-3.7,1.17-4.22
		c0.47-0.21,1.01-0.19,1.51,0.05c0.8,0.38,1.48,1.29,1.81,2.45h0c0.54,1.88,0.04,3.69-1.17,4.22
		C2813.31,177.66,2813.08,177.71,2812.84,177.71z M2812.06,172.34c-0.02,0-0.03,0.01-0.04,0.01c-0.28,0.12-0.59,1.07-0.25,2.26
		c0.23,0.79,0.63,1.28,0.94,1.43c0.11,0.05,0.15,0.03,0.17,0.03c0.28-0.12,0.59-1.07,0.24-2.26l0,0c-0.23-0.79-0.63-1.28-0.94-1.43
		C2812.13,172.35,2812.09,172.34,2812.06,172.34z"/>
	<path d="M2855.69,224.22c-1.06,0-2.02-0.23-2.9-0.69c-1.76-0.93-3.13-2.79-4.05-5.54c-0.94-2.78,1.88-8.6,5.69-11.74
		c3.43-2.83,7.2-7.09,5.93-14.94c-0.69-4.26-3.14-8.17-7.28-11.63l-0.07-0.05l-0.05-0.07c-0.16-0.21-3.98-5.12-2.47-8.97l0,0
		c0.46-1.18,1.28-2.03,2.44-2.52c2.77-1.18,7.44-0.35,14.73,2.61l0.03,0.01c0.11,0.05,2.75,1.26,5.07,3.68
		c3.14,3.28,4.17,7.19,2.97,11.31c-0.81,2.76-3.64,11.79-7.02,20.28c-1.99,4.99-3.85,9.01-5.54,11.94c-2.19,3.81-4.1,5.83-5.84,6.16
		C2856.74,224.16,2856.2,224.22,2855.69,224.22z M2854.18,178.47c4.41,3.7,7.03,7.93,7.78,12.57c1.42,8.78-3.03,13.6-6.5,16.47
		c-3.68,3.04-5.77,8.2-5.18,9.96c1.78,5.28,4.68,5.37,6.71,4.98c0.69-0.13,2.22-1.01,4.73-5.37c1.65-2.87,3.48-6.82,5.44-11.73
		c3.36-8.43,6.17-17.39,6.97-20.13c1.04-3.56,0.18-6.82-2.54-9.68c-2.03-2.13-4.4-3.26-4.59-3.35c-6.65-2.71-11.17-3.59-13.45-2.62
		c-0.75,0.32-1.26,0.85-1.56,1.62C2850.91,173.95,2853.77,177.92,2854.18,178.47z"/>
	<path d="M2871.74,172.16c-0.19,0-0.38-0.03-0.56-0.09c-1.35-0.44-2.07-2.35-1.68-4.44c0.24-1.29,0.88-2.35,1.7-2.84
		c0.51-0.3,1.07-0.37,1.6-0.2c1.35,0.44,2.07,2.35,1.68,4.44v0c-0.24,1.29-0.88,2.35-1.7,2.84
		C2872.44,172.06,2872.09,172.16,2871.74,172.16z M2872.23,166.13c-0.04,0-0.1,0.01-0.19,0.07c-0.34,0.2-0.76,0.81-0.93,1.74
		c-0.26,1.36,0.18,2.45,0.58,2.58c0.03,0.01,0.1,0.03,0.25-0.06c0.34-0.2,0.76-0.82,0.93-1.74v0c0.26-1.36-0.18-2.45-0.57-2.58
		C2872.28,166.14,2872.26,166.13,2872.23,166.13z"/>
	<path d="M2866.65,168.66c-0.19,0-0.39-0.03-0.58-0.09c-1.39-0.45-2.13-2.42-1.72-4.58c0.25-1.33,0.91-2.43,1.75-2.93
		c0.52-0.31,1.1-0.38,1.63-0.21c1.39,0.45,2.13,2.41,1.72,4.58v0c-0.25,1.33-0.91,2.43-1.75,2.93
		C2867.37,168.56,2867.01,168.66,2866.65,168.66z M2867.16,162.4c-0.05,0-0.12,0.01-0.22,0.07c-0.36,0.21-0.8,0.86-0.98,1.83
		c-0.27,1.43,0.19,2.58,0.62,2.72c0.03,0.01,0.12,0.04,0.29-0.06c0.36-0.21,0.8-0.86,0.98-1.83c0.27-1.43-0.19-2.58-0.61-2.71
		C2867.22,162.4,2867.2,162.4,2867.16,162.4z"/>
	<path d="M2860.93,167.05c-0.2,0-0.4-0.03-0.6-0.09c-1.46-0.47-2.23-2.55-1.8-4.83c0.26-1.41,0.95-2.57,1.85-3.1
		c0.54-0.32,1.15-0.4,1.7-0.22c1.46,0.47,2.23,2.55,1.8,4.83v0c-0.27,1.41-0.96,2.57-1.85,3.1
		C2861.68,166.94,2861.3,167.05,2860.93,167.05z M2861.47,160.35c-0.06,0-0.15,0.02-0.26,0.09c-0.36,0.22-0.86,0.87-1.07,1.99
		c-0.3,1.58,0.21,2.81,0.7,2.97c0.04,0.01,0.16,0.05,0.36-0.07c0.36-0.22,0.86-0.87,1.07-1.99c0.3-1.58-0.21-2.81-0.7-2.97
		C2861.55,160.36,2861.52,160.35,2861.47,160.35z"/>
	<path d="M2853.95,166.66c-0.14,0-0.27-0.01-0.41-0.04c-0.96-0.17-1.79-0.91-2.36-2.08c-0.51-1.05-0.75-2.36-0.69-3.68l0,0
		c0.09-1.83,0.75-3.42,1.77-4.23c0.6-0.48,1.29-0.67,1.99-0.55c0.96,0.17,1.8,0.91,2.36,2.08c0.51,1.05,0.75,2.36,0.69,3.69
		c-0.09,1.83-0.75,3.41-1.76,4.23C2855.05,166.46,2854.51,166.66,2853.95,166.66z M2853.84,157.69c-0.18,0-0.37,0.07-0.56,0.22
		c-0.64,0.51-1.09,1.7-1.15,3.03v0c-0.1,2.14,0.81,3.92,1.7,4.07c0.23,0.04,0.45-0.03,0.68-0.22c0.64-0.51,1.09-1.7,1.15-3.03
		c0.1-2.14-0.81-3.92-1.7-4.07C2853.92,157.69,2853.88,157.69,2853.84,157.69z"/>
	<path d="M2876.19,176.37c-0.18,0-0.36-0.03-0.53-0.08l0,0c-1.25-0.41-1.92-2.17-1.56-4.09c0.22-1.19,0.81-2.16,1.57-2.61
		c0.48-0.28,1.01-0.35,1.5-0.19c1.25,0.4,1.93,2.16,1.56,4.09c-0.22,1.18-0.81,2.16-1.57,2.61
		C2876.85,176.28,2876.52,176.37,2876.19,176.37z M2876.16,174.73c0.02,0.01,0.06,0.02,0.16-0.04c0.29-0.17,0.65-0.7,0.8-1.51
		c0.23-1.22-0.17-2.13-0.46-2.23c-0.02-0.01-0.06-0.02-0.16,0.04c-0.29,0.17-0.65,0.7-0.8,1.51
		C2875.47,173.71,2875.87,174.63,2876.16,174.73z"/>
</g>
<path class="st2" d="M4042.06,188.72c0.42-3.16,0.33-6.36-0.27-9.5l-2.14,0.24c0,1.39-1.07,4.08-2.45,6.71
	c-3.13-2.2-5.81-4.97-7.9-8.18c4.42-9.63,2.97-10.53,2.33-10.92c-1.07-0.49-2.33-0.36-3.28,0.35c-0.14-0.39-0.42-0.71-0.79-0.9
	c-1.22-0.61-4.8,0.82-8.81,2.86c-15.67-3.21-31.86-0.06-34.83,1.07c-2.36,0.91-9.81,0.69-12.57,0.52
	c-7.22,0.54-14.01,3.66-19.13,8.78c-2.02,1.98-3.45,4.49-4.12,7.24c-1.92,0.9-4.55,3.45-3.64,8.25c1.07,5.66,1.68,6.9,1.79,7.1
	l1.87-1.07c0,0-0.56-1.19-1.56-6.42c-0.48-1.71-0.07-3.54,1.07-4.89c-0.39,5.22,1.37,10.18,2.25,12.67c0.21,0.6,0.4,1.07,0.46,1.38
	c0.27,1.07-2.3,4.5-4.87,6.97l-0.35,0.33l0.96,21.11h8.67l-0.22-1.26c-0.66-3.37-1.12-6.78-1.38-10.21c0.07-1.7,1.5-3.15,4.22-4.28
	l4.87,15.77h9.24l-4.99-10.71l-0.09-0.15c-0.52-0.76-1.43-2.65-0.75-3.29c0.47-0.3,0.98-0.54,1.52-0.7
	c2.35-0.87,6.22-2.28,7.39-8.44c3.05,0.35,6.12,0.52,9.2,0.52c2.89,0,5.78-0.17,8.65-0.51c0.04,2.33,0.52,4.63,1.43,6.78
	c1.88,3.39,4.34,15.49,4.37,15.61l0.17,0.86h9.37l-4.28-11.65l-0.25-0.15c-0.11-0.14-0.72-1.22,0.6-4.49l7.96,16.28h8.89
	l-5.42-11.45l-0.12-0.24l-0.18-0.15c-0.05,0-1.38-1.19-0.52-4.13c0.91-3.14,1.99-7.91,2.34-9.47c1.2-0.58,2.35-1.27,3.44-2.04
	c0.76,0.16,1.53,0.24,2.3,0.24c2.86-0.17,5.67-0.8,8.33-1.87c0.83-0.29,1.63-0.56,2.28-0.74c4.61-1.26,9.35,1.01,9.4,1.07l0.92,0.45
	l0.49-0.9c0.82-1.52,4.9-9.23,4.9-11.95v-0.97l-0.87-0.15C4045.94,189.9,4043.96,189.44,4042.06,188.72z M4027.96,175.76
	c-0.58-1.07-0.97-1.85-1.18-2.32c0.52-1.04,0.96-2.11,1.33-3.21c0.62-0.59,1.35-1.06,2.14-1.37
	C4029.76,171.24,4028.99,173.56,4027.96,175.76z M3966.44,215.61c-0.82,0.23-1.59,0.62-2.26,1.15c-2.14,1.97,0,5.35,0.4,5.98
	l3.53,7.56h-4.28l-4.46-14.44c2.1-0.86,3.63-2.71,4.1-4.92l1.96-3.31c1.19,0.29,3.66,0.84,7.01,1.3
	C3971.48,213.77,3968.74,214.78,3966.44,215.61z M4012.35,215.84c-1.07,3.67,0.44,5.61,1.07,6.22l3.89,8.23h-4.16l-8.13-16.63
	c0.9-1.73,1.83-3.21,2.7-4.61h0.41c2.11-0.02,4.21-0.38,6.21-1.07c-0.49,2.09-1.3,5.47-1.99,7.86H4012.35z M4042.54,201.24
	c-3.16-1.26-6.63-1.53-9.95-0.76c-0.72,0.19-1.54,0.48-2.41,0.78c-3.35,1.16-7.94,2.74-11.32,0.93c-2.06-1.07-3.55-3.41-4.45-6.87
	l-2.08,0.54c1.07,3.98,2.85,6.72,5.35,8.14c-2.59,1.62-5.52,2.61-8.56,2.88c1.06-1.57,1.88-3.29,2.43-5.11l-2.14-0.52
	c-0.73,2.13-1.78,4.14-3.1,5.96c-1.45,2.17-2.75,4.44-3.9,6.79c-2.53,5.35-1.46,7.43-0.74,8.15l2.97,8.16h-4.53
	c-0.61-2.9-2.66-12.2-4.41-15.37c-1.51-2.71-1.35-10.98-1.16-13.92l-2.14-0.14c0,0.56-0.18,3.21-0.11,6.2
	c-8.58,0.94-17.26,0.48-25.69-1.36c1.07-1.69,1.85-3.05,2.04-3.3l-0.86-0.64l-0.82-0.69c-0.51,0.62-4.28,7.04-5.47,8.99l-0.13,0.22
	v0.24c0,0.11-0.26,2.54-3.67,3.75c-4.28,1.53-6.55,3.77-6.68,6.63c0.19,3.17,0.58,6.32,1.19,9.43h-4.09l-0.79-18.15
	c1.73-1.72,5.76-6.05,5.13-8.68c-0.1-0.39-0.27-0.89-0.52-1.6c-1.48-4.18-4.94-13.92,1.83-20.64c4.74-4.67,10.96-7.55,17.59-8.15
	c1.07,0.06,10.18,0.58,13.39-0.66c2.58-1.01,16.84-3.73,31.05-1.47c-1.28,0.7-2.56,1.42-3.77,2.14l1.07,1.85
	c5.2-3.03,11.48-6.18,13.37-6.48c-0.15,1.32-1.88,5-4.07,8.56l1.83,1.07c0.37-0.61,0.88-1.45,1.39-2.39
	c2.45,4.91,6.08,9.14,10.57,12.31c-0.94,1.72-1.86,3.28-2.45,4.22l1.82,1.13c1.71-2.73,3.25-5.57,4.61-8.49
	c-0.02,3.33-0.61,6.62-1.74,9.75l2.01,0.72c0.53-1.48,0.94-3,1.25-4.54c1.58,0.59,3.22,1.01,4.89,1.26
	C4045.5,195.28,4044.15,198.32,4042.54,201.24z"/>
<g>
	<path class="st3" d="M89.71,50.32c-0.06-0.03-0.13-0.04-0.21-0.04c-0.15,0-0.28,0.06-0.38,0.16c-0.05,0.05-0.09,0.11-0.11,0.17
		c-0.03,0.06-0.04,0.13-0.04,0.21v3.44c0,0.07,0.01,0.14,0.04,0.2c0.05,0.12,0.15,0.22,0.28,0.28c0.06,0.03,0.13,0.04,0.2,0.04
		c0.01,0,0.01,0,0.02,0h0c0.07,0,0.14-0.01,0.2-0.04c0.03-0.01,0.06-0.03,0.09-0.05c0.08-0.06,0.15-0.14,0.19-0.23
		c0.03-0.06,0.04-0.13,0.04-0.2v-3.44c0-0.07-0.01-0.14-0.04-0.21c-0.03-0.06-0.07-0.12-0.11-0.17
		C89.83,50.38,89.77,50.34,89.71,50.32z"/>
	<path class="st3" d="M94.63,51.11l-1.79,3.19c0,0,0,0,0,0c-0.02,0.04-0.04,0.08-0.05,0.12c-0.01,0.03-0.01,0.06-0.02,0.09
		c-0.02,0.2,0.08,0.4,0.27,0.51c0.04,0.03,0.08,0.04,0.12,0.06c0.04,0.01,0.09,0.02,0.13,0.02c0.09,0,0.17-0.02,0.24-0.05
		c0.04-0.02,0.07-0.04,0.11-0.07c0.03-0.03,0.06-0.06,0.09-0.09l1.78-3.19c0,0,0,0,0,0c0.01-0.02,0.02-0.05,0.03-0.07
		c0.01-0.01,0.01-0.03,0.01-0.04c0.02-0.06,0.03-0.12,0.02-0.18c0-0.03-0.01-0.07-0.02-0.1c-0.02-0.08-0.06-0.15-0.12-0.22
		c-0.03-0.04-0.07-0.07-0.12-0.1c-0.06-0.04-0.12-0.06-0.18-0.07c-0.13-0.02-0.26,0-0.37,0.07C94.72,51.01,94.67,51.06,94.63,51.11z
		"/>
	<path class="st3" d="M84.34,51.1c-0.09-0.14-0.25-0.23-0.41-0.24c-0.03,0-0.06,0-0.1,0c-0.06,0.01-0.13,0.03-0.19,0.06
		c-0.03,0.02-0.06,0.04-0.09,0.06c-0.08,0.07-0.13,0.16-0.16,0.25c-0.03,0.1-0.03,0.2,0,0.3c0.01,0.03,0.02,0.07,0.04,0.1l1.79,3.19
		c0.02,0.04,0.05,0.08,0.08,0.11c0.02,0.02,0.05,0.05,0.08,0.07c0.08,0.06,0.18,0.09,0.29,0.09c0.08,0,0.16-0.02,0.23-0.05
		c0.01-0.01,0.03-0.01,0.04-0.01c0,0,0,0,0,0c0.06-0.04,0.11-0.08,0.16-0.14c0.03-0.04,0.05-0.08,0.07-0.12
		c0.03-0.07,0.04-0.15,0.04-0.23c0-0.08-0.03-0.16-0.07-0.23l-1.78-3.19C84.35,51.12,84.35,51.11,84.34,51.1z"/>
</g>
<g>
	<path class="st4" d="M79.67,48.68c0.28,0.45,0.87,0.59,1.32,0.3c0,0,0.01,0,0.01-0.01l12.4-7.86c0.44-0.29,0.58-0.89,0.3-1.34
		c-0.14-0.21-0.36-0.36-0.61-0.42c-0.07-0.02-0.14-0.03-0.21-0.03c-0.18,0-0.36,0.06-0.52,0.15l-0.19,0.12
		c-0.03,0.02-0.06,0.04-0.09,0.06l-12.11,7.69C79.53,47.63,79.39,48.23,79.67,48.68z"/>
	<path class="st4" d="M79.65,20.75l-9.04,5.74l-1.44,0.91l-0.75,0.48c0.11,0.34,0.22,0.69,0.33,1.03c0.16,0.47,0.33,0.94,0.51,1.4
		c2.3,6.03,5.98,11.45,10.76,15.82l11.21-7.16C89.05,31.98,85.05,25.69,79.65,20.75z"/>
	<path class="st4" d="M35.37,19.6c0,1.63,1.32,2.94,2.94,2.94c1.62,0,2.94-1.32,2.94-2.94c0-1.63-1.32-2.94-2.94-2.94
		S35.37,17.98,35.37,19.6z"/>
	<path class="st4" d="M64.63,41.02l-9.52,5.84l-1.44,0.88l-9.52,5.84l-1.44,0.88l-4.6,2.82c-0.14,0.08-0.23,0.22-0.27,0.37
		c-0.04,0.16-0.01,0.33,0.09,0.47l1.6,2.52c0.09,0.14,0.23,0.24,0.39,0.28c0.15,0.03,0.31,0,0.45-0.09l2.34-1.53l1.44-0.94l9.52-6.2
		l1.44-0.94l9.52-6.2l1.44-0.94l6.9-4.49c-0.6-0.87-1.16-1.76-1.69-2.67l-5.21,3.19L64.63,41.02z"/>
	<path class="st4" d="M70.61,25.26l8.75-5.57c0.04-0.04,0.09-0.07,0.14-0.09l0.17-0.11c0.22-0.13,0.37-0.35,0.43-0.61
		c0.06-0.25,0.01-0.51-0.13-0.72c-0.17-0.28-0.48-0.45-0.81-0.45c-0.18,0-0.37,0.05-0.52,0.15l-8.03,5.09l-1.44,0.91l-2.92,1.85
		c-0.45,0.29-0.58,0.9-0.29,1.35c0.29,0.45,0.9,0.58,1.35,0.29l0.1-0.06c0.06-0.07,0.14-0.12,0.23-0.15c0,0,0,0,0.01,0l1.52-0.97
		L70.61,25.26z"/>
	<path class="st4" d="M101.71,62.4H77.15c-1.18,0-2.13,0.95-2.13,2.13l-0.03,2.67h28.84v-2.67C103.84,63.35,102.88,62.4,101.71,62.4
		z"/>
	<path class="st4" d="M98.93,57.65H79.92c-1.02,0.04-1.81,0.9-1.78,1.92v1.79h22.57v-1.79C100.74,58.55,99.95,57.69,98.93,57.65z"/>
	<path d="M68.42,27.88l-0.57,0.36c-0.11,0.07-0.23,0.13-0.36,0.17c0.05,0.16,0.1,0.33,0.16,0.49h1.1
		C68.63,28.57,68.53,28.22,68.42,27.88z"/>
	<path d="M67.41,27.3l0.24-0.15c0,0,0,0-0.01,0C67.55,27.17,67.47,27.23,67.41,27.3z"/>
	<path d="M68.75,28.91h-1.1c0.16,0.47,0.32,0.94,0.49,1.4h1.12C69.08,29.85,68.91,29.38,68.75,28.91z"/>
	<path d="M69.17,26.18l-1.52,0.97c0.27-0.08,0.56,0.08,0.64,0.35c0,0,0,0,0,0c0.04,0.13,0.08,0.26,0.12,0.38l0.75-0.48V26.18z"/>
	<path d="M67.41,27.3l-0.1,0.06c-0.45,0.29-1.06,0.17-1.35-0.29c-0.29-0.45-0.17-1.06,0.29-1.35l2.92-1.85v-0.72l-0.48-0.21
		l-2.98,1.9c-0.58,0.37-0.94,1.01-0.94,1.7c0,1.11,0.89,2.01,2.01,2.02c0.25,0,0.49-0.05,0.72-0.14c-0.06-0.2-0.13-0.4-0.2-0.61
		C67.24,27.62,67.29,27.43,67.41,27.3z"/>
	<path d="M69.17,23.87l1.44-0.91v-0.28c0-0.29-0.17-0.55-0.44-0.66L70.16,22l-1.47,0.94l0.48,0.21V23.87z"/>
	<polygon points="69.17,26.18 69.17,27.4 70.61,26.49 70.61,25.26 	"/>
	<path d="M68.42,27.88c-0.04-0.13-0.08-0.25-0.12-0.38c0,0,0,0,0,0c-0.08-0.27-0.37-0.43-0.64-0.35l-0.24,0.15
		c-0.12,0.13-0.17,0.32-0.12,0.51c0.06,0.2,0.13,0.41,0.2,0.61c0.12-0.05,0.24-0.1,0.36-0.17L68.42,27.88z"/>
	<path d="M79.5,19.6c-0.05,0.02-0.09,0.05-0.14,0.09L79.5,19.6z"/>
	<path d="M70.61,26.49l9.04-5.74c-0.1-0.09-0.2-0.19-0.3-0.28c-0.21-0.19-0.23-0.53-0.04-0.74c0.01-0.02,0.03-0.03,0.05-0.04
		l-8.75,5.57V26.49z"/>
	<path d="M70.61,22.67v0.28l8.03-5.09c0.16-0.1,0.34-0.15,0.52-0.15c0.33-0.01,0.64,0.16,0.81,0.45c0.14,0.21,0.19,0.48,0.13,0.72
		c-0.05,0.25-0.21,0.47-0.43,0.61L79.5,19.6c0.18-0.08,0.4-0.05,0.56,0.09c0.16,0.15,0.32,0.3,0.48,0.45
		c0.69-0.65,0.84-1.71,0.33-2.54c-0.6-0.94-1.84-1.22-2.79-0.63L70.16,22l0.01,0.01C70.44,22.12,70.61,22.38,70.61,22.67z"/>
	<path d="M79.5,19.6l-0.14,0.09c-0.02,0.01-0.03,0.03-0.05,0.04c-0.19,0.21-0.18,0.55,0.04,0.74c0.1,0.09,0.2,0.18,0.3,0.28
		l0.59-0.37c0.11-0.07,0.21-0.15,0.3-0.24c-0.16-0.15-0.32-0.3-0.48-0.45C79.9,19.55,79.68,19.52,79.5,19.6z"/>
	<path class="st3" d="M89.51,54.77c0.07,0,0.14-0.01,0.2-0.04C89.65,54.75,89.58,54.77,89.51,54.77L89.51,54.77z"/>
	<path class="st3" d="M89.8,54.68c0.08-0.06,0.15-0.14,0.19-0.23C89.95,54.54,89.88,54.62,89.8,54.68z"/>
	<path class="st3" d="M93.65,54.97c0.03-0.03,0.06-0.06,0.09-0.09l1.78-3.19l-1.78,3.19C93.71,54.92,93.68,54.95,93.65,54.97z"/>
	<path class="st3" d="M95.51,51.69C95.51,51.69,95.51,51.69,95.51,51.69c0.01-0.03,0.02-0.05,0.03-0.08
		C95.54,51.64,95.53,51.66,95.51,51.69C95.51,51.69,95.51,51.69,95.51,51.69z"/>
	<path class="st3" d="M95.44,51.08c-0.03-0.04-0.07-0.07-0.12-0.1c-0.06-0.04-0.12-0.06-0.18-0.07c0.06,0.01,0.13,0.03,0.18,0.07
		C95.37,51,95.41,51.04,95.44,51.08z"/>
	<path class="st3" d="M84.34,51.1c-0.09-0.14-0.25-0.23-0.41-0.24C84.09,50.87,84.25,50.95,84.34,51.1z"/>
	<path class="st3" d="M83.84,50.86c-0.06,0.01-0.13,0.03-0.19,0.06c-0.03,0.02-0.06,0.04-0.09,0.06c0.03-0.02,0.06-0.04,0.09-0.06
		C83.71,50.89,83.77,50.87,83.84,50.86z"/>
	<path class="st3" d="M85.91,55.05c0.01-0.01,0.03-0.01,0.04-0.01c0,0,0,0,0,0c0,0,0,0,0,0C85.93,55.04,85.92,55.04,85.91,55.05z"/>
	<path d="M101.71,61.35v0.49c0,0.27-0.21,0.5-0.48,0.52c-0.29,0-0.52-0.23-0.52-0.52v0v-0.49H78.14v0.49c0,0.29-0.24,0.53-0.53,0.53
		s-0.53-0.24-0.53-0.53v-0.49c-1.73,0.03-3.13,1.45-3.13,3.19v3.19c0,0.29,0.23,0.52,0.52,0.52h29.91c0.29,0,0.52-0.23,0.52-0.52
		v-3.19C104.9,62.78,103.47,61.35,101.71,61.35z M103.84,67.2H74.99l0.03-2.67c0-1.18,0.95-2.13,2.13-2.13h24.56
		c1.18,0,2.13,0.95,2.13,2.13V67.2z"/>
	<path d="M78.14,61.35v-1.79c-0.04-1.02,0.76-1.88,1.78-1.92h19.01c1.02,0.04,1.81,0.9,1.78,1.92v1.79h1v-1.79
		c0.04-1.58-1.2-2.9-2.78-2.96H79.9c-1.59,0.04-2.86,1.36-2.82,2.96v1.79c0.02,0,0.04,0,0.06,0H78.14z"/>
	<path d="M77.61,62.38c0.29,0,0.53-0.24,0.53-0.53v-0.49h-1c-0.02,0-0.04,0-0.06,0v0.49C77.08,62.14,77.32,62.38,77.61,62.38z"/>
	<path d="M100.71,61.84L100.71,61.84c0,0.29,0.23,0.52,0.52,0.52c0.27-0.02,0.48-0.25,0.48-0.52v-0.49h-1V61.84z"/>
	<path d="M71.71,36.67c0.25-0.15,0.32-0.48,0.17-0.72c-0.15-0.25-0.48-0.32-0.72-0.17l-0.4,0.25c0.17,0.31,0.34,0.61,0.52,0.92
		L71.71,36.67z"/>
	<polygon points="42.71,59.32 42.71,60.6 44.15,59.66 44.15,58.38 	"/>
	<polygon points="44.15,58.38 44.15,59.66 53.67,53.45 53.67,52.18 	"/>
	<path d="M40.37,60.84c-0.13,0.09-0.29,0.12-0.45,0.09c-0.16-0.04-0.3-0.14-0.39-0.28l-1.6-2.52c-0.09-0.14-0.13-0.31-0.09-0.47
		c0.03-0.16,0.13-0.29,0.27-0.37l4.6-2.82v-1.28l-5.18,3.17c-0.38,0.24-0.65,0.62-0.75,1.06c-0.09,0.44,0.01,0.89,0.26,1.26
		l1.6,2.57c0.24,0.38,0.62,0.64,1.06,0.73h0.35c0.34,0.01,0.67-0.08,0.95-0.27l1.72-1.12v-1.28L40.37,60.84z"/>
	<polygon points="53.67,47.74 53.67,46.48 44.15,52.31 44.15,53.58 	"/>
	<polygon points="53.67,52.18 53.67,53.45 55.11,52.52 55.11,51.24 	"/>
	<polygon points="44.15,53.58 44.15,52.31 42.71,53.19 42.71,54.47 	"/>
	<polygon points="55.11,46.86 55.11,45.6 53.67,46.48 53.67,47.74 	"/>
	<path d="M74.15,39.48c-0.16-0.24-0.49-0.31-0.73-0.16l-0.45,0.29c0.2,0.29,0.4,0.58,0.61,0.86l0.41-0.27
		C74.23,40.05,74.3,39.73,74.15,39.48z"/>
	<path d="M71.28,36.94c-0.18-0.3-0.35-0.61-0.52-0.92l-4.69,2.87v1.24L71.28,36.94z"/>
	<g>
		<path class="st4" d="M35.37,19.6c0,1.63,1.32,2.94,2.94,2.94c1.62,0,2.94-1.32,2.94-2.94c0-1.63-1.32-2.94-2.94-2.94
			S35.37,17.98,35.37,19.6z"/>
		<path d="M33.93,19.6c0,2.42,1.96,4.38,4.38,4.38c2.42,0,4.38-1.96,4.38-4.38c0-2.42-1.96-4.38-4.38-4.38
			C35.89,15.21,33.93,17.18,33.93,19.6z M41.26,19.6c0,1.62-1.32,2.94-2.94,2.94c-1.63,0-2.94-1.32-2.94-2.94
			c0-1.63,1.32-2.94,2.94-2.94S41.26,17.98,41.26,19.6z"/>
		<g>
			<rect x="11.99" y="30.31" class="st4" width="8.8" height="34.21"/>
			<rect x="22.24" y="30.31" class="st4" width="9.52" height="34.21"/>
			<path d="M72.74,67.74v-0.37H3.26v1.44h69.86C72.88,68.52,72.74,68.14,72.74,67.74z"/>
			<path d="M6.73,30.35h3.82v34.17H6.14v1.44h63.62v-1.44h-3.69V46.81l-1.44,0.94v16.78h-9.52V53.95l-1.44,0.94v9.63h-9.52V61.1
				l-1.44,0.94v2.48h-9.52l0-34.21h9.52v21.47l1.44-0.88V30.31h9.52v14.76l1.44-0.88V30.31h9.52v8.05l1.44-0.88v-7.17h0.79
				c-0.07-0.19-0.13-0.37-0.2-0.56c-0.79-0.03-1.51-0.35-2.05-0.85H7.45v-5.8L38.31,9.9l29.04,12.46l1.47-0.94L38.59,8.45
				c-0.18-0.08-0.39-0.08-0.57,0L6.45,22.05c-0.27,0.11-0.44,0.37-0.44,0.66v6.92C6.01,30.02,6.33,30.35,6.73,30.35z M22.24,30.31
				h9.52v34.21h-9.52V30.31z M11.99,30.31h8.8v34.21h-8.8V30.31z"/>
		</g>
	</g>
	<polygon points="55.11,51.24 55.11,52.52 64.63,46.31 64.63,45.04 	"/>
	<polygon points="64.63,41.02 64.63,39.77 55.11,45.6 55.11,46.86 	"/>
	<polygon points="64.63,45.04 64.63,46.31 66.07,45.37 66.07,44.1 	"/>
	<polygon points="66.07,40.13 66.07,38.89 64.63,39.77 64.63,41.02 	"/>
	<path d="M66.07,44.1v1.26l7.51-4.9c-0.21-0.28-0.41-0.57-0.61-0.86L66.07,44.1z"/>
	<path d="M79.13,46.73c0.09-0.08,0.18-0.15,0.28-0.21l0.61-0.39c-4.78-4.37-8.46-9.79-10.76-15.82h-1.12
		c0.73,1.97,1.61,3.88,2.62,5.71l0.4-0.25c0.25-0.15,0.57-0.08,0.72,0.17c0.15,0.25,0.08,0.57-0.17,0.72l-0.44,0.27
		c0.53,0.91,1.1,1.8,1.69,2.67l0.45-0.29c0.25-0.15,0.57-0.08,0.73,0.16c0.15,0.24,0.08,0.57-0.16,0.72l-0.41,0.27
		C75.21,42.73,77.07,44.82,79.13,46.73z"/>
	<path d="M79.65,20.75c5.4,4.95,9.39,11.23,11.58,18.22l0.58-0.37c0.11-0.08,0.22-0.14,0.34-0.19c-2.23-6.99-6.23-13.28-11.61-18.26
		c-0.09,0.09-0.19,0.17-0.3,0.24L79.65,20.75z"/>
	<path d="M92.17,39.6l0.19-0.12c0.16-0.09,0.34-0.15,0.52-0.15c0.07,0,0.14,0.01,0.21,0.03c0.25,0.05,0.47,0.2,0.61,0.42
		c0.28,0.45,0.15,1.05-0.3,1.34l-12.4,7.86c0,0-0.01,0-0.01,0.01c-0.45,0.28-1.04,0.14-1.32-0.3c-0.28-0.45-0.15-1.04,0.3-1.33
		l12.11-7.69c-0.03,0.01-0.05,0.03-0.08,0.03l-0.15,0.02c-0.23,0-0.43-0.15-0.5-0.37c-0.04-0.13-0.08-0.25-0.12-0.38l-11.21,7.16
		c0.09,0.08,0.17,0.16,0.26,0.24c0.2,0.21,0.2,0.54,0,0.75c-0.09,0.1-0.22,0.16-0.35,0.17c-0.13,0-0.26-0.05-0.35-0.14
		c-0.15-0.14-0.3-0.28-0.45-0.41c-0.3,0.28-0.52,0.64-0.61,1.05c-0.24,1.08,0.44,2.15,1.52,2.39c0.15,0.02,0.3,0.02,0.45,0
		c0.38,0.01,0.75-0.08,1.08-0.27L93.94,42c0.07-0.04,0.13-0.08,0.2-0.12c0.91-0.64,1.12-1.9,0.48-2.8c-0.57-0.8-1.61-1.06-2.46-0.67
		c0.07,0.21,0.14,0.42,0.2,0.63C92.42,39.25,92.34,39.47,92.17,39.6z"/>
	<path d="M91.23,38.97c0.04,0.13,0.08,0.25,0.12,0.38c0.07,0.22,0.27,0.37,0.5,0.37L92,39.69c0.03-0.01,0.05-0.02,0.08-0.03
		c0.03-0.02,0.06-0.04,0.09-0.06c0.17-0.13,0.25-0.35,0.18-0.57c-0.06-0.21-0.14-0.42-0.2-0.63c-0.12,0.05-0.23,0.12-0.34,0.19
		L91.23,38.97z"/>
	<path d="M79.93,47.28c0.14-0.01,0.26-0.07,0.35-0.17c0.2-0.21,0.2-0.54,0-0.75c-0.09-0.08-0.17-0.16-0.26-0.24l-0.61,0.39
		c-0.1,0.06-0.19,0.14-0.28,0.21c0.15,0.14,0.29,0.28,0.45,0.41C79.67,47.24,79.8,47.29,79.93,47.28z"/>
	<path d="M89.01,54.45c-0.03-0.06-0.04-0.13-0.04-0.2C88.97,54.32,88.98,54.38,89.01,54.45z"/>
	<path d="M89.71,50.32c-0.06-0.03-0.13-0.04-0.21-0.04c-0.15,0-0.28,0.06-0.38,0.16c-0.05,0.05-0.09,0.11-0.11,0.17
		c-0.03,0.06-0.04,0.13-0.04,0.21v3.44c0,0.07,0.01,0.14,0.04,0.2c0.05,0.12,0.15,0.22,0.28,0.28c0.06,0.03,0.13,0.04,0.2,0.04
		c0.01,0,0.01,0,0.02,0c0.07,0,0.14-0.01,0.2-0.04c0.03-0.01,0.06-0.03,0.09-0.05c0.08-0.06,0.15-0.14,0.19-0.23
		c0.03-0.06,0.04-0.13,0.04-0.2v-3.44c0-0.07-0.01-0.14-0.04-0.21c-0.03-0.06-0.07-0.12-0.11-0.17
		C89.83,50.38,89.77,50.34,89.71,50.32z"/>
	<path d="M94.77,50.98c-0.05,0.03-0.1,0.08-0.14,0.14C94.67,51.06,94.72,51.01,94.77,50.98z"/>
	<path d="M93.17,55.08c0.04,0.01,0.09,0.02,0.13,0.02c0.09,0,0.17-0.02,0.24-0.05c-0.07,0.04-0.16,0.06-0.24,0.05
		C93.25,55.1,93.21,55.09,93.17,55.08z"/>
	<path d="M92.78,54.52c-0.02,0.2,0.08,0.4,0.27,0.51c0.04,0.03,0.08,0.04,0.12,0.06c-0.04-0.01-0.08-0.03-0.12-0.06
		C92.86,54.92,92.76,54.72,92.78,54.52z"/>
	<path d="M94.63,51.11l-1.79,3.19c0,0,0,0,0,0c-0.02,0.04-0.04,0.08-0.05,0.12c-0.01,0.03-0.01,0.06-0.02,0.09
		c-0.02,0.2,0.08,0.4,0.27,0.51c0.04,0.03,0.08,0.04,0.12,0.06c0.04,0.01,0.09,0.02,0.13,0.02c0.09,0,0.17-0.02,0.24-0.05
		c0.04-0.02,0.07-0.04,0.11-0.07c0.03-0.03,0.06-0.06,0.09-0.09l1.78-3.19c0,0,0,0,0,0c0.01-0.02,0.02-0.05,0.03-0.07
		c0.01-0.01,0.01-0.03,0.01-0.04c0.02-0.06,0.03-0.12,0.02-0.18c0-0.03-0.01-0.07-0.02-0.1c-0.02-0.08-0.06-0.15-0.12-0.22
		c-0.03-0.04-0.07-0.07-0.12-0.1c-0.06-0.04-0.12-0.06-0.18-0.07c-0.13-0.02-0.26,0-0.37,0.07C94.72,51.01,94.67,51.06,94.63,51.11z
		"/>
	<path d="M92.84,54.31C92.84,54.31,92.84,54.31,92.84,54.31c-0.02,0.04-0.04,0.08-0.05,0.12C92.8,54.39,92.82,54.35,92.84,54.31
		C92.84,54.31,92.84,54.31,92.84,54.31z"/>
	<path d="M83.4,51.24c0.03-0.1,0.08-0.19,0.16-0.25C83.48,51.05,83.42,51.14,83.4,51.24z"/>
	<path d="M85.39,55.01c0.08,0.06,0.18,0.09,0.29,0.09c0.08,0,0.16-0.02,0.23-0.05c-0.07,0.03-0.15,0.05-0.23,0.05
		C85.57,55.1,85.47,55.06,85.39,55.01z"/>
	<path d="M84.34,51.1c0.01,0.01,0.01,0.02,0.02,0.03l1.78,3.19l-1.78-3.19C84.35,51.12,84.35,51.11,84.34,51.1z"/>
	<path d="M84.34,51.1c-0.09-0.14-0.25-0.23-0.41-0.24c-0.03,0-0.06,0-0.1,0c-0.06,0.01-0.13,0.03-0.19,0.06
		c-0.03,0.02-0.06,0.04-0.09,0.06c-0.08,0.07-0.13,0.16-0.16,0.25c-0.03,0.1-0.03,0.2,0,0.3c0.01,0.03,0.02,0.07,0.04,0.1l1.79,3.19
		c0.02,0.04,0.05,0.08,0.08,0.11c0.02,0.02,0.05,0.05,0.08,0.07c0.08,0.06,0.18,0.09,0.29,0.09c0.08,0,0.16-0.02,0.23-0.05
		c0.01-0.01,0.03-0.01,0.04-0.01c0,0,0,0,0,0c0.06-0.04,0.11-0.08,0.16-0.14c0.03-0.04,0.05-0.08,0.07-0.12
		c0.03-0.07,0.04-0.15,0.04-0.23c0-0.08-0.03-0.16-0.07-0.23l-1.78-3.19C84.35,51.12,84.35,51.11,84.34,51.1z"/>
	<path d="M86.2,54.55c0,0.08-0.01,0.16-0.04,0.23C86.19,54.7,86.21,54.62,86.2,54.55z"/>
</g>
</svg>
