<?xml version="1.0" encoding="utf-8"?>
<!-- Generator: Adobe Illustrator 28.1.0, SVG Export Plug-In . SVG Version: 6.00 Build 0)  -->
<svg version="1.1" id="Layer_1" xmlns="http://www.w3.org/2000/svg" xmlns:xlink="http://www.w3.org/1999/xlink" x="0px" y="0px"
	 viewBox="0 0 110.55 76.54" style="enable-background:new 0 0 110.55 76.54;" xml:space="preserve">
<style type="text/css">
	.st0{display:none;}
	.st1{display:inline;fill:none;}
	.st2{fill:none;}
	.st3{fill:#FFFFFF;}
	.st4{fill:#808080;}
	.st5{fill:#231F20;}
</style>
<g id="Layer_2_00000073722119373351752270000017113015111246931634_" class="st0">
	<line class="st1" x1="-24.13" y1="74.54" x2="142.13" y2="74.54"/>
	<line class="st1" x1="-24.13" y1="2" x2="142.13" y2="2"/>
</g>
<g>
	<path class="st2" d="M-5240.72,925.05c-1.72,0-3.37,0.3-4.92,0.82l3.29,12.07l2.3,1.28c0.66,0.37,0.9,1.2,0.53,1.86
		c-0.25,0.45-0.71,0.7-1.19,0.7c-0.23,0-0.46-0.06-0.67-0.17l-2.8-1.56c-0.02-0.01-0.04-0.04-0.06-0.05
		c-0.1-0.06-0.19-0.14-0.27-0.23c-0.03-0.04-0.07-0.07-0.1-0.11c-0.08-0.11-0.14-0.24-0.19-0.38c0-0.02-0.02-0.04-0.03-0.06
		c0,0,0,0,0-0.01l-3.34-12.23c-4.72,2.63-7.92,7.66-7.92,13.44c0,8.48,6.9,15.37,15.37,15.37s15.37-6.9,15.37-15.37
		C-5225.34,931.95-5232.24,925.05-5240.72,925.05z"/>
	<path d="M-5339.6,903.64c-6.21,0-11.27,5.06-11.27,11.27v6.37c0,1.15,0.92,2.07,2.07,2.07c1.15,0,2.07-0.92,2.07-2.07v-6.37
		c0-1.53,0.54-2.99,1.3-4.14v33.36c0,1.38,1.15,2.53,2.53,2.53s2.53-1.15,2.53-2.53v-19.25h1.46v19.25c0,1.38,1.15,2.53,2.53,2.53
		s2.53-1.15,2.53-2.53v-33.36c0.84,1.15,1.3,2.61,1.3,4.14v6.37c0,1.15,0.92,2.07,2.07,2.07c1.15,0,2.07-0.92,2.07-2.07v-6.37
		C-5328.32,908.71-5333.39,903.64-5339.6,903.64z"/>
	<path d="M-5339.6,902.19c3.13,0,5.67-2.54,5.67-5.68c0-3.13-2.54-5.67-5.67-5.67c-3.13,0-5.68,2.54-5.68,5.67
		C-5345.27,899.65-5342.73,902.19-5339.6,902.19z"/>
	<path d="M-5307.39,914.92v5.83c1.33-0.33,2.72-0.53,4.14-0.58v-5.25c0.08-6.21-4.98-11.27-11.2-11.27
		c-6.21,0-11.27,5.06-11.27,11.27v6.37c0,1.15,0.92,2.07,2.07,2.07s2.07-0.92,2.07-2.07v-6.37c0-1.53,0.54-2.99,1.3-4.14v19.92
		c2.48-4.51,6.61-7.97,11.58-9.57v-10.34C-5307.85,911.93-5307.39,913.38-5307.39,914.92z"/>
	<path d="M-5314.44,902.19c3.13,0,5.67-2.54,5.67-5.68c0-3.13-2.54-5.67-5.67-5.67s-5.68,2.54-5.68,5.67
		C-5320.12,899.65-5317.58,902.19-5314.44,902.19z"/>
	<path class="st3" d="M-5320.27,944.14c0,0.49,0.15,0.96,0.4,1.35c-0.16-0.55-0.3-1.11-0.4-1.68V944.14z"/>
	<polygon class="st3" points="-5279.08,928.41 -5278.35,930.11 -5278.35,930.11 -5279.08,928.4 	"/>
	<path d="M-5313.75,933.59v10.55c0,1.38,1.15,2.53,2.53,2.53s2.53-1.15,2.53-2.53v-15.35
		C-5310.78,929.9-5312.52,931.57-5313.75,933.59z"/>
	<path class="st3" d="M-5303.56,941.23c-0.04-0.06-0.08-0.11-0.12-0.17c-0.03-0.06-0.06-0.13-0.08-0.19l-0.25,0.37H-5303.56z"/>
	<path d="M-5240.72,922.32c-1.97,0-3.86,0.33-5.64,0.91l-5.1-18.71l10.75-0.01c1.88,0,3.42,1.53,3.42,3.42
		c0,1.88-1.53,3.42-3.42,3.42c-0.76,0-1.37,0.61-1.37,1.37s0.61,1.37,1.37,1.37c3.39,0,6.15-2.76,6.15-6.15
		c0-3.39-2.76-6.15-6.15-6.15l-12.54,0.01c-0.06,0-0.12,0.03-0.18,0.04c-0.06,0.01-0.12,0-0.18,0.01c-0.03,0.01-0.05,0.03-0.08,0.04
		c-0.09,0.03-0.17,0.08-0.25,0.13c-0.07,0.04-0.14,0.08-0.21,0.14c-0.06,0.06-0.11,0.13-0.17,0.2c-0.05,0.07-0.11,0.14-0.14,0.22
		c-0.04,0.08-0.06,0.15-0.08,0.24c-0.03,0.09-0.05,0.18-0.06,0.28c0,0.03-0.02,0.06-0.02,0.09c0,0.06,0.03,0.12,0.04,0.18
		c0.01,0.06-0.01,0.12,0.01,0.18l2.93,10.74h-6.06c-0.17,0.95-0.43,1.86-0.76,2.73h5.31l-14.11,14.11c-0.21,0.88-0.3,1.77-0.24,2.72
		l0.05,1.34l16.9-16.9l1.64,6.04c-5.88,3-9.92,9.09-9.92,16.13c0,9.98,8.12,18.11,18.11,18.11c9.99,0,18.11-8.12,18.11-18.11
		C-5222.61,930.44-5230.73,922.32-5240.72,922.32z M-5240.72,955.8c-8.48,0-15.37-6.9-15.37-15.37c0-5.77,3.2-10.81,7.92-13.44
		l3.34,12.23c0,0,0,0,0,0.01c0.01,0.02,0.02,0.04,0.03,0.06c0.05,0.14,0.11,0.26,0.19,0.38c0.03,0.04,0.07,0.07,0.1,0.11
		c0.08,0.09,0.17,0.17,0.27,0.23c0.02,0.02,0.03,0.04,0.06,0.05l2.8,1.56c0.21,0.12,0.44,0.17,0.67,0.17c0.48,0,0.94-0.25,1.19-0.7
		c0.37-0.66,0.13-1.49-0.53-1.86l-2.3-1.28l-3.29-12.07c1.55-0.52,3.2-0.82,4.92-0.82c8.48,0,15.37,6.9,15.37,15.37
		C-5225.34,948.9-5232.24,955.8-5240.72,955.8z"/>
	<path d="M-5278.84,927.54l-4.55-10.55h11.13c0.75-1.05,1.25-1.93,1.56-2.73h-13.87l-3.56-8.26c1-0.09,1.98-0.18,2.84-0.26
		l-1.14-2.99l0.41-0.3l-9.11-0.82c-3.6-0.19-3.59,5.18,0,4.99c0,0,1.85-0.17,4.14-0.37l3.87,8.97l-6.4,9.48
		c-2.65-1.51-5.7-2.39-8.96-2.39c-0.36,0-0.71,0.01-1.07,0.03c-1.08,0.06-2.13,0.22-3.15,0.47c-0.68,0.16-1.35,0.36-1.99,0.6
		c-1.85,0.68-3.55,1.65-5.06,2.85c-0.51,0.41-1,0.84-1.46,1.29c-2.56,2.53-4.37,5.82-5.06,9.49c-0.21,1.09-0.32,2.22-0.32,3.37
		s0.11,2.28,0.32,3.37c0.11,0.57,0.24,1.13,0.4,1.68c2.19,7.53,9.15,13.05,17.38,13.05c9.52,0,17.33-7.39,18.04-16.74h2.55
		c0.22,0.85,0.59,1.64,1.08,2.35c0.23-1.26,0.74-2.39,1.47-3.33c-0.05-0.27-0.09-0.56-0.09-0.85c0-0.48,0.07-0.95,0.21-1.39
		l-0.08-1.09l-0.03-0.42l-0.21-2.68c-0.85,0.72-1.52,1.63-1.96,2.67c-0.27,0.63-0.46,1.3-0.55,2.01h-2.38
		c-0.39-5.18-2.96-9.76-6.81-12.82l5.42-8.03l4.03,9.35l2.16,5.01c0-1.39,0.2-2.79,0.56-4.18c0,0,0,0,0,0
		C-5279.01,928.12-5278.93,927.83-5278.84,927.54z M-5302.48,955.8c-6.36,0-11.83-3.88-14.16-9.4c-0.78-1.84-1.21-3.86-1.21-5.98
		c0-3.19,0.98-6.16,2.65-8.61c0.44-0.64,0.93-1.24,1.46-1.81c1.42-1.53,3.13-2.77,5.06-3.63c1.9-0.84,4-1.32,6.21-1.32
		c2.69,0,5.23,0.7,7.43,1.93l-8.56,12.68c-0.02,0.04-0.03,0.08-0.05,0.12c-0.04,0.08-0.08,0.17-0.11,0.26
		c-0.03,0.09-0.04,0.17-0.05,0.27c0,0.04-0.03,0.08-0.03,0.13c0,0.04,0.02,0.08,0.03,0.13c0.01,0.09,0.03,0.18,0.05,0.27
		c0,0.02,0.01,0.03,0.02,0.04c0.02,0.07,0.04,0.13,0.08,0.19c0.03,0.06,0.07,0.12,0.12,0.17c0.01,0.01,0.01,0.02,0.02,0.04
		c0.06,0.08,0.12,0.14,0.2,0.2c0.03,0.03,0.05,0.07,0.09,0.09c0.05,0.03,0.1,0.05,0.15,0.07c0.05,0.02,0.09,0.05,0.14,0.06
		c0.15,0.06,0.31,0.1,0.47,0.1h15.3C-5287.88,949.63-5294.47,955.8-5302.48,955.8z M-5299.91,939.06l7.12-10.55
		c3.13,2.55,5.23,6.3,5.61,10.55H-5299.91z"/>
	<path d="M-5262.02,917c0.42-0.88,0.76-1.78,0.98-2.73c0.21-0.89,0.33-1.82,0.33-2.81c0-5.34-3.65-10.33-11.74-10.33
		c-3.24,0-6.7,0.85-9.07,2.19c-0.35,0.2-0.68,0.41-0.98,0.62l0.54,1.42l1.14,3.01c1.76-1.34,4.57-2.18,7.1-2.18
		c4.43,0.07,6.68,2.46,6.68,6.05c0,0.69-0.1,1.37-0.26,2.03c-0.22,0.91-0.59,1.81-1.11,2.73c-0.83,1.5-2.02,3.07-3.55,4.86
		c-1.52,1.83-2.62,3.64-3.35,5.42c-0.37,0.91-0.64,1.81-0.82,2.7c-0.19,0.96-0.28,1.91-0.27,2.83c0.01,0.4,0.03,0.81,0.07,1.2
		l0.12,1.52l0.02,0.31h3.5h1.98l-0.07-1.83c0-0.05,0-0.1-0.01-0.15c-0.06-1.34,0.06-2.61,0.41-3.87c0.25-0.9,0.61-1.8,1.1-2.71
		c0.62-1.16,1.45-2.35,2.5-3.6C-5264.82,921.39-5263.12,919.28-5262.02,917z"/>
	<path d="M-5270.77,942.26c-0.71-0.63-1.63-1-2.73-1c-0.09,0-0.17,0.02-0.25,0.02c-1.37,0.07-2.51,0.72-3.2,1.76
		c-0.16,0.24-0.3,0.49-0.41,0.77c-0.23,0.56-0.35,1.19-0.35,1.87c0,2.46,1.69,4.36,4.15,4.36c0.48,0,0.93-0.07,1.34-0.19
		c1.8-0.54,2.87-2.17,2.87-4.17c0-0.25-0.03-0.49-0.06-0.72C-5269.56,943.84-5270.04,942.91-5270.77,942.26z"/>
</g>
<path class="st4" d="M818.86,1116.07v-0.51c0-1.08-0.87-1.95-1.95-1.95c-1.08,0-1.95,0.87-1.95,1.95v0.51c0,0.79,0,1.52-0.14,2.31
	h-22.84c-0.14-0.79-0.14-1.52-0.14-2.31v-0.51c0-1.08-0.87-1.95-1.95-1.95s-1.95,0.87-1.95,1.95v0.51c0,8.02,4.19,15.18,10.84,19.3
	c-7.23,3.47-10.84,7.66-10.84,12.57c0,4.91,3.69,9.11,10.84,12.57c-6.72,4.12-10.84,11.35-10.84,19.3v0.51
	c0,1.08,0.87,1.95,1.95,1.95s1.95-0.87,1.95-1.95v-0.51c0-0.79,0.07-1.52,0.14-2.31h22.91c0.07,0.79,0.07,1.52,0.07,2.31v0.51
	c0,1.08,0.87,1.95,1.95,1.95c1.08,0,1.95-0.87,1.95-1.95v-0.51c0-8.02-4.19-15.18-10.84-19.3c7.23-3.47,10.84-7.66,10.84-12.57
	c0-4.91-3.69-9.11-10.84-12.57C814.75,1131.24,818.86,1124.09,818.86,1116.07z M814.24,1121.34c-0.43,1.37-0.94,2.67-1.66,3.83
	h-18.36c-0.65-1.23-1.23-2.53-1.66-3.83H814.24z M814.96,1147.94c0,0.65-0.14,1.3-0.36,1.95h-22.4c-0.29-0.65-0.36-1.3-0.36-1.95
	s0.14-1.3,0.36-1.95h22.47C814.89,1146.64,814.96,1147.29,814.96,1147.94z M812.58,1152.85c-2.31,2.24-5.85,4.05-9.18,5.42
	c-3.32-1.3-6.87-3.11-9.18-5.42H812.58z M794.22,1143.02c2.31-2.24,5.85-4.05,9.18-5.42c3.32,1.3,6.87,3.11,9.18,5.42H794.22z
	 M792.56,1174.53c0.43-1.37,0.94-2.67,1.66-3.83h18.36c0.65,1.23,1.23,2.53,1.66,3.83H792.56z M810.48,1167.67h-14.16
	c1.88-2.17,4.26-3.97,7.08-5.13C806.22,1163.69,808.6,1165.5,810.48,1167.67z M803.4,1133.41c-2.82-1.23-5.2-2.96-7.08-5.13h14.16
	C808.6,1130.38,806.22,1132.18,803.4,1133.41z"/>
<g>
	<path d="M81.6,5.05H29.7c-4.39,0-7.97,3.57-7.97,7.97v51.9c0,4.39,3.57,7.97,7.97,7.97h51.9c4.39,0,7.97-3.57,7.97-7.97v-51.9
		C89.57,8.63,85.99,5.05,81.6,5.05z M88.17,64.92c0,3.63-2.94,6.57-6.57,6.57H29.7c-3.63,0-6.57-2.94-6.57-6.57v-51.9
		c0-3.63,2.94-6.57,6.57-6.57h51.9c3.63,0,6.57,2.94,6.57,6.57V64.92z"/>
	<path d="M81.6,6.45H29.7c-3.63,0-6.57,2.94-6.57,6.57v51.9c0,3.63,2.94,6.57,6.57,6.57h51.9c3.63,0,6.57-2.94,6.57-6.57v-51.9
		C88.17,9.39,85.23,6.45,81.6,6.45z M86.77,64.92c0,2.85-2.32,5.17-5.17,5.17H29.7c-2.85,0-5.17-2.32-5.17-5.17v-51.9
		c0-2.85,2.32-5.17,5.17-5.17h51.9c2.85,0,5.17,2.32,5.17,5.17V64.92z"/>
</g>
<g>
	<path class="st5" d="M39.96,44.18V24.33h6.43c2.44,0,4.03,0.1,4.77,0.3c1.14,0.3,2.09,0.95,2.86,1.94c0.77,1,1.15,2.29,1.15,3.87
		c0,1.22-0.22,2.24-0.66,3.07c-0.44,0.83-1,1.48-1.69,1.96c-0.68,0.47-1.37,0.79-2.08,0.94c-0.96,0.19-2.34,0.28-4.16,0.28h-2.61
		v7.49H39.96z M43.97,27.68v5.63h2.19c1.58,0,2.64-0.1,3.17-0.31s0.95-0.53,1.25-0.98c0.3-0.44,0.45-0.96,0.45-1.54
		c0-0.72-0.21-1.32-0.64-1.79c-0.42-0.47-0.96-0.76-1.61-0.88c-0.48-0.09-1.44-0.14-2.88-0.14H43.97z"/>
	<path class="st5" d="M58.27,44.18V24.33h3.8v7.15c1.17-1.34,2.56-2,4.17-2c1.75,0,3.2,0.63,4.35,1.9c1.15,1.27,1.72,3.09,1.72,5.46
		c0,2.46-0.58,4.35-1.75,5.67c-1.17,1.33-2.59,1.99-4.26,1.99c-0.82,0-1.63-0.21-2.43-0.62c-0.8-0.41-1.49-1.02-2.06-1.82v2.11
		H58.27z M62.04,36.67c0,1.49,0.23,2.59,0.7,3.3c0.66,1.01,1.53,1.52,2.63,1.52c0.84,0,1.55-0.36,2.15-1.08
		c0.59-0.72,0.89-1.85,0.89-3.39c0-1.64-0.3-2.83-0.89-3.55c-0.6-0.73-1.36-1.09-2.29-1.09c-0.91,0-1.67,0.35-2.27,1.06
		C62.35,34.15,62.04,35.23,62.04,36.67z"/>
</g>
<g>
	<path class="st5" d="M45.61,55.85v-6.62h1.35v5.49h3.35v1.12H45.61z"/>
	<path class="st5" d="M54.06,54.32l1.27,0.21c-0.16,0.47-0.42,0.82-0.78,1.07c-0.35,0.24-0.8,0.37-1.33,0.37
		c-0.84,0-1.46-0.27-1.87-0.82c-0.32-0.44-0.48-1-0.48-1.67c0-0.8,0.21-1.43,0.63-1.88c0.42-0.45,0.95-0.68,1.59-0.68
		c0.72,0,1.29,0.24,1.7,0.71c0.42,0.47,0.61,1.2,0.6,2.18h-3.2c0.01,0.38,0.11,0.67,0.31,0.89c0.2,0.21,0.44,0.32,0.74,0.32
		c0.2,0,0.37-0.05,0.51-0.16C53.89,54.73,53.99,54.56,54.06,54.32z M54.13,53.02c-0.01-0.37-0.1-0.65-0.29-0.84s-0.4-0.29-0.66-0.29
		c-0.28,0-0.51,0.1-0.69,0.31c-0.18,0.2-0.27,0.48-0.27,0.83H54.13z"/>
	<path class="st5" d="M57.4,52.5l-1.16-0.21c0.13-0.47,0.35-0.81,0.67-1.04c0.32-0.22,0.79-0.34,1.42-0.34c0.57,0,1,0.07,1.27,0.2
		c0.28,0.13,0.48,0.31,0.59,0.51c0.11,0.21,0.17,0.59,0.17,1.14l-0.01,1.49c0,0.42,0.02,0.74,0.06,0.94s0.12,0.42,0.23,0.65h-1.27
		c-0.03-0.08-0.07-0.21-0.12-0.38c-0.02-0.08-0.04-0.13-0.05-0.15c-0.22,0.21-0.45,0.37-0.7,0.48c-0.25,0.11-0.51,0.16-0.8,0.16
		c-0.5,0-0.89-0.14-1.18-0.41c-0.29-0.27-0.43-0.61-0.43-1.02c0-0.27,0.07-0.52,0.2-0.73s0.31-0.38,0.55-0.49
		c0.24-0.11,0.57-0.21,1.02-0.3c0.6-0.11,1.01-0.22,1.24-0.31v-0.13c0-0.25-0.06-0.42-0.18-0.53c-0.12-0.1-0.35-0.16-0.69-0.16
		c-0.23,0-0.4,0.04-0.53,0.13S57.48,52.27,57.4,52.5z M59.11,53.53c-0.16,0.05-0.42,0.12-0.78,0.2s-0.59,0.15-0.7,0.22
		c-0.17,0.12-0.25,0.27-0.25,0.45c0,0.18,0.07,0.33,0.2,0.46c0.13,0.13,0.3,0.2,0.51,0.2c0.23,0,0.45-0.08,0.66-0.23
		c0.15-0.12,0.26-0.26,0.31-0.42c0.03-0.11,0.05-0.32,0.05-0.62V53.53z"/>
	<path class="st5" d="M66.06,55.85h-1.19v-0.71c-0.2,0.28-0.43,0.48-0.7,0.62c-0.27,0.13-0.54,0.2-0.81,0.2
		c-0.56,0-1.03-0.22-1.43-0.67s-0.59-1.07-0.59-1.87c0-0.82,0.19-1.44,0.58-1.87s0.87-0.64,1.46-0.64c0.54,0,1.01,0.22,1.4,0.67
		v-2.4h1.28V55.85z M62.65,53.33c0,0.52,0.07,0.89,0.21,1.12c0.21,0.33,0.49,0.5,0.86,0.5c0.29,0,0.54-0.12,0.75-0.38
		c0.21-0.25,0.31-0.62,0.31-1.12c0-0.56-0.1-0.96-0.3-1.2c-0.2-0.24-0.46-0.37-0.77-0.37c-0.3,0-0.56,0.12-0.76,0.36
		C62.75,52.49,62.65,52.85,62.65,53.33z"/>
</g>
<g>
	<path class="st5" d="M50.75,63.75v0.83h-3.12c0.03-0.31,0.14-0.61,0.3-0.89c0.17-0.28,0.5-0.65,1-1.11
		c0.4-0.37,0.65-0.63,0.74-0.76c0.12-0.18,0.18-0.37,0.18-0.55c0-0.2-0.05-0.35-0.16-0.46c-0.11-0.11-0.25-0.16-0.44-0.16
		c-0.19,0-0.33,0.06-0.44,0.17s-0.17,0.3-0.19,0.56l-0.89-0.09c0.05-0.49,0.22-0.84,0.5-1.06c0.28-0.21,0.63-0.32,1.05-0.32
		c0.46,0,0.82,0.12,1.08,0.37c0.26,0.25,0.39,0.55,0.39,0.92c0,0.21-0.04,0.41-0.11,0.6c-0.08,0.19-0.19,0.39-0.36,0.59
		c-0.11,0.14-0.3,0.33-0.58,0.59c-0.28,0.26-0.46,0.43-0.53,0.51c-0.08,0.08-0.14,0.17-0.18,0.25H50.75z"/>
	<path class="st5" d="M52.85,59.92c0.45,0,0.8,0.16,1.06,0.48c0.3,0.38,0.45,1.01,0.45,1.89c0,0.88-0.15,1.51-0.46,1.9
		c-0.25,0.32-0.6,0.48-1.05,0.48c-0.45,0-0.82-0.17-1.09-0.52s-0.42-0.97-0.42-1.86c0-0.88,0.15-1.5,0.46-1.89
		C52.05,60.07,52.4,59.92,52.85,59.92z M52.85,60.65c-0.11,0-0.2,0.03-0.29,0.1s-0.15,0.19-0.2,0.37c-0.06,0.23-0.09,0.62-0.09,1.16
		s0.03,0.92,0.08,1.12c0.05,0.2,0.12,0.34,0.21,0.41c0.08,0.07,0.18,0.1,0.29,0.1c0.11,0,0.2-0.03,0.29-0.1
		c0.08-0.07,0.15-0.19,0.2-0.37c0.06-0.23,0.09-0.61,0.09-1.16s-0.03-0.92-0.08-1.12c-0.06-0.2-0.12-0.34-0.21-0.41
		S52.96,60.65,52.85,60.65z"/>
	<path class="st5" d="M54.96,60.83V60h3.05v0.65c-0.25,0.25-0.51,0.6-0.77,1.07c-0.26,0.46-0.46,0.95-0.59,1.48
		c-0.14,0.52-0.2,0.99-0.2,1.4h-0.86c0.01-0.64,0.15-1.3,0.4-1.97c0.25-0.67,0.58-1.27,1-1.79H54.96z"/>
	<path class="st5" d="M58.76,64.58v-0.89h0.89v0.89H58.76z"/>
	<path class="st5" d="M63.38,63.75v0.83h-3.12c0.03-0.31,0.14-0.61,0.3-0.89c0.17-0.28,0.5-0.65,1-1.11
		c0.4-0.37,0.65-0.63,0.74-0.76c0.12-0.18,0.18-0.37,0.18-0.55c0-0.2-0.05-0.35-0.16-0.46c-0.11-0.11-0.25-0.16-0.44-0.16
		c-0.19,0-0.33,0.06-0.44,0.17s-0.17,0.3-0.19,0.56l-0.89-0.09c0.05-0.49,0.22-0.84,0.5-1.06c0.28-0.21,0.63-0.32,1.05-0.32
		c0.46,0,0.82,0.12,1.08,0.37c0.26,0.25,0.39,0.55,0.39,0.92c0,0.21-0.04,0.41-0.11,0.6c-0.08,0.19-0.19,0.39-0.36,0.59
		c-0.11,0.14-0.3,0.33-0.58,0.59c-0.28,0.26-0.46,0.43-0.53,0.51c-0.08,0.08-0.14,0.17-0.18,0.25H63.38z"/>
</g>
<g>
	<path class="st5" d="M29,15.26c-0.31-0.13-0.53-0.31-0.67-0.53c-0.14-0.23-0.21-0.47-0.21-0.74c0-0.46,0.16-0.84,0.48-1.14
		c0.32-0.3,0.78-0.45,1.37-0.45c0.59,0,1.04,0.15,1.37,0.45c0.32,0.3,0.49,0.68,0.49,1.14c0,0.29-0.07,0.54-0.22,0.76
		c-0.15,0.22-0.36,0.39-0.63,0.51c0.34,0.14,0.6,0.34,0.78,0.6c0.18,0.26,0.27,0.57,0.27,0.91c0,0.57-0.18,1.03-0.55,1.39
		c-0.36,0.36-0.85,0.53-1.45,0.53c-0.56,0-1.03-0.15-1.4-0.44c-0.44-0.35-0.66-0.83-0.66-1.43c0-0.33,0.08-0.64,0.25-0.92
		C28.38,15.63,28.64,15.42,29,15.26z M29.13,16.72c0,0.33,0.08,0.58,0.25,0.76s0.38,0.27,0.63,0.27c0.24,0,0.45-0.09,0.61-0.26
		c0.16-0.18,0.24-0.43,0.24-0.76c0-0.29-0.08-0.52-0.24-0.7c-0.16-0.18-0.37-0.26-0.62-0.26c-0.29,0-0.5,0.1-0.65,0.3
		C29.2,16.27,29.13,16.48,29.13,16.72z M29.24,14.07c0,0.24,0.07,0.42,0.2,0.55c0.13,0.13,0.31,0.2,0.53,0.2
		c0.22,0,0.4-0.07,0.54-0.2s0.2-0.32,0.2-0.55c0-0.22-0.07-0.4-0.2-0.53c-0.13-0.13-0.31-0.2-0.53-0.2c-0.23,0-0.41,0.07-0.54,0.2
		S29.24,13.85,29.24,14.07z"/>
	<path class="st5" d="M36.78,17.5v1.1h-4.15c0.04-0.42,0.18-0.81,0.4-1.18s0.67-0.87,1.33-1.48c0.53-0.5,0.86-0.83,0.98-1.01
		c0.16-0.24,0.24-0.49,0.24-0.72c0-0.26-0.07-0.47-0.21-0.61c-0.14-0.14-0.34-0.21-0.59-0.21c-0.25,0-0.44,0.07-0.59,0.22
		s-0.23,0.4-0.25,0.74l-1.18-0.12c0.07-0.65,0.29-1.12,0.66-1.4s0.83-0.43,1.39-0.43c0.61,0,1.09,0.16,1.44,0.49
		c0.35,0.33,0.52,0.74,0.52,1.23c0,0.28-0.05,0.54-0.15,0.79c-0.1,0.25-0.26,0.51-0.47,0.79c-0.14,0.18-0.4,0.44-0.78,0.79
		s-0.61,0.57-0.71,0.68c-0.1,0.11-0.18,0.22-0.24,0.33H36.78z"/>
</g>
</svg>
