<?xml version="1.0" encoding="utf-8"?>
<!-- Generator: Adobe Illustrator 28.1.0, SVG Export Plug-In . SVG Version: 6.00 Build 0)  -->
<svg version="1.1" id="Layer_1" xmlns="http://www.w3.org/2000/svg" xmlns:xlink="http://www.w3.org/1999/xlink" x="0px" y="0px"
	 viewBox="0 0 110.55 76.54" style="enable-background:new 0 0 110.55 76.54;" xml:space="preserve">
<style type="text/css">
	.st0{display:none;}
	.st1{display:inline;fill:none;}
	.st2{fill:none;}
	.st3{fill:#FFFFFF;}
	.st4{fill:#808080;}
</style>
<g id="Layer_2_00000073722119373351752270000017113015111246931634_" class="st0">
	<line class="st1" x1="-24.13" y1="74.54" x2="142.13" y2="74.54"/>
	<line class="st1" x1="-24.13" y1="2" x2="142.13" y2="2"/>
</g>
<g>
	<path class="st2" d="M-5240.72,925.05c-1.72,0-3.37,0.3-4.92,0.82l3.29,12.07l2.3,1.28c0.66,0.37,0.9,1.2,0.53,1.86
		c-0.25,0.45-0.71,0.7-1.19,0.7c-0.23,0-0.46-0.06-0.67-0.17l-2.8-1.56c-0.02-0.01-0.04-0.04-0.06-0.05
		c-0.1-0.06-0.19-0.14-0.27-0.23c-0.03-0.04-0.07-0.07-0.1-0.11c-0.08-0.11-0.14-0.24-0.19-0.38c0-0.02-0.02-0.04-0.03-0.06
		c0,0,0,0,0-0.01l-3.34-12.23c-4.72,2.63-7.92,7.66-7.92,13.44c0,8.48,6.9,15.37,15.37,15.37s15.37-6.9,15.37-15.37
		C-5225.34,931.95-5232.24,925.05-5240.72,925.05z"/>
	<path d="M-5339.6,903.64c-6.21,0-11.27,5.06-11.27,11.27v6.37c0,1.15,0.92,2.07,2.07,2.07c1.15,0,2.07-0.92,2.07-2.07v-6.37
		c0-1.53,0.54-2.99,1.3-4.14v33.36c0,1.38,1.15,2.53,2.53,2.53s2.53-1.15,2.53-2.53v-19.25h1.46v19.25c0,1.38,1.15,2.53,2.53,2.53
		s2.53-1.15,2.53-2.53v-33.36c0.84,1.15,1.3,2.61,1.3,4.14v6.37c0,1.15,0.92,2.07,2.07,2.07c1.15,0,2.07-0.92,2.07-2.07v-6.37
		C-5328.32,908.71-5333.39,903.64-5339.6,903.64z"/>
	<path d="M-5339.6,902.19c3.13,0,5.67-2.54,5.67-5.68c0-3.13-2.54-5.67-5.67-5.67c-3.13,0-5.68,2.54-5.68,5.67
		C-5345.27,899.65-5342.73,902.19-5339.6,902.19z"/>
	<path d="M-5307.39,914.92v5.83c1.33-0.33,2.72-0.53,4.14-0.58v-5.25c0.08-6.21-4.98-11.27-11.2-11.27
		c-6.21,0-11.27,5.06-11.27,11.27v6.37c0,1.15,0.92,2.07,2.07,2.07s2.07-0.92,2.07-2.07v-6.37c0-1.53,0.54-2.99,1.3-4.14v19.92
		c2.48-4.51,6.61-7.97,11.58-9.57v-10.34C-5307.85,911.93-5307.39,913.38-5307.39,914.92z"/>
	<path d="M-5314.44,902.19c3.13,0,5.67-2.54,5.67-5.68c0-3.13-2.54-5.67-5.67-5.67s-5.68,2.54-5.68,5.67
		C-5320.12,899.65-5317.58,902.19-5314.44,902.19z"/>
	<path class="st3" d="M-5320.27,944.14c0,0.49,0.15,0.96,0.4,1.35c-0.16-0.55-0.3-1.11-0.4-1.68V944.14z"/>
	<polygon class="st3" points="-5279.08,928.41 -5278.35,930.11 -5278.35,930.11 -5279.08,928.4 	"/>
	<path d="M-5313.75,933.59v10.55c0,1.38,1.15,2.53,2.53,2.53s2.53-1.15,2.53-2.53v-15.35
		C-5310.78,929.9-5312.52,931.57-5313.75,933.59z"/>
	<path class="st3" d="M-5303.56,941.23c-0.04-0.06-0.08-0.11-0.12-0.17c-0.03-0.06-0.06-0.13-0.08-0.19l-0.25,0.37H-5303.56z"/>
	<path d="M-5240.72,922.32c-1.97,0-3.86,0.33-5.64,0.91l-5.1-18.71l10.75-0.01c1.88,0,3.42,1.53,3.42,3.42
		c0,1.88-1.53,3.42-3.42,3.42c-0.76,0-1.37,0.61-1.37,1.37s0.61,1.37,1.37,1.37c3.39,0,6.15-2.76,6.15-6.15
		c0-3.39-2.76-6.15-6.15-6.15l-12.54,0.01c-0.06,0-0.12,0.03-0.18,0.04c-0.06,0.01-0.12,0-0.18,0.01c-0.03,0.01-0.05,0.03-0.08,0.04
		c-0.09,0.03-0.17,0.08-0.25,0.13c-0.07,0.04-0.14,0.08-0.21,0.14c-0.06,0.06-0.11,0.13-0.17,0.2c-0.05,0.07-0.11,0.14-0.14,0.22
		c-0.04,0.08-0.06,0.15-0.08,0.24c-0.03,0.09-0.05,0.18-0.06,0.28c0,0.03-0.02,0.06-0.02,0.09c0,0.06,0.03,0.12,0.04,0.18
		c0.01,0.06-0.01,0.12,0.01,0.18l2.93,10.74h-6.06c-0.17,0.95-0.43,1.86-0.76,2.73h5.31l-14.11,14.11c-0.21,0.88-0.3,1.77-0.24,2.72
		l0.05,1.34l16.9-16.9l1.64,6.04c-5.88,3-9.92,9.09-9.92,16.13c0,9.98,8.12,18.11,18.11,18.11c9.99,0,18.11-8.12,18.11-18.11
		C-5222.61,930.44-5230.73,922.32-5240.72,922.32z M-5240.72,955.8c-8.48,0-15.37-6.9-15.37-15.37c0-5.77,3.2-10.81,7.92-13.44
		l3.34,12.23c0,0,0,0,0,0.01c0.01,0.02,0.02,0.04,0.03,0.06c0.05,0.14,0.11,0.26,0.19,0.38c0.03,0.04,0.07,0.07,0.1,0.11
		c0.08,0.09,0.17,0.17,0.27,0.23c0.02,0.02,0.03,0.04,0.06,0.05l2.8,1.56c0.21,0.12,0.44,0.17,0.67,0.17c0.48,0,0.94-0.25,1.19-0.7
		c0.37-0.66,0.13-1.49-0.53-1.86l-2.3-1.28l-3.29-12.07c1.55-0.52,3.2-0.82,4.92-0.82c8.48,0,15.37,6.9,15.37,15.37
		C-5225.34,948.9-5232.24,955.8-5240.72,955.8z"/>
	<path d="M-5278.84,927.54l-4.55-10.55h11.13c0.75-1.05,1.25-1.93,1.56-2.73h-13.87l-3.56-8.26c1-0.09,1.98-0.18,2.84-0.26
		l-1.14-2.99l0.41-0.3l-9.11-0.82c-3.6-0.19-3.59,5.18,0,4.99c0,0,1.85-0.17,4.14-0.37l3.87,8.97l-6.4,9.48
		c-2.65-1.51-5.7-2.39-8.96-2.39c-0.36,0-0.71,0.01-1.07,0.03c-1.08,0.06-2.13,0.22-3.15,0.47c-0.68,0.16-1.35,0.36-1.99,0.6
		c-1.85,0.68-3.55,1.65-5.06,2.85c-0.51,0.41-1,0.84-1.46,1.29c-2.56,2.53-4.37,5.82-5.06,9.49c-0.21,1.09-0.32,2.22-0.32,3.37
		s0.11,2.28,0.32,3.37c0.11,0.57,0.24,1.13,0.4,1.68c2.19,7.53,9.15,13.05,17.38,13.05c9.52,0,17.33-7.39,18.04-16.74h2.55
		c0.22,0.85,0.59,1.64,1.08,2.35c0.23-1.26,0.74-2.39,1.47-3.33c-0.05-0.27-0.09-0.56-0.09-0.85c0-0.48,0.07-0.95,0.21-1.39
		l-0.08-1.09l-0.03-0.42l-0.21-2.68c-0.85,0.72-1.52,1.63-1.96,2.67c-0.27,0.63-0.46,1.3-0.55,2.01h-2.38
		c-0.39-5.18-2.96-9.76-6.81-12.82l5.42-8.03l4.03,9.35l2.16,5.01c0-1.39,0.2-2.79,0.56-4.18c0,0,0,0,0,0
		C-5279.01,928.12-5278.93,927.83-5278.84,927.54z M-5302.48,955.8c-6.36,0-11.83-3.88-14.16-9.4c-0.78-1.84-1.21-3.86-1.21-5.98
		c0-3.19,0.98-6.16,2.65-8.61c0.44-0.64,0.93-1.24,1.46-1.81c1.42-1.53,3.13-2.77,5.06-3.63c1.9-0.84,4-1.32,6.21-1.32
		c2.69,0,5.23,0.7,7.43,1.93l-8.56,12.68c-0.02,0.04-0.03,0.08-0.05,0.12c-0.04,0.08-0.08,0.17-0.11,0.26
		c-0.03,0.09-0.04,0.17-0.05,0.27c0,0.04-0.03,0.08-0.03,0.13c0,0.04,0.02,0.08,0.03,0.13c0.01,0.09,0.03,0.18,0.05,0.27
		c0,0.02,0.01,0.03,0.02,0.04c0.02,0.07,0.04,0.13,0.08,0.19c0.03,0.06,0.07,0.12,0.12,0.17c0.01,0.01,0.01,0.02,0.02,0.04
		c0.06,0.08,0.12,0.14,0.2,0.2c0.03,0.03,0.05,0.07,0.09,0.09c0.05,0.03,0.1,0.05,0.15,0.07c0.05,0.02,0.09,0.05,0.14,0.06
		c0.15,0.06,0.31,0.1,0.47,0.1h15.3C-5287.88,949.63-5294.47,955.8-5302.48,955.8z M-5299.91,939.06l7.12-10.55
		c3.13,2.55,5.23,6.3,5.61,10.55H-5299.91z"/>
	<path d="M-5262.02,917c0.42-0.88,0.76-1.78,0.98-2.73c0.21-0.89,0.33-1.82,0.33-2.81c0-5.34-3.65-10.33-11.74-10.33
		c-3.24,0-6.7,0.85-9.07,2.19c-0.35,0.2-0.68,0.41-0.98,0.62l0.54,1.42l1.14,3.01c1.76-1.34,4.57-2.18,7.1-2.18
		c4.43,0.07,6.68,2.46,6.68,6.05c0,0.69-0.1,1.37-0.26,2.03c-0.22,0.91-0.59,1.81-1.11,2.73c-0.83,1.5-2.02,3.07-3.55,4.86
		c-1.52,1.83-2.62,3.64-3.35,5.42c-0.37,0.91-0.64,1.81-0.82,2.7c-0.19,0.96-0.28,1.91-0.27,2.83c0.01,0.4,0.03,0.81,0.07,1.2
		l0.12,1.52l0.02,0.31h3.5h1.98l-0.07-1.83c0-0.05,0-0.1-0.01-0.15c-0.06-1.34,0.06-2.61,0.41-3.87c0.25-0.9,0.61-1.8,1.1-2.71
		c0.62-1.16,1.45-2.35,2.5-3.6C-5264.82,921.39-5263.12,919.28-5262.02,917z"/>
	<path d="M-5270.77,942.26c-0.71-0.63-1.63-1-2.73-1c-0.09,0-0.17,0.02-0.25,0.02c-1.37,0.07-2.51,0.72-3.2,1.76
		c-0.16,0.24-0.3,0.49-0.41,0.77c-0.23,0.56-0.35,1.19-0.35,1.87c0,2.46,1.69,4.36,4.15,4.36c0.48,0,0.93-0.07,1.34-0.19
		c1.8-0.54,2.87-2.17,2.87-4.17c0-0.25-0.03-0.49-0.06-0.72C-5269.56,943.84-5270.04,942.91-5270.77,942.26z"/>
</g>
<path class="st4" d="M818.86,1116.07v-0.51c0-1.08-0.87-1.95-1.95-1.95c-1.08,0-1.95,0.87-1.95,1.95v0.51c0,0.79,0,1.52-0.14,2.31
	h-22.84c-0.14-0.79-0.14-1.52-0.14-2.31v-0.51c0-1.08-0.87-1.95-1.95-1.95s-1.95,0.87-1.95,1.95v0.51c0,8.02,4.19,15.18,10.84,19.3
	c-7.23,3.47-10.84,7.66-10.84,12.57c0,4.91,3.69,9.11,10.84,12.57c-6.72,4.12-10.84,11.35-10.84,19.3v0.51
	c0,1.08,0.87,1.95,1.95,1.95s1.95-0.87,1.95-1.95v-0.51c0-0.79,0.07-1.52,0.14-2.31h22.91c0.07,0.79,0.07,1.52,0.07,2.31v0.51
	c0,1.08,0.87,1.95,1.95,1.95c1.08,0,1.95-0.87,1.95-1.95v-0.51c0-8.02-4.19-15.18-10.84-19.3c7.23-3.47,10.84-7.66,10.84-12.57
	c0-4.91-3.69-9.11-10.84-12.57C814.75,1131.24,818.86,1124.09,818.86,1116.07z M814.24,1121.34c-0.43,1.37-0.94,2.67-1.66,3.83
	h-18.36c-0.65-1.23-1.23-2.53-1.66-3.83H814.24z M814.96,1147.94c0,0.65-0.14,1.3-0.36,1.95h-22.4c-0.29-0.65-0.36-1.3-0.36-1.95
	s0.14-1.3,0.36-1.95h22.47C814.89,1146.64,814.96,1147.29,814.96,1147.94z M812.58,1152.85c-2.31,2.24-5.85,4.05-9.18,5.42
	c-3.32-1.3-6.87-3.11-9.18-5.42H812.58z M794.22,1143.02c2.31-2.24,5.85-4.05,9.18-5.42c3.32,1.3,6.87,3.11,9.18,5.42H794.22z
	 M792.56,1174.53c0.43-1.37,0.94-2.67,1.66-3.83h18.36c0.65,1.23,1.23,2.53,1.66,3.83H792.56z M810.48,1167.67h-14.16
	c1.88-2.17,4.26-3.97,7.08-5.13C806.22,1163.69,808.6,1165.5,810.48,1167.67z M803.4,1133.41c-2.82-1.23-5.2-2.96-7.08-5.13h14.16
	C808.6,1130.38,806.22,1132.18,803.4,1133.41z"/>
<g>
	<path class="st2" d="M58.36,37.58c0.81,0.27,1.53,0.73,2.13,1.38c0.65,0.61,1.11,1.34,1.38,2.15c0.42,0.79,0.61,1.65,0.56,2.57
		v0.15c0,0.21-0.02,0.42-0.04,0.63c2.13,0,4.24-0.02,6.37-0.02c-1.94-2.9-3.91-5.81-5.91-8.67c-0.15-0.23-0.27-0.46-0.33-0.71
		c-0.1-0.27-0.17-0.58-0.17-0.94c-0.19-17.22-0.1-6.23,0.02-22.61c-4.39-0.02-8.75,0-13.16,0c-0.52,15.88,0.04,5.6,0,22.36
		c0,0.5-0.1,0.94-0.29,1.3c-0.06,0.19-0.17,0.36-0.27,0.52c-2.05,2.9-4.07,5.85-6.08,8.82c2.17,0,4.37-0.02,6.56-0.02
		C49.1,44.23,49.1,44,49.1,43.75V43.6c0-1.19,0.31-2.3,0.92-3.34c0.36-0.44,0.69-0.9,1.04-1.34c0.84-0.81,1.82-1.38,2.95-1.69
		c0.61-0.08,1.19-0.15,1.78-0.23C56.71,36.98,57.56,37.16,58.36,37.58z M58.84,24.13c1.78,0,3.09,1.46,3.15,3.18
		c0.08,1.71-1.53,3.15-3.18,3.15c-1.78-0.02-3.09-1.46-3.15-3.18C55.58,25.57,57.19,24.13,58.84,24.13z"/>
	<path d="M60.01,56.19c-0.92,0-1.67,0.32-2.23,0.95c-0.57,0.63-0.85,1.59-0.85,2.87c0,1.26,0.29,2.21,0.87,2.86
		c0.58,0.65,1.32,0.97,2.21,0.97c0.89,0,1.63-0.32,2.2-0.97c0.57-0.64,0.86-1.61,0.86-2.9c0-1.27-0.28-2.22-0.84-2.85
		C61.67,56.51,60.93,56.19,60.01,56.19z"/>
	<path d="M48.41,62.4C48.13,62.6,48,62.85,48,63.15c0,0.3,0.11,0.56,0.33,0.77c0.22,0.22,0.5,0.33,0.85,0.33
		c0.38,0,0.75-0.13,1.1-0.38c0.26-0.19,0.43-0.43,0.51-0.7c0.06-0.18,0.08-0.53,0.08-1.04v-0.42c-0.27,0.09-0.7,0.2-1.3,0.33
		C48.98,62.16,48.59,62.28,48.41,62.4z"/>
	<path d="M87.42,64.64c-0.23-1.69-1.19-3.11-2.05-4.53c-0.79-1.3-1.61-2.59-2.42-3.89c-1.65-2.65-3.32-5.29-5.04-7.9
		c-3.28-5.06-6.64-10.05-10.07-15c-0.19-16.05-0.52-5.85,0.02-21.73c0.1,0,0.21,0,0.31,0c3.55,0.06,3.57-5.45,0.02-5.52
		c-8.42-0.15-16.82-0.1-25.24,0.13c-1.48,0.04-2.76,1.23-2.78,2.76c0,1.46,1.25,2.8,2.76,2.78c0.27,0,0.52-0.02,0.79-0.02
		c-0.13,15.42-0.21,5.43-0.02,21.48c-3.47,4.95-6.87,9.97-10.2,15.02c-1.71,2.61-3.41,5.22-5.08,7.88c-0.81,1.3-1.63,2.59-2.44,3.89
		c-0.88,1.42-1.84,2.84-2.09,4.53c-0.46,3.05,1.61,6.39,4.55,6.75c6.52,0.75,49.77,0.75,54.36,0.15
		C85.79,71.01,87.86,67.73,87.42,64.64z M44.07,65.57h-2.25l-4.48-7.24v7.24h-2.08v-11.1h2.18l4.54,7.42v-7.42h2.08V65.57z
		 M51.31,65.57c-0.06-0.14-0.12-0.35-0.2-0.63c-0.03-0.13-0.06-0.21-0.08-0.25c-0.36,0.35-0.75,0.62-1.17,0.8
		c-0.41,0.18-0.86,0.27-1.33,0.27c-0.83,0-1.48-0.22-1.96-0.67c-0.48-0.45-0.72-1.02-0.72-1.7c0-0.45,0.11-0.86,0.33-1.22
		c0.22-0.36,0.52-0.63,0.91-0.82c0.39-0.19,0.96-0.35,1.69-0.5c0.99-0.19,1.68-0.36,2.07-0.52v-0.21c0-0.41-0.1-0.7-0.3-0.88
		c-0.2-0.17-0.58-0.26-1.14-0.26c-0.38,0-0.67,0.07-0.89,0.22c-0.21,0.15-0.38,0.41-0.51,0.78l-1.93-0.35
		c0.22-0.78,0.59-1.35,1.12-1.73c0.53-0.37,1.32-0.56,2.36-0.56c0.95,0,1.66,0.11,2.12,0.34c0.46,0.22,0.79,0.51,0.98,0.86
		c0.19,0.35,0.28,0.98,0.28,1.9l-0.02,2.48c0,0.71,0.03,1.23,0.1,1.56c0.07,0.34,0.2,0.7,0.38,1.08H51.31z M51.07,38.92
		c-0.36,0.44-0.69,0.9-1.04,1.34c-0.61,1.04-0.92,2.15-0.92,3.34v0.15c0,0.25,0,0.48,0.02,0.73c-2.19,0-4.39,0.02-6.56,0.02
		c2.01-2.97,4.03-5.91,6.08-8.82c0.1-0.17,0.21-0.33,0.27-0.52c0.19-0.36,0.29-0.79,0.29-1.3c0.04-16.76-0.52-6.48,0-22.36
		c4.41,0,8.77-0.02,13.16,0c-0.13,16.38-0.21,5.39-0.02,22.61c0,0.36,0.06,0.67,0.17,0.94c0.06,0.25,0.19,0.48,0.33,0.71
		c2.01,2.86,3.97,5.77,5.91,8.67c-2.13,0-4.24,0.02-6.37,0.02c0.02-0.21,0.04-0.42,0.04-0.63v-0.15c0.04-0.92-0.15-1.78-0.56-2.57
		c-0.27-0.81-0.73-1.55-1.38-2.15c-0.61-0.65-1.32-1.11-2.13-1.38c-0.79-0.42-1.65-0.61-2.57-0.59c-0.59,0.08-1.17,0.15-1.78,0.23
		C52.88,37.54,51.9,38.11,51.07,38.92z M63.92,64.24c-0.97,1.01-2.28,1.52-3.91,1.52c-1.65,0-2.96-0.5-3.94-1.51
		s-1.46-2.39-1.46-4.16c0-1.13,0.17-2.08,0.51-2.85c0.25-0.57,0.6-1.07,1.03-1.52s0.92-0.78,1.44-1c0.69-0.29,1.49-0.44,2.39-0.44
		c1.64,0,2.95,0.51,3.93,1.52c0.98,1.01,1.47,2.43,1.47,4.23C65.39,61.82,64.9,63.23,63.92,64.24z M76.02,65.57h-2.24v-4.86h-4.39
		v4.86h-2.24v-11.1h2.24v4.37h4.39v-4.37h2.24V65.57z"/>
	<path d="M58.82,30.46c1.65,0,3.26-1.44,3.18-3.15c-0.06-1.71-1.38-3.18-3.15-3.18c-1.65,0-3.26,1.44-3.18,3.15
		C55.72,29,57.04,30.44,58.82,30.46z"/>
	<path d="M62.21,62.88c-0.57,0.64-1.31,0.97-2.2,0.97c-0.89,0-1.63-0.32-2.21-0.97c-0.58-0.65-0.87-1.6-0.87-2.86
		c0-1.28,0.28-2.23,0.85-2.87c0.56-0.63,1.31-0.95,2.23-0.95c0.92,0,1.67,0.31,2.22,0.94c0.56,0.63,0.84,1.58,0.84,2.85
		C63.07,61.27,62.78,62.23,62.21,62.88z"/>
</g>
</svg>
