<?xml version="1.0" encoding="utf-8"?>
<!-- Generator: Adobe Illustrator 28.1.0, SVG Export Plug-In . SVG Version: 6.00 Build 0)  -->
<svg version="1.1" id="Layer_1" xmlns="http://www.w3.org/2000/svg" xmlns:xlink="http://www.w3.org/1999/xlink" x="0px" y="0px"
	 viewBox="0 0 110.55 76.54" style="enable-background:new 0 0 110.55 76.54;" xml:space="preserve">
<style type="text/css">
	.st0{display:none;}
	.st1{display:inline;fill:none;}
	.st2{fill:#231F20;}
</style>
<g id="Layer_2_00000073722119373351752270000017113015111246931634_" class="st0">
	<line class="st1" x1="-24.13" y1="74.54" x2="142.13" y2="74.54"/>
	<line class="st1" x1="-24.13" y1="2" x2="142.13" y2="2"/>
</g>
<g>
	<path d="M-6205.14,2572.35c2.38-0.86,3.64-3.44,2.84-5.82s-3.44-3.64-5.82-2.84c-2.38,0.79-3.64,3.44-2.84,5.82
		C-6210.17,2571.96-6207.52,2573.21-6205.14,2572.35z"/>
	<path d="M-6194.76,2567.33c0.07-0.26,0.07-0.53,0.13-0.79c0.13-1.12-0.73-2.18-1.85-2.32c-0.2,0-0.4,0-0.6,0
		c-1.46-1.72-2.98-3.37-4.76-4.9c-0.46-0.4-1.12-0.33-1.52,0.13c-0.4,0.46-0.33,1.12,0.13,1.52c1.65,1.39,3.11,2.98,4.5,4.63
		c-0.07,0.13-0.07,0.26-0.07,0.46c-0.66,5.89-2.45,6.48-9.2,8.67c-0.99,0.33-1.59,1.39-1.39,2.38c0,0,0.79,5.23,1.59,8.93
		c0.4,1.92,1.59,3.18,3.31,3.64l0.99,4.7l-2.12,4.83c-0.53,1.19,0,2.58,1.19,3.18c0.33,0.13,0.66,0.2,0.99,0.2
		c0.93,0,1.79-0.53,2.18-1.39l2.45-5.49c0.2-0.46,0.26-0.99,0.13-1.46l-0.99-4.7l3.04-0.46l2.32,3.64c0.46,0.73,1.26,1.12,2.05,1.12
		c0.46,0,0.86-0.13,1.26-0.4c1.12-0.73,1.46-2.18,0.73-3.31l-3.18-4.96c-0.53-0.79-1.46-1.26-2.38-1.06l-4.43,0.66l-0.73-8.2
		c2.71-1.32,4.56-3.04,5.62-6.35c11.31,18.06,10.78,43.6,10.78,43.86c0,0.6,0.46,1.06,1.06,1.12l0,0c0.6,0,1.06-0.46,1.06-1.06
		c0-0.4,0.2-9.46-2.05-20.77C-6186.02,2585.58-6189,2575.66-6194.76,2567.33z"/>
	<path d="M-6150.23,2607.15h-26.33v-41.88c0-0.6-0.46-1.06-1.06-1.06c-0.6,0-1.06,0.46-1.06,1.06v48.89c0,0.6,0.46,1.06,1.06,1.06
		h27.39c0.6,0,1.06-0.46,1.06-1.06v-5.95C-6149.17,2607.61-6149.64,2607.15-6150.23,2607.15z"/>
	<path d="M-6187.81,2561.17c0.2,0,0.46-0.07,0.6-0.2c3.31-2.38,7.41-3.57,11.51-3.37l-1.19,1.06c-0.46,0.4-0.46,1.06-0.13,1.52
		c0.2,0.26,0.53,0.4,0.79,0.4s0.53-0.07,0.73-0.26l3.24-2.78c0.46-0.4,0.46-1.06,0.13-1.52l-2.78-3.24
		c-0.4-0.46-1.06-0.46-1.52-0.13c-0.46,0.4-0.46,1.06-0.13,1.52l1.12,1.26c-4.63-0.2-9.2,1.12-12.97,3.77
		c-0.46,0.33-0.6,0.99-0.26,1.52C-6188.47,2560.97-6188.14,2561.17-6187.81,2561.17z"/>
</g>
<g>
	<path class="st2" d="M96.58,26.9l-20.7-15.36c-0.94-0.7-2.28-0.5-2.98,0.44L63.02,25.3c-0.7,0.94-0.5,2.28,0.44,2.98l8.84,6.56
		c-0.85,1.12-1.7,2.25-2.55,3.37c-1.42,1.88-2.85,3.75-4.29,5.61c-0.13,0.17-0.41,0.35-0.6,0.33c-0.77-0.07-1.3,0.25-1.74,0.83
		c-0.56,0.75-1.12,1.5-1.68,2.25c0.32,0.08,0.65,0.15,0.97,0.26l0.43-0.16l0.83,0.48c1.4,0.35,2.56,1.27,3.47,2.73
		c0.5-0.67,1.01-1.34,1.51-2.01c0.31-0.41,0.42-0.87,0.17-1.28c-0.3-0.49-0.08-0.79,0.19-1.16c2.21-2.92,4.41-5.85,6.62-8.77
		l8.52,6.33c0.94,0.7,2.28,0.5,2.98-0.44l9.89-13.32C97.72,28.94,97.53,27.6,96.58,26.9z"/>
	<path class="st2" d="M49.2,65.56l-0.84-0.87c-0.91,1.21-1.81,2.42-2.72,3.62c-0.7,0.93-0.63,1.65,0.26,2.37
		c0.81,0.65,1.64,1.27,2.5,1.85c1.04,0.7,1.88,0.52,2.64-0.48c0.34-0.45,0.65-0.91,0.98-1.36c0.56-0.75,1.12-1.5,1.68-2.25
		C52.25,68.05,50.35,67.39,49.2,65.56z"/>
	<path class="st2" d="M62.9,50.25c-0.11-0.02-0.2-0.06-0.29-0.11c-0.13,0.05-0.26,0.07-0.35,0.03c-1.59-0.7-3.31-0.79-5.06-0.78
		c-1.35,0.02-2.73,0.2-4.05,0.04c-2.21-0.27-4.15-1.36-6.09-2.37c-2.67-1.39-16.23-7.85-18.85-9.36c-1.22-0.7-2.37-1.53-3.55-2.3
		l-5.53,14.51c1.47,0.4,14.16,5.06,15.63,5.47c2.42,0.67,4.85,1.31,7.25,2.03c1.96,0.59,3.98,1.12,5.54,2.57
		c1.28,1.19,2.42,2.59,3.62,3.9c0,0,0,0,0,0.01c0.05,0.06,0.1,0.12,0.15,0.2c0.97,1.68,3.24,1.79,4.83,2.37
		c0.1,0.04,0.18,0.08,0.25,0.14c1.14,0.21,1.35-0.08,2.08-1.2c0.57,0.21,1.12,0.58,1.8,0.05c0.65-0.51,0.87-1.21,0.86-2.07
		c0.66,0.39,1.27,0.65,1.96,0.04c0.8-0.71,1-1.62,0.74-2.64c1.33,0.42,2.75-1.55,2.14-3.11c-0.39-1-0.28-1.87,0.16-2.87
		c0.01-0.02,0.02-0.04,0.02-0.05C65.59,52.65,64.61,50.58,62.9,50.25z"/>
	<path class="st2" d="M34.67,7.39c10.24-1.99,17.7-0.44,25.95,6.12c0.65,0.5,1.6,0.35,2.05-0.34c0.43-0.65,0.25-1.53-0.4-1.97
		c-4.05-2.7-8.51-5.07-13.39-5.88C44.04,4.48,39.16,5.3,34.47,6.4C33.84,6.55,34.05,7.49,34.67,7.39z"/>
	<path class="st2" d="M30.34,11.31c10.24-1.99,17.7-0.44,25.95,6.12c0.65,0.5,1.6,0.35,2.05-0.34c0.43-0.65,0.25-1.53-0.4-1.97
		c-4.05-2.7-8.51-5.07-13.39-5.88c-4.84-0.85-9.72-0.02-14.41,1.07C29.52,10.47,29.73,11.41,30.34,11.31z"/>
</g>
</svg>
