<?xml version="1.0" encoding="utf-8"?>
<!-- Generator: Adobe Illustrator 28.1.0, SVG Export Plug-In . SVG Version: 6.00 Build 0)  -->
<svg version="1.1" id="Layer_1" xmlns="http://www.w3.org/2000/svg" xmlns:xlink="http://www.w3.org/1999/xlink" x="0px" y="0px"
	 viewBox="0 0 110.55 76.54" style="enable-background:new 0 0 110.55 76.54;" xml:space="preserve">
<style type="text/css">
	.st0{display:none;}
	.st1{display:inline;fill:none;}
</style>
<g id="Layer_2_00000073722119373351752270000017113015111246931634_" class="st0">
	<line class="st1" x1="-24.13" y1="74.54" x2="142.13" y2="74.54"/>
	<line class="st1" x1="-24.13" y1="2" x2="142.13" y2="2"/>
</g>
<g>
	<g>
		<path d="M45.46,28.8c-0.92-0.07-1.82-0.03-2.7,0.06c-2.48,0.25-4.9,0.94-7.13,2.04c-0.33,0.16-0.65,0.33-0.97,0.51
			c-0.65,0.36-0.88,1.17-0.52,1.82c0,0,0,0,0,0c0.36,0.64,1.17,0.88,1.82,0.52c0.28-0.16,0.56-0.3,0.85-0.44
			c1.95-0.95,4.07-1.56,6.22-1.78c1.52-0.15,3.01-0.09,4.31,0.36c0.99,0.34,1.91,0.92,2.64,1.66c0.52,0.53,1.36,0.53,1.89,0.02
			c0,0,0,0,0,0c0.53-0.52,0.53-1.36,0.02-1.89c0,0,0,0,0,0c-1.03-1.05-2.29-1.84-3.68-2.32C47.29,29.03,46.37,28.86,45.46,28.8
			L45.46,28.8z"/>
		<path d="M44.58,32.43c-0.5-0.01-0.91,0.4-0.92,0.9c0,0,0,0,0,0l-0.42,35.54c0,0.01,0,0.03,0,0.04c0.04,1.09,0.16,2.08,0.56,2.97
			s1.14,1.65,2.17,2.08c0,0,0.01,0,0.01,0.01c1.34,0.53,2.7-0.19,3.21-1.24c0.26-0.52,0.35-1.15,0.16-1.76s-0.66-1.16-1.32-1.48
			c-0.45-0.22-1-0.02-1.21,0.43c0,0,0,0,0,0c-0.22,0.45-0.02,1,0.43,1.21c0,0,0,0,0,0c0.27,0.13,0.33,0.24,0.37,0.36
			c0.03,0.12,0.02,0.28-0.05,0.43c-0.15,0.32-0.4,0.54-0.91,0.35c-0.65-0.27-0.96-0.61-1.2-1.14c-0.24-0.53-0.36-1.3-0.4-2.28
			l0.41-35.51C45.48,32.84,45.08,32.43,44.58,32.43L44.58,32.43z"/>
		<path d="M35.76,34.63c-0.5,0-0.91,0.41-0.91,0.91c0,0,0,0,0,0l0.04,30.56c-0.09,0.93-0.38,1.37-0.63,1.62
			c-0.25,0.25-0.55,0.31-0.53,0.31c-0.4,0.05-0.58-0.02-0.7-0.1c-0.11-0.08-0.19-0.19-0.22-0.36c-0.08-0.34,0.08-0.81,0.41-1
			c0.44-0.25,0.59-0.8,0.34-1.24c-0.25-0.44-0.8-0.59-1.24-0.34c0,0,0,0,0,0c-1.1,0.63-1.53,1.87-1.28,2.98
			c0.13,0.55,0.45,1.1,0.97,1.45c0.52,0.36,1.22,0.5,1.96,0.4c0.43-0.06,1-0.26,1.57-0.82c0.57-0.56,1.05-1.47,1.17-2.76
			c0-0.03,0-0.06,0-0.08l-0.04-30.63C36.67,35.04,36.26,34.63,35.76,34.63C35.76,34.63,35.76,34.63,35.76,34.63L35.76,34.63z"/>
		<path d="M67.06,28.8c0.92-0.07,1.82-0.03,2.7,0.06c2.48,0.25,4.9,0.94,7.13,2.04c0.33,0.16,0.65,0.33,0.97,0.51
			c0.65,0.36,0.88,1.17,0.52,1.82c0,0,0,0,0,0c-0.36,0.64-1.17,0.88-1.82,0.52c-0.28-0.16-0.56-0.3-0.85-0.44
			c-1.95-0.95-4.07-1.56-6.22-1.78c-1.52-0.15-3.01-0.09-4.31,0.36c-0.99,0.34-1.91,0.92-2.64,1.66c-0.52,0.53-1.36,0.53-1.89,0.02
			c0,0,0,0,0,0c-0.53-0.52-0.53-1.36-0.02-1.89c0,0,0,0,0,0c1.03-1.05,2.29-1.84,3.68-2.32C65.22,29.03,66.14,28.86,67.06,28.8
			L67.06,28.8z"/>
		<path d="M67.94,32.43c0.5-0.01,0.91,0.4,0.92,0.9c0,0,0,0,0,0l0.42,35.54c0,0.01,0,0.03,0,0.04c-0.04,1.09-0.16,2.08-0.56,2.97
			c-0.4,0.89-1.14,1.65-2.17,2.08c0,0-0.01,0-0.01,0.01c-1.34,0.53-2.7-0.19-3.21-1.24c-0.26-0.52-0.35-1.15-0.16-1.76
			c0.18-0.61,0.66-1.16,1.32-1.48c0.45-0.22,1-0.02,1.21,0.43c0,0,0,0,0,0c0.22,0.45,0.02,1-0.43,1.21c0,0,0,0,0,0
			c-0.27,0.13-0.33,0.24-0.37,0.36c-0.03,0.12-0.02,0.28,0.05,0.43c0.15,0.32,0.4,0.54,0.91,0.35c0.65-0.27,0.96-0.61,1.2-1.14
			c0.24-0.53,0.36-1.3,0.4-2.28l-0.41-35.51C67.04,32.84,67.44,32.43,67.94,32.43L67.94,32.43z"/>
		<path d="M76.75,34.63c0.5,0,0.91,0.41,0.91,0.91c0,0,0,0,0,0L77.62,66.1c0.09,0.93,0.38,1.37,0.63,1.62
			c0.25,0.25,0.55,0.31,0.53,0.31c0.4,0.05,0.58-0.02,0.7-0.1c0.11-0.08,0.19-0.19,0.22-0.36c0.08-0.34-0.08-0.81-0.41-1
			c-0.44-0.25-0.59-0.8-0.34-1.24c0.25-0.44,0.8-0.59,1.24-0.34c0,0,0,0,0,0c1.1,0.63,1.53,1.87,1.28,2.98
			c-0.13,0.55-0.45,1.1-0.97,1.45s-1.22,0.5-1.96,0.4c-0.43-0.06-1-0.26-1.57-0.82c-0.57-0.56-1.05-1.47-1.17-2.76
			c0-0.03,0-0.06,0-0.08l0.04-30.63C75.84,35.04,76.25,34.63,76.75,34.63C76.75,34.63,76.75,34.63,76.75,34.63L76.75,34.63z"/>
	</g>
	<path d="M56.06,70.36c-3.24,0-6.44-0.45-9.52-1.35c-0.53-0.15-0.83-0.71-0.68-1.24c0.15-0.53,0.71-0.83,1.24-0.68
		c2.9,0.84,5.91,1.27,8.96,1.27c3.01,0,5.98-0.42,8.85-1.24c0.53-0.15,1.08,0.15,1.23,0.68c0.15,0.53-0.15,1.08-0.68,1.23
		C62.41,69.91,59.25,70.36,56.06,70.36z"/>
	<path d="M33.37,61.32c-0.25,0-0.49-0.09-0.69-0.27c-3.32-3.14-5.93-6.85-7.76-11.01c-1.89-4.31-2.86-8.91-2.86-13.66
		c0-18.74,15.24-33.98,33.98-33.98c18.74,0,33.98,15.24,33.98,33.98c0,9.32-3.7,18.01-10.41,24.47c-0.4,0.38-1.03,0.37-1.41-0.03
		c-0.38-0.4-0.37-1.03,0.03-1.41c6.32-6.09,9.79-14.27,9.79-23.04c0-17.64-14.35-31.99-31.99-31.99
		c-17.64,0-31.99,14.35-31.99,31.99c0,8.87,3.55,17.12,9.99,23.22c0.4,0.38,0.42,1.01,0.04,1.41C33.9,61.21,33.64,61.32,33.37,61.32
		z"/>
	<path d="M31.89,31.77c-0.12,0-0.24-0.02-0.35-0.07c-0.51-0.2-0.77-0.77-0.58-1.29c1.84-4.86,6.18-8.29,11.32-8.97
		c0.61-0.08,1.24-0.12,1.86-0.12c0.55,0,1,0.45,1,1c0,0.55-0.45,1-1,1c-0.53,0-1.07,0.04-1.6,0.1c-4.41,0.58-8.13,3.53-9.71,7.7
		C32.67,31.52,32.29,31.77,31.89,31.77z"/>
	<path d="M35.13,44.91"/>
	<path d="M42.96,22.67"/>
	<path d="M80.71,31.77c-0.4,0-0.78-0.25-0.93-0.64c-1.58-4.17-5.3-7.12-9.71-7.7c-0.53-0.07-1.06-0.1-1.6-0.1c-0.55,0-1-0.45-1-1
		c0-0.55,0.45-1,1-1c0.62,0,1.25,0.04,1.86,0.12c5.14,0.68,9.47,4.12,11.31,8.97c0.2,0.51-0.06,1.09-0.58,1.29
		C80.95,31.75,80.83,31.77,80.71,31.77z"/>
	<path d="M42.96,22.67"/>
	<ellipse cx="56.06" cy="50.8" rx="8.61" ry="11.85"/>
</g>
</svg>
