<?xml version="1.0" encoding="utf-8"?>
<!-- Generator: Adobe Illustrator 28.1.0, SVG Export Plug-In . SVG Version: 6.00 Build 0)  -->
<svg version="1.1" id="Layer_1" xmlns="http://www.w3.org/2000/svg" xmlns:xlink="http://www.w3.org/1999/xlink" x="0px" y="0px"
	 viewBox="0 0 110.55 76.54" style="enable-background:new 0 0 110.55 76.54;" xml:space="preserve">
<style type="text/css">
	.st0{display:none;}
	.st1{display:inline;fill:none;}
</style>
<g id="Layer_2_00000073722119373351752270000017113015111246931634_" class="st0">
	<line class="st1" x1="-24.13" y1="74.54" x2="142.13" y2="74.54"/>
	<line class="st1" x1="-24.13" y1="2" x2="142.13" y2="2"/>
</g>
<g>
	<path d="M-6205.14,2572.35c2.38-0.86,3.64-3.44,2.84-5.82s-3.44-3.64-5.82-2.84c-2.38,0.79-3.64,3.44-2.84,5.82
		C-6210.17,2571.96-6207.52,2573.21-6205.14,2572.35z"/>
	<path d="M-6194.76,2567.33c0.07-0.26,0.07-0.53,0.13-0.79c0.13-1.12-0.73-2.18-1.85-2.32c-0.2,0-0.4,0-0.6,0
		c-1.46-1.72-2.98-3.37-4.76-4.9c-0.46-0.4-1.12-0.33-1.52,0.13c-0.4,0.46-0.33,1.12,0.13,1.52c1.65,1.39,3.11,2.98,4.5,4.63
		c-0.07,0.13-0.07,0.26-0.07,0.46c-0.66,5.89-2.45,6.48-9.2,8.67c-0.99,0.33-1.59,1.39-1.39,2.38c0,0,0.79,5.23,1.59,8.93
		c0.4,1.92,1.59,3.18,3.31,3.64l0.99,4.7l-2.12,4.83c-0.53,1.19,0,2.58,1.19,3.18c0.33,0.13,0.66,0.2,0.99,0.2
		c0.93,0,1.79-0.53,2.18-1.39l2.45-5.49c0.2-0.46,0.26-0.99,0.13-1.46l-0.99-4.7l3.04-0.46l2.32,3.64c0.46,0.73,1.26,1.12,2.05,1.12
		c0.46,0,0.86-0.13,1.26-0.4c1.12-0.73,1.46-2.18,0.73-3.31l-3.18-4.96c-0.53-0.79-1.46-1.26-2.38-1.06l-4.43,0.66l-0.73-8.2
		c2.71-1.32,4.56-3.04,5.62-6.35c11.31,18.06,10.78,43.6,10.78,43.86c0,0.6,0.46,1.06,1.06,1.12l0,0c0.6,0,1.06-0.46,1.06-1.06
		c0-0.4,0.2-9.46-2.05-20.77C-6186.02,2585.58-6189,2575.66-6194.76,2567.33z"/>
	<path d="M-6150.23,2607.15h-26.33v-41.88c0-0.6-0.46-1.06-1.06-1.06c-0.6,0-1.06,0.46-1.06,1.06v48.89c0,0.6,0.46,1.06,1.06,1.06
		h27.39c0.6,0,1.06-0.46,1.06-1.06v-5.95C-6149.17,2607.61-6149.64,2607.15-6150.23,2607.15z"/>
	<path d="M-6187.81,2561.17c0.2,0,0.46-0.07,0.6-0.2c3.31-2.38,7.41-3.57,11.51-3.37l-1.19,1.06c-0.46,0.4-0.46,1.06-0.13,1.52
		c0.2,0.26,0.53,0.4,0.79,0.4s0.53-0.07,0.73-0.26l3.24-2.78c0.46-0.4,0.46-1.06,0.13-1.52l-2.78-3.24
		c-0.4-0.46-1.06-0.46-1.52-0.13c-0.46,0.4-0.46,1.06-0.13,1.52l1.12,1.26c-4.63-0.2-9.2,1.12-12.97,3.77
		c-0.46,0.33-0.6,0.99-0.26,1.52C-6188.47,2560.97-6188.14,2561.17-6187.81,2561.17z"/>
</g>
<g>
	<polygon points="79.78,37.18 93.6,32.01 91.61,26.68 77.78,31.85 76.12,27.41 69.3,38.06 81.44,41.63 	"/>
	<polygon points="38.18,45.43 24.31,50.5 26.26,55.84 40.13,50.78 41.76,55.24 48.66,44.63 36.55,40.97 	"/>
	<g>
		<path d="M67.57,44.18c-0.07-0.37-0.21-0.72-0.38-1.04c-1.25-5.32-3.21-10.44-5.84-15.24c0.31-0.38,0.55-0.84,0.67-1.36
			c1.36-5.9,0.79-16.92-2.2-23.31c-0.78-1.66-2.76-2.38-4.42-1.6c-1.66,0.78-2.38,2.76-1.6,4.42c2.09,4.46,2.71,12.86,1.97,17.78
			c-2.34,1.63-4.68,3.27-7.03,4.9c-5.14-1.72-12.03-6.76-14.76-10.24c-1.13-1.44-3.23-1.7-4.67-0.56c-1.44,1.13-1.7,3.23-0.56,4.67
			c3.74,4.76,12.67,11.23,19.52,12.92c0.18,0.04,0.36,0.07,0.54,0.09c1.82,3.45,3.19,7.12,4.08,10.92
			c-0.18,3.25-1.42,10.95-8.15,23.59c-0.9,1.69-0.26,3.79,1.43,4.69c0.52,0.28,1.08,0.41,1.63,0.41c1.24,0,2.44-0.67,3.07-1.84
			C56,63.7,58.26,56.46,59.2,51.53c0.76-0.08,1.53-0.16,2.29-0.24c0.42,4.3,0.86,11.06,0.86,20.47c0,1.92,1.55,3.47,3.47,3.47
			s3.47-1.55,3.47-3.47C69.3,53.15,67.61,44.41,67.57,44.18z"/>
		<ellipse transform="matrix(0.8738 -0.4864 0.4864 0.8738 -3.7487 25.9064)" cx="48.03" cy="20.17" rx="6.24" ry="6.24"/>
	</g>
</g>
</svg>
