<?xml version="1.0" encoding="utf-8"?>
<!-- Generator: Adobe Illustrator 28.1.0, SVG Export Plug-In . SVG Version: 6.00 Build 0)  -->
<svg version="1.1" id="Layer_1" xmlns="http://www.w3.org/2000/svg" xmlns:xlink="http://www.w3.org/1999/xlink" x="0px" y="0px"
	 viewBox="0 0 110.55 76.54" style="enable-background:new 0 0 110.55 76.54;" xml:space="preserve">
<style type="text/css">
	.st0{display:none;}
	.st1{display:inline;fill:none;}
</style>
<g id="Layer_2_00000073722119373351752270000017113015111246931634_" class="st0">
	<line class="st1" x1="-24.13" y1="74.54" x2="142.13" y2="74.54"/>
	<line class="st1" x1="-24.13" y1="2" x2="142.13" y2="2"/>
</g>
<g>
	<path d="M37.84,36.73c1.33,0,2.65-0.23,3.91-0.69l7.58,19.71c0.28,0.81,1.17,1.23,1.97,0.94c0.81-0.28,1.23-1.17,0.94-1.97
		c-0.01-0.03-0.02-0.06-0.03-0.08l-7.74-20.07c2.03-1.46,3.47-3.59,4.08-6.02c0.21-0.83-0.29-1.67-1.11-1.89
		c-0.83-0.21-1.67,0.29-1.89,1.11c-0.93,3.49-4.12,5.89-7.74,5.82c-4.26,0.11-7.8-3.24-7.93-7.5c0.03-2.88,1.72-5.49,4.33-6.7
		c0.5-0.24,0.83-0.74,0.87-1.29c0.42-4.57,4.3-8.04,8.89-7.94c0.35,0,0.7,0.02,1.04,0.06c0.59,0.06,1.17-0.22,1.49-0.73
		c3.4-5.31,10.46-6.86,15.77-3.46c1.39,0.89,2.57,2.07,3.46,3.46c0.31,0.51,0.89,0.79,1.49,0.73c0.35-0.04,0.7-0.06,1.04-0.06
		c4.57-0.09,8.44,3.34,8.89,7.89c0.04,0.56,0.38,1.05,0.89,1.29c2.68,1.18,4.42,3.82,4.45,6.75c-0.11,4.27-3.66,7.64-7.93,7.54
		c-0.01,0-0.01,0-0.02,0c-3.6,0.08-6.79-2.31-7.74-5.79c-0.21-0.83-1.06-1.33-1.89-1.11c-0.83,0.21-1.33,1.06-1.11,1.89
		c0.59,2.32,1.96,4.37,3.87,5.81l-7.51,19.44c-0.33,0.79,0.04,1.69,0.83,2.03c0.79,0.33,1.69-0.04,2.03-0.83
		c0.01-0.03,0.02-0.06,0.03-0.08l7.33-19.03c1.33,0.52,2.74,0.78,4.17,0.77c6.09,0,11.05-4.77,11.05-10.63
		c-0.01-3.81-2.08-7.31-5.42-9.14c-1-5.77-6.04-9.96-11.9-9.88h-0.43C63.09,0.6,53.99-0.8,47.51,3.96
		c-1.19,0.87-2.24,1.93-3.12,3.12h-0.43C38.09,7,33.04,11.23,32.09,17.03c-3.26,1.86-5.28,5.31-5.3,9.07
		C26.79,31.96,31.75,36.73,37.84,36.73z"/>
	<path d="M79.59,24.94c0-0.85-0.69-1.55-1.55-1.55c-0.85,0-1.55,0.69-1.55,1.55c-0.07,1.98-1.72,3.53-3.7,3.47
		c-0.85,0-1.55,0.69-1.55,1.55s0.69,1.55,1.55,1.55C76.48,31.56,79.52,28.63,79.59,24.94z"/>
	<path d="M35.66,24.94c0-0.85-0.69-1.55-1.55-1.55c-0.85,0-1.55,0.69-1.55,1.55c0.07,3.69,3.11,6.62,6.79,6.56
		c0.85,0,1.55-0.69,1.55-1.55s-0.69-1.55-1.55-1.55C37.38,28.47,35.73,26.92,35.66,24.94z"/>
	<path d="M49.06,14.04c0.73,0.44,1.68,0.21,2.12-0.52c0,0,0,0,0,0c1.75-2.73,5.38-3.52,8.1-1.77c0.71,0.46,1.31,1.06,1.77,1.77
		c0.44,0.74,1.38,0.98,2.12,0.54c0.74-0.44,0.98-1.38,0.54-2.12c-0.01-0.01-0.02-0.03-0.02-0.04c-2.64-4.18-8.18-5.43-12.36-2.79
		c-1.13,0.71-2.08,1.66-2.79,2.79c-0.45,0.72-0.23,1.68,0.49,2.13C49.05,14.04,49.06,14.04,49.06,14.04z"/>
	<path d="M63.7,19.38c0.46-0.72,0.24-1.68-0.48-2.14c-0.72-0.46-1.68-0.24-2.14,0.48c-0.01,0.01-0.02,0.03-0.02,0.04
		c-1.75,2.73-5.38,3.52-8.1,1.77c-0.71-0.46-1.31-1.06-1.77-1.77c-0.44-0.74-1.38-0.98-2.12-0.54c-0.74,0.44-0.98,1.38-0.54,2.12
		c0.01,0.01,0.02,0.03,0.02,0.04c2.64,4.18,8.18,5.43,12.36,2.79C62.03,21.46,62.99,20.51,63.7,19.38z"/>
	<path d="M54.64,30.44v15.47c0,0.85,0.69,1.55,1.55,1.55s1.55-0.69,1.55-1.55V30.44c0-0.85-0.69-1.55-1.55-1.55
		S54.64,29.59,54.64,30.44z"/>
	<path d="M79.39,72.31h-6.75l7.06-6.92c0.61-0.6,0.62-1.58,0.02-2.19c-0.38-0.39-0.94-0.55-1.46-0.42L64.91,66v-6.84
		c0-0.85-0.7-1.54-1.55-1.54c-0.4,0-0.78,0.16-1.07,0.43l-6.34,6.19l-6.19-6.19c-0.58-0.62-1.56-0.66-2.19-0.07
		c-0.33,0.3-0.5,0.73-0.49,1.18l-0.1,7.3l-11.35-2.51c-0.83-0.18-1.66,0.35-1.84,1.18c-0.11,0.5,0.04,1.03,0.4,1.4l5.53,5.77h-8.29
		c-0.85,0-1.55,0.69-1.55,1.55c0,0.85,0.69,1.55,1.55,1.55h47.96c0.85,0,1.55-0.69,1.55-1.55C80.94,73,80.25,72.31,79.39,72.31z"/>
</g>
</svg>
