<?xml version="1.0" encoding="utf-8"?>
<!-- Generator: Adobe Illustrator 28.1.0, SVG Export Plug-In . SVG Version: 6.00 Build 0)  -->
<svg version="1.1" id="Layer_1" xmlns="http://www.w3.org/2000/svg" xmlns:xlink="http://www.w3.org/1999/xlink" x="0px" y="0px"
	 viewBox="0 0 110.55 76.54" style="enable-background:new 0 0 110.55 76.54;" xml:space="preserve">
<style type="text/css">
	.st0{display:none;}
	.st1{display:inline;fill:none;}
</style>
<g id="Layer_2_00000073722119373351752270000017113015111246931634_" class="st0">
	<line class="st1" x1="-24.13" y1="74.54" x2="142.13" y2="74.54"/>
	<line class="st1" x1="-24.13" y1="2" x2="142.13" y2="2"/>
</g>
<g>
	<path d="M-6205.14,2572.35c2.38-0.86,3.64-3.44,2.84-5.82s-3.44-3.64-5.82-2.84c-2.38,0.79-3.64,3.44-2.84,5.82
		C-6210.17,2571.96-6207.52,2573.21-6205.14,2572.35z"/>
	<path d="M-6194.76,2567.33c0.07-0.26,0.07-0.53,0.13-0.79c0.13-1.12-0.73-2.18-1.85-2.32c-0.2,0-0.4,0-0.6,0
		c-1.46-1.72-2.98-3.37-4.76-4.9c-0.46-0.4-1.12-0.33-1.52,0.13c-0.4,0.46-0.33,1.12,0.13,1.52c1.65,1.39,3.11,2.98,4.5,4.63
		c-0.07,0.13-0.07,0.26-0.07,0.46c-0.66,5.89-2.45,6.48-9.2,8.67c-0.99,0.33-1.59,1.39-1.39,2.38c0,0,0.79,5.23,1.59,8.93
		c0.4,1.92,1.59,3.18,3.31,3.64l0.99,4.7l-2.12,4.83c-0.53,1.19,0,2.58,1.19,3.18c0.33,0.13,0.66,0.2,0.99,0.2
		c0.93,0,1.79-0.53,2.18-1.39l2.45-5.49c0.2-0.46,0.26-0.99,0.13-1.46l-0.99-4.7l3.04-0.46l2.32,3.64c0.46,0.73,1.26,1.12,2.05,1.12
		c0.46,0,0.86-0.13,1.26-0.4c1.12-0.73,1.46-2.18,0.73-3.31l-3.18-4.96c-0.53-0.79-1.46-1.26-2.38-1.06l-4.43,0.66l-0.73-8.2
		c2.71-1.32,4.56-3.04,5.62-6.35c11.31,18.06,10.78,43.6,10.78,43.86c0,0.6,0.46,1.06,1.06,1.12l0,0c0.6,0,1.06-0.46,1.06-1.06
		c0-0.4,0.2-9.46-2.05-20.77C-6186.02,2585.58-6189,2575.66-6194.76,2567.33z"/>
	<path d="M-6150.23,2607.15h-26.33v-41.88c0-0.6-0.46-1.06-1.06-1.06c-0.6,0-1.06,0.46-1.06,1.06v48.89c0,0.6,0.46,1.06,1.06,1.06
		h27.39c0.6,0,1.06-0.46,1.06-1.06v-5.95C-6149.17,2607.61-6149.64,2607.15-6150.23,2607.15z"/>
	<path d="M-6187.81,2561.17c0.2,0,0.46-0.07,0.6-0.2c3.31-2.38,7.41-3.57,11.51-3.37l-1.19,1.06c-0.46,0.4-0.46,1.06-0.13,1.52
		c0.2,0.26,0.53,0.4,0.79,0.4s0.53-0.07,0.73-0.26l3.24-2.78c0.46-0.4,0.46-1.06,0.13-1.52l-2.78-3.24
		c-0.4-0.46-1.06-0.46-1.52-0.13c-0.46,0.4-0.46,1.06-0.13,1.52l1.12,1.26c-4.63-0.2-9.2,1.12-12.97,3.77
		c-0.46,0.33-0.6,0.99-0.26,1.52C-6188.47,2560.97-6188.14,2561.17-6187.81,2561.17z"/>
</g>
<g>
	<path d="M85.34,6.97h-15.9V5.79c0-1.95-1.58-3.54-3.54-3.54H46.88c-1.95,0-3.54,1.58-3.54,3.54v1.18h-9.25
		c-1.95,0-3.54,1.59-3.54,3.54c0,1.95,1.58,3.54,3.54,3.54h1.27v43.82c-4.51,0.62-7.67,4.78-7.05,9.29s4.78,7.67,9.29,7.05
		c0.08-0.01,0.16-0.02,0.24-0.04c0.04,0,0.07,0.02,0.1,0.02h30.6c3.23-0.01,5.85-2.61,5.87-5.84l0.16-39.42l9.21-14.88h1.56
		c1.95,0,3.54-1.58,3.54-3.54S87.3,6.97,85.34,6.97L85.34,6.97z M45.7,5.79c0-0.65,0.53-1.18,1.18-1.18h19.02
		c0.65,0,1.18,0.53,1.18,1.18v1.18H45.7L45.7,5.79z M30.65,66.03c0-3.26,2.64-5.9,5.9-5.9s5.9,2.64,5.9,5.9c0,3.26-2.64,5.9-5.9,5.9
		C33.29,71.92,30.65,69.28,30.65,66.03z M73.2,26.66l-0.59,0.96l-0.22,0.36c-0.11,0.19-0.18,0.4-0.18,0.62l-0.16,39.75
		c-0.01,1.93-1.58,3.49-3.51,3.49H42.41c3.21-3.23,3.19-8.45-0.04-11.65c-1.26-1.25-2.89-2.06-4.64-2.31V14.05h30.46h0.93h11.89
		L73.2,26.66z M85.34,11.69H34.09c-0.65,0-1.18-0.53-1.18-1.18s0.53-1.18,1.18-1.18h51.25c0.65,0,1.18,0.53,1.18,1.18
		S85.99,11.69,85.34,11.69z M36.54,62.49c-1.95,0-3.54,1.58-3.54,3.54c0,1.95,1.58,3.54,3.54,3.54c1.95,0,3.54-1.58,3.54-3.54
		C40.08,64.08,38.5,62.49,36.54,62.49z M36.54,67.21c-0.65,0-1.18-0.53-1.18-1.18c0-0.65,0.53-1.18,1.18-1.18s1.18,0.53,1.18,1.18
		C37.72,66.68,37.2,67.21,36.54,67.21z"/>
</g>
</svg>
