<?xml version="1.0" encoding="utf-8"?>
<!-- Generator: Adobe Illustrator 28.1.0, SVG Export Plug-In . SVG Version: 6.00 Build 0)  -->
<svg version="1.1" id="Layer_1" xmlns="http://www.w3.org/2000/svg" xmlns:xlink="http://www.w3.org/1999/xlink" x="0px" y="0px"
	 viewBox="0 0 110.55 76.54" style="enable-background:new 0 0 110.55 76.54;" xml:space="preserve">
<style type="text/css">
	.st0{display:none;}
	.st1{display:inline;fill:none;}
</style>
<g id="Layer_2_00000073722119373351752270000017113015111246931634_" class="st0">
	<line class="st1" x1="-24.13" y1="74.54" x2="142.13" y2="74.54"/>
	<line class="st1" x1="-24.13" y1="2" x2="142.13" y2="2"/>
</g>
<g>
	<path d="M-6205.14,2572.35c2.38-0.86,3.64-3.44,2.84-5.82s-3.44-3.64-5.82-2.84c-2.38,0.79-3.64,3.44-2.84,5.82
		C-6210.17,2571.96-6207.52,2573.21-6205.14,2572.35z"/>
	<path d="M-6194.76,2567.33c0.07-0.26,0.07-0.53,0.13-0.79c0.13-1.12-0.73-2.18-1.85-2.32c-0.2,0-0.4,0-0.6,0
		c-1.46-1.72-2.98-3.37-4.76-4.9c-0.46-0.4-1.12-0.33-1.52,0.13c-0.4,0.46-0.33,1.12,0.13,1.52c1.65,1.39,3.11,2.98,4.5,4.63
		c-0.07,0.13-0.07,0.26-0.07,0.46c-0.66,5.89-2.45,6.48-9.2,8.67c-0.99,0.33-1.59,1.39-1.39,2.38c0,0,0.79,5.23,1.59,8.93
		c0.4,1.92,1.59,3.18,3.31,3.64l0.99,4.7l-2.12,4.83c-0.53,1.19,0,2.58,1.19,3.18c0.33,0.13,0.66,0.2,0.99,0.2
		c0.93,0,1.79-0.53,2.18-1.39l2.45-5.49c0.2-0.46,0.26-0.99,0.13-1.46l-0.99-4.7l3.04-0.46l2.32,3.64c0.46,0.73,1.26,1.12,2.05,1.12
		c0.46,0,0.86-0.13,1.26-0.4c1.12-0.73,1.46-2.18,0.73-3.31l-3.18-4.96c-0.53-0.79-1.46-1.26-2.38-1.06l-4.43,0.66l-0.73-8.2
		c2.71-1.32,4.56-3.04,5.62-6.35c11.31,18.06,10.78,43.6,10.78,43.86c0,0.6,0.46,1.06,1.06,1.12l0,0c0.6,0,1.06-0.46,1.06-1.06
		c0-0.4,0.2-9.46-2.05-20.77C-6186.02,2585.58-6189,2575.66-6194.76,2567.33z"/>
	<path d="M-6150.23,2607.15h-26.33v-41.88c0-0.6-0.46-1.06-1.06-1.06c-0.6,0-1.06,0.46-1.06,1.06v48.89c0,0.6,0.46,1.06,1.06,1.06
		h27.39c0.6,0,1.06-0.46,1.06-1.06v-5.95C-6149.17,2607.61-6149.64,2607.15-6150.23,2607.15z"/>
	<path d="M-6187.81,2561.17c0.2,0,0.46-0.07,0.6-0.2c3.31-2.38,7.41-3.57,11.51-3.37l-1.19,1.06c-0.46,0.4-0.46,1.06-0.13,1.52
		c0.2,0.26,0.53,0.4,0.79,0.4s0.53-0.07,0.73-0.26l3.24-2.78c0.46-0.4,0.46-1.06,0.13-1.52l-2.78-3.24
		c-0.4-0.46-1.06-0.46-1.52-0.13c-0.46,0.4-0.46,1.06-0.13,1.52l1.12,1.26c-4.63-0.2-9.2,1.12-12.97,3.77
		c-0.46,0.33-0.6,0.99-0.26,1.52C-6188.47,2560.97-6188.14,2561.17-6187.81,2561.17z"/>
</g>
<g>
	<path d="M77.78,61.77c0.01-0.03,0.02-0.05,0.03-0.08c0.01-0.05,0.02-0.09,0.03-0.14c0-0.02,0.01-0.05,0.01-0.07
		c0.01-0.07,0.01-0.15,0.01-0.22c0-0.95-0.01-2.53-12.07-3.21V47.44c0.72-0.54,1.15-1.38,1.15-2.28V29.64
		c0-0.08-0.01-0.17-0.03-0.25c0.02-0.11,0.03-0.22,0.03-0.32c0-2.19-3.63-2.99-6.52-3.28c0.66-0.44,1.23-0.99,1.7-1.63
		c1.59-2.17,1.82-5.06,0.6-7.46c-0.43-0.8-0.93-1.56-1.5-2.27c-0.37-0.48-0.72-0.98-1.03-1.49c-0.71-1.22-1.33-2.49-1.84-3.8
		c-0.22-0.6-0.88-0.9-1.47-0.69c-0.3,0.11-0.54,0.34-0.67,0.63c-0.59,1.31-1.26,2.59-2.01,3.81c-0.31,0.48-0.64,0.94-0.99,1.38
		c-0.6,0.73-1.13,1.51-1.58,2.34c-1.36,2.65-0.91,5.86,1.11,8.04c0.39,0.43,0.83,0.8,1.32,1.12c-2.92,0.28-6.65,1.07-6.65,3.3
		c0,0.11,0.01,0.22,0.03,0.32c-0.02,0.08-0.03,0.17-0.03,0.25v18.39c0,0.9,0.43,1.75,1.15,2.28v7.72
		c-12.07,0.68-12.07,2.26-12.07,3.22c0,0.07,0,0.15,0.01,0.22c0,0.02,0.01,0.05,0.01,0.07c0.01,0.05,0.02,0.1,0.03,0.14
		c0.01,0.03,0.02,0.06,0.03,0.08c0.01,0.04,0.03,0.08,0.05,0.12c0.01,0.03,0.03,0.06,0.05,0.09c0.01,0.03,0.03,0.05,0.04,0.08
		l1.97,5.42c1.66,4.54,5.97,7.56,10.8,7.57h15.39c4.83-0.01,9.14-3.03,10.8-7.57l1.97-5.42c0.02-0.03,0.03-0.05,0.04-0.08
		c0.02-0.03,0.03-0.06,0.05-0.09C77.75,61.85,77.77,61.81,77.78,61.77z M74.02,61.25c-0.02,0-0.04,0.01-0.06,0.01
		c-0.14,0.03-0.29,0.06-0.44,0.08c-0.04,0.01-0.08,0.02-0.12,0.02c-0.18,0.03-0.36,0.06-0.56,0.09c-0.03,0-0.06,0.01-0.1,0.01
		c-0.18,0.03-0.38,0.06-0.58,0.09c-0.03,0-0.07,0.01-0.1,0.01c-0.22,0.03-0.46,0.06-0.7,0.09c-0.04,0.01-0.08,0.01-0.12,0.02
		c-0.24,0.03-0.48,0.06-0.73,0.09l-0.05,0.01c-0.27,0.03-0.55,0.06-0.84,0.09c-0.05,0-0.09,0.01-0.14,0.01
		c-0.58,0.06-1.2,0.11-1.85,0.16c-0.06,0-0.11,0.01-0.17,0.01c-0.33,0.02-0.66,0.05-1.01,0.07l-0.04,0
		c-0.2,0.01-0.41,0.02-0.62,0.04v-1.82C68.55,60.46,71.3,60.76,74.02,61.25z M62.74,62.3c-0.38,0.01-0.78,0.03-1.17,0.04
		c-0.08,0-0.16,0-0.24,0.01c-0.37,0.01-0.74,0.02-1.12,0.02c-0.05,0-0.1,0-0.15,0c-0.41,0.01-0.83,0.01-1.26,0.02
		c-0.1,0-0.2,0-0.3,0c-0.44,0-0.88,0.01-1.33,0.01c-0.45,0-0.89,0-1.33-0.01c-0.1,0-0.2,0-0.3,0c-0.42,0-0.84-0.01-1.26-0.02
		c-0.05,0-0.1,0-0.15,0c-0.38-0.01-0.75-0.02-1.12-0.02c-0.08,0-0.16,0-0.25-0.01c-0.4-0.01-0.78-0.02-1.17-0.04
		c-0.07,0-0.13,0-0.2-0.01c-0.19-0.01-0.37-0.02-0.56-0.02V50.85c1.34-0.27,2.3-1.45,2.3-2.82v-4.02c0-0.32,0.26-0.57,0.57-0.57
		h0.43c0.32,0,0.57,0.26,0.57,0.57c0,1.59,1.29,2.87,2.87,2.87h0.22c1.47,0,2.65-1.19,2.66-2.66v-0.44c0-0.2,0.16-0.36,0.36-0.36
		c0.2,0,0.36,0.16,0.36,0.36v1.37c0,1.36,0.96,2.54,2.3,2.82v14.3c-0.19,0.01-0.38,0.02-0.57,0.02C62.86,62.3,62.8,62.3,62.74,62.3
		L62.74,62.3z M64.64,45.16c0,0.32-0.26,0.57-0.57,0.57c-0.32,0-0.57-0.26-0.57-0.57v-1.37c0-1.47-1.19-2.66-2.66-2.66
		s-2.66,1.19-2.66,2.66v0.44c0,0.2-0.16,0.36-0.36,0.36H57.6c-0.32,0-0.57-0.26-0.57-0.57c0-1.59-1.29-2.87-2.87-2.87h-0.43
		c-1.59,0-2.87,1.29-2.87,2.87v4.02c0,0.32-0.26,0.57-0.57,0.57c-0.32,0-0.57-0.26-0.57-0.57V31.47c2.54,0.97,6.4,1.05,7.47,1.05
		c1.07,0,4.94-0.07,7.47-1.05V45.16z M53.67,17.65c0.39-0.7,0.85-1.36,1.35-1.97c0.41-0.51,0.79-1.04,1.14-1.59
		c0.41-0.67,0.76-1.3,1.05-1.84c0.27,0.55,0.6,1.17,0.98,1.84c0.36,0.59,0.76,1.17,1.18,1.71c0.48,0.6,0.91,1.25,1.28,1.92
		c0.83,1.63,0.68,3.59-0.39,5.07c-0.48,0.69-1.16,1.21-1.95,1.5v-0.97c0-0.63-0.51-1.15-1.15-1.15c-0.63,0-1.15,0.51-1.15,1.15v0.9
		c-0.61-0.25-1.15-0.63-1.59-1.12C53.06,21.62,52.75,19.44,53.67,17.65z M56.03,27.93c0.01,0.63,0.53,1.14,1.17,1.13
		c0.62-0.01,1.12-0.51,1.13-1.13c3.19,0.12,5.28,0.69,6.07,1.13c-0.88,0.49-3.38,1.15-7.22,1.15s-6.34-0.66-7.22-1.15
		C50.75,28.63,52.84,28.05,56.03,27.93z M48.55,60.34v1.82c-0.2-0.01-0.41-0.02-0.61-0.04l-0.06,0c-0.34-0.02-0.67-0.05-1-0.07
		c-0.06,0-0.12-0.01-0.17-0.01c-0.65-0.05-1.27-0.1-1.85-0.16c-0.04,0-0.09-0.01-0.13-0.01c-0.29-0.03-0.57-0.06-0.84-0.09l-0.03,0
		c-0.26-0.03-0.52-0.06-0.76-0.09c-0.03,0-0.06-0.01-0.09-0.01c-0.25-0.03-0.49-0.06-0.72-0.1l-0.06-0.01
		c-0.22-0.03-0.44-0.06-0.64-0.1l-0.04-0.01c-0.21-0.03-0.41-0.07-0.6-0.1l-0.07-0.01c-0.19-0.03-0.36-0.07-0.53-0.1
		C43.05,60.76,45.79,60.46,48.55,60.34z M73.51,66.69c-1.33,3.63-4.78,6.05-8.64,6.05H49.48c-3.86-0.01-7.31-2.42-8.64-6.05
		l-1.18-3.24c0.02,0,0.04,0.01,0.07,0.01c0.13,0.03,0.28,0.06,0.42,0.09c0.1,0.02,0.2,0.04,0.3,0.06c0.16,0.03,0.33,0.06,0.49,0.08
		c0.11,0.02,0.22,0.04,0.33,0.06c0.19,0.03,0.39,0.06,0.59,0.09c0.11,0.02,0.21,0.03,0.33,0.05c0.32,0.04,0.67,0.09,1.03,0.13
		c4.63,0.49,9.29,0.71,13.95,0.68c4.66,0.03,9.32-0.2,13.95-0.68c0.36-0.04,0.7-0.09,1.03-0.13c0.12-0.02,0.22-0.03,0.33-0.05
		c0.2-0.03,0.41-0.06,0.59-0.09c0.12-0.02,0.22-0.04,0.33-0.06c0.17-0.03,0.34-0.06,0.49-0.08c0.11-0.02,0.2-0.04,0.3-0.06
		c0.14-0.03,0.29-0.06,0.42-0.09c0.02,0,0.05-0.01,0.07-0.01L73.51,66.69z"/>
	<path d="M57.17,6.07c0.63,0,1.15-0.51,1.15-1.15v-2.3c0-0.63-0.51-1.15-1.15-1.15c-0.63,0-1.15,0.51-1.15,1.15v2.3
		C56.02,5.56,56.54,6.07,57.17,6.07z"/>
	<path d="M50.21,7.1c0.32,0.55,1.02,0.74,1.57,0.42c0.55-0.32,0.74-1.02,0.42-1.57l-1.15-1.99c-0.32-0.55-1.02-0.74-1.57-0.42
		s-0.74,1.02-0.42,1.57l0,0L50.21,7.1z"/>
	<path d="M44.28,10.73l1.99,1.15c0.55,0.32,1.25,0.13,1.57-0.42c0.32-0.55,0.13-1.25-0.42-1.57l-1.99-1.15
		c-0.55-0.32-1.25-0.13-1.57,0.42C43.54,9.71,43.73,10.41,44.28,10.73z"/>
	<path d="M42.95,18h2.3c0.63,0,1.15-0.51,1.15-1.15s-0.51-1.15-1.15-1.15h-2.3c-0.63,0-1.15,0.51-1.15,1.15S42.31,18,42.95,18z"/>
	<path d="M46.27,21.82l-1.99,1.15c-0.55,0.32-0.74,1.02-0.42,1.57c0.32,0.55,1.02,0.74,1.57,0.42l1.99-1.15
		c0.55-0.32,0.74-1.02,0.42-1.57C47.52,21.69,46.82,21.5,46.27,21.82z"/>
	<path d="M66.93,23.81l1.99,1.15c0.55,0.32,1.25,0.13,1.57-0.42c0.32-0.55,0.13-1.25-0.42-1.57l-1.99-1.15
		c-0.55-0.32-1.25-0.13-1.57,0.42C66.19,22.79,66.38,23.49,66.93,23.81z"/>
	<path d="M67.95,16.85c0,0.63,0.51,1.15,1.15,1.15h2.3c0.63,0,1.15-0.51,1.15-1.15s-0.51-1.15-1.15-1.15h-2.3
		C68.46,15.7,67.95,16.21,67.95,16.85z"/>
	<path d="M67.5,12.04c0.2,0,0.4-0.05,0.57-0.15l1.99-1.15c0.55-0.32,0.74-1.02,0.42-1.57c-0.32-0.55-1.02-0.74-1.57-0.42l-1.99,1.15
		c-0.55,0.32-0.74,1.02-0.42,1.57C66.71,11.82,67.09,12.04,67.5,12.04z"/>
	<path d="M62.56,7.52c0.55,0.32,1.25,0.13,1.57-0.42l1.15-1.99c0.32-0.55,0.13-1.25-0.42-1.57c-0.55-0.32-1.25-0.13-1.57,0.42
		c0,0,0,0,0,0l-1.15,1.99C61.82,6.5,62.01,7.2,62.56,7.52z"/>
</g>
</svg>
