<?xml version="1.0" encoding="utf-8"?>
<!-- Generator: Adobe Illustrator 28.1.0, SVG Export Plug-In . SVG Version: 6.00 Build 0)  -->
<svg version="1.1" id="Layer_1" xmlns="http://www.w3.org/2000/svg" xmlns:xlink="http://www.w3.org/1999/xlink" x="0px" y="0px"
	 viewBox="0 0 110.55 76.54" style="enable-background:new 0 0 110.55 76.54;" xml:space="preserve">
<style type="text/css">
	.st0{display:none;}
	.st1{display:inline;fill:none;}
</style>
<g id="Layer_2_00000073722119373351752270000017113015111246931634_" class="st0">
	<line class="st1" x1="-24.13" y1="74.54" x2="142.13" y2="74.54"/>
	<line class="st1" x1="-24.13" y1="2" x2="142.13" y2="2"/>
</g>
<g>
	<path d="M32.89,23.93h45.55l-4.68,4.68c-1.65,1.65-1.65,4.23,0,5.88c0.83,0.83,1.84,1.19,2.94,1.19c1.1,0,2.11-0.37,2.94-1.19
		l11.76-11.75c0.83-0.83,1.19-1.84,1.19-2.94c0-1.1-0.46-2.2-1.19-2.94L79.63,5.01c-1.65-1.65-4.22-1.65-5.88,0
		c-1.65,1.65-1.65,4.22,0,5.88l4.68,4.68H32.89c-2.3,0-4.13,1.84-4.13,4.13C28.76,22,30.59,23.93,32.89,23.93"/>
	<path d="M97.54,42.02H21.78c-1.01,0-1.93,0.73-2.2,1.74l-2.94,10.56h9.92l-1.47,5.51h-9.92l-2.48,9.46
		c-0.37,1.47,0.73,2.94,2.2,2.94h75.77c1.01,0,1.93-0.73,2.2-1.74l2.85-10.65h-9.83l1.47-5.51h9.92l2.57-9.46
		C100.12,43.49,99.01,42.02,97.54,42.02 M43.45,59.84H30.87l1.47-5.51h12.58L43.45,59.84z M61.82,59.84H49.15l1.47-5.51H63.2
		L61.82,59.84z M80.09,59.84H67.51l1.47-5.51h12.58L80.09,59.84z"/>
</g>
</svg>
