<?xml version="1.0" encoding="utf-8"?>
<!-- Generator: Adobe Illustrator 28.1.0, SVG Export Plug-In . SVG Version: 6.00 Build 0)  -->
<svg version="1.1" id="Layer_1" xmlns="http://www.w3.org/2000/svg" xmlns:xlink="http://www.w3.org/1999/xlink" x="0px" y="0px"
	 viewBox="0 0 110.6 76.5" style="enable-background:new 0 0 110.6 76.5;" xml:space="preserve">
<style type="text/css">
	.st0{display:none;}
	.st1{display:inline;fill:none;}
</style>
<g id="Layer_2_00000073722119373351752270000017113015111246931634_" class="st0">
	<line class="st1" x1="-24.1" y1="74.5" x2="142.1" y2="74.5"/>
	<line class="st1" x1="-24.1" y1="2" x2="142.1" y2="2"/>
</g>
<g>
	<path d="M93.3,29.1h-6.4c0,0,0,0-0.1,0l1.5-2.1c-0.1-0.2-0.3-0.4-0.4-0.6c-1.4,0.9-2.7,1.8-4.4,2.9c1.4,1.4,2.5,2.5,3.6,3.7
		l0.8-0.6c-0.2-0.3-0.8-1.4-1.2-2.2c0,0,0.1,0,0.1,0h6.4c0.3,0,0.6-0.3,0.6-0.6C94,29.4,93.7,29.1,93.3,29.1z"/>
	<path d="M20.1,18.6c1,0,1.6-0.3,2-1.5l1.7-6.6c0.3-1.2,0.7-2.9,0.7-2.9s0.3,1.6,0.7,2.9l2,6.8c0.3,1,0.9,1.4,1.7,1.4
		c0.8,0,1.3-0.3,1.6-1.4l4-12.9v0h-2.4l-2.3,8.5l-0.9,3.8l-1-3.9l-2.4-8.3h-2.1l-2.2,8.1l-1.1,4.2L19,12.5l-2.3-8.1h-2.3l4,13
		C18.7,18.3,19.4,18.6,20.1,18.6z"/>
	<path d="M43.9,18.8c1.8,0,3.2-0.4,4.8-1.3h0v-3.3c-1.5,0.9-3.1,1.4-4.4,1.4c-1.6,0-2.7-0.9-2.8-2.5c0.4,0,0.7,0,0.8,0
		c4.5,0,7.5-1.9,7.5-4.8c0-2.5-2.1-4.2-5.2-4.2c-4.5,0-7.6,3.2-7.6,7.8C37,16.1,39.6,18.8,43.9,18.8z M44.1,7.3
		c0.8,0,1.4,0.6,1.4,1.3c0,1.1-1.1,1.6-3,1.6c-0.3,0-0.5,0-0.9-0.1C41.8,8.4,42.9,7.3,44.1,7.3z"/>
	<path d="M67.5,18.7c1.7,0,3.6-0.9,4.7-2.6l0.2,2.2h2.1c0,0-0.2-1.6-0.2-3.4V4.8c-1.6-0.6-2.8-0.7-4.4-0.7c-4.5,0-7.5,3.1-7.5,7.9
		C62.4,16.4,64.6,18.7,67.5,18.7z M69.6,6.2c0.8,0,1.6,0.1,2.5,0.3v4c0,3.6-1.9,5.9-4.3,5.9c-1.9,0-3.1-1.5-3.1-4.1
		C64.7,8.5,66.5,6.2,69.6,6.2z"/>
	<path d="M78.8,18.3h2.1v-5.5c0-3.9,1.7-6.5,4.2-6.5c0.4,0,0.7,0.1,1.2,0.2l0.1-2c-0.6-0.3-0.9-0.4-1.6-0.4c-1.9,0-3.1,1-4.1,3.4
		c0-1.6-0.1-2.1-0.4-3.1h-2.1C78.7,6,78.8,7.1,78.8,9V18.3z"/>
	<path d="M94,18.7c1.5,0,2.7-0.3,4-1.2v-2.2c-1.3,0.9-2.6,1.4-3.8,1.4c-2.1,0-3.5-1.5-3.8-4c0.8,0.1,1,0,1.5,0
		c4.4,0,7.1-1.7,7.1-4.7c0-2.5-1.7-4-4.6-4c-3.7,0-6.3,3.3-6.3,7.9C88.2,16.1,90.4,18.7,94,18.7z M94.5,5.9c1.3,0,2.2,1,2.2,2.1
		c0,1.7-1.9,2.9-4.7,2.9c-0.5,0-0.9,0-1.5-0.1C90.7,8.3,92.4,5.9,94.5,5.9z"/>
	<path d="M23.4,56l4,13c0.3,1,0.9,1.3,1.6,1.3c1,0,1.6-0.3,2-1.5l1.7-6.6c0.3-1.2,0.7-2.9,0.7-2.9s0.4,1.5,0.7,2.9l2,6.8
		c0.3,1,0.9,1.4,1.7,1.4c0.8,0,1.3-0.3,1.6-1.4l4-12.9H41l-2.3,8.4l-0.9,3.8l-1-3.9L34.4,56h-2.1l-2.2,8.1l-1.1,4.2L28,64.1L25.7,56
		H23.4z"/>
	<path d="M46,63.5c0,4.2,2.6,6.8,6.9,6.8c1.8,0,3.2-0.4,4.8-1.3h0v-3.3c-1.5,0.9-3.1,1.4-4.4,1.4c-1.6,0-2.7-0.9-2.8-2.5
		c0.4,0,0.7,0,0.8,0c4.5,0,7.5-1.9,7.5-4.8c0-2.5-2.1-4.2-5.2-4.2C49.1,55.7,46,58.8,46,63.5z M53.1,58.9c0.8,0,1.4,0.6,1.4,1.3
		c0,1.1-1,1.6-3,1.6c-0.3,0-0.5,0-0.9-0.1C50.8,60,51.8,58.9,53.1,58.9z"/>
	<path d="M62.4,47.8c-0.6,0-1.2,0.5-1.2,1.1c0,1,1.5,1.7,1.5,3.2c0,1.1-0.4,2-1.7,3.5l0.7,0.9c1.9-1.7,2.8-3.4,2.8-5.5
		C64.6,49.3,63.6,47.8,62.4,47.8z"/>
	<path d="M70.7,59.1c0-1.6-0.1-2.1-0.4-3.1h-2.1c0.4,1.6,0.5,2.6,0.5,4.6v9.3h2.1v-5.5c0-3.9,1.7-6.5,4.2-6.5c0.4,0,0.7,0.1,1.2,0.2
		l0.1-2c-0.6-0.3-0.9-0.4-1.6-0.4C72.9,55.7,71.7,56.7,70.7,59.1z"/>
	<path d="M81.9,64.3c4.4,0,7-1.7,7-4.7c0-2.5-1.7-4-4.5-4c-3.7,0-6.3,3.3-6.3,7.9c0,4.1,2.2,6.7,5.8,6.7c1.5,0,2.7-0.3,4-1.2v-2.2
		c-1.3,0.9-2.6,1.4-3.8,1.4c-2.1,0-3.5-1.5-3.8-4C81.1,64.3,81.3,64.3,81.9,64.3z M84.5,57.5c1.3,0,2.2,1,2.2,2.1
		c0,1.7-1.9,2.8-4.7,2.8c-0.5,0-0.8,0-1.5-0.1C80.6,59.9,82.3,57.5,84.5,57.5z"/>
	<path d="M26.9,28.4c-0.3,0-0.6,0.3-0.6,0.6c0,0.3,0.3,0.6,0.6,0.6h6.4c0.1,0,0.1,0,0.2,0c-0.4,0.7-1.1,1.9-1.2,2.2l0.8,0.6
		c1.1-1.2,2.3-2.3,3.6-3.7c-1.6-1.1-3-2-4.4-2.9c-0.1,0.2-0.3,0.4-0.4,0.6l1.5,2.1c0,0,0,0-0.1,0H26.9z"/>
	<path d="M48.5,22.7c0-0.3-0.2-0.5-0.5-0.5H14.9c-0.3,0-0.5,0.2-0.5,0.5c0,0.3,0.2,0.5,0.5,0.5H48C48.3,23.2,48.5,23,48.5,22.7z"/>
	<path d="M58.9,73.5H23.7c-0.3,0-0.5,0.2-0.5,0.5c0,0.3,0.2,0.5,0.5,0.5h35.2c0.3,0,0.5-0.2,0.5-0.5C59.4,73.7,59.2,73.5,58.9,73.5z
		"/>
	<path d="M98.9,22.2H78.7c-0.3,0-0.5,0.2-0.5,0.5c0,0.3,0.2,0.5,0.5,0.5h20.1c0.3,0,0.5-0.2,0.5-0.5C99.4,22.4,99.2,22.2,98.9,22.2z
		"/>
	<path d="M88.8,73.5H68.1c-0.3,0-0.5,0.2-0.5,0.5c0,0.3,0.2,0.5,0.5,0.5h20.7c0.3,0,0.5-0.2,0.5-0.5C89.3,73.7,89.1,73.5,88.8,73.5z
		"/>
	<path d="M68.6,41.4c-0.1-0.2-0.3-0.4-0.4-0.6l-2.7,1l4.5-19c0.1-0.3-0.1-0.5-0.4-0.6c-0.3-0.1-0.5,0.1-0.6,0.4l-4.5,19
		c-0.6-0.6-1.6-1.6-1.8-1.9l-0.8,0.6c0.8,1.4,1.6,2.9,2.6,4.6C66,43.5,67.3,42.5,68.6,41.4z"/>
</g>
</svg>
