<?xml version="1.0" encoding="utf-8"?>
<!-- Generator: Adobe Illustrator 28.1.0, SVG Export Plug-In . SVG Version: 6.00 Build 0)  -->
<svg version="1.1" id="Layer_1" xmlns="http://www.w3.org/2000/svg" xmlns:xlink="http://www.w3.org/1999/xlink" x="0px" y="0px"
	 viewBox="0 0 110.55 76.54" style="enable-background:new 0 0 110.55 76.54;" xml:space="preserve">
<style type="text/css">
	.st0{display:none;}
	.st1{display:inline;fill:none;}
</style>
<g id="Layer_2_00000073722119373351752270000017113015111246931634_" class="st0">
	<line class="st1" x1="-24.13" y1="74.54" x2="142.13" y2="74.54"/>
	<line class="st1" x1="-24.13" y1="2" x2="142.13" y2="2"/>
</g>
<path d="M91.23,15.33V5.46c0-1.05-0.86-1.91-1.91-1.91H23.7c-1.05,0-1.91,0.86-1.91,1.91v25.96c0,0.93,0.66,1.72,1.57,1.88
	l6.35,1.12c0.37,0.07,0.56,0.31,0.64,0.45c0.08,0.14,0.2,0.42,0.07,0.78c-0.09,0.26-0.14,0.52-0.16,0.78h-6.54
	c-0.63,0-1.14,0.51-1.14,1.14s0.51,1.14,1.14,1.14h7.22c0.22,0.27,0.47,0.51,0.78,0.7l0.99,0.64c0.38,0.24,0.53,0.73,0.35,1.14
	l-0.26,0.61c-0.04,0.1-0.07,0.19-0.1,0.29h-6.78c-0.63,0-1.14,0.51-1.14,1.14c0,0.63,0.51,1.14,1.14,1.14h6.92
	c0.06,0.13,0.12,0.25,0.2,0.38l0.6,0.95h-6.01c-0.63,0-1.14,0.51-1.14,1.14s0.51,1.14,1.14,1.14h5.78l-0.46,0.61
	c-0.21,0.28-0.37,0.59-0.48,0.91l-1.72,5.16l-7.45,1.52c-0.88,0.18-1.53,0.97-1.53,1.87v13c0,1.05,0.86,1.91,1.91,1.91h65.62
	c1.05,0,1.91-0.86,1.91-1.91V19.97c0-0.56-0.41-1.04-0.97-1.13l-8.15-1.29l8.13-1.1C90.81,16.38,91.23,15.9,91.23,15.33z
	 M88.94,14.33l-9.72,1.31c-0.95,0.13-1.64,0.91-1.65,1.87c-0.01,0.96,0.67,1.76,1.61,1.91l9.76,1.54v4.95h-8.01
	c-0.63,0-1.14,0.51-1.14,1.14c0,0.63,0.51,1.14,1.14,1.14h8.01v2.29H74.77c-0.63,0-1.14,0.51-1.14,1.14c0,0.63,0.51,1.14,1.14,1.14
	h14.17V70.7H24.08V58.39l7.36-1.5c0.67-0.14,1.21-0.62,1.43-1.27l1.79-5.37c0.03-0.09,0.08-0.18,0.14-0.26l0.98-1.31
	c0.79-1.06,0.85-2.52,0.15-3.64l-0.94-1.5c-0.16-0.26-0.19-0.57-0.07-0.85l0.26-0.61c0.61-1.45,0.1-3.11-1.23-3.96l-0.99-0.64
	c-0.36-0.23-0.52-0.68-0.37-1.09c0.31-0.89,0.22-1.87-0.26-2.69c-0.48-0.82-1.29-1.38-2.22-1.55l-6.03-1.07V5.84h64.86V14.33z
	 M67.46,58.23c0.43,1.09,1.81,1.25,2.27,1.3c1.93,0.21,4.99,0.36,7.21,0.45c0.05,0,0.11,0,0.16,0c1.52,0,2.9-0.82,3.63-2.16
	l1.06-1.95c1.01-1.86,0.46-4.17-1.28-5.37c-0.06-0.04-0.13-0.08-0.2-0.11c-0.16-0.1-0.66-0.46-1.06-0.75
	c-2.99-2.18-4.42-3.04-5.52-2.67c-0.17,0.06-0.7,0.24-3.62,1.51c-1.91,0.84-2.89,2.97-2.3,4.97c0.24,0.81,0.48,1.62,0.64,2.12
	c-0.03,0.04-0.06,0.07-0.09,0.11C67.83,56.27,67.05,57.18,67.46,58.23z M71.03,50.57c2.07-0.9,2.92-1.25,3.27-1.38
	c0.73,0.21,2.79,1.72,3.59,2.3c0.75,0.55,1.11,0.81,1.38,0.95c0.72,0.55,0.94,1.54,0.5,2.34l-1.06,1.95
	c-0.34,0.62-0.98,0.98-1.69,0.96c-2.17-0.08-5.15-0.23-7.01-0.43c0.03-0.03,0.05-0.06,0.07-0.08c0.42-0.48,0.94-1.08,0.69-1.86
	c-0.08-0.24-0.43-1.39-0.77-2.53C69.74,51.9,70.18,50.94,71.03,50.57z"/>
</svg>
