<?xml version="1.0" encoding="utf-8"?>
<!-- Generator: Adobe Illustrator 28.1.0, SVG Export Plug-In . SVG Version: 6.00 Build 0)  -->
<svg version="1.1" id="Layer_1" xmlns="http://www.w3.org/2000/svg" xmlns:xlink="http://www.w3.org/1999/xlink" x="0px" y="0px"
	 viewBox="0 0 110.55 76.54" style="enable-background:new 0 0 110.55 76.54;" xml:space="preserve">
<style type="text/css">
	.st0{display:none;}
	.st1{display:inline;fill:none;}
</style>
<g id="Layer_2_00000073722119373351752270000017113015111246931634_" class="st0">
	<line class="st1" x1="-24.13" y1="74.54" x2="142.13" y2="74.54"/>
	<line class="st1" x1="-24.13" y1="2" x2="142.13" y2="2"/>
</g>
<g>
	<g>
		<path d="M18.87,17.56c-0.13-0.24-0.25-0.44-0.36-0.65c-0.44-0.82-0.92-1.63-1.31-2.47c-0.21-0.44-0.33-0.95-0.38-1.44
			c-0.07-0.71,0.41-1.32,1.1-1.52c1.58-0.47,3.15-0.94,4.73-1.4c1.52-0.44,3.05-0.82,4.55-1.28c1.59-0.48,3.16-1.02,4.73-1.56
			c1.88-0.64,3.78-1.2,5.74-1.54c0.77-0.13,1.54-0.23,2.31-0.36c0.19-0.03,0.38-0.13,0.53-0.25c0.24-0.19,0.46-0.43,0.68-0.65
			c1-0.98,2.24-1.44,3.59-1.67c0.53-0.09,1.06-0.15,1.59-0.18c0.24-0.01,0.5,0.03,0.71,0.13c0.52,0.22,0.66,0.66,0.6,1.19
			c-0.05,0.41-0.03,0.41,0.39,0.39c2.12-0.14,4.25-0.34,6.37-0.41c2.38-0.08,4.77-0.05,7.15-0.05c0.23,0,0.26-0.07,0.31-0.27
			c0.06-0.28,0.17-0.57,0.33-0.81c0.24-0.37,0.62-0.46,1.06-0.37c1.84,0.35,3.64,0.85,5.31,1.71c0.45,0.23,0.83,0.58,1.25,0.86
			c0.11,0.08,0.24,0.16,0.37,0.17c1.7,0.18,3.41,0.37,5.07,0.79C76.65,6.27,78,6.7,79.35,7.08c2.68,0.77,5.37,1.53,8.04,2.3
			c1.61,0.47,3.21,0.98,4.82,1.45c1.22,0.36,1.54,1.36,1.18,2.41c-0.34,1-0.81,1.95-1.28,2.9c-0.56,1.14-1.18,2.25-1.78,3.41
			c0.05,0.03,0.11,0.07,0.17,0.11c0.73,0.37,1.46,0.72,2.18,1.1c0.25,0.13,0.47,0.33,0.67,0.53c0.47,0.46,0.56,1.02,0.37,1.64
			c-0.21,0.68-0.42,1.36-0.64,2.04c-0.71,2.17-1.43,4.35-2.15,6.52c-0.08,0.23-0.09,0.43-0.02,0.66c0.53,1.74,1.02,3.48,1.57,5.21
			c0.32,1.02,0.15,1.95-0.27,2.89c-0.05,0.11-0.05,0.26-0.03,0.37c0.13,0.61,0.28,1.22,0.43,1.83c0.18,0.72,0.33,1.46,0.57,2.16
			c0.28,0.85,0.18,1.66-0.11,2.47c-0.26,0.72-0.61,1.4-1.16,1.95c-0.05,0.05-0.08,0.17-0.07,0.25c0.07,0.47,0.14,0.94,0.24,1.4
			c0.03,0.14,0.15,0.27,0.26,0.37c0.59,0.53,1.24,1,1.79,1.58c0.54,0.57,0.54,1.25,0.12,1.92c-0.52,0.83-1.06,1.66-1.59,2.48
			c-0.13,0.21-0.27,0.42-0.41,0.64c0.62,0.95,0.41,1.91-0.1,2.85c-0.55,1.02-1.11,2.04-1.69,3.04c-1,1.74-2.01,3.48-3.05,5.2
			c-0.7,1.15-1.51,2.21-2.46,3.17c-0.73,0.74-1.59,1.28-2.62,1.48c-0.38,0.07-0.79,0.06-1.18,0c-1.35-0.18-2.7-0.4-4.05-0.6
			c-2.09-0.32-4.19-0.64-6.28-0.94c-2.01-0.29-4.03-0.56-6.05-0.84c-2.59-0.36-5.19-0.65-7.8-0.66c-3.32-0.02-6.64,0.02-9.95,0.06
			c-1.77,0.02-3.55,0.1-5.32,0.19c-2.19,0.12-4.36,0.37-6.52,0.74c-1.24,0.22-2.48,0.49-3.73,0.68c-1.51,0.23-2.75-0.34-3.72-1.49
			c-0.84-0.99-1.18-2.17-1.33-3.44c-0.16-1.37-0.37-2.74-0.57-4.11c-0.01-0.1-0.12-0.23-0.21-0.27c-1.08-0.45-2.16-0.91-3.25-1.33
			c-1.11-0.43-2.23-0.85-3.37-1.22c-1.67-0.54-2.71-1.65-3.19-3.31c-0.55-1.91-0.02-3.5,1.51-4.75c0.21-0.17,0.25-0.27,0.13-0.54
			c-0.84-1.83-0.71-3.6,0.33-5.32c0.53-0.87,1.06-1.74,1.59-2.61c0.09-0.14,0.12-0.23-0.03-0.39c-0.21-0.23-0.35-0.52-0.51-0.79
			c-1.18-2-2.35-4.01-3.52-6.02c-0.13-0.23-0.24-0.47-0.36-0.7c-0.38-0.79-0.24-1.47,0.44-2.02c0.87-0.71,1.75-1.4,2.62-2.1
			c0.56-0.45,1.12-0.89,1.65-1.36c0.39-0.34,0.32-0.28,0.11-0.67c-1.19-2.27-2.38-4.53-3.57-6.8c-0.22-0.42-0.43-0.85-0.61-1.29
			c-0.39-1-0.2-1.68,0.68-2.31c0.53-0.38,1.09-0.71,1.64-1.07C18.23,17.99,18.53,17.78,18.87,17.56z M25.66,23.32
			c0.37-0.26,0.68-0.52,1.03-0.72c0.65-0.39,1.32-0.75,2-1.11c0.11-0.06,0.27-0.06,0.39-0.03c0.9,0.23,1.22,1.32,0.58,2
			c-0.14,0.15-0.3,0.28-0.47,0.39c-0.41,0.26-0.82,0.51-1.24,0.75c-0.14,0.08-0.2,0.14-0.16,0.32c0.24,1.01,0.45,2.04,0.72,3.04
			c0.69,2.5,1.59,4.93,2.49,7.37c0.64,1.73,1.29,3.45,1.87,5.19c0.22,0.66,0.61,1.14,1.15,1.52c0.47,0.33,0.91,0.43,1.47,0.13
			c0.78-0.42,1.62-0.74,2.44-1.08c2.86-1.18,5.83-1.99,8.87-2.47c2.02-0.32,4.05-0.54,6.08-0.74c2.92-0.29,5.85-0.49,8.77-0.8
			c3.28-0.35,6.56-0.53,9.86-0.55c3.19-0.01,6.33,0.36,9.44,1.04c1.82,0.4,3.59,0.94,5.32,1.62C87,39.46,87.7,39.8,88.4,40.1
			c0.07,0.03,0.18,0.05,0.24,0.02c0.25-0.12,0.54-0.22,0.71-0.42c0.28-0.32,0.49-0.71,0.7-1.08c0.08-0.15,0.11-0.37,0.07-0.53
			c-0.32-1.1-0.65-2.19-1.02-3.28c-0.61-1.8-1.22-3.61-1.9-5.39c-0.53-1.38-1.15-2.73-1.74-4.09c-0.38-0.89-0.76-1.78-1.15-2.65
			c-0.06-0.14-0.21-0.26-0.34-0.34c-0.6-0.33-1.24-0.6-1.8-0.99c-0.6-0.41-0.6-1.32-0.09-1.84c0.28-0.29,0.75-0.39,1.12-0.23
			c0.68,0.3,1.37,0.59,2.04,0.91c0.42,0.2,0.8,0.46,1.2,0.69c0.57-0.49,3.94-6.79,4.25-7.95c-0.09-0.02-0.18-0.02-0.27-0.05
			c-1.5-0.45-3.01-0.88-4.5-1.35c-2.33-0.75-4.65-1.53-6.98-2.28c-1.19-0.38-2.38-0.79-3.6-1.07c-1.04-0.24-2.11-0.32-3.17-0.45
			c-0.57-0.07-1.14-0.11-1.74-0.16c-0.01,0.12-0.01,0.2-0.01,0.28c-0.03,2.62-0.25,5.22-0.79,7.79c-0.34,1.62-0.8,3.21-1.23,4.8
			c-0.14,0.5-0.34,1-0.57,1.47c-0.33,0.68-0.96,0.93-1.66,0.67c-0.74-0.27-1.47-0.57-2.18-0.9c-0.91-0.42-1.79-0.89-2.55-1.57
			c-0.07-0.06-0.19-0.07-0.28-0.08c-0.32-0.03-0.65-0.02-0.96-0.09c-1.42-0.34-2.34-1.26-2.9-2.58c-0.03-0.08-0.12-0.17-0.19-0.19
			c-0.23-0.06-0.46-0.1-0.7-0.13c-0.08-0.01-0.21,0.05-0.26,0.11c-0.15,0.21-0.26,0.44-0.4,0.65c-0.6,0.83-1.32,1.53-2.36,1.74
			c-0.54,0.11-1.14,0.33-1.64-0.15c-0.16,0.15-0.3,0.3-0.46,0.44c-0.93,0.77-1.83,1.57-2.8,2.29c-0.51,0.38-1.11,0.65-1.71,0.88
			c-0.52,0.21-0.95,0.01-1.25-0.46c-0.21-0.32-0.41-0.64-0.59-0.98c-1.54-2.75-2.92-5.56-3.82-8.6c-0.46-1.56-0.87-3.12-1-4.74
			c-0.02-0.2-0.05-0.4-0.08-0.64c-0.96,0.15-1.9,0.25-2.82,0.45c-2,0.43-3.9,1.19-5.83,1.87c-1.51,0.53-3.01,1.12-4.54,1.58
			c-2.23,0.67-4.49,1.23-6.74,1.85c-0.18,0.05-0.36,0.12-0.55,0.19c0.18,0.34,0.33,0.65,0.49,0.96c1.59,2.88,3.36,5.65,5.2,8.38
			C25.38,23.01,25.54,23.17,25.66,23.32z M90.08,42.53c-0.08,0.02-0.13,0.02-0.18,0.03c-0.84,0.21-1.65,0.18-2.46-0.15
			c-0.92-0.38-1.87-0.7-2.81-1.04c-1.93-0.69-3.91-1.19-5.91-1.57c-1.08-0.21-2.18-0.33-3.27-0.44c-3.05-0.3-6.1-0.22-9.15-0.01
			c-2.12,0.15-4.24,0.37-6.36,0.58c-3.85,0.38-7.71,0.57-11.54,1.16c-2.4,0.37-4.76,0.93-7.08,1.63c-1.68,0.51-3.3,1.19-4.91,1.89
			c-1.84,0.8-3.78,0.1-4.94-1.15c-0.62-0.67-0.91-1.52-1.2-2.36c-0.43-1.28-0.83-2.56-1.26-3.84c-0.94-2.8-1.9-5.6-2.83-8.41
			c-0.32-0.96-0.63-1.92-1.29-2.72c-0.04-0.05-0.08-0.12-0.14-0.14c-0.52-0.2-0.83-0.63-1.13-1.07c-1.15-1.72-2.29-3.44-3.45-5.19
			c-0.63,0.39-1.29,0.78-1.94,1.19c-0.04,0.03-0.06,0.17-0.03,0.23c0.47,0.88,0.95,1.76,1.42,2.65c1.09,2.05,2.2,4.09,3.26,6.16
			c0.83,1.63,1.57,3.31,2.41,4.94c1.59,3.1,3.2,6.19,4.84,9.26c0.6,1.13,1.3,2.2,1.94,3.31c0.11,0.18,0.22,0.2,0.42,0.15
			c2.09-0.61,4.17-1.27,6.28-1.79c2.5-0.61,5.03-1.13,7.56-1.62c3.19-0.62,6.43-0.95,9.68-1.04c3.45-0.1,6.91-0.14,10.36-0.17
			c3.24-0.02,6.48,0.03,9.71,0.4c2.24,0.26,4.47,0.64,6.63,1.31c1.7,0.53,3.36,1.16,5.03,1.78c0.55,0.2,1.07,0.5,1.61,0.74
			c0.07,0.03,0.18,0.01,0.25-0.03c0.43-0.24,0.68-0.64,0.84-1.08c0.24-0.66,0.49-1.33,0.08-2.02c-0.08-0.13-0.1-0.29-0.14-0.44
			C90.28,43.29,90.19,42.93,90.08,42.53z M89.16,55.88c-0.13,0-0.24,0.01-0.35,0c-0.61-0.04-1.22-0.05-1.83-0.14
			c-2.11-0.33-4.22-0.68-6.32-1.04c-1.22-0.21-2.43-0.47-3.63-0.72c-1.07-0.23-2.13-0.5-3.2-0.72c-2.36-0.49-4.75-0.78-7.16-0.88
			c-4.13-0.17-8.26-0.21-12.39-0.07c-3.19,0.11-6.37,0.27-9.53,0.78c-2.06,0.33-4.11,0.74-6.08,1.44c-1.65,0.59-3.25,1.32-4.87,1.99
			c-0.53,0.22-1.08,0.4-1.65,0.33c-0.78-0.1-1.5-0.4-2.07-0.95c-1.14-1.11-1.75-2.47-1.75-4.09c0-1.77-0.03-3.55-0.06-5.32
			c0-0.2-0.04-0.41-0.05-0.61c-0.68,0.52-1.33,1.04-2.01,1.53c-0.31,0.22-0.33,0.19-0.18,0.58c0.39,0.98,0.82,1.95,1.16,2.96
			c0.31,0.95,0.61,1.91,0.76,2.9c0.23,1.49,0.28,3.01,0.22,4.52c-0.02,0.57,0.09,1.12,0.33,1.63c0.28,0.61,0.61,1.2,1.24,1.53
			c0.13,0.07,0.31,0.1,0.46,0.07c2.3-0.45,4.59-0.91,6.88-1.39c2.65-0.55,5.29-1.13,7.93-1.7c2.76-0.59,5.53-1.16,8.29-1.75
			c1.95-0.41,3.92-0.74,5.9-0.92c1.85-0.17,3.71-0.3,5.56-0.32c2.33-0.03,4.67,0.02,7,0.13c2.02,0.09,4.05,0.27,6.06,0.49
			c1.63,0.18,3.26,0.43,4.87,0.74c1.65,0.32,3.28,0.73,4.91,1.12c0.24,0.06,0.42-0.02,0.59-0.15
			C88.82,57.36,89.07,56.68,89.16,55.88z M44.87,61.29c0.84,0.08,1.63,0.16,2.42,0.23c3.2,0.28,6.37,0.73,9.51,1.41
			c2.86,0.62,5.74,1.12,8.66,1.36c2.21,0.19,4.43,0.31,6.65,0.5c1.87,0.16,3.73,0.4,5.54,0.92c1.32,0.37,2.62,0.83,3.91,1.28
			c0.39,0.13,0.72,0.12,1.02-0.15c0.23-0.2,0.45-0.42,0.61-0.67c1.07-1.72,1.89-3.56,2.77-5.38c0.08-0.15,0.11-0.33,0.18-0.51
			c-0.63-0.15-1.24-0.28-1.83-0.44c-1.63-0.43-3.29-0.74-4.97-0.93c-1.68-0.19-3.37-0.4-5.06-0.48c-2.26-0.12-4.53-0.15-6.79-0.17
			c-2.83-0.02-5.67,0.01-8.49,0.37c-1.71,0.22-3.4,0.51-5.1,0.83c-1.89,0.35-3.77,0.77-5.66,1.16
			C47.14,60.86,46.03,61.07,44.87,61.29z M31.06,49.93c-0.01,0.04-0.03,0.06-0.03,0.09c-0.04,0.61-0.1,1.21-0.12,1.82
			c-0.01,0.2,0.01,0.43,0.08,0.61c0.24,0.63,0.63,1.16,1.17,1.57c0.18,0.14,0.32,0.19,0.53,0.09c0.61-0.29,1.23-0.57,1.85-0.84
			c1.67-0.73,3.37-1.41,5.13-1.89c2.17-0.59,4.38-0.99,6.61-1.26c2.08-0.25,4.17-0.46,6.26-0.5c2.29-0.04,4.58-0.08,6.87-0.08
			c3.96-0.01,7.93,0.04,11.88,0.37c2.29,0.19,4.56,0.56,6.81,1.05c0.4,0.09,0.69-0.01,0.94-0.27c0.21-0.21,0.4-0.45,0.54-0.7
			c0.51-0.91,0.79-1.91,0.97-2.93c0.04-0.21-0.01-0.29-0.22-0.33c-0.69-0.13-1.38-0.26-2.07-0.4c-1.7-0.33-3.43-0.49-5.15-0.6
			c-3.18-0.21-6.36-0.18-9.54-0.17c-3.36,0-6.72,0.19-10.07,0.42c-2.34,0.16-4.66,0.45-6.97,0.87c-2.36,0.42-4.71,0.92-7.03,1.55
			c-1.38,0.37-2.76,0.72-4.14,1.07c-0.85,0.22-1.69,0.43-2.55,0.62C32.23,50.23,31.64,50.18,31.06,49.93z M28.78,63.93
			c0.01,0.13,0,0.25,0.02,0.38c0.13,0.91,0.27,1.81,0.39,2.72c0.1,0.69,0.3,1.33,0.77,1.88c0.63,0.75,0.71,0.78,1.67,0.6
			c0.01,0,0.02,0,0.02-0.01c1.34-0.26,2.67-0.55,4.02-0.79c2.95-0.53,5.94-0.78,8.93-0.95c3.24-0.18,6.47-0.3,9.72-0.27
			c2.72,0.03,5.44,0.1,8.15,0.5c2.7,0.4,5.41,0.72,8.12,1.1c3.64,0.51,7.27,1.04,10.9,1.56c0.41,0.06,0.91-0.12,1.16-0.43
			c-0.39,0.13-0.56,0.11-0.95-0.05c-0.61-0.25-1.22-0.52-1.84-0.73c-2.39-0.81-4.87-1.22-7.35-1.59c-1.37-0.2-2.77-0.28-4.15-0.43
			c-1.85-0.19-3.69-0.39-5.54-0.59c-2.04-0.22-4.06-0.57-6.07-1.01c-2.31-0.51-4.63-0.97-6.97-1.27c-1.56-0.2-3.14-0.31-4.71-0.42
			c-3.32-0.24-6.64-0.37-9.97-0.23c-1.35,0.06-2.72,0.06-4.05,0.35c-0.55,0.12-1.1,0.1-1.63-0.08
			C29.2,64.08,29.01,64.01,28.78,63.93z M62.54,6.32C57.5,6.07,52.5,6.26,47.48,6.8c0.06,0.4,0.1,0.8,0.18,1.19
			c0.36,1.89,0.99,3.7,1.83,5.43c0.61,1.26,1.27,2.49,2.32,3.47c0.49,0.46,0.68,0.49,1.26,0.13c0.07-0.04,0.14-0.1,0.21-0.15
			c0.46-0.37,0.7-0.89,0.92-1.41c0.29-0.68,0.55-0.82,1.28-0.78c0.81,0.04,1.63,0.07,2.44,0.09c0.48,0.01,0.84,0.25,1.01,0.7
			c0.07,0.17,0.13,0.35,0.19,0.53c0.26,0.74,0.78,1.22,1.49,1.5c0.34,0.13,0.44,0.09,0.63-0.21c0.09-0.14,0.18-0.29,0.26-0.44
			c0.51-1.07,0.72-2.22,0.89-3.38c0.26-1.72,0.32-3.46,0.26-5.2C62.63,7.62,62.58,6.98,62.54,6.32z M17.6,35.39
			c1.88,3.43,4.14,6.68,6.11,10.12c0.42-0.27,0.84-0.51,1.23-0.8c0.52-0.39,1.02-0.81,1.53-1.22c0.14-0.11,0.17-0.22,0.07-0.39
			c-0.2-0.36-0.38-0.74-0.57-1.11c-1.45-2.7-2.84-5.42-4.08-8.22c-0.2-0.45-0.43-0.88-0.64-1.31C20.04,33.44,18.84,34.4,17.6,35.39z
			 M45.03,5.11c-0.85,0.14-1.61,0.49-2.34,0.93c-0.08,0.05-0.15,0.16-0.18,0.26c-0.04,0.17-0.04,0.35-0.04,0.53
			c0,1.55,0.27,3.07,0.69,4.56c0.76,2.68,1.84,5.24,3.07,7.74c0.21,0.42,0.44,0.83,0.67,1.26c0.08-0.05,0.15-0.08,0.21-0.13
			c0.78-0.64,1.55-1.28,2.33-1.92c0.15-0.12,0.13-0.21,0.03-0.35c-0.4-0.59-0.85-1.15-1.18-1.78c-0.61-1.17-1.19-2.36-1.71-3.58
			c-0.69-1.62-1.16-3.31-1.39-5.06C45.12,6.76,45.09,5.93,45.03,5.11z M64.75,5.03c0,0.09,0,0.12,0,0.15C64.85,6.45,65,7.73,65.03,9
			c0.03,1.18-0.02,2.36-0.11,3.53c-0.17,2.09-0.52,4.14-1.66,5.99c0.86,0.63,1.83,1.06,2.86,1.46c0.17-0.54,0.32-1.05,0.48-1.56
			c0.52-1.67,0.86-3.39,1.07-5.12c0.18-1.45,0.27-2.92,0.36-4.38c0.05-0.8,0.02-1.61,0.03-2.42c0-0.14-0.02-0.23-0.18-0.29
			c-0.31-0.12-0.6-0.31-0.92-0.43C66.23,5.53,65.5,5.29,64.75,5.03z M81.52,52.14c0.12,0.03,0.18,0.06,0.25,0.07
			c0.56,0.09,1.12,0.18,1.68,0.26c1.59,0.22,3.18,0.43,4.76,0.65c0.44,0.06,0.53,0.03,0.78-0.34c0.56-0.82,0.84-1.71,0.73-2.71
			c-0.01-0.14-0.05-0.18-0.18-0.21c-0.37-0.09-0.75-0.17-1.1-0.3c-1.41-0.53-2.81-1.09-4.22-1.63c-0.37-0.14-0.74-0.28-1.14-0.43
			C83.06,49.22,82.47,50.73,81.52,52.14z M25.65,59.9c0.1-0.38,0.06-0.66-0.2-0.97c-0.98-1.18-1.92-2.4-2.88-3.59
			c-0.14-0.17-0.32-0.34-0.51-0.42c-0.89-0.36-1.75-0.79-2.51-1.38c-0.16-0.12-0.28-0.11-0.4,0c-0.23,0.19-0.47,0.38-0.65,0.6
			c-0.13,0.16-0.25,0.38-0.27,0.58c-0.08,1.18,0.33,2.18,1.19,2.99c0.14,0.13,0.32,0.22,0.5,0.29c0.4,0.15,0.81,0.26,1.21,0.4
			c1.37,0.46,2.75,0.92,4.12,1.38C25.38,59.8,25.51,59.85,25.65,59.9z M25,53.79c-0.06-0.37-0.09-0.76-0.2-1.12
			c-0.3-1.05-0.63-2.09-0.97-3.13c-0.03-0.1-0.17-0.19-0.27-0.22c-0.35-0.1-0.64-0.29-0.85-0.58c-0.35-0.5-0.69-1.01-1.02-1.52
			c-0.19-0.29-0.34-0.6-0.51-0.9c-0.04-0.03-0.07-0.06-0.11-0.08c-0.06,0.1-0.1,0.22-0.17,0.31c-0.36,0.49-0.72,0.99-1.09,1.47
			c-0.15,0.19-0.34,0.35-0.49,0.53c-0.05,0.06-0.07,0.17-0.07,0.26c0,0.09,0.06,0.17,0.08,0.26c0.22,0.99,0.81,1.63,1.71,2.11
			C22.43,51.91,23.87,52.59,25,53.79z M89.28,28.27c0.62-1.9,1.23-3.77,1.83-5.6c-0.61-0.31-1.19-0.6-1.77-0.9
			c-0.15-0.08-0.24-0.07-0.33,0.09c-0.18,0.29-0.37,0.57-0.56,0.85c-0.32,0.47-0.69,0.87-1.22,1.01
			C87.91,25.23,88.59,26.74,89.28,28.27z"/>
		<path d="M57.46,24.96c0.95,0.03,1.72,0.38,2.15,1.26c0.52,1.07,0.07,2.19-1.02,2.68c-1.19,0.53-2.83,0.04-3.31-1.33
			c-0.35-0.99,0.04-1.88,0.99-2.36C56.64,25.02,57.03,24.93,57.46,24.96z"/>
		<path d="M58.4,30.61c0.95,0.03,1.72,0.38,2.15,1.26c0.52,1.07,0.07,2.19-1.02,2.68c-1.19,0.53-2.83,0.04-3.31-1.33
			c-0.35-0.99,0.04-1.88,0.99-2.36C57.59,30.68,57.98,30.58,58.4,30.61z"/>
		<path d="M56.54,20.25c0.56,0.06,1.04,0.23,1.48,0.55c0.55,0.41,0.74,0.97,0.66,1.61c-0.09,0.69-0.53,1.1-1.19,1.31
			c-1.04,0.33-2.09-0.13-2.53-0.81c-0.57-0.88-0.29-1.96,0.66-2.4C55.91,20.38,56.23,20.34,56.54,20.25z"/>
	</g>
</g>
</svg>
