<?xml version="1.0" encoding="utf-8"?>
<!-- Generator: Adobe Illustrator 28.1.0, SVG Export Plug-In . SVG Version: 6.00 Build 0)  -->
<svg version="1.1" id="Layer_1" xmlns="http://www.w3.org/2000/svg" xmlns:xlink="http://www.w3.org/1999/xlink" x="0px" y="0px"
	 viewBox="0 0 110.55 76.54" style="enable-background:new 0 0 110.55 76.54;" xml:space="preserve">
<style type="text/css">
	.st0{display:none;}
	.st1{display:inline;fill:none;}
	.st2{fill:#808080;}
</style>
<g id="Layer_2_00000073722119373351752270000017113015111246931634_" class="st0">
	<line class="st1" x1="-24.13" y1="74.54" x2="142.13" y2="74.54"/>
	<line class="st1" x1="-24.13" y1="2" x2="142.13" y2="2"/>
</g>
<path class="st2" d="M3521.66,2698.06c6.59,0,11.96-5.36,11.96-11.96s-5.36-11.96-11.96-11.96"/>
<path class="st2" d="M3502.66,2733.64h29.9h8.09v-22.07c0-5.45-3.31-10.13-8.02-12.16c-2.98,2.47-6.81,3.95-10.97,3.95"/>
<path class="st2" d="M3585.78,2698.06c6.59,0,11.96-5.36,11.96-11.96s-5.36-11.96-11.96-11.96c-6.59,0-11.96,5.36-11.96,11.96
	S3579.19,2698.06,3585.78,2698.06z"/>
<path class="st2" d="M3604.78,2711.57c0-5.45-3.31-10.13-8.02-12.16c-2.98,2.47-6.81,3.95-10.97,3.95s-7.99-1.48-10.97-3.95
	c-4.71,2.03-8.02,6.71-8.02,12.16v22.07h8.09h29.9"/>
<path class="st2" d="M3553.72,2691.6c7.4,0,13.42-6.02,13.42-13.42s-6.02-13.42-13.42-13.42c-7.4,0-13.42,6.02-13.42,13.42
	S3546.32,2691.6,3553.72,2691.6z"/>
<path class="st2" d="M3571.09,2695.34c-1.38-1.41-3.08-2.51-4.97-3.19c-3.31,2.93-7.64,4.73-12.4,4.73s-9.09-1.8-12.4-4.73
	c-1.89,0.68-3.59,1.78-4.97,3.19c5.71,3.16,9.59,9.24,9.59,16.22v22.07h15.55v-22.07
	C3561.49,2704.59,3565.38,2698.5,3571.09,2695.34z"/>
<g>
	<path d="M79.56,33.16c1.81-2.27,2.82-5.09,2.82-8.05c0-7.15-5.82-12.95-12.96-12.95c-5.85,0-10.79,3.8-12.41,9.19
		c-1.97-0.81-4.09-1.23-6.24-1.23c-8.27,0-15.12,5.96-16.39,13.92c-0.58-0.06-1.15-0.09-1.74-0.09c-9.16,0-16.62,7.46-16.62,16.62
		s7.46,16.62,16.62,16.62c1.04,0,1.86-0.84,1.86-1.88c0-1.04-0.84-1.88-1.88-1.88c-7.1,0-12.86-5.77-12.86-12.86
		c0-7.1,5.77-12.86,12.86-12.86c1.01,0,2.01,0.13,2.98,0.35c0.55,0.12,1.13,0,1.58-0.34c0.45-0.34,0.71-0.86,0.74-1.43
		c0.24-6.97,5.88-12.41,12.85-12.41c2.34,0,4.62,0.64,6.62,1.85c0.01,0,0.01,0.01,0.02,0.02c2.2,1.33,4,3.34,5.06,5.68
		c0.29,0.65,0.94,1.08,1.65,1.1c4.15,0.12,8.15,1.09,11.56,2.78c5.88,2.9,9.39,7.63,9.39,12.66c0,9.69-6.56,15.47-17.55,15.47
		c-1.04,0-1.88,0.84-1.88,1.88c0,1.04,0.84,1.88,1.88,1.88c12.95,0,21.31-7.55,21.3-19.22C88.83,42.17,85.4,36.78,79.56,33.16z
		 M60.42,23.21c0.89-4.17,4.66-7.3,9.01-7.3c5.08,0,9.21,4.13,9.21,9.2c0,2.35-0.89,4.58-2.47,6.27c-3.29-1.44-6.97-2.32-10.79-2.55
		C64.19,26.59,62.48,24.67,60.42,23.21z"/>
	<path d="M45.38,63.66c-0.91-0.5-2.05-0.18-2.55,0.74l-4.22,7.65c-0.5,0.91-0.18,2.05,0.74,2.55c0.29,0.16,0.6,0.24,0.9,0.24
		c0.66,0,1.3-0.35,1.65-0.98l4.22-7.65C46.62,65.29,46.29,64.16,45.38,63.66z"/>
	<path d="M52.14,63.66c-0.91-0.5-2.05-0.18-2.55,0.74l-4.22,7.65c-0.5,0.91-0.18,2.05,0.74,2.55c0.29,0.16,0.6,0.24,0.9,0.24
		c0.66,0,1.31-0.35,1.65-0.98l4.22-7.65C53.37,65.29,53.05,64.16,52.14,63.66z"/>
	<path d="M58.89,63.66c-0.91-0.5-2.05-0.18-2.55,0.74l-4.2,7.65c-0.5,0.91-0.18,2.05,0.74,2.55c0.29,0.16,0.6,0.24,0.9,0.24
		c0.66,0,1.3-0.35,1.64-0.98l4.22-7.65C60.13,65.29,59.81,64.16,58.89,63.66z"/>
	<path d="M69.43,10.32c1.04,0,1.88-0.84,1.88-1.88V3.12c0-1.04-0.84-1.88-1.88-1.88s-1.88,0.84-1.88,1.88v5.32
		C67.55,9.48,68.39,10.32,69.43,10.32z"/>
	<path d="M81.22,15.2c0.48,0,0.96-0.18,1.33-0.55l3.77-3.77c0.74-0.73,0.73-1.91,0-2.65c-0.73-0.74-1.91-0.74-2.65,0L79.89,12
		c-0.74,0.73-0.74,1.91,0,2.65C80.25,15.01,80.74,15.2,81.22,15.2z"/>
	<path d="M91.42,23.23H86.1c-1.04,0-1.88,0.84-1.88,1.88s0.84,1.88,1.88,1.88h5.32c1.04,0,1.88-0.84,1.88-1.88
		S92.46,23.23,91.42,23.23z"/>
	<path d="M56.31,14.65c0.36,0.36,0.85,0.55,1.33,0.55c0.48,0,0.95-0.18,1.33-0.55c0.74-0.73,0.74-1.91,0-2.65L55.2,8.23
		c-0.73-0.74-1.91-0.74-2.65,0c-0.74,0.73-0.74,1.91,0,2.65L56.31,14.65z"/>
</g>
</svg>
