<?xml version="1.0" encoding="utf-8"?>
<!-- Generator: Adobe Illustrator 28.1.0, SVG Export Plug-In . SVG Version: 6.00 Build 0)  -->
<svg version="1.1" id="Layer_1" xmlns="http://www.w3.org/2000/svg" xmlns:xlink="http://www.w3.org/1999/xlink" x="0px" y="0px"
	 viewBox="0 0 110.55 76.54" style="enable-background:new 0 0 110.55 76.54;" xml:space="preserve">
<style type="text/css">
	.st0{display:none;}
	.st1{display:inline;fill:none;}
</style>
<g id="Layer_2_00000073722119373351752270000017113015111246931634_" class="st0">
	<line class="st1" x1="-24.13" y1="74.54" x2="142.13" y2="74.54"/>
	<line class="st1" x1="-24.13" y1="2" x2="142.13" y2="2"/>
</g>
<path d="M82.17,18.33c0-2.29-0.89-4.43-2.5-6.05h15.32c2.36,0,4.27,1.91,4.27,4.27s-1.91,4.27-4.27,4.27H82.17V18.33z M63.27,14.76
	L53,4.48c-1.67-1.67-4.37-1.67-6.05,0L44.4,7.03c0.37,0.31,0.74,0.64,1.09,0.98l8.54,8.54c1.6,1.6,2.5,3.78,2.5,6.05v6.77
	c0,2.36,1.91,4.27,4.27,4.27s4.27-1.91,4.27-4.27V19.11C65.08,17.48,64.43,15.91,63.27,14.76z M94.98,33.65H81.01
	c-1.48,2.55-4.23,4.27-7.39,4.27c-2.55,0-4.84-1.13-6.41-2.92c-1.57,1.78-3.86,2.92-6.41,2.92c-1.76,0-3.4-0.53-4.76-1.45
	c-1.23,3.5-4.67,5.97-8.64,5.7c-4.54-0.3-7.96-4.28-7.96-8.82v-7.21l-2.52-2.52l3.02-3.02l2.52,2.52c0.8,0.8,1.25,1.89,1.25,3.02
	v7.51c0,2.5,2.15,4.5,4.69,4.25c2.22-0.21,3.86-2.2,3.86-4.43V22.61c0-1.13-0.45-2.22-1.25-3.02l-8.54-8.54
	c-1.93-1.93-4.56-3.02-7.29-3.02c-11.8,0-21.36,9.56-21.36,21.36V72.1h34.18v-2.25c0-6.47,3.65-12.39,9.44-15.28l24.74-12.37h12.82
	c2.36,0,4.27-1.91,4.27-4.27C99.25,35.56,97.34,33.65,94.98,33.65z M76.64,15.31L65.81,4.48c-1.67-1.67-4.37-1.67-6.05,0l-0.36,0.36
	l6.89,6.89c1.97,1.97,3.05,4.59,3.05,7.38v10.26c0,2.36,1.91,4.27,4.27,4.27c2.36,0,4.27-1.91,4.27-4.27V18.33
	C77.89,17.2,77.44,16.11,76.64,15.31z"/>
</svg>
