<?xml version="1.0" encoding="utf-8"?>
<!-- Generator: Adobe Illustrator 28.1.0, SVG Export Plug-In . SVG Version: 6.00 Build 0)  -->
<svg version="1.1" id="Layer_1" xmlns="http://www.w3.org/2000/svg" xmlns:xlink="http://www.w3.org/1999/xlink" x="0px" y="0px"
	 viewBox="0 0 110.55 76.54" style="enable-background:new 0 0 110.55 76.54;" xml:space="preserve">
<style type="text/css">
	.st0{display:none;}
	.st1{display:inline;fill:none;}
	.st2{fill-rule:evenodd;clip-rule:evenodd;fill:#010101;}
</style>
<g id="Layer_2_00000073722119373351752270000017113015111246931634_" class="st0">
	<line class="st1" x1="-24.13" y1="74.54" x2="142.13" y2="74.54"/>
	<line class="st1" x1="-24.13" y1="2" x2="142.13" y2="2"/>
</g>
<path class="st2" d="M82.03,71.76H32.22c-3.29,0-3.29-10.58,0-10.58h21.45V16.51c-2.02-1.21-3.25-3.39-3.25-5.75
	c0-3.71,3.01-6.71,6.71-6.71c3.71,0,6.71,3,6.71,6.71c0,2.36-1.24,4.54-3.25,5.75v44.67h21.45C85.33,61.17,85.33,71.76,82.03,71.76
	 M86.46,59.16c6.59,0,12-5.09,12.49-11.56h-1.91l-8.87-29.55l-3.25-0.54L75.89,47.6h-1.91C74.46,54.06,79.87,59.16,86.46,59.16
	 M79.06,47.6h14.79l-7.4-24.8L79.06,47.6z M26.79,48.75c6.59,0,11.99-5.09,12.49-11.56h-1.91L28.49,7.64L25.24,7.1l-9.03,30.09H14.3
	C14.79,43.65,20.2,48.75,26.79,48.75 M19.39,37.19h14.79l-7.4-24.79L19.39,37.19z M25.08,5.2l23.73,3.93
	c0.05-0.92,0.42-1.78,0.81-2.37L25.44,2.76C23.82,2.49,23.36,4.92,25.08,5.2 M65.46,12.54l23.33,3.86c1.6,0.26,1.92-2.19,0.5-2.42
	l-23.65-3.92C65.73,10.92,65.64,11.61,65.46,12.54 M57.13,14.3c1.96,0,3.55-1.59,3.55-3.55c0-1.96-1.59-3.55-3.55-3.55
	c-1.96,0-3.55,1.59-3.55,3.55C53.58,12.72,55.17,14.3,57.13,14.3"/>
</svg>
