<?xml version="1.0" encoding="utf-8"?>
<!-- Generator: Adobe Illustrator 28.1.0, SVG Export Plug-In . SVG Version: 6.00 Build 0)  -->
<svg version="1.1" id="Layer_1" xmlns="http://www.w3.org/2000/svg" xmlns:xlink="http://www.w3.org/1999/xlink" x="0px" y="0px"
	 viewBox="0 0 110.55 76.54" style="enable-background:new 0 0 110.55 76.54;" xml:space="preserve">
<style type="text/css">
	.st0{display:none;}
	.st1{display:inline;fill:none;}
</style>
<g id="Layer_2_00000073722119373351752270000017113015111246931634_" class="st0">
	<line class="st1" x1="-24.13" y1="74.54" x2="142.13" y2="74.54"/>
	<line class="st1" x1="-24.13" y1="2" x2="142.13" y2="2"/>
</g>
<g>
	<path d="M97.1,10.97c-0.69-0.6-1.64-0.86-2.58-0.6l-14.03,2.84C79.37,6.67,74.38,1.76,68.35,1.76c-5.59,0-10.41,4.3-11.88,10.24
		l-16.52-1.98c-0.26,0-0.52,0-0.77,0l-21.77,3.1c-1.55,0.26-2.67,1.55-2.67,3.1v52.93c0,1.72,1.38,3.1,3.1,3.1c0.17,0,0.26,0,0.43,0
		l21.26-3.1h0.09l35.2,4.22c0.09,0,0.26,0,0.34,0c0.17,0,0.43,0,0.6-0.09l19.97-3.96c1.46-0.26,2.5-1.55,2.5-3.01V13.38
		C98.22,12.43,97.79,11.57,97.1,10.97z M68.35,4.34c5.42,0,9.72,5.16,9.72,11.53c0,4.91-6.37,13.6-9.72,17.73
		c-3.44-4.13-9.72-12.82-9.72-17.73C58.54,9.51,62.93,4.34,68.35,4.34L68.35,4.34z M95.63,66.22c0,0.26-0.17,0.43-0.43,0.52
		l-18.68,3.7v-1.38c0-0.69-0.6-1.29-1.29-1.29s-1.29,0.6-1.29,1.29v1.46l-33.56-4.04v-0.86c0-0.69-0.6-1.29-1.29-1.29
		c-0.69,0-1.29,0.6-1.29,1.29v1.03l-19.88,2.93c-0.17,0-0.26,0-0.43-0.09c-0.09-0.09-0.17-0.26-0.17-0.43V16.22
		c0-0.26,0.17-0.43,0.43-0.52l20.05-2.84v1.72c0,0.69,0.6,1.29,1.29,1.29s1.29-0.6,1.29-1.29v-1.89l15.66,1.81
		c0,0.43-0.09,0.86-0.09,1.29c0,7.49,10.93,19.97,11.36,20.57l0.95,1.12l0.95-1.12c0.17-0.26,2.24-2.58,4.56-5.85v0.52
		c0,0.69,0.6,1.29,1.29,1.29c0.69,0,1.29-0.6,1.29-1.29v-1.03c0-0.69-0.6-1.29-1.29-1.29c2.75-4.13,5.51-9.12,5.51-12.82v-0.09
		l14.37-2.84c0.26-0.09,0.52,0.09,0.6,0.34v0.09L95.63,66.22z"/>
	<path d="M39.09,51.33c-0.69,0-1.29,0.6-1.29,1.29v1.03c0,0.69,0.6,1.29,1.29,1.29s1.29-0.6,1.29-1.29v-1.03
		C40.38,51.93,39.78,51.33,39.09,51.33z"/>
	<path d="M39.09,57.87c-0.69,0-1.29,0.6-1.29,1.29v1.03c0,0.69,0.6,1.29,1.29,1.29s1.29-0.6,1.29-1.29v-1.03
		C40.38,58.39,39.78,57.87,39.09,57.87z"/>
	<path d="M39.09,31.8c-0.69,0-1.29,0.6-1.29,1.29v1.03c0,0.69,0.6,1.29,1.29,1.29s1.29-0.6,1.29-1.29v-1.03
		C40.38,32.4,39.78,31.8,39.09,31.8z"/>
	<path d="M39.09,38.25c-0.69,0-1.29,0.6-1.29,1.29v1.03c0,0.69,0.6,1.29,1.29,1.29s1.29-0.6,1.29-1.29v-1.03
		C40.38,38.85,39.78,38.25,39.09,38.25z"/>
	<path d="M39.09,44.79c-0.69,0-1.29,0.6-1.29,1.29v1.03c0,0.69,0.6,1.29,1.29,1.29s1.29-0.6,1.29-1.29v-1.03
		C40.38,45.39,39.78,44.79,39.09,44.79z"/>
	<path d="M39.09,18.72c-0.69,0-1.29,0.6-1.29,1.29v1.03c0,0.69,0.6,1.29,1.29,1.29s1.29-0.6,1.29-1.29v-1.03
		C40.38,19.32,39.78,18.72,39.09,18.72z"/>
	<path d="M39.09,25.26c-0.69,0-1.29,0.6-1.29,1.29v1.03c0,0.69,0.6,1.29,1.29,1.29s1.29-0.6,1.29-1.29v-1.03
		C40.38,25.77,39.78,25.26,39.09,25.26z"/>
	<path d="M75.24,54.77c-0.69,0-1.29,0.6-1.29,1.29v1.03c0,0.69,0.6,1.29,1.29,1.29s1.29-0.6,1.29-1.29v-1.03
		C76.53,55.38,75.93,54.77,75.24,54.77z"/>
	<path d="M75.24,61.31c-0.69,0-1.29,0.6-1.29,1.29v1.03c0,0.69,0.6,1.29,1.29,1.29s1.29-0.6,1.29-1.29v-1.03
		C76.53,61.83,75.93,61.31,75.24,61.31z"/>
	<path d="M75.24,35.24c-0.69,0-1.29,0.6-1.29,1.29v1.03c0,0.69,0.6,1.29,1.29,1.29s1.29-0.6,1.29-1.29v-1.03
		C76.53,35.84,75.93,35.24,75.24,35.24z"/>
	<path d="M75.24,41.69c-0.69,0-1.29,0.6-1.29,1.29v1.03c0,0.69,0.6,1.29,1.29,1.29s1.29-0.6,1.29-1.29v-1.03
		C76.53,42.3,75.93,41.69,75.24,41.69z"/>
	<path d="M75.24,48.23c-0.69,0-1.29,0.6-1.29,1.29v1.03c0,0.69,0.6,1.29,1.29,1.29s1.29-0.6,1.29-1.29v-1.03
		C76.53,48.84,75.93,48.23,75.24,48.23z"/>
	<path d="M74.55,14.41c0-3.44-2.75-6.2-6.2-6.2c-3.44,0-6.2,2.75-6.2,6.2s2.75,6.2,6.2,6.2C71.71,20.61,74.55,17.85,74.55,14.41z
		 M64.74,14.41c0-1.98,1.64-3.61,3.61-3.61c1.98,0,3.61,1.64,3.61,3.61s-1.64,3.61-3.61,3.61l0,0
		C66.37,18.03,64.74,16.39,64.74,14.41L64.74,14.41z"/>
</g>
</svg>
