<?xml version="1.0" encoding="utf-8"?>
<!-- Generator: Adobe Illustrator 28.1.0, SVG Export Plug-In . SVG Version: 6.00 Build 0)  -->
<svg version="1.1" id="Layer_1" xmlns="http://www.w3.org/2000/svg" xmlns:xlink="http://www.w3.org/1999/xlink" x="0px" y="0px"
	 viewBox="0 0 110.55 76.54" style="enable-background:new 0 0 110.55 76.54;" xml:space="preserve">
<style type="text/css">
	.st0{display:none;}
	.st1{display:inline;fill:none;}
	.st2{fill:#808080;}
</style>
<g id="Layer_2_00000073722119373351752270000017113015111246931634_" class="st0">
	<line class="st1" x1="-24.13" y1="74.54" x2="142.13" y2="74.54"/>
	<line class="st1" x1="-24.13" y1="2" x2="142.13" y2="2"/>
</g>
<path class="st2" d="M3521.66,2698.06c6.59,0,11.96-5.36,11.96-11.96s-5.36-11.96-11.96-11.96"/>
<path class="st2" d="M3502.66,2733.64h29.9h8.09v-22.07c0-5.45-3.31-10.13-8.02-12.16c-2.98,2.47-6.81,3.95-10.97,3.95"/>
<path class="st2" d="M3585.78,2698.06c6.59,0,11.96-5.36,11.96-11.96s-5.36-11.96-11.96-11.96c-6.59,0-11.96,5.36-11.96,11.96
	S3579.19,2698.06,3585.78,2698.06z"/>
<path class="st2" d="M3604.78,2711.57c0-5.45-3.31-10.13-8.02-12.16c-2.98,2.47-6.81,3.95-10.97,3.95s-7.99-1.48-10.97-3.95
	c-4.71,2.03-8.02,6.71-8.02,12.16v22.07h8.09h29.9"/>
<path class="st2" d="M3553.72,2691.6c7.4,0,13.42-6.02,13.42-13.42s-6.02-13.42-13.42-13.42c-7.4,0-13.42,6.02-13.42,13.42
	S3546.32,2691.6,3553.72,2691.6z"/>
<path class="st2" d="M3571.09,2695.34c-1.38-1.41-3.08-2.51-4.97-3.19c-3.31,2.93-7.64,4.73-12.4,4.73s-9.09-1.8-12.4-4.73
	c-1.89,0.68-3.59,1.78-4.97,3.19c5.71,3.16,9.59,9.24,9.59,16.22v22.07h15.55v-22.07
	C3561.49,2704.59,3565.38,2698.5,3571.09,2695.34z"/>
<g>
	<path d="M8.33,47.08C3.59,46.71,1.9,42.05,1.9,36.88c0-5.14,1.67-9.85,6.43-10.19v1.51c-3.71,0.4-4.5,4.18-4.5,8.68
		s0.77,8.29,4.5,8.68V47.08z"/>
	<path d="M11.93,45.54c-0.66,0-1.22-0.56-1.22-1.22c0-0.66,0.53-1.19,1.22-1.19c0.64,0,1.22,0.56,1.22,1.24
		C13.15,45.04,12.62,45.54,11.93,45.54z"/>
	<path d="M18.6,45.54c-0.66,0-1.22-0.56-1.22-1.22c0-0.66,0.53-1.19,1.22-1.19c0.64,0,1.22,0.56,1.22,1.24
		C19.82,45.04,19.29,45.54,18.6,45.54z"/>
	<path d="M25.28,45.54c-0.66,0-1.22-0.56-1.22-1.22c0-0.66,0.53-1.19,1.22-1.19c0.64,0,1.22,0.56,1.22,1.24
		C26.49,45.04,25.97,45.54,25.28,45.54z"/>
	<path d="M43.33,45.54c-3.23,0-5.16-2.28-5.16-6.06c0-3.89,1.99-6.33,5.24-6.33c3.2,0,5.16,2.28,5.16,6.01
		C48.58,43.11,46.56,45.54,43.33,45.54z M43.41,34.82c-2.12,0-3.31,1.72-3.31,4.79c0,2.75,1.14,4.26,3.2,4.26s3.34-1.83,3.34-4.77
		C46.64,36.38,45.48,34.82,43.41,34.82z"/>
	<path d="M53.66,45.17h-1.77v-7.81c0-1.64-0.08-2.49-0.42-3.84h1.77c0.24,0.85,0.29,1.22,0.32,2.57c0.85-1.99,1.83-2.81,3.42-2.81
		c0.56,0,0.79,0.08,1.32,0.34l-0.08,1.67c-0.48-0.11-0.69-0.16-1.03-0.16c-2.12,0-3.52,2.17-3.52,5.45V45.17z"/>
	<path d="M70.84,45.17h-1.85v-7.92c0-1.27-0.24-2.89-0.53-3.73h1.8c0.24,0.61,0.26,0.77,0.42,1.93c1.16-1.62,2.33-2.22,3.84-2.22
		c2.25,0,3.89,1.46,3.89,4.45v7.49h-1.93v-7.44c0-1.75-0.74-2.73-2.09-2.73c-2.01,0-3.55,2.07-3.55,5.16V45.17z"/>
	<path d="M86.91,45.54c-3.23,0-5.16-2.28-5.16-6.06c0-3.89,1.99-6.33,5.24-6.33c3.2,0,5.16,2.28,5.16,6.01
		C92.16,43.11,90.14,45.54,86.91,45.54z M86.99,34.82c-2.12,0-3.31,1.72-3.31,4.79c0,2.75,1.14,4.26,3.2,4.26
		c2.07,0,3.34-1.83,3.34-4.77C90.22,36.38,89.06,34.82,86.99,34.82z"/>
	<path d="M98.41,45.14l-1.85-0.03V35.03h-2.28v-1.51h2.28v-6.8h1.85v6.8h2.52v1.51h-2.52V45.14z"/>
	<path d="M102.35,26.69h-0.03c4.74,0.37,6.43,5.03,6.43,10.19c0,5.14-1.64,9.85-6.41,10.19v-1.51c3.71-0.4,4.47-4.18,4.47-8.68
		s-0.77-8.29-4.47-8.68V26.69z"/>
</g>
</svg>
