<?xml version="1.0" encoding="utf-8"?>
<!-- Generator: Adobe Illustrator 28.1.0, SVG Export Plug-In . SVG Version: 6.00 Build 0)  -->
<svg version="1.1" id="Layer_1" xmlns="http://www.w3.org/2000/svg" xmlns:xlink="http://www.w3.org/1999/xlink" x="0px" y="0px"
	 viewBox="0 0 110.55 76.54" style="enable-background:new 0 0 110.55 76.54;" xml:space="preserve">
<style type="text/css">
	.st0{display:none;}
	.st1{display:inline;fill:none;}
</style>
<g id="Layer_2_00000073722119373351752270000017113015111246931634_" class="st0">
	<line class="st1" x1="-24.13" y1="74.54" x2="142.13" y2="74.54"/>
	<line class="st1" x1="-24.13" y1="2" x2="142.13" y2="2"/>
</g>
<g>
	<path d="M55.3,4.03c-13.19,0-27.19,3.55-28.01,10.15h-0.05v46.05c-0.05,8.48,14.04,12.28,28.01,12.28
		c13.97,0,28.06-3.76,28.06-12.28V14.18C82.49,7.6,68.49,4.03,55.3,4.03z M80.49,60.23c0,6.14-13.02,9.46-25.24,9.46
		s-25.23-3.32-25.23-9.46V20.4c4.9,3.2,14.03,5.16,24.24,5.16h1c9.96,0,20.37-2.02,25.24-5.85V60.23z M44.39,17.65
		c0.11-1.71,1.58-3.01,3.29-2.91c1.46-0.06,2.77,0.87,3.21,2.26c0.14,0.53,0.57,0.93,1.11,1.02c0.54,0.1,1.09-0.12,1.4-0.57
		c1.81-2.45,4.69-3.87,7.73-3.82c1.49-0.02,2.97,0.3,4.32,0.94c0.58,0.28,1.27,0.13,1.69-0.36c0.66-0.77,1.63-1.21,2.64-1.18
		c1.56-0.07,2.94,1,3.26,2.53c0.08,0.57,0.5,1.02,1.05,1.16c0.99,0.24,1.91,0.72,2.67,1.4c-4.33,2.73-12.87,4.51-22.09,4.57
		c-10.07-0.09-18.29-2.19-22.19-4.7c1.17-1.05,2.69-1.62,4.27-1.61c2.01-0.04,3.91,0.92,5.09,2.55c0.36,0.54,1.04,0.76,1.65,0.54
		c0.62-0.21,1.01-0.82,0.94-1.47C44.4,17.85,44.39,17.75,44.39,17.65z M79.41,16.87c-1-1.19-2.29-2.1-3.76-2.61
		c-0.88-2.45-3.22-4.06-5.83-4.02c-1.47-0.01-2.89,0.49-4.03,1.42c-1.47-0.57-3.04-0.86-4.62-0.86c-3.19-0.02-6.26,1.18-8.59,3.35
		c-1.22-1.44-3.02-2.25-4.91-2.21c-2.34-0.05-4.5,1.24-5.58,3.31c-1.57-1.11-3.45-1.71-5.38-1.7c-2.35-0.01-4.62,0.88-6.32,2.5
		c-0.24-0.39-0.37-0.83-0.38-1.29c0-3.76,10.8-7.93,25.23-7.93c14.45,0,25.24,4.17,25.24,7.93C80.42,15.58,80.03,16.34,79.41,16.87z
		"/>
</g>
</svg>
