<?xml version="1.0" encoding="utf-8"?>
<!-- Generator: Adobe Illustrator 28.1.0, SVG Export Plug-In . SVG Version: 6.00 Build 0)  -->
<svg version="1.1" id="Layer_1" xmlns="http://www.w3.org/2000/svg" xmlns:xlink="http://www.w3.org/1999/xlink" x="0px" y="0px"
	 viewBox="0 0 110.55 76.54" style="enable-background:new 0 0 110.55 76.54;" xml:space="preserve">
<style type="text/css">
	.st0{display:none;}
	.st1{display:inline;fill:none;}
</style>
<g id="Layer_2_00000073722119373351752270000017113015111246931634_" class="st0">
	<line class="st1" x1="-24.13" y1="74.54" x2="142.13" y2="74.54"/>
	<line class="st1" x1="-24.13" y1="2" x2="142.13" y2="2"/>
</g>
<g>
	<path d="M53.72,5.86c1.72,0,3.03,1.19,3.03,2.75c0,1.88-2.15,2.59-4.9,2.34v6.62h3.87v-3.03c3.47-0.5,5.38-2.59,5.38-5.87
		c0-4-2.75-6.62-6.94-6.62c-1.72,0-3.25,0.37-4.94,1.19l0.53,3.81C51.66,6.14,52.63,5.86,53.72,5.86z"/>
	<path d="M53.63,19.88c-1.28,0-2.31,1.06-2.31,2.37c0,1.34,1.09,2.4,2.44,2.4c1.34,0,2.4-1,2.4-2.28
		C56.16,21.01,55.04,19.88,53.63,19.88z"/>
	<path d="M29.55,24.46c-1.72,0-3.25,0.37-4.94,1.19l0.53,3.81c1.91-0.9,2.87-1.19,3.97-1.19c1.72,0,3.03,1.19,3.03,2.75
		c0,1.88-2.16,2.59-4.91,2.34v6.62h3.87v-3.03c3.47-0.5,5.38-2.59,5.38-5.87C36.49,27.08,33.74,24.46,29.55,24.46z"/>
	<path d="M29.02,42.3c-1.28,0-2.31,1.06-2.31,2.37c0,1.34,1.09,2.4,2.44,2.4c1.35,0,2.41-1,2.41-2.28
		C31.55,43.42,30.43,42.3,29.02,42.3z"/>
	<path d="M75.82,41.64c-1.28,0-2.31,1.06-2.31,2.37c0,1.34,1.09,2.4,2.44,2.4c1.34,0,2.4-1,2.4-2.28
		C78.35,42.76,77.23,41.64,75.82,41.64z"/>
	<path d="M76.35,23.8c-1.72,0-3.25,0.37-4.94,1.19l0.53,3.81c1.9-0.9,2.87-1.19,3.97-1.19c1.72,0,3.03,1.19,3.03,2.75
		c0,1.88-2.15,2.59-4.9,2.34v6.62h3.87v-3.03c3.47-0.5,5.38-2.59,5.38-5.87C83.29,26.42,80.54,23.8,76.35,23.8z"/>
	<path d="M54.71,50.35c10.36-0.33,10.36-15.36,0-15.68C44.34,34.99,44.34,50.02,54.71,50.35z"/>
	<path d="M62.01,52.86H47.1c-4.15-0.04-7.56,3.29-7.61,7.45v12.3c0,1.1,0.89,2,2,2l0,0h1.35h23.41h1.29h0.05c1.1,0,2-0.89,2-2V60.28
		C69.55,56.14,66.15,52.82,62.01,52.86z"/>
</g>
</svg>
