<?xml version="1.0" encoding="utf-8"?>
<!-- Generator: Adobe Illustrator 28.1.0, SVG Export Plug-In . SVG Version: 6.00 Build 0)  -->
<svg version="1.1" id="Layer_1" xmlns="http://www.w3.org/2000/svg" xmlns:xlink="http://www.w3.org/1999/xlink" x="0px" y="0px"
	 viewBox="0 0 110.6 76.5" style="enable-background:new 0 0 110.6 76.5;" xml:space="preserve">
<style type="text/css">
	.st0{display:none;}
	.st1{display:inline;fill:none;}
	.st2{fill:#808080;}
</style>
<g id="Layer_2_00000073722119373351752270000017113015111246931634_" class="st0">
	<line class="st1" x1="-24.1" y1="74.5" x2="142.1" y2="74.5"/>
	<line class="st1" x1="-24.1" y1="2" x2="142.1" y2="2"/>
</g>
<g>
	<path class="st2" d="M1879.7,2086.8c3.3,0,6-2.7,6-6s-2.7-6-6-6c-3.3,0-6,2.7-6,6C1873.8,2084.2,1876.4,2086.8,1879.7,2086.8z"/>
	<path class="st2" d="M1886.1,2093.1c5.9-0.8,13.2-2.2,14.4-2.3c1.4-0.2,2.4-1.7,2.2-3.1s-1.7-2.4-3.1-2.2
		c-6.5,1.2-17.2,2.9-19.8,2.9c-10.4,0-15.2,6.9-15.3,7.2c-0.6,1-0.6,2.2,0.1,3.1l4.7,6.6c0.6,0.7,1.4,1.1,2.2,1.1
		c0.6,0,1.1-0.2,1.5-0.5c0.2-0.1,0.2-0.2,0.4-0.3v1.9l-1.7,19.9c-0.2,1.6,1.1,3.1,2.7,3.2c1.6,0.2,3.1-1.1,3.2-2.7l1.6-19.2h1.1
		l1.6,19.2c0.2,1.5,1.4,2.7,3,2.7c0.1,0,0.2,0,0.2,0c1.6-0.2,2.9-1.6,2.7-3.2l-1.7-19.9L1886.1,2093.1z M1873.3,2101.8l-3.2-4.6
		c0.7-0.6,1.8-1.5,3.3-2.2L1873.3,2101.8z"/>
</g>
<g>
	<path class="st2" d="M1933.8,2093.6c1.8,0.2,3.5,0.4,4.8,0.4c2,0,3.5-0.3,4.5-1.2c0.6-0.6,1.1-1.4,1.1-2.3c0.1-2.3-2.5-6.3-7.8-12
		c-0.9-1-2.5-1.1-3.6-0.1c-0.2,0.1-0.3,0.4-0.4,0.6c-0.8-2.4-2.9-4-5.6-4c-2.6,0-4.8,1.7-5.6,4c-0.1-0.2-0.3-0.4-0.4-0.6
		c-1-0.9-2.6-0.9-3.6,0.1c-5.3,5.7-7.9,9.7-7.8,12c0.1,0.9,0.4,1.7,1.1,2.3c1,0.9,2.5,1.2,4.5,1.2c1.3,0,3-0.1,4.8-0.4
		c0.4,0,0.7-0.1,1-0.1l0.3,12.5c0,0.1,0,0.2,0,0.4l-3.6,8.2c-0.4,0.9-0.6,1.9-0.8,2.8l-1.1,10c-0.2,1.6,0.9,3.1,2.6,3.3
		c0.1,0,0.2,0,0.4,0c1.4,0,2.7-1.1,2.9-2.6l1.3-10c0.1-0.4,0.1-0.9,0.4-1.2l3.8-8.7l3.8,8.7c0.1,0.4,0.3,0.8,0.4,1.2l1.3,10
		c0.2,1.6,1.6,2.7,3.3,2.6c1.6-0.2,2.7-1.6,2.6-3.3l-1.3-10c-0.1-1-0.4-1.9-0.8-2.8l-3.6-8.2c0-0.1,0-0.2,0-0.3l0.3-12.6
		C1933.2,2093.5,1933.5,2093.5,1933.8,2093.6z M1930.4,2088.4h-6.8c-1.1,0-2.5,0.1-3.9,0.3c-1.1,0.1-2.8,0.3-4.2,0.3
		c1.1-1.8,3.3-4.6,5.7-7c0-0.1,0.1-0.1,0.1-0.1c0.5,2.8,2.8,4.8,5.8,4.8c2.9,0,5.3-2.1,5.8-4.8c0,0.1,0.1,0.1,0.1,0.1
		c2.3,2.5,4.6,5.3,5.7,7c-1.3,0-3.1-0.2-4.2-0.3C1932.9,2088.5,1931.4,2088.4,1930.4,2088.4z"/>
</g>
<path class="st2" d="M1898.8,2079.8c0.4,0.4,1.1-0.1,0.8-0.6l-2.4-4.9l3.3-0.8c0.3-0.1,0.5-0.4,0.3-0.7l-4-7.5
	c-0.1-0.2-0.3-0.3-0.6-0.2l-3.5,0.8c-0.3,0.1-0.5,0.5-0.3,0.8l3.1,4.4l-3.1,0.7c-0.4,0.1-0.5,0.6-0.2,0.8L1898.8,2079.8z"/>
<path class="st2" d="M1905.6,2070.1l3.3,0.8l-2.4,4.9c-0.2,0.5,0.4,1,0.8,0.6l6.6-7.1c0.2-0.3,0.2-0.7-0.2-0.8l-3.1-0.8l3.1-4.4
	c0.2-0.3,0.1-0.7-0.3-0.8l-3.5-0.8c-0.2-0.1-0.5,0.1-0.6,0.2l-4,7.5C1905.1,2069.7,1905.3,2070.1,1905.6,2070.1z"/>
<g>
	<path class="st2" d="M2127.3,2077.1c4.1,0,7.4-3.4,7.4-7.4c0-4.1-3.3-7.5-7.4-7.5c-4.1,0-7.5,3.4-7.5,7.5
		C2119.8,2073.7,2123.2,2077.1,2127.3,2077.1L2127.3,2077.1z"/>
	<path class="st2" d="M2156.5,2130.5c-1.8,0-3.5-0.4-5-1.1c-1.5-0.7-3.3-1.1-5.1-1.1c-1.8,0-3.6,0.4-5.1,1.1c-1.5,0.7-3.2,1.1-5,1.1
		s-3.4-0.4-4.9-1.1c-1.5-0.7-3.3-1.1-5.1-1.1s-3.6,0.4-5.1,1.1c-1.5,0.7-3.2,1.1-4.9,1.1c-1.8,0-3.4-0.4-5-1.1
		c-1.5-0.7-3.3-1.1-5.1-1.1s-3.6,0.4-5.1,1.1c-1.5,0.7-3.2,1.1-4.9,1.1c-1.7,0-3.4-0.4-4.9-1.1c-1.5-0.7-3.3-1.1-5.1-1.1
		c-1.8,0-3.6,0.4-5.1,1.1c-1.5,0.7-3.2,1.1-4.9,1.1v-7.4c1.8,0,3.4-0.4,4.9-1.1c1.5-0.7,3.3-1.1,5.1-1.1c1.8,0,3.6,0.4,5.1,1.1
		c1.5,0.7,3.2,1.1,4.9,1.1c1.8,0,3.4-0.4,4.9-1.1c1.5-0.7,3.3-1.1,5.1-1.1s3.6,0.4,5.1,1.1c1.5,0.7,3.2,1.1,5,1.1s3.4-0.4,4.9-1.1
		c1.5-0.7,3.3-1.1,5.1-1.1s3.6,0.4,5.1,1.1c1.5,0.7,3.2,1.1,4.9,1.1c1.8,0,3.4-0.4,5-1.1c1.5-0.7,3.3-1.1,5.1-1.1
		c1.8,0,3.6,0.4,5.1,1.1c1.5,0.7,3.2,1.1,5,1.1V2130.5z"/>
	<path class="st2" d="M2081.1,2115.7c1.5-0.7,3.2-1.1,4.9-1.1c1.8,0,3.6,0.4,5.1,1.1c1.5,0.7,3.2,1.1,4.9,1.1c1.8,0,3.4-0.4,4.9-1.1
		c1.5-0.7,3.3-1.1,5.1-1.1s3.6,0.4,5.1,1.1c1.5,0.7,3.2,1.1,5,1.1s3.4-0.4,4.9-1.1c1-0.5,2-0.8,3.1-1l12.9-14.7h-16.6l6.9-11.8
		l15,8.2c5,2.8,8.6-3.7,3.6-6.5l-21.5-11.9c-7.9-4.4-11.3,2.9-11.3,2.9l-11.1,18.8l-29.2,0
		C2073.9,2105.2,2078.7,2112.4,2081.1,2115.7L2081.1,2115.7z"/>
	<path class="st2" d="M2128.1,2114.8c1.1,0.2,2.2,0.5,3.3,1c1.5,0.7,3.2,1.1,4.9,1.1c1.8,0,3.4-0.4,5-1.1c1.5-0.7,3.3-1.1,5.1-1.1
		c1.8,0,3.6,0.4,5.1,1.1c1.5,0.7,3.2,1.1,5,1.1l0-16.7l-15.5,0L2128.1,2114.8z"/>
</g>
<path d="M63.5,32.6C60.9,19.2,49.1,9.6,35.4,9.6S9.9,19.2,7.2,32.6c-2.1,1-3.5,3.2-3.5,5.6s1.4,4.6,3.5,5.6
	C9.9,57.3,21.6,67,35.4,67s25.5-9.7,28.2-23.1c2.1-1,3.5-3.2,3.5-5.6C67,35.8,65.6,33.6,63.5,32.6z M62.3,42.3l-0.5,0.2l-0.1,0.5
	c-2.3,12.8-13.4,22-26.4,22S11.3,55.8,9,43.1l-0.1-0.5l-0.5-0.2c-1.6-0.6-2.7-2.2-2.7-4.1c0-1.8,1.1-3.5,2.7-4.1L8.9,34L9,33.5
	c2.3-12.8,13.4-22,26.4-22s24.1,9.3,26.4,22l0.1,0.5l0.5,0.2c1.6,0.6,2.7,2.2,2.7,4.1C65.1,40.1,64,41.7,62.3,42.3L62.3,42.3z"/>
<path d="M28.9,30.9c0-0.4-0.2-0.8-0.6-0.9l-6.9-2.9c-0.5-0.2-1,0-1.2,0.5c-0.2,0.5,0,1,0.5,1.2l4.6,1.9l-4.5,1.6
	c-0.5,0.2-0.8,0.7-0.6,1.2c0.1,0.4,0.5,0.6,0.9,0.6c0.1,0,0.2,0,0.3-0.1l6.9-2.4C28.7,31.6,28.9,31.2,28.9,30.9L28.9,30.9z"/>
<path d="M50,32.4l-4.6-1.9l4.5-1.6c0.5-0.2,0.8-0.7,0.6-1.2c-0.2-0.5-0.7-0.8-1.2-0.6l-6.9,2.4c-0.4,0.1-0.6,0.5-0.6,0.9
	c0,0.4,0.2,0.8,0.6,0.9l6.9,2.9c0.1,0.1,0.2,0.1,0.4,0.1c0.4,0,0.7-0.2,0.9-0.6C50.7,33.1,50.5,32.6,50,32.4L50,32.4z"/>
<path d="M35.4,43.8c-6.2,0-9.6,3.9-11.4,7.2c-0.2,0.5-0.1,1,0.4,1.3s1,0.1,1.3-0.4c2.2-4.1,5.5-6.2,9.7-6.2s7.5,2.1,9.7,6.2
	c0.2,0.3,0.5,0.5,0.8,0.5c0.2,0,0.3,0,0.5-0.1c0.5-0.2,0.6-0.8,0.4-1.3C45,47.8,41.6,43.8,35.4,43.8z"/>
<path d="M33.5,37.8c0.5,0,1-0.4,1-1s0.4-1,1-1c0.5,0,1,0.4,1,1s0.4,1,1,1c0.5,0,1-0.4,1-1c0-1.6-1.3-2.9-2.9-2.9s-2.9,1.3-2.9,2.9
	C32.5,37.4,32.9,37.8,33.5,37.8z"/>
<g>
	<path d="M95.9,18c-8.3-2.8-17.3,1.7-20.1,10c-0.9,2.8-1,5.6-0.5,8.3l-4.8,5.1c-1.1,1.1-0.1,3,1.4,2.7l6.9-0.8
		c1.8,2.1,4.2,3.7,6.9,4.6c8.3,2.8,17.3-1.7,20.1-10C108.8,29.8,104.3,20.8,95.9,18z M92.2,21.8c3,2.5-2.1,3.4-6.6,8.5
		C84.2,25.7,89,19.1,92.2,21.8z M98,32c0.7,5-4.9,1.4-13.3,2.5C87.2,28.9,97.2,26.7,98,32z M86.2,39c3.4-2.6,10.2-0.8,9,2.7
		C94.2,44.9,91.8,41,86.2,39z"/>
</g>
</svg>
