<?xml version="1.0" encoding="utf-8"?>
<!-- Generator: Adobe Illustrator 28.1.0, SVG Export Plug-In . SVG Version: 6.00 Build 0)  -->
<svg version="1.1" id="Layer_1" xmlns="http://www.w3.org/2000/svg" xmlns:xlink="http://www.w3.org/1999/xlink" x="0px" y="0px"
	 viewBox="0 0 110.6 76.5" style="enable-background:new 0 0 110.6 76.5;" xml:space="preserve">
<style type="text/css">
	.st0{display:none;}
	.st1{display:inline;fill:none;}
</style>
<g id="Layer_2_00000073722119373351752270000017113015111246931634_" class="st0">
	<line class="st1" x1="-24.1" y1="74.5" x2="142.1" y2="74.5"/>
	<line class="st1" x1="-24.1" y1="2" x2="142.1" y2="2"/>
</g>
<g>
	<g>
		<path d="M89.6,32.8c0.1,0.1,1.3,2.2,1.5,2.7l-0.7,0.5c-1.1-1.1-2.2-2.2-3.5-3.5c1.6-1.1,2.9-1.9,4.2-2.8c0.1,0.2,0.3,0.4,0.4,0.6
			L89.6,32.8z"/>
		<g>
			<line x1="90.1" y1="32.8" x2="96.2" y2="32.8"/>
			<path d="M90.1,33.4h6.1c0.3,0,0.6-0.3,0.6-0.6c0-0.3-0.3-0.6-0.6-0.6h-6.1c-0.3,0-0.6,0.3-0.6,0.6C89.5,33.1,89.7,33.4,90.1,33.4
				z"/>
		</g>
	</g>
	<g>
		<path d="M36.3,8.6l-4.4,12.1c-0.4,1.1-1,1.5-2.2,1.5c-1.2,0-1.8-0.5-2.2-1.7l-2.6-8l-2.7,8.2c-0.3,1-1,1.5-2.2,1.5
			c-0.9,0-1.6-0.1-2.1-1.6l-4.3-12h4.1l1.8,5.5c0.2,0.8,0.7,2.5,0.7,2.5s0.3-1.3,0.6-2.2l1.7-5.8h4.9l1.8,6.1
			c0.2,0.7,0.5,1.9,0.5,1.9s0.3-1.1,0.5-1.8L32,8.6H36.3z"/>
		<path d="M52.1,21.9h-4.2v-7.8c0-2-0.8-2.3-1.7-2.3c-1.3,0-2.7,1.8-2.7,4v6.1h-4.1V0.8h4.1v8.9c1-1.1,2.2-1.5,3.7-1.5
			c2.4,0,4.9,1.2,4.9,4.6L52.1,21.9L52.1,21.9z"/>
		<path d="M62,22.3c-3.7,0-5.9-2.6-5.9-6.9c0-4.4,2.3-7.2,6-7.2c3.6,0,5.9,2.6,5.9,6.9C67.9,19.6,65.7,22.3,62,22.3z M62.1,10.1
			c-2.4,0-3.8,2-3.8,5.5c0,3.1,1.3,4.9,3.7,4.9s3.8-2.1,3.8-5.4C65.7,11.9,64.4,10.1,62.1,10.1z"/>
		<path d="M82.3,5.9c-0.8,0-1.4-0.5-1.4-1.3c0-0.8,0.5-1.5,1.3-1.5c0.8,0,1.5,0.6,1.5,1.4C83.6,5.3,83,5.9,82.3,5.9z M83.3,21.9
			h-2.1V8.6h2.1V21.9z"/>
		<path d="M94.9,11.2c-1.3-0.9-2.6-1.1-3.6-1.1c-1,0-1.9,0.3-1.9,1.5c0,0.9,1,1.5,2.9,2.8c2.1,1.4,3,2.3,3,4.2
			c0,2.2-1.7,3.6-4.3,3.6c-1.7,0-3.1-0.4-4.4-1.3l0.4-1.8c1.2,0.9,2.6,1.4,3.8,1.4c1.5,0,2.3-0.7,2.3-1.9c0-0.9-0.6-1.5-2-2.4
			c-2.9-1.9-3.9-2.9-3.9-4.7c0-2.1,1.6-3.4,4.1-3.4c1.3,0,2.6,0.2,3.9,1.1L94.9,11.2z"/>
	</g>
	<g>
		<path d="M41.5,57.9L37.2,70c-0.4,1.1-1,1.5-2.2,1.5c-1.2,0-1.8-0.5-2.2-1.7l-2.6-8L27.6,70c-0.3,1-1,1.5-2.2,1.5
			c-0.9,0-1.6-0.1-2.1-1.6l-4.3-12h4.1l1.8,5.5c0.2,0.8,0.7,2.5,0.7,2.5s0.3-1.3,0.6-2.2l1.7-5.8h4.9l1.8,6.1
			c0.2,0.7,0.5,1.9,0.5,1.9s0.3-1.1,0.5-1.8l1.8-6.2L41.5,57.9L41.5,57.9z"/>
		<path d="M57.4,71.2h-4.2v-7.8c0-2-0.8-2.3-1.7-2.3c-1.3,0-2.7,1.8-2.7,4v6.1h-4.1V50.1h4.1V59c1-1.1,2.2-1.5,3.7-1.5
			c2.4,0,4.9,1.2,4.9,4.6L57.4,71.2L57.4,71.2z"/>
		<path d="M67.3,71.6c-3.7,0-5.9-2.6-5.9-6.9c0-4.4,2.3-7.2,6-7.2c3.7,0,5.9,2.6,5.9,6.9C73.2,68.8,70.9,71.6,67.3,71.6z M67.3,59.4
			c-2.4,0-3.8,2-3.8,5.5c0,3.1,1.3,4.9,3.6,4.9c2.4,0,3.8-2.1,3.8-5.4C71,61.1,69.7,59.4,67.3,59.4z"/>
		<path d="M74.8,57.5c1.2-1.4,1.6-2.2,1.6-3.3c0-1.4-1.4-2-1.4-3c0-0.5,0.5-1,1.1-1c1.2,0,2.1,1.4,2.1,3c0,2-0.8,3.6-2.7,5.3
			L74.8,57.5z"/>
		<path d="M88.2,60.5c-1.3-0.9-2.6-1.1-3.6-1.1c-1,0-1.9,0.3-1.9,1.5c0,0.9,1,1.5,2.9,2.8c2.1,1.4,3,2.3,3,4.2
			c0,2.2-1.7,3.7-4.3,3.7c-1.7,0-3.1-0.4-4.4-1.3l0.4-1.8c1.2,0.9,2.6,1.4,3.8,1.4c1.5,0,2.3-0.7,2.3-1.9c0-0.8-0.6-1.4-2-2.4
			c-2.9-1.9-3.9-2.9-3.9-4.7c0-2.1,1.6-3.4,4.1-3.4c1.3,0,2.6,0.2,3.9,1.1L88.2,60.5z"/>
	</g>
	<g>
		<path d="M43.4,32.1c-0.1,0.1-1.3,2.2-1.5,2.7l0.7,0.5c1.1-1.1,2.2-2.2,3.5-3.5c-1.6-1-2.9-1.9-4.2-2.8c-0.1,0.2-0.3,0.4-0.4,0.6
			L43.4,32.1z"/>
		<g>
			<line x1="42.9" y1="32.1" x2="36.8" y2="32.1"/>
			<path d="M42.9,32.7h-6.1c-0.3,0-0.6-0.3-0.6-0.6c0-0.3,0.3-0.6,0.6-0.6h6.1c0.3,0,0.6,0.3,0.6,0.6C43.5,32.5,43.2,32.7,42.9,32.7
				z"/>
		</g>
	</g>
	<g>
		<line x1="15.5" y1="26.1" x2="66.7" y2="26.1"/>
		<path d="M66.7,26.6H15.5c-0.3,0-0.6-0.2-0.6-0.5s0.2-0.5,0.6-0.5h51.3c0.3,0,0.6,0.2,0.6,0.5S67,26.6,66.7,26.6z"/>
	</g>
	<g>
		<line x1="20.7" y1="75.1" x2="72.6" y2="75.1"/>
		<path d="M72.6,75.6H20.7c-0.3,0-0.5-0.2-0.5-0.6s0.2-0.6,0.5-0.6h51.9c0.3,0,0.6,0.2,0.6,0.6S72.9,75.6,72.6,75.6z"/>
	</g>
	<g>
		<line x1="87.2" y1="26.1" x2="93.7" y2="26.1"/>
		<path d="M93.7,26.6h-6.4c-0.3,0-0.6-0.2-0.6-0.5s0.2-0.5,0.6-0.5h6.4c0.3,0,0.6,0.2,0.6,0.5S94,26.6,93.7,26.6z"/>
	</g>
	<g>
		<line x1="81" y1="75.1" x2="88.1" y2="75.1"/>
		<path d="M88.1,75.6H81c-0.3,0-0.6-0.2-0.6-0.6s0.2-0.5,0.6-0.5h7.1c0.3,0,0.6,0.2,0.6,0.6S88.4,75.6,88.1,75.6z"/>
	</g>
	<g>
		<line x1="82.3" y1="26.1" x2="77.9" y2="44.5"/>
		<path d="M77.9,45c0,0-0.1,0-0.1,0c-0.3-0.1-0.5-0.4-0.4-0.7l4.4-18.4c0.1-0.3,0.4-0.5,0.7-0.4c0.3,0.1,0.5,0.4,0.4,0.7l-4.4,18.4
			C78.3,44.9,78.1,45,77.9,45z"/>
	</g>
	<path d="M77.9,44.5c-0.1-0.1-1.8-1.9-2.2-2.2L75,42.8c0.8,1.4,1.5,2.7,2.4,4.4c1.5-1.2,2.7-2.2,3.9-3.3c-0.1-0.2-0.3-0.4-0.4-0.5
		L77.9,44.5z"/>
</g>
</svg>
