<?xml version="1.0" encoding="utf-8"?>
<!-- Generator: Adobe Illustrator 28.1.0, SVG Export Plug-In . SVG Version: 6.00 Build 0)  -->
<svg version="1.1" id="Layer_1" xmlns="http://www.w3.org/2000/svg" xmlns:xlink="http://www.w3.org/1999/xlink" x="0px" y="0px"
	 viewBox="0 0 110.55 76.54" style="enable-background:new 0 0 110.55 76.54;" xml:space="preserve">
<style type="text/css">
	.st0{display:none;}
	.st1{display:inline;fill:none;}
	.st2{fill:none;}
	.st3{fill:#FFFFFF;}
</style>
<g id="Layer_2_00000073722119373351752270000017113015111246931634_" class="st0">
	<line class="st1" x1="-24.13" y1="74.54" x2="142.13" y2="74.54"/>
	<line class="st1" x1="-24.13" y1="2" x2="142.13" y2="2"/>
</g>
<g>
	<path class="st2" d="M-5240.72,925.05c-1.72,0-3.37,0.3-4.92,0.82l3.29,12.07l2.3,1.28c0.66,0.37,0.9,1.2,0.53,1.86
		c-0.25,0.45-0.71,0.7-1.19,0.7c-0.23,0-0.46-0.06-0.67-0.17l-2.8-1.56c-0.02-0.01-0.04-0.04-0.06-0.05
		c-0.1-0.06-0.19-0.14-0.27-0.23c-0.03-0.04-0.07-0.07-0.1-0.11c-0.08-0.11-0.14-0.24-0.19-0.38c0-0.02-0.02-0.04-0.03-0.06
		c0,0,0,0,0-0.01l-3.34-12.23c-4.72,2.63-7.92,7.66-7.92,13.44c0,8.48,6.9,15.37,15.37,15.37s15.37-6.9,15.37-15.37
		C-5225.34,931.95-5232.24,925.05-5240.72,925.05z"/>
	<path d="M-5339.6,903.64c-6.21,0-11.27,5.06-11.27,11.27v6.37c0,1.15,0.92,2.07,2.07,2.07c1.15,0,2.07-0.92,2.07-2.07v-6.37
		c0-1.53,0.54-2.99,1.3-4.14v33.36c0,1.38,1.15,2.53,2.53,2.53s2.53-1.15,2.53-2.53v-19.25h1.46v19.25c0,1.38,1.15,2.53,2.53,2.53
		s2.53-1.15,2.53-2.53v-33.36c0.84,1.15,1.3,2.61,1.3,4.14v6.37c0,1.15,0.92,2.07,2.07,2.07c1.15,0,2.07-0.92,2.07-2.07v-6.37
		C-5328.32,908.71-5333.39,903.64-5339.6,903.64z"/>
	<path d="M-5339.6,902.19c3.13,0,5.67-2.54,5.67-5.68c0-3.13-2.54-5.67-5.67-5.67c-3.13,0-5.68,2.54-5.68,5.67
		C-5345.27,899.65-5342.73,902.19-5339.6,902.19z"/>
	<path d="M-5307.39,914.92v5.83c1.33-0.33,2.72-0.53,4.14-0.58v-5.25c0.08-6.21-4.98-11.27-11.2-11.27
		c-6.21,0-11.27,5.06-11.27,11.27v6.37c0,1.15,0.92,2.07,2.07,2.07s2.07-0.92,2.07-2.07v-6.37c0-1.53,0.54-2.99,1.3-4.14v19.92
		c2.48-4.51,6.61-7.97,11.58-9.57v-10.34C-5307.85,911.93-5307.39,913.38-5307.39,914.92z"/>
	<path d="M-5314.44,902.19c3.13,0,5.67-2.54,5.67-5.68c0-3.13-2.54-5.67-5.67-5.67s-5.68,2.54-5.68,5.67
		C-5320.12,899.65-5317.58,902.19-5314.44,902.19z"/>
	<path class="st3" d="M-5320.27,944.14c0,0.49,0.15,0.96,0.4,1.35c-0.16-0.55-0.3-1.11-0.4-1.68V944.14z"/>
	<polygon class="st3" points="-5279.08,928.41 -5278.35,930.11 -5278.35,930.11 -5279.08,928.4 	"/>
	<path d="M-5313.75,933.59v10.55c0,1.38,1.15,2.53,2.53,2.53s2.53-1.15,2.53-2.53v-15.35
		C-5310.78,929.9-5312.52,931.57-5313.75,933.59z"/>
	<path class="st3" d="M-5303.56,941.23c-0.04-0.06-0.08-0.11-0.12-0.17c-0.03-0.06-0.06-0.13-0.08-0.19l-0.25,0.37H-5303.56z"/>
	<path d="M-5240.72,922.32c-1.97,0-3.86,0.33-5.64,0.91l-5.1-18.71l10.75-0.01c1.88,0,3.42,1.53,3.42,3.42
		c0,1.88-1.53,3.42-3.42,3.42c-0.76,0-1.37,0.61-1.37,1.37s0.61,1.37,1.37,1.37c3.39,0,6.15-2.76,6.15-6.15
		c0-3.39-2.76-6.15-6.15-6.15l-12.54,0.01c-0.06,0-0.12,0.03-0.18,0.04c-0.06,0.01-0.12,0-0.18,0.01c-0.03,0.01-0.05,0.03-0.08,0.04
		c-0.09,0.03-0.17,0.08-0.25,0.13c-0.07,0.04-0.14,0.08-0.21,0.14c-0.06,0.06-0.11,0.13-0.17,0.2c-0.05,0.07-0.11,0.14-0.14,0.22
		c-0.04,0.08-0.06,0.15-0.08,0.24c-0.03,0.09-0.05,0.18-0.06,0.28c0,0.03-0.02,0.06-0.02,0.09c0,0.06,0.03,0.12,0.04,0.18
		c0.01,0.06-0.01,0.12,0.01,0.18l2.93,10.74h-6.06c-0.17,0.95-0.43,1.86-0.76,2.73h5.31l-14.11,14.11c-0.21,0.88-0.3,1.77-0.24,2.72
		l0.05,1.34l16.9-16.9l1.64,6.04c-5.88,3-9.92,9.09-9.92,16.13c0,9.98,8.12,18.11,18.11,18.11c9.99,0,18.11-8.12,18.11-18.11
		C-5222.61,930.44-5230.73,922.32-5240.72,922.32z M-5240.72,955.8c-8.48,0-15.37-6.9-15.37-15.37c0-5.77,3.2-10.81,7.92-13.44
		l3.34,12.23c0,0,0,0,0,0.01c0.01,0.02,0.02,0.04,0.03,0.06c0.05,0.14,0.11,0.26,0.19,0.38c0.03,0.04,0.07,0.07,0.1,0.11
		c0.08,0.09,0.17,0.17,0.27,0.23c0.02,0.02,0.03,0.04,0.06,0.05l2.8,1.56c0.21,0.12,0.44,0.17,0.67,0.17c0.48,0,0.94-0.25,1.19-0.7
		c0.37-0.66,0.13-1.49-0.53-1.86l-2.3-1.28l-3.29-12.07c1.55-0.52,3.2-0.82,4.92-0.82c8.48,0,15.37,6.9,15.37,15.37
		C-5225.34,948.9-5232.24,955.8-5240.72,955.8z"/>
	<path d="M-5278.84,927.54l-4.55-10.55h11.13c0.75-1.05,1.25-1.93,1.56-2.73h-13.87l-3.56-8.26c1-0.09,1.98-0.18,2.84-0.26
		l-1.14-2.99l0.41-0.3l-9.11-0.82c-3.6-0.19-3.59,5.18,0,4.99c0,0,1.85-0.17,4.14-0.37l3.87,8.97l-6.4,9.48
		c-2.65-1.51-5.7-2.39-8.96-2.39c-0.36,0-0.71,0.01-1.07,0.03c-1.08,0.06-2.13,0.22-3.15,0.47c-0.68,0.16-1.35,0.36-1.99,0.6
		c-1.85,0.68-3.55,1.65-5.06,2.85c-0.51,0.41-1,0.84-1.46,1.29c-2.56,2.53-4.37,5.82-5.06,9.49c-0.21,1.09-0.32,2.22-0.32,3.37
		s0.11,2.28,0.32,3.37c0.11,0.57,0.24,1.13,0.4,1.68c2.19,7.53,9.15,13.05,17.38,13.05c9.52,0,17.33-7.39,18.04-16.74h2.55
		c0.22,0.85,0.59,1.64,1.08,2.35c0.23-1.26,0.74-2.39,1.47-3.33c-0.05-0.27-0.09-0.56-0.09-0.85c0-0.48,0.07-0.95,0.21-1.39
		l-0.08-1.09l-0.03-0.42l-0.21-2.68c-0.85,0.72-1.52,1.63-1.96,2.67c-0.27,0.63-0.46,1.3-0.55,2.01h-2.38
		c-0.39-5.18-2.96-9.76-6.81-12.82l5.42-8.03l4.03,9.35l2.16,5.01c0-1.39,0.2-2.79,0.56-4.18c0,0,0,0,0,0
		C-5279.01,928.12-5278.93,927.83-5278.84,927.54z M-5302.48,955.8c-6.36,0-11.83-3.88-14.16-9.4c-0.78-1.84-1.21-3.86-1.21-5.98
		c0-3.19,0.98-6.16,2.65-8.61c0.44-0.64,0.93-1.24,1.46-1.81c1.42-1.53,3.13-2.77,5.06-3.63c1.9-0.84,4-1.32,6.21-1.32
		c2.69,0,5.23,0.7,7.43,1.93l-8.56,12.68c-0.02,0.04-0.03,0.08-0.05,0.12c-0.04,0.08-0.08,0.17-0.11,0.26
		c-0.03,0.09-0.04,0.17-0.05,0.27c0,0.04-0.03,0.08-0.03,0.13c0,0.04,0.02,0.08,0.03,0.13c0.01,0.09,0.03,0.18,0.05,0.27
		c0,0.02,0.01,0.03,0.02,0.04c0.02,0.07,0.04,0.13,0.08,0.19c0.03,0.06,0.07,0.12,0.12,0.17c0.01,0.01,0.01,0.02,0.02,0.04
		c0.06,0.08,0.12,0.14,0.2,0.2c0.03,0.03,0.05,0.07,0.09,0.09c0.05,0.03,0.1,0.05,0.15,0.07c0.05,0.02,0.09,0.05,0.14,0.06
		c0.15,0.06,0.31,0.1,0.47,0.1h15.3C-5287.88,949.63-5294.47,955.8-5302.48,955.8z M-5299.91,939.06l7.12-10.55
		c3.13,2.55,5.23,6.3,5.61,10.55H-5299.91z"/>
	<path d="M-5262.02,917c0.42-0.88,0.76-1.78,0.98-2.73c0.21-0.89,0.33-1.82,0.33-2.81c0-5.34-3.65-10.33-11.74-10.33
		c-3.24,0-6.7,0.85-9.07,2.19c-0.35,0.2-0.68,0.41-0.98,0.62l0.54,1.42l1.14,3.01c1.76-1.34,4.57-2.18,7.1-2.18
		c4.43,0.07,6.68,2.46,6.68,6.05c0,0.69-0.1,1.37-0.26,2.03c-0.22,0.91-0.59,1.81-1.11,2.73c-0.83,1.5-2.02,3.07-3.55,4.86
		c-1.52,1.83-2.62,3.64-3.35,5.42c-0.37,0.91-0.64,1.81-0.82,2.7c-0.19,0.96-0.28,1.91-0.27,2.83c0.01,0.4,0.03,0.81,0.07,1.2
		l0.12,1.52l0.02,0.31h3.5h1.98l-0.07-1.83c0-0.05,0-0.1-0.01-0.15c-0.06-1.34,0.06-2.61,0.41-3.87c0.25-0.9,0.61-1.8,1.1-2.71
		c0.62-1.16,1.45-2.35,2.5-3.6C-5264.82,921.39-5263.12,919.28-5262.02,917z"/>
	<path d="M-5270.77,942.26c-0.71-0.63-1.63-1-2.73-1c-0.09,0-0.17,0.02-0.25,0.02c-1.37,0.07-2.51,0.72-3.2,1.76
		c-0.16,0.24-0.3,0.49-0.41,0.77c-0.23,0.56-0.35,1.19-0.35,1.87c0,2.46,1.69,4.36,4.15,4.36c0.48,0,0.93-0.07,1.34-0.19
		c1.8-0.54,2.87-2.17,2.87-4.17c0-0.25-0.03-0.49-0.06-0.72C-5269.56,943.84-5270.04,942.91-5270.77,942.26z"/>
</g>
<g>
	<path class="st2" d="M94.18,39.28c-1.45,0-2.85,0.25-4.15,0.69l2.78,10.18l1.94,1.08c0.56,0.31,0.75,1.01,0.44,1.57
		c-0.21,0.38-0.6,0.59-1.01,0.59c-0.19,0-0.38-0.05-0.56-0.15l-2.36-1.32c-0.02-0.01-0.03-0.03-0.05-0.04
		c-0.09-0.05-0.16-0.12-0.22-0.19c-0.03-0.03-0.06-0.06-0.09-0.09c-0.07-0.09-0.12-0.2-0.16-0.32c0-0.02-0.02-0.03-0.02-0.05
		c0,0,0,0,0-0.01L87.9,40.91c-3.98,2.22-6.68,6.46-6.68,11.33c0,7.15,5.82,12.97,12.97,12.97c7.15,0,12.96-5.82,12.96-12.96
		C107.15,45.1,101.33,39.28,94.18,39.28z"/>
	<path d="M10.79,21.22c-5.24,0-9.51,4.27-9.51,9.51v5.37c0,0.97,0.78,1.75,1.75,1.75s1.75-0.78,1.75-1.75v-5.37
		c0-1.29,0.45-2.52,1.1-3.49v28.14c0,1.16,0.97,2.13,2.13,2.13c1.16,0,2.13-0.97,2.13-2.13V39.14h1.23v16.23
		c0,1.16,0.97,2.13,2.13,2.13c1.16,0,2.13-0.97,2.13-2.13V27.24c0.71,0.97,1.1,2.2,1.1,3.49v5.37c0,0.97,0.78,1.75,1.75,1.75
		s1.75-0.78,1.75-1.75v-5.37C20.3,25.49,16.03,21.22,10.79,21.22z"/>
	<path d="M10.79,20c2.64,0,4.79-2.14,4.79-4.79s-2.14-4.79-4.79-4.79S6,12.57,6,15.21S8.15,20,10.79,20z"/>
	<path d="M37.95,30.73v4.92c1.12-0.28,2.29-0.45,3.49-0.49v-4.43c0.06-5.24-4.2-9.51-9.44-9.51c-5.24,0-9.51,4.27-9.51,9.51v5.37
		c0,0.97,0.78,1.75,1.75,1.75c0.97,0,1.75-0.78,1.75-1.75v-5.37c0-1.29,0.45-2.52,1.1-3.49v16.8c2.09-3.8,5.58-6.72,9.77-8.07v-8.72
		C37.57,28.21,37.95,29.44,37.95,30.73z"/>
	<path d="M32,20c2.64,0,4.79-2.14,4.79-4.79s-2.14-4.79-4.79-4.79s-4.79,2.14-4.79,4.79S29.36,20,32,20z"/>
	<path class="st3" d="M27.09,55.37c0,0.42,0.13,0.81,0.34,1.14c-0.14-0.47-0.25-0.94-0.34-1.42V55.37z"/>
	<polygon class="st3" points="61.83,42.11 62.45,43.54 62.45,43.54 61.83,42.11 	"/>
	<path d="M32.59,46.48v8.9c0,1.16,0.97,2.13,2.13,2.13s2.13-0.97,2.13-2.13V42.42C35.09,43.37,33.62,44.78,32.59,46.48z"/>
	<path class="st3" d="M41.18,52.93c-0.04-0.05-0.07-0.09-0.1-0.15c-0.03-0.05-0.05-0.11-0.07-0.16l-0.21,0.31H41.18z"/>
	<path d="M94.18,36.97c-1.66,0-3.26,0.28-4.76,0.77l-4.3-15.78l9.06,0c1.59,0,2.88,1.29,2.88,2.88c0,1.59-1.29,2.88-2.88,2.88
		c-0.64,0-1.15,0.52-1.15,1.15s0.52,1.15,1.15,1.15c2.86,0,5.19-2.33,5.19-5.19c0-2.86-2.33-5.19-5.19-5.19l-10.57,0.01
		c-0.05,0-0.1,0.02-0.15,0.03c-0.05,0.01-0.1,0-0.15,0.01c-0.03,0.01-0.05,0.03-0.07,0.03c-0.08,0.03-0.14,0.06-0.21,0.11
		c-0.06,0.04-0.12,0.07-0.18,0.12c-0.05,0.05-0.1,0.11-0.14,0.17c-0.05,0.06-0.09,0.12-0.12,0.18c-0.03,0.06-0.05,0.13-0.07,0.2
		c-0.02,0.08-0.04,0.15-0.05,0.23c0,0.03-0.02,0.05-0.02,0.07c0,0.05,0.02,0.1,0.03,0.15c0.01,0.05,0,0.1,0.01,0.15l2.47,9.06h-5.11
		c-0.15,0.8-0.36,1.57-0.64,2.3h4.48l-11.9,11.9c-0.18,0.74-0.25,1.5-0.2,2.29l0.04,1.13l14.26-14.26l1.39,5.09
		c-4.96,2.53-8.37,7.67-8.37,13.6c0,8.42,6.85,15.27,15.27,15.27c8.42,0,15.27-6.85,15.27-15.27
		C109.46,43.83,102.6,36.97,94.18,36.97z M94.18,65.21c-7.15,0-12.97-5.82-12.97-12.97c0-4.87,2.7-9.12,6.68-11.33l2.81,10.32
		c0,0,0,0,0,0.01c0.01,0.02,0.02,0.03,0.02,0.05c0.04,0.12,0.09,0.22,0.16,0.32c0.02,0.03,0.06,0.06,0.09,0.09
		c0.07,0.07,0.14,0.14,0.22,0.19c0.02,0.01,0.03,0.03,0.05,0.04l2.36,1.32c0.18,0.1,0.37,0.15,0.56,0.15c0.4,0,0.79-0.21,1.01-0.59
		c0.31-0.56,0.11-1.26-0.44-1.57l-1.94-1.08l-2.78-10.18c1.31-0.44,2.7-0.69,4.15-0.69c7.15,0,12.97,5.82,12.97,12.97
		C107.15,59.39,101.33,65.21,94.18,65.21z"/>
	<path d="M62.03,41.38l-3.84-8.89h9.39c0.63-0.88,1.06-1.63,1.32-2.3H57.2l-3-6.96c0.85-0.08,1.67-0.15,2.4-0.22l-0.96-2.52
		l0.34-0.25l-7.68-0.69c-3.04-0.16-3.03,4.37,0,4.21c0,0,1.56-0.14,3.49-0.31L55.04,31l-5.39,7.99c-2.23-1.28-4.81-2.02-7.56-2.02
		c-0.3,0-0.6,0.01-0.9,0.03c-0.91,0.05-1.8,0.19-2.66,0.39c-0.57,0.14-1.14,0.3-1.68,0.5c-1.56,0.57-2.99,1.39-4.27,2.41
		c-0.43,0.34-0.84,0.7-1.23,1.09c-2.16,2.13-3.68,4.91-4.27,8.01c-0.17,0.92-0.27,1.87-0.27,2.84c0,0.97,0.1,1.92,0.27,2.84
		c0.09,0.48,0.21,0.96,0.34,1.42c1.85,6.35,7.72,11.01,14.66,11.01c8.03,0,14.62-6.24,15.21-14.12h2.15
		c0.19,0.72,0.5,1.39,0.91,1.98c0.2-1.06,0.62-2.01,1.24-2.81c-0.04-0.23-0.07-0.47-0.07-0.71c0-0.41,0.06-0.8,0.18-1.17l-0.07-0.92
		l-0.03-0.36l-0.17-2.26c-0.71,0.61-1.28,1.38-1.66,2.25c-0.23,0.53-0.39,1.1-0.46,1.69H57.3c-0.33-4.37-2.5-8.23-5.75-10.81
		l4.57-6.77l3.4,7.89l1.82,4.23c0-1.17,0.17-2.35,0.48-3.52c0,0,0,0,0,0C61.89,41.86,61.95,41.62,62.03,41.38z M42.09,65.21
		c-5.36,0-9.97-3.27-11.95-7.92c-0.66-1.55-1.02-3.25-1.02-5.04c0-2.69,0.82-5.19,2.23-7.27c0.37-0.54,0.79-1.05,1.23-1.52
		c1.19-1.29,2.64-2.34,4.27-3.06c1.6-0.71,3.37-1.11,5.23-1.11c2.27,0,4.41,0.59,6.27,1.62l-7.22,10.7
		c-0.02,0.03-0.02,0.07-0.04,0.1c-0.04,0.07-0.07,0.14-0.09,0.22c-0.02,0.07-0.04,0.15-0.05,0.22c0,0.04-0.02,0.07-0.02,0.11
		c0,0.04,0.02,0.07,0.02,0.11c0.01,0.08,0.02,0.15,0.05,0.23c0,0.01,0.01,0.02,0.01,0.04c0.02,0.06,0.04,0.11,0.07,0.16
		c0.03,0.05,0.06,0.1,0.1,0.15c0.01,0.01,0.01,0.02,0.02,0.03c0.05,0.06,0.1,0.12,0.16,0.17c0.03,0.02,0.05,0.06,0.07,0.08
		c0.04,0.03,0.09,0.04,0.13,0.06c0.04,0.02,0.07,0.04,0.12,0.05c0.13,0.05,0.26,0.08,0.4,0.08h12.91
		C54.41,60.01,48.85,65.21,42.09,65.21z M44.26,51.09l6.01-8.9c2.64,2.15,4.41,5.32,4.73,8.9H44.26z"/>
	<path d="M76.22,32.48c0.36-0.74,0.64-1.5,0.83-2.3c0.18-0.75,0.28-1.54,0.28-2.37c0-4.5-3.08-8.71-9.9-8.71
		c-2.74,0-5.65,0.72-7.65,1.84c-0.3,0.17-0.58,0.34-0.83,0.53l0.46,1.2l0.96,2.53c1.48-1.13,3.85-1.84,5.99-1.84
		c3.73,0.06,5.63,2.08,5.63,5.1c0,0.59-0.08,1.15-0.22,1.72c-0.19,0.77-0.5,1.52-0.93,2.3c-0.7,1.26-1.71,2.59-2.99,4.1
		c-1.29,1.54-2.21,3.07-2.82,4.57c-0.31,0.77-0.54,1.53-0.69,2.28c-0.16,0.81-0.24,1.61-0.22,2.39c0.01,0.34,0.02,0.68,0.06,1.02
		l0.1,1.28l0.02,0.26h2.95h1.67l-0.06-1.54c0-0.04,0-0.09,0-0.13c-0.05-1.13,0.05-2.2,0.34-3.27c0.21-0.76,0.52-1.52,0.93-2.29
		c0.53-0.98,1.22-1.98,2.11-3.03C73.86,36.19,75.29,34.41,76.22,32.48z"/>
	<path d="M68.84,53.79c-0.6-0.53-1.38-0.85-2.3-0.85c-0.07,0-0.14,0.02-0.21,0.02c-1.16,0.06-2.11,0.61-2.7,1.48
		c-0.13,0.2-0.25,0.42-0.34,0.65c-0.19,0.47-0.3,1-0.3,1.58c0,2.08,1.42,3.68,3.5,3.68c0.41,0,0.79-0.06,1.13-0.16
		c1.52-0.45,2.42-1.83,2.42-3.52c0-0.21-0.02-0.41-0.05-0.61C69.86,55.13,69.45,54.34,68.84,53.79z"/>
</g>
</svg>
