<?xml version="1.0" encoding="utf-8"?>
<!-- Generator: Adobe Illustrator 28.1.0, SVG Export Plug-In . SVG Version: 6.00 Build 0)  -->
<svg version="1.1" id="Layer_1" xmlns="http://www.w3.org/2000/svg" xmlns:xlink="http://www.w3.org/1999/xlink" x="0px" y="0px"
	 viewBox="0 0 110.55 76.54" style="enable-background:new 0 0 110.55 76.54;" xml:space="preserve">
<style type="text/css">
	.st0{display:none;}
	.st1{display:inline;fill:none;}
</style>
<g id="Layer_2_00000073722119373351752270000017113015111246931634_" class="st0">
	<line class="st1" x1="-24.13" y1="74.54" x2="142.13" y2="74.54"/>
	<line class="st1" x1="-24.13" y1="2" x2="142.13" y2="2"/>
</g>
<path d="M-5351.56,183.13c0-4.69,1.76-9.61,2.23-11.95c0.47-2.23,1.29-10.9-7.97-10.9c-9.26,0-8.44,8.67-7.97,10.9
	c0.47,2.23,2.23,7.26,2.23,11.95c0,5.39-2.34,10.08-4.57,15.47c-2.81-7.5-6.44-13.83-6.44-21.09c0-5.62,2.11-11.6,2.69-14.3
	c0.47-2.81,1.52-13.12-9.61-13.12s-10.08,10.31-9.61,13.01c0.47,2.69,2.69,8.67,2.69,14.3c0,7.26-3.75,13.71-6.44,21.09
	c-2.11-5.27-4.57-10.08-4.57-15.47c0-4.69,1.76-9.61,2.23-11.95c0.47-2.23,1.29-10.9-7.97-10.9s-8.44,8.67-7.97,10.9
	s2.23,7.26,2.23,11.95c0,9.73-7.85,17.58-7.85,30c0,10.55,4.57,24.14,6.8,25.54h13.71c0.94-0.59,2.11-3.05,3.4-6.68
	c1.64,6.21,3.75,11.13,5.16,11.95h16.4c1.41-0.82,3.52-5.74,5.27-11.95c1.17,3.52,2.46,6.09,3.4,6.68h13.59
	c2.23-1.29,6.8-15,6.8-25.54C-5343.71,200.59-5351.56,192.74-5351.56,183.13z M-5361.05,165.09c0.7-0.82,1.99-1.29,3.75-1.29
	s3.05,0.47,3.75,1.29c1.17,1.41,1.05,4.1,0.82,5.39c-0.12,0.47-0.23,1.29-0.47,2.11c-0.23,1.05-0.59,2.23-0.94,3.63h-6.21
	c-0.23-1.41-0.59-2.58-0.94-3.63c-0.23-0.82-0.47-1.64-0.47-2.11C-5362.11,169.19-5362.23,166.49-5361.05,165.09z M-5354.96,184.3
	h-4.69c0-0.47,0.12-0.82,0.12-1.29c0-0.82-0.12-1.64-0.12-2.58h4.8c-0.12,0.82-0.12,1.64-0.12,2.58
	C-5355.08,183.48-5354.96,183.95-5354.96,184.3z M-5386.01,155.36c0.94-1.17,2.69-1.76,5.04-1.76c2.34,0,4.1,0.59,5.04,1.76
	c1.52,1.87,1.41,5.39,1.05,7.03c-0.12,0.59-0.35,1.52-0.59,2.58c-0.35,1.29-0.7,2.69-1.05,4.22h-8.91c-0.35-1.52-0.7-2.93-1.05-4.22
	c-0.23-1.05-0.59-1.99-0.59-2.58C-5387.42,160.63-5387.54,157.23-5386.01,155.36z M-5377.46,178.91h-7.03
	c0-0.47,0.12-1.05,0.12-1.52c0-1.05-0.12-1.99-0.12-3.05h7.03c-0.12,0.94-0.12,1.99-0.12,3.05
	C-5377.58,177.86-5377.58,178.44-5377.46,178.91z M-5408.39,165.09c0.7-0.82,1.99-1.29,3.75-1.29s3.05,0.47,3.75,1.29
	c1.17,1.41,1.05,4.1,0.82,5.39c-0.12,0.47-0.23,1.29-0.47,2.11c-0.23,1.05-0.59,2.23-0.94,3.63h-6.21
	c-0.35-1.41-0.59-2.58-0.94-3.63c-0.23-0.82-0.47-1.64-0.47-2.11C-5409.45,169.19-5409.56,166.49-5408.39,165.09z M-5402.3,184.3
	h-4.69c0-0.47,0-0.82,0-1.29c0-0.82,0-1.64-0.12-2.58h4.8c-0.12,0.82-0.12,1.64-0.12,2.58
	C-5402.42,183.48-5402.3,183.95-5402.3,184.3z M-5399.49,235.04h-10.31c-1.64-3.16-4.92-13.24-4.92-22.03
	c0-5.86,1.99-10.78,3.98-15.47c1.17-2.81,2.46-5.74,3.16-8.91h5.86c0.7,3.05,1.99,5.98,3.16,8.91c0.82,2.11,1.76,4.22,2.46,6.44
	c-0.7,2.93-1.17,5.98-1.17,9.37c0,3.75,0.47,7.73,1.17,11.6C-5397.14,229.41-5398.55,233.28-5399.49,235.04z M-5374.41,240.31
	h-13.12c-1.41-2.34-3.52-8.55-4.92-15.35c-0.82-3.87-1.29-7.85-1.29-11.6c0-3.4,0.59-6.44,1.41-9.37c0.94-3.28,2.23-6.44,3.52-9.49
	c1.41-3.4,2.81-6.8,3.75-10.43h8.55c0.82,3.63,2.34,7.03,3.75,10.43c1.29,3.05,2.58,6.09,3.52,9.49c0.82,2.93,1.41,5.98,1.41,9.37
	c0,3.75-0.47,7.85-1.29,11.6C-5370.78,231.76-5373.01,237.97-5374.41,240.31z M-5352.15,235.04h-10.31
	c-0.94-1.76-2.34-5.62-3.4-10.08c0.7-3.87,1.17-7.97,1.17-11.6c0-3.4-0.47-6.44-1.17-9.37c0.7-2.23,1.64-4.34,2.46-6.44
	c1.17-2.81,2.46-5.74,3.16-8.91h5.86c0.7,3.05,1.99,5.98,3.16,8.91c1.99,4.69,3.98,9.61,3.98,15.47
	C-5347.23,221.8-5350.51,231.87-5352.15,235.04z"/>
<g>
	<path d="M63.13,24.01c0-7.06-5.72-12.77-12.77-12.77s-12.77,5.72-12.77,12.77c0,1.01,0.82,1.82,1.82,1.82
		c1.01,0,1.82-0.82,1.82-1.82c0-5.04,4.09-9.12,9.12-9.12s9.12,4.09,9.12,9.12s-4.09,9.12-9.12,9.12H6.55
		c-1.01,0-1.82,0.82-1.82,1.82c0,1.01,0.82,1.82,1.82,1.82h43.8C57.41,36.78,63.13,31.06,63.13,24.01z"/>
	<path d="M95.97,40.43H32.1c-1.01,0-1.82,0.82-1.82,1.82c0,1.01,0.82,1.82,1.82,1.82h63.87c5.04,0,9.12,4.09,9.12,9.12
		s-4.09,9.12-9.12,9.12s-9.12-4.09-9.12-9.12c0-1.01-0.82-1.82-1.82-1.82S83.2,52.2,83.2,53.2c0,7.06,5.72,12.77,12.77,12.77
		s12.77-5.72,12.77-12.77S103.03,40.43,95.97,40.43L95.97,40.43z"/>
	<path d="M81.37,12.53c-4.58,2.94-6.86,11.11-7.45,13.58c-0.6,0.55-1.31,0.98-2.08,1.26c-1.04,0.36-2.16,0.46-3.25,0.29
		c-1.01-0.14-1.94,0.57-2.07,1.58c-0.14,1.01,0.57,1.94,1.58,2.07c0.47,0.06,0.94,0.09,1.41,0.09c1.2,0,2.39-0.21,3.52-0.62
		c1.09-0.4,2.1-0.98,2.99-1.72c2.27,0.42,4.57,0.64,6.88,0.66c2.86,0.15,5.72-0.48,8.25-1.82c5.11-3.28,7.3-13.08,7.61-14.2
		c0.22-0.98-0.41-1.95-1.39-2.17C96.3,11.23,86.45,9.26,81.37,12.53z"/>
	<path d="M78.53,64.15c-1.08,0.15-2.17,0.03-3.19-0.35c-0.76-0.3-1.45-0.72-2.06-1.26c-0.58-2.46-2.87-10.64-7.45-13.58
		c-5.11-3.27-14.96-1.24-16.08-1c-0.98,0.22-1.6,1.19-1.39,2.17c0.24,1.11,2.5,10.95,7.59,14.2c2.54,1.35,5.4,1.98,8.27,1.82
		c2.31-0.02,4.61-0.24,6.88-0.66c0.89,0.73,1.9,1.31,2.97,1.72c1.58,0.57,3.28,0.75,4.95,0.53c1.01-0.14,1.71-1.06,1.58-2.07
		c-0.14-1.01-1.06-1.71-2.07-1.58L78.53,64.15z"/>
	<rect x="10.2" y="53.2" width="32.85" height="3.65"/>
	<rect x="2.9" y="53.2" width="3.65" height="3.65"/>
	<rect x="13.85" y="18.53" width="18.25" height="3.65"/>
	<rect x="6.55" y="18.53" width="3.65" height="3.65"/>
</g>
</svg>
