<?xml version="1.0" encoding="utf-8"?>
<!-- Generator: Adobe Illustrator 28.1.0, SVG Export Plug-In . SVG Version: 6.00 Build 0)  -->
<svg version="1.1" id="Layer_1" xmlns="http://www.w3.org/2000/svg" xmlns:xlink="http://www.w3.org/1999/xlink" x="0px" y="0px"
	 viewBox="0 0 110.55 76.54" style="enable-background:new 0 0 110.55 76.54;" xml:space="preserve">
<style type="text/css">
	.st0{display:none;}
	.st1{display:inline;fill:none;}
</style>
<g id="Layer_2_00000073722119373351752270000017113015111246931634_" class="st0">
	<line class="st1" x1="-24.13" y1="74.54" x2="142.13" y2="74.54"/>
	<line class="st1" x1="-24.13" y1="2" x2="142.13" y2="2"/>
</g>
<g>
	<path d="M45.3,18.15v-0.24v0v0l0-11.04c0-2.56-2.24-4.64-4.99-4.64h-2.55c-1.31,0-2.55,0.47-3.49,1.32
		c-0.97,0.88-1.5,2.06-1.5,3.32l0,11.28c0,2.9-1.23,5.64-3.46,7.73c-2.7,2.53-4.19,5.88-4.19,9.42l0,30.72
		c0,4.48,3.95,8.12,8.82,8.12h10.21c4.86,0,8.82-3.64,8.82-8.12l0-30.72c0-3.55-1.49-6.89-4.2-9.43
		C46.53,23.79,45.3,21.04,45.3,18.15z M35.83,5.27c0.51-0.46,1.19-0.72,1.93-0.72h2.55c1.47,0,2.67,1.04,2.67,2.32l0,9.88h-7.89
		l0-9.88C35.09,6.27,35.35,5.7,35.83,5.27z M50.63,66.03c0,3.2-2.91,5.8-6.5,5.8H33.93c-3.58,0-6.5-2.6-6.5-5.8l0-30.72
		c0-2.9,1.23-5.64,3.46-7.73c2.47-2.31,3.91-5.3,4.15-8.5h7.98c0.24,3.2,1.68,6.19,4.15,8.5l0.79-0.85l-0.79,0.85
		c2.23,2.09,3.46,4.84,3.46,7.73L50.63,66.03z"/>
	<path d="M80.79,33.55H66.87c-2.56,0-4.64,2.08-4.64,4.64v9.28c0,6.01,4.59,10.96,10.44,11.54v12.82h-5.22
		c-0.64,0-1.16,0.52-1.16,1.16c0,0.64,0.52,1.16,1.16,1.16h12.76c0.64,0,1.16-0.52,1.16-1.16c0-0.64-0.52-1.16-1.16-1.16h-5.22
		V59.01c5.85-0.58,10.44-5.54,10.44-11.54v-9.28C85.43,35.63,83.35,33.55,80.79,33.55z M83.11,47.47c0,5.12-4.16,9.28-9.28,9.28
		c-5.12,0-9.28-4.16-9.28-9.28v-9.28c0-1.28,1.04-2.32,2.32-2.32h13.92c1.28,0,2.32,1.04,2.32,2.32L83.11,47.47L83.11,47.47z"/>
</g>
</svg>
