<?xml version="1.0" encoding="utf-8"?>
<!-- Generator: Adobe Illustrator 28.1.0, SVG Export Plug-In . SVG Version: 6.00 Build 0)  -->
<svg version="1.1" id="Layer_1" xmlns="http://www.w3.org/2000/svg" xmlns:xlink="http://www.w3.org/1999/xlink" x="0px" y="0px"
	 viewBox="0 0 110.55 76.54" style="enable-background:new 0 0 110.55 76.54;" xml:space="preserve">
<style type="text/css">
	.st0{display:none;}
	.st1{display:inline;fill:none;}
	.st2{opacity:0.98;}
</style>
<g id="Layer_2_00000073722119373351752270000017113015111246931634_" class="st0">
	<line class="st1" x1="-24.13" y1="74.54" x2="142.13" y2="74.54"/>
	<line class="st1" x1="-24.13" y1="2" x2="142.13" y2="2"/>
</g>
<g>
	<path class="st2" d="M94.57,44.55c-0.18-0.75-0.94-1.21-1.69-1.03l-13.99,3.41c-0.02-0.03-0.04-0.06-0.06-0.08
		c-0.36-0.45-0.81-0.82-1.29-1.12c-0.5-0.32-0.91-0.75-1.38-1.12c-0.94-0.74-1.92-1.44-2.92-2.11c-0.77-0.52-1.57-1.02-2.29-1.61
		c-0.7-0.57-1.32-1.24-1.96-1.89c-1.69-1.7-3.11-3.6-4.1-5.79c-0.37-0.8-0.74-1.6-1.11-2.4c-0.1-0.21-0.05-0.31,0.18-0.39
		c1.89-0.68,3.35-1.89,4.37-3.62c0.45-0.77,0.82-1.57,0.9-2.47c0.01-0.15,0.07-0.22,0.23-0.21c0.26,0.01,0.51-0.02,0.77-0.01
		c2.99,0.04,5.96-0.14,8.93-0.43c0.8-0.08,1.26-0.97,0.87-1.67c-0.14-0.24-0.31-0.48-0.51-0.67c-0.66-0.63-1.43-1.13-2.28-1.46
		c-1.14-0.45-2.31-0.85-3.48-1.21c-1.68-0.52-3.33-1.15-5.06-1.49c-0.09-0.02-0.19-0.14-0.22-0.23c-0.55-1.39-1.05-2.8-1.63-4.17
		c-0.56-1.33-1.22-2.62-1.81-3.94c-0.58-1.3-1.31-2.48-2.28-3.51c-1.13-1.2-2.4-2.25-3.66-3.3c-0.88-0.74-1.85-0.87-2.9-0.47
		c-0.87,0.34-1.74,0.68-2.59,1.06c-1.29,0.59-2.5,1.31-3.51,2.33c-0.81,0.81-1.42,1.76-1.97,2.75c-0.64,1.13-1.49,2.06-2.59,2.74
		c-0.53,0.32-1.08,0.6-1.62,0.91c-0.32,0.19-0.42,0.43-0.35,0.75c0.07,0.3,0.25,0.46,0.64,0.48c0.96,0.05,1.93,0.1,2.89,0.1
		c1.08,0,2.14-0.18,3.16-0.54c1.33-0.47,2.5-1.22,3.64-2.04c0.35-0.25,0.71-0.5,1.08-0.75c-0.11,1.14-0.35,2.23-0.79,3.25
		c-0.55,1.26-1.19,2.48-1.8,3.72c-0.04,0.09-0.16,0.18-0.26,0.18c-0.8,0.06-1.6,0.1-2.4,0.15c-1.41,0.08-2.81,0.29-4.18,0.63
		c-1.4,0.34-2.72,0.91-4.01,1.54c-0.44,0.22-0.89,0.44-1.31,0.69c-0.62,0.38-0.7,1.19-0.21,1.73c0.28,0.31,0.66,0.39,1.05,0.45
		c1.63,0.26,3.26,0.53,4.89,0.77c1.03,0.15,2.06,0.26,3.09,0.39c0.68,0.08,1.35,0.17,1.98,0.25c0.16,0.64,0.31,1.25,0.47,1.85
		c0.08,0.31,0.08,0.32-0.23,0.41c-2.2,0.59-3.78,1.94-4.73,3.97c-0.9,1.94-1.85,3.84-3.16,5.53c-1.54,1.98-3.4,3.52-5.82,4.32
		c-1.18,0.39-2.39,0.6-3.63,0.52c-0.6-0.04-1.2-0.09-1.74-0.41c-0.67-0.39-1.5,0-1.67,0.76c-0.17,0.76,0.37,1.37,1.04,1.61
		c0.54,0.19,0.93,0.49,1.03,1.08c0.03,0.17,0.08,0.34,0.14,0.5c0.5,1.45,1.48,2.5,2.78,3.27c0.45,0.27,0.94,0.47,1.43,0.71
		c-0.12,0.33-0.28,0.66-0.38,1c-0.46,1.59,0.43,3.08,1.87,3.48c0.48,0.13,1,0.14,1.5,0.13c0.4-0.01,0.6,0.17,0.76,0.49
		c0.57,1.11,1.48,1.83,2.63,2.24c1.18,0.42,2.39,0.34,3.6,0.13c0.38-0.06,0.75-0.16,1.17-0.24c0,0,0,0.01,0,0.01l-10.51,2.56
		c-0.16-0.53-0.33-1.05-0.52-1.57c-0.17-0.44-0.51-0.68-0.99-0.7c-0.42-0.01-0.73,0.21-0.96,0.52c-0.13,0.18-0.25,0.19-0.44,0.15
		c-0.61-0.12-1.22-0.24-1.83-0.34c-2.08-0.33-4.16-0.29-6.24,0c-2.05,0.29-4.06,0.72-6.05,1.3c-1.59,0.47-3.17,0.99-4.69,1.65
		c-0.4,0.17-0.81,0.34-1.18,0.58c-0.69,0.43-0.64,1.44,0.05,1.87c0.44,0.27,0.86,0.16,1.28-0.02c1.85-0.79,3.74-1.44,5.68-1.99
		c2.36-0.67,4.76-1.2,7.23-1.27c1-0.03,2.01,0.07,3.01,0.11c0.16,0.01,0.21,0.1,0.19,0.22c-0.02,0.08-0.09,0.17-0.16,0.22
		c-0.08,0.06-0.18,0.08-0.28,0.1c-0.88,0.23-1.76,0.46-2.64,0.68c-1.29,0.32-2.58,0.63-3.87,0.95c-1.22,0.3-2.44,0.59-3.65,0.89
		c-1.02,0.25-2.04,0.49-3.05,0.76c-0.64,0.16-1.28,0.32-1.91,0.54c-0.61,0.21-0.9,0.8-0.75,1.36c0.15,0.56,0.73,0.91,1.36,0.8
		c0.36-0.06,0.71-0.15,1.06-0.24c2.92-0.72,5.84-1.43,8.75-2.16c1.71-0.43,3.42-0.87,5.15-1.31c0.03,0.06,0.07,0.14,0.11,0.22
		c0.19,0.39,0.2,0.42-0.2,0.59c-1.31,0.56-2.61,1.17-3.95,1.64c-1.26,0.45-2.55,0.8-3.85,1.11c-1.66,0.39-3.34,0.69-5.02,1.01
		c-0.55,0.11-1.12,0.13-1.66,0.25c-0.85,0.18-1.19,1.1-0.66,1.77c0.29,0.37,0.71,0.51,1.17,0.45c0.65-0.08,1.3-0.14,1.94-0.26
		c1.36-0.24,2.73-0.47,4.08-0.78c2.1-0.47,4.17-1.04,6.18-1.83c0.24-0.09,0.48-0.16,0.72-0.24c-0.02,0.05-0.04,0.07-0.07,0.08
		c-1.66,0.99-3.43,1.75-5.31,2.22c-1.86,0.46-3.74,0.83-5.61,1.25c-0.74,0.17-1.48,0.34-2.21,0.54c-0.45,0.12-0.72,0.45-0.77,0.93
		c-0.06,0.5,0.15,0.86,0.57,1.12c0.34,0.22,0.69,0.16,1.05,0.08c2.04-0.44,4.07-0.91,6.12-1.33c2.9-0.59,5.6-1.65,8.05-3.32
		c1.24-0.85,2.36-1.83,3.4-2.92c0.17-0.18,0.35-0.34,0.54-0.51c0.09,0.13,0.15,0.25,0.23,0.35c0.33,0.44,0.9,0.58,1.45,0.35
		c0.45-0.18,0.74-0.67,0.64-1.19c-0.09-0.48-0.22-0.95-0.37-1.41c-0.07-0.22-0.15-0.44-0.23-0.66l10.23-2.5
		c0.22,0.53,0.49,1.04,0.77,1.54c-0.51,0.18-1.09,0.28-1.57,0.53c-0.48,0.26-0.78,0.77-0.97,1.28s-0.31,1.06-0.56,1.55
		c-0.13,0.77-0.55,1.51-0.86,2.22c-0.35,0.8-0.69,1.6-1.03,2.41c-0.35,0.84,0.18,1.73,1.08,1.79c0.5,0.04,0.89-0.2,1.19-0.59
		c0.19-0.26,0.36-0.52,0.59-0.85c0.05,0.19,0.09,0.31,0.12,0.43c0.3,1.36,0.58,2.73,0.89,4.09c0.21,0.93,0.42,1.85,0.65,2.77
		c0.12,0.5,0.48,0.79,0.98,0.86c0.52,0.08,0.95-0.1,1.27-0.54c0.24-0.32,0.23-0.7,0.27-1.07c0.16-1.69,0.31-3.37,0.48-5.06
		c0.01-0.13,0.1-0.28,0.21-0.36c0.41-0.32,0.84-0.62,1.26-0.92c0.67-0.47,1.34-0.94,1.99-1.4c0.76,0.54,1.32,0.48,1.9-0.21
		c0.13-0.16,0.25-0.33,0.38-0.49c1.28-1.58,2.66-3.04,4.24-4.32c0.77-0.63,1.53-1.29,2.2-2.03c1.15-1.27,1.62-2.78,1.25-4.5
		c-0.04-0.17-0.07-0.34-0.07-0.51c0.18-0.05,0.32-0.2,0.45-0.33c0.2-0.21,0.39-0.4,0.55-0.6l6.06-1.48
		c0.19,0.17,0.38,0.34,0.56,0.51c0.01,0.01,0.02,0.02,0.03,0.03c0.22,0.2,0.44,0.31,0.69,0.45c1.01,0.54,2.05,0.61,3.14,0.28
		c0.98-0.3,1.81-1.06,2.23-1.98c0.06-0.14,0.12-0.28,0.16-0.43c0.05-0.19,0.11-0.37,0.16-0.56l14.15-3.45
		C94.3,46.06,94.76,45.3,94.57,44.55z M66.69,24.84c-0.71,1.85-2.04,3.04-3.96,3.47c-3.27,0.73-6.04-0.2-8.23-2.75
		c-0.53-0.61-0.85-1.35-0.95-2.22c4.44,0.37,8.85,0.74,13.32,0.8C66.81,24.38,66.77,24.62,66.69,24.84z M55.7,14.98
		c0.99-2.01,1.58-4.12,1.67-6.37c0.01-0.39,0.04-0.78,0.04-1.16c0.01-1.14-0.92-1.73-1.92-1.2c-0.67,0.36-1.3,0.78-1.93,1.21
		c-0.93,0.62-1.82,1.28-2.76,1.89c-0.39,0.25-0.83,0.42-1.25,0.63c-0.01-0.02-0.03-0.03-0.04-0.05c0.03-0.06,0.04-0.13,0.08-0.19
		c0.45-0.72,0.89-1.45,1.36-2.15c0.55-0.82,1.27-1.48,2.12-1.98c1.21-0.71,2.48-1.32,3.8-1.79c0.31-0.11,0.57-0.08,0.85,0.13
		c1.3,1.01,2.55,2.07,3.64,3.31C62,7.98,62.49,8.81,62.89,9.7c0.51,1.15,1.06,2.29,1.56,3.45c0.56,1.3,1.07,2.63,1.61,3.94
		c0.02,0.06,0.03,0.12,0.06,0.22c-3.81,0.4-7.56,0.28-11.3-0.62C55.12,16.09,55.43,15.54,55.7,14.98z M49.64,20.6
		c-1.52-0.18-3.03-0.41-4.54-0.62c-0.03,0-0.06-0.02-0.11-0.07c0.41-0.13,0.82-0.26,1.23-0.38c1.19-0.34,2.41-0.46,3.64-0.54
		c1.05-0.07,2.09-0.11,3.14-0.21c0.41-0.04,0.78-0.02,1.18,0.1c1.48,0.46,3.01,0.67,4.54,0.84c1.89,0.21,3.79,0.25,5.69,0.09
		c1.08-0.09,2.14-0.25,3.22-0.38c0.17-0.02,0.35-0.03,0.51,0.02c1.98,0.58,3.95,1.17,5.93,1.76c0.27,0.08,0.54,0.17,0.8,0.26
		c0.1,0.04,0.2,0.09,0.3,0.13c0,0.02-0.01,0.04-0.01,0.06c-0.88,0.05-1.76,0.14-2.63,0.13c-3.47-0.03-6.94-0.05-10.41-0.17
		c-2.41-0.08-4.81-0.31-7.22-0.5C53.15,20.97,51.39,20.8,49.64,20.6z M45.49,52.46c-0.4,0.01-0.81-0.02-1.21-0.09
		c-0.71-0.13-1.21-0.57-1.56-1.19c-0.14-0.25-0.31-0.49-0.48-0.72c-0.5-0.69-1.23-0.86-2.02-0.94c-0.38-0.04-0.76-0.07-1.13-0.13
		c-0.35-0.05-0.44-0.21-0.23-0.49c0.23-0.32,0.51-0.6,0.79-0.87c0.3-0.28,0.59-0.55,0.57-1.01c-0.02-0.42-0.15-0.8-0.5-1.03
		c-0.44-0.28-0.92-0.52-1.4-0.72c-0.71-0.31-1.44-0.58-2.06-1.06c-0.69-0.53-1.17-1.2-1.45-2.02c-0.01-0.04-0.01-0.08-0.01-0.15
		c1.26-0.01,2.45-0.27,3.62-0.65c1.82-0.59,3.4-1.59,4.83-2.85c1.33-1.18,2.4-2.57,3.31-4.08c0.53-0.89,1.03-1.81,1.51-2.73
		c0.33-0.62,0.59-1.27,0.92-1.89c0.52-0.96,1.33-1.61,2.35-1.99c0.45-0.16,0.91-0.3,1.36-0.44c0.15-0.05,0.28-0.02,0.4,0.11
		c0.93,0.97,1.97,1.81,3.21,2.36c1.35,0.6,2.76,0.95,4.24,0.98c0.5,0.01,0.75,0.24,0.95,0.66c0.58,1.23,1.16,2.46,1.77,3.68
		c0.81,1.63,1.84,3.11,3.09,4.44c0.75,0.8,1.51,1.59,2.27,2.38c0.72,0.75,1.57,1.34,2.43,1.9c0.85,0.55,1.7,1.11,2.55,1.67
		c0.07,0.04,0.14,0.08,0.26,0.15c-0.58,0.73-1.15,1.45-1.75,2.19c-0.43-0.4-0.83-0.77-1.23-1.13c-1.15-1.04-2.33-2.06-3.46-3.12
		c-1.37-1.29-2.62-2.71-3.83-4.15c-0.86-1.03-1.69-2.08-2.4-3.21c-0.21-0.33-0.39-0.69-0.55-1.05c-0.23-0.5-0.58-0.85-1.15-0.9
		c-0.55-0.04-0.96,0.23-1.26,0.69c-0.19,0.29-0.18,0.62-0.13,0.94c0.22,1.26,0.42,2.53,0.7,3.77c0.4,1.78,1.02,3.5,1.77,5.17
		c0.82,1.85,1.83,3.58,3.05,5.2c0.11,0.15,0.21,0.3,0.32,0.44c0.11,0.14,0.23,0.28,0.38,0.45c-0.11,0-0.19,0-0.27,0
		c-0.78-0.03-1.55-0.06-2.31,0.16c-0.6,0.18-1.06,0.56-1.53,0.94c-0.37,0.3-0.74,0.6-1.13,0.88c-0.27,0.19-0.56,0.2-0.85-0.02
		c-0.58-0.44-1.22-0.39-1.87-0.18c-0.6,0.19-1.18,0.42-1.79,0.55c-1.18,0.25-2.35,0.16-3.5-0.22c-0.3-0.1-0.54-0.28-0.7-0.56
		c-0.05-0.09-0.12-0.18-0.18-0.26c-0.39-0.55-0.81-0.68-1.47-0.49C47.67,52.11,46.6,52.42,45.49,52.46z M50.04,66.82
		c-0.04-0.09-0.08-0.16-0.1-0.24c-0.3-0.95-0.6-1.9-0.89-2.86c-0.02-0.06,0.01-0.18,0.06-0.21c0.88-0.58,1.77-1.15,2.66-1.72
		c0.13-0.08,0.21-0.12,0.33,0.03c0.58,0.75,1.17,1.5,1.77,2.27C52.59,65,51.33,65.9,50.04,66.82z M63,56.35
		c-0.21,0.5-0.49,0.95-0.91,1.31c-1.24,1.06-2.5,2.11-3.69,3.22c-0.73,0.68-1.37,1.48-2.05,2.22c-0.04,0.04-0.07,0.09-0.13,0.16
		c-0.15-0.18-0.28-0.33-0.41-0.49c-1.28-1.59-2.56-3.19-3.85-4.78c-0.58-0.71-1.09-1.45-1.35-2.34c-0.02-0.08-0.03-0.15-0.05-0.24
		c1.84,0.56,3.67,0.52,5.49,0.02c0.28-0.08,0.55-0.22,0.83-0.31c0.11-0.03,0.25-0.04,0.35,0.01c1.45,0.68,2.72,0.3,3.9-0.64
		c0.32-0.25,0.62-0.52,0.93-0.78c0.09-0.07,0.19-0.12,0.32-0.2c0.06,0.13,0.12,0.23,0.15,0.35c0.17,0.54,0.35,1.08,0.51,1.63
		C63.13,55.76,63.12,56.06,63,56.35z M66.38,49.99c-0.05-0.08-0.11-0.16-0.16-0.23c-1.55-2.03-2.86-4.2-3.82-6.57
		c-0.32-0.78-0.59-1.57-0.88-2.35c0.03-0.01,0.06-0.03,0.1-0.04c0.04-0.02,1.12,1.36,1.23,1.48c0.43,0.49,0.88,0.97,1.34,1.43
		c0.92,0.94,1.87,1.83,2.84,2.71c0.98,0.9,1.95,1.8,2.93,2.7L66.38,49.99z M76.4,50.36c-0.64,0.24-1.24,0.23-1.8-0.2
		c-0.23-0.18-0.47-0.35-0.75-0.55c0.56-0.72,1.1-1.39,1.62-2.07c0.14-0.19,0.27-0.21,0.44-0.05c0.32,0.29,0.65,0.56,0.96,0.86
		C77.48,48.94,77,50.14,76.4,50.36z"/>
</g>
</svg>
