<?xml version="1.0" encoding="utf-8"?>
<!-- Generator: Adobe Illustrator 28.1.0, SVG Export Plug-In . SVG Version: 6.00 Build 0)  -->
<svg version="1.1" id="Layer_1" xmlns="http://www.w3.org/2000/svg" xmlns:xlink="http://www.w3.org/1999/xlink" x="0px" y="0px"
	 viewBox="0 0 110.55 76.54" style="enable-background:new 0 0 110.55 76.54;" xml:space="preserve">
<style type="text/css">
	.st0{display:none;}
	.st1{display:inline;fill:none;}
	.st2{fill:#808080;}
</style>
<g id="Layer_2_00000073722119373351752270000017113015111246931634_" class="st0">
	<line class="st1" x1="-24.13" y1="74.54" x2="142.13" y2="74.54"/>
	<line class="st1" x1="-24.13" y1="2" x2="142.13" y2="2"/>
</g>
<path class="st2" d="M3521.66,2698.06c6.59,0,11.96-5.36,11.96-11.96s-5.36-11.96-11.96-11.96"/>
<path class="st2" d="M3502.66,2733.64h29.9h8.09v-22.07c0-5.45-3.31-10.13-8.02-12.16c-2.98,2.47-6.81,3.95-10.97,3.95"/>
<path class="st2" d="M3585.78,2698.06c6.59,0,11.96-5.36,11.96-11.96s-5.36-11.96-11.96-11.96c-6.59,0-11.96,5.36-11.96,11.96
	S3579.19,2698.06,3585.78,2698.06z"/>
<path class="st2" d="M3604.78,2711.57c0-5.45-3.31-10.13-8.02-12.16c-2.98,2.47-6.81,3.95-10.97,3.95s-7.99-1.48-10.97-3.95
	c-4.71,2.03-8.02,6.71-8.02,12.16v22.07h8.09h29.9"/>
<path class="st2" d="M3553.72,2691.6c7.4,0,13.42-6.02,13.42-13.42s-6.02-13.42-13.42-13.42c-7.4,0-13.42,6.02-13.42,13.42
	S3546.32,2691.6,3553.72,2691.6z"/>
<path class="st2" d="M3571.09,2695.34c-1.38-1.41-3.08-2.51-4.97-3.19c-3.31,2.93-7.64,4.73-12.4,4.73s-9.09-1.8-12.4-4.73
	c-1.89,0.68-3.59,1.78-4.97,3.19c5.71,3.16,9.59,9.24,9.59,16.22v22.07h15.55v-22.07
	C3561.49,2704.59,3565.38,2698.5,3571.09,2695.34z"/>
<g>
	<circle cx="56.84" cy="10.03" r="7.63"/>
	<polygon points="56.84,26.79 60.01,20.07 53.67,20.07 	"/>
	<path d="M78.13,7.46c-1.13-1.13-3.02-1.13-4.15,0L62.2,19.47l-3.78,8.08c0.83,0.53,1.43,1.43,1.43,2.57c0,1.66-1.36,3.02-3.02,3.02
		s-3.02-1.36-3.02-3.02c0-1.06,0.53-2.04,1.43-2.57l-3.78-8.08L39.7,7.46c-1.13-1.13-2.94-1.13-4.15,0c-1.13,1.13-1.13,2.94,0,4.15
		l12.91,13.06v46.06c0,1.89,1.51,3.4,3.4,3.4s3.4-1.51,3.4-3.4v-23.1h3.17v23.1c0,1.89,1.51,3.4,3.4,3.4c1.89,0,3.4-1.51,3.4-3.4
		V24.68l12.99-13.14C79.27,10.41,79.27,8.6,78.13,7.46z"/>
</g>
</svg>
