<?xml version="1.0" encoding="utf-8"?>
<!-- Generator: Adobe Illustrator 28.1.0, SVG Export Plug-In . SVG Version: 6.00 Build 0)  -->
<svg version="1.1" id="Layer_1" xmlns="http://www.w3.org/2000/svg" xmlns:xlink="http://www.w3.org/1999/xlink" x="0px" y="0px"
	 viewBox="0 0 110.55 76.54" style="enable-background:new 0 0 110.55 76.54;" xml:space="preserve">
<style type="text/css">
	.st0{display:none;}
	.st1{display:inline;fill:none;}
	.st2{fill-rule:evenodd;clip-rule:evenodd;}
</style>
<g id="Layer_2_00000073722119373351752270000017113015111246931634_" class="st0">
	<line class="st1" x1="-24.13" y1="74.54" x2="142.13" y2="74.54"/>
	<line class="st1" x1="-24.13" y1="2" x2="142.13" y2="2"/>
</g>
<g>
	<path d="M39.19,18.8c0.34-0.35,0.49-0.15,0.78,0.21l0,0.01c0.41,0.53,0.84,1.42,1.07,2.63c0.23,1.2,0.24,2.5,0.01,3.71
		c-0.23,1.22-0.65,2.13-1.06,2.68l-0.03,0.04c-0.26,0.34-0.43,0.56-0.76,0.23c-0.36-0.36-0.82-1.09-1.13-2.22
		c-0.24-0.87-1.14-1.38-2.01-1.14c-0.87,0.24-1.38,1.14-1.14,2.01c0.42,1.53,1.11,2.81,1.98,3.68c0.88,0.87,1.89,1.27,2.9,1.16
		c1.01-0.11,1.98-0.72,2.79-1.77c0.8-1.04,1.38-2.46,1.68-4.07c0.3-1.61,0.29-3.33-0.02-4.93c-0.31-1.6-0.91-3.01-1.71-4.03
		c-0.81-1.03-1.79-1.62-2.8-1.71c-1.01-0.09-2.02,0.34-2.89,1.22c-0.63,0.64-0.62,1.68,0.02,2.31S38.56,19.44,39.19,18.8z"/>
	<path d="M54.26,15.5c0-0.9,0.73-1.63,1.63-1.63l23.39-0.18c0.9,0,1.63,0.73,1.63,1.63c0,0.9-0.73,1.63-1.63,1.63l-23.39,0.18
		C54.99,17.13,54.26,16.4,54.26,15.5z"/>
	<path d="M55.89,21.22c-0.9,0-1.63,0.73-1.63,1.63c0,0.9,0.73,1.63,1.63,1.63l16.85-0.18c0.9,0,1.63-0.73,1.63-1.63
		s-0.73-1.63-1.63-1.63L55.89,21.22z"/>
	<path d="M70.29,52.92c0-0.9,0.73-1.63,1.63-1.63H85c0.9,0,1.63,0.73,1.63,1.63c0,0.9-0.73,1.63-1.63,1.63H71.93
		C71.02,54.55,70.29,53.82,70.29,52.92z"/>
	<path d="M76.01,58.64c-0.9,0-1.63,0.73-1.63,1.63c0,0.9,0.73,1.63,1.63,1.63H85c0.9,0,1.63-0.73,1.63-1.63
		c0-0.9-0.73-1.63-1.63-1.63H76.01z"/>
	<path d="M51.52,50.93c-0.48-0.63-0.8-0.69-0.84-0.69c-0.04,0-0.4,0.07-0.93,0.81c-0.58,0.82-1.09,2.14-1.28,3.8
		c-0.18,1.65,0,3.31,0.46,4.68c0.48,1.41,1.11,2.11,1.49,2.36C50.59,62,50.66,62,50.67,62c0.01,0,0.06,0,0.17-0.06
		c0.31-0.16,0.93-0.73,1.45-2.06c0.33-0.84,1.27-1.26,2.12-0.93c0.84,0.33,1.26,1.27,0.93,2.12c-0.69,1.78-1.74,3.11-2.96,3.76
		c-0.56,0.3-1.19,0.47-1.87,0.44c-0.68-0.03-1.31-0.27-1.86-0.63c-1.19-0.77-2.19-2.21-2.81-4.06c-0.62-1.85-0.84-4-0.61-6.08
		c0.23-2.08,0.89-3.97,1.86-5.34c0.98-1.38,2.22-2.14,3.49-2.18c1.27-0.04,2.53,0.65,3.54,1.97c1.01,1.31,1.7,3.16,1.98,5.23
		c0.12,0.9-0.51,1.72-1.41,1.83c-0.9,0.12-1.72-0.51-1.83-1.41C52.63,52.96,52.1,51.69,51.52,50.93z"/>
	<path d="M28.96,51.14L28.96,51.14c0.81,0.41,1.79,0.09,2.21-0.71c0.42-0.8,0.1-1.79-0.7-2.2c-1.01-0.52-2.09-0.51-3.09,0.05
		c-1,0.55-1.87,1.61-2.48,3.03c-0.61,1.42-0.94,3.12-0.93,4.86c0.01,1.74,0.35,3.44,0.97,4.84c0.63,1.41,1.5,2.45,2.51,2.98
		c1.01,0.53,2.09,0.52,3.09-0.02c1-0.54,1.87-1.6,2.49-3.01c0.62-1.41,0.95-3.11,0.95-4.86c0-0.9-0.73-1.63-1.64-1.63
		c-0.9,0-1.63,0.73-1.63,1.64c0,1.35-0.26,2.59-0.67,3.54c-0.43,0.98-0.89,1.36-1.06,1.45l0,0c-0.16-0.09-0.62-0.45-1.05-1.41
		c-0.42-0.94-0.68-2.17-0.69-3.52c-0.01-1.35,0.25-2.6,0.66-3.55C28.32,51.63,28.78,51.24,28.96,51.14z"/>
	<path class="st2" d="M29.27,23.35c0-6.31,2.59-17.65,10.71-17.92c1.43-0.03,2.86-0.06,4.29-0.1c9.95-0.23,25.36-0.65,35.28-0.05
		c5.56,0.55,9.97,8.35,9.97,17.89c0,6.26-1.9,11.77-4.77,14.98c5.01,1.58,8.8,8.86,8.8,17.6c0,9.54-4.52,17.35-10.22,17.89l-5.07,0
		c-12.71,0.01-48.98,0.21-48.98,0.2c-5.84-0.29-10.52-8.2-10.52-17.91c0-6.32,2.59-17.63,10.71-17.92c0.98-0.02,1.97-0.01,2.95-0.01
		c0.49,0,0.98,0.01,1.47,0.01C31.09,34.76,29.27,29.4,29.27,23.35z M45.01,34.33c1.61-2.65,2.71-6.53,2.71-10.98
		s-1.1-8.33-2.71-10.98c-1.64-2.71-3.47-3.67-4.88-3.67s-3.24,0.96-4.88,3.67c-1.61,2.65-2.71,6.53-2.71,10.98s1.1,8.33,2.71,10.98
		c1.64,2.71,3.47,3.67,4.88,3.67S43.36,37.04,45.01,34.33z M68.13,37.82L46.38,38c2.78-3.24,4.6-8.6,4.6-14.65
		c0-6.05-1.82-11.41-4.6-14.65l32.44-0.18c0.14,0,0.27,0.01,0.41,0.01c1.29,0.13,3.01,1.19,4.54,3.92
		c1.48,2.65,2.48,6.42,2.48,10.72s-1,8.07-2.48,10.72c-1.52,2.71-3.31,3.9-6.26,3.93v-6.57c0-2.59-2.1-4.69-4.69-4.69
		c-2.59,0-4.69,2.1-4.69,4.69V37.82z M71.39,39.46c0,0.9-0.73,1.63-1.63,1.63l-12.19,0.18c2.78,3.24,4.6,8.6,4.6,14.65
		c0,6.06-1.82,11.41-4.6,14.65l25.45-0.19c1.39-0.13,3.17-1.23,4.72-3.94c1.52-2.65,2.54-6.4,2.54-10.69
		c0-4.29-1.02-8.05-2.54-10.69c-1.55-2.71-3.33-3.81-4.72-3.94c-1.58-0.15-3.22-0.11-4.83-0.06c-0.78,0.02-1.55,0.04-2.32,0.04
		c-0.9,0-1.63-0.73-1.63-1.63v-8.21c0-0.78-0.64-1.42-1.42-1.42c-0.78,0-1.42,0.64-1.42,1.42V39.46z M35.86,41.27
		c2.78,3.24,4.6,8.6,4.6,14.65c0,6.05-1.82,11.41-4.6,14.65h9.2c-2.78-3.25-4.6-8.6-4.6-14.65c0-6.05,1.82-11.41,4.6-14.65H35.86z
		 M58.9,55.93c0,4.45-1.1,8.33-2.71,10.98c-1.64,2.71-3.47,3.67-4.88,3.67c-1.41,0-3.24-0.96-4.88-3.67
		c-1.61-2.65-2.71-6.53-2.71-10.98c0-4.45,1.1-8.33,2.71-10.98c1.64-2.71,3.47-3.67,4.88-3.67c1.41,0,3.24,0.96,4.88,3.67
		C57.8,47.6,58.9,51.47,58.9,55.93z M37.19,55.93c0,4.45-1.1,8.33-2.71,10.98c-1.64,2.71-3.47,3.67-4.88,3.67
		c-1.41,0-3.24-0.96-4.88-3.67c-1.61-2.65-2.71-6.53-2.71-10.98c0-4.45,1.1-8.33,2.71-10.98c1.64-2.71,3.47-3.67,4.88-3.67
		c1.41,0,3.24,0.96,4.88,3.67C36.09,47.6,37.19,51.47,37.19,55.93z"/>
</g>
</svg>
