<?xml version="1.0" encoding="utf-8"?>
<!-- Generator: Adobe Illustrator 28.1.0, SVG Export Plug-In . SVG Version: 6.00 Build 0)  -->
<svg version="1.1" id="Layer_1" xmlns="http://www.w3.org/2000/svg" xmlns:xlink="http://www.w3.org/1999/xlink" x="0px" y="0px"
	 viewBox="0 0 110.55 76.54" style="enable-background:new 0 0 110.55 76.54;" xml:space="preserve">
<style type="text/css">
	.st0{display:none;}
	.st1{display:inline;fill:none;}
</style>
<g id="Layer_2_00000073722119373351752270000017113015111246931634_" class="st0">
	<line class="st1" x1="-24.13" y1="74.54" x2="142.13" y2="74.54"/>
	<line class="st1" x1="-24.13" y1="2" x2="142.13" y2="2"/>
</g>
<g>
	<g>
		<path d="M84.49,68.57c-0.63-10.33-0.76-20.05-2.53-27.82c-0.89-3.89-2.18-7.39-4.6-10.17c-2.11-2.03-3.89-3.13-6.01-3.69
			c-0.09,1.45-0.69,2.88-1.81,3.99l-1.74,1.74V52.5c0,1.48-1.21,2.69-2.69,2.69c-0.04,0-0.07,0-0.11,0V56
			c0,1.48-1.21,2.69-2.69,2.69c-0.14,0-0.29-0.01-0.42-0.03c-0.45,0.85-1.35,1.43-2.38,1.43c-0.3,0-0.58-0.05-0.85-0.14
			c-0.49,0.52-1.18,0.84-1.95,0.84c-0.3,0-0.58-0.05-0.85-0.14c-0.49,0.52-1.18,0.84-1.95,0.84c-1.48,0-2.69-1.21-2.69-2.69v-5.25
			c-3.22,1.73-6.23,2.89-9.07,3.51v12.94c0,0,3.21,2.87,13.92,2.87c10.71,0,13.92-2.87,13.92-2.87v-0.86V34.77
			c0.47,0.27,0.89,0.62,1.31,1.1c1.06,1.22,2.09,3.48,2.82,6.66c1.45,6.36,1.71,16,2.35,26.53C76.72,74.48,84.88,73.98,84.49,68.57z
			"/>
		<path d="M68.27,23.65l-4.02-4.38c0.42-0.55,0.78-1.14,1.08-1.76c0.65-1.34,1.01-2.85,1.01-4.44c0-5.65-4.61-10.25-10.3-10.25
			c-5.65,0-10.25,4.6-10.25,10.25c0,1.56,0.35,3.04,0.97,4.36c0.3,0.63,0.65,1.23,1.07,1.78l-3.97,4.33
			c-0.77,0.85-1.14,1.92-1.1,2.99c0.04,1.09,0.49,2.16,1.36,2.95l5.24,4.81l-0.15,0.15c-1.05,1.1-1.27,2.75-0.53,4.09l0.86,1.58
			l0.99,1.83c-0.57,0.38-1.13,0.74-1.67,1.08c-4.7,2.9-8.35,4.13-10.7,4.35l0,0.02c-2.95,0.25-3.43-0.46-3.81-1.35
			c-0.39-0.91-0.37-3.05,1.19-5.47c1.26-1.96,3.42-4.01,6.62-5.54v9.08c1.61-0.64,3.53-1.59,5.71-2.92l-0.93-1.7
			c-0.85-1.55-0.89-3.35-0.19-4.89l-3.97-3.64c-1.18-1.09-1.84-2.53-1.97-4.02c-5.53,1.5-9.64,5.82-12.04,9.28
			c-2.64,4.11-3.6,8.86-1.81,13.01c1.8,4.16,6.68,6.66,12.09,6.16c3.61-0.34,7.62-1.71,12.18-4.3c0,0,1.57-1.02,1.99-1.28v0.1v2.53
			v6.38c0,0.39,0.31,0.7,0.7,0.7c0.39,0,0.7-0.31,0.7-0.7v-2.3l1.4-0.47v2.06c0,0.39,0.31,0.7,0.7,0.7c0.39,0,0.7-0.31,0.7-0.7
			v-2.53l1.4-0.47v2.3c0,0.39,0.31,0.7,0.7,0.7c0.39,0,0.7-0.31,0.7-0.7v-2.76l1.4-0.47V56c0,0.39,0.31,0.7,0.7,0.7
			c0.39,0,0.7-0.31,0.7-0.7v-4.87l1.4-0.47v1.83c0,0.39,0.31,0.7,0.7,0.7s0.7-0.31,0.7-0.7V31.79l2.32-2.32
			c0.81-0.81,1.23-1.87,1.23-2.94C69.38,25.5,69.02,24.46,68.27,23.65z M51.79,22.39c1.3,0.59,2.74,0.92,4.26,0.92
			c1.53,0,2.98-0.33,4.28-0.92c0.12-0.05,0.23-0.11,0.35-0.17c-0.03,0.06-0.07,0.11-0.1,0.17l-1.31,1.4l-2.42,2.58l-0.7,0.75
			l-0.74-0.75l-2.54-2.58l-1.38-1.4c-0.05-0.07-0.09-0.14-0.14-0.22C51.49,22.25,51.64,22.33,51.79,22.39z M45.07,28.45
			c-0.6-0.55-0.9-1.3-0.91-2.05c0-0.68,0.24-1.37,0.73-1.91h0l3.86-4.21c0.14,0.14,0.28,0.27,0.42,0.41
			c0.09,0.08,0.19,0.16,0.28,0.24l0.04,0.25c0.15,0.87,0.52,1.69,1.09,2.37l0.01,0.01l0.01,0.02c0.08,0.09,0.17,0.18,0.26,0.27
			l2.54,2.54l1.77,1.77l-4.45,4.69l-0.41,0.43L45.07,28.45z M61.62,40.33v5.42v3.76v3.19l-7,2.33v-3.46V49v-0.11
			c0.2-0.13,0.39-0.26,0.59-0.39c1.02-0.69,2.07-1.44,3.15-2.25c1.78-1.33,2.14-3.86,0.8-5.63c-0.32-0.43-0.71-0.77-1.14-1.03
			l0.04-0.04l1.56-1.56l2-2V40.33z M64.42,49.19l-1.4,0.47v-0.62V34.59l0.81-0.81l0.59-0.59V49.19z M67.15,28.47L67.15,28.47
			L64.62,31l-0.79,0.79l-2.01,2.01l-3.5,3.5l-1.76,1.75c-0.1-0.01-0.21-0.02-0.31-0.03c-0.94-0.07-1.92,0.18-2.73,0.79
			c-0.45,0.34-0.9,0.66-1.33,0.98c-0.16,0.12-0.32,0.23-0.49,0.34l-0.99-1.82l-0.79-1.46c-0.44-0.8-0.31-1.79,0.32-2.45l1.53-1.62
			l7.03-7.41l2.44-2.57c0,0,0.05-0.06,0.06-0.06c0.06-0.07,0.12-0.13,0.18-0.2l0.01-0.01l0.01-0.01l0.01-0.01
			c0.53-0.65,0.88-1.43,1.02-2.26l0.04-0.22c0.12-0.09,0.23-0.19,0.34-0.29c0.15-0.13,0.29-0.26,0.43-0.4l3.91,4.27
			c0.47,0.52,0.71,1.17,0.73,1.82C67.99,27.16,67.72,27.91,67.15,28.47z"/>
	</g>
</g>
</svg>
