<?xml version="1.0" encoding="utf-8"?>
<!-- Generator: Adobe Illustrator 28.1.0, SVG Export Plug-In . SVG Version: 6.00 Build 0)  -->
<svg version="1.1" id="Layer_1" xmlns="http://www.w3.org/2000/svg" xmlns:xlink="http://www.w3.org/1999/xlink" x="0px" y="0px"
	 viewBox="0 0 110.55 76.54" style="enable-background:new 0 0 110.55 76.54;" xml:space="preserve">
<style type="text/css">
	.st0{display:none;}
	.st1{display:inline;fill:none;}
</style>
<g id="Layer_2_00000073722119373351752270000017113015111246931634_" class="st0">
	<line class="st1" x1="-24.13" y1="74.54" x2="142.13" y2="74.54"/>
	<line class="st1" x1="-24.13" y1="2" x2="142.13" y2="2"/>
</g>
<g>
	<path d="M45.33,31.23h5.74l3.22,5.03c0.5,0.7,1.51,0.7,2.01,0l3.22-5.03h5.74c2.72,0,4.83-2.21,4.83-4.83V6.67
		c0-2.72-2.21-4.83-4.83-4.83H45.33c-2.72,0-4.83,2.21-4.83,4.83V26.3C40.49,29.01,42.61,31.23,45.33,31.23z M55.59,27.2
		c-1.21,0-2.11-1.01-2.11-2.11c0-1.21,1.01-2.11,2.11-2.11c1.21,0,2.11,1.01,2.11,2.11C57.71,26.3,56.8,27.2,55.59,27.2z
		 M55.39,6.67c2.62,0,4.83,1.31,5.94,3.42c1.01,2.01,0.81,4.33-0.4,6.14c-0.81,1.11-1.71,1.71-2.31,2.21
		c-0.7,0.5-1.01,0.7-1.11,1.81c0,0.5-0.5,0.91-1.01,0.91h-1.51c-0.6,0-1.01-0.5-1.01-1.11c0.2-2.72,1.31-3.62,2.62-4.63
		c0.5-0.4,1.01-0.7,1.51-1.41c0.5-0.7,0.6-1.61,0.1-2.42c-0.3-0.5-1.01-1.51-2.72-1.51c-2.21,0-2.92,1.41-3.12,2.52
		c-0.1,0.5-0.5,0.81-1.01,0.81h-1.61c-0.6,0-1.11-0.5-1.01-1.11C49.15,9.49,51.26,6.67,55.39,6.67z"/>
	<path d="M62.44,72.9l-0.1-10.97l5.94,2.72c0.4,0.2,0.81,0.3,1.21,0.3c1.01,0,2.01-0.5,2.52-1.51l4.73-8.05
		c0.91-1.41,0.4-3.22-1.01-4.03c-1.41-0.81-3.22-0.3-4.03,1.11l-3.32,5.74l-6.04-2.82c-1.41-0.6-3.02-1.01-4.53-1.01h-5.03
		c-1.51,0-3.12,0.3-4.53,1.01l-6.04,2.82l-3.32-5.74c-0.81-1.41-2.62-1.91-4.03-1.11c-1.41,0.81-1.91,2.62-1.11,4.03l4.73,8.05
		c0.81,1.31,2.42,1.81,3.82,1.21l5.94-2.72l-0.1,10.97c0,2.62-0.02,2.62,7.13,2.62C62.35,75.52,62.44,75.52,62.44,72.9z"/>
	<circle cx="55.29" cy="46.12" r="6.54"/>
</g>
</svg>
