<?xml version="1.0" encoding="utf-8"?>
<!-- Generator: Adobe Illustrator 28.1.0, SVG Export Plug-In . SVG Version: 6.00 Build 0)  -->
<svg version="1.1" id="Layer_1" xmlns="http://www.w3.org/2000/svg" xmlns:xlink="http://www.w3.org/1999/xlink" x="0px" y="0px"
	 viewBox="0 0 110.55 76.54" style="enable-background:new 0 0 110.55 76.54;" xml:space="preserve">
<style type="text/css">
	.st0{display:none;}
	.st1{display:inline;fill:none;}
</style>
<g id="Layer_2_00000073722119373351752270000017113015111246931634_" class="st0">
	<line class="st1" x1="-24.13" y1="74.54" x2="142.13" y2="74.54"/>
	<line class="st1" x1="-24.13" y1="2" x2="142.13" y2="2"/>
</g>
<g>
	<path d="M-6205.14,2572.35c2.38-0.86,3.64-3.44,2.84-5.82s-3.44-3.64-5.82-2.84c-2.38,0.79-3.64,3.44-2.84,5.82
		C-6210.17,2571.96-6207.52,2573.21-6205.14,2572.35z"/>
	<path d="M-6194.76,2567.33c0.07-0.26,0.07-0.53,0.13-0.79c0.13-1.12-0.73-2.18-1.85-2.32c-0.2,0-0.4,0-0.6,0
		c-1.46-1.72-2.98-3.37-4.76-4.9c-0.46-0.4-1.12-0.33-1.52,0.13c-0.4,0.46-0.33,1.12,0.13,1.52c1.65,1.39,3.11,2.98,4.5,4.63
		c-0.07,0.13-0.07,0.26-0.07,0.46c-0.66,5.89-2.45,6.48-9.2,8.67c-0.99,0.33-1.59,1.39-1.39,2.38c0,0,0.79,5.23,1.59,8.93
		c0.4,1.92,1.59,3.18,3.31,3.64l0.99,4.7l-2.12,4.83c-0.53,1.19,0,2.58,1.19,3.18c0.33,0.13,0.66,0.2,0.99,0.2
		c0.93,0,1.79-0.53,2.18-1.39l2.45-5.49c0.2-0.46,0.26-0.99,0.13-1.46l-0.99-4.7l3.04-0.46l2.32,3.64c0.46,0.73,1.26,1.12,2.05,1.12
		c0.46,0,0.86-0.13,1.26-0.4c1.12-0.73,1.46-2.18,0.73-3.31l-3.18-4.96c-0.53-0.79-1.46-1.26-2.38-1.06l-4.43,0.66l-0.73-8.2
		c2.71-1.32,4.56-3.04,5.62-6.35c11.31,18.06,10.78,43.6,10.78,43.86c0,0.6,0.46,1.06,1.06,1.12l0,0c0.6,0,1.06-0.46,1.06-1.06
		c0-0.4,0.2-9.46-2.05-20.77C-6186.02,2585.58-6189,2575.66-6194.76,2567.33z"/>
	<path d="M-6150.23,2607.15h-26.33v-41.88c0-0.6-0.46-1.06-1.06-1.06c-0.6,0-1.06,0.46-1.06,1.06v48.89c0,0.6,0.46,1.06,1.06,1.06
		h27.39c0.6,0,1.06-0.46,1.06-1.06v-5.95C-6149.17,2607.61-6149.64,2607.15-6150.23,2607.15z"/>
	<path d="M-6187.81,2561.17c0.2,0,0.46-0.07,0.6-0.2c3.31-2.38,7.41-3.57,11.51-3.37l-1.19,1.06c-0.46,0.4-0.46,1.06-0.13,1.52
		c0.2,0.26,0.53,0.4,0.79,0.4s0.53-0.07,0.73-0.26l3.24-2.78c0.46-0.4,0.46-1.06,0.13-1.52l-2.78-3.24
		c-0.4-0.46-1.06-0.46-1.52-0.13c-0.46,0.4-0.46,1.06-0.13,1.52l1.12,1.26c-4.63-0.2-9.2,1.12-12.97,3.77
		c-0.46,0.33-0.6,0.99-0.26,1.52C-6188.47,2560.97-6188.14,2561.17-6187.81,2561.17z"/>
</g>
<path d="M88.74,19.73C85.95,12.99,76.22,3.96,70.09,3.96c-1.47,0-2.74,0.5-3.68,1.44L22.4,49.4c-1.18,1.18-2.24,3.42-0.59,7.4
	c2.79,6.74,12.53,15.77,18.65,15.77c1.47,0,2.74-0.5,3.68-1.44l44-44C89.33,25.96,90.39,23.72,88.74,19.73z M41.65,68.65
	c-0.17,0.17-0.48,0.4-1.19,0.4c-4.29,0-12.92-7.62-15.39-13.59c-0.41-0.99-0.97-2.76-0.17-3.56l10.35-10.35L52,58.3L41.65,68.65z
	 M54.49,55.8L37.75,39.05l18.31-18.31l16.75,16.75L54.49,55.8z M85.65,24.64L75.3,34.99L58.55,18.24L68.9,7.89
	c0.17-0.17,0.48-0.4,1.18-0.4c4.29,0,12.92,7.62,15.39,13.59C85.89,22.07,86.45,23.84,85.65,24.64z M54.45,29.85
	c0,0.46,0.18,0.92,0.52,1.24c0.33,0.33,0.78,0.52,1.24,0.52c0.47,0,0.92-0.2,1.25-0.52c0.33-0.33,0.51-0.79,0.51-1.24
	c0-0.47-0.19-0.93-0.51-1.25c-0.66-0.65-1.84-0.65-2.5,0C54.63,28.92,54.45,29.38,54.45,29.85z M63.71,39.1
	c0.46,0,0.92-0.19,1.24-0.52c0.33-0.33,0.52-0.78,0.52-1.24c0-0.47-0.2-0.92-0.52-1.25c-0.66-0.65-1.84-0.65-2.5,0
	c-0.33,0.34-0.51,0.79-0.51,1.25c0,0.47,0.18,0.92,0.51,1.25C62.79,38.91,63.24,39.1,63.71,39.1z M52.47,33.59
	c-0.66-0.66-1.84-0.66-2.5,0c-0.33,0.33-0.52,0.78-0.52,1.24s0.2,0.92,0.52,1.25c0.33,0.33,0.79,0.51,1.24,0.51
	c0.47,0,0.92-0.19,1.25-0.51c0.33-0.34,0.52-0.79,0.52-1.25C52.99,34.38,52.79,33.92,52.47,33.59z M56.94,42.33
	c0,0.46,0.18,0.92,0.51,1.24c0.33,0.33,0.78,0.52,1.25,0.52c0.46,0,0.92-0.19,1.24-0.52c0.33-0.33,0.52-0.79,0.52-1.24
	c0-0.47-0.19-0.92-0.52-1.25c-0.65-0.65-1.84-0.65-2.5,0C57.13,41.41,56.94,41.86,56.94,42.33z M45.6,37.96
	c-0.33,0.33-0.52,0.78-0.52,1.24c0,0.46,0.19,0.92,0.52,1.25c0.33,0.33,0.78,0.51,1.24,0.51c0.47,0,0.93-0.19,1.25-0.52
	c0.33-0.33,0.52-0.79,0.52-1.24c0-0.46-0.2-0.92-0.52-1.24C47.45,37.3,46.26,37.3,45.6,37.96z M53.09,45.45
	c-0.33,0.34-0.51,0.79-0.51,1.25c0,0.46,0.19,0.91,0.51,1.24c0.34,0.33,0.79,0.52,1.25,0.52c0.47,0,0.92-0.2,1.25-0.52
	c0.33-0.34,0.51-0.79,0.51-1.24c0-0.47-0.18-0.92-0.52-1.25C54.93,44.79,53.75,44.79,53.09,45.45z"/>
</svg>
