<?xml version="1.0" encoding="utf-8"?>
<!-- Generator: Adobe Illustrator 28.1.0, SVG Export Plug-In . SVG Version: 6.00 Build 0)  -->
<svg version="1.1" id="Layer_1" xmlns="http://www.w3.org/2000/svg" xmlns:xlink="http://www.w3.org/1999/xlink" x="0px" y="0px"
	 viewBox="0 0 110.55 76.54" style="enable-background:new 0 0 110.55 76.54;" xml:space="preserve">
<style type="text/css">
	.st0{display:none;}
	.st1{display:inline;fill:none;}
	.st2{fill:#231F20;}
</style>
<g id="Layer_2_00000073722119373351752270000017113015111246931634_" class="st0">
	<line class="st1" x1="-24.13" y1="74.54" x2="142.13" y2="74.54"/>
	<line class="st1" x1="-24.13" y1="2" x2="142.13" y2="2"/>
</g>
<g>
	<path d="M-6205.14,2572.35c2.38-0.86,3.64-3.44,2.84-5.82s-3.44-3.64-5.82-2.84c-2.38,0.79-3.64,3.44-2.84,5.82
		C-6210.17,2571.96-6207.52,2573.21-6205.14,2572.35z"/>
	<path d="M-6194.76,2567.33c0.07-0.26,0.07-0.53,0.13-0.79c0.13-1.12-0.73-2.18-1.85-2.32c-0.2,0-0.4,0-0.6,0
		c-1.46-1.72-2.98-3.37-4.76-4.9c-0.46-0.4-1.12-0.33-1.52,0.13c-0.4,0.46-0.33,1.12,0.13,1.52c1.65,1.39,3.11,2.98,4.5,4.63
		c-0.07,0.13-0.07,0.26-0.07,0.46c-0.66,5.89-2.45,6.48-9.2,8.67c-0.99,0.33-1.59,1.39-1.39,2.38c0,0,0.79,5.23,1.59,8.93
		c0.4,1.92,1.59,3.18,3.31,3.64l0.99,4.7l-2.12,4.83c-0.53,1.19,0,2.58,1.19,3.18c0.33,0.13,0.66,0.2,0.99,0.2
		c0.93,0,1.79-0.53,2.18-1.39l2.45-5.49c0.2-0.46,0.26-0.99,0.13-1.46l-0.99-4.7l3.04-0.46l2.32,3.64c0.46,0.73,1.26,1.12,2.05,1.12
		c0.46,0,0.86-0.13,1.26-0.4c1.12-0.73,1.46-2.18,0.73-3.31l-3.18-4.96c-0.53-0.79-1.46-1.26-2.38-1.06l-4.43,0.66l-0.73-8.2
		c2.71-1.32,4.56-3.04,5.62-6.35c11.31,18.06,10.78,43.6,10.78,43.86c0,0.6,0.46,1.06,1.06,1.12l0,0c0.6,0,1.06-0.46,1.06-1.06
		c0-0.4,0.2-9.46-2.05-20.77C-6186.02,2585.58-6189,2575.66-6194.76,2567.33z"/>
	<path d="M-6150.23,2607.15h-26.33v-41.88c0-0.6-0.46-1.06-1.06-1.06c-0.6,0-1.06,0.46-1.06,1.06v48.89c0,0.6,0.46,1.06,1.06,1.06
		h27.39c0.6,0,1.06-0.46,1.06-1.06v-5.95C-6149.17,2607.61-6149.64,2607.15-6150.23,2607.15z"/>
	<path d="M-6187.81,2561.17c0.2,0,0.46-0.07,0.6-0.2c3.31-2.38,7.41-3.57,11.51-3.37l-1.19,1.06c-0.46,0.4-0.46,1.06-0.13,1.52
		c0.2,0.26,0.53,0.4,0.79,0.4s0.53-0.07,0.73-0.26l3.24-2.78c0.46-0.4,0.46-1.06,0.13-1.52l-2.78-3.24
		c-0.4-0.46-1.06-0.46-1.52-0.13c-0.46,0.4-0.46,1.06-0.13,1.52l1.12,1.26c-4.63-0.2-9.2,1.12-12.97,3.77
		c-0.46,0.33-0.6,0.99-0.26,1.52C-6188.47,2560.97-6188.14,2561.17-6187.81,2561.17z"/>
</g>
<g>
	<g>
		<g>
			<circle cx="38.57" cy="66.05" r="2.87"/>
			<path d="M38.57,58.64c-4.06,0-7.29,3.23-7.29,7.29s3.23,7.29,7.29,7.29s7.29-3.23,7.29-7.29C45.86,61.99,42.52,58.64,38.57,58.64
				z M38.57,70.71c-2.63,0-4.66-2.15-4.66-4.66c0-2.51,2.15-4.66,4.66-4.66c2.63,0,4.66,2.15,4.66,4.66
				C43.23,68.56,41.08,70.71,38.57,70.71z"/>
			<path d="M77.29,58.64c-4.06,0-7.29,3.23-7.29,7.29s3.23,7.29,7.29,7.29s7.29-3.23,7.29-7.29C84.69,61.99,81.35,58.64,77.29,58.64
				z M77.29,70.71c-2.63,0-4.66-2.15-4.66-4.66c0-2.51,2.15-4.66,4.66-4.66s4.66,2.15,4.66,4.66
				C81.94,68.56,79.91,70.71,77.29,70.71z"/>
			<circle cx="77.29" cy="66.05" r="2.87"/>
		</g>
		<path d="M91.98,59h-0.84c-0.36-7.05-5.74-12.9-12.78-13.98c-5.02-9.44-14.82-15.29-25.57-15.29c-16.01,0-29.03,13.02-29.03,29.03
			V59c-0.96,0-1.79,0.48-2.51,1.19s-1.19,1.79-1.19,2.75c0,2.15,1.79,3.94,3.94,3.94h5.5c0-0.36,0-0.6,0-0.96
			c0-5.02,4.06-9.08,9.08-9.08s9.08,4.06,9.08,9.08c0,0.36,0,0.6,0,0.96h20.67c0-0.36,0-0.6,0-0.96c0-5.02,4.06-9.08,9.08-9.08
			s9.08,4.06,9.08,9.08c0,0.36,0,0.6,0,0.96h5.5c1.08,0,2.03-0.48,2.75-1.19c0.72-0.72,1.19-1.79,1.19-2.75
			C95.92,60.79,94.13,59,91.98,59z M51.84,46.81H31.28c4.06-7.17,11.71-12.19,20.55-12.55C51.84,34.27,51.84,46.81,51.84,46.81z
			 M53.63,46.81V34.27c8.6,0.36,16.37,5.02,20.55,12.55H53.63z"/>
		<g>
			<path d="M66.77,10.37c-0.36-3.46-3.23-6.45-6.69-6.93c-1.91-0.24-3.82,0.12-5.38,1.08c-1.19,0.72-2.75,0.72-3.94,0
				c-1.55-0.96-3.46-1.43-5.5-1.08c-3.46,0.6-6.33,3.46-6.69,6.93c-0.24,2.27,0.48,4.54,1.91,6.21c1.55,1.67,3.7,2.63,5.97,2.63
				h2.15v8.96c1.31-0.24,2.63-0.24,3.94-0.24s2.63,0.12,3.94,0.24v-8.96h2.27c2.27,0,4.42-0.96,5.97-2.63
				C66.29,14.91,67.13,12.64,66.77,10.37z M46.58,15.03c-2.03,0-3.7-1.67-3.7-3.7s1.67-3.7,3.7-3.7s3.7,1.67,3.7,3.7
				S48.61,15.03,46.58,15.03z M58.88,15.03c-2.03,0-3.7-1.67-3.7-3.7s1.67-3.7,3.7-3.7s3.7,1.67,3.7,3.7
				C62.59,13.36,60.92,15.03,58.88,15.03z"/>
		</g>
	</g>
	<g>
		<path class="st2" d="M31.79,20.94l1.91,4.31c-6.66-0.3-12.11-3.47-12.11-7.21c0-2.48,2.44-4.85,6.37-6.18
			c0.58-0.19,0.88-0.82,0.69-1.4c-0.19-0.58-0.82-0.88-1.4-0.69c-4.85,1.64-7.87,4.81-7.87,8.27c0,4.98,5.95,8.94,13.8,9.39
			c-0.98,1.1-2.38,2.67-2.78,3.11l1.08,1.24c2.39-1.56,4.77-3.12,7.68-5.03c-2.43-2.52-4.44-4.6-6.45-6.68
			C32.42,20.37,32.1,20.65,31.79,20.94z"/>
		<path class="st2" d="M76.8,9.62c0.98-1.1,2.38-2.67,2.78-3.11l-1.08-1.24c-2.39,1.56-4.77,3.12-7.68,5.03
			c2.43,2.52,4.44,4.6,6.45,6.68c0.31-0.29,0.63-0.57,0.94-0.86l-1.91-4.31c6.66,0.3,12.11,3.47,12.11,7.21
			c0,2.48-2.44,4.85-6.37,6.18c-0.58,0.19-0.88,0.82-0.69,1.4c0.16,0.46,0.58,0.75,1.04,0.75c0.12,0,0.24-0.02,0.35-0.06
			c4.85-1.64,7.87-4.81,7.87-8.27C90.6,14.03,84.65,10.07,76.8,9.62z"/>
	</g>
</g>
</svg>
