<?xml version="1.0" encoding="utf-8"?>
<!-- Generator: Adobe Illustrator 28.1.0, SVG Export Plug-In . SVG Version: 6.00 Build 0)  -->
<svg version="1.1" id="Layer_1" xmlns="http://www.w3.org/2000/svg" xmlns:xlink="http://www.w3.org/1999/xlink" x="0px" y="0px"
	 viewBox="0 0 110.55 76.54" style="enable-background:new 0 0 110.55 76.54;" xml:space="preserve">
<style type="text/css">
	.st0{display:none;}
	.st1{display:inline;fill:none;}
	.st2{fill:none;}
	.st3{fill:#FFFFFF;}
	.st4{fill:#808080;}
</style>
<path d="M12 4C9.243 4 7 6.243 7 9h2c0-1.654 1.346-3 3-3s3 1.346 3 3c0 1.069-.454 1.465-1.481 2.255-.382.294-.813.626-1.226 1.038C10.981 13.604 10.995 14.897 11 15v2h2v-2.009c0-.024.023-.601.707-1.284.32-.32.682-.598 1.031-.867C15.798 12.024 17 11.1 17 9c0-2.757-2.243-5-5-5zm-1 14h2v2h-2z"/>
</svg>
