<?xml version="1.0" encoding="utf-8"?>
<!-- Generator: Adobe Illustrator 28.1.0, SVG Export Plug-In . SVG Version: 6.00 Build 0)  -->
<svg version="1.1" id="Layer_1" xmlns="http://www.w3.org/2000/svg" xmlns:xlink="http://www.w3.org/1999/xlink" x="0px" y="0px"
	 viewBox="0 0 110.55 76.54" style="enable-background:new 0 0 110.55 76.54;" xml:space="preserve">
<style type="text/css">
	.st0{display:none;}
	.st1{display:inline;fill:none;}
</style>
<g id="Layer_2_00000073722119373351752270000017113015111246931634_" class="st0">
	<line class="st1" x1="-24.13" y1="74.54" x2="142.13" y2="74.54"/>
	<line class="st1" x1="-24.13" y1="2" x2="142.13" y2="2"/>
</g>
<g>
	<g>
		<path d="M23.42,45.9c-1.41,2.76-5.96,12.22-6.02,12.34c-0.68,1.41-0.12,3.13,1.29,3.81c0.43,0.18,0.8,0.31,1.23,0.31
			c1.04,0,2.09-0.61,2.58-1.6c0.06-0.06,4.61-9.52,6.02-12.28c0.55-1.11,0.86-2.58,1.17-4.18c-1.35-1.41-4.61-3.62-5.22-4.05
			C24.22,42.34,23.85,44.98,23.42,45.9z"/>
		<path d="M46.88,32.21c-1.78-1.41-4.54-3.93-5.28-5.04c-0.18-0.31-0.43-0.86-0.68-1.41c-1.23-2.7-3.56-7.68-8.72-7.68
			c0,0-2.76-0.06-3.62-0.06c-5.83-0.12-9.64,5.04-10.56,6.88c-0.86,1.84-2.82,7.68-3.19,8.97c-0.31,1.17,0.37,2.4,1.54,2.7
			c0.18,0.06,0.37,0.06,0.61,0.06c0.98,0,1.84-0.61,2.15-1.6c0.37-1.23,2.27-6.82,2.95-8.23c0.18-0.43,0.86-1.41,1.84-2.33
			c-0.98,4.11-0.61,9.76-0.43,12.16c0.12,1.54,2.82,3.13,4.36,4.18c2.52,1.72,6.39,5.65,7.18,7.43c0.61,1.41,3.25,8.9,4.61,12.28
			c0.43,1.11,1.54,1.84,2.64,1.84c0.37,0,0.68-0.06,1.04-0.18c1.47-0.55,2.21-2.21,1.6-3.68c-0.18-0.43-3.87-10.68-4.67-12.53
			c-0.68-1.6-3.68-5.28-5.59-7.31c0,0,0-0.02,0-0.06c0.06,0.06,0.06,0,0,0c0-0.72,0.06-8.29,1.17-13.08
			c0.37,0.68,0.74,1.41,1.11,2.15c0.37,0.74,0.61,1.35,0.98,1.9c1.35,2.15,5.47,5.53,6.26,6.14c0.43,0.31,0.92,0.49,1.35,0.49
			c0.68,0,1.29-0.31,1.72-0.8C47.99,34.36,47.86,33.01,46.88,32.21z"/>
		<path d="M30.22,16.11c3.36,0.06,6.12-2.62,6.18-5.98c0.06-3.36-2.62-6.12-5.98-6.18c-3.36-0.06-6.12,2.62-6.18,5.98
			C24.18,13.29,26.86,16.05,30.22,16.11z"/>
		<path d="M81.39,46.56c0.39,0.73,0.47,1.01,0.71,1.55c0.61,1.41,3.25,8.9,4.61,12.28c0.43,1.11,1.54,1.84,2.64,1.84
			c0.37,0,0.68-0.06,1.04-0.18c1.47-0.55,2.21-2.21,1.6-3.68c-0.18-0.43-3.87-10.68-4.67-12.53c-0.49-1.15-2.19-3.39-3.81-5.31"/>
		<path d="M86.67,39.06"/>
		<path d="M77.8,16.11c3.36,0.06,6.12-2.62,6.18-5.98c0.06-3.36-2.62-6.12-5.98-6.18c-3.36-0.06-6.12,2.62-6.18,5.98
			C71.76,13.29,74.44,16.05,77.8,16.11z"/>
	</g>
	<path d="M80.92,45.69"/>
	<path d="M83.22,40.19"/>
	<path d="M94.46,32.21c-1.78-1.41-4.54-3.93-5.28-5.04c-0.18-0.31-0.43-0.86-0.68-1.41c-1.23-2.7-3.56-7.68-8.72-7.68
		c0,0-2.76-0.06-3.62-0.06c-5.83-0.12-9.64,5.04-10.56,6.88c-0.86,1.84-2.82,7.68-3.19,8.97c-0.31,1.17,0.37,2.4,1.54,2.7
		c0.18,0.06,0.37,0.06,0.61,0.06c0.98,0,1.84-0.61,2.15-1.6c0.37-1.23,2.27-6.82,2.95-8.23c0.18-0.43,0.86-1.41,1.84-2.33
		c-0.85,3.54-0.75,7.32-0.52,10.93c0.08,1.24,0.07,2.46,0.6,3.6c0.6,1.31,0.89,2.7,1.39,4.04c0.24,0.63,1.03,1.87,0.77,2.56
		c-0.11,0.28-0.27,0.58-0.53,1.12c-0.98,2.02-7.41,9.19-8.39,11.21c-0.03,0.06-0.06,0.13-0.09,0.19c-0.68,1.41-0.12,3.13,1.29,3.81
		c0.43,0.18,0.8,0.31,1.23,0.31c0.8,0,1.59-0.27,2.23-0.76c0.81-0.62,8.99-11.74,9.35-12.39c0.76-1.38,2.16-5.99,2.48-6.88
		c0.09-0.24,0.17-0.48,0.26-0.73c0.17-0.49,0.33-0.97,0.48-1.47c0.37-1.21,0.22-2.62,0.26-3.88c0.05-1.63,0.15-3.26,0.29-4.89
		c0.17-1.92,0.39-3.85,0.83-5.73c0.37,0.68,0.74,1.41,1.11,2.15c0.37,0.74,0.61,1.35,0.98,1.9c1.35,2.15,5.47,5.53,6.26,6.14
		c0.43,0.31,0.92,0.49,1.35,0.49c0.68,0,1.29-0.31,1.72-0.8C95.57,34.36,95.44,33.01,94.46,32.21z"/>
	<path d="M78.64,62.95c0,0.35,0.01,0.7,0.01,1.05c0.7,0.23,1.41,0.46,2.12,0.7c0.24,0.06,0.43,0.11,0.6,0.17
		c-6.41,3.95-14.13,5.28-21.56,5.6c-3.95,0.17-7.9,0.05-11.84-0.21c-3.93-0.26-7.87-0.68-11.72-1.52c-4.28-0.92-8.5-2.34-12.09-4.91
		c-0.67-0.48-1.71-0.12-2.1,0.55c-0.45,0.77-0.13,1.62,0.55,2.1c6.74,4.83,15.59,6.07,23.66,6.72c8.28,0.66,16.75,0.73,24.89-1.08
		c4.33-0.96,8.59-2.55,12.33-4.98c0.01,0.21,0.01,0.4,0.02,0.59c0.09,0.83,0.17,1.61,0.25,2.35l1.35,0.02
		c0.35-2.31,0.7-4.62,1.13-7.43C83.37,62.78,81,62.87,78.64,62.95z"/>
</g>
</svg>
