<?xml version="1.0" encoding="utf-8"?>
<!-- Generator: Adobe Illustrator 28.1.0, SVG Export Plug-In . SVG Version: 6.00 Build 0)  -->
<svg version="1.1" id="Layer_1" xmlns="http://www.w3.org/2000/svg" xmlns:xlink="http://www.w3.org/1999/xlink" x="0px" y="0px"
	 viewBox="0 0 110.55 76.54" style="enable-background:new 0 0 110.55 76.54;" xml:space="preserve">
<style type="text/css">
	.st0{display:none;}
	.st1{display:inline;fill:none;}
	.st2{fill:none;}
</style>
<g id="Layer_2_00000073722119373351752270000017113015111246931634_" class="st0">
	<line class="st1" x1="-24.13" y1="74.54" x2="142.13" y2="74.54"/>
	<line class="st1" x1="-24.13" y1="2" x2="142.13" y2="2"/>
</g>
<g>
	<rect x="19.43" y="3.95" width="6.52" height="69.09"/>
	<g>
		<rect x="47.52" y="31.74" class="st2" width="4.26" height="19.52"/>
		<rect x="36.73" y="31.74" class="st2" width="4.26" height="19.52"/>
		<g>
			<rect x="58.3" y="31.74" class="st2" width="4.26" height="19.52"/>
			<g>
				<rect x="58.3" y="31.74" class="st2" width="4.26" height="19.52"/>
				<path d="M82.06,31.74v-6.52h-2.19V10.72c-2.1-1.06-4.28-1.98-6.52-2.76v17.26h-4.26V6.66c-2.13-0.56-4.3-0.99-6.52-1.29v19.85
					H58.3V4.95V3.95h-6.52v1.01v20.26h-4.26V5.36c-2.22,0.3-4.4,0.73-6.52,1.28v18.57h-4.26V7.95c-2.24,0.79-4.42,1.71-6.52,2.77
					v14.49h-3.65v6.52h3.65v19.52h-3.65v6.52h3.65v15.25h6.52V57.78H41v15.25h6.52V57.78h4.26v15.25h6.52V57.78h4.26v15.25h6.52
					V57.78h4.26v15.25h6.52V57.78h2.19v-6.52h-2.19V31.74H82.06z M41,51.26h-4.26V31.74H41V51.26z M51.78,51.26h-4.26V31.74h4.26
					V51.26z M62.57,51.26H58.3V31.74h4.26V51.26z M73.35,51.26h-4.26V31.74h4.26V51.26z"/>
			</g>
		</g>
	</g>
	<rect x="84.14" y="3.95" width="6.52" height="69.09"/>
</g>
</svg>
