<?xml version="1.0" encoding="utf-8"?>
<!-- Generator: Adobe Illustrator 28.1.0, SVG Export Plug-In . SVG Version: 6.00 Build 0)  -->
<svg version="1.1" id="Layer_1" xmlns="http://www.w3.org/2000/svg" xmlns:xlink="http://www.w3.org/1999/xlink" x="0px" y="0px"
	 viewBox="0 0 110.6 76.5" style="enable-background:new 0 0 110.6 76.5;" xml:space="preserve">
<style type="text/css">
	.st0{display:none;}
	.st1{display:inline;fill:none;}
	.st2{fill:#808080;}
</style>
<g id="Layer_2_00000073722119373351752270000017113015111246931634_" class="st0">
	<line class="st1" x1="-24.1" y1="74.5" x2="142.1" y2="74.5"/>
	<line class="st1" x1="-24.1" y1="2" x2="142.1" y2="2"/>
</g>
<g>
	<g>
		<path class="st2" d="M2198.7,1892.5c-0.1,0.6-0.2,0.9-0.8,1.1c-0.3,0.1-0.6,0.2-0.8,0.4c-0.1,0.1-0.1,0.2-0.2,0.3
			c0.1,0.1,0.3,0.2,0.4,0.2c0.4,0,0.7-0.1,1.1-0.2c0.1,0.9-0.1,1.1-1,1.3c-3.8,1.1-7.6,2.2-11.4,3.1c-3.3,0.8-7-1.7-7.4-5.1
			c-0.2-1.7-0.4-3.4-0.4-5.1c-0.1-2.1-0.9-4-1.9-5.8c-3.5-6.1-7-12.2-10.5-18.2c-0.6-1-1.2-2.1-1.8-3.1c-0.1-0.3-0.2-0.4,0.1-0.6
			c1.1-0.6,2.2-1.3,3.4-1.9c0.5,0.8,0.9,1.5,1.3,2.3c4,6.9,8,13.9,12,20.8c1,1.8,1.4,3.7,1.3,5.7c-0.1,1.3-0.2,2.6-0.2,3.9
			c0,1.7,1.2,2.9,3,2.9c4.5-0.1,8.9-0.6,13.2-1.8C2198.1,1892.6,2198.4,1892.5,2198.7,1892.5z"/>
		<path class="st2" d="M2154.7,1847.3c0.2,0.3,0.4,0.7,0.6,1c0.5,0.8,1,0.9,1.7,0.4c1.1-0.6,2.2-1.3,3.3-1.9
			c0.8-0.4,1.4-0.4,1.9,0.2c0.6,0.6,0.6,1.3,0.1,2.1c-0.1,0.1-0.1,0.2-0.2,0.4c0.9-0.2,1.6-0.1,2,0.7c0.4,0.8,0.1,1.4-0.4,2.2
			c1.1-0.2,1.8,0,2.2,0.9c0.4,1.1-0.2,1.8-1.2,2.2c0,0.1,0.1,0.1,0.1,0.1c0.2,0,0.4,0,0.6,0c0.7,0,1.4,0.4,1.6,1
			c0.2,0.7,0,1.4-0.7,1.8c-1.6,0.9-3.2,1.9-4.8,2.8c-1.2,0.7-2.5,1.1-3.8,1.3s-2.6,0.6-3.8,1.2c-0.8,0.4-1.2,0.3-1.6-0.5
			c-1.2-2.1-2.4-4.2-3.6-6.3c-0.4-0.6-0.3-1.1,0.2-1.5c2-1.4,3.2-3.4,4.1-5.5c0.4-0.8,0.9-1.6,1.4-2.3
			C2154.4,1847.4,2154.5,1847.4,2154.7,1847.3z"/>
		<path class="st2" d="M2140.8,1831.4c0.9-0.1,1.6-0.2,2.4-0.3c0.1,0,0.3,0,0.4,0.1c2.9,1.3,5.8,2.6,8.6,4c1.5,0.7,2.6,1.9,3.5,3.4
			c1.3,2.2,2.6,4.5,3.9,6.8c0.3,0.5,0.2,0.7-0.3,0.9c-1,0.5-2,1.1-3.1,1.8c-0.5-0.8-0.9-1.6-1.4-2.3c-0.9-1.6-1.8-3.2-2.8-4.7
			c-0.8-1.4-2.1-2.4-3.4-3.4c-2.5-1.9-5-3.9-7.5-5.8C2141.1,1831.7,2141,1831.6,2140.8,1831.4z"/>
	</g>
	<path class="st2" d="M2202.7,1888.8l-4.1,1.2c-0.1,0-0.1,0.2-0.1,0.3l0.2,0.6c0,0.1,0.1,0.2,0.2,0.2l1.4-0.4l3.4,11.1l1.1,1.1
		l0.3-1.5l-3.4-11.1l1.4-0.4c0.1,0,0.1-0.2,0.1-0.3l-0.2-0.6C2202.9,1888.9,2202.8,1888.8,2202.7,1888.8z"/>
</g>
<path d="M44.9,75.2c-0.8,0-1.7-0.3-3.4-1.4c-1.3-0.7-2.7-1.1-4.1-1.2c-1.4-0.2-2.8-0.4-4.1-1.4c-0.8-0.6-1.1-1.2-0.9-1.9
	c0.2-1.1,1.4-1.4,2.6-1.7c0.5-0.1,1-0.3,1.5-0.4c-0.1-0.4-0.1-0.8,0-1.2c-0.2-0.1-0.6-0.2-1-0.3c-1.2-0.3-1.9-0.7-2.3-1.4
	c-0.2-0.5-0.2-1.1,0-1.5c0.2-0.4,0.1-0.9-0.2-1.3c-0.6-1.2-1-2.5-1.1-3.8c0-0.9-0.2-1.7-0.6-2.5c-1.3-2.5-0.7-5.2,1.7-7.3
	c1.5-1.3,1.5-1.3,1.3-2.8c-0.2-1.3,0.4-3.4,1.8-6c0.3-0.6,0.8-1.2,1.4-1.5c0.5-0.3,1.4-1,1.5-1.9c0.3-2-0.1-6.3-1-7.6
	c-0.2-0.3-0.5-0.7-0.8-1c-0.9-1-1.2-1.7-0.3-3.5c0.2-0.3,0.3-0.6,0.4-1c0-0.1-0.1-0.2-0.2-0.3c-0.2-0.2-0.3-0.5-0.6-0.8
	c-0.8-1.3-0.3-2.6,0-3.4c0.2-0.3,0.3-0.7,0.3-1.1c0-0.1-0.2-0.3-0.4-0.5c-0.6-0.5-1.7-1.6-0.6-3.6c0.2-0.3,0.4-0.7,0.5-1
	c-0.1-0.1-0.4-0.4-0.7-0.6l-0.2-0.2c-1-0.8-1.5-1.9-1.6-3.1c-0.1-2.4,1.8-4.3,2-4.5l0.4-0.4l0.6,0.1c0.1,0,8.5,1.2,15,0L52,3.2
	l0.3,0.1c0,0,3.3,1,5.6,0.5c1.9-0.4,2.8,0.3,3.3,0.7c0,0,0.1-0.1,0.2-0.1c0.5-0.3,0.9-0.8,1.2-1.2c0.4-0.7,1.2-1.1,2-1
	c0,0,0.1-0.1,0.1-0.1c0.4-0.4,1.4-1.5,3.2-0.6c0.4,0.2,0.7,0.3,1,0.4c0.9,0.3,1.8,0.7,2,1.6c0.2,0.9-0.3,1.6-0.7,2.2
	C70.1,5.8,70,6,69.9,6.1c0,0,0,0.1,0,0.1c0.2,0.7,0.2,1.4-0.7,2.4c0.7,0.4,1.3,0.9,1.7,1.5c0.2,0.3,0.5,0.6,0.8,0.8
	c0.8,0.5,1.4,1.3,1.7,2.3c0.3,0.9,0.3,1.8,0.2,2.7c0,0.1,0,0.2,0,0.2l0,0c1,1.1,0.5,1.9-0.6,3.4c-0.5,0.6-0.8,1.3-1.1,2
	c0,0,0,0,0.1-0.1c0.8-0.6,2.6-2,3.9-0.5c0.8,0.8,1.1,2,1,3.1c-0.1,0.9-0.5,1.7-1.2,2.3c-0.4,0.3-0.7,0.8-0.9,1.3
	c0.6,0.8,0.8,1.7,0.7,2.6c-0.1,0.8-0.5,1.4-1.1,1.9c0.4,0.3,0.7,0.6,1.1,0.9c1.1,0.8,2.1,1.7,2,2.8c-0.1,0.6-0.4,1.2-0.9,1.6
	c-0.4,0.4-0.6,0.6-0.4,1.2c0.1,0.3,0.2,0.6,0.2,0.8c0.4,1.4,0.7,2.5-0.8,3.8c-0.2,0.2-0.3,0.4-0.3,0.7c0.1,0.3,0.3,0.5,0.6,0.6
	c1.1,0.4,1.7,1.5,1.6,2.9c-0.1,1.7-1.3,3.2-3,3.7c0,0-0.1,0-0.1,0c0,0.5,0.2,0.9,0.5,1.2c0.3,0.4,0.7,0.7,1.2,0.8
	c2-0.3,2.6,1.2,2.9,2c0.3,0.8,0.4,0.8,0.8,0.8c1.3,0,2.3,0.2,2.9,0.9c0.6,0.7,0.9,1.6,0.7,2.5c0,1.9-1.4,2.4-2.1,2.7
	c-0.7,0.3-0.7,0.3-0.7,0.7c0,0.6-0.3,1.2-0.7,1.6c-1.1,0.9-3.2,0.6-5.3,0.1c-1.1-0.2-2.4-0.5-2.9-0.4c-0.8,0.2-1.5,0.5-2.2,1
	c-1.3,0.8-2.7,1.3-4.2,1.5c-1,0.1-1.7,0.8-2.5,1.5c-0.9,0.8-2,1.8-3.5,2c-1,0.2-2,0.5-2.9,1c-1.3,0.6-2.7,1.2-4.1,1
	c-0.6-0.1-1.3,0.5-2,1.1c-0.9,0.7-2,1.6-3.4,1.6c-0.3,0-0.7,0-1,0.1C45.5,75.2,45.2,75.2,44.9,75.2z M35.6,69.9
	c0.7,0.2,1.4,0.3,2.1,0.4c1.8,0.1,3.5,0.7,5,1.5c2,1.2,2.2,1.1,2.7,1c0.5-0.1,1-0.2,1.5-0.2c0.6,0,1.3-0.5,2-1.1
	c1-0.8,2.2-1.7,3.7-1.5c0.8,0.1,1.8-0.4,2.9-0.8c1.1-0.6,2.3-0.9,3.5-1.2c0.9-0.1,1.5-0.7,2.3-1.4c1-0.9,2.1-1.9,3.8-2.1
	c1.2-0.2,2.4-0.6,3.4-1.3c0.9-0.5,1.8-0.9,2.8-1.2c1-0.2,2.4,0.1,3.9,0.3c1,0.2,2.7,0.5,3.3,0.4c0.1-2,1.4-2.5,2.2-2.8
	c0.6-0.2,0.6-0.3,0.6-0.6c0-0.3,0-0.6-0.1-0.8c0,0-0.2-0.2-1.2-0.2c-2,0-2.7-1.4-3-2.2c-0.1-0.2-0.2-0.4-0.3-0.5c0,0-0.1,0-0.2,0
	c-2.1,0.3-4-1.7-4.3-3.6c-0.3-1.3,0.4-2.6,1.7-2.9c0,0,0.1,0,0.1,0c0.5-0.1,0.9-0.6,1.1-1.1c0.1-0.3,0.1-0.7,0-1
	c-1-0.3-1.8-1.2-2.1-2.3c-0.2-1.1,0.2-2.1,1-2.8c0.5-0.4,0.5-0.4,0.1-1.5c-0.1-0.3-0.2-0.6-0.2-0.9c-0.4-1.2,0-2.5,0.9-3.4
	c0-0.1,0.1-0.1,0.2-0.2c-0.2-0.2-0.7-0.6-1-0.8c-1.2-0.9-2.3-1.7-2.2-2.9c0-0.6,0.3-1.2,0.9-1.5c0.2-0.1,0.4-0.4,0.5-0.6
	c0-0.4-0.1-0.7-0.4-1c-1-1.3,0.1-3.5,1.4-4.4c0.2-0.2,0.3-0.4,0.3-0.7c0-0.4-0.1-0.8-0.3-1.2c-0.3,0.2-0.6,0.4-0.9,0.6
	c-0.8,0.7-1.9,1.5-3,0.8c-0.5-0.3-0.8-0.7-0.9-1.3c-0.3-1.5,0.9-3.6,1.7-4.7c0.2-0.2,0.4-0.5,0.5-0.8c-0.4-0.5-0.5-1.2-0.3-1.9
	c0.1-0.5,0.1-1.1-0.1-1.6c-0.1-0.5-0.4-0.9-0.8-1.1c-0.6-0.4-1.1-0.9-1.4-1.5c-0.3-0.3-0.6-0.6-1-0.8c-0.6-0.4-1.3-0.8-1.4-1.7
	c0-0.7,0.3-1.4,0.9-1.8c0.1-0.1,0.2-0.1,0.2-0.2c-0.2-0.7-0.2-1.5,0.7-2.6c0,0,0,0,0,0c-0.1,0-0.2-0.1-0.3-0.1
	c-0.3-0.1-0.7-0.3-1.2-0.5c-0.1-0.1-0.2-0.1-0.4-0.1c0,0-0.1,0.1-0.2,0.2c-0.4,0.6-1.1,0.9-1.8,0.8c0,0-0.1,0.1-0.1,0.1
	c-0.5,0.6-1.1,1.2-1.7,1.7c-1.4,1-2.3,0.6-3,0c-0.3-0.3-0.5-0.4-1.3-0.2c-2.5,0.6-5.6-0.2-6.5-0.5c-5.8,1-12.8,0.3-14.9,0
	c-0.6,0.7-0.9,1.5-1,2.4c0,0.6,0.3,1.1,0.8,1.4L37,9.7c1.7,1.4,2,2.2,0.6,4.5c-0.1,0.1-0.1,0.3-0.2,0.4c0,0,0.2,0.2,0.3,0.3
	c0.6,0.5,1,1.2,1.2,2c0,0.8-0.1,1.5-0.4,2.2c-0.3,0.8-0.4,1-0.2,1.4c0.2,0.3,0.3,0.5,0.4,0.7c0.9,1.2,0.9,1.9,0,3.7
	c-0.1,0.2-0.2,0.5-0.3,0.7c0.1,0.1,0.1,0.1,0.2,0.2c0.4,0.4,0.7,0.8,1,1.3c1.4,2.1,1.6,7.1,1.4,9.2c-0.3,1.5-1.2,2.8-2.5,3.5
	c-0.3,0.2-0.5,0.4-0.6,0.7c-1.1,2-1.7,3.9-1.6,4.6c0.4,2.4-0.1,3.2-2.1,4.9c-1.1,0.9-2.2,2.5-1.2,4.4c0.5,1,0.8,2.2,0.9,3.3
	c0,1,0.3,2,0.8,2.9c0.5,0.8,0.7,1.9,0.4,2.9c0.2,0.1,0.4,0.1,0.7,0.2c1.6,0.5,2.3,0.7,2.6,1.4c0.2,0.4,0.2,0.9,0.1,1.3
	c-0.1,0.2-0.1,0.5,0,0.7c0.1,0.4,0.3,1.6-1.2,2.3C36.8,69.6,36.2,69.8,35.6,69.9L35.6,69.9z"/>
<path d="M59.1,45.2c-0.2,0-0.4,0-0.5-0.1l-3.2-1.7L52.1,45c-0.6,0.3-1.3,0.1-1.6-0.5c-0.1-0.2-0.2-0.5-0.1-0.7l0.6-3.6l-2.6-2.5
	c-0.5-0.4-0.5-1.2,0-1.6c0.2-0.2,0.4-0.3,0.7-0.3l3.6-0.5l1.6-3.3c0.3-0.6,1-0.8,1.5-0.5c0.2,0.1,0.4,0.3,0.5,0.5l1.6,3.3l3.6,0.5
	c0.6,0.1,1.1,0.7,1,1.3c0,0.3-0.2,0.5-0.3,0.7l-2.6,2.5l0.6,3.6c0.1,0.6-0.3,1.2-0.9,1.3C59.2,45.1,59.2,45.2,59.1,45.2z M55.3,40.9
	c0.2,0,0.4,0,0.5,0.1l1.7,0.9L57.2,40c-0.1-0.4,0.1-0.8,0.3-1l1.4-1.3L57,37.4c-0.4-0.1-0.7-0.3-0.9-0.6L55.3,35l-0.8,1.7
	c-0.2,0.3-0.5,0.6-0.9,0.6l-1.9,0.3l1.4,1.3c0.3,0.3,0.4,0.6,0.3,1l-0.3,1.9l1.7-0.9C55,40.9,55.2,40.9,55.3,40.9z"/>
<path d="M70.5,24.3H38.2c-0.6,0-1.2-0.5-1.2-1.2c0-0.6,0.5-1.2,1.2-1.2h32.3c0.6,0,1.2,0.5,1.2,1.2C71.7,23.8,71.2,24.3,70.5,24.3z"
	/>
<path d="M73.9,54.4H32.2c-0.6,0-1.2-0.5-1.2-1.2s0.5-1.2,1.2-1.2h41.7c0.6,0,1.2,0.5,1.2,1.2S74.5,54.4,73.9,54.4z"/>
</svg>
