<?xml version="1.0" encoding="utf-8"?>
<!-- Generator: Adobe Illustrator 28.1.0, SVG Export Plug-In . SVG Version: 6.00 Build 0)  -->
<svg version="1.1" id="Layer_1" xmlns="http://www.w3.org/2000/svg" xmlns:xlink="http://www.w3.org/1999/xlink" x="0px" y="0px"
	 viewBox="0 0 110.55 76.54" style="enable-background:new 0 0 110.55 76.54;" xml:space="preserve">
<style type="text/css">
	.st0{display:none;}
	.st1{display:inline;fill:none;}
</style>
<g id="Layer_2_00000073722119373351752270000017113015111246931634_" class="st0">
	<line class="st1" x1="-24.13" y1="74.54" x2="142.13" y2="74.54"/>
	<line class="st1" x1="-24.13" y1="2" x2="142.13" y2="2"/>
</g>
<g>
	<path d="M67.5,39.33h-6.81V11.08c0-3.59-2.63-6.51-5.86-6.51H53.6c-3.23,0-5.86,2.92-5.86,6.51v28.25h-6.81
		c-3.44,0-6.23,2.83-6.23,6.31v3.8c0,0,0,0.01,0,0.01s0,0.01,0,0.01v23.01c0,0.5,0.4,0.9,0.89,0.9h37.27c0.49,0,0.88-0.4,0.88-0.9
		V45.64C73.74,42.16,70.94,39.33,67.5,39.33z M49.51,11.08c0-2.6,1.83-4.71,4.08-4.71h1.24c2.25,0,4.08,2.11,4.08,4.71v28.25h-9.41
		V11.08L49.51,11.08z M71.97,71.57h-7.44V59.78c0-0.5-0.4-0.9-0.88-0.9c-0.49,0-0.89,0.4-0.89,0.9v11.78h-3.28v-5.44
		c0-0.5-0.4-0.9-0.88-0.9c-0.49,0-0.89,0.4-0.89,0.9v5.44h-2.6l0-11.78c0-0.5-0.4-0.9-0.89-0.9c-0.49,0-0.89,0.4-0.89,0.9v11.78
		h-3.02v-5.44c0-0.5-0.4-0.9-0.89-0.9s-0.88,0.4-0.88,0.9v5.44h-2.86V59.78c0-0.5-0.4-0.9-0.89-0.9c-0.49,0-0.89,0.4-0.89,0.9v11.78
		h-7.44V50.34h35.49L71.97,71.57L71.97,71.57L71.97,71.57z M71.97,48.55H36.47v-2.91c0-2.49,2-4.51,4.46-4.51H67.5
		c2.46,0,4.46,2.03,4.46,4.51L71.97,48.55L71.97,48.55z"/>
	<g>
		<path d="M33.2,11.1c-0.49,0-0.89,0.4-0.89,0.9v2.8c0,0.5,0.4,0.9,0.89,0.9c0.49,0,0.88-0.4,0.88-0.9V12
			C34.08,11.5,33.69,11.1,33.2,11.1z"/>
		<path d="M33.2,18.48c-0.49,0-0.89,0.4-0.89,0.9v2.8c0,0.5,0.4,0.9,0.89,0.9c0.49,0,0.88-0.4,0.88-0.9v-2.8
			C34.08,18.88,33.69,18.48,33.2,18.48z"/>
		<path d="M38.23,16.19h-2.77c-0.49,0-0.89,0.4-0.89,0.9c0,0.5,0.4,0.9,0.89,0.9h2.77c0.49,0,0.89-0.4,0.89-0.9
			C39.12,16.59,38.72,16.19,38.23,16.19z"/>
		<path d="M30.93,16.19h-2.77c-0.49,0-0.89,0.4-0.89,0.9c0,0.5,0.4,0.9,0.89,0.9h2.77c0.49,0,0.88-0.4,0.88-0.9
			C31.82,16.59,31.42,16.19,30.93,16.19z"/>
		<path d="M81.12,35.57c-0.04-0.14-0.11-0.27-0.22-0.38c0,0,0,0,0,0c-0.91-0.93-1.42-2.16-1.42-3.47c0-1.31,0.51-2.55,1.42-3.47
			c0.34-0.35,0.34-0.92,0-1.27c-0.17-0.18-0.4-0.26-0.63-0.26c-0.23,0-0.45,0.09-0.63,0.26c-1.89,1.91-4.97,1.92-6.86,0.01
			c0,0-0.01-0.01-0.01-0.01c-0.26-0.26-0.64-0.33-0.96-0.2c-0.11,0.04-0.2,0.11-0.29,0.2c-0.34,0.35-0.34,0.92,0,1.27
			c0,0,0,0.01,0.01,0.01c0.91,0.93,1.41,2.16,1.41,3.47c0,1.31-0.51,2.54-1.42,3.47c0,0,0,0,0,0c-0.26,0.26-0.32,0.65-0.2,0.97
			c0.04,0.11,0.11,0.21,0.2,0.3c0.17,0.18,0.4,0.26,0.63,0.26c0.08,0,0.16-0.02,0.24-0.04c0.03-0.01,0.06-0.02,0.09-0.03
			c0.11-0.04,0.21-0.11,0.29-0.2c1.9-1.92,4.98-1.92,6.87,0c0.03,0.03,0.06,0.05,0.09,0.07c0.16,0.13,0.35,0.19,0.54,0.19
			c0.17,0,0.34-0.05,0.49-0.15c0.05-0.03,0.1-0.07,0.14-0.12c0.04-0.04,0.08-0.09,0.11-0.14C81.16,36.1,81.19,35.82,81.12,35.57z
			 M74.49,33.46c0.15-0.56,0.23-1.14,0.23-1.74c0-0.6-0.08-1.18-0.23-1.74c0.56,0.15,1.14,0.23,1.72,0.23
			c0.58,0,1.16-0.08,1.72-0.23c-0.15,0.56-0.23,1.14-0.23,1.74c0,0.6,0.08,1.18,0.23,1.74C76.81,33.16,75.62,33.16,74.49,33.46z"/>
	</g>
	<path d="M54.22,15.87c-0.49,0-0.89,0.4-0.89,0.9v13.88c0,0.5,0.4,0.9,0.89,0.9c0.49,0,0.88-0.4,0.88-0.9V16.77
		C55.1,16.27,54.71,15.87,54.22,15.87z"/>
</g>
</svg>
