<?xml version="1.0" encoding="utf-8"?>
<!-- Generator: Adobe Illustrator 28.1.0, SVG Export Plug-In . SVG Version: 6.00 Build 0)  -->
<svg version="1.1" id="Layer_1" xmlns="http://www.w3.org/2000/svg" xmlns:xlink="http://www.w3.org/1999/xlink" x="0px" y="0px"
	 viewBox="0 0 110.55 76.54" style="enable-background:new 0 0 110.55 76.54;" xml:space="preserve">
<style type="text/css">
	.st0{display:none;}
	.st1{display:inline;fill:none;}
	.st2{fill:none;}
	.st3{fill:#FFFFFF;}
	.st4{fill:#808080;}
</style>
<g id="Layer_2_00000073722119373351752270000017113015111246931634_" class="st0">
	<line class="st1" x1="-24.13" y1="74.54" x2="142.13" y2="74.54"/>
	<line class="st1" x1="-24.13" y1="2" x2="142.13" y2="2"/>
</g>
<g>
	<path class="st2" d="M-5240.72,925.05c-1.72,0-3.37,0.3-4.92,0.82l3.29,12.07l2.3,1.28c0.66,0.37,0.9,1.2,0.53,1.86
		c-0.25,0.45-0.71,0.7-1.19,0.7c-0.23,0-0.46-0.06-0.67-0.17l-2.8-1.56c-0.02-0.01-0.04-0.04-0.06-0.05
		c-0.1-0.06-0.19-0.14-0.27-0.23c-0.03-0.04-0.07-0.07-0.1-0.11c-0.08-0.11-0.14-0.24-0.19-0.38c0-0.02-0.02-0.04-0.03-0.06
		c0,0,0,0,0-0.01l-3.34-12.23c-4.72,2.63-7.92,7.66-7.92,13.44c0,8.48,6.9,15.37,15.37,15.37s15.37-6.9,15.37-15.37
		C-5225.34,931.95-5232.24,925.05-5240.72,925.05z"/>
	<path d="M-5339.6,903.64c-6.21,0-11.27,5.06-11.27,11.27v6.37c0,1.15,0.92,2.07,2.07,2.07c1.15,0,2.07-0.92,2.07-2.07v-6.37
		c0-1.53,0.54-2.99,1.3-4.14v33.36c0,1.38,1.15,2.53,2.53,2.53s2.53-1.15,2.53-2.53v-19.25h1.46v19.25c0,1.38,1.15,2.53,2.53,2.53
		s2.53-1.15,2.53-2.53v-33.36c0.84,1.15,1.3,2.61,1.3,4.14v6.37c0,1.15,0.92,2.07,2.07,2.07c1.15,0,2.07-0.92,2.07-2.07v-6.37
		C-5328.32,908.71-5333.39,903.64-5339.6,903.64z"/>
	<path d="M-5339.6,902.19c3.13,0,5.67-2.54,5.67-5.68c0-3.13-2.54-5.67-5.67-5.67c-3.13,0-5.68,2.54-5.68,5.67
		C-5345.27,899.65-5342.73,902.19-5339.6,902.19z"/>
	<path d="M-5307.39,914.92v5.83c1.33-0.33,2.72-0.53,4.14-0.58v-5.25c0.08-6.21-4.98-11.27-11.2-11.27
		c-6.21,0-11.27,5.06-11.27,11.27v6.37c0,1.15,0.92,2.07,2.07,2.07s2.07-0.92,2.07-2.07v-6.37c0-1.53,0.54-2.99,1.3-4.14v19.92
		c2.48-4.51,6.61-7.97,11.58-9.57v-10.34C-5307.85,911.93-5307.39,913.38-5307.39,914.92z"/>
	<path d="M-5314.44,902.19c3.13,0,5.67-2.54,5.67-5.68c0-3.13-2.54-5.67-5.67-5.67s-5.68,2.54-5.68,5.67
		C-5320.12,899.65-5317.58,902.19-5314.44,902.19z"/>
	<path class="st3" d="M-5320.27,944.14c0,0.49,0.15,0.96,0.4,1.35c-0.16-0.55-0.3-1.11-0.4-1.68V944.14z"/>
	<polygon class="st3" points="-5279.08,928.41 -5278.35,930.11 -5278.35,930.11 -5279.08,928.4 	"/>
	<path d="M-5313.75,933.59v10.55c0,1.38,1.15,2.53,2.53,2.53s2.53-1.15,2.53-2.53v-15.35
		C-5310.78,929.9-5312.52,931.57-5313.75,933.59z"/>
	<path class="st3" d="M-5303.56,941.23c-0.04-0.06-0.08-0.11-0.12-0.17c-0.03-0.06-0.06-0.13-0.08-0.19l-0.25,0.37H-5303.56z"/>
	<path d="M-5240.72,922.32c-1.97,0-3.86,0.33-5.64,0.91l-5.1-18.71l10.75-0.01c1.88,0,3.42,1.53,3.42,3.42
		c0,1.88-1.53,3.42-3.42,3.42c-0.76,0-1.37,0.61-1.37,1.37s0.61,1.37,1.37,1.37c3.39,0,6.15-2.76,6.15-6.15
		c0-3.39-2.76-6.15-6.15-6.15l-12.54,0.01c-0.06,0-0.12,0.03-0.18,0.04c-0.06,0.01-0.12,0-0.18,0.01c-0.03,0.01-0.05,0.03-0.08,0.04
		c-0.09,0.03-0.17,0.08-0.25,0.13c-0.07,0.04-0.14,0.08-0.21,0.14c-0.06,0.06-0.11,0.13-0.17,0.2c-0.05,0.07-0.11,0.14-0.14,0.22
		c-0.04,0.08-0.06,0.15-0.08,0.24c-0.03,0.09-0.05,0.18-0.06,0.28c0,0.03-0.02,0.06-0.02,0.09c0,0.06,0.03,0.12,0.04,0.18
		c0.01,0.06-0.01,0.12,0.01,0.18l2.93,10.74h-6.06c-0.17,0.95-0.43,1.86-0.76,2.73h5.31l-14.11,14.11c-0.21,0.88-0.3,1.77-0.24,2.72
		l0.05,1.34l16.9-16.9l1.64,6.04c-5.88,3-9.92,9.09-9.92,16.13c0,9.98,8.12,18.11,18.11,18.11c9.99,0,18.11-8.12,18.11-18.11
		C-5222.61,930.44-5230.73,922.32-5240.72,922.32z M-5240.72,955.8c-8.48,0-15.37-6.9-15.37-15.37c0-5.77,3.2-10.81,7.92-13.44
		l3.34,12.23c0,0,0,0,0,0.01c0.01,0.02,0.02,0.04,0.03,0.06c0.05,0.14,0.11,0.26,0.19,0.38c0.03,0.04,0.07,0.07,0.1,0.11
		c0.08,0.09,0.17,0.17,0.27,0.23c0.02,0.02,0.03,0.04,0.06,0.05l2.8,1.56c0.21,0.12,0.44,0.17,0.67,0.17c0.48,0,0.94-0.25,1.19-0.7
		c0.37-0.66,0.13-1.49-0.53-1.86l-2.3-1.28l-3.29-12.07c1.55-0.52,3.2-0.82,4.92-0.82c8.48,0,15.37,6.9,15.37,15.37
		C-5225.34,948.9-5232.24,955.8-5240.72,955.8z"/>
	<path d="M-5278.84,927.54l-4.55-10.55h11.13c0.75-1.05,1.25-1.93,1.56-2.73h-13.87l-3.56-8.26c1-0.09,1.98-0.18,2.84-0.26
		l-1.14-2.99l0.41-0.3l-9.11-0.82c-3.6-0.19-3.59,5.18,0,4.99c0,0,1.85-0.17,4.14-0.37l3.87,8.97l-6.4,9.48
		c-2.65-1.51-5.7-2.39-8.96-2.39c-0.36,0-0.71,0.01-1.07,0.03c-1.08,0.06-2.13,0.22-3.15,0.47c-0.68,0.16-1.35,0.36-1.99,0.6
		c-1.85,0.68-3.55,1.65-5.06,2.85c-0.51,0.41-1,0.84-1.46,1.29c-2.56,2.53-4.37,5.82-5.06,9.49c-0.21,1.09-0.32,2.22-0.32,3.37
		s0.11,2.28,0.32,3.37c0.11,0.57,0.24,1.13,0.4,1.68c2.19,7.53,9.15,13.05,17.38,13.05c9.52,0,17.33-7.39,18.04-16.74h2.55
		c0.22,0.85,0.59,1.64,1.08,2.35c0.23-1.26,0.74-2.39,1.47-3.33c-0.05-0.27-0.09-0.56-0.09-0.85c0-0.48,0.07-0.95,0.21-1.39
		l-0.08-1.09l-0.03-0.42l-0.21-2.68c-0.85,0.72-1.52,1.63-1.96,2.67c-0.27,0.63-0.46,1.3-0.55,2.01h-2.38
		c-0.39-5.18-2.96-9.76-6.81-12.82l5.42-8.03l4.03,9.35l2.16,5.01c0-1.39,0.2-2.79,0.56-4.18c0,0,0,0,0,0
		C-5279.01,928.12-5278.93,927.83-5278.84,927.54z M-5302.48,955.8c-6.36,0-11.83-3.88-14.16-9.4c-0.78-1.84-1.21-3.86-1.21-5.98
		c0-3.19,0.98-6.16,2.65-8.61c0.44-0.64,0.93-1.24,1.46-1.81c1.42-1.53,3.13-2.77,5.06-3.63c1.9-0.84,4-1.32,6.21-1.32
		c2.69,0,5.23,0.7,7.43,1.93l-8.56,12.68c-0.02,0.04-0.03,0.08-0.05,0.12c-0.04,0.08-0.08,0.17-0.11,0.26
		c-0.03,0.09-0.04,0.17-0.05,0.27c0,0.04-0.03,0.08-0.03,0.13c0,0.04,0.02,0.08,0.03,0.13c0.01,0.09,0.03,0.18,0.05,0.27
		c0,0.02,0.01,0.03,0.02,0.04c0.02,0.07,0.04,0.13,0.08,0.19c0.03,0.06,0.07,0.12,0.12,0.17c0.01,0.01,0.01,0.02,0.02,0.04
		c0.06,0.08,0.12,0.14,0.2,0.2c0.03,0.03,0.05,0.07,0.09,0.09c0.05,0.03,0.1,0.05,0.15,0.07c0.05,0.02,0.09,0.05,0.14,0.06
		c0.15,0.06,0.31,0.1,0.47,0.1h15.3C-5287.88,949.63-5294.47,955.8-5302.48,955.8z M-5299.91,939.06l7.12-10.55
		c3.13,2.55,5.23,6.3,5.61,10.55H-5299.91z"/>
	<path d="M-5262.02,917c0.42-0.88,0.76-1.78,0.98-2.73c0.21-0.89,0.33-1.82,0.33-2.81c0-5.34-3.65-10.33-11.74-10.33
		c-3.24,0-6.7,0.85-9.07,2.19c-0.35,0.2-0.68,0.41-0.98,0.62l0.54,1.42l1.14,3.01c1.76-1.34,4.57-2.18,7.1-2.18
		c4.43,0.07,6.68,2.46,6.68,6.05c0,0.69-0.1,1.37-0.26,2.03c-0.22,0.91-0.59,1.81-1.11,2.73c-0.83,1.5-2.02,3.07-3.55,4.86
		c-1.52,1.83-2.62,3.64-3.35,5.42c-0.37,0.91-0.64,1.81-0.82,2.7c-0.19,0.96-0.28,1.91-0.27,2.83c0.01,0.4,0.03,0.81,0.07,1.2
		l0.12,1.52l0.02,0.31h3.5h1.98l-0.07-1.83c0-0.05,0-0.1-0.01-0.15c-0.06-1.34,0.06-2.61,0.41-3.87c0.25-0.9,0.61-1.8,1.1-2.71
		c0.62-1.16,1.45-2.35,2.5-3.6C-5264.82,921.39-5263.12,919.28-5262.02,917z"/>
	<path d="M-5270.77,942.26c-0.71-0.63-1.63-1-2.73-1c-0.09,0-0.17,0.02-0.25,0.02c-1.37,0.07-2.51,0.72-3.2,1.76
		c-0.16,0.24-0.3,0.49-0.41,0.77c-0.23,0.56-0.35,1.19-0.35,1.87c0,2.46,1.69,4.36,4.15,4.36c0.48,0,0.93-0.07,1.34-0.19
		c1.8-0.54,2.87-2.17,2.87-4.17c0-0.25-0.03-0.49-0.06-0.72C-5269.56,943.84-5270.04,942.91-5270.77,942.26z"/>
</g>
<path class="st4" d="M818.86,1116.07v-0.51c0-1.08-0.87-1.95-1.95-1.95c-1.08,0-1.95,0.87-1.95,1.95v0.51c0,0.79,0,1.52-0.14,2.31
	h-22.84c-0.14-0.79-0.14-1.52-0.14-2.31v-0.51c0-1.08-0.87-1.95-1.95-1.95s-1.95,0.87-1.95,1.95v0.51c0,8.02,4.19,15.18,10.84,19.3
	c-7.23,3.47-10.84,7.66-10.84,12.57c0,4.91,3.69,9.11,10.84,12.57c-6.72,4.12-10.84,11.35-10.84,19.3v0.51
	c0,1.08,0.87,1.95,1.95,1.95s1.95-0.87,1.95-1.95v-0.51c0-0.79,0.07-1.52,0.14-2.31h22.91c0.07,0.79,0.07,1.52,0.07,2.31v0.51
	c0,1.08,0.87,1.95,1.95,1.95c1.08,0,1.95-0.87,1.95-1.95v-0.51c0-8.02-4.19-15.18-10.84-19.3c7.23-3.47,10.84-7.66,10.84-12.57
	c0-4.91-3.69-9.11-10.84-12.57C814.75,1131.24,818.86,1124.09,818.86,1116.07z M814.24,1121.34c-0.43,1.37-0.94,2.67-1.66,3.83
	h-18.36c-0.65-1.23-1.23-2.53-1.66-3.83H814.24z M814.96,1147.94c0,0.65-0.14,1.3-0.36,1.95h-22.4c-0.29-0.65-0.36-1.3-0.36-1.95
	s0.14-1.3,0.36-1.95h22.47C814.89,1146.64,814.96,1147.29,814.96,1147.94z M812.58,1152.85c-2.31,2.24-5.85,4.05-9.18,5.42
	c-3.32-1.3-6.87-3.11-9.18-5.42H812.58z M794.22,1143.02c2.31-2.24,5.85-4.05,9.18-5.42c3.32,1.3,6.87,3.11,9.18,5.42H794.22z
	 M792.56,1174.53c0.43-1.37,0.94-2.67,1.66-3.83h18.36c0.65,1.23,1.23,2.53,1.66,3.83H792.56z M810.48,1167.67h-14.16
	c1.88-2.17,4.26-3.97,7.08-5.13C806.22,1163.69,808.6,1165.5,810.48,1167.67z M803.4,1133.41c-2.82-1.23-5.2-2.96-7.08-5.13h14.16
	C808.6,1130.38,806.22,1132.18,803.4,1133.41z"/>
<g>
	<path class="st2" d="M68.03,39.18c-0.23-0.48-0.38-1-0.47-1.53c-0.13-0.73,0.39-1.27,1.12-1.18c0.35,0.04,0.72,0.15,1.04,0.3
		c2.9,1.42,5.94,2.43,9.1,3.04c1.51,0.29,3.04,0.44,4.59,0.32c1.04-0.08,2.02-0.31,2.9-0.89c0.49-0.33,0.92-0.71,1.07-1.33
		c0.07-0.28,0-0.46-0.22-0.64c-0.47-0.39-0.94-0.78-1.36-1.22c-1.03-1.07-1.19-2.39-0.48-3.69c0.14-0.26,0.31-0.5,0.45-0.72
		c-0.27-0.19-0.56-0.34-0.79-0.57c-0.65-0.66-1.3-1.32-1.89-2.03c-1.04-1.23-1.6-2.68-1.82-4.27c-0.12-0.84,0.22-1.26,1.07-1.38
		c-0.09-0.25-0.13-0.51-0.26-0.72c-0.91-1.5-2-2.85-3.5-3.8c-0.97-0.61-2.04-0.94-3.14-1.19c-1.29-0.3-2.59-0.35-3.9-0.21
		c-0.49,0.05-0.87,0.25-1.17,0.67c-1.29,1.86-2.75,3.57-4.27,5.24c-1.18,1.3-2.41,2.54-3.95,3.42c-0.86,0.49-1.74,0.96-2.79,0.66
		c-0.04,0.07-0.07,0.12-0.09,0.17c-0.54,1.45-1.09,2.9-1.62,4.35c-0.52,1.41-0.92,2.86-1,4.37c-0.14,2.5,0.48,4.81,1.79,6.97
		c1.74,2.87,4.2,4.86,7.25,6.17c1.56,0.67,3.2,1.07,4.87,1.34c-0.96-1.43-1.03-3.02-0.22-4.79c0.01-0.02,0.01-0.03,0.02-0.04
		c0.21-0.41,0.44-0.76,0.72-1.07c-0.27-0.46-0.54-0.92-0.8-1.39C69.45,42.13,68.74,40.65,68.03,39.18z M71.61,25.56
		c0.6-0.54,1.31-0.84,2.1-0.95c0.38-0.05,0.74,0.06,1.02,0.29c0.76,0.61,1.25,1.39,1.38,2.36c0.12,0.93-0.46,1.59-1.46,1.74
		c-0.22,0.03-0.44,0.03-0.66,0.05c-0.01,0.02-0.01,0.04-0.02,0.07c-0.61-0.15-1.23-0.25-1.81-0.47
		C70.81,28.13,70.54,26.54,71.61,25.56z"/>
	<path class="st2" d="M71.05,39.67c-0.02,0.02-0.04,0.05-0.06,0.07c0.34,0.71,1.31,2.46,2.14,3.9c0.37-0.11,0.77-0.16,1.14-0.19
		c0.73-0.05,1.28-0.69,1.23-1.42c-0.02-0.27-0.03-0.52-0.02-0.74c0-0.11,0-0.22,0.01-0.32c-1.15-0.29-2.87-0.76-3.29-0.9
		C71.81,39.94,71.43,39.8,71.05,39.67z M75.48,41.28L75.48,41.28L75.48,41.28L75.48,41.28L75.48,41.28L75.48,41.28z"/>
	<path class="st2" d="M81.68,42.04c-0.54-0.06-1.09-0.12-1.63-0.19c-0.37,0.55-0.93,1.3-1.2,1.25c-0.26-0.06-0.39-0.88-0.46-1.49
		c-0.3-0.05-0.6-0.11-0.91-0.17c0.01,0.49,0.07,1.17,0.21,2.03l-0.01-0.01c0.01,0.04,0.01,0.08,0.02,0.11
		c0.01,0.2,0.01,0.37-0.02,0.54c-0.02,0.12-0.05,0.24-0.09,0.34c0,0,0,0,0,0.01c-0.06,0.43-0.35,0.72-0.88,0.86
		c-0.36,0.1-1.2,0.16-2.49,0.2c-0.09,0-0.19,0.01-0.29,0.01c-0.14,0.03-0.33,0.09-0.57,0.19c-0.01,0.01-0.02,0.01-0.03,0.01
		c-0.48,0.18-0.87,0.55-1.18,1.11c-0.01,0.02-0.03,0.05-0.04,0.07c-0.58,1.28-0.38,2.43,0.59,3.42c0.08,0.08,0.17,0.15,0.26,0.21
		c0.13,0.08,0.26,0.16,0.39,0.22c0.55,0.28,1.04,0.37,1.47,0.29c0.01,0,0.02-0.01,0.03-0.01c0.41-0.07,1.03-0.59,1.86-1.55
		c0.05-0.06,0.11-0.11,0.17-0.16c0.02-0.02,0.05-0.03,0.07-0.05c0.25-0.17,0.51-0.25,0.78-0.25c0.27,0,0.54,0.08,0.83,0.25
		c0.02,0.02,0.04,0.03,0.07,0.04c0.06,0.04,0.12,0.08,0.16,0.13l0.95,0.93l2.21,2.15l4.53,4.41l2.16,2.1l2.78,2.71
		c0.02,0.02,0.03,0.04,0.05,0.06c0.23,0.26,0.39,0.52,0.49,0.79c0.09,0.25,0.13,0.5,0.11,0.74c-0.01,0.07-0.02,0.15-0.04,0.21
		c-0.26,0.91-0.45,1.7-0.58,2.35c-0.05,0.25-0.09,0.48-0.12,0.69c-0.19,0.66,0.24,1.5,0.8,2.03c0.08,0.07,0.16,0.14,0.24,0.2
		c0.07,0.05,0.14,0.1,0.22,0.13c0.83,0.41,1.63,0.46,2.4,0.14c0.56-0.28,0.97-0.74,1.22-1.38c0.06-0.15,0.11-0.31,0.15-0.48v-0.01
		c0.08-0.32,0.09-0.71,0.06-1.19c-0.01-0.03-0.01-0.06-0.01-0.09c0-0.17-0.08-0.55-0.23-1.14c-0.07-0.28-0.15-0.6-0.26-0.96
		c-0.01-0.03-0.02-0.07-0.03-0.11c-0.08-0.48,0.04-0.87,0.37-1.18c0.22-0.21,0.52-0.3,0.82-0.27c0,0,0.01,0,0.01,0
		c0.95,0.13,1.78,0.17,2.49,0.11c1.55-0.13,2.55-0.71,3.01-1.75c0.01-0.01,0.01-0.02,0.01-0.03c0.71-1.5,0.33-2.92-1.15-4.25
		c-1.43-1.24-3.75-0.81-4.67,0.31c-0.15,0.18-0.26,0.38-0.33,0.6c-0.3,0.47-0.92,0.61-1.39,0.32c-0.75-0.47-1.51-1.11-2.29-1.92
		c-0.03-0.03-0.06-0.06-0.09-0.09c-2.59-2.56-4.58-4.56-5.98-5.99c-1.4-1.43-2.2-2.3-2.41-2.61c-0.08-0.12-0.14-0.23-0.18-0.35
		c-0.29-0.49-0.46-1.01-0.52-1.57c0-0.13,0-0.26,0-0.39c0.07-0.77,0.11-1.45,0.14-2.03c0.01-0.18,0.02-0.35,0.02-0.51
		C82.83,42.16,81.93,42.06,81.68,42.04z"/>
	<path class="st2" d="M70.82,53.35c-2.72-0.21-5.24-1.06-7.64-2.28c-2.32-1.18-4.24-2.85-5.84-4.9c-1.57-2-2.67-4.2-3.04-6.74
		c-0.1-0.71-0.18-1.42-0.28-2.19c-0.27,0.21-0.52,0.41-0.76,0.6c-0.6,0.47-1.18,0.97-1.81,1.4c-0.53,0.37-1.12,0.66-1.69,0.98
		c-0.52,0.29-0.93,0.69-1.11,1.26c-0.24,0.77-0.46,1.56-0.63,2.35c-0.13,0.6,0.12,0.98,0.68,1.23c0.22,0.1,0.39,0.07,0.54-0.14
		c0.18-0.26,0.39-0.49,0.61-0.72c0.32-0.33,0.78-0.43,1.12-0.25c0.33,0.17,0.49,0.54,0.38,1.02c-0.33,1.38-0.43,2.77-0.38,4.18
		C51,49.85,51,49.85,51.68,50c0.63,0.14,0.91,0.53,0.81,1.16c-0.26,1.59-0.51,3.19-0.81,4.78c-0.55,2.95-1.33,5.85-2.32,8.69
		c-0.31,0.9-0.62,1.8-0.95,2.7c-0.09,0.25-0.02,0.43,0.21,0.51c0.43,0.15,0.86,0.36,1.3,0.4c0.99,0.1,1.98,0.12,2.97,0.15
		c2.37,0.06,4.75,0.02,7.11,0.16c2.29,0.13,4.57,0.42,6.85,0.68c1.85,0.21,3.68,0.56,5.47,1.11c1.09,0.34,2.2,0.56,3.36,0.5
		c1.61-0.08,2.96-0.75,3.9-2.04c1.03-1.41,1.2-3.01,0.69-4.67c-0.23-0.75-0.71-1.32-1.47-1.62c-1.51-0.6-3.02-0.51-4.5,0.08
		c-0.75,0.3-1.48,0.39-2.26,0.25c-1.04-0.19-2.09-0.38-3.14-0.48c-2.1-0.2-4.21-0.34-6.32-0.5c-1.65-0.13-3.29-0.29-4.95-0.37
		c-0.91-0.05-1.83,0.04-2.75,0.06c-0.3,0.01-0.5-0.14-0.64-0.4c-0.36-0.68,0.04-1.56,0.85-1.83c1.15-0.38,2.34-0.46,3.54-0.39
		c1.34,0.08,2.67,0.2,4,0.32c2.18,0.2,4.36,0.42,6.54,0.62c1.22,0.11,2.44,0.3,3.66,0.11c1.04-0.16,2.06-0.39,3.09-0.59
		c0.28-0.05,0.57-0.14,0.85-0.12c0.21,0.01,0.29-0.06,0.37-0.22c0.21-0.45,0.43-0.9,0.64-1.34c0.3-0.63,0.63-1.24,0.9-1.88
		c0.35-0.83,0.5-1.72,0.62-2.61c0.06-0.41,0.06-0.41-0.35-0.5c-0.69-0.15-1.39-0.3-2.04-0.57c-0.6,0.49-1.17,0.79-1.68,0.88
		c-0.01,0.01-0.01,0.01-0.02,0.01h-0.01c-0.38,0.07-0.78,0.08-1.18,0.03C73,53.35,71.92,53.44,70.82,53.35z"/>
	<path class="st2" d="M89.04,33.9c0.23-0.04,0.45-0.09,0.66-0.14c0,0,0.01,0,0.01,0c0.16,0,0.3-0.05,0.41-0.14
		c0.53-0.2,0.86-0.44,0.82-0.64c-0.05-0.32-0.99-0.43-2.1-0.24c-1.11,0.19-1.96,0.6-1.9,0.92S87.93,34.09,89.04,33.9z"/>
	<path class="st2" d="M46.97,55.47c-1.1-1.32-1.73-2.86-1.98-4.54c-0.42-2.74-0.17-5.43,0.61-8.08c0.18-0.61,0.37-1.22,0.58-1.92
		c-0.75,0.15-1.43,0.29-2.1,0.44c-0.09,0.02-0.19,0.13-0.22,0.22c-0.72,1.8-1.05,3.69-1.17,5.61c-0.1,1.55,0.22,3.07,0.43,4.59
		c0.19,1.34,0.43,2.68,0.36,4.04c-0.12,2.14-0.94,3.96-2.46,5.46c-0.63,0.63-1.32,1.19-2.13,1.61c0.43,0.34,0.85,0.65,1.07,1.16
		c0.23,0.53,0.27,1.09,0.27,1.66c0,0.24,0.09,0.31,0.32,0.31c1.52,0,3.04,0.02,4.56,0.02c0.93,0,0.94-0.02,1.24-0.9
		c0.37-1.07,0.77-2.14,1.1-3.23c0.47-1.55,0.9-3.11,1.31-4.56C48.1,56.67,47.5,56.1,46.97,55.47z"/>
	<path class="st2" d="M82.1,18.88c0.16-3.24-0.18-6.39-1.08-9.5c-1.27,2.05-2.13,4.29-3.1,6.53C79.62,16.49,80.96,17.54,82.1,18.88z
		"/>
	<path class="st2" d="M62.15,23.38c0.87-0.85,1.73-1.7,2.55-2.59c1.16-1.25,2.27-2.54,3.43-3.78c0.24-0.25,0.31-0.47,0.24-0.79
		c-0.4-1.74-0.89-3.46-1.59-5.11c-0.48-1.13-1.11-2.18-1.81-3.19c-0.31-0.45-0.48-0.46-0.74,0.01c-0.41,0.75-0.87,1.5-1.12,2.31
		c-0.72,2.35-1.37,4.71-2,7.08c-0.24,0.89-0.38,1.81-0.53,2.58c0.07,1.26,0.29,2.33,0.81,3.32C61.6,23.64,61.83,23.7,62.15,23.38z"
		/>
	<path d="M72.17,28.65c0.58,0.22,1.21,0.32,1.81,0.47c0.01-0.02,0.01-0.04,0.02-0.07c0.22-0.01,0.44-0.01,0.66-0.05
		c1-0.15,1.57-0.81,1.46-1.74c-0.12-0.97-0.62-1.76-1.38-2.36c-0.29-0.23-0.64-0.34-1.02-0.29c-0.8,0.11-1.51,0.41-2.1,0.95
		C70.54,26.54,70.81,28.13,72.17,28.65z"/>
	<polygon points="75.48,41.28 75.48,41.29 75.48,41.28 	"/>
	<rect x="75.48" y="41.28" transform="matrix(0.057 -0.9984 0.9984 0.057 29.9536 114.2838)" class="st3" width="0" height="0"/>
	<g>
		<path class="st2" d="M68.03,39.18c-0.23-0.48-0.38-1-0.47-1.53c-0.13-0.73,0.39-1.27,1.12-1.18c0.35,0.04,0.72,0.15,1.04,0.3
			c2.9,1.42,5.94,2.43,9.1,3.04c1.51,0.29,3.04,0.44,4.59,0.32c1.04-0.08,2.02-0.31,2.9-0.89c0.49-0.33,0.92-0.71,1.07-1.33
			c0.07-0.28,0-0.46-0.22-0.64c-0.47-0.39-0.94-0.78-1.36-1.22c-1.03-1.07-1.19-2.39-0.48-3.69c0.14-0.26,0.31-0.5,0.45-0.72
			c-0.27-0.19-0.56-0.34-0.79-0.57c-0.65-0.66-1.3-1.32-1.89-2.03c-1.04-1.23-1.6-2.68-1.82-4.27c-0.12-0.84,0.22-1.26,1.07-1.38
			c-0.09-0.25-0.13-0.51-0.26-0.72c-0.91-1.5-2-2.85-3.5-3.8c-0.97-0.61-2.04-0.94-3.14-1.19c-1.29-0.3-2.59-0.35-3.9-0.21
			c-0.49,0.05-0.87,0.25-1.17,0.67c-1.29,1.86-2.75,3.57-4.27,5.24c-1.18,1.3-2.41,2.54-3.95,3.42c-0.86,0.49-1.74,0.96-2.79,0.66
			c-0.04,0.07-0.07,0.12-0.09,0.17c-0.54,1.45-1.09,2.9-1.62,4.35c-0.52,1.41-0.92,2.86-1,4.37c-0.14,2.5,0.48,4.81,1.79,6.97
			c1.74,2.87,4.2,4.86,7.25,6.17c1.56,0.67,3.2,1.07,4.87,1.34c-0.96-1.43-1.03-3.02-0.22-4.79c0.01-0.02,0.01-0.03,0.02-0.04
			c0.21-0.41,0.44-0.76,0.72-1.07c-0.27-0.46-0.54-0.92-0.8-1.39C69.45,42.13,68.74,40.65,68.03,39.18z"/>
		<path class="st2" d="M71.05,39.67c-0.02,0.02-0.04,0.05-0.06,0.07c0.34,0.71,1.31,2.46,2.14,3.9c0.37-0.11,0.77-0.16,1.14-0.19
			c0.73-0.05,1.28-0.69,1.23-1.42c-0.02-0.27-0.03-0.52-0.02-0.74c0-0.11,0-0.22,0.01-0.32c-1.15-0.29-2.87-0.76-3.29-0.9
			C71.81,39.94,71.43,39.8,71.05,39.67z"/>
		<path class="st2" d="M81.68,42.04c-0.54-0.06-1.09-0.12-1.63-0.19c-0.37,0.55-0.93,1.3-1.2,1.25c-0.26-0.06-0.39-0.88-0.46-1.49
			c-0.3-0.05-0.6-0.11-0.91-0.17c0.01,0.49,0.07,1.17,0.21,2.03l-0.01-0.01c0.01,0.04,0.01,0.08,0.02,0.11
			c0.01,0.2,0.01,0.37-0.02,0.54c-0.02,0.12-0.05,0.24-0.09,0.34c0,0,0,0,0,0.01c-0.06,0.43-0.35,0.72-0.88,0.86
			c-0.36,0.1-1.2,0.16-2.49,0.2c-0.09,0-0.19,0.01-0.29,0.01c-0.14,0.03-0.33,0.09-0.57,0.19c-0.01,0.01-0.02,0.01-0.03,0.01
			c-0.48,0.18-0.87,0.55-1.18,1.11c-0.01,0.02-0.03,0.05-0.04,0.07c-0.58,1.28-0.38,2.43,0.59,3.42c0.08,0.08,0.17,0.15,0.26,0.21
			c0.13,0.08,0.26,0.16,0.39,0.22c0.55,0.28,1.04,0.37,1.47,0.29c0.01,0,0.02-0.01,0.03-0.01c0.41-0.07,1.03-0.59,1.86-1.55
			c0.05-0.06,0.11-0.11,0.17-0.16c0.02-0.02,0.05-0.03,0.07-0.05c0.25-0.17,0.51-0.25,0.78-0.25c0.27,0,0.54,0.08,0.83,0.25
			c0.02,0.02,0.04,0.03,0.07,0.04c0.06,0.04,0.12,0.08,0.16,0.13l0.95,0.93l2.21,2.15l4.53,4.41l2.16,2.1l2.78,2.71
			c0.02,0.02,0.03,0.04,0.05,0.06c0.23,0.26,0.39,0.52,0.49,0.79c0.09,0.25,0.13,0.5,0.11,0.74c-0.01,0.07-0.02,0.15-0.04,0.21
			c-0.26,0.91-0.45,1.7-0.58,2.35c-0.05,0.25-0.09,0.48-0.12,0.69c-0.19,0.66,0.24,1.5,0.8,2.03c0.08,0.07,0.16,0.14,0.24,0.2
			c0.07,0.05,0.14,0.1,0.22,0.13c0.83,0.41,1.63,0.46,2.4,0.14c0.56-0.28,0.97-0.74,1.22-1.38c0.06-0.15,0.11-0.31,0.15-0.48v-0.01
			c0.08-0.32,0.09-0.71,0.06-1.19c-0.01-0.03-0.01-0.06-0.01-0.09c0-0.17-0.08-0.55-0.23-1.14c-0.07-0.28-0.15-0.6-0.26-0.96
			c-0.01-0.03-0.02-0.07-0.03-0.11c-0.08-0.48,0.04-0.87,0.37-1.18c0.22-0.21,0.52-0.3,0.82-0.27c0,0,0.01,0,0.01,0
			c0.95,0.13,1.78,0.17,2.49,0.11c1.55-0.13,2.55-0.71,3.01-1.75c0.01-0.01,0.01-0.02,0.01-0.03c0.71-1.5,0.33-2.92-1.15-4.25
			c-1.43-1.24-3.75-0.81-4.67,0.31c-0.15,0.18-0.26,0.38-0.33,0.6c-0.3,0.47-0.92,0.61-1.39,0.32c-0.75-0.47-1.51-1.11-2.29-1.92
			c-0.03-0.03-0.06-0.06-0.09-0.09c-2.59-2.56-4.58-4.56-5.98-5.99c-1.4-1.43-2.2-2.3-2.41-2.61c-0.08-0.12-0.14-0.23-0.18-0.35
			c-0.29-0.49-0.46-1.01-0.52-1.57c0-0.13,0-0.26,0-0.39c0.07-0.77,0.11-1.45,0.14-2.03c0.01-0.18,0.02-0.35,0.02-0.51
			C82.83,42.16,81.93,42.06,81.68,42.04z"/>
		<path class="st2" d="M70.82,53.35c-2.72-0.21-5.24-1.06-7.64-2.28c-2.32-1.18-4.24-2.85-5.84-4.9c-1.57-2-2.67-4.2-3.04-6.74
			c-0.1-0.71-0.18-1.42-0.28-2.19c-0.27,0.21-0.52,0.41-0.76,0.6c-0.6,0.47-1.18,0.97-1.81,1.4c-0.53,0.37-1.12,0.66-1.69,0.98
			c-0.52,0.29-0.93,0.69-1.11,1.26c-0.24,0.77-0.46,1.56-0.63,2.35c-0.13,0.6,0.12,0.98,0.68,1.23c0.22,0.1,0.39,0.07,0.54-0.14
			c0.18-0.26,0.39-0.49,0.61-0.72c0.32-0.33,0.78-0.43,1.12-0.25c0.33,0.17,0.49,0.54,0.38,1.02c-0.33,1.38-0.43,2.77-0.38,4.18
			C51,49.85,51,49.85,51.68,50c0.63,0.14,0.91,0.53,0.81,1.16c-0.26,1.59-0.51,3.19-0.81,4.78c-0.55,2.95-1.33,5.85-2.32,8.69
			c-0.31,0.9-0.62,1.8-0.95,2.7c-0.09,0.25-0.02,0.43,0.21,0.51c0.43,0.15,0.86,0.36,1.3,0.4c0.99,0.1,1.98,0.12,2.97,0.15
			c2.37,0.06,4.75,0.02,7.11,0.16c2.29,0.13,4.57,0.42,6.85,0.68c1.85,0.21,3.68,0.56,5.47,1.11c1.09,0.34,2.2,0.56,3.36,0.5
			c1.61-0.08,2.96-0.75,3.9-2.04c1.03-1.41,1.2-3.01,0.69-4.67c-0.23-0.75-0.71-1.32-1.47-1.62c-1.51-0.6-3.02-0.51-4.5,0.08
			c-0.75,0.3-1.48,0.39-2.26,0.25c-1.04-0.19-2.09-0.38-3.14-0.48c-2.1-0.2-4.21-0.34-6.32-0.5c-1.65-0.13-3.29-0.29-4.95-0.37
			c-0.91-0.05-1.83,0.04-2.75,0.06c-0.3,0.01-0.5-0.14-0.64-0.4c-0.36-0.68,0.04-1.56,0.85-1.83c1.15-0.38,2.34-0.46,3.54-0.39
			c1.34,0.08,2.67,0.2,4,0.32c2.18,0.2,4.36,0.42,6.54,0.62c1.22,0.11,2.44,0.3,3.66,0.11c1.04-0.16,2.06-0.39,3.09-0.59
			c0.28-0.05,0.57-0.14,0.85-0.12c0.21,0.01,0.29-0.06,0.37-0.22c0.21-0.45,0.43-0.9,0.64-1.34c0.3-0.63,0.63-1.24,0.9-1.88
			c0.35-0.83,0.5-1.72,0.62-2.61c0.06-0.41,0.06-0.41-0.35-0.5c-0.69-0.15-1.39-0.3-2.04-0.57c-0.6,0.49-1.17,0.79-1.68,0.88
			c-0.01,0.01-0.01,0.01-0.02,0.01h-0.01c-0.38,0.07-0.78,0.08-1.18,0.03C73,53.35,71.92,53.44,70.82,53.35z"/>
		<path class="st2" d="M80.16,58.63c-0.29,0.62-0.28,0.63-0.57,1.28c0.28,0.14,0.59,0.25,0.86,0.43c0.95,0.63,1.61,1.51,2.05,2.56
			c0.38,0.91,0.52,1.87,0.57,2.85c0.01,0.21,0.08,0.3,0.31,0.3c2.01-0.01,4.02-0.03,6.03-0.07c0.13-0.77,0.34-1.68,0.64-2.75
			c-0.01-0.02-0.03-0.04-0.04-0.07l-3.8-3.7c-0.79-0.04-1.58-0.17-2.37-0.26C82.59,59.07,80.19,58.56,80.16,58.63z"/>
		<path class="st2" d="M89.04,33.9c0.23-0.04,0.45-0.09,0.66-0.14c0,0,0.01,0,0.01,0c0.16,0,0.3-0.05,0.41-0.14
			c0.53-0.2,0.86-0.44,0.82-0.64c-0.05-0.32-0.99-0.43-2.1-0.24c-1.11,0.19-1.96,0.6-1.9,0.92S87.93,34.09,89.04,33.9z"/>
		<path class="st2" d="M83.59,56.92l-2.11-2.05c-0.12,0.57-0.23,1.1-0.24,1.45C81.23,56.61,82.72,56.82,83.59,56.92z"/>
		<path class="st2" d="M46.97,55.47c-1.1-1.32-1.73-2.86-1.98-4.54c-0.42-2.74-0.17-5.43,0.61-8.08c0.18-0.61,0.37-1.22,0.58-1.92
			c-0.75,0.15-1.43,0.29-2.1,0.44c-0.09,0.02-0.19,0.13-0.22,0.22c-0.72,1.8-1.05,3.69-1.17,5.61c-0.1,1.55,0.22,3.07,0.43,4.59
			c0.19,1.34,0.43,2.68,0.36,4.04c-0.12,2.14-0.94,3.96-2.46,5.46c-0.63,0.63-1.32,1.19-2.13,1.61c0.43,0.34,0.85,0.65,1.07,1.16
			c0.23,0.53,0.27,1.09,0.27,1.66c0,0.24,0.09,0.31,0.32,0.31c1.52,0,3.04,0.02,4.56,0.02c0.93,0,0.94-0.02,1.24-0.9
			c0.37-1.07,0.77-2.14,1.1-3.23c0.47-1.55,0.9-3.11,1.31-4.56C48.1,56.67,47.5,56.1,46.97,55.47z"/>
		<path class="st2" d="M82.1,18.88c0.16-3.24-0.18-6.39-1.08-9.5c-1.27,2.05-2.13,4.29-3.1,6.53C79.62,16.49,80.96,17.54,82.1,18.88
			z"/>
		<path class="st2" d="M62.15,23.38c0.87-0.85,1.73-1.7,2.55-2.59c1.16-1.25,2.27-2.54,3.43-3.78c0.24-0.25,0.31-0.47,0.24-0.79
			c-0.4-1.74-0.89-3.46-1.59-5.11c-0.48-1.13-1.11-2.18-1.81-3.19c-0.31-0.45-0.48-0.46-0.74,0.01c-0.41,0.75-0.87,1.5-1.12,2.31
			c-0.72,2.35-1.37,4.71-2,7.08c-0.24,0.89-0.38,1.81-0.53,2.58c0.07,1.26,0.29,2.33,0.81,3.32C61.6,23.64,61.83,23.7,62.15,23.38z"
			/>
		<path class="st2" d="M19.51,59.77c-0.15,0-0.24,0-0.34,0c-1.9,0-3.74-0.38-5.54-0.98c-0.37-0.12-0.64-0.07-0.91,0.16
			c-0.81,0.71-1.64,1.41-2.43,2.14c-0.53,0.49-0.52,0.58-0.04,1.09c1.4,1.5,3.05,2.63,5.02,3.25c1.42,0.45,2.88,0.56,4.36,0.61
			c0.6,0.02,1.2,0,1.89,0C20.05,64.17,19.43,62.1,19.51,59.77z"/>
		<path class="st2" d="M36.19,65.27c-0.48-0.03-0.85-0.38-0.97-0.88c-0.11-0.47,0.04-0.95,0.45-1.14c0.52-0.24,0.8-0.67,1.03-1.14
			c1.02-2.11,1.12-4.28,0.31-6.48c-0.31-0.83-0.76-1.59-1.41-2.2c-0.34-0.32-0.46-0.32-0.72,0.07c-1.22,1.88-2.68,3.56-4.23,5.15
			c-1.96,2.02-4.1,3.84-6.37,5.5c-0.26,0.19-0.51,0.39-0.82,0.62c0.73,0.59,1.32,1.26,2.33,1.26c2.74-0.01,5.49,0.02,8.23,0.02
			c1.1,0,2.2-0.02,3.3-0.05c0.11,0,0.28-0.06,0.32-0.15c0.08-0.16,0.08-0.35,0.11-0.54c-0.06,0-0.1-0.01-0.13-0.01
			C37.15,65.3,36.67,65.3,36.19,65.27z"/>
		<path d="M102.83,54.87L102.83,54.87c-1.43-1.27-4.59-1.98-7.01-0.47c-0.52,0.33-1.21,0.24-1.64-0.21c0,0,0,0-0.01-0.01
			c-0.01-0.01-0.02-0.02-0.03-0.03c-4.75-4.7-7.44-7.43-8.05-8.18c-0.03-0.08-0.06-0.16-0.11-0.23c-0.15-0.22-0.25-0.45-0.3-0.69
			c-0.02-0.11-0.02-0.23-0.01-0.34c0.09-1.11,0.14-2.06,0.14-2.85c1.41-0.45,2.67-1.22,3.67-2.34c1.12-1.24,2.05-2.62,2.8-4.11
			c0.55-1.09,0.67-2.72-0.05-3.71c-0.64-0.87-1.6-1.04-2.77-1.15c-1.32-0.13-2.42-0.77-3.43-1.61c-0.27-0.22-0.4-0.48-0.43-0.83
			c-0.17-1.89-0.54-3.74-1.2-5.53c-0.07-0.2-0.12-0.43-0.11-0.64c0.07-0.97,0.21-1.94,0.26-2.91c0.15-2.86-0.08-5.7-0.74-8.49
			c-0.23-0.96-0.54-1.91-0.87-2.84c-0.17-0.5-0.48-0.95-0.96-1.22c-0.71-0.4-1.5-0.23-2.11,0.47c-0.45,0.52-0.85,1.08-1.23,1.65
			c-1.22,1.86-2.34,3.79-3.19,5.85c-0.23,0.55-0.23,0.53-0.82,0.5c-0.78-0.03-1.57-0.05-2.35-0.03c-0.43,0.01-0.85,0.1-1.28,0.16
			c-0.24,0.03-0.38-0.01-0.41-0.29c-0.02-0.23-0.09-0.45-0.15-0.67c-0.63-2.36-1.5-4.64-2.77-6.74c-0.42-0.69-0.87-1.38-1.43-1.96
			c-1.07-1.11-2.44-1.03-3.43,0.15c-0.37,0.44-0.69,0.92-0.97,1.42c-0.83,1.5-1.43,3.1-1.98,4.72c-0.94,2.77-1.53,5.62-1.94,8.51
			c-0.27,1.97-0.57,3.94-1.08,5.86c-0.66,2.46-1.49,4.86-2.4,7.23c-0.3,0.78-0.75,1.44-1.38,2c-1.36,1.22-2.88,2.16-4.65,2.63
			c-1.46,0.39-2.94,0.7-4.42,0.99c-2.63,0.52-5.24,1.09-7.77,1.97c-2.26,0.79-4.46,1.69-6.49,2.98c-2.14,1.36-4.03,2.99-5.62,4.97
			c-1.98,2.47-3.38,5.24-4.18,8.31c-0.04,0.15-0.11,0.18-0.24,0.16c-0.93-0.09-1.87-0.11-2.79-0.27c-1.87-0.32-3.44-1.18-4.6-2.72
			c-0.73-0.97-1.16-2.03-1.04-3.28c0.02-0.25,0.11-0.37,0.37-0.4c0.62-0.08,0.99-0.47,1.16-1.05c0.26-0.87-0.36-1.81-1.38-1.63
			c-0.36,0.06-0.74,0.21-1.05,0.42c-1.39,0.91-2.34,2.22-3.11,3.65c-1.17,2.19-1.56,4.52-1.08,6.97c0.78,4.03,3.99,7.21,7.82,8.51
			c2.17,0.74,4.48,0.86,6.75,0.87c2.27,0.01,4.52,0.09,6.79,0.17c4.89,0.17,9.83-0.01,14.73-0.02c0.84,0,1.69,0,2.53,0
			c0.25,0,0.5,0,0.75,0.02c0.1,0.01,0.23,0.07,0.28,0.15c0.57,0.93,1.42,1.43,2.45,1.72c1.1,0.31,2.21,0.42,3.35,0.44
			c2.42,0.04,4.84,0.06,7.26,0.13c2.84,0.08,5.66,0.38,8.48,0.8c1.46,0.22,2.9,0.5,4.3,0.96c1.8,0.59,3.66,0.76,5.52,0.4
			c1.68-0.33,3.15-1.11,4.28-2.43c0.48-0.56,0.82-1.2,1.07-1.88c0.08-0.21,0.18-0.32,0.43-0.31c0.5,0.02,0.99,0,1.49,0
			c1.68,0,3.39-0.09,5.07-0.05c0.39,0.93,1.14,1.56,1.92,2.06c0.02,0.02,0.04,0.03,0.07,0.04c1.46,0.79,2.91,0.89,4.34,0.28
			c0.02-0.01,0.03-0.01,0.05-0.02c1.27-0.63,2.09-1.7,2.46-3.21c0.13-0.53,0.17-1.14,0.11-1.82c0-0.01,0-0.03,0-0.04
			c-0.04-0.74,0.51-1.38,1.25-1.43c2.36-0.17,3.95-1.14,4.76-2.93l0.01-0.03C105.6,59.07,105.05,56.87,102.83,54.87z M88.84,32.74
			c1.11-0.19,2.04-0.08,2.1,0.24c0.03,0.2-0.3,0.44-0.82,0.64c-0.12,0.08-0.25,0.13-0.41,0.14c0,0-0.01,0-0.01,0
			c-0.2,0.06-0.42,0.11-0.66,0.14c-1.11,0.19-2.04,0.08-2.1-0.24S87.74,32.93,88.84,32.74z M81.02,9.38c0.9,3.11,1.24,6.27,1.08,9.5
			c-1.14-1.34-2.47-2.39-4.17-2.97C78.89,13.67,79.75,11.43,81.02,9.38z M61.11,17.34c0.64-2.37,1.28-4.74,2-7.08
			c0.25-0.81,0.71-1.56,1.12-2.31c0.25-0.47,0.43-0.45,0.74-0.01c0.7,1.01,1.33,2.05,1.81,3.19c0.7,1.65,1.19,3.37,1.59,5.11
			c0.07,0.31,0,0.53-0.24,0.79c-1.16,1.24-2.27,2.53-3.43,3.78c-0.82,0.89-1.68,1.75-2.55,2.59c-0.32,0.31-0.56,0.26-0.77-0.15
			c-0.52-0.99-0.74-2.06-0.81-3.32C60.74,19.15,60.87,18.23,61.11,17.34z M56.63,36.36c0.08-1.51,0.48-2.96,1-4.37
			c0.53-1.45,1.08-2.9,1.62-4.35c0.02-0.05,0.05-0.1,0.09-0.17c1.05,0.3,1.93-0.17,2.79-0.66c1.55-0.87,2.77-2.12,3.95-3.42
			c1.52-1.67,2.98-3.38,4.27-5.24c0.3-0.43,0.68-0.62,1.17-0.67c1.31-0.14,2.61-0.09,3.9,0.21c1.1,0.26,2.18,0.58,3.14,1.19
			c1.51,0.96,2.59,2.3,3.5,3.8c0.13,0.21,0.18,0.47,0.26,0.72c-0.85,0.13-1.19,0.55-1.07,1.38c0.22,1.58,0.79,3.04,1.82,4.27
			c0.59,0.71,1.24,1.37,1.89,2.03c0.22,0.23,0.52,0.38,0.79,0.57c-0.14,0.23-0.31,0.47-0.45,0.72c-0.71,1.3-0.55,2.62,0.48,3.69
			c0.42,0.44,0.89,0.83,1.36,1.22c0.22,0.18,0.29,0.35,0.22,0.64c-0.15,0.62-0.57,1-1.07,1.33c-0.88,0.58-1.86,0.81-2.9,0.89
			c-1.55,0.12-3.08-0.03-4.59-0.32c-3.17-0.61-6.21-1.62-9.1-3.04c-0.32-0.16-0.68-0.26-1.04-0.3c-0.73-0.09-1.25,0.45-1.12,1.18
			c0.09,0.52,0.24,1.05,0.47,1.53c0.71,1.47,1.42,2.94,2.22,4.36c0.26,0.47,0.53,0.93,0.8,1.39c-0.27,0.31-0.51,0.66-0.72,1.07
			c-0.01,0.01-0.01,0.02-0.02,0.04c-0.81,1.76-0.74,3.36,0.22,4.79c-1.67-0.27-3.3-0.67-4.87-1.34c-3.05-1.31-5.51-3.3-7.25-6.17
			C57.11,41.16,56.5,38.86,56.63,36.36z M70.99,39.74c0.02-0.02,0.04-0.05,0.06-0.07c0.38,0.14,0.76,0.28,1.15,0.4
			c0.42,0.14,2.15,0.6,3.29,0.9c0,0.1-0.01,0.21-0.01,0.32c0,0.22,0,0.46,0.02,0.74c0.05,0.73-0.5,1.37-1.23,1.42
			c-0.37,0.03-0.77,0.08-1.14,0.19C72.3,42.2,71.33,40.44,70.99,39.74z M19.64,66.05c-1.47-0.05-2.94-0.16-4.36-0.61
			c-1.97-0.62-3.61-1.76-5.02-3.25c-0.48-0.51-0.49-0.6,0.04-1.09c0.79-0.73,1.62-1.43,2.43-2.14c0.27-0.23,0.54-0.28,0.91-0.16
			c1.79,0.6,3.63,0.98,5.54,0.98c0.09,0,0.19,0,0.34,0c-0.09,2.33,0.54,4.4,2.02,6.28C20.84,66.06,20.24,66.07,19.64,66.05z
			 M37.64,65.86c-0.04,0.08-0.21,0.14-0.32,0.15c-1.1,0.02-2.2,0.05-3.3,0.05c-2.74,0-5.49-0.03-8.23-0.02
			c-1.01,0-1.61-0.67-2.33-1.26c0.31-0.23,0.56-0.43,0.82-0.62c2.27-1.66,4.41-3.48,6.37-5.5c1.55-1.6,3.01-3.28,4.23-5.15
			c0.25-0.39,0.37-0.39,0.72-0.07c0.65,0.61,1.1,1.37,1.41,2.2c0.81,2.2,0.71,4.37-0.31,6.48c-0.23,0.48-0.51,0.9-1.03,1.14
			c-0.41,0.19-0.56,0.67-0.45,1.14c0.12,0.49,0.49,0.85,0.97,0.88c0.48,0.03,0.96,0.03,1.43,0.05c0.04,0,0.07,0,0.13,0.01
			C37.72,65.52,37.72,65.71,37.64,65.86z M47.45,61.92c-0.33,1.09-0.73,2.15-1.1,3.23c-0.3,0.88-0.31,0.9-1.24,0.9
			c-1.52,0-3.04-0.02-4.56-0.02c-0.23,0-0.32-0.06-0.32-0.31c0-0.56-0.04-1.12-0.27-1.66c-0.22-0.51-0.64-0.82-1.07-1.16
			c0.8-0.42,1.49-0.98,2.13-1.61c1.51-1.5,2.34-3.32,2.46-5.46c0.07-1.37-0.17-2.7-0.36-4.04c-0.21-1.52-0.53-3.04-0.43-4.59
			c0.12-1.93,0.45-3.81,1.17-5.61c0.04-0.09,0.14-0.2,0.22-0.22c0.67-0.15,1.35-0.29,2.1-0.44c-0.21,0.71-0.4,1.31-0.58,1.92
			c-0.79,2.65-1.03,5.34-0.61,8.08c0.26,1.68,0.88,3.23,1.98,4.54c0.53,0.63,1.13,1.21,1.78,1.89
			C48.34,58.8,47.92,60.37,47.45,61.92z M79.59,68.8c-0.95,1.29-2.29,1.96-3.9,2.04c-1.15,0.06-2.26-0.17-3.36-0.5
			c-1.79-0.55-3.62-0.9-5.47-1.11c-2.28-0.26-4.56-0.54-6.85-0.68c-2.37-0.14-4.74-0.1-7.11-0.16c-0.99-0.02-1.99-0.05-2.97-0.15
			c-0.44-0.04-0.88-0.25-1.3-0.4c-0.23-0.08-0.3-0.26-0.21-0.51c0.32-0.9,0.63-1.8,0.95-2.7c0.98-2.84,1.77-5.73,2.32-8.69
			c0.3-1.59,0.55-3.18,0.81-4.78c0.1-0.63-0.17-1.02-0.81-1.16C51,49.85,51,49.85,50.97,49.16c-0.05-1.41,0.05-2.81,0.38-4.18
			c0.11-0.48-0.05-0.85-0.38-1.02c-0.33-0.18-0.8-0.08-1.12,0.25c-0.22,0.23-0.43,0.47-0.61,0.72c-0.15,0.21-0.32,0.25-0.54,0.14
			c-0.56-0.25-0.81-0.63-0.68-1.23c0.17-0.79,0.39-1.57,0.63-2.35c0.18-0.57,0.59-0.97,1.11-1.26c0.57-0.31,1.15-0.61,1.69-0.98
			c0.63-0.43,1.21-0.93,1.81-1.4c0.24-0.19,0.49-0.38,0.76-0.6c0.1,0.77,0.17,1.48,0.28,2.19c0.37,2.54,1.47,4.74,3.04,6.74
			c1.61,2.04,3.52,3.72,5.84,4.9c2.41,1.22,4.93,2.07,7.64,2.28c1.1,0.08,2.18-0.01,3.22-0.29c0.4,0.05,0.79,0.04,1.18-0.03h0.01
			c0.01,0,0.01,0,0.02-0.01c0.52-0.09,1.08-0.38,1.68-0.88c0.66,0.27,1.35,0.42,2.04,0.57c0.41,0.09,0.41,0.09,0.35,0.5
			c-0.12,0.89-0.27,1.78-0.62,2.61c-0.27,0.64-0.6,1.26-0.9,1.88c-0.21,0.45-0.43,0.89-0.64,1.34c-0.08,0.16-0.16,0.23-0.37,0.22
			c-0.28-0.01-0.57,0.07-0.85,0.12c-1.03,0.2-2.06,0.43-3.09,0.59c-1.22,0.19-2.44,0-3.66-0.11c-2.18-0.2-4.36-0.42-6.54-0.62
			c-1.33-0.12-2.67-0.24-4-0.32c-1.2-0.08-2.39,0-3.54,0.39c-0.81,0.27-1.21,1.15-0.85,1.83c0.14,0.26,0.34,0.41,0.64,0.4
			c0.92-0.03,1.84-0.11,2.75-0.06c1.65,0.08,3.3,0.24,4.95,0.37c2.11,0.16,4.22,0.3,6.32,0.5c1.05,0.1,2.1,0.29,3.14,0.48
			c0.79,0.14,1.51,0.05,2.26-0.25c1.47-0.59,2.98-0.68,4.5-0.08c0.76,0.3,1.24,0.87,1.47,1.62C80.79,65.78,80.62,67.39,79.59,68.8z
			 M81.48,54.87l2.11,2.05c-0.87-0.1-2.36-0.31-2.35-0.6C81.25,55.97,81.36,55.44,81.48,54.87z M89.41,65.98
			c-2.01,0.04-4.02,0.06-6.03,0.07c-0.23,0-0.3-0.08-0.31-0.3c-0.05-0.98-0.19-1.94-0.57-2.85c-0.44-1.05-1.1-1.92-2.05-2.56
			c-0.27-0.18-0.58-0.29-0.86-0.43c0.29-0.65,0.28-0.66,0.57-1.28c0.03-0.06,2.42,0.44,3.67,0.58c0.79,0.09,1.58,0.22,2.37,0.26
			l3.8,3.7c0.02,0.03,0.03,0.04,0.04,0.07C89.75,64.29,89.54,65.21,89.41,65.98z M102.64,60.62c-0.01,0.01-0.01,0.02-0.01,0.03
			c-0.46,1.04-1.47,1.62-3.01,1.75c-0.71,0.06-1.55,0.02-2.49-0.11c0,0-0.01,0-0.01,0c-0.3-0.04-0.6,0.06-0.82,0.27
			c-0.32,0.31-0.45,0.7-0.37,1.18c0.01,0.04,0.02,0.07,0.03,0.11c0.1,0.37,0.19,0.69,0.26,0.96c0.15,0.59,0.23,0.97,0.23,1.14
			c0,0.03,0,0.06,0.01,0.09c0.04,0.48,0.02,0.88-0.06,1.19v0.01c-0.04,0.17-0.09,0.33-0.15,0.48c-0.25,0.64-0.66,1.1-1.22,1.38
			c-0.77,0.32-1.57,0.27-2.4-0.14c-0.08-0.04-0.15-0.08-0.22-0.13c-0.08-0.06-0.16-0.13-0.24-0.2c-0.57-0.53-0.99-1.37-0.8-2.03
			c0.03-0.21,0.07-0.44,0.12-0.69c0.13-0.66,0.32-1.44,0.58-2.35c0.02-0.07,0.03-0.14,0.04-0.21c0.02-0.25-0.02-0.5-0.11-0.74
			c-0.09-0.27-0.26-0.54-0.49-0.79c-0.02-0.02-0.03-0.04-0.05-0.06l-2.78-2.71l-2.16-2.1l-4.53-4.41l-2.21-2.15l-0.95-0.93
			c-0.04-0.05-0.1-0.09-0.16-0.13c-0.02-0.02-0.04-0.03-0.07-0.04c-0.28-0.17-0.56-0.25-0.83-0.25c-0.27,0-0.53,0.08-0.78,0.25
			c-0.02,0.02-0.05,0.03-0.07,0.05c-0.06,0.04-0.12,0.1-0.17,0.16c-0.83,0.97-1.45,1.48-1.86,1.55c-0.01,0-0.02,0.01-0.03,0.01
			c-0.43,0.09-0.92-0.01-1.47-0.29c-0.13-0.06-0.26-0.14-0.39-0.22c-0.09-0.06-0.18-0.13-0.26-0.21c-0.98-0.99-1.17-2.14-0.59-3.42
			c0.01-0.03,0.03-0.05,0.04-0.07c0.3-0.56,0.7-0.93,1.18-1.11c0.01-0.01,0.02-0.01,0.03-0.01c0.24-0.1,0.43-0.16,0.57-0.19
			c0.1,0,0.19-0.01,0.29-0.01c1.29-0.04,2.12-0.1,2.49-0.2c0.52-0.14,0.81-0.43,0.88-0.86c0,0,0,0,0-0.01
			c0.04-0.1,0.07-0.22,0.09-0.34c0.02-0.16,0.03-0.34,0.02-0.54c-0.01-0.03-0.01-0.06-0.02-0.11l0.01,0.01
			c-0.13-0.86-0.2-1.54-0.21-2.03c0.3,0.06,0.6,0.12,0.91,0.17c0.06,0.61,0.2,1.43,0.46,1.49c0.27,0.06,0.82-0.69,1.2-1.25
			c0.54,0.07,1.09,0.13,1.63,0.19c0.24,0.03,1.15,0.12,2.12,0.11c0,0.16-0.01,0.33-0.02,0.51c-0.03,0.58-0.07,1.26-0.14,2.03
			c0,0.13,0,0.26,0,0.39c0.06,0.56,0.23,1.08,0.52,1.57c0.04,0.12,0.09,0.23,0.18,0.35c0.21,0.3,1.01,1.17,2.41,2.61
			c1.4,1.43,3.39,3.43,5.98,5.99c0.03,0.03,0.06,0.06,0.09,0.09c0.77,0.81,1.54,1.45,2.29,1.92c0.47,0.3,1.09,0.15,1.39-0.32
			c0.07-0.21,0.18-0.41,0.33-0.6c0.92-1.12,3.24-1.55,4.67-0.31C102.97,57.7,103.35,59.12,102.64,60.62z"/>
	</g>
</g>
</svg>
