<?xml version="1.0" encoding="utf-8"?>
<!-- Generator: Adobe Illustrator 28.1.0, SVG Export Plug-In . SVG Version: 6.00 Build 0)  -->
<svg version="1.1" id="Layer_1" xmlns="http://www.w3.org/2000/svg" xmlns:xlink="http://www.w3.org/1999/xlink" x="0px" y="0px"
	 viewBox="0 0 110.55 76.54" style="enable-background:new 0 0 110.55 76.54;" xml:space="preserve">
<style type="text/css">
	.st0{display:none;}
	.st1{display:inline;fill:none;}
	.st2{fill:#231F20;}
</style>
<g id="Layer_2_00000073722119373351752270000017113015111246931634_" class="st0">
	<line class="st1" x1="-24.13" y1="74.54" x2="142.13" y2="74.54"/>
	<line class="st1" x1="-24.13" y1="2" x2="142.13" y2="2"/>
</g>
<path class="st2" d="M69.36,17.42c-0.21-0.14-0.47-0.18-0.71-0.11l-1.03,0.32l-0.94-9.7c-0.18-1.89-1.75-3.37-3.65-3.44L51.72,4.04
	c-1.86-0.07-3.73,0.28-5.43,1.01l-1.66,0.72c-0.02,0.01-0.03,0.02-0.04,0.03c-0.81,0.36-1.41,1.1-1.54,2.02l-1.2,9.13L40.5,17.3
	c-0.01,0-0.01,0.01-0.02,0.01c-0.06,0.02-0.1,0.05-0.15,0.08c-0.05,0.02-0.1,0.04-0.13,0.07c-0.01,0-0.01,0.01-0.02,0.01
	c-0.03,0.03-0.05,0.06-0.07,0.09c-0.04,0.05-0.08,0.09-0.11,0.14c-0.02,0.04-0.03,0.09-0.05,0.13c-0.02,0.06-0.04,0.11-0.05,0.17
	c0,0.01-0.01,0.02-0.01,0.03l-3.7,51.62c-0.03,0.43,0.28,0.81,0.71,0.87l25.59,3.45c0.04,0,0.07,0.01,0.11,0.01
	c0.06,0,0.12-0.02,0.18-0.03c0.05,0.01,0.1,0.03,0.14,0.03c0.18,0,0.35-0.06,0.5-0.17l8.61-6.61c0.21-0.16,0.33-0.42,0.32-0.69
	l-2.64-48.45C69.69,17.79,69.56,17.56,69.36,17.42z M51.65,5.68l11.31,0.45c1.08,0.04,1.97,0.88,2.08,1.95l0.97,10.03l-1.43,0.44
	l-0.51-9.51c-0.07-1.4-1.19-2.52-2.59-2.59L49.76,5.79C50.39,5.7,51.02,5.65,51.65,5.68z M47.81,7.32L61.4,8.08
	c0.56,0.03,1.01,0.48,1.04,1.04l0.38,7.04l-13.93-0.99c-0.09-0.01-0.18,0-0.26,0.02l-1.68,0.43L47.81,7.32z M44.67,8.03
	c0.05-0.36,0.29-0.64,0.61-0.77l0.04-0.02c0.11-0.03,0.22-0.05,0.34-0.04l0.51,0.03l-0.93,8.84l-1.69,0.44L44.67,8.03z M37.88,69
	l3.58-50.01l20.03,1.91l0.6,51.37L37.88,69z M62.11,19.32c-0.02,0-0.04-0.02-0.06-0.02l-16.62-1.58l3.47-0.89l14,1l0.07,1.23
	L62.11,19.32z M63.72,71.51l-0.59-50.79l5-1.54l2.56,46.97L63.72,71.51z M67.82,31.4c0.36,0.27,0.43,0.79,0.16,1.15
	c-0.98,1.29-2.64,1.43-3.32,1.43c-0.17,0-0.28-0.01-0.3-0.01c-0.45-0.04-0.78-0.44-0.74-0.89c0.04-0.45,0.44-0.78,0.89-0.74
	c0.01,0,1.49,0.11,2.17-0.78C66.94,31.2,67.46,31.13,67.82,31.4z M68.23,43.56c0.39,0.23,0.52,0.73,0.29,1.12
	c-1.12,1.9-3.63,2-3.74,2c-0.01,0-0.02,0-0.02,0c-0.44,0-0.81-0.35-0.82-0.8c-0.01-0.45,0.34-0.83,0.79-0.84
	c0.03,0,1.72-0.08,2.37-1.19C67.34,43.46,67.84,43.33,68.23,43.56z M68.99,55.99c0.39,0.23,0.52,0.74,0.28,1.12
	c-1.4,2.34-4.51,2.44-4.65,2.44c-0.01,0-0.01,0-0.02,0c-0.44,0-0.81-0.35-0.82-0.8c-0.01-0.45,0.35-0.83,0.8-0.84
	c0.04,0,2.35-0.09,3.28-1.64C68.1,55.88,68.6,55.76,68.99,55.99z M43.17,24.02c-0.04-0.1-0.07-0.2-0.07-0.31
	c0-0.22,0.09-0.43,0.25-0.58c0.3-0.3,0.85-0.31,1.16,0c0.16,0.15,0.24,0.36,0.24,0.58c0,0.11-0.02,0.21-0.06,0.31
	c-0.04,0.1-0.11,0.19-0.18,0.26c-0.15,0.16-0.36,0.25-0.57,0.25c-0.11,0-0.22-0.02-0.32-0.07c-0.1-0.04-0.19-0.1-0.26-0.18
	C43.28,24.21,43.21,24.12,43.17,24.02z M41.85,28.65c-0.16-0.15-0.24-0.36-0.24-0.57c0-0.21,0.08-0.43,0.24-0.58
	c0.04-0.04,0.08-0.07,0.12-0.1c0.05-0.03,0.09-0.06,0.14-0.08c0.06-0.02,0.11-0.03,0.16-0.04c0.16-0.03,0.33-0.02,0.48,0.04
	c0.1,0.04,0.19,0.11,0.26,0.18c0.16,0.16,0.25,0.37,0.25,0.58c0,0.21-0.09,0.43-0.25,0.57c-0.07,0.08-0.16,0.14-0.26,0.18
	c-0.1,0.04-0.2,0.07-0.31,0.07c-0.06,0-0.11-0.01-0.16-0.02c-0.05-0.01-0.1-0.02-0.16-0.05c-0.05-0.02-0.09-0.05-0.14-0.07
	C41.93,28.72,41.89,28.69,41.85,28.65z M44.41,32.36c0.16,0.16,0.24,0.37,0.24,0.58c0,0.11-0.02,0.21-0.06,0.31
	c-0.04,0.1-0.11,0.19-0.18,0.27c-0.07,0.07-0.16,0.13-0.27,0.17c-0.1,0.04-0.2,0.07-0.31,0.07c-0.05,0-0.11-0.01-0.16-0.02
	c-0.06-0.01-0.11-0.02-0.16-0.05c-0.05-0.02-0.1-0.04-0.14-0.07c-0.05-0.02-0.09-0.07-0.13-0.1c-0.07-0.08-0.13-0.17-0.17-0.27
	c-0.04-0.1-0.07-0.2-0.07-0.31c0-0.11,0.02-0.21,0.07-0.31c0.04-0.11,0.1-0.19,0.17-0.27c0.04-0.03,0.08-0.07,0.13-0.1
	c0.04-0.03,0.09-0.06,0.14-0.07c0.05-0.02,0.1-0.04,0.16-0.05C43.93,32.08,44.22,32.17,44.41,32.36z M41.55,37.97
	c-0.16-0.15-0.24-0.36-0.24-0.57c0-0.22,0.08-0.43,0.24-0.58c0.07-0.07,0.16-0.14,0.26-0.18c0.2-0.08,0.43-0.08,0.63,0
	c0.1,0.04,0.19,0.11,0.26,0.18c0.04,0.03,0.07,0.08,0.11,0.12c0.02,0.04,0.05,0.09,0.07,0.14c0.02,0.05,0.03,0.11,0.05,0.16
	c0.01,0.05,0.02,0.11,0.02,0.16c0,0.05-0.01,0.11-0.02,0.16c-0.02,0.05-0.03,0.11-0.05,0.16c-0.02,0.05-0.05,0.1-0.07,0.14
	c-0.03,0.05-0.07,0.09-0.11,0.12c-0.16,0.16-0.36,0.25-0.57,0.25C41.92,38.22,41.71,38.12,41.55,37.97z M47.42,43.08
	c-0.07,0.07-0.16,0.14-0.27,0.18c-0.1,0.04-0.2,0.06-0.31,0.06c-0.21,0-0.43-0.08-0.58-0.24c-0.15-0.16-0.24-0.36-0.24-0.58
	c0-0.11,0.02-0.21,0.07-0.31c0.04-0.1,0.1-0.19,0.17-0.26c0.04-0.04,0.08-0.07,0.13-0.11c0.04-0.02,0.09-0.06,0.14-0.07
	c0.05-0.02,0.1-0.04,0.16-0.05c0.26-0.05,0.54,0.03,0.74,0.23c0.07,0.07,0.13,0.16,0.17,0.26c0.04,0.1,0.07,0.2,0.07,0.31
	C47.65,42.72,47.56,42.92,47.42,43.08z M44.21,47.25c-0.01-0.05-0.02-0.11-0.02-0.16c0-0.21,0.09-0.43,0.24-0.58
	c0.3-0.3,0.85-0.3,1.16,0c0.07,0.07,0.13,0.16,0.17,0.27c0.04,0.1,0.07,0.2,0.07,0.31c0,0.21-0.09,0.43-0.24,0.58
	c-0.16,0.15-0.37,0.24-0.58,0.24c-0.21,0-0.43-0.09-0.58-0.24c-0.03-0.04-0.07-0.08-0.1-0.13c-0.03-0.04-0.06-0.09-0.07-0.14
	C44.24,47.36,44.22,47.31,44.21,47.25z M45.87,52.34c-0.15-0.16-0.24-0.36-0.24-0.58c0-0.11,0.02-0.21,0.07-0.31
	c0.04-0.1,0.1-0.19,0.17-0.26c0.2-0.2,0.48-0.28,0.75-0.23c0.05,0.02,0.11,0.02,0.16,0.05c0.05,0.02,0.09,0.05,0.14,0.07
	c0.04,0.03,0.08,0.07,0.12,0.11c0.07,0.07,0.13,0.16,0.18,0.26c0.04,0.1,0.06,0.2,0.06,0.31c0,0.22-0.08,0.43-0.24,0.58
	c-0.04,0.04-0.08,0.07-0.12,0.1c-0.05,0.03-0.09,0.06-0.14,0.08c-0.05,0.02-0.11,0.03-0.16,0.04c-0.06,0.02-0.11,0.02-0.16,0.02
	C46.24,52.58,46.03,52.49,45.87,52.34z M48.7,56.1c0.16,0.16,0.25,0.36,0.25,0.58c0,0.21-0.09,0.42-0.25,0.57
	c-0.15,0.16-0.36,0.24-0.58,0.24c-0.21,0-0.43-0.08-0.57-0.24c-0.07-0.07-0.14-0.16-0.18-0.26c-0.04-0.1-0.07-0.2-0.07-0.31
	c0-0.11,0.02-0.21,0.07-0.32c0.04-0.1,0.11-0.19,0.18-0.26C47.85,55.8,48.4,55.8,48.7,56.1z M50.38,62.18
	c-0.16,0.16-0.36,0.25-0.58,0.25c-0.21,0-0.43-0.09-0.58-0.25c-0.15-0.15-0.24-0.36-0.24-0.57s0.09-0.43,0.24-0.58
	c0.3-0.3,0.86-0.3,1.16,0c0.16,0.16,0.24,0.37,0.24,0.58S50.54,62.03,50.38,62.18z M51.78,65.71c0.16,0.16,0.25,0.37,0.25,0.58
	c0,0.21-0.09,0.43-0.25,0.58c-0.15,0.15-0.36,0.24-0.57,0.24c-0.22,0-0.43-0.09-0.58-0.24c-0.16-0.16-0.24-0.37-0.24-0.58
	c0-0.21,0.08-0.43,0.24-0.58C50.92,65.41,51.47,65.41,51.78,65.71z M50.82,48.18c-0.01-0.05-0.02-0.11-0.02-0.16
	c0-0.22,0.09-0.43,0.24-0.58c0.2-0.19,0.48-0.28,0.75-0.23c0.05,0.02,0.1,0.03,0.15,0.05c0.05,0.02,0.1,0.05,0.15,0.07
	c0.04,0.03,0.08,0.07,0.12,0.11c0.15,0.15,0.24,0.36,0.24,0.58c0,0.21-0.09,0.43-0.24,0.57c-0.16,0.16-0.37,0.25-0.58,0.25
	c-0.21,0-0.43-0.09-0.58-0.25c-0.03-0.03-0.07-0.07-0.1-0.12c-0.03-0.04-0.06-0.09-0.07-0.14C50.84,48.29,50.83,48.23,50.82,48.18z
	 M52.62,53.36c-0.16-0.16-0.24-0.36-0.24-0.58c0-0.21,0.08-0.43,0.24-0.57c0.07-0.08,0.16-0.14,0.26-0.18
	c0.3-0.12,0.67-0.05,0.89,0.18c0.16,0.15,0.25,0.36,0.25,0.57c0,0.22-0.09,0.43-0.25,0.58c-0.15,0.16-0.36,0.24-0.57,0.24
	C52.98,53.6,52.78,53.52,52.62,53.36z M44.09,42.74c-0.16,0.15-0.36,0.24-0.57,0.24c-0.06,0-0.11-0.01-0.16-0.02
	c-0.05-0.01-0.11-0.02-0.16-0.05c-0.05-0.02-0.1-0.04-0.14-0.07c-0.05-0.03-0.09-0.07-0.12-0.1c-0.16-0.16-0.25-0.37-0.25-0.58
	c0-0.21,0.09-0.43,0.25-0.58c0.03-0.03,0.07-0.07,0.12-0.1c0.04-0.03,0.09-0.06,0.14-0.07c0.05-0.02,0.11-0.04,0.16-0.05
	c0.16-0.03,0.32-0.02,0.48,0.05c0.1,0.04,0.19,0.1,0.26,0.17c0.08,0.07,0.14,0.16,0.18,0.27c0.04,0.1,0.07,0.2,0.07,0.31
	C44.33,42.37,44.24,42.58,44.09,42.74z M40.97,46.88c-0.04-0.11-0.07-0.21-0.07-0.32c0-0.11,0.02-0.21,0.07-0.31
	c0.04-0.1,0.1-0.19,0.18-0.26c0.07-0.08,0.16-0.14,0.26-0.18c0.2-0.08,0.43-0.08,0.63,0c0.1,0.04,0.19,0.1,0.26,0.18
	c0.16,0.15,0.25,0.36,0.25,0.57c0,0.11-0.02,0.21-0.07,0.32c-0.04,0.1-0.1,0.19-0.18,0.26c-0.07,0.07-0.16,0.14-0.26,0.18
	c-0.11,0.04-0.2,0.06-0.31,0.06c-0.11,0-0.22-0.02-0.32-0.06c-0.1-0.04-0.19-0.11-0.26-0.18C41.07,47.07,41.01,46.98,40.97,46.88z
	 M43.57,50.64c0.1,0.04,0.19,0.11,0.26,0.18c0.16,0.16,0.25,0.36,0.25,0.57c0,0.22-0.09,0.43-0.25,0.58
	c-0.16,0.16-0.36,0.25-0.57,0.25c-0.06,0-0.11-0.01-0.16-0.02c-0.05-0.02-0.11-0.03-0.16-0.05c-0.05-0.02-0.1-0.05-0.14-0.07
	c-0.04-0.03-0.09-0.07-0.12-0.11c-0.16-0.15-0.25-0.36-0.25-0.58c0-0.21,0.09-0.42,0.25-0.57c0.03-0.04,0.08-0.07,0.12-0.11
	c0.04-0.02,0.09-0.05,0.14-0.07c0.05-0.02,0.11-0.03,0.16-0.04C43.25,50.57,43.42,50.58,43.57,50.64z M45.46,56.17
	c0,0.11-0.02,0.21-0.06,0.31c-0.04,0.1-0.11,0.19-0.18,0.27c-0.07,0.07-0.16,0.13-0.26,0.17c-0.11,0.04-0.21,0.07-0.32,0.07
	c-0.11,0-0.21-0.02-0.31-0.07c-0.1-0.04-0.19-0.1-0.26-0.17c-0.16-0.16-0.25-0.37-0.25-0.58c0-0.05,0.01-0.11,0.02-0.16
	c0.02-0.06,0.02-0.11,0.05-0.16c0.02-0.05,0.05-0.1,0.07-0.15c0.03-0.04,0.07-0.08,0.11-0.12c0.3-0.3,0.84-0.3,1.16,0
	c0.04,0.04,0.07,0.08,0.11,0.12c0.02,0.05,0.05,0.1,0.07,0.15c0.02,0.05,0.03,0.1,0.04,0.16C45.46,56.06,45.46,56.12,45.46,56.17z
	 M46.86,61.56c-0.03,0.04-0.08,0.07-0.12,0.11c-0.04,0.02-0.09,0.06-0.14,0.07c-0.05,0.02-0.11,0.04-0.16,0.05
	c-0.06,0.01-0.11,0.02-0.16,0.02c-0.21,0-0.43-0.09-0.57-0.25c-0.08-0.07-0.14-0.16-0.18-0.26c-0.04-0.1-0.07-0.2-0.07-0.31
	c0-0.22,0.09-0.43,0.25-0.58c0.07-0.07,0.16-0.14,0.26-0.18c0.3-0.12,0.67-0.05,0.89,0.18c0.16,0.16,0.25,0.37,0.25,0.58
	C47.1,61.2,47.01,61.41,46.86,61.56z M48.39,65.44c0.04,0.1,0.07,0.2,0.07,0.31c0,0.06-0.01,0.11-0.02,0.16
	c-0.01,0.05-0.02,0.1-0.05,0.16c-0.02,0.05-0.04,0.09-0.07,0.14c-0.02,0.04-0.07,0.08-0.1,0.12c-0.07,0.07-0.16,0.13-0.27,0.18
	c-0.1,0.04-0.2,0.06-0.31,0.06c-0.21,0-0.43-0.08-0.58-0.24c-0.03-0.04-0.07-0.08-0.1-0.12c-0.03-0.05-0.06-0.09-0.07-0.14
	c-0.02-0.06-0.04-0.11-0.05-0.16c-0.01-0.06-0.02-0.11-0.02-0.16c0-0.11,0.02-0.21,0.07-0.31c0.04-0.1,0.1-0.19,0.17-0.27
	c0.23-0.22,0.59-0.29,0.89-0.17c0.11,0.04,0.2,0.1,0.27,0.17C48.29,65.25,48.35,65.34,48.39,65.44z M49.49,24.42
	c-0.02-0.05-0.02-0.11-0.02-0.16c0-0.22,0.08-0.43,0.24-0.58c0.19-0.19,0.48-0.28,0.74-0.22c0.05,0.01,0.11,0.02,0.16,0.04
	c0.05,0.02,0.1,0.05,0.14,0.08c0.05,0.02,0.09,0.06,0.12,0.1c0.16,0.16,0.25,0.36,0.25,0.58c0,0.05-0.01,0.11-0.02,0.16
	c-0.02,0.06-0.03,0.11-0.05,0.16c-0.02,0.05-0.05,0.1-0.07,0.14c-0.03,0.05-0.07,0.09-0.11,0.12c-0.03,0.04-0.07,0.07-0.12,0.11
	c-0.04,0.02-0.09,0.05-0.14,0.07c-0.05,0.02-0.11,0.03-0.16,0.05c-0.05,0.01-0.11,0.02-0.16,0.02c-0.22,0-0.43-0.09-0.58-0.25
	c-0.04-0.03-0.07-0.07-0.1-0.12c-0.03-0.04-0.06-0.09-0.08-0.14C49.51,24.53,49.5,24.48,49.49,24.42z M47.86,28.73
	c0-0.21,0.09-0.43,0.24-0.58c0.19-0.19,0.48-0.28,0.74-0.22c0.06,0.01,0.11,0.02,0.16,0.04c0.05,0.02,0.1,0.05,0.14,0.08
	c0.05,0.02,0.09,0.06,0.13,0.1c0.15,0.16,0.24,0.37,0.24,0.58c0,0.11-0.02,0.21-0.07,0.31c-0.04,0.1-0.1,0.19-0.17,0.27
	c-0.04,0.03-0.08,0.07-0.13,0.1c-0.04,0.03-0.09,0.06-0.14,0.07c-0.05,0.02-0.1,0.04-0.16,0.05c-0.05,0.01-0.11,0.02-0.16,0.02
	c-0.21,0-0.43-0.09-0.58-0.24c-0.07-0.08-0.13-0.17-0.17-0.27C47.87,28.94,47.86,28.84,47.86,28.73z M50.76,32.98
	c0.16,0.16,0.24,0.37,0.24,0.58c0,0.21-0.08,0.43-0.24,0.58c-0.16,0.15-0.36,0.24-0.58,0.24c-0.21,0-0.43-0.09-0.57-0.24
	c-0.16-0.16-0.24-0.37-0.24-0.58c0-0.11,0.02-0.21,0.06-0.31c0.04-0.11,0.1-0.19,0.18-0.27c0.07-0.07,0.16-0.13,0.26-0.17
	C50.17,32.68,50.53,32.75,50.76,32.98z M47.97,38.69c-0.16-0.15-0.25-0.36-0.25-0.58c0-0.21,0.09-0.43,0.25-0.57
	c0.3-0.31,0.84-0.31,1.16,0c0.16,0.15,0.24,0.36,0.24,0.57c0,0.22-0.08,0.43-0.24,0.58c-0.16,0.16-0.36,0.25-0.58,0.25
	C48.33,38.94,48.12,38.85,47.97,38.69z M55.95,25.39c-0.15-0.16-0.24-0.37-0.24-0.58c0-0.11,0.02-0.21,0.06-0.31
	c0.05-0.11,0.11-0.19,0.18-0.27c0.31-0.3,0.85-0.3,1.16,0c0.15,0.16,0.24,0.37,0.24,0.58c0,0.21-0.09,0.43-0.24,0.58
	c-0.16,0.15-0.37,0.24-0.58,0.24C56.32,25.63,56.1,25.54,55.95,25.39z M57.67,30.33c-0.15-0.16-0.24-0.37-0.24-0.58
	c0-0.22,0.09-0.43,0.24-0.58c0.3-0.3,0.85-0.3,1.16,0c0.16,0.16,0.25,0.37,0.25,0.58c0,0.21-0.09,0.43-0.25,0.58
	c-0.15,0.15-0.36,0.24-0.57,0.24C58.03,30.57,57.83,30.48,57.67,30.33z M55.96,34.88c-0.16-0.16-0.25-0.36-0.25-0.58
	c0-0.21,0.09-0.43,0.25-0.57c0.07-0.08,0.16-0.14,0.26-0.18c0.3-0.12,0.67-0.05,0.89,0.18c0.16,0.15,0.24,0.36,0.24,0.57
	c0,0.22-0.08,0.43-0.24,0.58c-0.15,0.16-0.36,0.24-0.57,0.24C56.32,35.12,56.11,35.03,55.96,34.88z M57.8,39.85
	c-0.16-0.15-0.25-0.36-0.25-0.57c0-0.22,0.09-0.43,0.25-0.58c0.3-0.3,0.84-0.3,1.16,0c0.16,0.15,0.24,0.36,0.24,0.58
	c0,0.21-0.08,0.43-0.24,0.57c-0.16,0.16-0.36,0.24-0.58,0.24C58.16,40.09,57.95,40.01,57.8,39.85z M56.1,44.26
	c-0.16-0.16-0.24-0.37-0.24-0.58c0-0.22,0.08-0.43,0.24-0.58c0.3-0.3,0.85-0.3,1.16,0c0.16,0.16,0.25,0.37,0.25,0.58
	c0,0.21-0.09,0.43-0.25,0.58c-0.15,0.15-0.36,0.24-0.57,0.24C56.47,44.5,56.26,44.41,56.1,44.26z M59.17,48.18
	c0.15,0.16,0.24,0.37,0.24,0.58c0,0.21-0.09,0.43-0.24,0.58c-0.16,0.15-0.37,0.24-0.58,0.24c-0.21,0-0.43-0.09-0.58-0.24
	c-0.15-0.16-0.24-0.37-0.24-0.58c0-0.21,0.09-0.43,0.24-0.58C58.32,47.88,58.87,47.88,59.17,48.18z M42.13,55.73
	c0,0.11-0.02,0.21-0.07,0.31c-0.04,0.1-0.1,0.19-0.17,0.27c-0.08,0.07-0.17,0.13-0.27,0.17c-0.1,0.04-0.2,0.07-0.31,0.07
	c-0.21,0-0.43-0.09-0.58-0.24c-0.07-0.08-0.13-0.17-0.17-0.27c-0.04-0.1-0.07-0.2-0.07-0.31c0-0.11,0.02-0.21,0.07-0.31
	c0.04-0.11,0.1-0.2,0.17-0.27c0.07-0.07,0.16-0.13,0.27-0.17c0.2-0.09,0.42-0.09,0.62,0c0.1,0.04,0.19,0.1,0.27,0.17
	C42.04,55.31,42.13,55.52,42.13,55.73z M41.51,64.34c0.04,0.1,0.06,0.2,0.06,0.31c0,0.21-0.08,0.43-0.24,0.57
	c-0.07,0.08-0.16,0.14-0.27,0.18c-0.1,0.04-0.2,0.07-0.31,0.07c-0.11,0-0.21-0.02-0.31-0.07c-0.1-0.04-0.19-0.1-0.27-0.18
	c-0.15-0.15-0.24-0.36-0.24-0.57c0-0.11,0.02-0.21,0.07-0.31c0.04-0.11,0.1-0.2,0.17-0.27c0.3-0.3,0.85-0.3,1.16,0
	C41.4,64.14,41.46,64.23,41.51,64.34z M43.48,60.98c-0.16,0.15-0.37,0.24-0.58,0.24c-0.21,0-0.43-0.09-0.58-0.24
	c-0.07-0.08-0.13-0.17-0.18-0.27c-0.04-0.1-0.06-0.2-0.06-0.31c0-0.22,0.08-0.43,0.24-0.58c0.23-0.23,0.59-0.3,0.89-0.17
	c0.1,0.04,0.19,0.1,0.27,0.17c0.15,0.16,0.24,0.36,0.24,0.58c0,0.11-0.02,0.21-0.07,0.31C43.61,60.81,43.55,60.9,43.48,60.98z
	 M45.03,65.03c0.02,0.05,0.02,0.11,0.02,0.16c0,0.22-0.08,0.43-0.24,0.58c-0.04,0.04-0.08,0.07-0.12,0.11
	c-0.05,0.02-0.09,0.05-0.14,0.07c-0.06,0.02-0.11,0.03-0.16,0.05c-0.06,0.01-0.11,0.02-0.16,0.02c-0.21,0-0.43-0.09-0.57-0.25
	c-0.08-0.07-0.14-0.16-0.18-0.26c-0.04-0.11-0.07-0.2-0.07-0.32c0-0.05,0.01-0.11,0.02-0.16c0.02-0.05,0.02-0.11,0.05-0.16
	c0.02-0.05,0.05-0.1,0.07-0.14c0.03-0.05,0.07-0.09,0.11-0.12c0.07-0.07,0.16-0.14,0.26-0.18c0.3-0.12,0.66-0.05,0.89,0.18
	c0.04,0.03,0.07,0.07,0.1,0.12c0.03,0.04,0.06,0.09,0.08,0.14C45.01,64.92,45.02,64.98,45.03,65.03z M54.41,39.56
	c-0.15-0.16-0.24-0.36-0.24-0.58c0-0.21,0.09-0.43,0.24-0.57c0.3-0.3,0.85-0.3,1.16,0c0.15,0.15,0.24,0.36,0.24,0.57
	c0,0.22-0.09,0.43-0.24,0.58c-0.16,0.16-0.37,0.24-0.58,0.24C54.78,39.8,54.56,39.71,54.41,39.56z M54.24,43.35
	c0,0.21-0.09,0.43-0.25,0.57c-0.15,0.16-0.36,0.25-0.57,0.25c-0.11,0-0.21-0.02-0.32-0.07c-0.1-0.04-0.19-0.1-0.26-0.18
	c-0.16-0.15-0.24-0.36-0.24-0.57c0-0.11,0.02-0.21,0.06-0.32c0.04-0.1,0.11-0.19,0.18-0.26c0.3-0.3,0.85-0.3,1.16,0
	C54.15,42.92,54.24,43.13,54.24,43.35z M54.51,48.96c-0.16-0.15-0.24-0.36-0.24-0.58c0-0.21,0.08-0.43,0.24-0.57
	c0.3-0.3,0.85-0.3,1.16,0c0.15,0.15,0.24,0.36,0.24,0.57c0,0.11-0.02,0.21-0.07,0.32c-0.04,0.1-0.1,0.19-0.17,0.26
	c-0.16,0.16-0.37,0.25-0.58,0.25C54.88,49.21,54.67,49.12,54.51,48.96z M56.24,53.9c-0.16-0.16-0.25-0.37-0.25-0.58
	c0-0.21,0.09-0.43,0.25-0.58c0.3-0.3,0.85-0.3,1.16,0c0.16,0.16,0.24,0.37,0.24,0.58c0,0.21-0.08,0.43-0.24,0.58
	c-0.16,0.15-0.36,0.24-0.58,0.24C56.6,54.14,56.38,54.05,56.24,53.9z M54.47,29.97c-0.16-0.16-0.24-0.36-0.24-0.58
	c0-0.11,0.02-0.21,0.06-0.31c0.04-0.11,0.11-0.2,0.18-0.27c0.3-0.3,0.85-0.3,1.16,0c0.16,0.16,0.25,0.37,0.25,0.58
	c0,0.21-0.09,0.43-0.25,0.58c-0.15,0.15-0.36,0.24-0.57,0.24C54.83,30.21,54.63,30.12,54.47,29.97z M52.82,25.16
	c-0.16-0.15-0.24-0.36-0.24-0.57c0-0.11,0.02-0.21,0.06-0.32c0.04-0.1,0.1-0.19,0.18-0.26c0.3-0.3,0.85-0.3,1.16,0
	c0.16,0.16,0.25,0.37,0.25,0.58c0,0.21-0.09,0.43-0.25,0.57c-0.15,0.16-0.36,0.25-0.57,0.25c-0.06,0-0.11-0.01-0.16-0.02
	c-0.05-0.02-0.11-0.03-0.16-0.05c-0.05-0.02-0.1-0.05-0.14-0.07C52.89,25.24,52.85,25.21,52.82,25.16z M51.06,29.07
	c0-0.21,0.09-0.43,0.24-0.58c0.08-0.07,0.17-0.13,0.27-0.17c0.29-0.12,0.66-0.05,0.89,0.17c0.03,0.04,0.07,0.08,0.1,0.13
	c0.03,0.04,0.06,0.09,0.07,0.14c0.02,0.05,0.04,0.1,0.05,0.16c0.02,0.05,0.02,0.11,0.02,0.16c0,0.21-0.09,0.43-0.24,0.58
	c-0.16,0.16-0.37,0.24-0.58,0.24c-0.21,0-0.43-0.08-0.58-0.24C51.15,29.49,51.06,29.29,51.06,29.07z M52.69,34.3
	c-0.04-0.1-0.07-0.2-0.07-0.31c0-0.22,0.09-0.43,0.24-0.58c0.31-0.3,0.86-0.3,1.16,0c0.16,0.16,0.24,0.36,0.24,0.58
	c0,0.21-0.08,0.43-0.24,0.57c-0.16,0.16-0.36,0.25-0.58,0.25c-0.11,0-0.21-0.02-0.31-0.07c-0.1-0.04-0.19-0.1-0.27-0.18
	C52.78,34.49,52.73,34.39,52.69,34.3z M50.95,38.56c0-0.06,0.01-0.11,0.02-0.16c0.01-0.05,0.02-0.11,0.05-0.16
	c0.02-0.05,0.04-0.09,0.07-0.14c0.03-0.04,0.07-0.09,0.1-0.12c0.08-0.07,0.17-0.14,0.27-0.18c0.3-0.12,0.66-0.05,0.89,0.18
	c0.03,0.03,0.07,0.08,0.1,0.12c0.03,0.05,0.06,0.09,0.08,0.14c0.02,0.05,0.03,0.11,0.04,0.16c0.02,0.06,0.02,0.11,0.02,0.16
	c0,0.21-0.08,0.43-0.24,0.57c-0.16,0.16-0.37,0.25-0.58,0.25c-0.21,0-0.43-0.09-0.58-0.25C51.04,38.99,50.95,38.77,50.95,38.56z
	 M50.64,43.52c-0.04,0.04-0.08,0.07-0.13,0.11c-0.04,0.02-0.09,0.05-0.14,0.07c-0.05,0.02-0.1,0.03-0.16,0.05
	c-0.05,0.01-0.11,0.02-0.16,0.02c-0.21,0-0.43-0.09-0.58-0.25c-0.15-0.15-0.24-0.36-0.24-0.57c0-0.11,0.02-0.22,0.06-0.32
	c0.05-0.1,0.11-0.19,0.18-0.26c0.19-0.19,0.48-0.28,0.74-0.22c0.06,0.01,0.11,0.02,0.16,0.04c0.05,0.02,0.1,0.05,0.14,0.07
	c0.05,0.03,0.09,0.07,0.13,0.11c0.07,0.07,0.13,0.16,0.17,0.26c0.04,0.1,0.07,0.2,0.07,0.32C50.88,43.16,50.78,43.37,50.64,43.52z
	 M47.74,48.08c-0.15-0.16-0.24-0.37-0.24-0.58c0-0.21,0.09-0.43,0.24-0.58c0.08-0.07,0.17-0.13,0.27-0.17c0.2-0.08,0.43-0.08,0.62,0
	c0.1,0.04,0.19,0.1,0.27,0.17c0.15,0.16,0.24,0.37,0.24,0.58c0,0.21-0.09,0.43-0.24,0.58c-0.08,0.07-0.17,0.13-0.27,0.17
	c-0.1,0.04-0.2,0.07-0.31,0.07s-0.21-0.02-0.31-0.07C47.91,48.21,47.82,48.15,47.74,48.08z M49.22,52.82
	c-0.15-0.15-0.24-0.36-0.24-0.57c0-0.22,0.09-0.43,0.24-0.58c0.3-0.3,0.86-0.3,1.16,0c0.16,0.16,0.24,0.36,0.24,0.58
	c0,0.21-0.08,0.43-0.24,0.57c-0.16,0.16-0.36,0.25-0.58,0.25C49.59,53.07,49.37,52.98,49.22,52.82z M52.44,57.3
	c0,0.11-0.02,0.21-0.07,0.31c-0.04,0.1-0.1,0.19-0.17,0.26c-0.16,0.16-0.37,0.25-0.58,0.25c-0.21,0-0.43-0.09-0.58-0.25
	c-0.15-0.16-0.24-0.36-0.24-0.57c0-0.22,0.09-0.43,0.24-0.58c0.2-0.19,0.48-0.28,0.75-0.22c0.05,0.01,0.1,0.02,0.15,0.04
	c0.05,0.02,0.1,0.05,0.15,0.07c0.04,0.03,0.08,0.07,0.12,0.11C52.35,56.86,52.44,57.08,52.44,57.3z M54.02,62.11
	c0,0.22-0.09,0.43-0.25,0.58c-0.15,0.16-0.36,0.24-0.57,0.24c-0.11,0-0.21-0.02-0.32-0.06c-0.1-0.04-0.19-0.11-0.26-0.18
	c-0.16-0.16-0.24-0.36-0.24-0.58c0-0.11,0.02-0.21,0.06-0.31c0.04-0.1,0.1-0.19,0.18-0.26c0.3-0.31,0.85-0.3,1.16,0
	C53.93,61.68,54.02,61.9,54.02,62.11z M55.55,66.54c0.04,0.11,0.06,0.21,0.06,0.32c0,0.21-0.08,0.43-0.24,0.57
	c-0.16,0.16-0.36,0.25-0.58,0.25c-0.21,0-0.43-0.09-0.57-0.25c-0.16-0.15-0.25-0.36-0.25-0.57c0-0.11,0.02-0.21,0.07-0.32
	c0.04-0.1,0.1-0.19,0.18-0.26c0.07-0.07,0.16-0.14,0.26-0.18c0.3-0.12,0.66-0.05,0.89,0.18C55.44,66.35,55.51,66.44,55.55,66.54z
	 M56.01,57.65c0,0.22-0.08,0.43-0.24,0.58c-0.16,0.16-0.36,0.24-0.58,0.24c-0.21,0-0.43-0.08-0.57-0.24
	c-0.16-0.15-0.25-0.36-0.25-0.58c0-0.21,0.09-0.43,0.25-0.57c0.3-0.31,0.85-0.31,1.16,0c0.04,0.03,0.07,0.07,0.11,0.12
	c0.02,0.04,0.05,0.09,0.07,0.14c0.02,0.05,0.03,0.1,0.04,0.16C56.01,57.54,56.01,57.6,56.01,57.65z M57.63,62.68
	c0,0.21-0.08,0.43-0.24,0.58c-0.15,0.15-0.36,0.24-0.58,0.24c-0.21,0-0.43-0.09-0.57-0.24c-0.16-0.16-0.25-0.37-0.25-0.58
	c0-0.21,0.09-0.43,0.25-0.58c0.3-0.3,0.85-0.3,1.16,0C57.55,62.25,57.63,62.46,57.63,62.68z M58.98,66.82
	c0.15,0.15,0.24,0.36,0.24,0.57c0,0.22-0.09,0.43-0.24,0.58c-0.16,0.16-0.37,0.24-0.58,0.24c-0.21,0-0.43-0.08-0.58-0.24
	c-0.15-0.16-0.24-0.36-0.24-0.58c0-0.21,0.09-0.43,0.24-0.57C58.13,66.51,58.68,66.5,58.98,66.82z M59.17,57.66
	c0.15,0.16,0.24,0.37,0.24,0.58c0,0.21-0.09,0.43-0.24,0.58c-0.16,0.16-0.37,0.24-0.58,0.24c-0.21,0-0.43-0.08-0.58-0.24
	c-0.15-0.16-0.24-0.36-0.24-0.58c0-0.11,0.02-0.21,0.07-0.31c0.04-0.1,0.1-0.19,0.17-0.27C58.32,57.36,58.87,57.36,59.17,57.66z
	 M46.5,24.53c-0.15-0.15-0.24-0.36-0.24-0.58c0-0.11,0.02-0.21,0.07-0.31c0.04-0.1,0.1-0.19,0.17-0.26c0.2-0.2,0.48-0.28,0.75-0.23
	c0.05,0.02,0.1,0.03,0.15,0.05c0.05,0.02,0.1,0.05,0.15,0.07c0.04,0.03,0.08,0.07,0.12,0.11c0.15,0.15,0.24,0.36,0.24,0.57
	c0,0.22-0.09,0.43-0.24,0.58c-0.16,0.16-0.36,0.24-0.58,0.24C46.87,24.76,46.65,24.68,46.5,24.53z M45.03,28.95
	c-0.16-0.16-0.25-0.37-0.25-0.58c0-0.11,0.02-0.21,0.07-0.31c0.04-0.11,0.1-0.19,0.18-0.27c0.22-0.23,0.59-0.3,0.89-0.17
	c0.1,0.04,0.19,0.1,0.26,0.17c0.07,0.08,0.14,0.16,0.18,0.27c0.04,0.1,0.06,0.2,0.06,0.31c0,0.21-0.08,0.43-0.24,0.58
	c-0.07,0.07-0.16,0.13-0.26,0.17c-0.11,0.04-0.21,0.07-0.32,0.07C45.39,29.19,45.18,29.1,45.03,28.95z M46.32,33.8
	c-0.15-0.15-0.24-0.36-0.24-0.57c0-0.11,0.02-0.21,0.07-0.32c0.04-0.1,0.1-0.19,0.17-0.26c0.23-0.23,0.6-0.3,0.89-0.18
	c0.1,0.04,0.19,0.11,0.27,0.18c0.15,0.16,0.24,0.36,0.24,0.58c0,0.21-0.09,0.43-0.24,0.57c-0.16,0.16-0.37,0.25-0.58,0.25
	C46.69,34.04,46.47,33.95,46.32,33.8z M46.05,37.42c0.04,0.1,0.06,0.2,0.06,0.31c0,0.05,0,0.11-0.01,0.16
	c-0.02,0.06-0.03,0.11-0.05,0.16c-0.02,0.05-0.05,0.1-0.07,0.14c-0.03,0.05-0.07,0.09-0.11,0.13c-0.07,0.07-0.16,0.13-0.26,0.17
	c-0.11,0.04-0.2,0.07-0.31,0.07c-0.22,0-0.43-0.09-0.58-0.24c-0.04-0.04-0.07-0.08-0.11-0.13c-0.02-0.04-0.05-0.09-0.07-0.14
	c-0.02-0.05-0.03-0.1-0.05-0.16c-0.01-0.05-0.02-0.11-0.02-0.16c0-0.21,0.09-0.43,0.25-0.58c0.07-0.07,0.16-0.13,0.26-0.17
	c0.2-0.08,0.43-0.09,0.63,0c0.1,0.04,0.19,0.1,0.26,0.17C45.95,37.22,46.01,37.31,46.05,37.42z"/>
</svg>
