<?xml version="1.0" encoding="utf-8"?>
<!-- Generator: Adobe Illustrator 28.1.0, SVG Export Plug-In . SVG Version: 6.00 Build 0)  -->
<svg version="1.1" id="Layer_1" xmlns="http://www.w3.org/2000/svg" xmlns:xlink="http://www.w3.org/1999/xlink" x="0px" y="0px"
	 viewBox="0 0 110.55 76.54" style="enable-background:new 0 0 110.55 76.54;" xml:space="preserve">
<style type="text/css">
	.st0{display:none;}
	.st1{display:inline;fill:none;}
</style>
<g id="Layer_2_00000073722119373351752270000017113015111246931634_" class="st0">
	<line class="st1" x1="-24.13" y1="74.54" x2="142.13" y2="74.54"/>
	<line class="st1" x1="-24.13" y1="2" x2="142.13" y2="2"/>
</g>
<path d="M55.28,3.84c-19,0-34.43,15.42-34.43,34.43S36.27,72.7,55.28,72.7S89.7,57.27,89.7,38.27S74.28,3.84,55.28,3.84z
	 M64.98,24.29c2.41,0,4.27,2.13,4.27,4.82s-1.93,4.82-4.27,4.82c-2.41,0-4.27-2.13-4.27-4.82S62.57,24.29,64.98,24.29z M45.57,24.29
	c2.41,0,4.27,2.13,4.27,4.82s-1.93,4.82-4.27,4.82c-2.41,0-4.27-2.13-4.27-4.82S43.22,24.29,45.57,24.29z M78.82,46.46
	c-3.24,10.47-12.74,17.49-23.69,17.49s-20.45-7.02-23.69-17.49c-0.14-0.41,0-0.83,0.28-1.1c0.28-0.28,0.69-0.34,1.1-0.28
	c7.16,2.48,14.67,3.72,22.31,3.72s15.15-1.24,22.31-3.72c0.41-0.14,0.83-0.07,1.1,0.28C78.82,45.64,78.96,46.05,78.82,46.46z"/>
</svg>
