<?xml version="1.0" encoding="utf-8"?>
<!-- Generator: Adobe Illustrator 28.1.0, SVG Export Plug-In . SVG Version: 6.00 Build 0)  -->
<svg version="1.1" id="Layer_1" xmlns="http://www.w3.org/2000/svg" xmlns:xlink="http://www.w3.org/1999/xlink" x="0px" y="0px"
	 viewBox="0 0 110.55 76.54" style="enable-background:new 0 0 110.55 76.54;" xml:space="preserve">
<style type="text/css">
	.st0{display:none;}
	.st1{display:inline;fill:none;}
	.st2{fill:#231F20;}
</style>
<g id="Layer_2_00000073722119373351752270000017113015111246931634_" class="st0">
	<line class="st1" x1="-24.13" y1="74.54" x2="142.13" y2="74.54"/>
	<line class="st1" x1="-24.13" y1="2" x2="142.13" y2="2"/>
</g>
<g>
	<path class="st2" d="M95.41,64.31v-2.38c0.05-2.1-1.6-3.86-3.7-3.94H66.38c-2.12,0.05-3.8,1.82-3.76,3.94v2.39
		c-2.31,0.05-4.17,1.92-4.17,4.24v4.25c0,0.38,0.31,0.69,0.69,0.69h39.82c0.38,0,0.69-0.31,0.69-0.69v-4.25
		C99.67,66.22,97.76,64.31,95.41,64.31z M66.41,59.38h25.31c1.36,0.05,2.41,1.19,2.37,2.55v2.38H64.04v-2.38
		C63.99,60.57,65.05,59.43,66.41,59.38z M98.25,72.09h-38.4l0.04-3.56c0-1.57,1.27-2.83,2.83-2.83h32.69c1.57,0,2.83,1.27,2.83,2.83
		V72.09z"/>
	<path class="st2" d="M65.36,44.84c-0.41,0.37-0.69,0.86-0.81,1.4c-0.32,1.44,0.59,2.86,2.03,3.19c0.2,0.03,0.4,0.03,0.6,0
		c0.5,0.01,1-0.11,1.43-0.35l16.47-10.53c0.09-0.05,0.18-0.11,0.26-0.17c1.21-0.86,1.49-2.53,0.64-3.73
		c-0.75-1.06-2.14-1.41-3.28-0.89c-2.97-9.31-8.29-17.68-15.46-24.32c0.91-0.87,1.12-2.28,0.44-3.38c-0.8-1.25-2.46-1.62-3.71-0.84
		L47.49,15.69c-0.78,0.49-1.25,1.34-1.25,2.26c0,1.48,1.19,2.68,2.67,2.69c0.33,0,0.65-0.08,0.95-0.2
		c1.12,3.53,2.58,6.93,4.35,10.15L9.96,57.67c-0.51,0.32-0.87,0.83-0.99,1.42c-0.11,0.58,0.01,1.18,0.34,1.67l2.13,3.42
		c0.32,0.5,0.83,0.86,1.42,0.98h0.47c0.45,0.02,0.89-0.11,1.26-0.35l43.39-28.28C60.14,39.51,62.62,42.3,65.36,44.84z M83.95,35.03
		c0.33,0.07,0.62,0.27,0.81,0.55c0.37,0.61,0.19,1.39-0.4,1.79L67.85,47.83c0,0-0.01,0.01-0.01,0.01c-0.6,0.37-1.38,0.19-1.76-0.41
		c-0.38-0.6-0.2-1.39,0.4-1.77l16.5-10.47c0.21-0.12,0.45-0.19,0.69-0.2C83.76,34.99,83.86,35.01,83.95,35.03z M81.47,34.5
		l-14.92,9.53C59.33,37.45,54,29.06,51.09,19.74l14.96-9.5C73.24,16.83,78.56,25.2,81.47,34.5z M47.83,18.67
		c-0.39-0.6-0.22-1.41,0.38-1.8l16.5-10.46c0.21-0.13,0.45-0.2,0.69-0.2c0.44-0.01,0.85,0.22,1.08,0.6
		c0.19,0.28,0.25,0.63,0.17,0.96c-0.07,0.34-0.27,0.63-0.57,0.81l-0.24,0.15c-0.03,0.01-0.05,0.03-0.08,0.05l-15.69,9.99
		c0,0,0,0-0.01,0c-0.12,0.04-0.21,0.11-0.29,0.19l-0.15,0.1C49.02,19.44,48.22,19.27,47.83,18.67z M13.74,63.63
		c-0.18,0.11-0.39,0.15-0.6,0.11c-0.22-0.05-0.4-0.18-0.52-0.37l-2.13-3.36c-0.13-0.18-0.17-0.41-0.11-0.62
		c0.04-0.21,0.17-0.39,0.35-0.5L54.9,31.8c0.71,1.21,1.46,2.4,2.26,3.56L13.74,63.63z"/>
	<path class="st2" d="M78.45,50.27v4.58v0c0,0.38,0.31,0.69,0.69,0.69c0.01,0,0.02,0,0.03,0c0.38,0,0.69-0.31,0.69-0.7v-4.58
		c0-0.39-0.32-0.71-0.71-0.71C78.77,49.56,78.45,49.88,78.45,50.27z"/>
	<path class="st2" d="M83.61,54.93C83.61,54.93,83.61,54.93,83.61,54.93c-0.19,0.34-0.07,0.76,0.27,0.95c0.1,0.07,0.22,0.1,0.34,0.1
		c0.23,0,0.44-0.1,0.58-0.28l2.37-4.25c0,0,0,0,0,0c0.19-0.33,0.08-0.76-0.26-0.95c-0.31-0.19-0.71-0.11-0.92,0.18L83.61,54.93z"/>
	<path class="st2" d="M71.37,50.42c-0.34,0.19-0.46,0.61-0.27,0.95l2.38,4.25c0.12,0.22,0.35,0.35,0.6,0.35
		c0.12,0.01,0.25-0.02,0.35-0.09c0,0,0,0,0,0c0.33-0.19,0.45-0.62,0.25-0.95l-2.37-4.25C72.13,50.36,71.7,50.24,71.37,50.42z"/>
</g>
</svg>
