<?xml version="1.0" encoding="utf-8"?>
<!-- Generator: Adobe Illustrator 28.1.0, SVG Export Plug-In . SVG Version: 6.00 Build 0)  -->
<svg version="1.1" id="Layer_1" xmlns="http://www.w3.org/2000/svg" xmlns:xlink="http://www.w3.org/1999/xlink" x="0px" y="0px"
	 viewBox="0 0 110.55 76.54" style="enable-background:new 0 0 110.55 76.54;" xml:space="preserve">
<style type="text/css">
	.st0{display:none;}
	.st1{display:inline;fill:none;}
	.st2{fill:none;}
	.st3{fill:#FFFFFF;}
</style>
<g id="Layer_2_00000073722119373351752270000017113015111246931634_" class="st0">
	<line class="st1" x1="-24.13" y1="74.54" x2="142.13" y2="74.54"/>
	<line class="st1" x1="-24.13" y1="2" x2="142.13" y2="2"/>
</g>
<g>
	<path class="st2" d="M-5240.72,925.05c-1.72,0-3.37,0.3-4.92,0.82l3.29,12.07l2.3,1.28c0.66,0.37,0.9,1.2,0.53,1.86
		c-0.25,0.45-0.71,0.7-1.19,0.7c-0.23,0-0.46-0.06-0.67-0.17l-2.8-1.56c-0.02-0.01-0.04-0.04-0.06-0.05
		c-0.1-0.06-0.19-0.14-0.27-0.23c-0.03-0.04-0.07-0.07-0.1-0.11c-0.08-0.11-0.14-0.24-0.19-0.38c0-0.02-0.02-0.04-0.03-0.06
		c0,0,0,0,0-0.01l-3.34-12.23c-4.72,2.63-7.92,7.66-7.92,13.44c0,8.48,6.9,15.37,15.37,15.37s15.37-6.9,15.37-15.37
		C-5225.34,931.95-5232.24,925.05-5240.72,925.05z"/>
	<path d="M-5339.6,903.64c-6.21,0-11.27,5.06-11.27,11.27v6.37c0,1.15,0.92,2.07,2.07,2.07c1.15,0,2.07-0.92,2.07-2.07v-6.37
		c0-1.53,0.54-2.99,1.3-4.14v33.36c0,1.38,1.15,2.53,2.53,2.53s2.53-1.15,2.53-2.53v-19.25h1.46v19.25c0,1.38,1.15,2.53,2.53,2.53
		s2.53-1.15,2.53-2.53v-33.36c0.84,1.15,1.3,2.61,1.3,4.14v6.37c0,1.15,0.92,2.07,2.07,2.07c1.15,0,2.07-0.92,2.07-2.07v-6.37
		C-5328.32,908.71-5333.39,903.64-5339.6,903.64z"/>
	<path d="M-5339.6,902.19c3.13,0,5.67-2.54,5.67-5.68c0-3.13-2.54-5.67-5.67-5.67c-3.13,0-5.68,2.54-5.68,5.67
		C-5345.27,899.65-5342.73,902.19-5339.6,902.19z"/>
	<path d="M-5307.39,914.92v5.83c1.33-0.33,2.72-0.53,4.14-0.58v-5.25c0.08-6.21-4.98-11.27-11.2-11.27
		c-6.21,0-11.27,5.06-11.27,11.27v6.37c0,1.15,0.92,2.07,2.07,2.07s2.07-0.92,2.07-2.07v-6.37c0-1.53,0.54-2.99,1.3-4.14v19.92
		c2.48-4.51,6.61-7.97,11.58-9.57v-10.34C-5307.85,911.93-5307.39,913.38-5307.39,914.92z"/>
	<path d="M-5314.44,902.19c3.13,0,5.67-2.54,5.67-5.68c0-3.13-2.54-5.67-5.67-5.67s-5.68,2.54-5.68,5.67
		C-5320.12,899.65-5317.58,902.19-5314.44,902.19z"/>
	<path class="st3" d="M-5320.27,944.14c0,0.49,0.15,0.96,0.4,1.35c-0.16-0.55-0.3-1.11-0.4-1.68V944.14z"/>
	<polygon class="st3" points="-5279.08,928.41 -5278.35,930.11 -5278.35,930.11 -5279.08,928.4 	"/>
	<path d="M-5313.75,933.59v10.55c0,1.38,1.15,2.53,2.53,2.53s2.53-1.15,2.53-2.53v-15.35
		C-5310.78,929.9-5312.52,931.57-5313.75,933.59z"/>
	<path class="st3" d="M-5303.56,941.23c-0.04-0.06-0.08-0.11-0.12-0.17c-0.03-0.06-0.06-0.13-0.08-0.19l-0.25,0.37H-5303.56z"/>
	<path d="M-5240.72,922.32c-1.97,0-3.86,0.33-5.64,0.91l-5.1-18.71l10.75-0.01c1.88,0,3.42,1.53,3.42,3.42
		c0,1.88-1.53,3.42-3.42,3.42c-0.76,0-1.37,0.61-1.37,1.37s0.61,1.37,1.37,1.37c3.39,0,6.15-2.76,6.15-6.15
		c0-3.39-2.76-6.15-6.15-6.15l-12.54,0.01c-0.06,0-0.12,0.03-0.18,0.04c-0.06,0.01-0.12,0-0.18,0.01c-0.03,0.01-0.05,0.03-0.08,0.04
		c-0.09,0.03-0.17,0.08-0.25,0.13c-0.07,0.04-0.14,0.08-0.21,0.14c-0.06,0.06-0.11,0.13-0.17,0.2c-0.05,0.07-0.11,0.14-0.14,0.22
		c-0.04,0.08-0.06,0.15-0.08,0.24c-0.03,0.09-0.05,0.18-0.06,0.28c0,0.03-0.02,0.06-0.02,0.09c0,0.06,0.03,0.12,0.04,0.18
		c0.01,0.06-0.01,0.12,0.01,0.18l2.93,10.74h-6.06c-0.17,0.95-0.43,1.86-0.76,2.73h5.31l-14.11,14.11c-0.21,0.88-0.3,1.77-0.24,2.72
		l0.05,1.34l16.9-16.9l1.64,6.04c-5.88,3-9.92,9.09-9.92,16.13c0,9.98,8.12,18.11,18.11,18.11c9.99,0,18.11-8.12,18.11-18.11
		C-5222.61,930.44-5230.73,922.32-5240.72,922.32z M-5240.72,955.8c-8.48,0-15.37-6.9-15.37-15.37c0-5.77,3.2-10.81,7.92-13.44
		l3.34,12.23c0,0,0,0,0,0.01c0.01,0.02,0.02,0.04,0.03,0.06c0.05,0.14,0.11,0.26,0.19,0.38c0.03,0.04,0.07,0.07,0.1,0.11
		c0.08,0.09,0.17,0.17,0.27,0.23c0.02,0.02,0.03,0.04,0.06,0.05l2.8,1.56c0.21,0.12,0.44,0.17,0.67,0.17c0.48,0,0.94-0.25,1.19-0.7
		c0.37-0.66,0.13-1.49-0.53-1.86l-2.3-1.28l-3.29-12.07c1.55-0.52,3.2-0.82,4.92-0.82c8.48,0,15.37,6.9,15.37,15.37
		C-5225.34,948.9-5232.24,955.8-5240.72,955.8z"/>
	<path d="M-5278.84,927.54l-4.55-10.55h11.13c0.75-1.05,1.25-1.93,1.56-2.73h-13.87l-3.56-8.26c1-0.09,1.98-0.18,2.84-0.26
		l-1.14-2.99l0.41-0.3l-9.11-0.82c-3.6-0.19-3.59,5.18,0,4.99c0,0,1.85-0.17,4.14-0.37l3.87,8.97l-6.4,9.48
		c-2.65-1.51-5.7-2.39-8.96-2.39c-0.36,0-0.71,0.01-1.07,0.03c-1.08,0.06-2.13,0.22-3.15,0.47c-0.68,0.16-1.35,0.36-1.99,0.6
		c-1.85,0.68-3.55,1.65-5.06,2.85c-0.51,0.41-1,0.84-1.46,1.29c-2.56,2.53-4.37,5.82-5.06,9.49c-0.21,1.09-0.32,2.22-0.32,3.37
		s0.11,2.28,0.32,3.37c0.11,0.57,0.24,1.13,0.4,1.68c2.19,7.53,9.15,13.05,17.38,13.05c9.52,0,17.33-7.39,18.04-16.74h2.55
		c0.22,0.85,0.59,1.64,1.08,2.35c0.23-1.26,0.74-2.39,1.47-3.33c-0.05-0.27-0.09-0.56-0.09-0.85c0-0.48,0.07-0.95,0.21-1.39
		l-0.08-1.09l-0.03-0.42l-0.21-2.68c-0.85,0.72-1.52,1.63-1.96,2.67c-0.27,0.63-0.46,1.3-0.55,2.01h-2.38
		c-0.39-5.18-2.96-9.76-6.81-12.82l5.42-8.03l4.03,9.35l2.16,5.01c0-1.39,0.2-2.79,0.56-4.18c0,0,0,0,0,0
		C-5279.01,928.12-5278.93,927.83-5278.84,927.54z M-5302.48,955.8c-6.36,0-11.83-3.88-14.16-9.4c-0.78-1.84-1.21-3.86-1.21-5.98
		c0-3.19,0.98-6.16,2.65-8.61c0.44-0.64,0.93-1.24,1.46-1.81c1.42-1.53,3.13-2.77,5.06-3.63c1.9-0.84,4-1.32,6.21-1.32
		c2.69,0,5.23,0.7,7.43,1.93l-8.56,12.68c-0.02,0.04-0.03,0.08-0.05,0.12c-0.04,0.08-0.08,0.17-0.11,0.26
		c-0.03,0.09-0.04,0.17-0.05,0.27c0,0.04-0.03,0.08-0.03,0.13c0,0.04,0.02,0.08,0.03,0.13c0.01,0.09,0.03,0.18,0.05,0.27
		c0,0.02,0.01,0.03,0.02,0.04c0.02,0.07,0.04,0.13,0.08,0.19c0.03,0.06,0.07,0.12,0.12,0.17c0.01,0.01,0.01,0.02,0.02,0.04
		c0.06,0.08,0.12,0.14,0.2,0.2c0.03,0.03,0.05,0.07,0.09,0.09c0.05,0.03,0.1,0.05,0.15,0.07c0.05,0.02,0.09,0.05,0.14,0.06
		c0.15,0.06,0.31,0.1,0.47,0.1h15.3C-5287.88,949.63-5294.47,955.8-5302.48,955.8z M-5299.91,939.06l7.12-10.55
		c3.13,2.55,5.23,6.3,5.61,10.55H-5299.91z"/>
	<path d="M-5262.02,917c0.42-0.88,0.76-1.78,0.98-2.73c0.21-0.89,0.33-1.82,0.33-2.81c0-5.34-3.65-10.33-11.74-10.33
		c-3.24,0-6.7,0.85-9.07,2.19c-0.35,0.2-0.68,0.41-0.98,0.62l0.54,1.42l1.14,3.01c1.76-1.34,4.57-2.18,7.1-2.18
		c4.43,0.07,6.68,2.46,6.68,6.05c0,0.69-0.1,1.37-0.26,2.03c-0.22,0.91-0.59,1.81-1.11,2.73c-0.83,1.5-2.02,3.07-3.55,4.86
		c-1.52,1.83-2.62,3.64-3.35,5.42c-0.37,0.91-0.64,1.81-0.82,2.7c-0.19,0.96-0.28,1.91-0.27,2.83c0.01,0.4,0.03,0.81,0.07,1.2
		l0.12,1.52l0.02,0.31h3.5h1.98l-0.07-1.83c0-0.05,0-0.1-0.01-0.15c-0.06-1.34,0.06-2.61,0.41-3.87c0.25-0.9,0.61-1.8,1.1-2.71
		c0.62-1.16,1.45-2.35,2.5-3.6C-5264.82,921.39-5263.12,919.28-5262.02,917z"/>
	<path d="M-5270.77,942.26c-0.71-0.63-1.63-1-2.73-1c-0.09,0-0.17,0.02-0.25,0.02c-1.37,0.07-2.51,0.72-3.2,1.76
		c-0.16,0.24-0.3,0.49-0.41,0.77c-0.23,0.56-0.35,1.19-0.35,1.87c0,2.46,1.69,4.36,4.15,4.36c0.48,0,0.93-0.07,1.34-0.19
		c1.8-0.54,2.87-2.17,2.87-4.17c0-0.25-0.03-0.49-0.06-0.72C-5269.56,943.84-5270.04,942.91-5270.77,942.26z"/>
</g>
<g>
	<path d="M98.6,71.52c-4.08,0-6.07-0.82-8.18-1.68c-2.21-0.9-4.49-1.84-9-1.84s-6.79,0.94-9,1.84c-2.11,0.86-4.1,1.68-8.22,1.68
		c-3.59,0-5.62-0.67-7.36-1.35l-0.74-0.33c-0.05-0.02-0.1-0.02-0.15-0.03c-0.02-0.01-0.04-0.02-0.07-0.02l-0.7-0.31
		c-0.28-0.11-0.57-0.21-0.79-0.28c-0.02-0.01-0.05-0.02-0.07-0.02c-0.01,0-0.02-0.01-0.02-0.01c-0.61-0.24-1.23-0.44-1.89-0.59
		c-1.61-0.39-3.36-0.58-5.36-0.58c0,0,0,0,0,0c-0.01,0-0.02,0-0.03,0c-4.51,0-6.79,0.94-9,1.84c-2.11,0.86-4.1,1.68-8.18,1.68
		s-6.08-0.82-8.18-1.68c-2.21-0.9-4.49-1.84-9-1.84c-0.59,0-1.07,0.48-1.07,1.07s0.48,1.07,1.07,1.07c4.08,0,6.08,0.82,8.18,1.68
		c2.21,0.91,4.49,1.84,9,1.84s6.79-0.94,9-1.84c2.11-0.86,4.1-1.68,8.22-1.68c1.82,0,3.4,0.17,4.84,0.52
		c0.54,0.15,1.07,0.31,1.73,0.54c0.26,0.09,0.52,0.18,0.78,0.28l0.34,0.15c0.13,0.06,0.26,0.12,0.4,0.18
		c0.05,0.02,0.11,0.04,0.18,0.05c0.14,0.06,0.29,0.12,0.43,0.18l0.27,0.11c1.96,0.76,4.21,1.5,8.17,1.5c0,0,0,0,0,0
		c0.01,0,0.02,0,0.03,0c4.51,0,6.79-0.94,9-1.84c2.11-0.86,4.1-1.68,8.18-1.68c4.08,0,6.07,0.82,8.18,1.68
		c2.21,0.91,4.49,1.84,9,1.84c0.59,0,1.07-0.48,1.07-1.07C99.67,72,99.19,71.52,98.6,71.52z"/>
	<path d="M12.7,60.15c1.5,0,2.82,0.11,4.04,0.34c0,0,0,0,0,0c1.65,0.32,2.86,0.81,4.14,1.33c1.9,0.78,3.86,1.58,7.22,1.78
		c0.5,0.05,1.07,0.07,1.78,0.07c4.07,0,6.34-0.78,8.31-1.57c0,0,0,0,0,0l0.67-0.27c2.12-0.86,4.12-1.68,8.25-1.68
		c1.81,0,3.39,0.17,4.83,0.52c0.55,0.15,1.08,0.31,1.71,0.54c0,0,0,0,0,0c0.01,0,0.02,0.01,0.03,0.01c0.21,0.07,0.42,0.14,0.63,0.22
		l0.88,0.38c0.04,0.02,0.1,0.03,0.16,0.04l0.06,0.03c0.06,0.03,0.12,0.05,0.18,0.08c0.01,0.01,0.02,0.01,0.03,0.01
		c0.02,0.01,0.05,0.02,0.07,0.03c0.09,0.03,0.18,0.07,0.36,0.15c1.97,0.76,4.23,1.5,8.21,1.5c4.51,0,6.79-0.94,9-1.84
		c1.27-0.52,2.48-1.02,4.12-1.34c1.22-0.23,2.55-0.34,4.06-0.34c4.08,0,6.07,0.81,8.17,1.68c0.64,0.26,1.28,0.52,1.98,0.76
		c0,0,0,0,0,0c1.43,0.5,3.52,1.08,7.03,1.08c0.59,0,1.07-0.48,1.07-1.07s-0.48-1.07-1.07-1.07c-2.75,0-4.47-0.37-5.76-0.77
		l-6.86-31.9c0.94-1.38,1.33-2.82,1.14-4.3c-0.27-2.09-1.66-4.15-4.21-6.28c0.46-0.73,0.73-1.57,0.73-2.44
		c0-2.43-1.92-4.44-4.36-4.65c0.01-0.17,0.02-0.35,0.02-0.53c0-3.51-2.94-6.37-6.56-6.37c-2.16,0-4.16,1.04-5.37,2.74H54.94
		c-2.09,0-4.11,0.74-5.68,2.07c-1.84,1.55-4.45,3.11-7.94,4.73c-0.64-0.66-1.48-1.09-2.41-1.21c0-0.08,0-0.16,0-0.23
		c0-2.95-2.48-5.35-5.52-5.35c-3.05,0-5.52,2.4-5.52,5.35c0,0.08,0,0.16,0.01,0.24c-1.99,0.27-3.53,1.93-3.53,3.93
		c0,1.23,0.59,2.31,1.48,3.04c-1.43,0.45-2.84,0.89-4.22,1.3c-2.45,0.73-4.24,2.15-5.04,3.98c-0.7,1.61-0.6,3.49,0.28,5.27
		c0.3,0.62,0.7,1.17,1.15,1.67L15.96,58.2c-1.01-0.13-2.09-0.2-3.26-0.2c-0.59,0-1.07,0.48-1.07,1.07S12.11,60.15,12.7,60.15z
		 M29.27,61.51V45.39c0-0.59-0.48-1.07-1.07-1.07s-1.07,0.48-1.07,1.07v15.98c-2.35-0.27-3.85-0.88-5.43-1.53
		c-1.09-0.44-2.21-0.9-3.61-1.25l1.93-25.07c0.17,0.1,0.35,0.19,0.52,0.29c0.06,0.03,0.12,0.07,0.19,0.1
		c0.38,0.19,0.78,0.36,1.19,0.5c0.09,0.03,0.18,0.06,0.28,0.09c0.43,0.13,0.86,0.25,1.31,0.33c0.55,0.09,1.12,0.2,1.71,0.31
		c0.21,0.04,0.43,0.08,0.65,0.12c0.38,0.07,0.76,0.14,1.16,0.22c0.29,0.06,0.58,0.12,0.87,0.18c0.33,0.07,0.66,0.13,0.99,0.21
		c0.33,0.07,0.66,0.15,0.99,0.22c0.3,0.07,0.59,0.13,0.89,0.2c0.35,0.08,0.7,0.17,1.05,0.26c0.27,0.07,0.54,0.13,0.8,0.2
		c0.36,0.09,0.71,0.19,1.06,0.29c0.25,0.07,0.5,0.14,0.74,0.21c0.34,0.1,0.67,0.21,1,0.31c0.24,0.08,0.48,0.15,0.71,0.23
		c0.3,0.1,0.59,0.21,0.88,0.31c0.15,0.05,0.29,0.11,0.43,0.17l-0.69,22.09c-1.68,0.64-3.59,1.16-6.85,1.16
		C29.66,61.52,29.47,61.52,29.27,61.51z M90.45,59.84c-2.21-0.9-4.49-1.84-8.99-1.84c-1.14,0-2.19,0.06-3.18,0.19v-7.99
		c0-0.59-0.48-1.07-1.07-1.07s-1.07,0.48-1.07,1.07v8.39c-1.42,0.35-2.57,0.81-3.66,1.26c-2.11,0.86-4.1,1.68-8.22,1.68
		c-3.59,0-5.55-0.64-7.32-1.32c-0.13-0.07-0.27-0.12-0.4-0.17c-0.14-0.07-0.29-0.15-0.44-0.2c-0.05-0.02-0.12-0.03-0.19-0.05
		l-0.84-0.36c-0.25-0.09-0.48-0.18-0.66-0.23c-0.01-0.01-0.03-0.01-0.04-0.01c0,0,0,0,0,0c-0.01,0-0.03-0.01-0.04-0.01
		c-0.61-0.24-1.22-0.43-1.87-0.58C50.85,58.19,49.1,58,47.08,58c-3.93,0-6.18,0.71-8.16,1.49l0.64-20.33
		c0.19,0.07,0.38,0.13,0.57,0.19c0.2,0.07,0.4,0.14,0.61,0.2c0.3,0.09,0.61,0.16,0.92,0.24c0.2,0.05,0.39,0.1,0.59,0.14
		c0.35,0.07,0.7,0.11,1.05,0.16c0.17,0.02,0.34,0.05,0.51,0.07c0.53,0.05,1.06,0.08,1.61,0.08h23.03c0.01,0,0.01,0,0.02,0
		c1.56,0,3-0.72,3.97-1.96c0.27-0.34,0.53-0.66,0.8-0.97c0.02-0.02,0.04-0.04,0.05-0.06c0.86-0.97,1.74-1.76,2.64-2.37
		c0.15-0.1,0.3-0.18,0.45-0.27c0.15-0.09,0.3-0.19,0.46-0.28c0.23-0.12,0.46-0.22,0.69-0.32c0.08-0.03,0.16-0.08,0.24-0.11
		c0.19-0.08,0.38-0.13,0.58-0.19c0.12-0.04,0.25-0.09,0.37-0.12c0.11-0.03,0.22-0.04,0.33-0.07c0.21-0.05,0.42-0.1,0.64-0.13
		c0.03,0,0.05-0.01,0.07-0.01c0.13-0.02,0.28-0.05,0.43-0.08c0.14-0.03,0.28-0.07,0.41-0.1c0.04-0.01,0.07-0.02,0.1-0.03
		c0.19-0.06,0.36-0.12,0.53-0.19c0.01,0,0.02-0.01,0.03-0.01c0.2-0.09,0.39-0.18,0.57-0.3c0,0,0.01,0,0.01-0.01
		c0.1-0.07,0.19-0.13,0.29-0.2c0.33-0.21,0.65-0.43,0.95-0.65c0.14-0.11,0.27-0.21,0.4-0.32c0.24-0.18,0.47-0.37,0.69-0.56
		c0.03-0.02,0.06-0.05,0.08-0.07l6.24,29.01C90.48,59.85,90.47,59.84,90.45,59.84z M72.78,6.42c2.43,0,4.41,1.89,4.41,4.22
		c0,0.48-0.07,0.91-0.23,1.31c-0.14,0.37-0.07,0.78,0.19,1.08c0.26,0.3,0.65,0.44,1.04,0.35c0.27-0.06,0.5-0.09,0.69-0.09
		c1.46,0,2.65,1.13,2.65,2.52c0,0.69-0.29,1.34-0.8,1.82c-0.49,0.45-1.15,0.7-1.85,0.7h-2.12c0,0,0,0,0,0
		c-0.08-0.27-0.19-0.54-0.32-0.79c-0.02-0.04-0.04-0.08-0.06-0.11c-0.13-0.24-0.29-0.47-0.46-0.69c-0.03-0.04-0.07-0.08-0.1-0.12
		c-0.18-0.22-0.38-0.42-0.6-0.62c-0.03-0.03-0.07-0.05-0.1-0.08c-0.23-0.2-0.48-0.38-0.75-0.55c-0.01,0-0.01-0.01-0.01-0.01
		c-0.27-0.17-0.56-0.32-0.87-0.45c-0.05-0.02-0.09-0.04-0.14-0.06c-0.29-0.12-0.6-0.23-0.92-0.32c-0.06-0.02-0.12-0.03-0.18-0.05
		c-0.32-0.09-0.66-0.15-1-0.2c-0.05-0.01-0.1-0.01-0.16-0.02c-0.37-0.04-0.74-0.07-1.12-0.07c-0.36,0-0.72,0.03-1.07,0.07
		c-0.11,0.01-0.21,0.03-0.31,0.05c-0.25,0.04-0.5,0.09-0.74,0.15c-0.1,0.02-0.2,0.05-0.3,0.08c-0.3,0.08-0.59,0.18-0.87,0.3
		c-0.06,0.02-0.11,0.05-0.17,0.07c-0.25,0.11-0.49,0.23-0.71,0.36c-0.11,0.06-0.21,0.13-0.31,0.2c-0.15,0.1-0.3,0.2-0.44,0.31
		c-0.1,0.08-0.21,0.16-0.3,0.24c-0.15,0.13-0.28,0.27-0.41,0.41c-0.05,0.06-0.12,0.11-0.16,0.16c-0.01-0.04-0.03-0.09-0.05-0.13
		c-0.01-0.04-0.02-0.08-0.03-0.13c-0.03-0.16-0.05-0.32-0.05-0.48c0-1.39,1.18-2.52,2.63-2.52c0.2,0,0.42,0.03,0.71,0.09
		c0.38,0.08,0.78-0.05,1.04-0.35c0.26-0.3,0.33-0.71,0.19-1.08c-0.15-0.4-0.23-0.83-0.23-1.31c0-0.71,0.19-1.41,0.55-2.03
		C69.68,7.26,71.16,6.42,72.78,6.42z M64.2,21.97c0.41,0.08,0.82-0.08,1.06-0.4c0.25-0.33,0.29-0.77,0.11-1.13
		c-0.14-0.27-0.2-0.56-0.2-0.9c0-0.21,0.03-0.39,0.09-0.58c0.01-0.02,0.01-0.04,0.02-0.07c0.45-1.47,2.42-2.54,4.68-2.54
		c2.56,0,4.76,1.43,4.8,3.18c0,0.34-0.06,0.63-0.2,0.9c-0.18,0.37-0.14,0.81,0.11,1.13c0.25,0.33,0.66,0.48,1.06,0.4
		c0.24-0.05,0.51-0.07,0.78-0.07c1.71,0,2.9,0.96,2.9,1.82c0,0.98-1.36,1.83-2.9,1.83H63.42c-1.55,0-2.9-0.86-2.9-1.83
		c0-0.86,1.19-1.82,2.9-1.82C63.69,21.89,63.97,21.92,64.2,21.97z M28.43,14.71c0.16,0,0.33,0.02,0.49,0.06
		c0.4,0.1,0.81-0.03,1.07-0.34c0.27-0.31,0.34-0.74,0.18-1.11c-0.11-0.28-0.17-0.61-0.17-0.96c0-1.76,1.51-3.2,3.37-3.2
		c1.86,0,3.37,1.44,3.37,3.2c0,0.38-0.05,0.71-0.16,0.96c-0.15,0.38-0.08,0.81,0.19,1.12c0.27,0.31,0.69,0.43,1.08,0.33
		c0.33-0.09,0.78-0.07,1.15,0.06c-0.06,0.02-0.12,0.05-0.18,0.07c-0.6,0.25-1.21,0.5-1.84,0.75c-0.04,0.02-0.08,0.03-0.12,0.05
		c-0.65,0.26-1.32,0.51-2.02,0.77c-0.14,0.05-0.29,0.11-0.43,0.16c-0.68,0.25-1.39,0.51-2.12,0.77c-0.13,0.05-0.27,0.09-0.41,0.14
		c-0.7,0.25-1.43,0.5-2.17,0.75c-0.07,0.02-0.13,0.04-0.19,0.07h-1.11c-1.07,0-1.94-0.82-1.94-1.83
		C26.49,15.52,27.36,14.71,28.43,14.71z M18.54,25.71c0.54-1.24,1.85-2.23,3.68-2.78c2.53-0.75,5.17-1.59,7.85-2.48
		c0.56-0.19,1.11-0.37,1.65-0.56c1.01-0.35,1.98-0.69,2.91-1.03c0.13-0.05,0.25-0.09,0.38-0.14c2.38-0.88,4.51-1.74,6.43-2.6
		c0,0,0,0,0,0c0,0,0,0,0,0c4.07-1.84,7.09-3.6,9.21-5.4c1.19-1.01,2.72-1.56,4.3-1.56H66.4c-0.04,0.14-0.06,0.29-0.08,0.44
		c-0.02,0.09-0.04,0.18-0.05,0.27c-0.03,0.26-0.05,0.52-0.05,0.78c0,0.18,0.01,0.36,0.02,0.53c-2.44,0.21-4.36,2.22-4.36,4.66
		c0,0.32,0.04,0.63,0.11,0.94c0.02,0.1,0.05,0.19,0.08,0.28c0.06,0.21,0.12,0.41,0.21,0.61c0.05,0.1,0.1,0.2,0.15,0.3
		c0.1,0.18,0.2,0.35,0.32,0.52c0.07,0.09,0.13,0.19,0.21,0.27c0.04,0.05,0.07,0.11,0.12,0.15c-0.03,0.2-0.04,0.4-0.04,0.61
		c0,0.08,0,0.15,0.01,0.23c-2.6,0.16-4.66,1.87-4.66,3.95c0,2.23,2.22,3.98,5.05,3.98h13.09c2.83,0,5.05-1.75,5.05-3.98
		c0-0.23-0.03-0.46-0.08-0.68c-0.01-0.05-0.02-0.1-0.04-0.15c-0.06-0.21-0.13-0.42-0.23-0.62c-0.01-0.03-0.03-0.05-0.05-0.08
		c-0.1-0.18-0.21-0.35-0.34-0.52c-0.03-0.04-0.06-0.08-0.09-0.12c-0.15-0.18-0.31-0.34-0.49-0.5c-0.04-0.03-0.08-0.06-0.11-0.09
		c-0.17-0.13-0.34-0.26-0.53-0.38c-0.04-0.02-0.07-0.05-0.11-0.07c-0.02-0.01-0.03-0.02-0.05-0.03c0.05-0.01,0.1-0.03,0.15-0.03
		c0.22-0.03,0.43-0.08,0.63-0.14c0.11-0.03,0.22-0.05,0.33-0.09c0.25-0.09,0.49-0.21,0.72-0.34c0.05-0.03,0.1-0.04,0.15-0.07
		c2.19,1.8,3.4,3.49,3.6,5.03c0.14,1.05-0.19,2.07-1,3.12C84.01,27.98,84,28,83.98,28.02c-0.1,0.13-0.23,0.27-0.35,0.4
		c-0.09,0.1-0.17,0.2-0.26,0.3c-0.13,0.13-0.28,0.27-0.43,0.4c-0.11,0.1-0.21,0.2-0.33,0.3c-0.14,0.12-0.3,0.24-0.46,0.36
		c-0.15,0.12-0.29,0.23-0.44,0.35c-0.13,0.09-0.28,0.19-0.41,0.28c-0.2,0.14-0.39,0.27-0.61,0.41c-0.01,0-0.01,0.01-0.02,0.01
		c-0.14,0.09-0.31,0.16-0.49,0.22c-0.04,0.01-0.09,0.03-0.14,0.04c-0.19,0.06-0.4,0.11-0.65,0.14c-0.01,0-0.03,0.01-0.04,0.01
		c-0.28,0.04-0.56,0.11-0.84,0.17c-0.11,0.02-0.22,0.04-0.33,0.07c-0.27,0.07-0.54,0.17-0.81,0.26c-0.11,0.04-0.23,0.07-0.34,0.11
		c-0.31,0.12-0.61,0.26-0.91,0.41c-0.07,0.03-0.13,0.06-0.2,0.09c-1.47,0.77-2.86,1.89-4.2,3.4c-0.33,0.37-0.66,0.77-0.99,1.19
		c-0.55,0.71-1.41,1.14-2.29,1.14l-23.03,0c-1.99,0-3.87-0.38-5.57-1.13c-0.06-0.03-0.08-0.04-0.14-0.06
		c-0.15-0.07-0.3-0.14-0.46-0.21l-0.26-0.12c0,0,0,0,0,0l-0.03-0.01c-4.08-1.72-10.45-3.04-15.07-3.84
		c-1.56-0.27-2.98-0.99-4.02-2.05c-0.44-0.43-0.8-0.93-1.07-1.48C18.17,27.95,18.09,26.75,18.54,25.71z"/>
	<path d="M77.21,41.45c-0.59,0-1.07,0.48-1.07,1.07v2.86c0,0.59,0.48,1.07,1.07,1.07s1.07-0.48,1.07-1.07v-2.86
		C78.28,41.94,77.8,41.45,77.21,41.45z"/>
</g>
</svg>
