<?xml version="1.0" encoding="utf-8"?>
<!-- Generator: Adobe Illustrator 28.1.0, SVG Export Plug-In . SVG Version: 6.00 Build 0)  -->
<svg version="1.1" id="Layer_1" xmlns="http://www.w3.org/2000/svg" xmlns:xlink="http://www.w3.org/1999/xlink" x="0px" y="0px"
	 viewBox="0 0 110.6 76.5" style="enable-background:new 0 0 110.6 76.5;" xml:space="preserve">
<style type="text/css">
	.st0{display:none;}
	.st1{display:inline;fill:none;}
	.st2{fill:#808080;}
	.st3{fill:#FFFFFF;}
</style>
<g id="Layer_2_00000073722119373351752270000017113015111246931634_" class="st0">
	<line class="st1" x1="-24.1" y1="74.5" x2="142.1" y2="74.5"/>
	<line class="st1" x1="-24.1" y1="2" x2="142.1" y2="2"/>
</g>
<g>
	<g>
		<path class="st2" d="M2198.7,1892.5c-0.1,0.6-0.2,0.9-0.8,1.1c-0.3,0.1-0.6,0.2-0.8,0.4c-0.1,0.1-0.1,0.2-0.2,0.3
			c0.1,0.1,0.3,0.2,0.4,0.2c0.4,0,0.7-0.1,1.1-0.2c0.1,0.9-0.1,1.1-1,1.3c-3.8,1.1-7.6,2.2-11.4,3.1c-3.3,0.8-7-1.7-7.4-5.1
			c-0.2-1.7-0.4-3.4-0.4-5.1c-0.1-2.1-0.9-4-1.9-5.8c-3.5-6.1-7-12.2-10.5-18.2c-0.6-1-1.2-2.1-1.8-3.1c-0.1-0.3-0.2-0.4,0.1-0.6
			c1.1-0.6,2.2-1.3,3.4-1.9c0.5,0.8,0.9,1.5,1.3,2.3c4,6.9,8,13.9,12,20.8c1,1.8,1.4,3.7,1.3,5.7c-0.1,1.3-0.2,2.6-0.2,3.9
			c0,1.7,1.2,2.9,3,2.9c4.5-0.1,8.9-0.6,13.2-1.8C2198.1,1892.6,2198.4,1892.5,2198.7,1892.5z"/>
		<path class="st2" d="M2154.7,1847.3c0.2,0.3,0.4,0.7,0.6,1c0.5,0.8,1,0.9,1.7,0.4c1.1-0.6,2.2-1.3,3.3-1.9
			c0.8-0.4,1.4-0.4,1.9,0.2c0.6,0.6,0.6,1.3,0.1,2.1c-0.1,0.1-0.1,0.2-0.2,0.4c0.9-0.2,1.6-0.1,2,0.7c0.4,0.8,0.1,1.4-0.4,2.2
			c1.1-0.2,1.8,0,2.2,0.9c0.4,1.1-0.2,1.8-1.2,2.2c0,0.1,0.1,0.1,0.1,0.1c0.2,0,0.4,0,0.6,0c0.7,0,1.4,0.4,1.6,1
			c0.2,0.7,0,1.4-0.7,1.8c-1.6,0.9-3.2,1.9-4.8,2.8c-1.2,0.7-2.5,1.1-3.8,1.3s-2.6,0.6-3.8,1.2c-0.8,0.4-1.2,0.3-1.6-0.5
			c-1.2-2.1-2.4-4.2-3.6-6.3c-0.4-0.6-0.3-1.1,0.2-1.5c2-1.4,3.2-3.4,4.1-5.5c0.4-0.8,0.9-1.6,1.4-2.3
			C2154.4,1847.4,2154.5,1847.4,2154.7,1847.3z"/>
		<path class="st2" d="M2140.8,1831.4c0.9-0.1,1.6-0.2,2.4-0.3c0.1,0,0.3,0,0.4,0.1c2.9,1.3,5.8,2.6,8.6,4c1.5,0.7,2.6,1.9,3.5,3.4
			c1.3,2.2,2.6,4.5,3.9,6.8c0.3,0.5,0.2,0.7-0.3,0.9c-1,0.5-2,1.1-3.1,1.8c-0.5-0.8-0.9-1.6-1.4-2.3c-0.9-1.6-1.8-3.2-2.8-4.7
			c-0.8-1.4-2.1-2.4-3.4-3.4c-2.5-1.9-5-3.9-7.5-5.8C2141.1,1831.7,2141,1831.6,2140.8,1831.4z"/>
	</g>
	<path class="st2" d="M2202.7,1888.8l-4.1,1.2c-0.1,0-0.1,0.2-0.1,0.3l0.2,0.6c0,0.1,0.1,0.2,0.2,0.2l1.4-0.4l3.4,11.1l1.1,1.1
		l0.3-1.5l-3.4-11.1l1.4-0.4c0.1,0,0.1-0.2,0.1-0.3l-0.2-0.6C2202.9,1888.9,2202.8,1888.8,2202.7,1888.8z"/>
</g>
<g>
	<path class="st3" d="M56.2,55.8c-0.7-1-1.4-1.9-2.2-2.9c-0.3-0.4-0.6-0.8-0.7-1.3c-0.1-0.7-0.3-1.3-0.4-2c-0.4-2.4-0.8-4.8-1.2-7.2
		c-0.3-1.6-0.5-3.2-0.8-4.8c-0.1-0.6-0.2-1.2-0.3-1.9c0.7,0.1,1.1-0.2,1.5-0.7c0.2-0.2,0.4-0.5,0.6-0.8c0.7-1.3,0.9-2.6,0.7-4
		c-0.2-1.8-1-3.4-2-4.9c-1-1.4-2.2-2.6-3.5-3.6c-1.5-1.1-3.1-2.1-4.8-2.8c-0.2-0.1-0.4-0.2-0.3-0.4c0-0.1,0-0.2,0-0.3
		c-0.1-1.6-0.4-3.1-0.9-4.6c-0.2-0.8-0.6-1.5-1-2.2c-0.3-0.4-0.6-0.7-1.1-0.8c-0.7-0.2-1.4,0-2,0.4c-1.2,0.9-2.2,2-3,3.3
		c-0.4,0.7-0.7,1.4-0.9,2.2c0,0.1,0,0.2-0.2,0.2c-0.3,0-0.5,0-0.8,0c-0.1,0-0.2,0-0.2-0.2c-0.1-0.3-0.3-0.6-0.4-0.8
		c-0.8-1.5-1.8-2.9-3.3-4c-0.7-0.5-1.5-1-2.4-1.2c-0.2-0.1-0.4-0.1-0.6,0c-0.7,0.1-1.2,0.5-1.3,1.2c-0.2,0.9-0.4,1.7-0.6,2.6
		c-0.1,0.7-0.2,1.4-0.2,2.1c0,0.1-0.1,0.2-0.1,0.2c-0.7,0.2-1.5,0.3-2.2,0.5c-1.3,0.3-2.6,0.7-3.8,1.4c-0.4,0.2-0.8,0.5-1,0.9
		c-0.3,0.5-0.1,1.2,0.4,1.5C17.4,21,17.7,21,18,21c0.5-0.1,1-0.3,1.4-0.5c1.2-0.6,2.5-1,3.8-1.4c0.2-0.1,0.4-0.1,0.6-0.1
		c0.1,0.6,0.2,1.2,0.3,1.8c-0.3,0-0.6,0.1-0.9,0.1c-1.4,0.3-2.8,0.7-4.2,1.1c-1.1,0.4-2.3,0.9-3.4,1.4c-1.8,0.9-3.4,1.9-5,3.2
		c-1,0.8-2,1.7-2.8,2.7c-1.6,1.9-2.8,4.1-3.4,6.5c-0.1,0.3-0.1,0.6-0.2,0.9c0,0,0,0,0.1,0c0,0,0,0,0,0l-0.6,4.5l0,0
		c-0.7,0.7-1.3,1.4-1.8,2.3c0,0,0,0.1,0,0.2v23.4l22.8,0l1.7,0c0,0.1-0.1,0.1-0.1,0.2c0.9,0,1.8,0,2.7,0c0.1,0,0.1,0,0.2-0.1
		l2.9,0.1c0,0,0,0,0,0c0.4,0,0.8,0,1.2,0l0.1,0l0,0c0.4,0,0.8,0,1.2,0c0,0,0.1-0.1,0.1-0.2c0.1-1-0.1-1.8-0.7-2.6
		c-0.7-0.9-1.6-1.7-2.5-2.5c-0.3-0.3-0.4-0.6-0.4-1c0-0.1,0-0.2,0-0.3c0.1-0.8,0.2-1.5,0.4-2.3c0.2-1.2,0.5-2.3,0.7-3.5
		c0-0.2,0.1-0.3,0.3-0.3c0-0.1,0-0.1-0.1-0.2c0.1,0.1,0.2,0.1,0.2,0.1c0,0,0.1,0.1,0.1,0.1c0.7,0.4,1.4,0.9,2.1,1.3
		c1.5,0.9,3,1.9,4.5,2.8c0.4,0.3,0.7,0.6,0.8,1.1c0.1,0.3,0.1,0.6,0.1,0.9c0.1,0.8,0.2,1.6,0.6,2.3c0.3,0.4,0.5,0.8,0.8,1.2
		c0.8,1.1,1.5,2.3,2.3,3.3c0.8,1,1.8,1.6,3.1,1.5c0.6,0,1.2-0.1,1.9-0.1c1.1,0,2.3,0,3.4-0.1c0.6,0,1.1-0.1,1.6-0.4
		c0.8-0.5,1.3-1.1,1.3-2c0-0.6,0.1-1.2,0-1.8c0-0.6,0.2-1,0.6-1.4c0.7-0.7,1.1-1.5,1.2-2.5c0-0.5,0-1.1,0.1-1.6
		C57.4,58.1,57,56.9,56.2,55.8z"/>
	<g>
		<path d="M32.1,67.5c0.1-0.7-0.2-1.2-0.6-1.6c-0.4-0.4-0.8-0.8-1.2-1.3c0,0-0.1,0-0.1,0c-0.1,0.3-0.3,0.7-0.4,1
			c-0.2,0.6-0.4,1.1-0.6,1.7c0,0.1-0.1,0.2-0.2,0.2c-0.9,0-1.8,0-2.7,0c0-0.1,0.1-0.2,0.1-0.3c0.7-1.6,1.3-3.2,1.8-4.8
			c0.3-1,0.4-2,0.6-3c0.3-1.7,0.6-3.4,0.9-5.2c0-0.2,0.1-0.4,0.2-0.6c0-0.1,0-0.1,0-0.2c-0.2-0.4-0.5-0.6-0.8-0.8
			c-1-0.6-1.9-1.2-2.7-1.9c-1.2-1.1-2.1-2.4-2.8-3.8c-0.9-1.8-1.3-3.7-1.3-5.7c0-1.2,0.1-2.4,0.5-3.6c0.1-0.4,0.4-0.8,0.7-1
			c0.4-0.3,1-0.3,1.5,0c0.4,0.3,0.6,0.8,0.5,1.3c0,0.1-0.1,0.2-0.1,0.3c-0.5,1.1-0.6,2.3-0.5,3.5c0.1,1.6,0.5,3.2,1.3,4.7
			c0.8,1.5,2,2.6,3.3,3.5c1.6,1,3.1,2,4.7,3c2.3,1.5,4.7,3,7,4.4c0.9,0.6,1.3,1.4,1.4,2.4c0,0.4,0.1,0.8,0.1,1.2
			c0,0.6,0.2,1.1,0.5,1.6c0.8,1.3,1.7,2.5,2.6,3.7c0.4,0.7,1.1,0.8,1.8,0.8c1.1-0.1,2.3-0.1,3.4-0.1c0.4,0,0.9,0,1.3,0
			c0.3,0,0.5-0.1,0.6-0.5c0-0.2,0.1-0.4,0.1-0.7c0-0.7,0-1.5,0.2-2.2c0.2-0.5,0.4-1,0.8-1.3c0.5-0.4,0.8-1,0.8-1.6c0-0.5,0-1,0-1.4
			c0-0.5-0.2-1-0.5-1.4c-0.8-1.1-1.6-2.2-2.4-3.3c-0.5-0.7-0.9-1.4-1.1-2.2c-0.2-0.7-0.3-1.4-0.4-2c-0.3-2-0.7-4-1-6
			c-0.3-1.9-0.6-3.8-1-5.7c-0.3-1.5-0.5-3-0.8-4.5c-0.4-1.8-1-3.4-2-5c-0.5-0.7-1-1.3-1.6-1.9c-0.2-0.2-0.4-0.3-0.6-0.4
			c0,0-0.1,0-0.1,0c-0.5,0.1-0.9,0.1-1.4,0.2c0.7,2,0.5,3.8-1.1,5.3c-1,1-2.3,1.2-3.7,1.2c0.3-0.3,0.7-0.5,1-0.8
			c1.3-1.3,1.8-2.8,1.5-4.6c-0.1-0.3-0.2-0.6-0.4-0.9c-0.2-0.3-0.5-0.4-0.8-0.4c-1.6-0.3-3-0.9-4.4-1.8c-0.7-0.4-1.3-0.9-1.8-1.5
			c-0.3-0.3-0.5-0.7-0.5-1.2c0-0.4,0-0.7,0-1.1c-0.1-1-0.4-2-0.9-3c-0.6-1.2-1.3-2.3-2.2-3.3c-0.5-0.5-1-1-1.6-1.3
			c-0.2-0.1-0.2-0.1-0.3,0.1c-0.4,1.8-0.6,3.7-0.4,5.6c0.1,1.2,0.4,2.2,1.1,3.2c0.4,0.6,0.9,1.1,1.7,1.3c0.4,0.1,0.6,0.4,0.6,0.8
			c0.1,0.4-0.1,0.8-0.5,1c-0.6,0.3-1.3,0.3-1.9,0c-0.9-0.3-1.5-0.9-2.1-1.7c0,0,0,0,0,0c-0.2-0.4-0.5-0.4-0.8-0.4
			c-1.1,0.2-2.3,0.4-3.4,0.8c-2.8,0.8-5.4,2.1-7.8,3.8c-1.4,1-2.6,2.1-3.8,3.2c-1.2,1.2-2.4,2.5-3.6,3.8C5.4,35.4,5,36,4.5,36.6
			c-0.1,0.1-0.1,0.1-0.2,0.2c0,0,0,0-0.1,0c0.1-0.3,0.1-0.6,0.2-0.9c0.6-2.4,1.7-4.6,3.4-6.5c0.9-1,1.8-1.9,2.8-2.7
			c1.5-1.2,3.2-2.3,5-3.2c1.1-0.5,2.2-1,3.4-1.4c1.4-0.5,2.8-0.9,4.2-1.1c0.3-0.1,0.6-0.1,0.9-0.1c-0.1-0.6-0.2-1.2-0.3-1.8
			c-0.2,0-0.4,0.1-0.6,0.1c-1.3,0.4-2.6,0.8-3.8,1.4C18.9,20.7,18.5,21,18,21c-0.3,0-0.6,0-0.9-0.1c-0.6-0.3-0.8-0.9-0.4-1.5
			c0.3-0.4,0.6-0.7,1-0.9c1.2-0.7,2.5-1.1,3.8-1.4c0.7-0.2,1.5-0.3,2.2-0.5c0.1,0,0.1-0.1,0.1-0.2c0.1-0.7,0.1-1.4,0.2-2.1
			c0.2-0.9,0.3-1.8,0.6-2.6c0.2-0.7,0.7-1.1,1.3-1.2c0.2,0,0.4,0,0.6,0c0.9,0.2,1.7,0.7,2.4,1.2c1.4,1.1,2.4,2.4,3.3,4
			c0.1,0.3,0.3,0.6,0.4,0.8c0.1,0.1,0.1,0.2,0.2,0.2c0.3,0,0.5,0,0.8,0c0.2,0,0.2-0.1,0.2-0.2c0.2-0.8,0.5-1.5,0.9-2.2
			c0.8-1.3,1.7-2.4,3-3.3c0.6-0.4,1.3-0.6,2-0.4c0.5,0.1,0.8,0.4,1.1,0.8c0.5,0.7,0.8,1.4,1,2.2c0.5,1.5,0.7,3,0.9,4.6
			c0,0.1,0,0.2,0,0.3c0,0.3,0.1,0.4,0.3,0.4c1.7,0.7,3.3,1.7,4.8,2.8c1.3,1,2.5,2.2,3.5,3.6c1,1.5,1.8,3.1,2,4.9
			c0.2,1.4,0,2.8-0.7,4c-0.2,0.3-0.4,0.6-0.6,0.8c-0.4,0.4-0.9,0.7-1.5,0.7c0.1,0.7,0.2,1.3,0.3,1.9c0.3,1.6,0.5,3.2,0.8,4.8
			c0.4,2.4,0.8,4.8,1.2,7.2c0.1,0.7,0.3,1.3,0.4,2c0.1,0.5,0.4,0.9,0.7,1.3c0.7,0.9,1.5,1.9,2.2,2.9c0.8,1.1,1.2,2.3,1.2,3.7
			c0,0.5,0,1.1-0.1,1.6c-0.1,1-0.5,1.8-1.2,2.5c-0.4,0.4-0.6,0.8-0.6,1.4c0,0.6,0,1.2,0,1.8c0,0.9-0.5,1.6-1.3,2
			c-0.5,0.3-1.1,0.4-1.6,0.4c-1.1,0-2.3,0.1-3.4,0.1c-0.6,0-1.2,0.1-1.9,0.1c-1.3,0.1-2.4-0.5-3.1-1.5c-0.8-1.1-1.6-2.2-2.3-3.3
			c-0.3-0.4-0.5-0.8-0.8-1.2c-0.4-0.7-0.6-1.5-0.6-2.3c0-0.3-0.1-0.6-0.1-0.9c-0.1-0.5-0.3-0.8-0.8-1.1c-1.5-0.9-3-1.9-4.5-2.8
			c-0.7-0.4-1.4-0.9-2.1-1.3c0,0-0.1-0.1-0.1-0.1c0,0-0.1-0.1-0.2-0.1c0,0.1,0,0.1,0.1,0.2c-0.2,0-0.3,0.2-0.3,0.3
			c-0.2,1.2-0.5,2.3-0.7,3.5c-0.1,0.8-0.3,1.5-0.4,2.3c0,0.1,0,0.2,0,0.3c0,0.4,0.1,0.7,0.4,1c0.9,0.8,1.7,1.6,2.5,2.5
			c0.6,0.8,0.8,1.6,0.7,2.6c0,0.1-0.1,0.2-0.1,0.2C33.8,67.5,33,67.5,32.1,67.5z M50.2,33.4c0.1-0.1,0.2-0.2,0.2-0.3
			c0.2-0.4,0.4-0.9,0.5-1.3c0.2-0.9,0-1.8-0.3-2.6c-0.6-1.7-1.6-3.1-2.9-4.4c-1.1-1.1-2.5-2-3.8-2.8c-1.6-0.9-3.2-1.5-5-2
			c-1.7-0.5-3.5-0.8-5.4-1c0,0,0,0.1,0,0.1c0.1,0.5,0.3,1,0.4,1.6c0.1,0.6,0.3,1.1,0.9,1.4c0.8,0.5,1.6,1,2.5,1.4
			c1.2,0.5,2.5,0.8,3.8,0.9c0.8,0,1.6,0,2.4-0.3c0.5-0.1,1-0.1,1.5,0.3c0.3,0.3,0.7,0.5,1,0.8c1.4,1.4,2.5,3,3.2,4.8
			C49.6,31.1,49.9,32.2,50.2,33.4z M36.2,16.9c1.5,0.1,2.9,0.5,4.3,1c0-0.1,0-0.1,0-0.1c-0.1-1.2-0.3-2.4-0.7-3.6
			c-0.1-0.4-0.3-0.7-0.7-1C37.8,14.1,36.8,15.3,36.2,16.9z"/>
		<path d="M2,64.2c0-0.1,0-0.1,0-0.1c0-0.7,0-1.4,0-2.1c0-0.2,0.1-0.2,0.2-0.2c1.4,0,2.8,0,4.2,0c1.5,0,3-0.4,4.4-1.2
			c1.2-0.7,2.2-1.7,3-2.9c1.2-1.9,1.8-4,1.8-6.2c0-1.7,0-3.5,0.1-5.2c0.1-2.3,0.5-4.6,1.6-6.7c0.3-0.5,0.6-1,0.9-1.5
			c0-0.1,0.1-0.1,0.2-0.2c-0.1,2-0.2,3.9-0.2,5.9c0,2.6,0,5.1,0,7.7c0,2.8-0.8,5.4-2.4,7.7c-1.3,1.8-2.9,3.2-5,4.1
			c-1.6,0.7-3.2,0.9-4.9,1c-1.2,0-2.5,0-3.7,0C2.1,64.2,2.1,64.2,2,64.2z"/>
		<path d="M2,48.2c0-0.5,0-0.9,0-1.4c0-1,0-2,0-3c0-0.1,0-0.1,0-0.2c0.9-1.6,2.2-2.8,3.7-3.9c1.8-1.3,3.8-2.3,5.9-3.1
			c1.4-0.5,2.8-1,4.2-1.6c1.9-0.7,3.6-1.8,5.2-3.1c1.4-1.2,2.6-2.6,3.4-4.3c0.2-0.4,0.4-0.9,0.6-1.3c0.2-0.4,0.4-0.6,0.8-0.7
			c0.6-0.2,1.2,0.1,1.4,0.8c0.1,0.7,0.1,1.3-0.2,1.9c-1,2.2-2.4,4-4.2,5.5c-1.9,1.6-3.9,2.8-6.2,3.6c-1.5,0.5-2.9,1-4.4,1.6
			c-1.8,0.7-3.5,1.5-5,2.7c-1.5,1.1-2.8,2.5-3.9,4.1c-0.5,0.7-0.8,1.4-1.1,2.2C2.1,48.1,2.1,48.2,2,48.2C2,48.2,2,48.2,2,48.2z"/>
		<path d="M16.2,39.5c-0.3,0.3-0.6,0.7-0.9,1c-1,1.2-2.1,2.3-3.1,3.5c-1.1,1.3-1.7,2.8-2.2,4.3c-0.3,1-0.6,2.1-1,3.1
			c-0.5,1.4-1.4,2.6-2.4,3.7c-1.1,1.3-2.4,2.4-3.9,3.2c-0.2,0.1-0.5,0.2-0.8,0.4c0-0.1,0-0.1,0-0.2c0-0.7,0-1.4,0-2.1
			c0-0.1,0.1-0.2,0.1-0.2c0.7-0.7,1.5-1.4,2.2-2.1c1.4-1.3,2.3-2.9,2.8-4.7c0.2-0.8,0.5-1.7,0.8-2.5c0.6-1.6,1.6-2.9,2.8-4.1
			c1.3-1.2,2.9-2.2,4.6-2.9c0.2-0.1,0.4-0.2,0.6-0.3C15.9,39.6,16,39.5,16.2,39.5C16.2,39.5,16.2,39.5,16.2,39.5z"/>
		<path d="M35.5,33.4c2-0.1,3.8,1.7,3.9,3.8c0.1,2.2-1.6,4-3.9,4.1c-2.2,0.1-4-1.5-4.1-3.8C31.4,35.3,33.2,33.5,35.5,33.4z
			 M36.8,37.5c0.1-1.1-0.6-1.4-1.5-1.5c-0.7,0-1.4,0.7-1.4,1.4c0,0.8,0.6,1.4,1.4,1.4C36.2,38.8,36.8,38.2,36.8,37.5z"/>
		<path d="M49.2,60.1c0,1-0.3,1.9-1.1,2.7c-0.4,0.3-0.8,0.5-1.3,0.4c-0.7-0.2-1.1-0.9-0.8-1.6c0.1-0.1,0.1-0.3,0.2-0.4
			c0.4-0.6,0.3-1.3,0-1.9c-0.1-0.3-0.3-0.5-0.4-0.8c-0.2-0.6,0-1.2,0.4-1.5c0.5-0.3,1.1-0.3,1.6,0.1c0.7,0.6,1.1,1.4,1.2,2.3
			C49.1,59.6,49.2,59.9,49.2,60.1z"/>
	</g>
</g>
<path d="M62.8,58.5c-0.9,0-1.8-0.4-2.5-1.1c-1.1-1.1-1.4-2.7-0.8-4.2l4-8.7c-2-3.7-3-7.8-3-11.8c0-13.5,11-24.5,24.5-24.5
	c6.7,0,12.9,2.6,17.6,7.4c4.5,4.6,6.9,10.6,6.8,17c0,13.5-11,24.4-24.5,24.4c-4.2,0-8.3-1-11.8-3l-8.7,4
	C63.8,58.4,63.3,58.5,62.8,58.5z M84.9,10.9C72.8,10.9,63,20.7,63,32.8c0,3.8,1,7.6,3,11.1c0.2,0.4,0.2,0.8,0,1.2l-4.3,9.3
	c-0.3,0.7,0.1,1.1,0.2,1.3c0.3,0.3,0.7,0.5,1.2,0.2l9.3-4.3c0.4-0.2,0.8-0.2,1.2,0.1c3.3,2,7.1,3,11.1,3c12.1,0,21.9-9.8,21.9-21.9
	c0.1-5.7-2-11.1-6-15.2C96.5,13.2,90.9,10.9,84.9,10.9z"/>
</svg>
