<?xml version="1.0" encoding="utf-8"?>
<!-- Generator: Adobe Illustrator 28.1.0, SVG Export Plug-In . SVG Version: 6.00 Build 0)  -->
<svg version="1.1" id="Layer_1" xmlns="http://www.w3.org/2000/svg" xmlns:xlink="http://www.w3.org/1999/xlink" x="0px" y="0px"
	 viewBox="0 0 110.55 76.54" style="enable-background:new 0 0 110.55 76.54;" xml:space="preserve">
<style type="text/css">
	.st0{display:none;}
	.st1{display:inline;fill:none;}
	.st2{fill:#808080;}
</style>
<g id="Layer_2_00000073722119373351752270000017113015111246931634_" class="st0">
	<line class="st1" x1="-24.13" y1="74.54" x2="142.13" y2="74.54"/>
	<line class="st1" x1="-24.13" y1="2" x2="142.13" y2="2"/>
</g>
<g>
	<g>
		<path class="st2" d="M2198.67,1892.46c-0.07,0.57-0.23,0.93-0.76,1.06c-0.29,0.07-0.57,0.23-0.83,0.38
			c-0.1,0.06-0.14,0.22-0.21,0.33c0.13,0.07,0.27,0.2,0.4,0.19c0.36-0.04,0.72-0.14,1.08-0.21c0.05,0.88-0.09,1.09-1.02,1.35
			c-3.8,1.06-7.59,2.16-11.41,3.14c-3.32,0.85-6.99-1.7-7.41-5.1c-0.21-1.71-0.35-3.42-0.41-5.14c-0.07-2.12-0.85-3.96-1.9-5.76
			c-3.54-6.06-7.03-12.15-10.53-18.23c-0.59-1.03-1.18-2.06-1.78-3.08c-0.15-0.26-0.2-0.43,0.1-0.6c1.1-0.63,2.19-1.27,3.36-1.94
			c0.46,0.78,0.9,1.53,1.34,2.28c4.01,6.95,8.01,13.9,12.02,20.84c1.03,1.78,1.44,3.67,1.26,5.72c-0.12,1.3-0.17,2.62-0.19,3.93
			c-0.03,1.73,1.18,2.9,2.96,2.87c4.48-0.08,8.9-0.63,13.22-1.85C2198.14,1892.59,2198.36,1892.54,2198.67,1892.46z"/>
		<path class="st2" d="M2154.67,1847.29c0.21,0.34,0.41,0.67,0.61,0.99c0.48,0.77,0.96,0.89,1.73,0.45c1.1-0.64,2.19-1.27,3.29-1.91
			c0.77-0.44,1.43-0.39,1.95,0.16c0.55,0.58,0.57,1.34,0.07,2.07c-0.07,0.1-0.11,0.23-0.2,0.44c0.9-0.17,1.6-0.07,2.04,0.72
			c0.44,0.77,0.08,1.43-0.44,2.19c1.05-0.23,1.84-0.03,2.19,0.86c0.42,1.07-0.18,1.75-1.17,2.19c0.03,0.05,0.06,0.09,0.1,0.14
			c0.18,0,0.37,0.01,0.55,0c0.7-0.04,1.36,0.39,1.58,1.02c0.24,0.7-0.01,1.39-0.69,1.78c-1.59,0.93-3.18,1.86-4.77,2.78
			c-1.19,0.68-2.47,1.09-3.82,1.27c-1.35,0.18-2.62,0.6-3.83,1.23c-0.75,0.39-1.23,0.27-1.65-0.46c-1.22-2.11-2.43-4.22-3.64-6.33
			c-0.35-0.61-0.32-1.14,0.18-1.48c1.99-1.39,3.17-3.36,4.11-5.53c0.36-0.83,0.95-1.56,1.45-2.33
			C2154.38,1847.44,2154.51,1847.4,2154.67,1847.29z"/>
		<path class="st2" d="M2140.79,1831.45c0.9-0.11,1.65-0.2,2.4-0.28c0.14-0.01,0.29,0.02,0.42,0.08c2.88,1.33,5.77,2.64,8.62,4.01
			c1.52,0.73,2.62,1.95,3.46,3.39c1.31,2.25,2.58,4.51,3.9,6.75c0.28,0.48,0.2,0.7-0.26,0.95c-1.01,0.54-1.99,1.13-3.07,1.76
			c-0.47-0.79-0.92-1.55-1.37-2.32c-0.92-1.57-1.83-3.15-2.75-4.72c-0.84-1.44-2.15-2.39-3.43-3.38c-2.51-1.94-5.01-3.9-7.51-5.85
			C2141.09,1831.74,2140.99,1831.64,2140.79,1831.45z"/>
	</g>
	<path class="st2" d="M2202.71,1888.81l-4.06,1.24c-0.09,0.03-0.12,0.15-0.09,0.26l0.18,0.6c0.03,0.11,0.13,0.2,0.22,0.17l1.37-0.42
		l3.36,11.05l1.07,1.13l0.26-1.52l-3.36-11.05l1.37-0.42c0.09-0.03,0.12-0.15,0.09-0.26l-0.18-0.6
		C2202.9,1888.87,2202.79,1888.79,2202.71,1888.81z"/>
</g>
<path d="M-38.52,74.27C-38.63,74.42-38.51,74.26-38.52,74.27L-38.52,74.27z"/>
<g>
	<path d="M68.29,2.19c-8.05,0-15.33,4.8-18.5,12.21c-1.44-0.47-2.95-0.72-4.47-0.72c-7.93,0-14.37,6.43-14.37,14.36
		c-0.01,7.94,6.42,14.37,14.36,14.38h22.99c11.11,0,20.11-9.01,20.11-20.11C88.41,11.2,79.4,2.19,68.29,2.19"/>
	<path d="M47.31,45.35c-1.46-0.62-3.15,0.05-3.77,1.51l-2.26,5.29c-0.62,1.46,0.06,3.15,1.51,3.77c1.46,0.62,3.15-0.05,3.77-1.51
		l2.26-5.29C49.45,47.66,48.77,45.97,47.31,45.35"/>
	<path d="M61.7,63.54c-1.46-0.62-3.15,0.05-3.77,1.51l-2.26,5.29c-0.62,1.46,0.06,3.15,1.51,3.77c1.46,0.62,3.15-0.05,3.77-1.51
		l2.26-5.29C63.84,65.85,63.16,64.17,61.7,63.54"/>
	<path d="M37.81,46.3c-1.46-0.62-3.15,0.05-3.77,1.51l-2.26,5.29c-0.62,1.46,0.06,3.15,1.51,3.77c1.46,0.62,3.15-0.05,3.77-1.51
		l2.26-5.29C39.95,48.61,39.27,46.92,37.81,46.3"/>
	<path d="M57.58,45.54c-1.47-0.59-3.14,0.13-3.73,1.61l-3.19,8.01c-0.59,1.48,0.13,3.15,1.61,3.73c1.47,0.59,3.14-0.13,3.73-1.61
		l3.19-8.01C59.77,47.79,59.05,46.12,57.58,45.54"/>
	<path d="M68.58,45.94c-1.47-0.59-3.14,0.13-3.73,1.61l-3.19,8.01c-0.59,1.48,0.13,3.15,1.61,3.73c1.47,0.59,3.14-0.13,3.73-1.61
		l3.19-8.01C70.77,48.2,70.05,46.53,68.58,45.94"/>
	<path d="M38.17,58.3c-1.47-0.59-3.14,0.13-3.73,1.61l-3.19,8.01c-0.59,1.48,0.13,3.15,1.61,3.73c1.47,0.59,3.14-0.13,3.73-1.61
		l3.19-8.01C40.36,60.55,39.64,58.88,38.17,58.3"/>
	<path d="M48.97,61.61c-1.48-0.58-3.14,0.15-3.72,1.63l-1.05,2.68c-0.58,1.48,0.15,3.14,1.63,3.72c1.48,0.58,3.14-0.15,3.72-1.63
		l1.05-2.68C51.18,63.85,50.45,62.19,48.97,61.61"/>
</g>
</svg>
