<?xml version="1.0" encoding="utf-8"?>
<!-- Generator: Adobe Illustrator 28.1.0, SVG Export Plug-In . SVG Version: 6.00 Build 0)  -->
<svg version="1.1" id="Layer_1" xmlns="http://www.w3.org/2000/svg" xmlns:xlink="http://www.w3.org/1999/xlink" x="0px" y="0px"
	 viewBox="0 0 110.55 76.54" style="enable-background:new 0 0 110.55 76.54;" xml:space="preserve">
<style type="text/css">
	.st0{display:none;}
	.st1{display:inline;fill:none;}
	.st2{fill:#808080;}
	.st3{fill:none;}
	.st4{fill:#231F20;}
</style>
<g id="Layer_2_00000073722119373351752270000017113015111246931634_" class="st0">
	<line class="st1" x1="-24.13" y1="74.54" x2="142.13" y2="74.54"/>
	<line class="st1" x1="-24.13" y1="2" x2="142.13" y2="2"/>
</g>
<g>
	<g>
		<path class="st2" d="M2198.67,1892.46c-0.07,0.57-0.23,0.93-0.76,1.06c-0.29,0.07-0.57,0.23-0.83,0.38
			c-0.1,0.06-0.14,0.22-0.21,0.33c0.13,0.07,0.27,0.2,0.4,0.19c0.36-0.04,0.72-0.14,1.08-0.21c0.05,0.88-0.09,1.09-1.02,1.35
			c-3.8,1.06-7.59,2.16-11.41,3.14c-3.32,0.85-6.99-1.7-7.41-5.1c-0.21-1.71-0.35-3.42-0.41-5.14c-0.07-2.12-0.85-3.96-1.9-5.76
			c-3.54-6.06-7.03-12.15-10.53-18.23c-0.59-1.03-1.18-2.06-1.78-3.08c-0.15-0.26-0.2-0.43,0.1-0.6c1.1-0.63,2.19-1.27,3.36-1.94
			c0.46,0.78,0.9,1.53,1.34,2.28c4.01,6.95,8.01,13.9,12.02,20.84c1.03,1.78,1.44,3.67,1.26,5.72c-0.12,1.3-0.17,2.62-0.19,3.93
			c-0.03,1.73,1.18,2.9,2.96,2.87c4.48-0.08,8.9-0.63,13.22-1.85C2198.14,1892.59,2198.36,1892.54,2198.67,1892.46z"/>
		<path class="st2" d="M2154.67,1847.29c0.21,0.34,0.41,0.67,0.61,0.99c0.48,0.77,0.96,0.89,1.73,0.45c1.1-0.64,2.19-1.27,3.29-1.91
			c0.77-0.44,1.43-0.39,1.95,0.16c0.55,0.58,0.57,1.34,0.07,2.07c-0.07,0.1-0.11,0.23-0.2,0.44c0.9-0.17,1.6-0.07,2.04,0.72
			c0.44,0.77,0.08,1.43-0.44,2.19c1.05-0.23,1.84-0.03,2.19,0.86c0.42,1.07-0.18,1.75-1.17,2.19c0.03,0.05,0.06,0.09,0.1,0.14
			c0.18,0,0.37,0.01,0.55,0c0.7-0.04,1.36,0.39,1.58,1.02c0.24,0.7-0.01,1.39-0.69,1.78c-1.59,0.93-3.18,1.86-4.77,2.78
			c-1.19,0.68-2.47,1.09-3.82,1.27c-1.35,0.18-2.62,0.6-3.83,1.23c-0.75,0.39-1.23,0.27-1.65-0.46c-1.22-2.11-2.43-4.22-3.64-6.33
			c-0.35-0.61-0.32-1.14,0.18-1.48c1.99-1.39,3.17-3.36,4.11-5.53c0.36-0.83,0.95-1.56,1.45-2.33
			C2154.38,1847.44,2154.51,1847.4,2154.67,1847.29z"/>
		<path class="st2" d="M2140.79,1831.45c0.9-0.11,1.65-0.2,2.4-0.28c0.14-0.01,0.29,0.02,0.42,0.08c2.88,1.33,5.77,2.64,8.62,4.01
			c1.52,0.73,2.62,1.95,3.46,3.39c1.31,2.25,2.58,4.51,3.9,6.75c0.28,0.48,0.2,0.7-0.26,0.95c-1.01,0.54-1.99,1.13-3.07,1.76
			c-0.47-0.79-0.92-1.55-1.37-2.32c-0.92-1.57-1.83-3.15-2.75-4.72c-0.84-1.44-2.15-2.39-3.43-3.38c-2.51-1.94-5.01-3.9-7.51-5.85
			C2141.09,1831.74,2140.99,1831.64,2140.79,1831.45z"/>
	</g>
	<path class="st2" d="M2202.71,1888.81l-4.06,1.24c-0.09,0.03-0.12,0.15-0.09,0.26l0.18,0.6c0.03,0.11,0.13,0.2,0.22,0.17l1.37-0.42
		l3.36,11.05l1.07,1.13l0.26-1.52l-3.36-11.05l1.37-0.42c0.09-0.03,0.12-0.15,0.09-0.26l-0.18-0.6
		C2202.9,1888.87,2202.79,1888.79,2202.71,1888.81z"/>
</g>
<g>
	<path class="st3" d="M86.58,43.98c-4.7-1.22-10.82,0.42-17.19,3.43c0.2,2.29,0.68,5.21,1.09,6.01c0.23,0.44,0.06,0.98-0.38,1.21
		c-0.13,0.07-0.27,0.1-0.41,0.1c-0.32,0-0.64-0.18-0.79-0.48c-0.58-1.11-1.01-4-1.22-5.99c-0.26,0.13-0.51,0.27-0.77,0.4
		c-0.29,0.15-0.59,0.31-0.88,0.46c0.03,0.33,0.07,0.65,0.11,0.97c0.26,2.05,0.62,3.81,0.92,4.37c0.23,0.44,0.06,0.98-0.38,1.21
		c-0.13,0.07-0.27,0.1-0.41,0.1c-0.32,0-0.64-0.18-0.79-0.48c-0.29-0.56-0.54-1.56-0.73-2.58c-0.18-0.96-0.32-1.95-0.4-2.66
		c-0.1,0.05-0.19,0.11-0.29,0.16c-1.52,0.87-3.03,1.79-4.52,2.75c-0.4,0.26-0.8,0.51-1.2,0.77c-0.2,0.13-0.39,0.26-0.58,0.39
		C49.5,59.59,42.02,65.91,37.87,69.8c2.59,0.42,6.06,0.87,10.01,1.23c0.31,0.03,0.63,0.06,0.94,0.08c0.62,0.05,1.25,0.1,1.9,0.15
		c8.79,0.65,19.33,0.76,27.95-0.87c-2.14-2.84-3.41-4.87-4.48-9.49c-0.11-0.48,0.19-0.96,0.67-1.07c0.48-0.12,0.96,0.19,1.07,0.67
		c1.07,4.63,2.31,6.39,4.68,9.49c5.19-1.19,9.52-3.08,12.09-5.98c2.59-2.93,3.17-6.6,1.76-11.22l-0.15-0.48
		C92.9,47.68,90.37,44.96,86.58,43.98z"/>
	<path class="st3" d="M35.65,70.74l-0.15-0.48c-0.1-0.32-0.01-0.67,0.23-0.9c0.16-0.16,8.36-7.93,18.75-15.18
		c0.49-0.34,0.99-0.68,1.48-1.02c0.56-0.38,1.13-0.76,1.7-1.13c-0.57-7.24-4.94-13.4-11.12-16.52c-0.84-0.42-1.7-0.79-2.6-1.09
		c-1.37-0.47-2.8-0.8-4.28-0.96l3.29,2.61c0.39,0.31,0.45,0.87,0.15,1.26c-0.18,0.22-0.44,0.34-0.7,0.34
		c-0.19,0-0.39-0.06-0.55-0.19l-4.44-3.52c-0.11-0.08-0.18-0.19-0.24-0.3c-0.05,0.17-0.14,0.33-0.29,0.45l-4.58,3.66
		c-0.16,0.13-0.36,0.2-0.56,0.2c-0.26,0-0.52-0.12-0.7-0.34c-0.31-0.39-0.25-0.95,0.14-1.26l3.55-2.83
		c-9.93,1.33-17.62,9.83-17.62,20.12c0,11.2,9.11,20.32,20.32,20.32c2.66,0,5.19-0.53,7.52-1.46c-5.1-0.55-8.49-1.11-8.61-1.14
		C36.02,71.3,35.75,71.06,35.65,70.74z"/>
	<path class="st3" d="M58.32,46.44V33.07c0,0-0.01,0-0.01,0l-10.4-9.38c-0.37-0.33-0.4-0.9-0.06-1.26c0.33-0.37,0.9-0.4,1.26-0.06
		l9.2,8.3V12.2c0-0.49,0.4-0.89,0.89-0.89c0.49,0,0.89,0.4,0.89,0.89v18.19l8.9-8.03c0.37-0.33,0.93-0.3,1.26,0.06
		c0.33,0.37,0.3,0.93-0.06,1.26l-10.1,9.11v17.67c1.81-1.12,3.64-2.19,5.49-3.17c3.18-5.93,7.87-14.74,10.53-19.92
		c1.7-3.32,1.61-6.56-0.26-8.9c-1.9-2.38-5.23-3.37-8.48-2.54l-0.96,0.25l-0.15-0.98c-0.07-0.47-0.14-0.95-0.21-1.43
		c-0.96-6.56-2.01-11.2-6.82-11.2c-0.01,0-0.03,0-0.04,0c-4.73,0-5.92,5.27-6.97,12.16l-0.22,1.45l-0.96-0.25
		c-3.25-0.84-6.58,0.16-8.48,2.54c-1.87,2.34-1.96,5.58-0.26,8.9c0.81,1.58,1.82,3.51,2.91,5.58
		C51.34,35.28,56.17,40.23,58.32,46.44z"/>
	<path class="st4" d="M103.12,49.88c-0.14-0.47-0.65-0.74-1.12-0.59l-0.4,0.12l-4.75,1.45l0.27-0.68l1.61-4.12
		c0.18-0.46-0.05-0.98-0.51-1.16c-0.34-0.13-0.71-0.04-0.95,0.2c-0.09,0.09-0.16,0.19-0.21,0.31l-1.74,4.45
		c-0.27-0.65-0.58-1.26-0.91-1.83c-1.72-3-4.18-4.95-7.38-5.77c-5.3-1.37-11.93,0.44-18.66,3.66c3.07-5.75,7-13.13,9.34-17.7
		c2.04-3.97,1.88-7.92-0.45-10.83c-2.15-2.69-5.74-3.95-9.36-3.36c-0.02-0.16-0.05-0.32-0.07-0.48C67.01,7.86,65.98,0.8,59.25,0.8
		c-0.02,0-0.03,0-0.05,0c-6.46,0-7.78,7.49-8.66,13.22c-3.62-0.6-7.21,0.67-9.36,3.36c-2.33,2.91-2.49,6.86-0.45,10.83
		c0.6,1.17,1.31,2.54,2.08,4.01c-1.72-0.43-3.51-0.68-5.36-0.68c-12.19,0-22.11,9.92-22.11,22.11c0,12.19,9.92,22.11,22.11,22.11
		c3.98,0,7.7-1.07,10.93-2.92c4.2,0.37,9.15,0.67,14.26,0.67c12.33,0,25.59-1.73,31.41-8.3c2.26-2.55,3.22-5.65,2.88-9.25
		c-0.06-0.65-0.17-1.31-0.32-1.99l4.11,2.82c0.08,0.06,0.17,0.09,0.26,0.12c0.08,0.02,0.16,0.04,0.25,0.04
		c0.29,0,0.57-0.14,0.74-0.39c0.28-0.41,0.18-0.96-0.23-1.24l-3.6-2.47l-0.5-0.35l4.42-1.35l0.48-0.15
		C102.99,50.85,103.26,50.35,103.12,49.88z M94.45,52.79c1.41,4.63,0.84,8.3-1.76,11.22c-2.57,2.9-6.91,4.79-12.09,5.98
		c-2.37-3.11-3.6-4.87-4.68-9.49c-0.11-0.48-0.6-0.78-1.07-0.67c-0.48,0.11-0.78,0.59-0.67,1.07c1.07,4.62,2.34,6.65,4.48,9.49
		c-8.62,1.63-19.17,1.53-27.95,0.87c-0.64-0.05-1.27-0.1-1.9-0.15c-0.32-0.03-0.63-0.06-0.94-0.08c-3.95-0.36-7.42-0.81-10.01-1.23
		c4.15-3.9,11.63-10.22,19.86-15.68c0.19-0.13,0.39-0.26,0.58-0.39c0.4-0.26,0.8-0.52,1.2-0.77c1.49-0.96,3.01-1.88,4.52-2.75
		c0.1-0.05,0.19-0.11,0.29-0.16c0.09,0.7,0.22,1.69,0.4,2.66c0.19,1.03,0.44,2.02,0.73,2.58c0.16,0.31,0.47,0.48,0.79,0.48
		c0.14,0,0.28-0.03,0.41-0.1c0.44-0.23,0.61-0.77,0.38-1.21c-0.3-0.57-0.66-2.32-0.92-4.37c-0.04-0.32-0.08-0.64-0.11-0.97
		c0.29-0.16,0.59-0.31,0.88-0.46c0.26-0.13,0.52-0.27,0.77-0.4c0.21,1.99,0.64,4.88,1.22,5.99c0.16,0.31,0.47,0.48,0.79,0.48
		c0.14,0,0.28-0.03,0.41-0.1c0.44-0.23,0.61-0.77,0.38-1.21c-0.41-0.79-0.89-3.72-1.09-6.01c6.38-3.02,12.49-4.65,17.19-3.43
		c3.79,0.98,6.31,3.7,7.72,8.33L94.45,52.79z M37.44,73.95c-11.2,0-20.32-9.11-20.32-20.32c0-10.29,7.69-18.79,17.62-20.12
		l-3.55,2.83c-0.39,0.31-0.45,0.87-0.14,1.26c0.18,0.22,0.44,0.34,0.7,0.34c0.2,0,0.39-0.06,0.56-0.2l4.58-3.66
		c0.15-0.12,0.24-0.28,0.29-0.45c0.06,0.11,0.13,0.22,0.24,0.3l4.44,3.52c0.16,0.13,0.36,0.19,0.55,0.19c0.26,0,0.53-0.12,0.7-0.34
		c0.31-0.39,0.24-0.95-0.15-1.26l-3.29-2.61c1.48,0.16,2.91,0.5,4.28,0.96c0.9,0.3,1.76,0.67,2.6,1.09
		c6.18,3.12,10.55,9.29,11.12,16.52c-0.57,0.37-1.14,0.75-1.7,1.13c-0.5,0.34-0.99,0.68-1.48,1.02C44.1,61.43,35.9,69.2,35.74,69.36
		c-0.24,0.23-0.33,0.58-0.23,0.9l0.15,0.48c0.1,0.32,0.37,0.56,0.7,0.62c0.12,0.02,3.5,0.59,8.61,1.14
		C42.63,73.43,40.1,73.95,37.44,73.95z M42.31,27.39c-1.7-3.32-1.61-6.56,0.26-8.9c1.9-2.38,5.23-3.37,8.48-2.54l0.96,0.25
		l0.22-1.45c1.05-6.89,2.24-12.16,6.97-12.16c0.01,0,0.03,0,0.04,0c4.82,0,5.87,4.64,6.82,11.2c0.07,0.48,0.14,0.96,0.21,1.43
		l0.15,0.98l0.96-0.25c3.25-0.84,6.58,0.16,8.48,2.54c1.87,2.34,1.96,5.58,0.26,8.9c-2.66,5.18-7.35,13.99-10.53,19.92
		c-1.84,0.98-3.68,2.05-5.49,3.17V32.8l10.1-9.11c0.37-0.33,0.4-0.9,0.06-1.26c-0.33-0.37-0.9-0.4-1.26-0.06l-8.9,8.03V12.2
		c0-0.49-0.4-0.89-0.89-0.89c-0.49,0-0.89,0.4-0.89,0.89v18.46l-9.2-8.3c-0.37-0.33-0.93-0.3-1.26,0.06
		c-0.33,0.37-0.3,0.93,0.06,1.26l10.4,9.38c0,0,0.01,0,0.01,0v13.37c-2.15-6.21-6.98-11.16-13.1-13.47
		C44.12,30.89,43.12,28.97,42.31,27.39z"/>
</g>
</svg>
