<?xml version="1.0" encoding="utf-8"?>
<!-- Generator: Adobe Illustrator 28.1.0, SVG Export Plug-In . SVG Version: 6.00 Build 0)  -->
<svg version="1.1" id="Layer_1" xmlns="http://www.w3.org/2000/svg" xmlns:xlink="http://www.w3.org/1999/xlink" x="0px" y="0px"
	 viewBox="0 0 110.6 76.5" style="enable-background:new 0 0 110.6 76.5;" xml:space="preserve">
<style type="text/css">
	.st0{display:none;}
	.st1{display:inline;fill:none;}
	.st2{fill:#808080;}
</style>
<g id="Layer_2_00000073722119373351752270000017113015111246931634_" class="st0">
	<line class="st1" x1="-24.1" y1="74.5" x2="142.1" y2="74.5"/>
	<line class="st1" x1="-24.1" y1="2" x2="142.1" y2="2"/>
</g>
<g>
	<g>
		<path class="st2" d="M2198.7,1892.5c-0.1,0.6-0.2,0.9-0.8,1.1c-0.3,0.1-0.6,0.2-0.8,0.4c-0.1,0.1-0.1,0.2-0.2,0.3
			c0.1,0.1,0.3,0.2,0.4,0.2c0.4,0,0.7-0.1,1.1-0.2c0.1,0.9-0.1,1.1-1,1.3c-3.8,1.1-7.6,2.2-11.4,3.1c-3.3,0.8-7-1.7-7.4-5.1
			c-0.2-1.7-0.4-3.4-0.4-5.1c-0.1-2.1-0.9-4-1.9-5.8c-3.5-6.1-7-12.2-10.5-18.2c-0.6-1-1.2-2.1-1.8-3.1c-0.1-0.3-0.2-0.4,0.1-0.6
			c1.1-0.6,2.2-1.3,3.4-1.9c0.5,0.8,0.9,1.5,1.3,2.3c4,6.9,8,13.9,12,20.8c1,1.8,1.4,3.7,1.3,5.7c-0.1,1.3-0.2,2.6-0.2,3.9
			c0,1.7,1.2,2.9,3,2.9c4.5-0.1,8.9-0.6,13.2-1.8C2198.1,1892.6,2198.4,1892.5,2198.7,1892.5z"/>
		<path class="st2" d="M2154.7,1847.3c0.2,0.3,0.4,0.7,0.6,1c0.5,0.8,1,0.9,1.7,0.4c1.1-0.6,2.2-1.3,3.3-1.9
			c0.8-0.4,1.4-0.4,1.9,0.2c0.6,0.6,0.6,1.3,0.1,2.1c-0.1,0.1-0.1,0.2-0.2,0.4c0.9-0.2,1.6-0.1,2,0.7c0.4,0.8,0.1,1.4-0.4,2.2
			c1.1-0.2,1.8,0,2.2,0.9c0.4,1.1-0.2,1.8-1.2,2.2c0,0.1,0.1,0.1,0.1,0.1c0.2,0,0.4,0,0.6,0c0.7,0,1.4,0.4,1.6,1
			c0.2,0.7,0,1.4-0.7,1.8c-1.6,0.9-3.2,1.9-4.8,2.8c-1.2,0.7-2.5,1.1-3.8,1.3s-2.6,0.6-3.8,1.2c-0.8,0.4-1.2,0.3-1.6-0.5
			c-1.2-2.1-2.4-4.2-3.6-6.3c-0.4-0.6-0.3-1.1,0.2-1.5c2-1.4,3.2-3.4,4.1-5.5c0.4-0.8,0.9-1.6,1.4-2.3
			C2154.4,1847.4,2154.5,1847.4,2154.7,1847.3z"/>
		<path class="st2" d="M2140.8,1831.4c0.9-0.1,1.6-0.2,2.4-0.3c0.1,0,0.3,0,0.4,0.1c2.9,1.3,5.8,2.6,8.6,4c1.5,0.7,2.6,1.9,3.5,3.4
			c1.3,2.2,2.6,4.5,3.9,6.8c0.3,0.5,0.2,0.7-0.3,0.9c-1,0.5-2,1.1-3.1,1.8c-0.5-0.8-0.9-1.6-1.4-2.3c-0.9-1.6-1.8-3.2-2.8-4.7
			c-0.8-1.4-2.1-2.4-3.4-3.4c-2.5-1.9-5-3.9-7.5-5.8C2141.1,1831.7,2141,1831.6,2140.8,1831.4z"/>
	</g>
	<path class="st2" d="M2202.7,1888.8l-4.1,1.2c-0.1,0-0.1,0.2-0.1,0.3l0.2,0.6c0,0.1,0.1,0.2,0.2,0.2l1.4-0.4l3.4,11.1l1.1,1.1
		l0.3-1.5l-3.4-11.1l1.4-0.4c0.1,0,0.1-0.2,0.1-0.3l-0.2-0.6C2202.9,1888.9,2202.8,1888.8,2202.7,1888.8z"/>
</g>
<path d="M56,22c5.8,0,10.4-4.7,10.4-10.4S61.8,1.1,56,1.1S45.5,5.8,45.5,11.6S50.2,22,56,22z"/>
<path d="M86.2,53C86.1,53.1,86.2,53,86.2,53L86.2,53z"/>
<path d="M84.9,47.7L71.5,26c-1-1.7-2.6-2.2-4.8-2.2l-0.1,0H45.3l-0.1,0c-2.1,0-3.7,0.5-4.8,2.2L27.1,47.7c-0.5,0.8-0.8,1.8-0.7,2.8
	c0.1,0.9,0.4,1.8,1,2.6c1.3,1.7,3.8,2.3,5.7,1.3l7.5-3.6v9h30.8v-9l7.5,3.6c1.9,1,4.4,0.3,5.7-1.3c0.6-0.8,0.9-1.6,1-2.6
	C85.7,49.5,85.4,48.5,84.9,47.7z M71.4,40.4L71.4,40.4c-0.8-0.4-1.6-0.5-2.3-0.5c-1.7,0.1-3.3,1-4.1,2.7c-1.1,2.3-0.1,5.2,2.2,6.3
	l1.1,0.5l-12.3,4.2l-0.1,0l-0.1,0l-12.2-4.2l1.1-0.5c2.3-1.1,3.3-3.9,2.2-6.3c-0.8-1.6-2.4-2.6-4.1-2.7c-0.7,0-1.5,0.1-2.2,0.5
	l-0.1,0V29.5L56,34.8l0,0l0,0l0,0l0,0l15.4-5.3C71.4,29.5,71.4,40.4,71.4,40.4z"/>
<g>
	<path d="M23.5,64.8c1.4,0,2.4,1.2,2.4,3c0,2.2-1.1,3.6-2.8,3.6c-0.6,0-1.2-0.1-1.6-0.5v4.7h-1v-8.8c0-0.4-0.1-1.2-0.3-1.7h1
		c0.1,0.3,0.1,0.4,0.2,0.9C22,65.1,22.7,64.8,23.5,64.8z M21.6,69.9c0.3,0.4,0.9,0.6,1.3,0.6c1.1,0,2-1.2,2-2.7
		c0-1.3-0.6-2.1-1.5-2.1c-1.1,0-1.8,1-1.8,2.7V69.9z"/>
	<path d="M28.6,71.3h-1v-4.2c0-0.9,0-1.3-0.2-2.1h1c0.1,0.5,0.2,0.7,0.2,1.4c0.5-1.1,1-1.5,1.8-1.5c0.3,0,0.4,0,0.7,0.2l0,0.9
		c-0.3-0.1-0.4-0.1-0.6-0.1c-1.1,0-1.9,1.2-1.9,2.9V71.3z"/>
	<path d="M36.3,70.9c-0.6,0.4-1.1,0.5-1.8,0.5c-1.6,0-2.6-1.2-2.6-3c0-2.1,1.2-3.6,2.8-3.6c1.3,0,2.1,0.7,2.1,1.8
		c0,1.3-1.2,2.1-3.2,2.1c-0.3,0-0.4,0-0.7,0c0.1,1.1,0.7,1.8,1.7,1.8c0.6,0,1.1-0.2,1.7-0.6V70.9z M34.8,65.7c-1,0-1.7,1.1-1.8,2.2
		c0.3,0,0.5,0,0.7,0c1.3,0,2.1-0.5,2.1-1.3C35.8,66.1,35.4,65.7,34.8,65.7z"/>
	<path d="M41.8,66.2c-0.6-0.4-1.2-0.5-1.7-0.5c-0.5,0-0.9,0.1-0.9,0.7c0,0.4,0.5,0.7,1.4,1.3c1,0.7,1.4,1.1,1.4,2
		c0,1-0.8,1.7-2.1,1.7c-0.8,0-1.4-0.2-2.1-0.6L38,70c0.6,0.4,1.2,0.6,1.8,0.6c0.7,0,1.1-0.3,1.1-0.9c0-0.4-0.3-0.7-0.9-1.1
		c-1.4-0.9-1.8-1.4-1.8-2.2c0-1,0.7-1.6,2-1.6c0.6,0,1.2,0.1,1.8,0.5L41.8,66.2z"/>
	<path d="M47.9,70.9c-0.6,0.4-1.1,0.5-1.8,0.5c-1.6,0-2.6-1.2-2.6-3c0-2.1,1.2-3.6,2.8-3.6c1.3,0,2.1,0.7,2.1,1.8
		c0,1.3-1.2,2.1-3.2,2.1c-0.3,0-0.4,0-0.7,0c0.1,1.1,0.7,1.8,1.7,1.8c0.6,0,1.1-0.2,1.7-0.6V70.9z M46.3,65.7c-1,0-1.7,1.1-1.8,2.2
		c0.3,0,0.5,0,0.7,0c1.3,0,2.1-0.5,2.1-1.3C47.3,66.1,46.9,65.7,46.3,65.7z"/>
	<path d="M50.9,71.3h-1V67c0-0.7-0.1-1.6-0.3-2h1c0.1,0.3,0.1,0.4,0.2,1c0.6-0.9,1.3-1.2,2.1-1.2c1.2,0,2.1,0.8,2.1,2.4v4h-1v-4
		c0-0.9-0.4-1.5-1.1-1.5c-1.1,0-1.9,1.1-1.9,2.8V71.3z"/>
	<path d="M58.6,71.2l-1,0v-5.4h-1.2V65h1.2v-3.7h1V65H60v0.8h-1.4V71.2z"/>
	<path d="M67.6,71.2l-1,0v-5.4h-1.2V65h1.2v-3.7h1V65h1.4v0.8h-1.4V71.2z"/>
	<path d="M74.8,70.9c-0.6,0.4-1.1,0.5-1.8,0.5c-1.6,0-2.6-1.2-2.6-3c0-2.1,1.2-3.6,2.8-3.6c1.3,0,2.1,0.7,2.1,1.8
		c0,1.3-1.2,2.1-3.2,2.1c-0.3,0-0.4,0-0.7,0c0.1,1.1,0.7,1.8,1.7,1.8c0.6,0,1.1-0.2,1.7-0.6V70.9z M73.2,65.7c-1,0-1.7,1.1-1.8,2.2
		c0.3,0,0.5,0,0.7,0c1.3,0,2.1-0.5,2.1-1.3C74.2,66.1,73.8,65.7,73.2,65.7z"/>
	<path d="M77.8,71.3h-1V67c0-0.7-0.1-1.6-0.3-2h1c0.1,0.3,0.1,0.4,0.2,1c0.6-0.9,1.3-1.2,2.1-1.2c1.2,0,2.1,0.8,2.1,2.4v4h-1v-4
		c0-0.9-0.4-1.5-1.1-1.5c-1.1,0-1.9,1.1-1.9,2.8V71.3z"/>
	<path d="M87.3,66.2c-0.6-0.4-1.2-0.5-1.7-0.5c-0.5,0-0.9,0.1-0.9,0.7c0,0.4,0.5,0.7,1.4,1.3c1,0.7,1.4,1.1,1.4,2
		c0,1-0.8,1.7-2.1,1.7c-0.8,0-1.4-0.2-2.1-0.6l0.2-0.9c0.6,0.4,1.2,0.6,1.8,0.6c0.7,0,1.1-0.3,1.1-0.9c0-0.4-0.3-0.7-0.9-1.1
		c-1.4-0.9-1.8-1.4-1.8-2.2c0-1,0.7-1.6,2-1.6c0.6,0,1.2,0.1,1.8,0.5L87.3,66.2z"/>
	<path d="M93.4,70.9c-0.6,0.4-1.1,0.5-1.8,0.5c-1.6,0-2.6-1.2-2.6-3c0-2.1,1.2-3.6,2.8-3.6c1.3,0,2.1,0.7,2.1,1.8
		c0,1.3-1.2,2.1-3.2,2.1c-0.3,0-0.4,0-0.7,0c0.1,1.1,0.7,1.8,1.7,1.8c0.6,0,1.1-0.2,1.7-0.6V70.9z M91.9,65.7c-1,0-1.7,1.1-1.8,2.2
		c0.3,0,0.5,0,0.7,0c1.3,0,2.1-0.5,2.1-1.3C92.8,66.1,92.5,65.7,91.9,65.7z"/>
</g>
</svg>
