<?xml version="1.0" encoding="utf-8"?>
<!-- Generator: Adobe Illustrator 28.1.0, SVG Export Plug-In . SVG Version: 6.00 Build 0)  -->
<svg version="1.1" id="Layer_1" xmlns="http://www.w3.org/2000/svg" xmlns:xlink="http://www.w3.org/1999/xlink" x="0px" y="0px"
	 viewBox="0 0 110.55 76.54" style="enable-background:new 0 0 110.55 76.54;" xml:space="preserve">
<style type="text/css">
	.st0{display:none;}
	.st1{display:inline;fill:none;}
	.st2{fill:#808080;}
	.st3{fill:#FFFFFF;}
	.st4{fill:#231F20;}
</style>
<g id="Layer_2_00000073722119373351752270000017113015111246931634_" class="st0">
	<line class="st1" x1="-24.13" y1="74.54" x2="142.13" y2="74.54"/>
	<line class="st1" x1="-24.13" y1="2" x2="142.13" y2="2"/>
</g>
<g>
	<g>
		<path class="st2" d="M2198.67,1892.46c-0.07,0.57-0.23,0.93-0.76,1.06c-0.29,0.07-0.57,0.23-0.83,0.38
			c-0.1,0.06-0.14,0.22-0.21,0.33c0.13,0.07,0.27,0.2,0.4,0.19c0.36-0.04,0.72-0.14,1.08-0.21c0.05,0.88-0.09,1.09-1.02,1.35
			c-3.8,1.06-7.59,2.16-11.41,3.14c-3.32,0.85-6.99-1.7-7.41-5.1c-0.21-1.71-0.35-3.42-0.41-5.14c-0.07-2.12-0.85-3.96-1.9-5.76
			c-3.54-6.06-7.03-12.15-10.53-18.23c-0.59-1.03-1.18-2.06-1.78-3.08c-0.15-0.26-0.2-0.43,0.1-0.6c1.1-0.63,2.19-1.27,3.36-1.94
			c0.46,0.78,0.9,1.53,1.34,2.28c4.01,6.95,8.01,13.9,12.02,20.84c1.03,1.78,1.44,3.67,1.26,5.72c-0.12,1.3-0.17,2.62-0.19,3.93
			c-0.03,1.73,1.18,2.9,2.96,2.87c4.48-0.08,8.9-0.63,13.22-1.85C2198.14,1892.59,2198.36,1892.54,2198.67,1892.46z"/>
		<path class="st2" d="M2154.67,1847.29c0.21,0.34,0.41,0.67,0.61,0.99c0.48,0.77,0.96,0.89,1.73,0.45c1.1-0.64,2.19-1.27,3.29-1.91
			c0.77-0.44,1.43-0.39,1.95,0.16c0.55,0.58,0.57,1.34,0.07,2.07c-0.07,0.1-0.11,0.23-0.2,0.44c0.9-0.17,1.6-0.07,2.04,0.72
			c0.44,0.77,0.08,1.43-0.44,2.19c1.05-0.23,1.84-0.03,2.19,0.86c0.42,1.07-0.18,1.75-1.17,2.19c0.03,0.05,0.06,0.09,0.1,0.14
			c0.18,0,0.37,0.01,0.55,0c0.7-0.04,1.36,0.39,1.58,1.02c0.24,0.7-0.01,1.39-0.69,1.78c-1.59,0.93-3.18,1.86-4.77,2.78
			c-1.19,0.68-2.47,1.09-3.82,1.27c-1.35,0.18-2.62,0.6-3.83,1.23c-0.75,0.39-1.23,0.27-1.65-0.46c-1.22-2.11-2.43-4.22-3.64-6.33
			c-0.35-0.61-0.32-1.14,0.18-1.48c1.99-1.39,3.17-3.36,4.11-5.53c0.36-0.83,0.95-1.56,1.45-2.33
			C2154.38,1847.44,2154.51,1847.4,2154.67,1847.29z"/>
		<path class="st2" d="M2140.79,1831.45c0.9-0.11,1.65-0.2,2.4-0.28c0.14-0.01,0.29,0.02,0.42,0.08c2.88,1.33,5.77,2.64,8.62,4.01
			c1.52,0.73,2.62,1.95,3.46,3.39c1.31,2.25,2.58,4.51,3.9,6.75c0.28,0.48,0.2,0.7-0.26,0.95c-1.01,0.54-1.99,1.13-3.07,1.76
			c-0.47-0.79-0.92-1.55-1.37-2.32c-0.92-1.57-1.83-3.15-2.75-4.72c-0.84-1.44-2.15-2.39-3.43-3.38c-2.51-1.94-5.01-3.9-7.51-5.85
			C2141.09,1831.74,2140.99,1831.64,2140.79,1831.45z"/>
	</g>
	<path class="st2" d="M2202.71,1888.81l-4.06,1.24c-0.09,0.03-0.12,0.15-0.09,0.26l0.18,0.6c0.03,0.11,0.13,0.2,0.22,0.17l1.37-0.42
		l3.36,11.05l1.07,1.13l0.26-1.52l-3.36-11.05l1.37-0.42c0.09-0.03,0.12-0.15,0.09-0.26l-0.18-0.6
		C2202.9,1888.87,2202.79,1888.79,2202.71,1888.81z"/>
</g>
<path d="M-38.52,74.27C-38.63,74.42-38.51,74.26-38.52,74.27L-38.52,74.27z"/>
<g>
	<path class="st3" d="M61.01,9.34l-10.33,4.51c-0.66,0.29-0.96,1.05-0.67,1.71c0.21,0.49,0.69,0.78,1.19,0.78
		c0.17,0,0.35-0.03,0.52-0.11l10.33-4.51c0.66-0.29,0.96-1.05,0.67-1.71C62.43,9.35,61.67,9.05,61.01,9.34z"/>
	<path class="st3" d="M61.53,18.92H51.2c-0.72,0-1.3,0.58-1.3,1.3c0,0.72,0.58,1.3,1.3,1.3h10.33c0.72,0,1.3-0.58,1.3-1.3
		C62.83,19.5,62.25,18.92,61.53,18.92z"/>
	<path class="st3" d="M62,27.91L51.67,23.9c-0.67-0.26-1.42,0.07-1.68,0.74c-0.26,0.67,0.07,1.42,0.74,1.68l10.33,4.01
		c0.15,0.06,0.31,0.09,0.47,0.09c0.52,0,1.01-0.31,1.21-0.83C63,28.92,62.67,28.17,62,27.91z"/>
</g>
<g>
	<g>
		<path class="st4" d="M31.39,18.79c2.73-0.19,1.56-2.53,4.48-5.26C33.53,14.31,31.78,16.46,31.39,18.79z M31.39,60.28
			c2.73-0.19,1.56-2.73,4.48-5.26C33.53,55.8,31.78,57.95,31.39,60.28z M27.88,53.66c-0.58,0.39-0.97,0.97-0.97,1.56v14.41
			c0,1.36,0.97,2.14,2.14,2.14h14.61c0.39,0,0.97,0,1.36-0.39H30.8c-1.56,0-2.92-1.17-2.92-2.92V54.05
			C27.88,53.86,27.88,53.66,27.88,53.66z M45.22,51.91h-1.56H30.8c-1.17,0-2.14,0.97-2.14,2.14v14.41c0,1.17,0.97,2.14,2.14,2.14
			h14.41c1.17,0,2.14-0.97,2.14-2.14V54.05C47.36,52.88,46.39,51.91,45.22,51.91z M37.42,54.05c4.09-1.95,11.1-0.39,8.77,3.9
			c-0.58,0.58-0.78,2.34-0.97,3.31c0,4.09-3.31,7.21-7.21,7.21c-4.09,0-7.4-3.12-7.4-7.21C30.61,57.36,33.53,54.25,37.42,54.05z
			 M45.02,59.12c0-0.58,0.19-1.17,0.58-1.56c1.56-3.31-4.09-4.09-6.43-3.51C41.91,54.64,44.24,56.58,45.02,59.12z M37.62,54.64
			c-4.68,2.92-2.34,6.23-6.23,6.43c0,3.7,2.92,6.82,6.62,6.82c3.51,0,6.62-2.92,6.62-6.62C44.63,57.56,41.32,54.44,37.62,54.64z
			 M31.39,39.64c2.73-0.19,1.56-2.73,4.48-5.26C33.53,35.16,31.78,37.1,31.39,39.64z M27.88,32.82c-0.58,0.39-0.97,0.97-0.97,1.75
			v14.41c0,1.17,0.97,2.14,2.14,2.14h14.61c0.39,0,0.97-0.19,1.36-0.58H30.8c-1.56,0-2.92-1.17-2.92-2.73V33.21
			C27.88,33.21,27.88,33.01,27.88,32.82z M45.22,31.07h-1.56H30.8c-1.17,0-2.14,0.97-2.14,2.14v14.61c0,1.17,0.97,2.14,2.14,2.14
			h14.41c1.17,0,2.14-0.97,2.14-2.14V33.21C47.36,32.04,46.39,31.07,45.22,31.07z M37.42,33.21c4.09-1.75,11.1-0.19,8.77,3.9
			c-0.58,0.78-0.78,2.53-0.97,3.51c0,3.9-3.31,7.21-7.21,7.21c-4.09,0-7.4-3.31-7.4-7.21S33.53,33.6,37.42,33.21z M45.02,38.47
			c0-0.78,0.19-1.36,0.58-1.75c1.56-3.31-4.09-3.9-6.43-3.31C41.91,33.79,44.24,35.74,45.02,38.47z M37.62,33.99
			c-4.68,2.92-2.34,6.04-6.23,6.43c0,3.7,2.92,6.62,6.62,6.62c3.51,0,6.62-2.92,6.62-6.43C44.63,36.71,41.32,33.79,37.62,33.99z
			 M27.88,12.17c-0.58,0.39-0.97,0.97-0.97,1.56v14.41c0,1.36,0.97,2.34,2.14,2.34h14.61c0.39,0,0.97-0.19,1.36-0.58H30.8
			c-1.56,0-2.92-1.17-2.92-2.92V12.56C27.88,12.37,27.88,12.17,27.88,12.17z M45.22,10.42H30.8c-1.17,0-2.14,0.97-2.14,2.14v14.41
			c0,1.17,0.97,2.14,2.14,2.14h14.41c1.17,0,2.14-0.78,2.14-2.14V12.56C47.36,11.39,46.39,10.42,45.22,10.42z M37.42,12.56
			c4.09-1.95,11.1-0.39,8.77,3.9c-0.58,0.58-0.78,2.34-0.97,3.31c0,4.09-3.31,7.4-7.21,7.4c-4.09,0-7.4-3.31-7.4-7.4
			C30.61,16.07,33.53,12.75,37.42,12.56z M45.02,17.62c0-0.58,0.19-1.17,0.58-1.56c1.56-3.31-4.09-3.9-6.43-3.51
			C41.91,13.14,44.24,15.09,45.02,17.62z"/>
	</g>
	<path class="st4" d="M91.76,13.86c-0.7-0.15-1.41-0.04-2.03,0.26v-2.48c0-1.5-1-2.84-2.38-3.17c-0.78-0.19-1.59-0.08-2.28,0.29
		c-0.19-0.59-0.55-1.11-1.06-1.51c-0.77-0.6-1.76-0.81-2.73-0.58C79.91,7,78.91,8.33,78.91,9.83v0.65c-0.65-0.31-1.4-0.39-2.13-0.21
		c-1.38,0.33-2.39,1.67-2.39,3.18v15.5l-3.44-4.11c-1.12-1.32-3.12-1.5-4.46-0.39c-0.72,0.61-1.12,1.49-1.12,2.42
		c0,0.58,0.16,1.17,0.52,1.88c1.12,2.23,2.49,4.3,3.79,6.22c0.27,0.4,0.54,0.8,0.8,1.21c1.21,1.84,2.47,3.75,4.21,5.3
		c2.17,1.94,4.91,2.98,7.81,2.98c0.38,0,0.76-0.02,1.14-0.05c5.95-0.55,10.6-5.82,10.6-11.99V17.05
		C94.24,15.58,93.13,14.15,91.76,13.86z M92.44,32.43c0,5.25-3.94,9.73-8.97,10.19c-2.81,0.26-5.5-0.62-7.58-2.48
		c-1.57-1.4-2.7-3.12-3.9-4.95c-0.27-0.41-0.54-0.81-0.81-1.22c-1.27-1.88-2.6-3.89-3.68-6.02c-0.22-0.44-0.33-0.79-0.33-1.07
		c0-0.4,0.17-0.78,0.48-1.04c0.57-0.48,1.44-0.4,1.91,0.17l5.04,6.01c0.24,0.29,0.64,0.4,1,0.27c0.36-0.13,0.6-0.47,0.6-0.85V13.45
		c0-0.68,0.42-1.28,1-1.42c0.44-0.11,0.85-0.02,1.19,0.25c0.33,0.26,0.52,0.64,0.52,1.07v10.38c0,0.5,0.41,0.9,0.9,0.9
		c0.5,0,0.9-0.41,0.9-0.9V9.83c0-0.68,0.42-1.28,1-1.42c0.43-0.1,0.85-0.02,1.19,0.25c0.33,0.26,0.52,0.65,0.52,1.07v13.99
		c0,0.5,0.41,0.9,0.9,0.9s0.91-0.41,0.91-0.9V11.53c0-0.42,0.19-0.81,0.52-1.07c0.33-0.27,0.75-0.35,1.19-0.25
		c0.58,0.14,1,0.74,1,1.42v12.98c0,0.5,0.4,0.9,0.9,0.9c0.5,0,0.9-0.41,0.9-0.9v-7.67c0-0.36,0.14-0.7,0.39-0.96
		c0.33-0.33,0.8-0.46,1.26-0.36c0.53,0.11,1.05,0.82,1.05,1.43L92.44,32.43L92.44,32.43z"/>
	<g>
		<line class="st2" x1="51.2" y1="15.04" x2="61.53" y2="10.53"/>
		<path class="st4" d="M51.2,16.34c-0.5,0-0.98-0.29-1.19-0.78c-0.29-0.66,0.01-1.42,0.67-1.71l10.33-4.51
			c0.65-0.29,1.42,0.01,1.71,0.67c0.29,0.66-0.01,1.42-0.67,1.71l-10.33,4.51C51.55,16.3,51.37,16.34,51.2,16.34z"/>
	</g>
	<g>
		<line class="st2" x1="51.2" y1="20.22" x2="61.53" y2="20.22"/>
		<path class="st4" d="M61.53,21.52H51.2c-0.72,0-1.3-0.58-1.3-1.3s0.58-1.3,1.3-1.3h10.33c0.72,0,1.3,0.58,1.3,1.3
			S62.25,21.52,61.53,21.52z"/>
	</g>
	<g>
		<line class="st2" x1="51.2" y1="25.11" x2="61.53" y2="29.12"/>
		<path class="st4" d="M61.53,30.41c-0.16,0-0.31-0.03-0.47-0.09l-10.33-4.01c-0.67-0.26-1-1.01-0.74-1.68
			c0.26-0.67,1.01-1,1.68-0.74L62,27.91c0.67,0.26,1,1.01,0.74,1.68C62.54,30.1,62.05,30.41,61.53,30.41z"/>
	</g>
</g>
</svg>
