<?xml version="1.0" encoding="utf-8"?>
<!-- Generator: Adobe Illustrator 28.1.0, SVG Export Plug-In . SVG Version: 6.00 Build 0)  -->
<svg version="1.1" id="Layer_1" xmlns="http://www.w3.org/2000/svg" xmlns:xlink="http://www.w3.org/1999/xlink" x="0px" y="0px"
	 viewBox="0 0 110.55 76.54" style="enable-background:new 0 0 110.55 76.54;" xml:space="preserve">
<style type="text/css">
	.st0{display:none;}
	.st1{display:inline;fill:none;}
	.st2{fill:#808080;}
</style>
<g id="Layer_2_00000073722119373351752270000017113015111246931634_" class="st0">
	<line class="st1" x1="-24.13" y1="74.54" x2="142.13" y2="74.54"/>
	<line class="st1" x1="-24.13" y1="2" x2="142.13" y2="2"/>
</g>
<g>
	<g>
		<path class="st2" d="M2198.67,1892.46c-0.07,0.57-0.23,0.93-0.76,1.06c-0.29,0.07-0.57,0.23-0.83,0.38
			c-0.1,0.06-0.14,0.22-0.21,0.33c0.13,0.07,0.27,0.2,0.4,0.19c0.36-0.04,0.72-0.14,1.08-0.21c0.05,0.88-0.09,1.09-1.02,1.35
			c-3.8,1.06-7.59,2.16-11.41,3.14c-3.32,0.85-6.99-1.7-7.41-5.1c-0.21-1.71-0.35-3.42-0.41-5.14c-0.07-2.12-0.85-3.96-1.9-5.76
			c-3.54-6.06-7.03-12.15-10.53-18.23c-0.59-1.03-1.18-2.06-1.78-3.08c-0.15-0.26-0.2-0.43,0.1-0.6c1.1-0.63,2.19-1.27,3.36-1.94
			c0.46,0.78,0.9,1.53,1.34,2.28c4.01,6.95,8.01,13.9,12.02,20.84c1.03,1.78,1.44,3.67,1.26,5.72c-0.12,1.3-0.17,2.62-0.19,3.93
			c-0.03,1.73,1.18,2.9,2.96,2.87c4.48-0.08,8.9-0.63,13.22-1.85C2198.14,1892.59,2198.36,1892.54,2198.67,1892.46z"/>
		<path class="st2" d="M2154.67,1847.29c0.21,0.34,0.41,0.67,0.61,0.99c0.48,0.77,0.96,0.89,1.73,0.45c1.1-0.64,2.19-1.27,3.29-1.91
			c0.77-0.44,1.43-0.39,1.95,0.16c0.55,0.58,0.57,1.34,0.07,2.07c-0.07,0.1-0.11,0.23-0.2,0.44c0.9-0.17,1.6-0.07,2.04,0.72
			c0.44,0.77,0.08,1.43-0.44,2.19c1.05-0.23,1.84-0.03,2.19,0.86c0.42,1.07-0.18,1.75-1.17,2.19c0.03,0.05,0.06,0.09,0.1,0.14
			c0.18,0,0.37,0.01,0.55,0c0.7-0.04,1.36,0.39,1.58,1.02c0.24,0.7-0.01,1.39-0.69,1.78c-1.59,0.93-3.18,1.86-4.77,2.78
			c-1.19,0.68-2.47,1.09-3.82,1.27c-1.35,0.18-2.62,0.6-3.83,1.23c-0.75,0.39-1.23,0.27-1.65-0.46c-1.22-2.11-2.43-4.22-3.64-6.33
			c-0.35-0.61-0.32-1.14,0.18-1.48c1.99-1.39,3.17-3.36,4.11-5.53c0.36-0.83,0.95-1.56,1.45-2.33
			C2154.38,1847.44,2154.51,1847.4,2154.67,1847.29z"/>
		<path class="st2" d="M2140.79,1831.45c0.9-0.11,1.65-0.2,2.4-0.28c0.14-0.01,0.29,0.02,0.42,0.08c2.88,1.33,5.77,2.64,8.62,4.01
			c1.52,0.73,2.62,1.95,3.46,3.39c1.31,2.25,2.58,4.51,3.9,6.75c0.28,0.48,0.2,0.7-0.26,0.95c-1.01,0.54-1.99,1.13-3.07,1.76
			c-0.47-0.79-0.92-1.55-1.37-2.32c-0.92-1.57-1.83-3.15-2.75-4.72c-0.84-1.44-2.15-2.39-3.43-3.38c-2.51-1.94-5.01-3.9-7.51-5.85
			C2141.09,1831.74,2140.99,1831.64,2140.79,1831.45z"/>
	</g>
	<path class="st2" d="M2202.71,1888.81l-4.06,1.24c-0.09,0.03-0.12,0.15-0.09,0.26l0.18,0.6c0.03,0.11,0.13,0.2,0.22,0.17l1.37-0.42
		l3.36,11.05l1.07,1.13l0.26-1.52l-3.36-11.05l1.37-0.42c0.09-0.03,0.12-0.15,0.09-0.26l-0.18-0.6
		C2202.9,1888.87,2202.79,1888.79,2202.71,1888.81z"/>
</g>
<g>
	<path d="M40.67,74.88h31.99c0.18,0,0.36-0.08,0.48-0.22c0.1-0.11,0.17-0.25,0.17-0.44c0-0.33-0.25-0.57-0.57-0.57h-8.43
		c0,0,0,0,0,0h0c0.49-5.65,2.86-24.05,8.92-33.63c0.03-0.05,0.04-0.1,0.06-0.15c0.06-0.22-0.01-0.46-0.14-0.59
		c-0.07-0.07-0.17-0.12-0.28-0.15c-0.02-0.01-0.04-0.02-0.06-0.02c0,0,0,0,0,0c-0.13-0.02-0.27,0-0.4,0.08
		c-0.8,0.48-1.59,1.31-2.35,2.4c-0.44,0.62-0.87,1.33-1.28,2.11c-0.13,0.24-0.25,0.48-0.38,0.73c-0.88,1.74-1.71,3.78-2.49,5.94
		c-1.66,4.64-3.05,9.89-4.05,14.19c0,0,0,0,0,0c0,0,0,0,0,0c0.65-12.27,2.78-36,9.16-50.15c0.08-0.24,0.08-0.57-0.16-0.73
		c0,0,0,0,0,0c-0.03-0.02-0.07-0.03-0.1-0.05c-0.15-0.07-0.32-0.09-0.45-0.05c-0.07,0.02-0.13,0.05-0.18,0.1
		c-0.66,0.55-1.3,1.35-1.93,2.33c-0.23,0.37-0.46,0.75-0.69,1.17c-0.17,0.31-0.33,0.63-0.5,0.97c-0.33,0.67-0.65,1.4-0.97,2.17
		c-0.32,0.77-0.63,1.59-0.93,2.45c-0.27,0.76-0.53,1.55-0.79,2.36c-0.22,0.71-0.44,1.44-0.66,2.19c-2.65,9.16-4.72,21.03-6.06,30.7
		v0c0,0,0,0,0,0V27.51h0v0h0.16c1.23,0,2.29-0.98,2.29-2.29c0,0,0-0.47,0-0.77c0-0.01,0-0.04,0-0.06c0-0.04,0-0.1,0-0.17
		c0-0.78,0-3.26,0-3.26h-3.93c-0.33,0-0.65-0.25-0.65-0.65c0-0.33,0.25-0.65,0.65-0.65h3.93v-2.05h-2.29
		c-0.33,0-0.65-0.25-0.65-0.65c0-0.33,0.25-0.65,0.65-0.65h2.29V7.22c0-0.31-0.06-0.6-0.17-0.88c-0.34-0.82-1.14-1.42-2.12-1.42
		h-0.16V2.31c0-0.33-0.25-0.65-0.65-0.65c-0.33,0-0.65,0.25-0.65,0.65v2.62h-0.16c-0.61,0-1.19,0.25-1.61,0.65
		c-0.42,0.41-0.69,0.98-0.69,1.64v18c0,1.23,0.98,2.29,2.29,2.29h0.16v0h0v29.37c0,0,0,0,0,0v0c-0.59-5.91-1.46-12.58-2.7-18.53
		c-1.09-5.23-2.48-9.89-4.22-12.98c-0.69-1.22-1.44-2.2-2.24-2.86c-0.18-0.12-0.37-0.15-0.55-0.09c-0.03,0.01-0.06,0.03-0.09,0.05
		c-0.03,0.02-0.06,0.03-0.09,0.05c-0.18,0.12-0.27,0.33-0.24,0.53c0,0,0,0,0,0.01c0.01,0.03,0.03,0.06,0.04,0.1
		c0.01,0.03,0.02,0.07,0.04,0.1c3.46,7.73,4.99,18.69,5.61,28.3c0.01,0.13,0.02,0.27,0.03,0.4c0.05,0.8,0.09,1.59,0.13,2.37
		c0.23,4.74,0.26,9.02,0.2,12.21c0,0,0,0,0,0c0,0,0,0,0,0c-1.34-5.99-3.6-14.2-6.26-20.16c-1.55-3.48-3.23-6.19-4.95-7.24
		c-0.04-0.03-0.09-0.04-0.13-0.05c-0.22-0.07-0.47,0-0.61,0.13c-0.01,0.01-0.02,0.03-0.03,0.05c-0.14,0.17-0.2,0.46-0.05,0.69
		c4.08,6.53,6.51,17.17,7.8,25.07c0.08,0.48,0.15,0.94,0.22,1.4c0.09,0.59,0.17,1.16,0.25,1.71c0.32,2.29,0.53,4.19,0.64,5.45l0,0
		c0,0,0,0,0,0h-8.43c-0.33,0-0.65,0.25-0.65,0.65c0,0.15,0.06,0.29,0.15,0.41C40.28,74.78,40.45,74.88,40.67,74.88z"/>
</g>
</svg>
