<?xml version="1.0" encoding="utf-8"?>
<!-- Generator: Adobe Illustrator 28.1.0, SVG Export Plug-In . SVG Version: 6.00 Build 0)  -->
<svg version="1.1" id="Layer_1" xmlns="http://www.w3.org/2000/svg" xmlns:xlink="http://www.w3.org/1999/xlink" x="0px" y="0px"
	 viewBox="0 0 110.55 76.54" style="enable-background:new 0 0 110.55 76.54;" xml:space="preserve">
<style type="text/css">
	.st0{display:none;}
	.st1{display:inline;fill:none;}
	.st2{fill:#808080;}
	.st3{fill:#010101;}
</style>
<g id="Layer_2_00000073722119373351752270000017113015111246931634_" class="st0">
	<line class="st1" x1="-24.13" y1="74.54" x2="142.13" y2="74.54"/>
	<line class="st1" x1="-24.13" y1="2" x2="142.13" y2="2"/>
</g>
<g>
	<g>
		<path class="st2" d="M2198.67,1892.46c-0.07,0.57-0.23,0.93-0.76,1.06c-0.29,0.07-0.57,0.23-0.83,0.38
			c-0.1,0.06-0.14,0.22-0.21,0.33c0.13,0.07,0.27,0.2,0.4,0.19c0.36-0.04,0.72-0.14,1.08-0.21c0.05,0.88-0.09,1.09-1.02,1.35
			c-3.8,1.06-7.59,2.16-11.41,3.14c-3.32,0.85-6.99-1.7-7.41-5.1c-0.21-1.71-0.35-3.42-0.41-5.14c-0.07-2.12-0.85-3.96-1.9-5.76
			c-3.54-6.06-7.03-12.15-10.53-18.23c-0.59-1.03-1.18-2.06-1.78-3.08c-0.15-0.26-0.2-0.43,0.1-0.6c1.1-0.63,2.19-1.27,3.36-1.94
			c0.46,0.78,0.9,1.53,1.34,2.28c4.01,6.95,8.01,13.9,12.02,20.84c1.03,1.78,1.44,3.67,1.26,5.72c-0.12,1.3-0.17,2.62-0.19,3.93
			c-0.03,1.73,1.18,2.9,2.96,2.87c4.48-0.08,8.9-0.63,13.22-1.85C2198.14,1892.59,2198.36,1892.54,2198.67,1892.46z"/>
		<path class="st2" d="M2154.67,1847.29c0.21,0.34,0.41,0.67,0.61,0.99c0.48,0.77,0.96,0.89,1.73,0.45c1.1-0.64,2.19-1.27,3.29-1.91
			c0.77-0.44,1.43-0.39,1.95,0.16c0.55,0.58,0.57,1.34,0.07,2.07c-0.07,0.1-0.11,0.23-0.2,0.44c0.9-0.17,1.6-0.07,2.04,0.72
			c0.44,0.77,0.08,1.43-0.44,2.19c1.05-0.23,1.84-0.03,2.19,0.86c0.42,1.07-0.18,1.75-1.17,2.19c0.03,0.05,0.06,0.09,0.1,0.14
			c0.18,0,0.37,0.01,0.55,0c0.7-0.04,1.36,0.39,1.58,1.02c0.24,0.7-0.01,1.39-0.69,1.78c-1.59,0.93-3.18,1.86-4.77,2.78
			c-1.19,0.68-2.47,1.09-3.82,1.27c-1.35,0.18-2.62,0.6-3.83,1.23c-0.75,0.39-1.23,0.27-1.65-0.46c-1.22-2.11-2.43-4.22-3.64-6.33
			c-0.35-0.61-0.32-1.14,0.18-1.48c1.99-1.39,3.17-3.36,4.11-5.53c0.36-0.83,0.95-1.56,1.45-2.33
			C2154.38,1847.44,2154.51,1847.4,2154.67,1847.29z"/>
		<path class="st2" d="M2140.79,1831.45c0.9-0.11,1.65-0.2,2.4-0.28c0.14-0.01,0.29,0.02,0.42,0.08c2.88,1.33,5.77,2.64,8.62,4.01
			c1.52,0.73,2.62,1.95,3.46,3.39c1.31,2.25,2.58,4.51,3.9,6.75c0.28,0.48,0.2,0.7-0.26,0.95c-1.01,0.54-1.99,1.13-3.07,1.76
			c-0.47-0.79-0.92-1.55-1.37-2.32c-0.92-1.57-1.83-3.15-2.75-4.72c-0.84-1.44-2.15-2.39-3.43-3.38c-2.51-1.94-5.01-3.9-7.51-5.85
			C2141.09,1831.74,2140.99,1831.64,2140.79,1831.45z"/>
	</g>
	<path class="st2" d="M2202.71,1888.81l-4.06,1.24c-0.09,0.03-0.12,0.15-0.09,0.26l0.18,0.6c0.03,0.11,0.13,0.2,0.22,0.17l1.37-0.42
		l3.36,11.05l1.07,1.13l0.26-1.52l-3.36-11.05l1.37-0.42c0.09-0.03,0.12-0.15,0.09-0.26l-0.18-0.6
		C2202.9,1888.87,2202.79,1888.79,2202.71,1888.81z"/>
</g>
<path d="M-38.52,74.27C-38.63,74.42-38.51,74.26-38.52,74.27L-38.52,74.27z"/>
<g>
	<path class="st3" d="M51.85,31.87c-0.53,1.1-1.03,2.12-1.5,3.09c-4.68,9.59-6.72,13.78-6.71,27.42c0,0.74-0.13,1.25-0.48,1.57
		c-0.37,0.33-0.88,0.39-1.64,0.21c-0.35-0.08-0.44-0.1-0.51-0.12c-1.49-0.35-2.95-0.69-4.09-0.69c-0.76,0-1.32,0.2-1.68,0.52
		c-0.24,0.2-0.39,0.46-0.48,0.75c0,0.01,0,0.01,0,0.01c-0.01,0.03-0.02,0.07-0.02,0.1c-0.08,0.35-0.04,0.74,0.09,1.13
		c0.23,0.67,0.76,1.33,1.56,1.8c2.09,1.22,5.65,1.73,8.28,2.11l0.46,0.07c0.56,0.08,1.02,0.33,1.37,0.67
		c0.62-4.4,1.11-8.81,1.59-13.21C49.03,48.81,49.96,40.31,51.85,31.87 M34.06,34.63c0,0.01,0,0.02,0,0.03
		c0.34,0.2,0.69,0.36,1.05,0.5c1.01,0.39,2.09,0.58,3.11,0.75c0.57,0.09,0.92,0.41,1.08,0.77c0.08,0.18,0.11,0.37,0.1,0.56
		c-0.01,0.19-0.08,0.37-0.18,0.53c-0.21,0.33-0.59,0.57-1.1,0.56l-3.9-0.01v7.83c0,0.98-0.57,1.59-1.3,1.86
		c-0.27,0.1-0.56,0.14-0.85,0.14c-0.29,0-0.58-0.05-0.85-0.14c-0.74-0.27-1.32-0.88-1.32-1.81v-7.88l-3.93,0.01
		c-0.52,0-0.89-0.24-1.1-0.56c-0.1-0.16-0.16-0.34-0.18-0.53c-0.01-0.19,0.02-0.38,0.1-0.56c0.16-0.37,0.52-0.68,1.09-0.77
		c1.02-0.17,2.1-0.37,3.1-0.75c0.37-0.14,0.73-0.31,1.08-0.52l0.87-30.29c0-0.04,0-0.07,0-0.09c0.02-0.49,0.15-0.88,0.31-1.14
		c0.23-0.35,0.54-0.52,0.86-0.52h0.01c0.33-0.01,0.64,0.17,0.87,0.52c0.17,0.26,0.29,0.65,0.32,1.14c0,0.02,0,0.05,0,0.09
		L34.06,34.63z M33.06,33.94L32.33,4.37c0-0.01,0-0.03,0-0.07c-0.02-0.31-0.08-0.53-0.16-0.66c-0.03-0.04-0.01-0.06-0.02-0.06
		c-0.02,0-0.03,0-0.05,0c-0.01,0.01,0.01,0.03-0.02,0.06C32,3.78,31.94,3.99,31.92,4.31c0,0.03,0,0.06,0,0.07l-0.85,29.53
		c0.2-0.19,0.4-0.39,0.59-0.62c0.02-0.03,0.04-0.05,0.07-0.07c0.21-0.17,0.52-0.14,0.69,0.06C32.62,33.53,32.84,33.74,33.06,33.94
		 M32.15,3.58L32.15,3.58C32.14,3.58,32.14,3.58,32.15,3.58 M32.1,3.58 M30.89,38.34v7.88c0,0.45,0.29,0.75,0.66,0.89
		c0.16,0.06,0.34,0.09,0.52,0.09c0.18,0,0.35-0.03,0.51-0.09c0.36-0.13,0.64-0.44,0.64-0.93v-7.83H30.89z M30.35,37.35
		c0.02,0,0.03,0,0.05,0h3.32c0.02,0,0.03,0,0.05,0l4.35,0.01c0.14,0,0.23-0.05,0.26-0.11c0.02-0.02,0.03-0.05,0.03-0.08
		c0-0.03,0-0.06-0.02-0.09c-0.04-0.09-0.15-0.17-0.34-0.2c-1.06-0.18-2.2-0.38-3.3-0.81c-0.97-0.38-1.9-0.91-2.71-1.74
		c-0.81,0.83-1.74,1.37-2.71,1.74c-1.1,0.42-2.23,0.63-3.3,0.81c-0.19,0.03-0.31,0.11-0.34,0.2c-0.01,0.03-0.02,0.06-0.01,0.09
		c0,0.03,0.01,0.06,0.03,0.08c0.04,0.06,0.13,0.11,0.27,0.11L30.35,37.35z M51.47,10.27c0.27,0.02,0.55-0.01,0.8-0.14
		c0.34-0.18,0.64-0.55,0.87-1.24c0.08-0.26,0.36-0.4,0.62-0.32c0.14,0.04,0.25,0.15,0.3,0.27c0.33,0.78,0.62,1.31,0.93,1.67
		c0.2,0.22,0.41,0.37,0.67,0.45c0.67-1.13,0.76-2.02,0.56-2.72c-0.22-0.75-0.8-1.31-1.38-1.7c-0.22-0.15-0.28-0.46-0.13-0.68
		c0.05-0.07,0.11-0.12,0.17-0.16c0.62-0.34,1.04-0.76,1.33-1.32c0.31-0.6,0.48-1.36,0.62-2.37c0.03-0.25,0.25-0.44,0.5-0.43
		c0.25-0.01,0.47,0.17,0.51,0.43c0.13,1,0.31,1.77,0.62,2.37c0.29,0.56,0.7,0.98,1.33,1.32c0.07,0.04,0.13,0.09,0.17,0.16
		c0.15,0.23,0.09,0.53-0.13,0.68c-0.58,0.39-1.16,0.95-1.38,1.7c-0.2,0.69-0.11,1.58,0.56,2.72c0.26-0.09,0.47-0.23,0.67-0.45
		c0.31-0.35,0.6-0.89,0.93-1.67h0c0.05-0.13,0.16-0.23,0.3-0.27c0.26-0.08,0.54,0.06,0.62,0.32c0.22,0.69,0.53,1.06,0.87,1.24
		c0.25,0.13,0.53,0.16,0.8,0.14c-0.03-0.47-0.12-0.94-0.26-1.4c-0.32-1.07-0.86-2.03-1.39-2.65c-0.18-0.21-0.15-0.52,0.05-0.7
		c0.15-0.12,0.34-0.15,0.51-0.08c0.2,0.07,0.36,0.08,0.48,0.04c0.06-0.02,0.11-0.05,0.15-0.09c0.05-0.05,0.09-0.11,0.11-0.19
		c0.09-0.25,0.08-0.61-0.05-1.03c-0.08-0.26,0.06-0.54,0.32-0.62c0.05-0.02,0.1-0.02,0.15-0.02c0.12-0.01,0.24-0.01,0.36-0.01
		c0.73-0.01,1.21-0.01,1.57-1.18c0.08-0.26,0.35-0.41,0.62-0.33c0.25,0.08,0.39,0.34,0.33,0.59l-2.04,9.09l0,0.02
		c0,0.02-0.01,0.03-0.01,0.04l-0.3,1.34c-0.45,2-4.91,2-6.37,2h-0.08h-0.08c-1.46,0-5.92,0-6.37-2l-0.3-1.34
		c0-0.01-0.01-0.03-0.01-0.04l-0.01-0.02L48.52,2.6c-0.06-0.25,0.08-0.51,0.33-0.59c0.26-0.08,0.54,0.06,0.62,0.33
		c0.36,1.17,0.84,1.17,1.57,1.18c0.12,0,0.24,0,0.36,0.01c0.05,0,0.1,0.01,0.15,0.02c0.26,0.08,0.4,0.36,0.32,0.62
		c-0.13,0.42-0.15,0.78-0.05,1.03c0.03,0.08,0.07,0.15,0.11,0.19c0.04,0.04,0.09,0.08,0.15,0.09c0.12,0.04,0.28,0.03,0.48-0.04
		c0.17-0.07,0.37-0.04,0.51,0.08c0.21,0.18,0.23,0.49,0.05,0.7c-0.53,0.62-1.08,1.58-1.39,2.65C51.59,9.33,51.5,9.8,51.47,10.27
		 M57.33,4.27c-0.07,0.2-0.16,0.39-0.25,0.57c-0.27,0.53-0.63,0.97-1.12,1.34c0.52,0.46,0.98,1.05,1.2,1.79
		c0.28,0.96,0.17,2.14-0.7,3.58c0.22,0.01,0.45,0.01,0.68,0.01c0.36,0,0.71-0.01,1.05-0.02c-0.87-1.44-0.98-2.62-0.69-3.57
		c0.22-0.74,0.68-1.33,1.2-1.79c-0.48-0.37-0.84-0.8-1.12-1.34C57.48,4.66,57.4,4.47,57.33,4.27 M54.52,11.44
		c-0.09-0.08-0.18-0.17-0.27-0.27c-0.23-0.26-0.44-0.57-0.65-0.97c-0.26,0.38-0.55,0.64-0.88,0.81c-0.09,0.05-0.18,0.09-0.26,0.12
		c0.05,0.01,0.1,0.02,0.15,0.03C53.16,11.27,53.8,11.37,54.52,11.44z M51.53,11.49c0,0.01,0.01,0.02,0.01,0.03l0.01,0.02l0.3,1.34
		c0.28,1.23,4.14,1.23,5.41,1.23h0.08h0.08c1.27,0,5.13,0,5.41-1.23l0.3-1.34l0-0.02c0.01-0.06,0.03-0.13,0.03-0.2
		c-0.35,0.17-0.81,0.31-1.36,0.43c-1.2,0.26-2.84,0.42-4.66,0.42c-1.82,0-3.46-0.16-4.66-0.42C52.13,11.68,51.81,11.59,51.53,11.49
		 M50.84,8.41c0.24-0.73,0.56-1.42,0.92-1.99c-0.21-0.07-0.39-0.19-0.54-0.34c-0.15-0.15-0.26-0.34-0.33-0.55
		c-0.11-0.3-0.14-0.64-0.1-1.03c-0.31-0.01-0.6-0.02-0.85-0.09L50.84,8.41z M62.05,11.06c-0.04-0.02-0.08-0.04-0.12-0.06
		c-0.32-0.17-0.62-0.43-0.88-0.81c-0.21,0.4-0.42,0.72-0.65,0.97c-0.07,0.08-0.15,0.16-0.22,0.23c0.55-0.06,1.05-0.14,1.48-0.24
		C61.8,11.12,61.93,11.09,62.05,11.06 M62.89,6.42c0.36,0.57,0.69,1.26,0.93,1.99l0.9-4c-0.26,0.07-0.54,0.08-0.85,0.09
		c0.04,0.39,0.01,0.74-0.1,1.03c-0.08,0.21-0.19,0.4-0.34,0.55C63.28,6.23,63.1,6.35,62.89,6.42 M85.54,29.32
		c0.16-0.05,0.33,0.05,0.38,0.21c0.05,0.16-0.05,0.33-0.21,0.38c-0.26,0.08-0.52,0.13-0.78,0.17c-0.26,0.04-0.53,0.06-0.8,0.06
		c-0.27,0-0.54-0.02-0.81-0.06c-0.27-0.04-0.53-0.1-0.79-0.18c-0.16-0.05-0.26-0.22-0.21-0.38c0.05-0.16,0.22-0.26,0.38-0.21
		c0.23,0.07,0.46,0.12,0.7,0.16c0.08,0.01,0.16,0.02,0.24,0.03c0-0.03-0.01-0.05-0.01-0.08v-1.25c-1.13,0.11-2.15,0.62-2.91,1.39
		c-0.87,0.87-1.41,2.07-1.41,3.4c0,1.07,0.35,2.07,0.95,2.87c0.61,0.82,1.48,1.44,2.49,1.74c0.22,0.06,0.45,0.12,0.68,0.15
		c0.23,0.03,0.46,0.05,0.7,0.05c0.24,0,0.47-0.02,0.68-0.05c0.23-0.03,0.45-0.08,0.67-0.14c1.01-0.3,1.89-0.91,2.5-1.74
		c0.6-0.8,0.96-1.8,0.96-2.88h0c0-1.33-0.54-2.53-1.41-3.4c-0.76-0.76-1.77-1.27-2.9-1.38v1.25c0,0.03,0,0.05-0.01,0.07
		c0.07-0.01,0.14-0.02,0.21-0.03C85.09,29.44,85.32,29.39,85.54,29.32 M83.66,27.18v-4.82l-0.94-0.94h-2.16
		c-0.27,0-0.49-0.22-0.49-0.49c0-0.27,0.22-0.49,0.49-0.49h2.16l0.94-0.94v-3.16c0-0.27,0.22-0.49,0.49-0.49
		c0.27,0,0.49,0.22,0.49,0.49v3.17l0.93,0.93h2.15c0.27,0,0.49,0.22,0.49,0.49c0,0.27-0.22,0.49-0.49,0.49h-2.15l-0.93,0.93v4.84
		c1.4,0.12,2.66,0.74,3.6,1.68c1.05,1.05,1.7,2.5,1.7,4.1h0c0,1.3-0.43,2.5-1.16,3.47c-0.74,0.99-1.8,1.74-3.02,2.09
		c-0.26,0.08-0.53,0.13-0.8,0.17c-0.27,0.04-0.55,0.06-0.82,0.06c-0.28,0-0.56-0.02-0.83-0.06c-0.28-0.04-0.55-0.1-0.82-0.18
		c-1.21-0.36-2.26-1.11-3-2.1c-0.72-0.97-1.15-2.16-1.15-3.46c0-1.6,0.65-3.05,1.7-4.1C80.99,27.92,82.25,27.3,83.66,27.18
		 M84.14,20.4l-0.53,0.53l0.53,0.52l0.53-0.52L84.14,20.4z M51.6,20.89c-0.26-0.07-0.42-0.33-0.36-0.6c0.07-0.26,0.34-0.42,0.6-0.36
		l1.95,0.5c1.22,0.24,2.06,0.71,2.59,1.31c0.33,0.37,0.54,0.78,0.64,1.2c0.11-0.43,0.31-0.84,0.64-1.2c0.53-0.6,1.38-1.07,2.6-1.31
		l1.95-0.5c0.27-0.07,0.53,0.09,0.6,0.36c0.07,0.27-0.09,0.53-0.36,0.6l-1.95,0.5c-0.01,0-0.02,0-0.03,0.01
		c-1,0.19-1.68,0.55-2.07,1c-0.31,0.34-0.45,0.74-0.47,1.14c-0.02,0.42,0.09,0.87,0.32,1.28c0.35,0.66,0.96,1.24,1.72,1.56
		c1.07,0.45,1.98,0.49,2.82,0.27c0.86-0.22,1.69-0.72,2.57-1.3c0.02-0.01,0.04-0.03,0.05-0.04c0.46-0.31,0.74-0.54,0.8-0.76
		c0.06-0.2-0.07-0.49-0.41-0.95c-0.76-1.03-0.73-2.06-0.69-3.22c0.01-0.12,0.01-0.24,0.01-0.33c0.04-1.49-2.6-1.79-5.03-1.85
		c-0.67-0.02-1.33-0.01-1.92-0.01c-0.42,0-0.82,0-1.15,0c-0.34,0.01-0.73,0.01-1.15,0c-0.59,0-1.24-0.01-1.92,0.01
		c-2.43,0.06-5.07,0.36-5.03,1.85c0,0.1,0.01,0.21,0.01,0.33c0.04,1.16,0.07,2.19-0.69,3.22c-0.34,0.46-0.47,0.75-0.41,0.95
		c0.06,0.22,0.35,0.46,0.83,0.78c0.89,0.6,1.72,1.1,2.6,1.32c0.84,0.22,1.75,0.18,2.82-0.27c0.76-0.32,1.37-0.9,1.72-1.56
		c0.22-0.41,0.34-0.86,0.32-1.28c-0.02-0.41-0.17-0.8-0.47-1.14c-0.4-0.44-1.06-0.8-2.05-0.99c-0.02,0-0.04-0.01-0.05-0.01
		L51.6,20.89z M57.04,24.34c-0.07,0.32-0.19,0.63-0.35,0.93c-0.46,0.85-1.24,1.59-2.21,2c-0.18,0.08-0.35,0.14-0.53,0.2
		c-2.67,9.9-3.78,19.92-4.88,29.94c-0.46,4.15-0.92,8.31-1.48,12.45c0.57-0.59,1.26-0.95,1.99-1.14c1.13-0.3,2.36-0.18,3.49,0.13
		c0.66,0.18,1.28,0.43,1.82,0.69c1.39,0.69,1.75,0.51,3.24-0.2c0.46-0.22-0.39,0.18,0.29-0.14c1.03-0.49,2.3-0.99,3.47-0.92
		c0.6,0.04,1.16,0.21,1.63,0.6c-0.59-6.28-1.2-12.57-1.82-18.87c-0.73-7.56-1.47-15.11-2.18-22.78c-0.93-0.42-1.68-1.14-2.12-1.97
		C57.23,24.97,57.11,24.66,57.04,24.34 M52.7,27.74c-0.59,0.05-1.14-0.01-1.67-0.14c-0.74-0.19-1.44-0.54-2.14-0.97
		c-0.63,3.64-1.5,6.92-2.79,10.41c-0.45,1.22-0.95,2.46-1.5,3.76c0.4-0.61,0.81-1.23,1.21-1.84C48.22,35.31,50.64,31.67,52.7,27.74
		 M47.99,26.05c-0.59-0.41-0.96-0.77-1.09-1.24c-0.15-0.53,0.03-1.07,0.57-1.8c0.55-0.76,0.53-1.63,0.5-2.61
		c0-0.1-0.01-0.21-0.01-0.34c-0.06-2.34,3.09-2.79,5.99-2.86c0.68-0.02,1.34-0.02,1.94-0.01c0.42,0,0.81,0,1.14,0h0.02
		c0.33,0.01,0.72,0,1.14,0c0.6-0.01,1.27-0.01,1.94,0.01c2.9,0.07,6.05,0.52,5.99,2.86c-0.01,0.13-0.01,0.24-0.01,0.34
		c-0.03,0.98-0.06,1.85,0.5,2.61c0.53,0.73,0.71,1.27,0.56,1.8c-0.12,0.44-0.45,0.78-0.97,1.16c1.07,7.01,3.09,13.94,5.56,20
		c2.69,6.6,5.91,12.16,9.02,15.66c0.07,0.08,0.12,0.18,0.13,0.3c0.15,1.8-0.32,3.27-1.23,4.48c-0.82,1.09-2,1.96-3.43,2.7
		c0.29,0.82,0.56,1.64,0.83,2.45c0.05,0.13,0.09,0.27,0.11,0.41c0.06,0.37,0.03,0.76-0.11,1.1c-0.23,0.55-0.71,0.95-1.51,0.91
		c-0.41-0.02-0.8-0.06-1.19-0.1c-1.32-0.13-2.63-0.27-3.85,0.66c-0.11,0.09-0.23,0.18-0.34,0.27c-0.6,0.46-1.3,0.75-2.01,0.88
		c-0.69,0.12-1.4,0.09-2.04-0.11c-0.66-0.2-1.24-0.57-1.65-1.12c-0.29-0.38-0.5-0.84-0.6-1.38c-0.01-0.07-0.01-0.13,0.01-0.19
		l-0.03,0c-0.05-0.55-0.1-1.1-0.16-1.65c-0.34-1.4-1.07-1.9-1.91-1.95c-0.95-0.06-2.07,0.39-2.99,0.83
		c-0.88,0.42-0.02,0.01-0.29,0.14c-1.83,0.88-2.28,1.1-4.1,0.2c-0.5-0.25-1.06-0.47-1.64-0.63c-0.98-0.27-2.04-0.37-2.98-0.12
		c-0.9,0.24-1.71,0.81-2.25,1.9c-0.15,0.3-0.27,0.63-0.38,1.01c-0.01,0.03-0.01,0.07-0.02,0.11c-0.08,0.39-0.27,0.76-0.58,1.08
		c-0.73,0.76-2.14,1.21-4.43,0.74c-5-1.03-5.26-2.9-5.48-4.45c-0.08-0.59-0.16-1.12-0.61-1.44c-0.06-0.03-0.12-0.07-0.18-0.1
		c-1.03-0.6-1.7-1.46-2-2.34c-0.19-0.56-0.23-1.12-0.12-1.65c0.01-0.05,0.02-0.1,0.04-0.15c1.11-5.86,3.24-10.86,5.79-15.49
		c2.45-4.73,4.23-8.58,5.56-12.19C46.49,33.13,47.36,29.79,47.99,26.05 M65.31,26.56c-0.74,0.46-1.47,0.83-2.26,1.04
		c-0.03,0.01-0.05,0.01-0.08,0.02c0.82,8.79,4.9,19.35,8.93,29.78c1.4,3.62,2.79,7.23,4.05,10.75c1.25-0.66,2.27-1.42,2.97-2.35
		c0.74-0.99,1.13-2.18,1.04-3.64c-3.16-3.59-6.4-9.2-9.1-15.83C68.42,40.33,66.41,33.5,65.31,26.56 M61.99,27.76
		c-0.46,0.02-0.94-0.03-1.45-0.16c1.1,11.01,4.19,19.1,7.29,27.2c1.57,4.12,3.15,8.23,4.47,12.77c0.08,0.21,0.01,0.45-0.18,0.58
		c-0.95,0.66-2.19,0.83-3.43,0.99c-2.07,0.27-4.12,0.55-3.82,3.66l-0.01,0c0.02,0.03,0.03,0.07,0.03,0.11
		c0.07,0.38,0.21,0.7,0.41,0.96c0.28,0.37,0.69,0.63,1.16,0.78c0.48,0.15,1.03,0.17,1.58,0.08c0.56-0.1,1.11-0.33,1.58-0.69
		c0.33-0.26,0.68-0.55,1.05-0.87c1.17-1,2.5-2.15,4.31-2.77c0.24-0.08,0.46-0.11,0.67-0.09c-0.14-0.42-0.29-0.83-0.44-1.25
		c-0.01-0.02-0.01-0.04-0.02-0.05c-1.29-3.66-2.75-7.43-4.22-11.23C66.93,47.28,62.83,36.67,61.99,27.76 M58.26,67.18
		c0.15-0.08,0.34-0.01,0.41,0.14c0.07,0.16,0.01,0.34-0.15,0.41c-0.76,0.36-0.03,0.01-0.25,0.12c-1.8,0.86-2.22,1.06-3.97,0.21
		c-0.15-0.07-0.22-0.26-0.14-0.41c0.07-0.15,0.26-0.22,0.41-0.14c1.49,0.72,1.86,0.54,3.44-0.22C58.4,67.11,57.68,67.45,58.26,67.18
		 M75.3,71.31c-1.01,0.35-1.87,0.89-2.64,1.47c0.62-0.03,1.23,0.04,1.85,0.1c0.38,0.04,0.76,0.08,1.13,0.09
		c0.31,0.01,0.49-0.12,0.56-0.31c0.06-0.16,0.08-0.36,0.04-0.56c-0.03-0.21-0.12-0.41-0.24-0.57C75.85,71.33,75.6,71.21,75.3,71.31
		 M71.26,67.51c-1.28-4.34-2.82-8.35-4.35-12.36c-1.89-4.94-3.78-9.88-5.23-15.5c0.33,3.42,0.66,6.85,0.99,10.28
		c0.64,6.55,1.27,13.09,1.9,19.71c0.88-1.07,2.43-1.28,3.99-1.48C69.54,68.02,70.53,67.89,71.26,67.51 M46.23,72.43
		c0-0.01,0-0.01,0-0.02l0.01-0.04c0.02-0.18,0-0.37-0.05-0.55c-0.15-0.49-0.58-0.91-1.19-1l-0.46-0.07
		c-2.12-0.31-4.81-0.69-6.97-1.48c0.04,0.21,0.08,0.42,0.11,0.65c0.17,1.25,0.38,2.73,4.7,3.62c1.89,0.39,3,0.09,3.52-0.46
		c0.17-0.18,0.28-0.39,0.33-0.6C46.22,72.47,46.22,72.45,46.23,72.43 M35.17,62.76c0.47-0.24,1.06-0.38,1.76-0.38
		c1.26,0,2.77,0.35,4.31,0.71l0.51,0.12c0.42,0.1,0.66,0.1,0.76,0.01c0.12-0.1,0.16-0.38,0.16-0.84
		c-0.02-12.58,1.69-17.25,5.55-25.27c-0.52,0.8-1.05,1.6-1.58,2.39C41.96,46.56,37.29,53.61,35.17,62.76"/>
</g>
</svg>
