<?xml version="1.0" encoding="utf-8"?>
<!-- Generator: Adobe Illustrator 28.1.0, SVG Export Plug-In . SVG Version: 6.00 Build 0)  -->
<svg version="1.1" id="Layer_1" xmlns="http://www.w3.org/2000/svg" xmlns:xlink="http://www.w3.org/1999/xlink" x="0px" y="0px"
	 viewBox="0 0 110.55 76.54" style="enable-background:new 0 0 110.55 76.54;" xml:space="preserve">
<style type="text/css">
	.st0{display:none;}
	.st1{display:inline;fill:none;}
	.st2{fill:#808080;}
</style>
<g id="Layer_2_00000073722119373351752270000017113015111246931634_" class="st0">
	<line class="st1" x1="-24.13" y1="74.54" x2="142.13" y2="74.54"/>
	<line class="st1" x1="-24.13" y1="2" x2="142.13" y2="2"/>
</g>
<g>
	<g>
		<path class="st2" d="M2198.67,1892.46c-0.07,0.57-0.23,0.93-0.76,1.06c-0.29,0.07-0.57,0.23-0.83,0.38
			c-0.1,0.06-0.14,0.22-0.21,0.33c0.13,0.07,0.27,0.2,0.4,0.19c0.36-0.04,0.72-0.14,1.08-0.21c0.05,0.88-0.09,1.09-1.02,1.35
			c-3.8,1.06-7.59,2.16-11.41,3.14c-3.32,0.85-6.99-1.7-7.41-5.1c-0.21-1.71-0.35-3.42-0.41-5.14c-0.07-2.12-0.85-3.96-1.9-5.76
			c-3.54-6.06-7.03-12.15-10.53-18.23c-0.59-1.03-1.18-2.06-1.78-3.08c-0.15-0.26-0.2-0.43,0.1-0.6c1.1-0.63,2.19-1.27,3.36-1.94
			c0.46,0.78,0.9,1.53,1.34,2.28c4.01,6.95,8.01,13.9,12.02,20.84c1.03,1.78,1.44,3.67,1.26,5.72c-0.12,1.3-0.17,2.62-0.19,3.93
			c-0.03,1.73,1.18,2.9,2.96,2.87c4.48-0.08,8.9-0.63,13.22-1.85C2198.14,1892.59,2198.36,1892.54,2198.67,1892.46z"/>
		<path class="st2" d="M2154.67,1847.29c0.21,0.34,0.41,0.67,0.61,0.99c0.48,0.77,0.96,0.89,1.73,0.45c1.1-0.64,2.19-1.27,3.29-1.91
			c0.77-0.44,1.43-0.39,1.95,0.16c0.55,0.58,0.57,1.34,0.07,2.07c-0.07,0.1-0.11,0.23-0.2,0.44c0.9-0.17,1.6-0.07,2.04,0.72
			c0.44,0.77,0.08,1.43-0.44,2.19c1.05-0.23,1.84-0.03,2.19,0.86c0.42,1.07-0.18,1.75-1.17,2.19c0.03,0.05,0.06,0.09,0.1,0.14
			c0.18,0,0.37,0.01,0.55,0c0.7-0.04,1.36,0.39,1.58,1.02c0.24,0.7-0.01,1.39-0.69,1.78c-1.59,0.93-3.18,1.86-4.77,2.78
			c-1.19,0.68-2.47,1.09-3.82,1.27c-1.35,0.18-2.62,0.6-3.83,1.23c-0.75,0.39-1.23,0.27-1.65-0.46c-1.22-2.11-2.43-4.22-3.64-6.33
			c-0.35-0.61-0.32-1.14,0.18-1.48c1.99-1.39,3.17-3.36,4.11-5.53c0.36-0.83,0.95-1.56,1.45-2.33
			C2154.38,1847.44,2154.51,1847.4,2154.67,1847.29z"/>
		<path class="st2" d="M2140.79,1831.45c0.9-0.11,1.65-0.2,2.4-0.28c0.14-0.01,0.29,0.02,0.42,0.08c2.88,1.33,5.77,2.64,8.62,4.01
			c1.52,0.73,2.62,1.95,3.46,3.39c1.31,2.25,2.58,4.51,3.9,6.75c0.28,0.48,0.2,0.7-0.26,0.95c-1.01,0.54-1.99,1.13-3.07,1.76
			c-0.47-0.79-0.92-1.55-1.37-2.32c-0.92-1.57-1.83-3.15-2.75-4.72c-0.84-1.44-2.15-2.39-3.43-3.38c-2.51-1.94-5.01-3.9-7.51-5.85
			C2141.09,1831.74,2140.99,1831.64,2140.79,1831.45z"/>
	</g>
	<path class="st2" d="M2202.71,1888.81l-4.06,1.24c-0.09,0.03-0.12,0.15-0.09,0.26l0.18,0.6c0.03,0.11,0.13,0.2,0.22,0.17l1.37-0.42
		l3.36,11.05l1.07,1.13l0.26-1.52l-3.36-11.05l1.37-0.42c0.09-0.03,0.12-0.15,0.09-0.26l-0.18-0.6
		C2202.9,1888.87,2202.79,1888.79,2202.71,1888.81z"/>
</g>
<path d="M-38.52,74.27C-38.63,74.42-38.51,74.26-38.52,74.27L-38.52,74.27z"/>
<g>
	<polygon points="47.24,14.04 47.24,21.01 49.87,20.13 49.87,13.22 	"/>
	<polygon points="41.97,15.68 41.97,22.76 44.6,21.89 44.6,14.86 	"/>
	<polygon points="33.05,18.44 34.96,25.1 38.94,23.77 34.9,17.87 	"/>
	<polygon points="39.34,16.49 37.53,17.05 39.34,19.69 	"/>
	<path d="M89.39,5.63V1.69l-6.39,4.57l1.51,5.61l2.81-1.96C88.56,8.82,89.31,7.28,89.39,5.63"/>
	<path d="M30.12,17.57v-3.95c0-1.45-1.18-2.63-2.63-2.63c-1.45,0-2.63,1.18-2.63,2.63c0,3.63-2.95,6.58-6.59,6.59h-2.63v5.27h6.59
		C26.57,25.47,30.11,21.93,30.12,17.57"/>
	<polygon points="52.51,12.4 52.51,19.25 55.14,18.38 55.14,11.59 	"/>
	<path d="M63.04,9.14v6.42c2.95-1.65,4.88-4.65,5.15-8.02L63.04,9.14z"/>
	<polygon points="57.78,10.77 57.78,17.5 60.41,16.62 60.41,9.95 	"/>
	<path d="M27.12,26.89l21.33,16.59l2.36-2.36L40.48,26.04l-6,2c-0.14,0.04-0.27,0.07-0.42,0.07c-0.59,0-1.1-0.39-1.27-0.96
		l-1.32-4.59C30.49,24.4,28.97,25.91,27.12,26.89"/>
	<polygon points="87.71,33.91 84.9,23.46 78.94,27.43 80.11,36.76 	"/>
	<path d="M88.4,36.47l-8.17,3.07c-0.02,0.22-0.05,0.43-0.08,0.6c-0.07,0.28-0.07,0.57-0.01,0.85c0.57,2.44,2.71,4.19,5.22,4.25
		c1.84-0.11,3.44-1.29,4.08-3.01c0.17-0.63,0.17-1.3-0.01-1.93L88.4,36.47z"/>
	<path d="M84.18,20.77l-3.7-13.74h-9.58c-0.15,2.66-1.05,5.21-2.61,7.38l9.47,10.65L84.18,20.77z M77.53,12.3h2.63v2.63h-2.63V12.3z
		"/>
	<path d="M26.16,35.35l20.99,15.46c0.03-0.17,0.07-0.33,0.1-0.5c0.2-1.46,0.22-2.93,0.05-4.39L26.16,29.48V35.35z"/>
	<path d="M23.53,37.32v-9.22h-7.9v18.35C20.16,45.79,23.53,41.9,23.53,37.32"/>
	<path d="M22.21,74.2h11.86c0,0,0.18-9.17,0.01-10.35c-0.38-2.71-1.63-5.22-3.57-7.15c-1.03-1-2.24-1.8-3.56-2.37l1.05-2.41
		c1.61,0.7,3.08,1.68,4.35,2.9c2.78,2.74,4.38,6.45,4.48,10.36c3.2-2.16,7.68-6.01,9.63-11.61l-20.37-15
		c-0.59,5.53-4.94,9.91-10.47,10.54v17.31C19.43,67.06,22.21,70.35,22.21,74.2"/>
	<path d="M70.64,31.22c1.12,0.9,2.33,1.68,3.6,2.34c0.76,0.44,1.41,0.81,1.98,1.12c0.38,0.21,0.72,0.41,1.04,0.6l-0.99-7.92
		l-9.78-11c-1.27,1.1-2.75,1.94-4.35,2.46l-19.07,6.36l9.61,14.05l14.68-14.68c0.51-0.52,1.35-0.52,1.86,0
		c0.29,0.29,0.43,0.69,0.38,1.1C69.3,28.13,69.65,30.01,70.64,31.22"/>
	<path d="M67.04,50.5c7.8-0.28,12.43-7.7,12.94-8.54l-2.26-1.35c-0.43,0.72-4.37,7.03-10.77,7.26c-4.94,0.14-8.99-3.29-10.95-4.96
		c-0.89-0.76-1.72-1.59-2.49-2.48l-2,1.71c0.33,0.4,0.69,0.76,1.04,1.13c0.41,8.15,5.83,15.01,13.12,16.44
		c0.9,0.18,1.82,0.27,2.75,0.27c7.09,0,13.67-5.3,15.66-13.07l-2.34-0.71c-1.91,7.47-8.78,12.26-15.63,10.91
		c-5.53-1.3-9.76-5.75-10.78-11.33c2.32,1.88,6.37,4.73,11.27,4.73C66.74,50.5,66.89,50.5,67.04,50.5"/>
</g>
<g transform="translate(0,-288.53332)">
	<path d="M95.68,343.26l-15.01,0.8l4.97,14.18l3.14-4.68l14.56,9.76l3.77-5.62l-14.56-9.76L95.68,343.26z"/>
</g>
</svg>
