<?xml version="1.0" encoding="utf-8"?>
<!-- Generator: Adobe Illustrator 28.1.0, SVG Export Plug-In . SVG Version: 6.00 Build 0)  -->
<svg version="1.1" id="Layer_1" xmlns="http://www.w3.org/2000/svg" xmlns:xlink="http://www.w3.org/1999/xlink" x="0px" y="0px"
	 viewBox="0 0 110.55 76.54" style="enable-background:new 0 0 110.55 76.54;" xml:space="preserve">
<style type="text/css">
	.st0{display:none;}
	.st1{display:inline;fill:none;}
	.st2{fill:#808080;}
</style>
<g id="Layer_2_00000073722119373351752270000017113015111246931634_" class="st0">
	<line class="st1" x1="-24.13" y1="74.54" x2="142.13" y2="74.54"/>
	<line class="st1" x1="-24.13" y1="2" x2="142.13" y2="2"/>
</g>
<g>
	<g>
		<path class="st2" d="M2198.67,1892.46c-0.07,0.57-0.23,0.93-0.76,1.06c-0.29,0.07-0.57,0.23-0.83,0.38
			c-0.1,0.06-0.14,0.22-0.21,0.33c0.13,0.07,0.27,0.2,0.4,0.19c0.36-0.04,0.72-0.14,1.08-0.21c0.05,0.88-0.09,1.09-1.02,1.35
			c-3.8,1.06-7.59,2.16-11.41,3.14c-3.32,0.85-6.99-1.7-7.41-5.1c-0.21-1.71-0.35-3.42-0.41-5.14c-0.07-2.12-0.85-3.96-1.9-5.76
			c-3.54-6.06-7.03-12.15-10.53-18.23c-0.59-1.03-1.18-2.06-1.78-3.08c-0.15-0.26-0.2-0.43,0.1-0.6c1.1-0.63,2.19-1.27,3.36-1.94
			c0.46,0.78,0.9,1.53,1.34,2.28c4.01,6.95,8.01,13.9,12.02,20.84c1.03,1.78,1.44,3.67,1.26,5.72c-0.12,1.3-0.17,2.62-0.19,3.93
			c-0.03,1.73,1.18,2.9,2.96,2.87c4.48-0.08,8.9-0.63,13.22-1.85C2198.14,1892.59,2198.36,1892.54,2198.67,1892.46z"/>
		<path class="st2" d="M2154.67,1847.29c0.21,0.34,0.41,0.67,0.61,0.99c0.48,0.77,0.96,0.89,1.73,0.45c1.1-0.64,2.19-1.27,3.29-1.91
			c0.77-0.44,1.43-0.39,1.95,0.16c0.55,0.58,0.57,1.34,0.07,2.07c-0.07,0.1-0.11,0.23-0.2,0.44c0.9-0.17,1.6-0.07,2.04,0.72
			c0.44,0.77,0.08,1.43-0.44,2.19c1.05-0.23,1.84-0.03,2.19,0.86c0.42,1.07-0.18,1.75-1.17,2.19c0.03,0.05,0.06,0.09,0.1,0.14
			c0.18,0,0.37,0.01,0.55,0c0.7-0.04,1.36,0.39,1.58,1.02c0.24,0.7-0.01,1.39-0.69,1.78c-1.59,0.93-3.18,1.86-4.77,2.78
			c-1.19,0.68-2.47,1.09-3.82,1.27c-1.35,0.18-2.62,0.6-3.83,1.23c-0.75,0.39-1.23,0.27-1.65-0.46c-1.22-2.11-2.43-4.22-3.64-6.33
			c-0.35-0.61-0.32-1.14,0.18-1.48c1.99-1.39,3.17-3.36,4.11-5.53c0.36-0.83,0.95-1.56,1.45-2.33
			C2154.38,1847.44,2154.51,1847.4,2154.67,1847.29z"/>
		<path class="st2" d="M2140.79,1831.45c0.9-0.11,1.65-0.2,2.4-0.28c0.14-0.01,0.29,0.02,0.42,0.08c2.88,1.33,5.77,2.64,8.62,4.01
			c1.52,0.73,2.62,1.95,3.46,3.39c1.31,2.25,2.58,4.51,3.9,6.75c0.28,0.48,0.2,0.7-0.26,0.95c-1.01,0.54-1.99,1.13-3.07,1.76
			c-0.47-0.79-0.92-1.55-1.37-2.32c-0.92-1.57-1.83-3.15-2.75-4.72c-0.84-1.44-2.15-2.39-3.43-3.38c-2.51-1.94-5.01-3.9-7.51-5.85
			C2141.09,1831.74,2140.99,1831.64,2140.79,1831.45z"/>
	</g>
	<path class="st2" d="M2202.71,1888.81l-4.06,1.24c-0.09,0.03-0.12,0.15-0.09,0.26l0.18,0.6c0.03,0.11,0.13,0.2,0.22,0.17l1.37-0.42
		l3.36,11.05l1.07,1.13l0.26-1.52l-3.36-11.05l1.37-0.42c0.09-0.03,0.12-0.15,0.09-0.26l-0.18-0.6
		C2202.9,1888.87,2202.79,1888.79,2202.71,1888.81z"/>
</g>
<g>
	<g>
		<path d="M93.07,29.08c-0.01-0.08-0.03-0.18,0-0.25c0.51-1.03,0.55-2.14,0.53-3.25c-0.02-1.23-0.47-2.32-1.24-3.29
			c-1.26-1.62-2.49-3.26-3.73-4.89c-0.09-0.11-0.12-0.2-0.05-0.35c0.44-0.9,0.71-1.86,0.68-2.87c-0.04-1.81-0.64-3.46-1.66-4.95
			c-0.4-0.58-0.94-1.03-1.6-1.29c-0.38-0.15-0.78-0.25-1.18-0.38c0.04-0.03,0.08-0.04,0.11-0.07c0.32-0.27,0.68-0.5,0.96-0.81
			c0.37-0.41,0.27-0.9-0.19-1.2c-0.95-0.63-2-0.98-3.11-1.15c-0.61-0.09-1.21-0.06-1.81,0.13c-0.55,0.17-0.55,0.17-0.88-0.3
			c-0.97-1.37-2.22-2.31-3.88-2.67c-0.56-0.12-1.13-0.18-1.71-0.1c-0.92,0.14-1.87,0.22-2.75,0.49c-0.65,0.2-1.23,0.09-1.85,0.03
			c-0.39-0.04-0.78-0.08-1.17-0.08c-1.19,0.02-2.34,0.3-3.47,0.66c-0.3,0.09-0.59,0.24-0.84,0.43c-0.47,0.35-0.52,0.75-0.22,1.27
			c-0.09,0.04-0.18,0.09-0.27,0.13c-0.47,0.17-0.94,0.33-1.41,0.49c-0.6,0.21-1.18,0.44-1.66,0.87c-0.38,0.34-0.61,0.77-0.55,1.29
			c0.03,0.21-0.02,0.33-0.17,0.44c-0.06,0.04-0.11,0.1-0.16,0.14c-1.13,1.06-2.25,2.11-3.37,3.17c-0.46,0.43-0.9,0.88-1.34,1.33
			c-0.16,0.16-0.26,0.36-0.19,0.59c0.12,0.38,0.31,0.69,0.74,0.77c0.32,0.05,0.63,0.09,0.96,0.14c-0.17,0.19-0.35,0.37-0.51,0.57
			c-0.68,0.82-1.39,1.62-2.01,2.48c-0.95,1.34-1.47,2.86-1.75,4.47c-0.06,0.33-0.09,0.67-0.08,1.01c0.02,0.39,0.29,0.58,0.66,0.47
			c0.26-0.07,0.52-0.19,0.74-0.34c0.22-0.14,0.4-0.34,0.64-0.55c-0.04,0.1-0.07,0.16-0.1,0.22c-0.23,0.47-0.48,0.93-0.68,1.41
			c-0.31,0.75-0.83,1.3-1.49,1.73c-1.43,0.93-3,1.27-4.68,1.19c-1.08-0.05-2.16-0.12-3.23-0.19c-2.23-0.16-4.4,0.12-6.53,0.81
			c-2.68,0.87-4.9,2.44-6.79,4.49c-1.66,1.79-2.86,3.87-3.8,6.11c-0.81,1.91-1.27,3.93-1.69,5.96c-0.29,1.44-0.55,2.89-0.83,4.33
			c-0.28,1.44-0.56,2.88-0.85,4.33c-0.5,2.51-1.12,4.98-1.87,7.43c-0.1,0.31-0.21,0.62-0.31,0.95c-0.14-0.08-0.25-0.14-0.36-0.2
			c-1.28-0.71-2.64-0.96-4.09-0.68c-1.04,0.2-1.96,0.63-2.69,1.44c-0.81,0.9-1.31,1.94-1.16,3.16c0.22,1.81,1.3,3.47,3.47,3.91
			c2.53,0.51,4.68-0.21,6.42-2.13c1.14-1.26,2.06-2.67,2.75-4.22c0.68-1.52,1.25-3.09,1.73-4.68c0.5-1.66,0.96-3.34,1.36-5.03
			c0.46-1.95,0.82-3.92,1.26-5.88c0.48-2.18,1.13-4.3,2.29-6.23c0.03-0.06,0.08-0.11,0.12-0.17c-0.04,0.58-0.1,1.15-0.11,1.72
			c-0.05,2.06-0.08,4.12-0.13,6.17c-0.05,1.86-0.18,3.7-0.75,5.49c-0.41,1.31-1,2.53-1.85,3.61c-0.43,0.55-0.91,1.07-1.4,1.57
			c-0.39,0.4-0.59,0.85-0.54,1.41c0.03,0.27,0.06,0.55,0.09,0.82c0.18,1.58,0.37,3.17,0.55,4.75c0.12,1.03,0.23,2.05,0.32,3.09
			c0.09,1.05,0.25,2.1,0.61,3.09c0.51,1.4,1.58,2.91,3.1,3.28c1.99,0.49,3.97,0.44,6,0.26c0.06-0.01,0.12-0.01,0.18-0.02
			c1.1-0.1,2.17-0.17,3.1-0.85c0.44-0.32,0.8-0.76,1.02-1.25c0.11-0.25,0.19-0.52,0.22-0.8c0.01-0.08,0.1-0.66,0.09-0.68
			c0.05-0.02,0.1-0.06,0.14-0.04c0.4,0.15,0.74,0.36,1.17,0.46c0.48,0.12,0.97,0.18,1.47,0.21c1,0.07,2,0.02,3,0.02
			c0.98-0.01,1.96,0.03,2.93-0.09c1.13-0.14,2.56-0.55,3.25-1.54c0.49-0.7,0.68-1.62,0.64-2.47c-0.06-1.19-0.6-2.34-1.46-3.16
			c-0.7-0.67-1.5-1.14-2.43-1.37c-1.04-0.25-2.07-0.2-3.1,0.21c-0.07-0.16-0.16-0.33-0.21-0.5c-0.29-1.13-0.58-2.25-0.87-3.38
			c-0.01-0.03,0-0.06-0.01-0.09c-0.06-0.31,0.02-0.52,0.29-0.74c0.72-0.58,1.29-1.3,1.83-2.05c0.11-0.15,0.24-0.29,0.34-0.45
			c0.13-0.23,0.3-0.22,0.52-0.16c0.92,0.27,1.84,0.55,2.78,0.79c1.2,0.3,2.43,0.48,3.67,0.53c0.51,0.02,0.81,0.22,0.96,0.71
			c0.4,1.25,0.83,2.48,1.23,3.73c0.32,0.99,0.61,1.99,0.92,2.99c0.5,1.59,1,3.18,1.49,4.76c0.03,0.09,0.05,0.19,0.08,0.3
			c0.03,0.01,0.06,0.04,0.06,0.08c0,0.25,0.16,0.46,0.24,0.69c0.1,0.3,0.16,0.61,0.27,0.91c0.22,0.6,0.51,1.17,0.86,1.7
			c0.17,0.25,0.35,0.5,0.58,0.71c0.32,0.3,0.71,0.52,1.11,0.71c1.47,0.68,3.11,0.87,4.71,0.89c0.81,0.01,1.62-0.01,2.43-0.03
			c0.75-0.02,1.53,0.04,2.22-0.32c0.68-0.36,1.41-0.45,2.17-0.44c1.21,0.02,2.42,0.01,3.63-0.01c0.11,0,0.21-0.02,0.32-0.04
			c0.17-0.07,0.36-0.1,0.54-0.16c0.16-0.06,0.3-0.15,0.42-0.27c0.13-0.13,0.26-0.24,0.4-0.36c0.16-0.14,0.3-0.31,0.43-0.48
			c0.05-0.14,0.1-0.22,0.18-0.27c0.03-0.05,0.06-0.09,0.09-0.14c0.03-0.05,0.05-0.1,0.08-0.15c-0.01,0-0.01,0-0.02,0
			c0.06-0.15,0.13-0.27,0.17-0.4c0.01-0.03,0.02-0.06,0.03-0.08c0.03-0.12,0.06-0.24,0.09-0.36c-0.01-0.18,0-0.27,0.05-0.32
			c0-0.01,0-0.02,0-0.02c0-0.06,0-0.12,0-0.18c0-0.05,0-0.1,0-0.14c-0.03-0.04-0.04-0.09-0.02-0.17c0.01-0.05,0.01-0.11,0.02-0.2
			c-0.01-0.05-0.02-0.1-0.03-0.15c-0.01-0.04-0.02-0.09-0.01-0.13c-0.01-0.02-0.02-0.05-0.03-0.08c-0.09-0.37-0.21-0.74-0.35-1.09
			c-0.69-1.73-1.98-2.68-3.81-2.92c-0.61-0.08-0.62-0.07-0.62-0.7c0-2.24,0.24-4.45,0.72-6.64c0.24-1.1,0.44-2.2,0.66-3.3
			c0.03-0.14,0.03-0.28,0.05-0.45c0.1,0.08,0.17,0.14,0.25,0.19c0.39,0.25,0.62,0.27,0.93-0.04c0.13-0.13,0.26-0.26,0.36-0.4
			c0.25-0.32,0.46-0.67,0.72-0.98c0.81-0.94,1.62-1.88,2.46-2.79c1.08-1.16,2.16-2.31,3.03-3.66c1.06-1.63,1.76-3.38,2.13-5.28
			c0.01-0.07,0.04-0.14,0.05-0.17c0.29,0.17,0.54,0.35,0.82,0.47c0.42,0.17,0.75,0,0.9-0.42c0.1-0.29,0.19-0.59,0.26-0.89
			c0.17-0.71,0.3-1.43,0.49-2.13c0.27-0.98,0.62-1.95,0.85-2.94c0.5-2.14,0.76-4.31,0.7-6.51C93.21,29.82,93.12,29.45,93.07,29.08z
			 M84.81,9.61c0.28,0.03,0.58,0.15,0.81,0.31c0.68,0.49,1.08,1.19,1.37,1.96c0.38,1.02,0.51,2.07,0.36,3.17
			c-1.29-2.05-3.13-3.36-5.45-4.09c0.29-0.37,0.6-0.64,0.95-0.87C83.46,9.71,84.11,9.54,84.81,9.61z M73.05,3.37
			c0.25-0.05,0.5-0.11,0.75-0.15c1.05-0.16,2.07-0.1,3.01,0.44c0.8,0.46,1.47,1.08,1.97,1.86c0.01,0.02,0.02,0.04,0.03,0.06
			c0.42,0.74,1.07,0.94,1.88,0.81c0.84-0.13,1.69-0.17,2.48,0.25c0.07,0.04,0.13,0.07,0.25,0.14c-0.25,0.21-0.47,0.4-0.69,0.58
			c-0.58,0.46-1.18,0.89-1.74,1.37c-0.48,0.4-0.89,0.87-1.13,1.47c-0.12,0.31-0.27,0.56-0.69,0.49c-0.05-0.15-0.1-0.33-0.17-0.51
			c-0.48-1.33-1.15-2.55-2.07-3.64c-1.05-1.24-2.37-2.11-3.71-2.97c-0.06-0.04-0.12-0.08-0.19-0.13
			C73.05,3.42,73.05,3.39,73.05,3.37z M55.66,26.14c-0.45,0.33-0.89,0.67-1.33,1.01c-0.12,0.09-0.24,0.18-0.39,0.29
			c-0.05-0.34,0.08-0.6,0.19-0.87c0.6-1.57,1.32-3.09,2.21-4.52c0.46-0.74,0.91-1.48,1.36-2.22c0.07-0.12,0.13-0.24,0.17-0.37
			c0.14-0.42-0.13-0.84-0.57-0.8c-0.4,0.04-0.79,0.17-1.17,0.3c-0.48,0.17-0.95,0.38-1.47,0.6c0.05-0.13,0.08-0.24,0.14-0.33
			c0.77-1.33,1.76-2.51,2.74-3.69c0.32-0.38,0.64-0.77,0.97-1.14c0.12-0.13,0.25-0.25,0.38-0.37c-0.39,3.12,1.24,4.91,2.82,5.75
			c-0.24,0.39-0.49,0.77-0.72,1.16c-0.8,1.32-1.62,2.64-2.4,3.98c-0.8,1.36-1.36,2.82-1.69,4.36c-0.33,1.55-0.43,3.13-0.39,4.71
			c0.02,0.79,0.02,0.78-0.61,1.26c-0.83,0.64-1.59,1.35-2.19,2.22c-0.02,0.02-0.04,0.04-0.08,0.09c-0.02-0.15-0.04-0.28-0.04-0.4
			c-0.06-2.26,0.09-4.5,0.77-6.68c0.33-1.06,0.79-2.07,1.28-3.06c0.17-0.36,0.32-0.73,0.47-1.1c0.04-0.1,0.04-0.22,0.06-0.4
			C55.95,26,55.79,26.04,55.66,26.14z M62.45,14.64c0.11,0.63,0.42,1.17,0.81,1.66c0.18,0.23,0.39,0.45,0.59,0.67
			c0.15,0.17,0.15,0.22-0.04,0.36c-0.55,0.42-1.38,0.42-1.94-0.05c-0.92-0.76-1.19-1.77-0.97-2.91c0.21-1.06,0.89-1.82,1.76-2.41
			c0.99-0.68,2.07-1.02,3.27-0.79c1.65,0.33,2.9,1.2,3.5,2.84c0.13,0.34,0.13,0.73,0.2,1.15c-0.12-0.04-0.17-0.06-0.22-0.08
			c-1.23-0.63-2.49-1.18-3.86-1.39c-0.63-0.1-1.28-0.11-1.92-0.11c-0.36,0-0.68,0.16-0.96,0.41C62.46,14.16,62.4,14.37,62.45,14.64z
			 M46.32,57.61c-0.44,0.31-0.62,0.68-0.56,1.2c0.09,0.8,0.18,1.6,0.29,2.39c0.15,1.11,0.44,2.18,0.87,3.22
			c0.13,0.31,0.28,0.6,0.46,0.88c0.21,0.33,0.44,0.39,0.81,0.23c0.26-0.11,0.5-0.25,0.76-0.37c1.54-0.69,3.46-0.09,4.22,1.36
			c0.41,0.79,0.45,1.65,0.17,2.51c-0.18,0.54-0.6,0.78-1.11,0.93c-0.81,0.24-1.64,0.25-2.47,0.28c-1.11,0.04-2.23,0.06-3.35,0.06
			c-0.88,0.01-1.75-0.06-2.6-0.29c-0.23-0.06-0.43-0.22-0.65-0.32c-0.13-0.06-0.26-0.1-0.42-0.16c-0.03-0.35-0.27-0.69-0.51-0.99
			c-0.9-1.1-1.45-2.37-1.8-3.72c-0.33-1.27-0.6-2.56-0.91-3.84c-0.06-0.23,0-0.33,0.21-0.47c0.69-0.47,1.36-0.96,2.01-1.48
			c1.11-0.91,2.06-1.97,2.77-3.23c0.34-0.6,0.62-1.23,0.93-1.84c0.03-0.07,0.07-0.14,0.09-0.19c0.95,0.58,1.89,1.15,2.86,1.74
			C47.76,56.29,47.13,57.04,46.32,57.61z M75.35,69.52c-0.04-0.06-0.07-0.14-0.12-0.2c-0.56-0.7-1.23-1.25-2.09-1.52
			c-0.28-0.09-0.44-0.27-0.56-0.53c-0.39-0.84-0.59-1.73-0.77-2.62c-0.23-1.14-0.4-2.3-0.57-3.45c-0.1-0.64-0.14-1.28-0.22-1.92
			c-0.02-0.19,0.04-0.29,0.2-0.38c1.03-0.61,1.95-1.34,2.78-2.2c0.66-0.68,1.2-1.45,1.58-2.32c0.12-0.27,0.25-0.52,0.36-0.79
			c0.07-0.16,0.16-0.18,0.29-0.07c0.32,0.26,0.53,0.61,0.72,0.97c0.3,0.58,0.36,1.18,0.24,1.81c-0.29,1.62-0.6,3.23-0.85,4.85
			c-0.22,1.43-0.39,2.87-0.33,4.33c0.02,0.51,0.09,1.02,0.18,1.53c0.03,0.18,0.16,0.35,0.29,0.49c0.19,0.2,0.42,0.37,0.65,0.58
			C76.39,68.34,75.85,68.85,75.35,69.52z M80.53,70.34c0.22,0.6,0.3,1.21,0.16,1.83c-0.1,0.42-0.37,0.73-0.71,0.98
			c-0.05,0.04-0.11,0.06-0.17,0.09c-0.32,0.12-0.38,0.07-0.4-0.27c-0.03-0.58-0.03-1.16-0.1-1.73c-0.03-0.3-0.13-0.61-0.27-0.89
			c-0.1-0.2-0.28-0.38-0.47-0.52c-0.09-0.07-0.28-0.07-0.4-0.04c-0.15,0.04-0.18,0.18-0.05,0.28c0.38,0.26,0.38,0.64,0.4,1.03
			c0.02,0.56,0.05,1.11,0.09,1.67c0.03,0.4-0.05,0.51-0.44,0.52c-0.66,0.01-1.31,0-1.99,0c0.06-0.27,0.12-0.51,0.17-0.76
			c0.16-0.78-0.02-1.52-0.29-2.25c-0.16-0.43-0.16-0.43,0.23-0.67c0.36-0.22,0.69-0.48,1.07-0.66C78.41,68.47,80,68.89,80.53,70.34z
			 M78.14,52.5c0,0.04-0.01,0.09-0.01,0.13c0,0-0.01,0.01-0.04,0.02c-0.11-0.14-0.21-0.28-0.32-0.42c-0.33-0.44-0.71-0.82-1.17-1.12
			c-0.25-0.17-0.5-0.23-0.77-0.07c-0.14,0.08-0.22,0-0.3-0.08c-0.89-0.95-1.77-1.92-2.69-2.84c-0.89-0.89-1.84-1.73-2.74-2.6
			c-0.83-0.8-1.53-1.7-1.82-2.85c-0.29-1.11-0.23-2.21,0.15-3.29c0.43-1.23,1.14-2.29,1.96-3.28c0.01-0.02,0.03-0.02,0.02-0.01
			c0,0.51-0.01,1.04,0,1.57c0.05,1.78,0.54,3.41,1.62,4.84c0.56,0.75,1.28,1.33,2.04,1.87c0.78,0.55,1.57,1.09,2.21,1.82
			c0.69,0.79,1.12,1.71,1.45,2.69C78.12,50.06,78.22,51.27,78.14,52.5z M87.05,42.98c-0.55,2.37-1.74,4.38-3.42,6.12
			c-0.83,0.87-1.64,1.75-2.48,2.62c-0.33,0.34-0.69,0.66-1.05,0.98c-0.03,0.03-0.08,0.05-0.17,0.1c0.04-0.75,0.12-1.44,0.55-2.04
			c0.57-0.8,1.14-1.61,1.68-2.42c0.71-1.07,1.19-2.25,1.58-3.47c0.22-0.67,0.38-1.36,0.56-2.05c0.05-0.18,0.13-0.3,0.32-0.34
			c0.78-0.18,1.51-0.5,2.19-0.93c0.08-0.05,0.18-0.08,0.28-0.13C87.27,41.97,87.17,42.48,87.05,42.98z M87.51,37.79
			c-0.15,0.97-0.76,1.62-1.56,2.11c-0.75,0.46-1.57,0.66-2.51,0.62c-0.61,0-1.27-0.07-1.9-0.33c-0.49-0.2-0.89-0.51-1.16-0.97
			c-0.21-0.35-0.21-0.73,0.04-1.04c0.34-0.43,0.73-0.82,1.11-1.21c0.13-0.14,0.3-0.25,0.44-0.39c0.15-0.15,0.3-0.14,0.47-0.05
			c0.41,0.21,0.83,0.37,1.29,0.42c0.05,0.01,0.1,0.01,0.15,0.02c0.14,0.04,0.28,0.06,0.43,0.07c0.33,0.01,0.68-0.01,1-0.06
			c0,0,0.01,0,0.01,0c0.08-0.01,0.15-0.01,0.23-0.02c0.6-0.08,1.1-0.37,1.53-0.76c0.1-0.02,0.16,0.02,0.23,0.13
			C87.62,36.78,87.59,37.29,87.51,37.79z M90.39,37.19c-0.33,1.15-0.73,2.28-1.12,3.48c-0.21-0.17-0.37-0.29-0.51-0.42
			c-0.04-0.04-0.05-0.15-0.03-0.21c0.09-0.25,0.21-0.49,0.31-0.74c0.32-0.73,0.39-1.51,0.23-2.28c-0.16-0.82-0.41-1.62-0.6-2.44
			c-0.09-0.39-0.18-0.78-0.26-1.17c-0.09,0.13-0.2,0.24-0.31,0.36c0,0.01,0,0.02-0.01,0.04c-0.15,0.41-0.4,0.81-0.73,1.1
			c-0.48,0.44-1.13,0.67-1.77,0.76c-0.46,0.06-0.95,0.04-1.4-0.09c-0.25-0.01-0.49-0.04-0.73-0.12c-0.03-0.01-0.05-0.03-0.05-0.05
			c-0.02,0-0.03,0-0.05-0.01c-0.59-0.29-1.1-0.84-1.14-1.5c-0.01-0.08-0.1-0.13-0.17-0.07c-0.28,0.28-0.58,0.53-0.9,0.75
			c-0.02,0.01-0.03,0.03-0.04,0.05c-0.02,0.06-0.07,0.11-0.16,0.16c-0.1,0.06-0.17,0.17-0.3,0.31c-0.22-0.93-0.48-1.83-0.59-2.74
			c-0.1-0.19-0.19-0.39-0.34-0.56c-0.21-0.23-0.53-0.3-0.83-0.24c-0.31,0.07-0.58,0.23-0.71,0.53c-0.08,0.19-0.1,0.39-0.09,0.6
			c0.11,0.41,0.23,0.82,0.36,1.24c0.28,0.88,0.52,1.77,0.78,2.66c-0.03,0.01-0.07,0.03-0.1,0.04c-0.3-0.53-0.62-1.06-0.91-1.59
			c-0.47-0.85-0.84-1.74-0.99-2.7c-0.07-0.44-0.08-0.88,0.03-1.3c-0.01-0.13-0.01-0.25,0-0.38c0.01-0.22,0.03-0.46-0.03-0.67
			c-0.1-0.17-0.21-0.32-0.37-0.42c-0.13-0.08-0.29-0.12-0.45-0.13c-0.06,0.01-0.11,0.02-0.16,0.04c-0.01,0.01-0.03,0.01-0.04,0.02
			c-0.17,0.08-0.33,0.22-0.47,0.38c-0.26,0.66-0.32,1.35-0.29,2.07c0.04,1,0.39,1.93,0.76,2.84c0.69,1.67,1.52,3.28,2.38,4.88
			c0.27,0.5,0.53,1,0.83,1.47c0.31,0.5,0.79,0.78,1.34,0.95c0.54,0.16,1.09,0.28,1.63,0.42c0.02,0,0.04,0.02,0.05,0.03
			c-0.31,1.56-1.92,4.84-2.84,5.78c-0.05-0.16-0.11-0.3-0.15-0.46c-0.45-1.72-1.39-3.11-2.83-4.15c-0.56-0.41-1.15-0.78-1.71-1.19
			c-0.88-0.66-1.6-1.48-2.04-2.5c-0.51-1.19-0.65-2.46-0.6-3.74c0.03-0.65,0.12-1.3,0.17-1.95c0.02-0.2,0.01-0.41-0.01-0.61
			c-0.11-0.9-0.96-1.3-1.72-0.8c-0.68,0.45-1.22,1.05-1.73,1.67c-0.86,1.04-1.63,2.14-2.17,3.39c-0.59,1.38-0.92,2.8-0.73,4.32
			c0.2,1.63,0.9,3.02,1.98,4.24c1.07,1.2,2.29,2.23,3.47,3.32c0.75,0.69,1.5,1.38,2.16,2.17c0.37,0.44,0.42,0.84,0.19,1.37
			c-0.49,1.1-1.21,2-2.12,2.77c-0.23,0.2-0.47,0.39-0.73,0.6c-0.08-0.64-0.13-1.22-0.22-1.78c-0.24-1.42-0.97-2.55-2.07-3.47
			c-0.08-0.07-0.18-0.12-0.28-0.17c-0.28-0.13-0.53-0.01-0.53,0.3c0.01,0.27,0.07,0.56,0.18,0.82c0.72,1.69,1.04,3.45,1.1,5.28
			c0.06,2.04,0.2,4.08,0.56,6.1c0.2,1.1,0.51,2.18,0.8,3.27c0.15,0.56,0.17,0.55-0.38,0.74c-0.71,0.25-1.33,0.64-1.77,1.27
			c-0.04,0.06-0.07,0.13-0.1,0.19c0.22,0.12,0.42,0.22,0.62,0.32c0.17,0.1,0.33,0.1,0.51,0c0.47-0.26,0.94-0.51,1.48-0.6
			c1.75-0.27,3.46,1.03,3.6,2.78c0.1,1.25-0.47,2.02-1.83,2.19c-0.13,0.02-0.27,0.01-0.41,0.02c0.04-0.35,0.09-0.66,0.1-0.97
			c0.01-0.27-0.03-0.53-0.05-0.8c-0.02-0.19-0.15-0.26-0.33-0.28c-0.64-0.04-0.63-0.05-0.84-0.65c-0.11-0.32-0.25-0.63-0.38-0.95
			c-0.07-0.17-0.19-0.21-0.35-0.12c-0.17,0.09-0.21,0.22-0.14,0.39c0.13,0.31,0.26,0.63,0.36,0.95c0.12,0.39,0.35,0.65,0.73,0.77
			c0.15,0.05,0.19,0.14,0.19,0.27c0.02,0.4-0.09,0.77-0.28,1.12c-0.1,0.18-0.28,0.26-0.47,0.26c-0.79,0.01-1.58,0.01-2.37,0
			c-0.72-0.01-1.43-0.12-2.11-0.35c-0.99-0.33-1.68-0.97-2.12-1.92c-0.65-1.39-1.06-2.87-1.51-4.32c-0.55-1.76-1.01-3.55-1.57-5.31
			c-0.51-1.58-1.06-3.16-1.65-4.71c-0.49-1.29-1.12-2.53-1.62-3.82c-0.58-1.49-1.03-3.03-1.25-4.62c-0.06-0.43-0.1-0.86-0.16-1.29
			c-0.01-0.11-0.05-0.23-0.09-0.33c-0.14-0.39-0.37-0.56-0.74-0.54c-0.32,0.02-0.67,0.3-0.69,0.65c-0.03,0.54-0.03,1.09,0.02,1.62
			c0.13,1.34,0.35,2.66,0.77,3.93c0.28,0.83,0.58,1.65,0.88,2.47c0.02,0.06,0.04,0.12,0.08,0.22c-0.15-0.01-0.28-0.02-0.4-0.04
			c-1.45-0.21-2.88-0.52-4.28-0.95c-1.41-0.43-2.78-0.96-4.05-1.71c-0.49-0.28-0.94-0.62-1.41-0.94c-0.07-0.05-0.12-0.16-0.12-0.25
			c-0.13-0.09-0.25-0.18-0.36-0.3c-0.25-0.27-0.5-0.52-0.72-0.81c-0.14-0.18-0.21-0.4-0.36-0.58c-0.21-0.25-0.37-0.03-0.48,0.24
			c-0.11,0.71-0.28,1.4-0.53,2.08c-0.49,1.37-1.11,2.67-2.08,3.78c-0.76,0.87-1.68,1.55-2.6,2.22c-0.77,0.56-1.54,1.13-2.35,1.64
			c-0.68,0.42-0.94,1.02-0.95,1.76c-0.02,1.11-0.08,2.23,0.08,3.34c0.15,1,0.43,1.96,0.81,2.9c0.2,0.5,0.42,0.59,0.94,0.43
			c0.44-0.14,0.88-0.24,1.35-0.16c0.97,0.17,1.74,0.94,1.94,1.93c0.14,0.72,0.06,1.41-0.29,2.06c-0.32,0.61-0.88,0.76-1.56,0.83
			c0.08-0.17,0.12-0.29,0.18-0.4c0.54-1,0.13-2.48-0.43-2.99c-0.14-0.12-0.3-0.23-0.47-0.3c-0.21-0.09-0.31,0-0.31,0.24
			c0,0.04-0.01,0.1,0.01,0.13c0.29,0.48,0.15,1,0.1,1.5c-0.06,0.57-0.2,1.14-0.3,1.71c-0.04,0.21-0.15,0.31-0.36,0.31
			c-0.35,0-0.7,0-1.04,0.01c-0.18,0.01-0.24-0.07-0.22-0.24c0.02-0.16,0.01-0.32,0.02-0.48c0.07-0.65-0.06-1.27-0.2-1.89
			c-0.07-0.32-0.22-0.61-0.6-0.67c-0.11-0.02-0.23-0.01-0.33,0.03c-0.2,0.08-0.19,0.18-0.05,0.33c0.23,0.23,0.38,0.51,0.38,0.83
			c0,0.53-0.02,1.06-0.07,1.58c-0.03,0.38-0.27,0.54-0.64,0.51c-0.68-0.06-1.35-0.18-1.97-0.47c-1.98-0.94-2.27-2.99-2.5-4.95
			c-0.22-1.93-0.44-3.87-0.63-5.81c-0.08-0.76-0.11-1.52-0.16-2.27c-0.02-0.3,0.08-0.53,0.31-0.75c1.8-1.77,2.97-3.9,3.55-6.36
			c0.38-1.63,0.57-3.28,0.61-4.95c0.05-1.93,0.08-3.87,0.09-5.8c0.01-2.18,0.27-4.33,0.76-6.46c0.03-0.12,0.05-0.24,0.06-0.36
			c0.03-0.49-0.3-0.74-0.75-0.54c-0.22,0.1-0.44,0.22-0.63,0.37c-0.95,0.76-1.7,1.69-2.36,2.71c-0.93,1.44-1.59,3-2.12,4.62
			c-0.66,2.03-1.13,4.1-1.56,6.19c-0.65,3.17-1.44,6.31-2.42,9.4c-0.36,1.12-0.76,2.23-1.26,3.3c-0.46,1-0.9,1.95-1.64,2.77
			c-0.24,0.26-0.48,0.52-0.72,0.79c-0.15,0.16-0.3,0.33-0.46,0.48c-0.58,0.54-1.37,0.98-2.17,1.02c-0.18,0.01-0.35-0.02-0.42-0.22
			c-0.23-0.66-0.45-1.33-0.66-1.99c-0.05-0.15-0.03-0.33-0.05-0.53c0.06-0.8,0.28-1.55,0.91-2.13c0.11-0.11,0.31-0.17,0.47-0.17
			c0.7-0.01,1.39,0.39,1.82,1c0.24,0.19,0.52,0.3,0.81,0.29c0.14-0.01,0.28-0.05,0.42-0.1c0.24-0.11,0.44-0.28,0.62-0.48
			c0.07-0.45,0.24-0.88,0.41-1.31c0.51-1.31,0.88-2.67,1.21-4.03c0.39-1.64,0.78-3.28,1.12-4.93c0.44-2.14,0.82-4.29,1.24-6.44
			c0.39-1.94,0.77-3.88,1.39-5.76c0.37-1.12,0.87-2.19,1.44-3.22c0.92-1.66,2.01-3.19,3.39-4.49c1.66-1.55,3.56-2.72,5.75-3.39
			c1.58-0.48,3.2-0.61,4.83-0.53c1.52,0.07,3.04,0.19,4.55,0.28c0.07,0,0.11,0.02,0.14,0.04c0.57,0.01,1.14-0.06,1.69-0.19
			c0.51-0.12,1.02-0.3,1.47-0.57c0.18-0.17,0.37-0.31,0.59-0.42c0.02,0.01,0.04,0.02,0.06,0.04c-0.09,0.3-0.18,0.59-0.26,0.89
			c-0.04,0.15-0.09,0.31-0.09,0.47c-0.02,0.51,0.35,0.88,0.86,0.87c0.04,0,0.07,0,0.13,0c-0.38,0.89-0.61,1.81-0.78,2.75
			c-0.33,1.77-0.48,3.54-0.31,5.34c0.08,0.83,0.18,1.66,0.5,2.44c0.11,0.26,0.21,0.53,0.46,0.7c0.32,0.22,0.71,0.23,0.98-0.04
			c0.37-0.38,0.72-0.79,1.04-1.22c0.49-0.66,0.95-1.35,1.42-2.03c0.08-0.12,0.19-0.23,0.3-0.37c0.14,0.6,0.26,1.16,0.4,1.72
			c0.32,1.3,0.84,2.53,1.39,3.74c0.2,0.43,0.37,0.87,0.58,1.28c0.09,0.17,0.24,0.34,0.41,0.42c0.36,0.19,0.74,0.04,0.88-0.36
			c0.19-0.54,0.3-1.1,0.44-1.65c0.05-0.2,0.08-0.41,0.17-0.61c0.02,0.05,0.04,0.1,0.05,0.16c0.23,1.38,0.93,2.53,1.83,3.56
			c0.7,0.81,1.46,1.55,2.33,2.17c0.25,0.17,0.52,0.33,0.79,0.44c0.4,0.16,0.66-0.01,0.63-0.44c-0.03-0.42-0.12-0.84-0.23-1.25
			c-0.29-1.08-0.98-1.91-1.74-2.69c-0.54-0.55-1.07-1.11-1.4-1.81c-0.33-0.68-0.45-1.42-0.51-2.17c-0.09-1.2-0.1-2.41,0.17-3.59
			c0.51-2.2,1.62-4.04,3.3-5.54c0.55-0.49,1.12-0.97,1.62-1.51c0.94-1.02,1.21-2.28,1-3.62c-0.11-0.73-0.33-1.45-0.51-2.18
			c-0.38-1.55,0.14-2.79,1.3-3.81c0.28-0.25,0.57-0.49,0.85-0.75c0.25-0.22,0.2-0.44-0.12-0.54c-0.46-0.14-0.92-0.1-1.36,0.08
			c-1.34,0.56-2.15,1.61-2.6,2.95c-0.32,0.96-0.16,1.91,0.13,2.86c0.15,0.5,0.3,1.01,0.39,1.53c0.13,0.75-0.12,1.4-0.66,1.93
			c-0.42,0.41-0.88,0.8-1.3,1.22c-1.41,1.41-2.43,3.09-3.17,4.94c-0.57,1.42-0.86,2.9-0.95,4.42c-0.03,0.45-0.15,0.83-0.43,1.17
			c-0.26,0.3-0.51,0.61-0.8,0.96c-0.08-0.2-0.16-0.37-0.21-0.54c-0.62-2.09-0.74-4.24-0.69-6.41c0.03-1.55,0.21-3.08,0.7-4.56
			c0.43-1.31,1.04-2.54,1.77-3.71c0.84-1.35,1.67-2.7,2.65-3.94c0.89-1.12,1.86-2.17,2.96-3.08c0.51-0.42,1.05-0.82,1.73-0.82
			c0.51,0,1.02,0.11,1.52,0.18c0.23,0.03,0.45,0.13,0.68,0.15c0.5,0.04,0.86-0.21,1.03-0.69c0.06-0.18,0.12-0.37,0.14-0.57
			c0.26-2.2-0.52-4.01-2.24-5.35c-1.24-0.96-2.72-1.33-4.29-1.27c-1.99,0.07-3.63,0.89-4.92,2.4c-0.17,0.2-0.31,0.48-0.53,0.56
			c-0.21,0.08-0.51-0.03-0.76-0.06c-0.26-0.03-0.52-0.06-0.8-0.09c0.24-0.25,0.48-0.49,0.72-0.73c1.13-1.13,2.26-2.26,3.4-3.39
			c0.25-0.24,0.38-0.51,0.28-0.86c-0.05-0.16,0.03-0.22,0.17-0.26c1.41-0.38,2.82-0.76,4.24-1.14c0.18-0.05,0.38-0.08,0.54-0.17
			c0.54-0.31,0.68-0.58,0.4-1.2c-0.07-0.16-0.18-0.31-0.3-0.51c0.32-0.02,0.62-0.05,0.92-0.06c0.76-0.02,1.45,0.22,2.13,0.52
			c1.76,0.77,3.35,1.78,4.68,3.16c0.89,0.92,1.62,1.95,2.02,3.18c0.01,0.02,0.01,0.04,0.03,0.11c-0.36,0.09-0.72,0.19-1.09,0.26
			c-0.06,0.01-0.17-0.08-0.21-0.15c-0.42-0.62-0.92-1.15-1.48-1.64c-0.81-0.7-1.7-1.22-2.81-1.21c-0.22,0-0.45,0.05-0.66,0.12
			c-0.35,0.11-0.53,0.4-0.58,0.75c-0.06,0.35,0.21,0.55,0.45,0.74c0.11,0.08,0.23,0.15,0.36,0.19c1.1,0.39,1.96,1.13,2.77,1.94
			c0.34,0.34,0.64,0.72,0.96,1.1c0.2,0.24,0.23,0.26,0.54,0.15c0.53-0.18,1.06-0.41,1.6-0.54c1.24-0.29,2.48-0.23,3.7,0.1
			c1.23,0.34,2.34,0.91,3.32,1.73c0.06,0.05,0.13,0.1,0.23,0.18c-0.18,0.15-0.33,0.25-0.46,0.38c-0.19,0.18-0.41,0.36-0.53,0.58
			c-0.21,0.37-0.02,0.84,0.38,0.98c0.14,0.05,0.33,0,0.47-0.07c0.39-0.17,0.77-0.37,1.15-0.56c0.14-0.07,0.22-0.04,0.31,0.1
			c0.28,0.42,0.59,0.82,0.89,1.23c0.04,0.05,0.07,0.11,0.1,0.16c-0.26-0.02-0.52-0.07-0.77-0.06c-0.31,0.01-0.54,0.19-0.66,0.46
			c-0.1,0.23-0.06,0.48,0.12,0.65c0.19,0.18,0.42,0.33,0.66,0.45c0.18,0.09,0.4,0.12,0.61,0.14c0.33,0.02,0.51-0.14,0.57-0.51
			c0.08,0.15,0.14,0.27,0.2,0.38c0.48,0.92,0.98,1.82,1.71,2.58c0.45,0.46,0.88,0.96,1.32,1.45c-0.4,0.3-0.83,0.42-1.26,0.54
			c-1.26,0.34-2.55,0.37-3.84,0.37c-0.46,0-0.91,0-1.37,0.03c-0.2,0.01-0.39,0.1-0.58,0.17c-0.15,0.06-0.17,0.24-0.03,0.38
			c0.15,0.15,0.33,0.29,0.51,0.39c0.47,0.26,0.96,0.48,1.42,0.75c0.64,0.38,1.23,1.02,1.56,1.69c0.26,0.53,0.03,0.98-0.24,1.46
			c-0.21,0.38-0.5,0.7-0.88,0.92c-0.66,0.38-1.42,0.51-2.16,0.6c-0.63,0.07-1.27,0.09-1.91,0.06c-0.59-0.03-1.17-0.1-1.66-0.46
			c-0.13-0.09-0.21-0.25-0.34-0.42c0.43-0.04,0.79-0.06,1.15-0.1c0.18-0.02,0.37-0.08,0.54-0.15c0.07-0.03,0.15-0.15,0.15-0.23
			c0-0.13-0.12-0.16-0.24-0.14c-0.52,0.05-1.04,0.1-1.56,0.13c-0.06,0-0.16-0.04-0.18-0.09c-0.11-0.33-0.22-0.66-0.31-0.99
			c-0.04-0.16,0.03-0.24,0.21-0.22c0.59,0.06,1.18,0.1,1.77,0.15c0.04,0,0.09,0.01,0.13,0.01c0.2,0,0.36-0.12,0.37-0.27
			c0.01-0.17-0.1-0.31-0.33-0.33c-0.5-0.05-1.01-0.08-1.52-0.13c-0.13-0.01-0.26-0.03-0.39-0.04c-0.32-0.04-0.34-0.05-0.28-0.38
			c0.12-0.66,0.3-1.3,0.78-1.81c0.18-0.19,0.1-0.4-0.17-0.44c-0.18-0.03-0.36,0-0.54,0.01c-0.14,0.01-0.27,0.04-0.41,0.03
			c-0.38-0.02-0.62,0.19-0.79,0.5c-0.46,0.83-0.63,1.7-0.46,2.64c0.02,0.09,0.01,0.15-0.01,0.21c0.14,0.36,0.19,0.73,0.27,1.1
			c0.08,0.37,0.21,0.72,0.45,1.01c0.01,0,0.03-0.01,0.04-0.01c0.04-0.01,0.08,0.03,0.1,0.07c0.25,0.26,0.56,0.46,0.87,0.64
			c0.26,0.15,0.55,0.25,0.78,0.44c0.17-0.04,0.68,0.15,0.78,0.18c0.26,0.06,0.51,0.1,0.77,0.14c0.11,0.14,0.2,0.3,0.27,0.46
			c0,0.01,0,0.02,0,0.03c0,0.04,0,0.08,0,0.12c0,0.06,0.05,0.09,0.09,0.09c0.03,0.1,0.06,0.2,0.08,0.3c0.02,0.08,0.14,0.1,0.18,0.02
			c0.09-0.21,0.21-0.4,0.37-0.56c0.1-0.1,0.29-0.21,0.33-0.36c0.47,0.01,0.95-0.02,1.42-0.11c0.41-0.08,0.82-0.19,1.2-0.38
			c0.18-0.09,0.35-0.19,0.52-0.31c0.12-0.09,0.29-0.33,0.44-0.34c0.28-0.33,0.87,0.13,1.17,0.24c0.54,0.2,1.14,0.41,1.71,0.44
			c0.08,0.2,0.13,0.42,0.15,0.64c0.01,0.11,0.16,0.13,0.19,0.03c0.06-0.2,0.25-0.33,0.42-0.43c0.22-0.14,0.43-0.27,0.65-0.41
			c0.23-0.05,0.45-0.12,0.45-0.15C91.24,32.81,91.02,35.03,90.39,37.19z M38.99,66.82c-0.29,0.01-0.56,0.03-0.82,0.03
			c-0.05,0-0.13-0.12-0.14-0.19c-0.08-0.61-0.19-1.22-0.21-1.83c-0.04-0.9-0.02-1.81-0.02-2.71c0-0.1,0.03-0.2,0.05-0.29
			c0.03,0,0.05,0.01,0.08,0.01C38,63.54,38.34,65.19,38.99,66.82z M91.75,27.31c-0.11,0.01-0.24,0.03-0.34,0.08
			c-0.11,0.06-0.25,0.14-0.3,0.24c-0.1,0.2,0,0.32,0.23,0.31c0.14-0.01,0.27-0.03,0.45-0.05c-0.03,0.12-0.03,0.23-0.07,0.32
			c-0.36,0.84-1.04,1.22-1.91,1.34c-0.7,0.09-1.27-0.22-1.79-0.63c-0.24-0.19-0.22-0.48-0.17-0.74c0.12-0.7,0.43-1.32,0.91-1.84
			c0.43-0.48,0.88-0.94,1.31-1.42c0.38-0.43,0.76-0.87,1.16-1.33c0.44,0.37,0.62,0.88,0.65,1.46c0.02,0.42-0.02,0.84,0,1.25
			c0.01,0.22,0.08,0.44,0.11,0.66C92.02,27.15,91.98,27.29,91.75,27.31z"/>
		<path d="M74.16,19.14c0.52-0.08,1.05-0.12,1.56-0.25c0.93-0.23,1.73,0.03,2.42,0.62c0.76,0.64,1.32,1.44,1.66,2.38
			c0.09,0.23,0.09,0.51,0.08,0.76c-0.01,0.26-0.19,0.39-0.43,0.45c-0.22,0.06-0.42,0-0.56-0.18c-0.24-0.31-0.47-0.63-0.7-0.94
			c-0.77-1.05-1.81-1.66-3.09-1.86c-0.51-0.08-1.01-0.16-1.52-0.26c-0.29-0.06-0.4-0.19-0.38-0.36c0.02-0.23,0.22-0.38,0.5-0.38
			c0.15,0,0.3,0,0.46,0C74.16,19.12,74.16,19.13,74.16,19.14z"/>
		<path d="M77.57,18c-0.39-0.04-0.72-0.18-1.01-0.4c-0.41-0.31-0.83-0.6-1.25-0.9c-0.23-0.17-0.23-0.25,0.01-0.41
			c0.41-0.28,0.86-0.34,1.33-0.24c0.66,0.15,1.2,0.5,1.64,1c0.28,0.32,0.25,0.52-0.11,0.73C77.99,17.88,77.77,17.93,77.57,18z"/>
		<path d="M83.06,27.35c-0.36,0-0.61-0.22-0.6-0.51c0.01-0.25,0.27-0.46,0.52-0.43c0.25,0.03,0.52,0.31,0.54,0.56
			C83.54,27.19,83.34,27.35,83.06,27.35z"/>
		<path d="M82.04,28.23c0.52,0.06,0.98,0.11,1.43,0.17c0.14,0.02,0.21,0.17,0.12,0.27c-0.09,0.09-0.21,0.2-0.33,0.22
			c-0.4,0.06-0.78-0.03-1.07-0.34C82.13,28.49,82.1,28.38,82.04,28.23z"/>
		<path d="M50.95,69.54c0.02-0.12,0.04-0.22,0.06-0.31c0.12-0.54,0.09-1.08,0.01-1.63c-0.06-0.37-0.22-0.52-0.51-0.65
			c-0.16-0.07-0.3-0.17-0.45-0.25c-0.27-0.16-0.39-0.4-0.39-0.7c0-0.06,0.08-0.16,0.12-0.16c0.17-0.01,0.36-0.03,0.5,0.04
			c1.45,0.69,1.64,2.04,1.26,3.28C51.46,69.42,51.29,69.51,50.95,69.54z"/>
		<path d="M90.89,26.08c0.23,0,0.38,0.15,0.38,0.39c0,0.26-0.23,0.44-0.57,0.44c-0.2-0.01-0.32-0.15-0.32-0.36
			C90.39,26.25,90.57,26.08,90.89,26.08z"/>
		<path d="M90.35,28.27c-0.16-0.02-0.23-0.17-0.19-0.31c0.03-0.11,0.16-0.22,0.28-0.28c0.09-0.05,0.27,0.19,0.27,0.34
			C90.7,28.14,90.53,28.28,90.35,28.27z"/>
	</g>
	<path d="M84.66,33.98c-0.03-0.11-0.08-0.22-0.13-0.32c-0.05-0.1-0.1-0.21-0.17-0.3c-0.14-0.19-0.4-0.21-0.61-0.25
		c-0.03-0.01-0.06,0-0.08,0.02c-0.02,0-0.03,0.01-0.05,0.03c0,0-0.01,0.01-0.02,0.01c-0.32,0.1-0.65,0.25-0.74,0.6
		c-0.09,0.34,0.19,0.65,0.45,0.83c0.27,0.19,0.62,0.27,0.95,0.22c0.18-0.03,0.32-0.08,0.39-0.26
		C84.72,34.37,84.72,34.16,84.66,33.98z"/>
	<path d="M86.78,33.97c-0.02-0.09-0.05-0.17-0.09-0.26c-0.06-0.16-0.15-0.3-0.29-0.4c-0.29-0.21-0.72-0.27-1.07-0.26
		c-0.15,0-0.37,0-0.43,0.17c-0.06,0.18,0.14,0.24,0.24,0.33c0.29,0.23,0.47,0.57,0.5,0.94c0,0.05,0.03,0.08,0.07,0.09
		c0,0.06,0.05,0.12,0.12,0.1c0.18-0.04,0.35-0.1,0.5-0.18c0.08-0.04,0.15-0.08,0.22-0.13c0.07-0.05,0.15-0.1,0.2-0.17
		C86.82,34.13,86.8,34.05,86.78,33.97z"/>
</g>
</svg>
