<?xml version="1.0" encoding="utf-8"?>
<!-- Generator: Adobe Illustrator 28.1.0, SVG Export Plug-In . SVG Version: 6.00 Build 0)  -->
<svg version="1.1" id="Layer_1" xmlns="http://www.w3.org/2000/svg" xmlns:xlink="http://www.w3.org/1999/xlink" x="0px" y="0px"
	 viewBox="0 0 110.55 76.54" style="enable-background:new 0 0 110.55 76.54;" xml:space="preserve">
<style type="text/css">
	.st0{display:none;}
	.st1{display:inline;fill:none;}
</style>
<g id="Layer_2_00000073722119373351752270000017113015111246931634_" class="st0">
	<line class="st1" x1="-24.13" y1="74.54" x2="142.13" y2="74.54"/>
	<line class="st1" x1="-24.13" y1="2" x2="142.13" y2="2"/>
</g>
<g>
	<path d="M90.68,36.99H56.16l-0.01-4.62c0.23,0.02,0.48,0.03,0.75,0.03c1.6,0.04,3.19-0.38,4.57-1.19c2.76-1.75,3.54-5.18,3.57-5.33
		c0.13-0.63-0.27-1.24-0.9-1.37c0,0,0,0,0,0c-0.61-0.11-1.23-0.16-1.84-0.16c-1.6-0.04-3.19,0.38-4.57,1.19
		c-0.6,0.38-1.13,0.85-1.58,1.4v-4.34c0.23,0.02,0.48,0.03,0.75,0.03c1.6,0.04,3.19-0.38,4.57-1.19c2.76-1.75,3.54-5.18,3.57-5.33
		c0.13-0.63-0.27-1.24-0.9-1.37c0,0,0,0,0,0c-0.61-0.11-1.23-0.16-1.84-0.16c-1.6-0.04-3.19,0.38-4.57,1.19
		c-0.59,0.38-1.13,0.86-1.58,1.4V14.4c0.68-0.88,2.3-3.27,2.3-6.16c0-3.57-2.49-6.4-2.59-6.51c-0.43-0.47-1.17-0.51-1.64-0.07
		c-0.03,0.02-0.05,0.05-0.07,0.07c-0.11,0.12-2.6,2.94-2.6,6.52c0,2.88,1.62,5.28,2.3,6.16v2.75c-0.46-0.54-0.99-1.01-1.58-1.4
		c-1.38-0.81-2.96-1.22-4.57-1.19c-0.62,0-1.24,0.05-1.84,0.16c-0.63,0.13-1.03,0.74-0.9,1.37c0,0,0,0,0,0
		c0.03,0.14,0.81,3.58,3.57,5.33c1.38,0.81,2.96,1.22,4.57,1.19c0.28,0,0.53-0.01,0.75-0.03v4.34c-0.45-0.54-0.99-1.01-1.58-1.4
		c-1.38-0.81-2.96-1.22-4.57-1.19c-0.62,0-1.24,0.05-1.84,0.16c-0.62,0.14-1.02,0.75-0.9,1.37c0.03,0.15,0.81,3.58,3.57,5.33
		c1.38,0.81,2.96,1.22,4.57,1.19c0.28,0,0.53-0.01,0.75-0.03v4.62H19.32c-0.64,0-1.15,0.51-1.15,1.15s0.52,1.15,1.15,1.15h34.53
		v1.83l-7.14,7.24c-0.6,0.54-1.47,0.66-2.19,0.31l-0.58-0.33c-1.6-0.83-3.52-0.79-5.09,0.11l-4.03,2.53
		c-0.54,0.34-0.7,1.05-0.36,1.58c0,0,0,0,0,0c0.35,0.53,1.05,0.69,1.59,0.36l4.03-2.53c0.85-0.44,1.86-0.47,2.72-0.06l0.58,0.33
		c1.63,0.86,3.64,0.59,4.97-0.69l5.5-5.58v6.89l-12.77,7.45l-9.02-3.09c-1.76-0.53-3.67-0.14-5.08,1.05l-2.68,2.46
		c-0.47,0.43-0.5,1.16-0.07,1.63v0c0.43,0.46,1.15,0.49,1.63,0.07l2.69-2.46c0.79-0.61,1.82-0.82,2.78-0.57l8.08,2.77l-4.71,6.8
		c-0.36,0.52-0.23,1.24,0.29,1.6c0,0,0,0,0,0c0.53,0.35,1.23,0.22,1.6-0.29l5.43-7.84l11.05-6.45l-2.1,4.21
		c-0.88,1.6-0.88,3.55,0,5.15l0.12,0.19l-5.42,4.34c-0.5,0.4-0.58,1.12-0.18,1.61c0,0,0,0,0,0c0.4,0.49,1.12,0.57,1.62,0.18
		l5.18-4.14l5.1,8.51l1.58,0.4c0.54-0.33,0.72-1.03,0.4-1.58l-6.41-10.69c-0.44-0.89-0.43-1.93,0.02-2.81
		c0.02-0.03,2.98-5.96,2.98-5.96l12.06,7.04c0,0,5.42,7.83,5.43,7.84c0.37,0.52,1.08,0.65,1.6,0.29c0.52-0.36,0.65-1.08,0.29-1.6
		c0,0,0,0,0,0l-4.71-6.8l8.08-2.77c0.96-0.25,1.99-0.04,2.78,0.57l2.69,2.46c0.47,0.42,1.19,0.38,1.63-0.07
		c0.43-0.47,0.4-1.2-0.07-1.63l-2.68-2.45c-1.41-1.19-3.32-1.58-5.08-1.05l-9.02,3.09l-12.76-7.45V44.4l5.49,5.57
		c1.34,1.28,3.34,1.55,4.97,0.69l0.58-0.33c0.87-0.41,1.87-0.39,2.72,0.06c0,0,4.02,2.52,4.03,2.53c0.54,0.33,1.24,0.17,1.59-0.36
		c0.34-0.54,0.18-1.25-0.36-1.58c0,0,0,0,0,0l-4.03-2.53c-1.57-0.9-3.48-0.94-5.09-0.11l-0.58,0.33c-0.72,0.36-1.59,0.23-2.19-0.31
		l-7.13-7.23v-1.83h34.52c0.64,0,1.15-0.51,1.15-1.15S91.31,36.99,90.68,36.99z M58.97,27.47c1.01-0.58,2.17-0.86,3.33-0.83
		c0.02,0,0.03,0,0.04,0c-0.44,1.06-1.17,1.97-2.11,2.62c-1.03,0.58-2.2,0.87-3.38,0.83C57.3,29.03,58.03,28.12,58.97,27.47z
		 M58.97,17.7c1.01-0.58,2.17-0.86,3.33-0.83c0.02,0,0.03,0,0.04,0c-0.44,1.06-1.17,1.97-2.11,2.62c-1.03,0.58-2.2,0.87-3.38,0.83
		C57.3,19.26,58.03,18.35,58.97,17.7z M53.1,20.32L53.1,20.32c-1.17,0.04-2.32-0.25-3.33-0.83c-0.94-0.65-1.67-1.56-2.11-2.62
		c0.01,0,0.03,0,0.05,0c1.17-0.03,2.32,0.25,3.33,0.83c0.94,0.65,1.67,1.56,2.11,2.62H53.1z M53.1,30.09L53.1,30.09
		c-1.17,0.03-2.32-0.25-3.33-0.83c-0.94-0.65-1.67-1.56-2.11-2.62c0.01,0,0.03,0,0.05,0c1.17-0.03,2.32,0.25,3.33,0.83
		c0.94,0.65,1.67,1.56,2.11,2.62H53.1z M55,12c-0.71-1.13-1.1-2.43-1.15-3.76C53.9,6.91,54.3,5.61,55,4.48
		c0.71,1.13,1.1,2.43,1.15,3.76C56.1,9.57,55.71,10.87,55,12z"/>
</g>
</svg>
