<?xml version="1.0" encoding="utf-8"?>
<!-- Generator: Adobe Illustrator 28.1.0, SVG Export Plug-In . SVG Version: 6.00 Build 0)  -->
<svg version="1.1" id="Layer_1" xmlns="http://www.w3.org/2000/svg" xmlns:xlink="http://www.w3.org/1999/xlink" x="0px" y="0px"
	 viewBox="0 0 110.55 76.54" style="enable-background:new 0 0 110.55 76.54;" xml:space="preserve">
<style type="text/css">
	.st0{display:none;}
	.st1{display:inline;fill:none;}
</style>
<g id="Layer_2_00000073722119373351752270000017113015111246931634_" class="st0">
	<line class="st1" x1="-24.13" y1="74.54" x2="142.13" y2="74.54"/>
	<line class="st1" x1="-24.13" y1="2" x2="142.13" y2="2"/>
</g>
<g>
	<path d="M89.05,2.62c-4.53,0-8.26,3.64-8.26,8.26c0,5.15,4.88,12.34,7.1,15.45c0.53,0.71,1.69,0.71,2.22,0
		c2.22-3.11,7.1-10.3,7.1-15.45C97.3,6.26,93.66,2.62,89.05,2.62z M89.13,14.79c-2.22,0-4-1.78-4-4s1.78-4,4-4c2.22,0,4,1.78,4,4
		S91.35,14.79,89.13,14.79z"/>
	<path d="M17.31,62.64L17.31,62.64l-0.36,2.22c-0.09,0.44-0.18,0.89-0.36,1.24l-2.66,5.68c-0.44,0.89,0,1.86,0.8,2.31
		c0.27,0.09,0.44,0.18,0.71,0.18c0.62,0,1.24-0.36,1.51-0.98l2.66-5.68c0.27-0.62,0.53-1.33,0.62-1.95
		c-0.18-0.18-0.36-0.36-0.62-0.62C18.64,63.88,17.48,62.82,17.31,62.64z"/>
	<path d="M29.83,56.96l-1.42-0.98c-0.8-0.53-1.51-1.15-2.13-1.95c-2.04-2.66-2.57-2.93-3.29-3.02l-2.31-0.18
		c-0.53,0-0.98,0.18-2.13,0.71c-1.95,1.07-3.64,2.66-4.71,4.71l-0.71,1.24c-0.36,0.71-0.09,1.6,0.53,1.95
		c0.27,0.27,0.44,0.27,0.71,0.27c0.53,0,0.98-0.27,1.24-0.71l0.71-1.24c0.44-0.89,1.15-1.69,1.86-2.31
		c-0.09,0.98-0.27,2.22-0.36,2.93c-0.18,1.42-0.44,2.49,0.44,3.37c0.36,0.36,4.44,4.35,4.44,4.35c0.44,0.44,0.71,0.98,0.89,1.6
		l1.24,5.33c0.18,0.8,0.89,1.33,1.69,1.33c0.18,0,0.27,0,0.44-0.09c0.89-0.18,1.51-1.15,1.24-2.04L26.9,66.9
		c-0.27-1.24-0.89-2.31-1.86-3.2l-2.22-2.13l1.15-5.42c0.8,0.98,1.69,1.78,2.66,2.49l1.42,0.98c0.62,0.44,1.51,0.27,1.95-0.44
		C30.71,58.29,30.54,57.4,29.83,56.96z"/>
	<ellipse cx="22.3" cy="47.07" rx="3.2" ry="3.2"/>
	<path d="M40.04,41.24c0.71-0.36,1.07-1.24,0.71-2.04c-0.27-0.53-0.44-1.15-0.62-1.69c-0.18-0.8-0.98-1.33-1.78-1.15
		c-0.8,0.18-1.33,0.98-1.15,1.78s0.44,1.6,0.8,2.31c0.27,0.53,0.8,0.89,1.33,0.89C39.59,41.42,39.77,41.42,40.04,41.24z"/>
	<path d="M38.7,32.99c0.18,0.09,0.44,0.18,0.62,0.18c0.53,0,1.07-0.36,1.33-0.89c0.27-0.53,0.53-1.07,0.98-1.51
		c0.53-0.62,0.36-1.6-0.27-2.13c-0.62-0.53-1.6-0.36-2.13,0.27c-0.53,0.62-0.98,1.33-1.33,2.13C37.64,31.74,37.9,32.63,38.7,32.99z"
		/>
	<path d="M34.09,63.35h-2.13c-0.8,0-1.51,0.71-1.51,1.51c0,0.8,0.71,1.51,1.51,1.51h2.13c0.8,0,1.51-0.71,1.51-1.51
		C35.6,64.06,34.98,63.35,34.09,63.35z"/>
	<path d="M62.85,27.48h2.13c0.8,0,1.51-0.71,1.51-1.51s-0.71-1.51-1.51-1.51h-2.13c-0.8,0-1.51,0.71-1.51,1.51
		S61.97,27.48,62.85,27.48z"/>
	<path d="M45.72,27.84c0.09,0,0.27,0,0.36-0.09c0.62-0.18,1.15-0.27,1.78-0.27c0.8,0,1.51-0.71,1.42-1.51c0-0.8-0.71-1.51-1.51-1.42
		c-0.8,0-1.69,0.18-2.49,0.36c-0.8,0.18-1.24,1.07-1.07,1.86C44.39,27.39,45.01,27.84,45.72,27.84z"/>
	<path d="M71.38,27.48h2.13c0.8,0,1.51-0.71,1.51-1.51s-0.71-1.51-1.51-1.51h-2.13c-0.8,0-1.51,0.71-1.51,1.51
		S70.58,27.48,71.38,27.48z"/>
	<path d="M54.24,27.48h2.13c0.8,0,1.51-0.71,1.51-1.51s-0.71-1.51-1.51-1.51h-2.13c-0.8,0-1.51,0.71-1.51,1.51
		S53.44,27.48,54.24,27.48z"/>
	<path d="M82.12,24.55h-2.13c-0.8,0-1.51,0.71-1.51,1.51s0.71,1.51,1.51,1.51h2.13c0.8,0,1.51-0.71,1.51-1.51
		S83.01,24.55,82.12,24.55z"/>
	<path d="M42.7,63.35h-2.13c-0.8,0-1.51,0.71-1.51,1.51c0,0.8,0.71,1.51,1.51,1.51h2.13c0.8,0,1.51-0.71,1.51-1.51
		C44.21,64.06,43.5,63.35,42.7,63.35z"/>
	<path d="M72.09,45.42c-0.71-0.44-1.51-0.71-2.31-0.98c-0.8-0.27-1.6,0.18-1.86,0.98c-0.27,0.8,0.18,1.6,0.98,1.86
		c0.53,0.18,1.15,0.44,1.69,0.71c0.27,0.18,0.53,0.18,0.71,0.18c0.53,0,1.07-0.27,1.33-0.8C73.06,46.75,72.8,45.77,72.09,45.42z"/>
	<path d="M62.94,43.91h-2.13c-0.8,0-1.51,0.71-1.51,1.51s0.71,1.51,1.51,1.51h2.13c0.8,0,1.51-0.71,1.51-1.51
		S63.74,43.91,62.94,43.91z"/>
	<path d="M75.82,58.38c-0.71-0.36-1.6-0.09-2.04,0.62c-0.27,0.53-0.62,1.07-1.07,1.51c-0.53,0.62-0.44,1.6,0.18,2.13
		c0.27,0.27,0.62,0.36,0.98,0.36c0.44,0,0.8-0.18,1.15-0.53c0.53-0.62,0.98-1.33,1.42-2.04C76.79,59.71,76.53,58.74,75.82,58.38z"/>
	<path d="M74.93,50.03c-0.8,0.36-1.15,1.24-0.8,1.95c0.27,0.53,0.44,1.15,0.53,1.78c0.09,0.71,0.8,1.24,1.51,1.24
		c0.09,0,0.18,0,0.27,0c0.8-0.18,1.33-0.89,1.24-1.78c-0.18-0.8-0.36-1.6-0.71-2.4C76.53,50.03,75.73,49.68,74.93,50.03z"/>
	<path d="M68.09,63.17c-0.53,0.09-1.07,0.18-1.6,0.18h-0.27c-0.8,0-1.51,0.71-1.51,1.51c0,0.8,0.71,1.51,1.51,1.51h0.27
		c0.71,0,1.42-0.09,2.13-0.18c0.8-0.18,1.33-0.98,1.15-1.78C69.69,63.53,68.89,63,68.09,63.17z"/>
	<path d="M51.31,63.35h-2.13c-0.8,0-1.51,0.71-1.51,1.51c0,0.8,0.71,1.51,1.51,1.51h2.13c0.8,0,1.51-0.71,1.51-1.51
		C52.82,64.06,52.11,63.35,51.31,63.35z"/>
	<path d="M46.16,43.73c-0.62-0.18-1.15-0.36-1.69-0.62c-0.71-0.36-1.69-0.09-2.04,0.71c-0.36,0.71-0.09,1.69,0.71,2.04
		c0.71,0.36,1.51,0.62,2.31,0.89c0.09,0,0.27,0,0.36,0c0.71,0,1.33-0.44,1.42-1.15C47.49,44.71,46.96,43.91,46.16,43.73z"/>
	<path d="M54.33,43.91H52.2c-0.8,0-1.51,0.71-1.51,1.51s0.71,1.51,1.51,1.51h2.13c0.8,0,1.51-0.71,1.51-1.51
		S55.22,43.91,54.33,43.91z"/>
	<path d="M59.84,63.35H57.7c-0.8,0-1.51,0.71-1.51,1.51c0,0.8,0.71,1.51,1.51,1.51h2.13c0.8,0,1.51-0.71,1.51-1.51
		C61.34,64.06,60.72,63.35,59.84,63.35z"/>
</g>
</svg>
