<?xml version="1.0" encoding="utf-8"?>
<!-- Generator: Adobe Illustrator 28.1.0, SVG Export Plug-In . SVG Version: 6.00 Build 0)  -->
<svg version="1.1" id="Layer_1" xmlns="http://www.w3.org/2000/svg" xmlns:xlink="http://www.w3.org/1999/xlink" x="0px" y="0px"
	 viewBox="0 0 110.55 76.54" style="enable-background:new 0 0 110.55 76.54;" xml:space="preserve">
<style type="text/css">
	.st0{display:none;}
	.st1{display:inline;fill:none;}
	.st2{fill:#808080;}
</style>
<g id="Layer_2_00000073722119373351752270000017113015111246931634_" class="st0">
	<line class="st1" x1="-24.13" y1="74.54" x2="142.13" y2="74.54"/>
	<line class="st1" x1="-24.13" y1="2" x2="142.13" y2="2"/>
</g>
<g>
	<path class="st2" d="M1879.74,2086.84c3.3,0,5.96-2.66,5.96-5.96c0-3.3-2.66-5.96-5.96-5.96c-3.3,0-5.96,2.66-5.96,5.96
		C1873.77,2084.18,1876.43,2086.84,1879.74,2086.84z"/>
	<path class="st2" d="M1886.1,2093.13c5.88-0.81,13.22-2.18,14.43-2.34c1.45-0.24,2.42-1.69,2.18-3.14
		c-0.24-1.45-1.69-2.42-3.14-2.18c-6.53,1.21-17.17,2.9-19.83,2.9c-10.4,0-15.15,6.93-15.31,7.25c-0.64,0.97-0.56,2.18,0.08,3.06
		l4.67,6.61c0.56,0.73,1.37,1.13,2.18,1.13c0.56,0,1.05-0.16,1.53-0.48c0.16-0.08,0.24-0.24,0.4-0.32v1.85l-1.69,19.91
		c-0.16,1.61,1.05,3.06,2.74,3.22c1.61,0.16,3.06-1.05,3.22-2.74l1.61-19.18h1.13l1.61,19.18c0.16,1.53,1.45,2.74,2.98,2.74
		c0.08,0,0.16,0,0.24,0c1.61-0.16,2.9-1.61,2.74-3.22l-1.69-19.91L1886.1,2093.13z M1873.29,2101.83l-3.22-4.59
		c0.73-0.64,1.85-1.53,3.3-2.18L1873.29,2101.83z"/>
</g>
<g>
	<path class="st2" d="M1933.79,2093.61c1.85,0.21,3.48,0.36,4.83,0.36c1.99,0,3.48-0.28,4.48-1.21c0.64-0.57,1.07-1.35,1.07-2.27
		c0.14-2.27-2.49-6.33-7.75-12.01c-0.92-1-2.49-1.07-3.55-0.14c-0.21,0.14-0.28,0.36-0.43,0.57c-0.78-2.35-2.91-3.98-5.55-3.98
		c-2.56,0-4.76,1.71-5.55,3.98c-0.14-0.21-0.28-0.43-0.43-0.57c-1-0.92-2.56-0.85-3.55,0.14c-5.26,5.69-7.89,9.67-7.75,12.01
		c0.07,0.92,0.43,1.71,1.07,2.27c1,0.85,2.49,1.21,4.48,1.21c1.35,0,2.99-0.14,4.83-0.36c0.36,0,0.71-0.07,1-0.07l0.28,12.51
		c0,0.14,0,0.21,0,0.36l-3.55,8.25c-0.36,0.92-0.64,1.85-0.78,2.77l-1.07,10.02c-0.21,1.56,0.92,3.06,2.56,3.27
		c0.14,0,0.21,0,0.36,0c1.42,0,2.7-1.07,2.91-2.56l1.28-10.02c0.07-0.43,0.14-0.85,0.36-1.21l3.77-8.74l3.77,8.74
		c0.14,0.43,0.28,0.78,0.36,1.21l1.28,10.02c0.21,1.56,1.64,2.7,3.27,2.56c1.56-0.21,2.7-1.64,2.56-3.27l-1.28-10.02
		c-0.14-1-0.36-1.92-0.78-2.77l-3.55-8.25c0-0.07,0-0.21,0-0.28l0.28-12.58C1933.15,2093.54,1933.51,2093.54,1933.79,2093.61z
		 M1930.38,2088.35h-6.75c-1.14,0-2.49,0.14-3.91,0.28c-1.14,0.14-2.84,0.28-4.19,0.28c1.14-1.78,3.34-4.55,5.69-7.04
		c0-0.07,0.07-0.07,0.07-0.14c0.5,2.77,2.84,4.83,5.76,4.83c2.91,0,5.26-2.06,5.76-4.83c0,0.07,0.07,0.07,0.07,0.14
		c2.35,2.49,4.55,5.26,5.69,7.04c-1.35,0-3.06-0.21-4.19-0.28C1932.87,2088.49,1931.44,2088.35,1930.38,2088.35z"/>
</g>
<path class="st2" d="M1898.76,2079.8c0.4,0.4,1.05-0.08,0.81-0.56l-2.42-4.92l3.3-0.81c0.32-0.08,0.48-0.4,0.32-0.73l-4.03-7.5
	c-0.08-0.16-0.32-0.32-0.56-0.24l-3.47,0.81c-0.32,0.08-0.48,0.48-0.32,0.81l3.14,4.43l-3.06,0.73c-0.4,0.08-0.48,0.56-0.24,0.81
	L1898.76,2079.8z"/>
<path class="st2" d="M1905.57,2070.13l3.3,0.81l-2.42,4.92c-0.24,0.48,0.4,0.97,0.81,0.56l6.61-7.09c0.24-0.32,0.16-0.73-0.24-0.81
	l-3.06-0.81l3.14-4.43c0.24-0.32,0.08-0.73-0.32-0.81l-3.47-0.81c-0.24-0.08-0.48,0.08-0.56,0.24l-4.03,7.5
	C1905.08,2069.73,1905.32,2070.05,1905.57,2070.13z"/>
<g>
	<path d="M29.44,28.61c3.48,0,6.28-2.8,6.28-6.28s-2.8-6.28-6.28-6.28s-6.28,2.8-6.28,6.28S25.96,28.61,29.44,28.61z"/>
	<path d="M36.15,35.23c6.2-0.85,13.92-2.29,15.19-2.46c1.53-0.25,2.55-1.78,2.29-3.31c-0.25-1.53-1.78-2.55-3.31-2.29
		c-6.88,1.27-18.08,3.06-20.88,3.06c-10.95,0-15.96,7.3-16.13,7.64c-0.68,1.02-0.59,2.29,0.08,3.23l4.92,6.96
		c0.59,0.76,1.44,1.19,2.29,1.19c0.59,0,1.1-0.17,1.61-0.51c0.17-0.08,0.25-0.25,0.42-0.34v1.95L20.87,71.3
		c-0.17,1.7,1.1,3.23,2.89,3.4c1.7,0.17,3.23-1.1,3.4-2.89l1.7-20.2h1.19l1.7,20.2c0.17,1.61,1.53,2.89,3.14,2.89
		c0.08,0,0.17,0,0.25,0c1.7-0.17,3.06-1.7,2.89-3.4l-1.78-20.96L36.15,35.23z M22.65,44.4l-3.4-4.84c0.76-0.68,1.95-1.61,3.48-2.29
		L22.65,44.4z"/>
</g>
<g>
	<path d="M86.37,35.74c1.95,0.22,3.67,0.37,5.09,0.37c2.1,0,3.67-0.3,4.72-1.27c0.67-0.6,1.12-1.42,1.12-2.4
		c0.15-2.4-2.62-6.66-8.16-12.65c-0.97-1.05-2.62-1.12-3.74-0.15c-0.22,0.15-0.3,0.37-0.45,0.6c-0.82-2.47-3.07-4.19-5.84-4.19
		c-2.7,0-5.02,1.8-5.84,4.19c-0.15-0.22-0.3-0.45-0.45-0.6c-1.05-0.97-2.7-0.9-3.74,0.15c-5.54,5.99-8.31,10.18-8.16,12.65
		c0.07,0.97,0.45,1.8,1.12,2.4c1.05,0.9,2.62,1.27,4.72,1.27c1.42,0,3.14-0.15,5.09-0.37c0.37,0,0.75-0.07,1.05-0.07l0.3,13.18
		c0,0.15,0,0.22,0,0.37l-3.74,8.68c-0.37,0.97-0.67,1.95-0.82,2.92L67.5,71.38c-0.22,1.65,0.97,3.22,2.7,3.44c0.15,0,0.22,0,0.37,0
		c1.5,0,2.84-1.12,3.07-2.7l1.35-10.56c0.07-0.45,0.15-0.9,0.37-1.27l3.97-9.21l3.97,9.21c0.15,0.45,0.3,0.82,0.37,1.27l1.35,10.56
		c0.22,1.65,1.72,2.84,3.44,2.7c1.65-0.22,2.84-1.72,2.7-3.44l-1.35-10.56c-0.15-1.05-0.37-2.02-0.82-2.92l-3.74-8.68
		c0-0.07,0-0.22,0-0.3l0.3-13.25C85.69,35.66,86.07,35.66,86.37,35.74z M82.77,30.2h-7.11c-1.2,0-2.62,0.15-4.12,0.3
		c-1.2,0.15-2.99,0.3-4.42,0.3c1.2-1.87,3.52-4.79,5.99-7.41c0-0.07,0.07-0.07,0.07-0.15c0.52,2.92,2.99,5.09,6.06,5.09
		c3.07,0,5.54-2.17,6.06-5.09c0,0.07,0.07,0.07,0.07,0.15c2.47,2.62,4.79,5.54,5.99,7.41c-1.42,0-3.22-0.22-4.42-0.3
		C85.39,30.35,83.9,30.2,82.77,30.2z"/>
</g>
<path d="M49.48,21.2c0.42,0.42,1.1-0.08,0.85-0.59l-2.55-5.18l3.48-0.85c0.34-0.08,0.51-0.42,0.34-0.76l-4.24-7.89
	c-0.08-0.17-0.34-0.34-0.59-0.25l-3.65,0.85c-0.34,0.08-0.51,0.51-0.34,0.85l3.31,4.67l-3.23,0.76c-0.42,0.08-0.51,0.59-0.25,0.85
	L49.48,21.2z"/>
<path d="M56.64,11.01l3.48,0.85l-2.55,5.18c-0.25,0.51,0.42,1.02,0.85,0.59l6.96-7.47c0.25-0.34,0.17-0.76-0.25-0.85l-3.23-0.85
	l3.31-4.67c0.25-0.34,0.08-0.76-0.34-0.85L61.23,2.1c-0.25-0.08-0.51,0.08-0.59,0.25l-4.24,7.89
	C56.14,10.59,56.39,10.93,56.64,11.01z"/>
</svg>
