<?xml version="1.0" encoding="utf-8"?>
<!-- Generator: Adobe Illustrator 28.1.0, SVG Export Plug-In . SVG Version: 6.00 Build 0)  -->
<svg version="1.1" id="Layer_1" xmlns="http://www.w3.org/2000/svg" xmlns:xlink="http://www.w3.org/1999/xlink" x="0px" y="0px"
	 viewBox="0 0 110.55 76.54" style="enable-background:new 0 0 110.55 76.54;" xml:space="preserve">
<style type="text/css">
	.st0{display:none;}
	.st1{display:inline;fill:none;}
	.st2{fill:#808080;}
	.st3{font-family:'Calibri';}
	.st4{font-size:15.0308px;}
</style>
<g id="Layer_2_00000073722119373351752270000017113015111246931634_" class="st0">
	<line class="st1" x1="-24.13" y1="74.54" x2="142.13" y2="74.54"/>
	<line class="st1" x1="-24.13" y1="2" x2="142.13" y2="2"/>
</g>
<path d="M92.23,51.95c0.24-3.43-0.93-6.95-3.55-9.57l-12.8-12.79V11.63v-0.64V6.29c0-2.36-1.92-4.28-4.28-4.28H55.6
	c-2.36,0-4.28,1.92-4.28,4.28v4.69v0.64v22.54c0,0.07,0,0.15,0.01,0.22c-0.08,3.39,1.2,6.58,3.58,8.96l16.39,16.39
	c1.64,1.64,3.65,2.71,5.75,3.22c0.03,0.01,0.06,0.01,0.09,0.02c0.93,0.22,1.89,0.34,2.84,0.34c3.15,0,6.29-1.2,8.69-3.59
	c2.15-2.15,3.32-4.9,3.54-7.71C92.23,52.01,92.23,51.98,92.23,51.95z M55.6,3.95h16.01c1.29,0,2.35,1.05,2.35,2.35v4.37h-20.7V6.29
	C53.26,5,54.31,3.95,55.6,3.95z M53.27,34.37c0-0.01-0.01-0.19-0.01-0.2v-5.35c5.44,0,9.86,4.43,9.86,9.87c0,2.71-1.1,5.24-3.03,7.1
	l-3.8-3.8C54.27,39.98,53.2,37.29,53.27,34.37z M61.45,47.15c2.29-2.22,3.6-5.24,3.6-8.47c0-6.5-5.29-11.79-11.79-11.8V12.6h20.7
	v17.39c0,0.26,0.1,0.5,0.28,0.68l13.08,13.07c1.87,1.87,2.86,4.28,3,6.74c-1.11-0.38-2.27-0.59-3.45-0.59
	c-5.82,0-10.55,4.73-10.55,10.55c0,0.09,0.01,0.19,0.01,0.29c-1.33-0.5-2.58-1.28-3.65-2.35L61.45,47.15z M87.32,58.38
	c-2.45,2.44-5.82,3.4-9,2.88c-0.03-0.27-0.07-0.55-0.07-0.82c0-4.75,3.87-8.62,8.62-8.62c1.16,0,2.3,0.25,3.36,0.69
	C89.92,54.66,88.96,56.73,87.32,58.38z"/>
<text transform="matrix(1 0 0 1 82.3281 76.8624)" class="st2 st3 st4"> </text>
<path d="M60.46,53.56l-12.8-12.79V22.82v-0.64v-4.69c0-2.36-1.92-4.28-4.28-4.28H27.38c-2.36,0-4.28,1.92-4.28,4.28v4.69v0.64v22.54
	c0,0.07,0,0.13,0.01,0.22c-0.08,3.39,1.2,6.58,3.59,8.96L43.1,70.93c1.64,1.64,3.65,2.71,5.75,3.23c0.03,0.01,0.06,0.01,0.09,0.02
	c0.93,0.22,1.88,0.34,2.84,0.34c3.14,0,6.29-1.2,8.68-3.59c2.09-2.09,3.33-4.81,3.55-7.73c0-0.02,0-0.03,0-0.04
	c0.02-0.3,0.04-0.61,0.04-0.92C64.06,58.96,62.79,55.88,60.46,53.56z M27.38,15.13h16.01c1.29,0,2.35,1.05,2.35,2.35v4.37h-20.7
	v-4.37C25.04,16.19,26.09,15.13,27.38,15.13z M25.05,45.58c0-0.02-0.01-0.21-0.01-0.22V40c5.44,0,9.86,4.43,9.86,9.87
	c0,2.71-1.1,5.24-3.03,7.1l-3.8-3.8C26.06,51.16,24.99,48.48,25.05,45.58z M33.23,58.34c2.29-2.22,3.6-5.24,3.6-8.47
	c0-6.5-5.29-11.8-11.79-11.8V23.78h20.7v17.39c0,0.26,0.1,0.5,0.28,0.68L59.1,54.93c1.82,1.82,2.86,4.19,3.01,6.74
	c-1.11-0.38-2.28-0.59-3.45-0.59c-5.82,0-10.55,4.73-10.55,10.55c0,0.1,0.01,0.19,0.01,0.29c-1.33-0.5-2.58-1.28-3.65-2.35
	L33.23,58.34z M59.1,69.57c-2.45,2.45-5.82,3.4-9,2.88c-0.03-0.27-0.07-0.54-0.07-0.82c0-4.75,3.87-8.62,8.62-8.62
	c1.16,0,2.31,0.25,3.37,0.7C61.71,65.92,60.71,67.96,59.1,69.57z"/>
</svg>
