<?xml version="1.0" encoding="utf-8"?>
<!-- Generator: Adobe Illustrator 28.1.0, SVG Export Plug-In . SVG Version: 6.00 Build 0)  -->
<svg version="1.1" id="Layer_1" xmlns="http://www.w3.org/2000/svg" xmlns:xlink="http://www.w3.org/1999/xlink" x="0px" y="0px"
	 viewBox="0 0 110.55 76.54" style="enable-background:new 0 0 110.55 76.54;" xml:space="preserve">
<style type="text/css">
	.st0{display:none;}
	.st1{display:inline;fill:none;}
	.st2{fill:#808080;}
	.st3{font-family:'Calibri';}
	.st4{font-size:16.1448px;}
	.st5{fill:none;}
	.st6{fill:#231F20;}
	.st7{fill:#FFFFFF;}
</style>
<g id="Layer_2_00000073722119373351752270000017113015111246931634_" class="st0">
	<line class="st1" x1="-24.13" y1="74.54" x2="142.13" y2="74.54"/>
	<line class="st1" x1="-24.13" y1="2" x2="142.13" y2="2"/>
</g>
<g>
	<text transform="matrix(1 0 0 1 86.7773 79.0159)" class="st2 st3 st4"> </text>
	<g>
		<path class="st5" d="M62.2,61.85c2.15,0.73,5.58,1.07,6.91-1.24c1.33-2.33,0.34-5.3-1.41-7.09c-2.04-2.11-4.94-2.75-7.79-2.63
			c-2.28,0.09-4.54,0.68-6.58,1.68c0.58,1.37,1.29,2.68,2.11,3.88C57.1,58.84,59.41,60.9,62.2,61.85z"/>
		<path class="st5" d="M49.54,47.17c-0.03-0.3-0.07-0.61-0.08-0.91c-0.17-3.44,1.32-6.72,3.83-9.03c0.19-0.17,0.39-0.26,0.6-0.3
			c-0.06-0.04-0.12-0.09-0.19-0.13c-0.31-0.2-0.62-0.39-0.92-0.58c-0.25-0.16-0.49-0.31-0.74-0.45c-0.83-0.5-1.6-0.96-2.33-1.36
			c-0.7-0.39-1.36-0.74-1.96-1.05c-4.54,6.18-8.29,12.21-10.5,16.17C40.38,49.08,44.71,48.29,49.54,47.17z"/>
		<path class="st5" d="M58.07,30.53c0.31,0.25,0.62,0.49,0.9,0.73c0.54,0.43,1.06,0.89,1.55,1.36c0.99,0.95,1.89,1.99,2.69,3.09
			c1.2,1.66,2.17,3.47,2.89,5.39c0.14,0.37,0.25,0.76,0.37,1.14c3.78-1.37,7.43-2.93,10.68-4.68c-2.95-2.11-4.82-3.69-7.28-7.86
			c-0.26-0.43-0.11-0.99,0.32-1.25c0.44-0.26,0.99-0.11,1.25,0.32c2.47,4.18,4.21,5.51,7.47,7.8c4.68-2.75,8.32-5.93,9.93-9.55
			c1.62-3.65,1.05-7.4-1.74-11.46h0l-0.29-0.42c-2.65-3.86-5.76-5.74-9.48-5.74c-0.2,0-0.4,0.01-0.6,0.02
			c-4.95,0.26-10.4,3.73-15.68,8.63c0.9,2.16,2.26,4.87,2.91,5.51c0.36,0.36,0.36,0.94,0,1.29c-0.18,0.18-0.41,0.27-0.65,0.27
			s-0.47-0.09-0.65-0.27c-0.9-0.9-2.21-3.58-3.03-5.46c-0.45,0.44-0.9,0.89-1.35,1.35c0.99,2.27,2.12,4.36,2.65,4.89
			c0.36,0.36,0.36,0.94,0,1.29c-0.18,0.18-0.41,0.27-0.65,0.27s-0.47-0.09-0.65-0.27c-0.89-0.89-2.1-3.39-2.72-4.75
			c-1.34,1.44-2.65,2.94-3.92,4.47c0.29,0.22,0.58,0.44,0.88,0.66C55.35,28.41,56.81,29.53,58.07,30.53z"/>
		<path class="st5" d="M54.91,38.85c-2.24,2.06-3.34,4.81-3.12,7.79c3.51-0.86,7.22-1.9,10.9-3.1c-1.66-1.44-3.39-2.79-5.16-4.09
			c-0.75-0.55-1.52-1.08-2.29-1.6C55.32,38.18,55.24,38.54,54.91,38.85z"/>
		<path class="st6" d="M94.95,15.78l-4.86-1.47l4.31-2.96c0.42-0.29,0.52-0.85,0.23-1.27c-0.28-0.41-0.85-0.52-1.27-0.23l-4.53,3.12
			l0.35-5.26c0.03-0.5-0.35-0.94-0.85-0.97c-0.49-0.02-0.94,0.35-0.97,0.85l-0.33,4.87c-2.91-3.43-6.39-5.06-10.41-4.85
			c-8.39,0.45-17.52,8.81-25.09,17.97c0.48,0.35,0.97,0.72,1.47,1.09c1.28-1.53,2.59-3.03,3.92-4.47c0.62,1.36,1.83,3.86,2.72,4.75
			c0.18,0.18,0.41,0.27,0.65,0.27s0.47-0.09,0.65-0.27c0.36-0.36,0.36-0.94,0-1.29c-0.53-0.53-1.66-2.62-2.65-4.89
			c0.45-0.46,0.89-0.91,1.35-1.35c0.82,1.87,2.13,4.55,3.03,5.46c0.18,0.18,0.41,0.27,0.65,0.27s0.47-0.09,0.65-0.27
			c0.36-0.36,0.36-0.94,0-1.29c-0.65-0.65-2.02-3.35-2.91-5.51c5.28-4.9,10.73-8.37,15.68-8.63c0.2-0.01,0.4-0.02,0.6-0.02
			c3.72,0,6.82,1.88,9.48,5.74l0.29,0.42h0c2.8,4.07,3.37,7.82,1.74,11.46c-1.61,3.61-5.25,6.79-9.93,9.55
			c-3.26-2.3-5-3.63-7.47-7.8c-0.26-0.43-0.82-0.58-1.25-0.32c-0.43,0.26-0.58,0.82-0.32,1.25c2.47,4.17,4.33,5.76,7.28,7.86
			c-3.25,1.74-6.89,3.3-10.68,4.68c0.18,0.58,0.35,1.17,0.48,1.77c10.47-3.76,20.36-9.07,23.55-16.24
			c1.67-3.75,1.34-7.68-0.96-11.72l4.87,1.48c0.09,0.03,0.18,0.04,0.27,0.04c0.39,0,0.75-0.25,0.87-0.65
			C95.71,16.44,95.43,15.93,94.95,15.78z"/>
		<path class="st6" d="M37.26,49.54c2.22-3.96,5.96-9.98,10.5-16.17c-0.6-0.31-1.15-0.57-1.64-0.8
			c-6.54,8.99-10.97,17.01-11.07,17.19c-0.16,0.3-0.14,0.67,0.05,0.95l0.29,0.42c0.17,0.25,0.45,0.4,0.75,0.4
			c0.04,0,0.08,0,0.12-0.01c0.16-0.02,5.86-0.82,13.54-2.58c-0.12-0.59-0.2-1.18-0.26-1.77C44.71,48.29,40.38,49.08,37.26,49.54z"/>
		<path class="st6" d="M51.79,46.64c0.02,0.26,0.03,0.52,0.07,0.78c0.05,0.33,0.11,0.66,0.18,0.99c3.82-0.93,8.02-2.07,12.2-3.46
			c-0.52-0.47-1.03-0.95-1.56-1.41C59.01,44.74,55.3,45.77,51.79,46.64z"/>
		<path class="st7" d="M35.43,24.03c-0.77-0.38-1.57-0.78-2.37-1.22C33.86,23.24,34.66,23.65,35.43,24.03z"/>
		<path class="st7" d="M13.12,8.78c-0.4-0.63-0.69-1.37-0.83-2.13C12.43,7.41,12.72,8.15,13.12,8.78z"/>
		<path class="st7" d="M66.1,41.1c-0.72-1.92-1.69-3.73-2.89-5.39C64.41,37.37,65.38,39.18,66.1,41.1z"/>
		<path class="st7" d="M66.1,41.1c0.48,1.28,0.85,2.61,1.09,3.97c0.02,0.15,0.01,0.29-0.03,0.43c0.04-0.13,0.05-0.28,0.03-0.43
			c-0.06-0.36-0.16-0.7-0.24-1.05c-0.14-0.6-0.3-1.19-0.48-1.77C66.35,41.86,66.24,41.47,66.1,41.1z"/>
		<path class="st7" d="M16.57,10c0.55-0.02,1.09,0.17,1.51,0.54c0.09,0.07,0.17,0.15,0.26,0.22c-0.09-0.07-0.17-0.15-0.26-0.22
			C17.65,10.17,17.11,9.98,16.57,10z"/>
		<path class="st7" d="M53.89,36.94L53.89,36.94c-0.06-0.04-0.12-0.09-0.19-0.13c-0.31-0.2-0.62-0.39-0.92-0.58
			c0.3,0.19,0.6,0.38,0.92,0.58C53.77,36.85,53.83,36.9,53.89,36.94z"/>
		<path class="st7" d="M21.27,13.51c1.68,1.81,3.48,3.5,5.4,5.06C24.75,17.01,22.94,15.32,21.27,13.51z"/>
		<path class="st7" d="M49.72,34.42c0.72,0.4,1.5,0.85,2.33,1.36C51.22,35.27,50.44,34.82,49.72,34.42z"/>
		<path class="st7" d="M63.21,35.71c-0.8-1.1-1.7-2.14-2.69-3.09C61.51,33.57,62.41,34.61,63.21,35.71z"/>
		<path class="st7" d="M57.53,39.45c-0.75-0.55-1.52-1.08-2.29-1.6l0,0C56.01,38.37,56.78,38.9,57.53,39.45z"/>
		<path class="st7" d="M43.18,31.38c-0.09-0.03-0.16-0.05-0.2-0.06C43.02,31.33,43.09,31.36,43.18,31.38z"/>
		<path class="st7" d="M42.3,29.66c-0.03,0.06-0.04,0.1-0.05,0.11c-0.02,0.03-0.03,0.07-0.04,0.11c0.01-0.04,0.02-0.07,0.04-0.11
			C42.26,29.76,42.28,29.72,42.3,29.66z"/>
		<path class="st7" d="M45.7,21.31c0.08,0.06,4.16,2.97,8.19,6c-0.29-0.22-0.59-0.44-0.88-0.66c-0.5-0.37-0.98-0.73-1.47-1.09
			C48.41,23.25,45.76,21.36,45.7,21.31L19.5,2.58c-0.36-0.26-0.72-0.48-1.06-0.66c0.34,0.18,0.7,0.4,1.06,0.66L45.7,21.31z"/>
		<path class="st7" d="M17.27,1.46c0.38,0.1,0.77,0.24,1.18,0.45C18.04,1.7,17.65,1.57,17.27,1.46z"/>
		<path d="M66.1,41.1c-0.72-1.92-1.69-3.73-2.89-5.39c-0.8-1.1-1.7-2.14-2.69-3.09c-0.5-0.48-1.01-0.93-1.55-1.36
			c-0.29-0.23-0.59-0.48-0.9-0.73c-1.26-1-2.72-2.12-4.18-3.22c-4.03-3.03-8.11-5.94-8.19-6L19.5,2.58
			c-0.36-0.26-0.72-0.48-1.06-0.66c-0.41-0.21-0.8-0.35-1.18-0.45c-0.58-0.15-1.14-0.19-1.68-0.09c-1.22,0.33-2.23,1.17-2.79,2.3
			l-0.09,0.14c-0.51,0.81-0.61,1.83-0.43,2.84c0.14,0.75,0.43,1.49,0.83,2.13c0.13,0.21,0.27,0.41,0.43,0.59
			c0.14,0.17,0.3,0.33,0.48,0.46c0.15,0.1,0.3,0.18,0.47,0.24c0.32,0.12,0.67,0.17,1.02,0.13c0.17-0.02,0.34-0.05,0.51-0.11
			c0.18-0.05,0.36-0.08,0.54-0.09c0.55-0.02,1.09,0.17,1.51,0.54c0.09,0.07,0.17,0.15,0.26,0.22c1.05,0.83,2.04,1.75,2.94,2.75
			c1.68,1.81,3.48,3.5,5.4,5.06c0.64,0.52,1.29,1.02,1.96,1.51c0.64,0.46,1.31,0.9,2,1.33c0.8,0.5,1.62,0.97,2.44,1.41
			c0.81,0.44,1.6,0.84,2.37,1.22c0.44,0.22,0.88,0.42,1.3,0.62c0.63,0.29,1.23,0.56,1.79,0.8c1.67,0.72,2.93,1.19,3.39,1.36
			c0.49,0.41,0.66,0.92,0.69,1.4c0.04,0.64-0.19,1.23-0.29,1.47c-0.03,0.06-0.04,0.1-0.05,0.11c-0.02,0.03-0.03,0.07-0.04,0.11
			c-0.01,0.04-0.03,0.07-0.04,0.11c-0.04,0.14-0.05,0.29-0.03,0.43c0.06,0.42,0.36,0.78,0.79,0.9c0,0,0.02,0.01,0.05,0.02
			c0.04,0.01,0.11,0.03,0.2,0.06c0.43,0.14,1.43,0.5,2.94,1.19c0.49,0.23,1.04,0.49,1.64,0.8c0.6,0.31,1.26,0.65,1.96,1.05
			c0.72,0.4,1.5,0.85,2.33,1.36c0.24,0.15,0.49,0.3,0.74,0.45c0.3,0.19,0.6,0.38,0.92,0.58c0.06,0.04,0.12,0.09,0.19,0.13
			c0.61-0.1,1.2,0.35,1.35,0.91c0.77,0.52,1.54,1.05,2.29,1.6c1.77,1.29,3.5,2.65,5.16,4.09c0.53,0.46,1.04,0.94,1.56,1.41
			c0.37,0.34,0.75,0.67,1.12,1.01c0.23,0.23,0.56,0.35,0.89,0.31c0.44-0.05,0.79-0.37,0.91-0.78c0.04-0.13,0.05-0.28,0.03-0.43
			C66.95,43.7,66.58,42.38,66.1,41.1z M42.06,24.55c-2.05-0.79-7.87-3.15-12.18-6.23c-2.55-1.87-4.91-3.98-7.06-6.31
			c-1.03-1.14-2.15-2.19-3.36-3.14c-0.06-0.04-0.11-0.08-0.17-0.12c-1.05-0.83-2.44-1.12-3.73-0.77c-0.1,0.02-0.23,0.05-0.31,0.06
			c-0.01-0.01-0.03-0.03-0.05-0.05c-0.81-0.97-1.03-2.44-0.67-3.01l0.09-0.15c0.27-0.61,0.76-1.08,1.38-1.33
			c0.83-0.02,1.63,0.28,2.24,0.84l25.31,18.11L42.06,24.55z M54.87,35c-3.22-2.16-6.67-3.97-10.28-5.41
			c0.37-1.33,0.1-2.76-0.73-3.86l1.45-2.03c2.3,1.66,8.61,6.23,12.28,9.23c2.9,2.37,5.13,5.45,6.48,8.94
			C61.17,39.37,58.09,37.08,54.87,35z"/>
		<path d="M51.79,46.64c-0.22-2.98,0.88-5.73,3.12-7.79c0.33-0.31,0.41-0.67,0.33-1l0,0c-0.14-0.56-0.74-1.01-1.35-0.91h0
			c-0.2,0.03-0.41,0.12-0.6,0.3c-2.51,2.31-4,5.59-3.83,9.03c0.01,0.3,0.05,0.6,0.08,0.91c0.06,0.59,0.14,1.18,0.26,1.77
			c0.17,0.87,0.41,1.73,0.69,2.58c-1.06,0.68-2.03,1.46-2.88,2.33c-5.26,5.35-6.21,14.05-2.57,20.54c0.72,1.28,2.69,0.13,1.97-1.15
			c-2.61-4.65-2.51-10.75,0.28-15.31c1.04-1.7,2.44-3.11,4.06-4.22c0.42,0.96,0.9,1.89,1.41,2.76c1.75,2.94,4.23,5.54,7.37,6.99
			c2.71,1.25,6.4,1.87,9.1,0.23c2.61-1.59,3.25-5.15,2.42-7.91c-0.89-2.97-3.31-5.3-6.17-6.39c-4.07-1.55-8.9-0.97-12.93,0.97
			c-0.2-0.65-0.37-1.3-0.5-1.96c-0.07-0.33-0.13-0.66-0.18-0.99C51.82,47.16,51.81,46.9,51.79,46.64z M59.92,50.87
			c2.85-0.11,5.74,0.53,7.79,2.63c1.75,1.8,2.74,4.77,1.41,7.09c-1.33,2.32-4.76,1.97-6.91,1.24c-2.79-0.94-5.1-3-6.76-5.4
			c-0.83-1.2-1.53-2.51-2.11-3.88C55.38,51.56,57.63,50.97,59.92,50.87z"/>
	</g>
</g>
</svg>
