<?xml version="1.0" encoding="utf-8"?>
<!-- Generator: Adobe Illustrator 28.1.0, SVG Export Plug-In . SVG Version: 6.00 Build 0)  -->
<svg version="1.1" id="Layer_1" xmlns="http://www.w3.org/2000/svg" xmlns:xlink="http://www.w3.org/1999/xlink" x="0px" y="0px"
	 viewBox="0 0 110.55 76.54" style="enable-background:new 0 0 110.55 76.54;" xml:space="preserve">
<style type="text/css">
	.st0{display:none;}
	.st1{display:inline;fill:none;}
</style>
<g id="Layer_2_00000073722119373351752270000017113015111246931634_" class="st0">
	<line class="st1" x1="-24.13" y1="74.54" x2="142.13" y2="74.54"/>
	<line class="st1" x1="-24.13" y1="2" x2="142.13" y2="2"/>
</g>
<path d="M89.29,52.96c-0.33-0.48-0.48-1.06-0.65-3.39c-0.28-2.32-0.73-4.61-1.34-6.86c-3.75-10.63-12.65-17.89-21.46-24.44
	c-7.87-5.86-23.24-9.02-25.74-9.36c-3.13-0.17-6.26,0.04-9.34,0.61c-1.16,0.19-2.33,0.22-3.5,0.1l-0.13-0.44
	c-0.11-0.48-0.58-0.79-1.06-0.69c-0.86-0.02-1.72-0.14-2.56-0.36c-1.36-0.28-0.88-2.9-0.88-2.97c0.07-0.37-0.09-0.75-0.4-0.97
	c-0.89-0.51-1.98-0.54-2.9-0.08c-0.17,0.08-0.31,0.21-0.41,0.37c-0.58,1.01-0.7,2.23-0.33,3.33c-0.09,0.11-0.16,0.23-0.2,0.37
	c-0.49,2.03,0.27,4.15,1.93,5.41l1.08,0.78c1.85,1.31,3.46,2.45,4.2,4.93c0.91,2.99,3.17,5.42,4.83,7.19l0.83,0.9
	c0.52,0.59,1.58,1.75,2.9,3.12c2.59,2.81,6.13,6.67,7.42,8.24c1.61,1.98,9.86,11.67,12.69,15c-4.22,0.86-6.94,4.98-6.07,9.2
	c0.86,4.22,4.98,6.94,9.2,6.07c2.8-0.57,5.07-2.64,5.9-5.37c2.36,1.93,7.23,5.8,8.5,6.47c0.47,0.29,0.88,0.68,1.19,1.14
	c0.5,0.84,1.37,1.39,2.35,1.48h0.29c0.54-0.05,1.03-0.33,1.34-0.76c0.76-1.04,0.42-2.73,0.12-4.22l-0.06-0.27
	c-0.11-0.63-0.05-1.28,0.18-1.88c0.13-0.43,0.22-0.87,0.27-1.32c0.07-0.78,0.43-7.24-3.43-16.08c4.77,3.94,11.9,9.08,13.99,9.08
	h0.12c0.81,0,1.55-0.45,1.93-1.17C90.6,54.93,89.71,53.6,89.29,52.96z M23.11,10.03c0.78,0.17,1.57,0.3,2.37,0.38l0.1,0.34
	c0.02,0.04,0.04,0.09,0.06,0.13c-0.53,0.06-1.08,0.04-1.6-0.07c-0.63-0.14-1.19-0.48-1.6-0.97C22.65,9.93,22.88,10,23.11,10.03z
	 M20.46,5.76h0.16c-0.04,0.43-0.04,0.87,0,1.3h-0.26c-0.1-0.44-0.08-0.89,0.08-1.31L20.46,5.76z M55.85,67.22
	c-3.24-0.02-5.85-2.66-5.82-5.9c0.02-3.24,2.66-5.85,5.9-5.82c3.22,0.02,5.82,2.64,5.82,5.86c-0.01,3.24-2.64,5.87-5.88,5.86
	C55.87,67.22,55.86,67.22,55.85,67.22z M75.41,70.81c-0.24,0-0.39-0.08-0.91-0.74c-0.47-0.67-1.08-1.23-1.79-1.64
	c-1.05-0.57-5.86-4.38-9.07-6.97c0,0,0-0.07,0-0.1c-0.02-4.01-3.07-7.35-7.06-7.73c-0.17-0.21-11.71-13.75-13.6-16.07
	c-1.32-1.62-4.89-5.5-7.5-8.33c-1.26-1.36-2.32-2.51-2.83-3.1l-0.86-0.97c-1.6-1.72-3.59-3.86-4.38-6.43
	c-0.97-3.1-2.98-4.54-4.94-5.93l-1.04-0.75c-0.93-0.72-1.4-1.88-1.23-3.04h0.08c0,1.25,0.53,2.79,3.13,3.66
	c0.42,0.12,0.85,0.19,1.28,0.19c-0.1,0.52,0.24,1.03,0.77,1.13c0,0,0,0,0,0l0.8,0.14c0.59,1.32,2.57,4.77,8.35,8.89
	c8.67,6.37,16.79,13.45,24.3,21.15l0,0l0,0c2.77,2.88,5.38,5.9,7.82,9.06l0,0c0.03,0.04,0.07,0.09,0.11,0.13
	c3.84,5.04,6.89,10.13,8.41,15.07C75.5,69.2,75.55,70.02,75.41,70.81z M67.63,51.22c-2.01-2.6-4.25-5.13-6.53-7.56
	c1.09-0.58,3.13-1.13,5.27,1.11c1.23,1.1,1.94,2.68,1.93,4.34C68.24,49.86,68.01,50.58,67.63,51.22z M59.35,41.84
	c-2.41-2.47-4.83-4.83-7.23-6.97c1.88-0.95,4.13-0.74,5.8,0.54C60.34,37.4,59.89,40.3,59.35,41.84z M50.39,33.31
	c-2.5-2.23-4.83-4.22-6.94-5.91c1.44-1.47,3.74-1.63,5.37-0.38C51.66,28.95,51.27,31.17,50.39,33.31L50.39,33.31z M41.21,25.59
	c-3.26-2.58-5.38-4.12-5.47-4.17c-0.54-0.39-1.03-0.76-1.51-1.13c0.8-0.68,1.87-0.95,2.9-0.72c1.61,0.32,2.99,1.34,3.79,2.77
	C41.43,23.34,41.54,24.51,41.21,25.59L41.21,25.59z M75.52,63.73c-1.82-3.85-4.05-7.5-6.65-10.88c0.7-0.96,1.14-2.09,1.28-3.27
	c0.19-2.3-0.69-4.56-2.39-6.13c-1.52-1.85-3.99-2.63-6.3-2c0.22-0.95,0.28-1.93,0.19-2.9c-0.17-1.83-1.07-3.52-2.5-4.67
	c-1.82-1.46-4.24-1.94-6.48-1.28c0.57-2.1,0.59-4.92-2.76-7.2c-1.94-1.47-4.59-1.59-6.66-0.29c0.18-1.25-0.02-2.53-0.58-3.67
	c-1.06-1.97-2.94-3.36-5.13-3.8c-1.72-0.37-3.52,0.15-4.77,1.39c-1.54-1.3-2.89-2.82-4.01-4.49c27.26,5.33,41.97,31.34,42.12,31.54
	C75.5,55,75.59,62.02,75.52,63.73z M87.92,55.36c-2.02-0.09-15.14-10.05-16.67-12.31l0,0c-4.4-6.76-19.39-26.72-43.77-30.66l0,0
	c0.17-0.21,0.24-0.47,0.2-0.73c1.14,0.08,2.28,0.02,3.41-0.16c2.89-0.54,5.83-0.74,8.77-0.6c2.39,0.26,17.26,3.32,24.79,8.93
	c8.57,6.38,17.23,13.45,20.78,23.46c0.56,2.11,0.98,4.26,1.26,6.42c0.16,2.38,0.34,3.38,0.97,4.34c0.27,0.38,0.49,0.78,0.66,1.21
	C88.19,55.32,88.06,55.35,87.92,55.36z"/>
</svg>
