<?xml version="1.0" encoding="utf-8"?>
<!-- Generator: Adobe Illustrator 28.1.0, SVG Export Plug-In . SVG Version: 6.00 Build 0)  -->
<svg version="1.1" id="Layer_1" xmlns="http://www.w3.org/2000/svg" xmlns:xlink="http://www.w3.org/1999/xlink" x="0px" y="0px"
	 viewBox="0 0 110.55 76.54" style="enable-background:new 0 0 110.55 76.54;" xml:space="preserve">
<style type="text/css">
	.st0{display:none;}
	.st1{display:inline;fill:none;}
</style>
<g id="Layer_2_00000073722119373351752270000017113015111246931634_" class="st0">
	<line class="st1" x1="-24.13" y1="74.54" x2="142.13" y2="74.54"/>
	<line class="st1" x1="-24.13" y1="2" x2="142.13" y2="2"/>
</g>
<g>
	<path d="M57.65,14.51c0.12,0.84,0.22,1.69,0.38,2.52c0.03,0.15,0.32,0.31,0.52,0.35c5.63,1.11,8.71,4.69,9.82,10.15
		c0.47,2.34,0.76,4.71,1.3,7.04c0.93,4.02,2.66,7.73,4.57,11.38c2.53,4.85,3.38,10.02,2.32,15.41c-1.12,5.69-5.81,10.18-11.44,11.04
		c-2.38,0.36-4.72,0.06-6.95-0.9c-0.79-0.34-1.55-0.34-2.34-0.01c-7.17,2.98-14.75-0.68-17.66-7.73c-1.41-3.42-1.36-6.93-0.83-10.5
		c0.46-3.13,1.64-5.98,3.13-8.75c2.8-5.2,4.49-10.76,5.09-16.65c0.52-5.12,4.53-9.5,9.54-10.4c0.43-0.08,0.67-0.2,0.59-0.69
		c-0.38-2.15-0.82-4.29-2-6.18c-0.62-1-1.43-1.77-2.58-2.14c-0.76-0.25-1.06-0.84-0.85-1.51c0.19-0.59,0.81-0.9,1.54-0.66
		c0.59,0.19,1.16,0.46,1.68,0.78c0.38,0.24,0.6,0.19,0.95-0.04c2.29-1.51,4.72-2.72,7.42-3.3c1.99-0.43,3.81,0.11,5.47,1.23
		c0.34,0.23,0.69,0.47,1,0.74c1.27,1.14,2.74,1.4,4.36,1.05c0.25-0.05,0.52-0.09,0.77-0.08c1,0.03,1.66,1.18,0.98,1.89
		c-1.98,2.08-3.72,4.45-6.32,5.85c-3.18,1.71-6.45,1.77-9.75,0.31c-0.17-0.07-0.33-0.16-0.49-0.23
		C57.83,14.46,57.77,14.49,57.65,14.51z M74.66,56.75c-0.15-3.77-1.07-7.3-2.92-10.63c-2.75-4.97-4.52-10.3-5.35-15.93
		c-0.26-1.77-0.43-3.54-1.2-5.21c-2.82-6.08-10.48-7.27-14.92-2.29c-1.72,1.93-2.32,4.28-2.62,6.78C47,34.82,45.47,39.95,42.93,44.7
		c-1.95,3.65-3.41,7.37-3.61,11.55c-0.17,3.5,0.52,6.7,2.66,9.54c3.03,4.01,8.36,5.54,12.81,3.63c1.47-0.63,2.89-0.6,4.38-0.02
		c3.72,1.46,7.28,1.07,10.47-1.33C73.39,65.26,74.83,61.34,74.66,56.75z M70.52,9.18c-1.68-0.17-2.94-1.13-4.19-2.1
		c-1.2-0.93-2.61-1.6-4.06-1.1c-2.14,0.73-4.17,1.78-6.25,2.71c-0.5,0.23-0.53,0.64-0.17,1c0.74,0.75,1.46,1.56,2.31,2.18
		C61.78,14.52,67.1,13.95,70.52,9.18z"/>
	<path d="M44.13,57.83c0.06-2.77,0.39-5.07,1.29-7.26c0.32-0.77,0.88-1.07,1.51-0.83c0.68,0.25,0.93,0.86,0.61,1.67
		c-0.82,2.09-1.16,4.27-1.09,6.49c0.07,2.29,0.97,4.13,3.24,5.05c0.81,0.33,1.12,0.88,0.89,1.55c-0.23,0.65-0.88,0.91-1.69,0.62
		c-1.72-0.61-2.95-1.8-3.8-3.4C44.38,60.37,44.07,58.93,44.13,57.83z"/>
</g>
</svg>
