<?xml version="1.0" encoding="utf-8"?>
<!-- Generator: Adobe Illustrator 28.1.0, SVG Export Plug-In . SVG Version: 6.00 Build 0)  -->
<svg version="1.1" id="Layer_1" xmlns="http://www.w3.org/2000/svg" xmlns:xlink="http://www.w3.org/1999/xlink" x="0px" y="0px"
	 viewBox="0 0 110.55 76.54" style="enable-background:new 0 0 110.55 76.54;" xml:space="preserve">
<style type="text/css">
	.st0{display:none;}
	.st1{display:inline;fill:none;}
	.st2{fill:none;}
	.st3{fill:#FFFFFF;}
	.st4{fill:#808080;}
</style>
<g id="Layer_2_00000073722119373351752270000017113015111246931634_" class="st0">
	<line class="st1" x1="-24.13" y1="74.54" x2="142.13" y2="74.54"/>
	<line class="st1" x1="-24.13" y1="2" x2="142.13" y2="2"/>
</g>
<g>
	<path class="st2" d="M-5240.72,925.05c-1.72,0-3.37,0.3-4.92,0.82l3.29,12.07l2.3,1.28c0.66,0.37,0.9,1.2,0.53,1.86
		c-0.25,0.45-0.71,0.7-1.19,0.7c-0.23,0-0.46-0.06-0.67-0.17l-2.8-1.56c-0.02-0.01-0.04-0.04-0.06-0.05
		c-0.1-0.06-0.19-0.14-0.27-0.23c-0.03-0.04-0.07-0.07-0.1-0.11c-0.08-0.11-0.14-0.24-0.19-0.38c0-0.02-0.02-0.04-0.03-0.06
		c0,0,0,0,0-0.01l-3.34-12.23c-4.72,2.63-7.92,7.66-7.92,13.44c0,8.48,6.9,15.37,15.37,15.37s15.37-6.9,15.37-15.37
		C-5225.34,931.95-5232.24,925.05-5240.72,925.05z"/>
	<path d="M-5339.6,903.64c-6.21,0-11.27,5.06-11.27,11.27v6.37c0,1.15,0.92,2.07,2.07,2.07c1.15,0,2.07-0.92,2.07-2.07v-6.37
		c0-1.53,0.54-2.99,1.3-4.14v33.36c0,1.38,1.15,2.53,2.53,2.53s2.53-1.15,2.53-2.53v-19.25h1.46v19.25c0,1.38,1.15,2.53,2.53,2.53
		s2.53-1.15,2.53-2.53v-33.36c0.84,1.15,1.3,2.61,1.3,4.14v6.37c0,1.15,0.92,2.07,2.07,2.07c1.15,0,2.07-0.92,2.07-2.07v-6.37
		C-5328.32,908.71-5333.39,903.64-5339.6,903.64z"/>
	<path d="M-5339.6,902.19c3.13,0,5.67-2.54,5.67-5.68c0-3.13-2.54-5.67-5.67-5.67c-3.13,0-5.68,2.54-5.68,5.67
		C-5345.27,899.65-5342.73,902.19-5339.6,902.19z"/>
	<path d="M-5307.39,914.92v5.83c1.33-0.33,2.72-0.53,4.14-0.58v-5.25c0.08-6.21-4.98-11.27-11.2-11.27
		c-6.21,0-11.27,5.06-11.27,11.27v6.37c0,1.15,0.92,2.07,2.07,2.07s2.07-0.92,2.07-2.07v-6.37c0-1.53,0.54-2.99,1.3-4.14v19.92
		c2.48-4.51,6.61-7.97,11.58-9.57v-10.34C-5307.85,911.93-5307.39,913.38-5307.39,914.92z"/>
	<path d="M-5314.44,902.19c3.13,0,5.67-2.54,5.67-5.68c0-3.13-2.54-5.67-5.67-5.67s-5.68,2.54-5.68,5.67
		C-5320.12,899.65-5317.58,902.19-5314.44,902.19z"/>
	<path class="st3" d="M-5320.27,944.14c0,0.49,0.15,0.96,0.4,1.35c-0.16-0.55-0.3-1.11-0.4-1.68V944.14z"/>
	<polygon class="st3" points="-5279.08,928.41 -5278.35,930.11 -5278.35,930.11 -5279.08,928.4 	"/>
	<path d="M-5313.75,933.59v10.55c0,1.38,1.15,2.53,2.53,2.53s2.53-1.15,2.53-2.53v-15.35
		C-5310.78,929.9-5312.52,931.57-5313.75,933.59z"/>
	<path class="st3" d="M-5303.56,941.23c-0.04-0.06-0.08-0.11-0.12-0.17c-0.03-0.06-0.06-0.13-0.08-0.19l-0.25,0.37H-5303.56z"/>
	<path d="M-5240.72,922.32c-1.97,0-3.86,0.33-5.64,0.91l-5.1-18.71l10.75-0.01c1.88,0,3.42,1.53,3.42,3.42
		c0,1.88-1.53,3.42-3.42,3.42c-0.76,0-1.37,0.61-1.37,1.37s0.61,1.37,1.37,1.37c3.39,0,6.15-2.76,6.15-6.15
		c0-3.39-2.76-6.15-6.15-6.15l-12.54,0.01c-0.06,0-0.12,0.03-0.18,0.04c-0.06,0.01-0.12,0-0.18,0.01c-0.03,0.01-0.05,0.03-0.08,0.04
		c-0.09,0.03-0.17,0.08-0.25,0.13c-0.07,0.04-0.14,0.08-0.21,0.14c-0.06,0.06-0.11,0.13-0.17,0.2c-0.05,0.07-0.11,0.14-0.14,0.22
		c-0.04,0.08-0.06,0.15-0.08,0.24c-0.03,0.09-0.05,0.18-0.06,0.28c0,0.03-0.02,0.06-0.02,0.09c0,0.06,0.03,0.12,0.04,0.18
		c0.01,0.06-0.01,0.12,0.01,0.18l2.93,10.74h-6.06c-0.17,0.95-0.43,1.86-0.76,2.73h5.31l-14.11,14.11c-0.21,0.88-0.3,1.77-0.24,2.72
		l0.05,1.34l16.9-16.9l1.64,6.04c-5.88,3-9.92,9.09-9.92,16.13c0,9.98,8.12,18.11,18.11,18.11c9.99,0,18.11-8.12,18.11-18.11
		C-5222.61,930.44-5230.73,922.32-5240.72,922.32z M-5240.72,955.8c-8.48,0-15.37-6.9-15.37-15.37c0-5.77,3.2-10.81,7.92-13.44
		l3.34,12.23c0,0,0,0,0,0.01c0.01,0.02,0.02,0.04,0.03,0.06c0.05,0.14,0.11,0.26,0.19,0.38c0.03,0.04,0.07,0.07,0.1,0.11
		c0.08,0.09,0.17,0.17,0.27,0.23c0.02,0.02,0.03,0.04,0.06,0.05l2.8,1.56c0.21,0.12,0.44,0.17,0.67,0.17c0.48,0,0.94-0.25,1.19-0.7
		c0.37-0.66,0.13-1.49-0.53-1.86l-2.3-1.28l-3.29-12.07c1.55-0.52,3.2-0.82,4.92-0.82c8.48,0,15.37,6.9,15.37,15.37
		C-5225.34,948.9-5232.24,955.8-5240.72,955.8z"/>
	<path d="M-5278.84,927.54l-4.55-10.55h11.13c0.75-1.05,1.25-1.93,1.56-2.73h-13.87l-3.56-8.26c1-0.09,1.98-0.18,2.84-0.26
		l-1.14-2.99l0.41-0.3l-9.11-0.82c-3.6-0.19-3.59,5.18,0,4.99c0,0,1.85-0.17,4.14-0.37l3.87,8.97l-6.4,9.48
		c-2.65-1.51-5.7-2.39-8.96-2.39c-0.36,0-0.71,0.01-1.07,0.03c-1.08,0.06-2.13,0.22-3.15,0.47c-0.68,0.16-1.35,0.36-1.99,0.6
		c-1.85,0.68-3.55,1.65-5.06,2.85c-0.51,0.41-1,0.84-1.46,1.29c-2.56,2.53-4.37,5.82-5.06,9.49c-0.21,1.09-0.32,2.22-0.32,3.37
		s0.11,2.28,0.32,3.37c0.11,0.57,0.24,1.13,0.4,1.68c2.19,7.53,9.15,13.05,17.38,13.05c9.52,0,17.33-7.39,18.04-16.74h2.55
		c0.22,0.85,0.59,1.64,1.08,2.35c0.23-1.26,0.74-2.39,1.47-3.33c-0.05-0.27-0.09-0.56-0.09-0.85c0-0.48,0.07-0.95,0.21-1.39
		l-0.08-1.09l-0.03-0.42l-0.21-2.68c-0.85,0.72-1.52,1.63-1.96,2.67c-0.27,0.63-0.46,1.3-0.55,2.01h-2.38
		c-0.39-5.18-2.96-9.76-6.81-12.82l5.42-8.03l4.03,9.35l2.16,5.01c0-1.39,0.2-2.79,0.56-4.18c0,0,0,0,0,0
		C-5279.01,928.12-5278.93,927.83-5278.84,927.54z M-5302.48,955.8c-6.36,0-11.83-3.88-14.16-9.4c-0.78-1.84-1.21-3.86-1.21-5.98
		c0-3.19,0.98-6.16,2.65-8.61c0.44-0.64,0.93-1.24,1.46-1.81c1.42-1.53,3.13-2.77,5.06-3.63c1.9-0.84,4-1.32,6.21-1.32
		c2.69,0,5.23,0.7,7.43,1.93l-8.56,12.68c-0.02,0.04-0.03,0.08-0.05,0.12c-0.04,0.08-0.08,0.17-0.11,0.26
		c-0.03,0.09-0.04,0.17-0.05,0.27c0,0.04-0.03,0.08-0.03,0.13c0,0.04,0.02,0.08,0.03,0.13c0.01,0.09,0.03,0.18,0.05,0.27
		c0,0.02,0.01,0.03,0.02,0.04c0.02,0.07,0.04,0.13,0.08,0.19c0.03,0.06,0.07,0.12,0.12,0.17c0.01,0.01,0.01,0.02,0.02,0.04
		c0.06,0.08,0.12,0.14,0.2,0.2c0.03,0.03,0.05,0.07,0.09,0.09c0.05,0.03,0.1,0.05,0.15,0.07c0.05,0.02,0.09,0.05,0.14,0.06
		c0.15,0.06,0.31,0.1,0.47,0.1h15.3C-5287.88,949.63-5294.47,955.8-5302.48,955.8z M-5299.91,939.06l7.12-10.55
		c3.13,2.55,5.23,6.3,5.61,10.55H-5299.91z"/>
	<path d="M-5262.02,917c0.42-0.88,0.76-1.78,0.98-2.73c0.21-0.89,0.33-1.82,0.33-2.81c0-5.34-3.65-10.33-11.74-10.33
		c-3.24,0-6.7,0.85-9.07,2.19c-0.35,0.2-0.68,0.41-0.98,0.62l0.54,1.42l1.14,3.01c1.76-1.34,4.57-2.18,7.1-2.18
		c4.43,0.07,6.68,2.46,6.68,6.05c0,0.69-0.1,1.37-0.26,2.03c-0.22,0.91-0.59,1.81-1.11,2.73c-0.83,1.5-2.02,3.07-3.55,4.86
		c-1.52,1.83-2.62,3.64-3.35,5.42c-0.37,0.91-0.64,1.81-0.82,2.7c-0.19,0.96-0.28,1.91-0.27,2.83c0.01,0.4,0.03,0.81,0.07,1.2
		l0.12,1.52l0.02,0.31h3.5h1.98l-0.07-1.83c0-0.05,0-0.1-0.01-0.15c-0.06-1.34,0.06-2.61,0.41-3.87c0.25-0.9,0.61-1.8,1.1-2.71
		c0.62-1.16,1.45-2.35,2.5-3.6C-5264.82,921.39-5263.12,919.28-5262.02,917z"/>
	<path d="M-5270.77,942.26c-0.71-0.63-1.63-1-2.73-1c-0.09,0-0.17,0.02-0.25,0.02c-1.37,0.07-2.51,0.72-3.2,1.76
		c-0.16,0.24-0.3,0.49-0.41,0.77c-0.23,0.56-0.35,1.19-0.35,1.87c0,2.46,1.69,4.36,4.15,4.36c0.48,0,0.93-0.07,1.34-0.19
		c1.8-0.54,2.87-2.17,2.87-4.17c0-0.25-0.03-0.49-0.06-0.72C-5269.56,943.84-5270.04,942.91-5270.77,942.26z"/>
</g>
<path class="st4" d="M818.86,1116.07v-0.51c0-1.08-0.87-1.95-1.95-1.95c-1.08,0-1.95,0.87-1.95,1.95v0.51c0,0.79,0,1.52-0.14,2.31
	h-22.84c-0.14-0.79-0.14-1.52-0.14-2.31v-0.51c0-1.08-0.87-1.95-1.95-1.95s-1.95,0.87-1.95,1.95v0.51c0,8.02,4.19,15.18,10.84,19.3
	c-7.23,3.47-10.84,7.66-10.84,12.57c0,4.91,3.69,9.11,10.84,12.57c-6.72,4.12-10.84,11.35-10.84,19.3v0.51
	c0,1.08,0.87,1.95,1.95,1.95s1.95-0.87,1.95-1.95v-0.51c0-0.79,0.07-1.52,0.14-2.31h22.91c0.07,0.79,0.07,1.52,0.07,2.31v0.51
	c0,1.08,0.87,1.95,1.95,1.95c1.08,0,1.95-0.87,1.95-1.95v-0.51c0-8.02-4.19-15.18-10.84-19.3c7.23-3.47,10.84-7.66,10.84-12.57
	c0-4.91-3.69-9.11-10.84-12.57C814.75,1131.24,818.86,1124.09,818.86,1116.07z M814.24,1121.34c-0.43,1.37-0.94,2.67-1.66,3.83
	h-18.36c-0.65-1.23-1.23-2.53-1.66-3.83H814.24z M814.96,1147.94c0,0.65-0.14,1.3-0.36,1.95h-22.4c-0.29-0.65-0.36-1.3-0.36-1.95
	s0.14-1.3,0.36-1.95h22.47C814.89,1146.64,814.96,1147.29,814.96,1147.94z M812.58,1152.85c-2.31,2.24-5.85,4.05-9.18,5.42
	c-3.32-1.3-6.87-3.11-9.18-5.42H812.58z M794.22,1143.02c2.31-2.24,5.85-4.05,9.18-5.42c3.32,1.3,6.87,3.11,9.18,5.42H794.22z
	 M792.56,1174.53c0.43-1.37,0.94-2.67,1.66-3.83h18.36c0.65,1.23,1.23,2.53,1.66,3.83H792.56z M810.48,1167.67h-14.16
	c1.88-2.17,4.26-3.97,7.08-5.13C806.22,1163.69,808.6,1165.5,810.48,1167.67z M803.4,1133.41c-2.82-1.23-5.2-2.96-7.08-5.13h14.16
	C808.6,1130.38,806.22,1132.18,803.4,1133.41z"/>
<g>
	<path class="st2" d="M56.25,34.69c0.01,0.02,0.01,0.05,0.01,0.06c0.01,0.04,0.02,0.08,0.03,0.11c0.01,0.02,0.01,0.04,0.02,0.05
		c0.01,0.03,0.02,0.05,0.04,0.08c0.02,0.03,0.04,0.07,0.06,0.1c0,0.01,0.01,0.01,0.01,0.02c0.05,0.07,0.11,0.13,0.18,0.18
		c0.01,0.01,0.06,0.05,0.08,0.06c0.02,0.01,0.08,0.06,0.08,0.06c0.16,0.11,0.33,0.22,0.49,0.33c0.28,0.19,0.56,0.37,0.84,0.56
		c0.17,0.05,0.35,0.16,0.53,0.31c1.21,1.03,2.41,2.08,3.57,3.17c0.57,0.53,1.03,1.17,1.55,1.76c0.93-0.54,1.73-0.92,2.45-0.15
		c0.61,0.66,0.39,1.37-0.06,1.98c1.3,1.34,2.56,2.67,3.87,3.96c0.19,0.19,0.57,0.27,0.86,0.26c2.87-0.02,5.41,0.84,7.56,2.78
		c0.66,0.59,1.4,1.09,2.01,1.72c0.04,0.04,0.07,0.12,0.08,0.22c0.36,0.37,0.74,0.74,1.12,1.09c0.07-0.02,0.14-0.03,0.2-0.03
		c0.62,0.03,1.21,0.75,1.92,1.25c-0.44-1.2-0.85-2.29-1.25-3.38c-0.01-0.01-0.02-0.02-0.04-0.02l0.02-0.02
		c0.01,0.01,0.01,0.03,0.02,0.04c0.09,0.05,0.17,0.1,0.24,0.15c-0.07-0.14-0.15-0.27-0.24-0.4c0,0-0.01-0.01-0.01-0.01
		c-0.01,0.07-0.02,0.13-0.03,0.19l-1.54-2.63c-0.03,0.08-0.06,0.16-0.09,0.24c-0.59-0.25-1.34-0.34-1.72-0.77
		c-0.57-0.64-0.28-1.36,0.37-1.94c0.13-0.12,0.13-0.52,0.04-0.72c-1.76-3.84-3.43-7.73-5.36-11.49c-1.33-2.6-3.66-4.05-6.54-4.59
		c-0.06-0.07-0.14-0.13-0.24-0.14c-0.02,0-0.04,0-0.06,0c-0.16-0.01-0.33-0.02-0.49-0.02c0,0-0.01,0-0.01,0
		c-0.49-0.01-0.98,0.01-1.47,0.08c-0.12,0.02-0.24,0.04-0.36,0.06c-0.03,0.01-0.06,0.01-0.09,0.02c-0.11,0.02-0.22,0.04-0.32,0.07
		c-0.38,0.1-0.74,0.23-1.06,0.45c-0.35,0.09-0.7,0.19-1,0.37c-0.01,0-0.02,0-0.03,0c-0.1,0.05-0.2,0.11-0.3,0.16
		c-0.4,0.26-0.8,0.52-1.19,0.79c-0.02,0.02-0.04,0.04-0.06,0.07c-0.01,0-0.02,0-0.03,0c-0.79,0.53-1.58,1.07-2.36,1.62
		c-0.67,0.47-1.36,0.92-2,1.42c-0.1,0.07-0.18,0.16-0.25,0.25c-0.01,0.03-0.02,0.05-0.03,0.08c-0.01,0.02-0.01,0.04-0.02,0.06
		c0,0,0,0.01,0,0.01C56.24,34.61,56.25,34.66,56.25,34.69z M73.36,35.27c0.64,0.13,1.06,0.6,1.03,1.43
		c-0.03,0.72-0.72,1.35-1.41,1.25c-0.78-0.12-1.29-0.58-1.3-1.41C71.68,35.79,72.42,35.2,73.36,35.27z M73.48,41.2
		c1.36,0.01,2.42,0.74,3.35,1.59c0.29,0.26,0.35,1.17,0.11,1.5c-0.27,0.38-0.98,0.45-1.5,0.63c-0.08,0.03-0.21-0.05-0.29-0.11
		c-1.15-0.94-2.17-1.05-3.28,0.17c-0.24,0.27-1.2,0.13-1.67-0.12c-0.56-0.31-0.67-1.03-0.24-1.58
		C70.85,42.14,71.91,41.25,73.48,41.2z M68.78,31.66c0.85,0.03,1.22,0.56,1.37,1.33c-0.1,0.79-0.43,1.35-1.29,1.41
		c-0.76,0.06-1.46-0.58-1.48-1.32C67.36,32.36,68.06,31.63,68.78,31.66z M63.19,33.97c0.31-0.12,0.83-0.25,0.98-0.1
		c1.13,1.16,2.94,0.95,4.06,2.03c0.39,0.38,0.75,1.06,0.7,1.56c-0.05,0.43-0.71,0.79-1.09,1.17c-0.62-0.27-1.04-0.38-1.37-0.62
		c-0.84-0.61-1.58-0.54-2.41,0.06c-0.96,0.7-1.85,0.44-2.26-0.52c-0.03-0.06-0.08-0.12-0.09-0.19
		C61.56,36.88,62.72,34.15,63.19,33.97z"/>
	<path class="st2" d="M30.79,15.8c-1.13-2.84-2.25-5.69-3.43-8.51c-0.16-0.39-0.63-0.86-1-0.91c-1.5-0.18-2.49,0.98-2.17,2.41
		c0.07,0.31,0.13,0.62,0.23,0.91c1.09,3.18,2.19,6.35,3.31,9.6c1.35-0.52,2.51-0.98,3.79-1.48C31.24,17.04,31.03,16.41,30.79,15.8z"
		/>
	<path class="st2" d="M32.53,20.51c-0.13,0.02-0.27,0.01-0.4,0.06c-1.12,0.41-2.23,0.84-3.4,1.28c0.05,0.35,0.05,0.6,0.12,0.83
		c0.61,2.17,0.77,2.25,2.7,1.49C34.02,23.2,34.03,23.19,32.53,20.51z"/>
	<path class="st2" d="M36.9,50.91c0.13,0.1,0.25,0.21,0.35,0.31c0,0,0,0,0,0c0.18,0.13,0.36,0.24,0.55,0.35
		c0.19,0.11,0.38,0.21,0.58,0.31c0.1,0.05,0.2,0.09,0.3,0.14c0.01,0,0.01,0,0.02,0.01c0.02,0.01,0.03,0.01,0.05,0.02
		c0.05,0.02,0.1,0.04,0.15,0.06c0.13,0.05,0.23,0.13,0.3,0.23c0,0,0,0,0,0c0.08-0.03,0.17-0.06,0.25-0.1
		c0.14-0.07,0.29-0.15,0.43-0.24c1.76-1.09,3.57-2.1,5.35-3.17c0.27-0.16,0.59-0.45,0.63-0.72c0.2-1.5,0.4-3,0.43-4.51
		c0.04-1.58,0.01-3.19-0.22-4.75c-0.31-2.15-0.82-4.27-1.3-6.38c-0.06-0.25-0.5-0.57-0.79-0.59c-1.29-0.08-2.39-0.54-3.38-1.35
		c-0.22-0.18-0.6-0.41-0.8-0.34c-1.25,0.42-2.47,0.93-3.71,1.4c0.33,0.87,0.61,1.59,0.87,2.32c0.32,0.9,0.05,1.68-0.68,1.95
		c-0.76,0.29-1.5-0.07-1.87-0.94c-0.31-0.74-0.58-1.49-0.9-2.33c-1.29,0.49-2.48,0.92-3.63,1.42c-0.2,0.09-0.27,0.49-0.39,0.76
		c-0.46,1.01-0.74,2.16-1.43,2.98c-0.59,0.7-0.52,1.16-0.2,1.82C30.04,44.01,33.11,47.75,36.9,50.91z"/>
	<path class="st2" d="M81.56,59.08c-0.75-0.54-0.74-1.24,0.01-2.45c-0.82-0.84-1.63-1.66-2.26-2.31c-2.48-1.12-3.98-3.91-6.97-3.72
		c-0.09,0.89-0.51,1.71-1.38,1.56c-0.64-0.11-1.18-0.84-2.02-1.5c-0.74,0.25-1.89,0.64-3.16,1.06c0.72,0.77,1.1,1.47,0.43,2.26
		c-0.55,0.65-1.28,0.73-1.87,0.19c-1.08-0.98-1.87-0.59-2.64,0.38c0.54,0.65,0.92,1.39,0.23,2.15c-0.8,0.88-1.63,0.42-2.39-0.19
		c-1.47,1.62-2.89,3.17-4.44,4.88c1.41,0.09,2.56,0.24,3.71,0.22c1.53-0.03,2.9,0.37,4.26,1.07c0.72,0.37,1.61,0.58,2.42,0.55
		c2.47-0.08,4.93-0.31,7.16-0.46c0.74-0.5,1.29-1.17,1.82-1.15c0.58,0.02,1.15,0.66,1.73,1.03c-0.02,0.12-0.05,0.24-0.07,0.36
		c0.68-0.26,1.41-0.43,2.03-0.8c2.19-1.31,4.41-1.33,6.65-0.21c1.26,0.63,2.55,0.66,4.07,0.4c-1.75-1.43-3.38-2.75-5.01-4.08
		C83,59.3,82.21,59.55,81.56,59.08z M70.63,60.8c-0.32,0.28-0.94,0.23-1.44,0.29c-0.11,0.01-0.27-0.12-0.34-0.23
		c-0.79-1.13-1.63-0.96-2.67-0.29c-0.35,0.23-1.12,0.11-1.52-0.13c-0.3-0.19-0.36-0.83-0.45-1.28c-0.03-0.16,0.1-0.46,0.25-0.55
		c1-0.61,2.02-1.18,3.03-1.77c1.23,0.26,3.23,1.54,3.54,2.61C71.15,59.84,70.94,60.53,70.63,60.8z M77.84,57.58
		c-0.25,0.6-0.92,0.86-1.62,0.55c-0.45-0.2-0.87-0.46-1.33-0.72c-0.4,0.25-0.72,0.46-1.06,0.65c-0.72,0.39-1.3,0.16-1.74-0.45
		c-0.44-0.6-0.3-1.21,0.19-1.72c1.55-1.6,3.95-1.61,5.41,0.07C77.98,56.3,78.03,57.12,77.84,57.58z"/>
	<path class="st2" d="M79.85,54.19c-0.06-0.08-0.11-0.17-0.17-0.25C79.72,54.02,79.78,54.11,79.85,54.19z"/>
	<path class="st2" d="M90.16,65.09c-2.38,0.38-4.7,0.41-6.94-0.74c-1.05-0.54-2.21-0.59-3.24,0.05c-1.8,1.11-3.76,1.3-5.81,1.28
		c-2.15-0.02-4.31,0.17-6.46,0.18c-0.57,0-1.14-0.33-1.77-0.53c-0.06,0.05-0.23,0.31-0.47,0.43c-1.3,0.64-2.43-0.02-3.58-0.51
		c-0.67-0.29-1.34-0.72-2.04-0.79c-1.61-0.18-3.25-0.27-4.87-0.24c-5.43,0.1-10.87,0.35-16.3,0.36c-1.89,0-3.61,0.76-5.4,0.84
		c-3.06,0.13-6.14-0.12-9.22-0.2c-0.27-0.01-0.55-0.07-0.84-0.12c-0.01,0.01-0.02,0.01-0.03,0.02c0,0,0,0-0.01,0c0,0,0,0-0.01,0.01
		c-0.03,0.03-0.05,0.05-0.08,0.07c-0.06,0.06-0.12,0.12-0.17,0.18c-0.02,0.03-0.05,0.06-0.07,0.09c0,0.01-0.01,0.01-0.01,0.01
		c0,0,0,0-0.01,0.01c-0.04,0.06-0.09,0.12-0.13,0.19c-0.18,0.26-0.35,0.51-0.53,0.77c-0.04,0.06-0.09,0.12-0.13,0.18
		c0.02,0.08,0.04,0.16,0.08,0.23c0.11,0.25,0.32,0.42,0.4,0.66c0.27,0.18,0.55,0.34,0.84,0.48c12.4-0.01,24.79-0.01,37.19,0
		c0.42,0,0.84,0.11,1.4,0.22c0.1-0.01,0.2-0.01,0.3-0.02c0.66-0.04,1.34-0.15,2-0.09c0.06,0.01,0.13,0.02,0.18,0.04
		c0.33-0.07,0.67-0.15,1-0.15c5.03-0.01,10.07-0.01,15.1-0.01c3.16,0,6.31,0.01,9.46-0.03c0.31,0,0.85-0.31,0.88-0.54
		c0.11-0.75,0.04-1.53,0.04-2.33C90.58,65.09,90.37,65.06,90.16,65.09z"/>
	<path class="st2" d="M33.51,62.55c2.35-0.71,4.66-0.71,7.03-0.61c1.34,0.06,2.69,0.02,4.03-0.06c2.04-0.11,4.08-0.29,6.11-0.46
		c0.3-0.02,0.67-0.07,0.86-0.26c0.79-0.8,1.52-1.65,2.27-2.49c-0.99-0.76-1.09-0.76-2.18-0.05c-0.99,0.65-1.68,0.6-2.21-0.16
		c-0.5-0.71-0.25-1.47,0.68-2.14c1.6-1.14,3.25-1.3,4.94-0.23c0.57,0.36,0.95,0.32,1.4-0.2c0.76-0.89,1.56-1.74,2.4-2.55
		c0.81-0.78,1.7-1.47,2.58-2.22c-0.55-0.75-0.67-1.49,0.11-2.07c1-0.75,1.68-0.05,2.24,0.63c1.1-0.47,2.12-0.91,3.29-1.42
		c-3.17-3.04-6.16-6.1-9.37-8.92c-2.48-2.18-5.56-2.54-8.72-2.07c0,3.54,0,7.01,0,10.48c0.9-0.05,1.78-0.16,2.65-0.14
		c0.86,0.02,1.58,0.77,1.47,1.48c-0.12,0.84-0.61,1.27-1.52,1.28c-0.95,0.02-1.91,0.11-2.83,0.3c-4.48,0.92-7.85,3.56-10.66,7.02
		c-0.74,0.91-1.42,1.13-2.15,0.6c-0.78-0.56-0.75-1.26-0.05-2.29c0.34-0.51,1.1-0.86,1.05-1.57c-0.19-0.09-0.37-0.18-0.55-0.29
		c-0.29-0.19-0.54-0.42-0.73-0.71c-0.04-0.06-0.07-0.13-0.11-0.19c-0.21-0.07-0.42-0.21-0.65-0.4c-0.24-0.2-0.47-0.41-0.8-0.7
		c-1.37,1.78-2.7,3.5-4.08,5.3c0.54,0.31,1,0.57,1.44,0.84c0.9,0.54,1.18,1.29,0.77,2.01c-0.43,0.75-1.2,0.88-2.12,0.36
		c-0.34-0.19-0.67-0.47-1.03-0.52c-0.41-0.05-0.99-0.03-1.25,0.21c-0.59,0.56-1.02,1.29-1.58,2.01c1,0.1,1.83,0.25,2.66,0.27
		C30.44,62.69,32.09,62.98,33.51,62.55z M57.27,51.54c-0.06,0.79-0.5,1.29-1.41,1.39c-0.71-0.11-1.24-0.45-1.28-1.32
		c-0.04-0.87,0.44-1.31,1.23-1.43C56.54,50.08,57.32,50.81,57.27,51.54z M58.65,47.63c-0.01,0.5-0.48,0.97-1.29,1
		c-0.84,0.03-1.3-0.52-1.4-1.3c-0.09-0.74,0.63-1.43,1.39-1.42C58.11,45.92,58.65,46.48,58.65,47.63z M52.05,44.36
		c-0.48-0.1-1.09-0.39-1.31-0.79c-0.18-0.33-0.03-1.09,0.25-1.38c0.84-0.86,1.83-1.55,3.15-1.42c1.35-0.15,2.38,0.59,3.31,1.37
		c0.31,0.26,0.36,1.12,0.2,1.58c-0.23,0.66-0.93,0.82-1.61,0.61c-0.33-0.1-0.63-0.31-0.93-0.5c-0.67-0.43-1.29-0.41-1.95,0.06
		C52.84,44.14,52.39,44.43,52.05,44.36z M46.61,53.04c0.82,0.04,1.35,0.54,1.35,1.33c0.01,0.78-0.44,1.32-1.46,1.34
		c-0.67-0.02-1.18-0.4-1.25-1.25C45.2,53.69,45.85,53,46.61,53.04z M41.65,57.27c0.71,0.03,1.28,0.66,1.26,1.71
		c-0.04,0.54-0.5,0.98-1.33,0.99c-0.87,0.01-1.3-0.51-1.36-1.31C40.15,57.94,40.91,57.24,41.65,57.27z"/>
	<path d="M92.1,61.52c-2.55-1.62-4.21-3.9-5.14-6.75c-0.01-0.03-0.02-0.07-0.03-0.1c-0.52-1.09-1.05-2.18-1.59-3.3
		c0.01-0.1-0.01-0.21-0.07-0.31c-0.14-0.23-0.28-0.46-0.41-0.69c0,0,0-0.01-0.01-0.01c0,0,0,0,0,0c-0.2-0.36-0.4-0.72-0.58-1.09
		c0.03,0.01,0.05,0.01,0.08,0.02c-0.03-0.14-0.04-0.24-0.08-0.33c-2.21-4.8-4.49-9.58-6.63-14.41c-2.08-4.67-5.45-7.56-10.62-8.11
		c-3.08-0.33-5.86,0.51-8.35,2.34c-0.15,0.11-0.28,0.24-0.38,0.37c-0.55,0.35-1.05,0.79-1.53,1.22c-0.69,0.63-1.39,1.28-2.01,1.99
		c-0.17,0.06-0.33,0.16-0.5,0.29c-0.49,0.41-0.92,0.89-1.43,1.26c-0.32,0.23-0.74,0.39-1.12,0.41c-1.12,0.05-2.24,0.02-3.44,0.02
		c-0.42-1.25-0.86-2.73-1.4-4.18c-0.49-1.31-0.88-1.46-2.29-1.15c-1,0.22-1.82-0.08-2.43-0.88c-1.06-1.39-1.1-1.41-2.79-0.76
		c-1.4,0.54-2.8,1.07-4.27,1.64C34.69,28,34.34,27.12,34,26.26c2.18-1.62,2.87-3.02,2-4.9c-0.28-0.6-0.39-1.35-0.71-1.97
		c0.04-0.17-0.02-0.34-0.14-0.49c-0.01-0.01-0.01-0.01-0.02-0.02c0,0,0-0.01-0.01-0.01c-0.02-0.03-0.05-0.07-0.07-0.1
		c-0.05-0.07-0.09-0.14-0.13-0.21c-0.08-0.14-0.15-0.28-0.21-0.42c-0.03-0.06-0.05-0.12-0.08-0.18c-0.01-0.02-0.03-0.08-0.03-0.08
		c-0.01-0.03-0.03-0.06-0.04-0.09c-0.06-0.16-0.12-0.31-0.18-0.47c-0.18-0.45-0.37-0.89-0.64-1.29c-1.39-3.57-2.83-7.12-4.31-10.65
		c-0.18-0.43-0.56-0.84-0.95-1.12c-2.14-1.49-6.27-0.1-7.14,2.38c-0.1,0.29-0.19,0.63-0.14,0.92c0.3,1.47,0.53,2.97,1,4.39
		c1.37,4.14,2.85,8.24,4.27,12.36c0.82,2.39,2.4,3.37,4.94,2.92c0.35,0.89,0.7,1.79,1.08,2.77c-1.65,0.64-3.22,1.25-4.79,1.85
		c-0.82,0.31-1.28,0.85-1.11,1.78c0.26,1.36-0.06,2.15-1.29,2.78c-0.96,0.5-1.14,1.21-0.77,2.12c0.48,1.18,0.87,2.42,1.55,3.47
		c1.83,2.85,3.79,5.61,5.77,8.51c0.05-0.07-0.06,0.11-0.19,0.28c-2.53,3.27-5.11,6.51-7.56,9.83c-0.86,1.16-1.64,1.98-3.24,1.71
		c-0.93-0.16-1.53,0.56-1.57,1.58c-0.03,0.96-0.01,1.93-0.01,2.79c-0.14,0.42-0.23,0.86-0.17,1.31c0.01,0.04,0.01,0.08,0.02,0.13
		c-0.02,0.32,0,0.65,0.17,0.85c-0.05,0.19,0.01,0.4,0.09,0.65c0.35,1.06,1.19,1.16,2.12,1.16c12.19,0,24.39,0,36.58-0.02
		c0.17,0,0.33-0.01,0.5-0.03c0.02,0,0.04,0,0.06,0c1.14-0.04,2.3,0.18,3.43,0.02c9.92,0.03,19.84,0.03,29.75,0.02
		c1.27,0,1.86-0.62,1.88-1.9c0.02-1.31-0.08-2.63,0.03-3.93C93.88,63.43,93.33,62.31,92.1,61.52z M88.86,62.42
		c-1.52,0.25-2.81,0.23-4.07-0.4c-2.24-1.12-4.45-1.1-6.65,0.21c-0.62,0.37-1.35,0.54-2.03,0.8c0.02-0.12,0.05-0.24,0.07-0.36
		c-0.57-0.37-1.14-1.01-1.73-1.03c-0.53-0.01-1.08,0.65-1.82,1.15c-2.24,0.16-4.7,0.38-7.16,0.46c-0.81,0.03-1.7-0.18-2.42-0.55
		c-1.36-0.7-2.72-1.1-4.26-1.07c-1.15,0.02-2.3-0.13-3.71-0.22c1.56-1.71,2.97-3.26,4.44-4.88c0.76,0.61,1.59,1.07,2.39,0.19
		c0.69-0.76,0.31-1.5-0.23-2.15c0.77-0.97,1.56-1.36,2.64-0.38c0.59,0.54,1.32,0.45,1.87-0.19c0.67-0.79,0.29-1.49-0.43-2.26
		c1.27-0.43,2.42-0.81,3.16-1.06c0.84,0.66,1.38,1.4,2.02,1.5c0.87,0.14,1.29-0.67,1.38-1.56c2.99-0.19,4.49,2.59,6.97,3.72
		c0.64,0.65,1.45,1.48,2.26,2.31c-0.74,1.21-0.75,1.91-0.01,2.45c0.65,0.46,1.44,0.22,2.29-0.74C85.48,59.67,87.1,61,88.86,62.42z
		 M79.68,53.94c0.06,0.08,0.11,0.17,0.17,0.25C79.78,54.11,79.72,54.02,79.68,53.94z M56.26,34.53c0.01-0.03,0.02-0.05,0.03-0.08
		c0.08-0.09,0.16-0.17,0.25-0.25c0.65-0.5,1.33-0.96,2-1.42c0.78-0.55,1.57-1.09,2.36-1.62c0.01,0,0.02,0,0.03,0
		c0.02-0.02,0.04-0.04,0.06-0.07c0.4-0.27,0.79-0.53,1.19-0.79c0.1-0.05,0.2-0.11,0.3-0.16c0.01,0,0.02,0,0.03,0
		c0.3-0.18,0.65-0.28,1-0.37c0.32-0.21,0.68-0.35,1.06-0.45c0.11-0.03,0.21-0.05,0.32-0.07c0.03-0.01,0.06-0.01,0.09-0.02
		c0.12-0.02,0.24-0.04,0.36-0.06c0.49-0.07,0.98-0.09,1.47-0.08c0,0,0.01,0,0.01,0c0.16,0,0.33,0.01,0.49,0.02c0.02,0,0.04,0,0.06,0
		c0.1,0.01,0.18,0.06,0.24,0.14c2.88,0.55,5.21,2,6.54,4.59c1.92,3.76,3.6,7.65,5.36,11.49c0.09,0.2,0.09,0.6-0.04,0.72
		c-0.65,0.58-0.94,1.3-0.37,1.94c0.38,0.43,1.14,0.53,1.72,0.77c0.03-0.08,0.06-0.16,0.09-0.24l1.54,2.63
		c0.01-0.06,0.02-0.13,0.03-0.19c0,0,0.01,0.01,0.01,0.01c0.09,0.13,0.17,0.26,0.24,0.4c-0.07-0.04-0.15-0.09-0.24-0.15
		c0.4,1.09,0.81,2.18,1.25,3.38c-0.72-0.5-1.3-1.22-1.92-1.25c-0.07,0-0.14,0.01-0.2,0.03c-0.38-0.35-0.76-0.72-1.12-1.09
		c-0.01-0.1-0.04-0.18-0.08-0.22c-0.61-0.63-1.36-1.13-2.01-1.72c-2.15-1.94-4.69-2.8-7.56-2.78c-0.29,0-0.67-0.07-0.86-0.26
		c-1.31-1.29-2.57-2.62-3.87-3.96c0.45-0.61,0.67-1.32,0.06-1.98c-0.71-0.77-1.52-0.39-2.45,0.15c-0.51-0.59-0.98-1.23-1.55-1.76
		c-1.16-1.09-2.35-2.14-3.57-3.17c-0.18-0.16-0.36-0.26-0.53-0.31c-0.28-0.19-0.56-0.37-0.84-0.56c-0.16-0.11-0.33-0.21-0.49-0.33
		c0,0-0.06-0.04-0.08-0.06c-0.01-0.01-0.07-0.06-0.08-0.06c-0.06-0.06-0.12-0.12-0.18-0.18c0,0-0.01-0.01-0.01-0.02
		c-0.02-0.03-0.04-0.07-0.06-0.1c-0.01-0.03-0.03-0.05-0.04-0.08c0-0.01-0.01-0.03-0.02-0.05c-0.01-0.04-0.02-0.08-0.03-0.11
		c0-0.01-0.01-0.03-0.01-0.06c0-0.02-0.01-0.08-0.01-0.08c0,0,0-0.01,0-0.01C56.25,34.57,56.26,34.55,56.26,34.53z M27.72,19.29
		c-1.12-3.25-2.22-6.42-3.31-9.6c-0.1-0.3-0.16-0.61-0.23-0.91c-0.32-1.43,0.67-2.58,2.17-2.41c0.37,0.04,0.84,0.52,1,0.91
		c1.18,2.82,2.3,5.67,3.43,8.51c0.24,0.62,0.45,1.25,0.73,2.02C30.23,18.31,29.06,18.77,27.72,19.29z M31.55,24.16
		c-1.93,0.76-2.08,0.68-2.7-1.49c-0.07-0.23-0.07-0.48-0.12-0.83c1.17-0.44,2.28-0.87,3.4-1.28c0.13-0.05,0.27-0.04,0.4-0.06
		C34.03,23.19,34.02,23.2,31.55,24.16z M27.87,39.55c-0.32-0.66-0.39-1.12,0.2-1.82c0.69-0.82,0.97-1.97,1.43-2.98
		c0.12-0.26,0.19-0.67,0.39-0.76c1.15-0.5,2.34-0.92,3.63-1.42c0.32,0.84,0.59,1.6,0.9,2.33c0.37,0.87,1.1,1.23,1.87,0.94
		c0.73-0.28,1-1.06,0.68-1.95c-0.26-0.73-0.54-1.45-0.87-2.32c1.23-0.48,2.46-0.98,3.71-1.4c0.21-0.07,0.58,0.16,0.8,0.34
		c0.99,0.8,2.09,1.26,3.38,1.35c0.28,0.02,0.73,0.34,0.79,0.59c0.49,2.12,0.99,4.24,1.3,6.38c0.23,1.56,0.25,3.17,0.22,4.75
		c-0.03,1.51-0.23,3.01-0.43,4.51c-0.03,0.27-0.36,0.56-0.63,0.72c-1.78,1.07-3.59,2.08-5.35,3.17c-0.14,0.09-0.29,0.17-0.43,0.24
		c-0.08,0.04-0.17,0.07-0.25,0.1c0,0,0,0,0,0c-0.07-0.1-0.17-0.18-0.3-0.23c-0.05-0.02-0.1-0.04-0.15-0.06
		c-0.02-0.01-0.03-0.01-0.05-0.02c-0.01,0-0.01,0-0.02-0.01c-0.1-0.04-0.2-0.09-0.3-0.14c-0.2-0.1-0.39-0.2-0.58-0.31
		c-0.19-0.11-0.37-0.23-0.55-0.35c0,0,0,0,0,0c-0.11-0.11-0.23-0.21-0.35-0.31C33.11,47.75,30.04,44.01,27.87,39.55z M27.8,60.38
		c0.26-0.25,0.84-0.27,1.25-0.21c0.36,0.04,0.69,0.33,1.03,0.52c0.92,0.51,1.69,0.38,2.12-0.36c0.42-0.72,0.14-1.47-0.77-2.01
		c-0.45-0.27-0.9-0.52-1.44-0.84c1.39-1.8,2.71-3.52,4.08-5.3c0.33,0.29,0.57,0.49,0.8,0.7c0.22,0.19,0.44,0.33,0.65,0.4
		c0.03,0.07,0.07,0.13,0.11,0.19c0.19,0.29,0.45,0.52,0.73,0.71c0.17,0.11,0.36,0.21,0.55,0.29c0.05,0.71-0.71,1.06-1.05,1.57
		c-0.7,1.03-0.73,1.73,0.05,2.29c0.73,0.52,1.41,0.31,2.15-0.6c2.81-3.46,6.18-6.1,10.66-7.02c0.93-0.19,1.89-0.28,2.83-0.3
		c0.92-0.02,1.4-0.45,1.52-1.28c0.11-0.72-0.62-1.46-1.47-1.48c-0.87-0.02-1.75,0.09-2.65,0.14c0-3.47,0-6.95,0-10.48
		c3.16-0.47,6.24-0.11,8.72,2.07c3.21,2.82,6.2,5.89,9.37,8.92c-1.17,0.51-2.19,0.94-3.29,1.42c-0.56-0.68-1.24-1.37-2.24-0.63
		c-0.78,0.58-0.67,1.32-0.11,2.07c-0.88,0.75-1.77,1.44-2.58,2.22c-0.84,0.81-1.64,1.66-2.4,2.55c-0.45,0.52-0.83,0.57-1.4,0.2
		c-1.69-1.07-3.34-0.92-4.94,0.23c-0.93,0.67-1.18,1.42-0.68,2.14c0.53,0.76,1.22,0.81,2.21,0.16c1.09-0.71,1.2-0.71,2.18,0.05
		c-0.75,0.84-1.48,1.69-2.27,2.49c-0.19,0.19-0.56,0.23-0.86,0.26c-2.04,0.17-4.07,0.34-6.11,0.46c-1.34,0.07-2.69,0.11-4.03,0.06
		c-2.37-0.1-4.68-0.1-7.03,0.61c-1.42,0.43-3.07,0.14-4.62,0.11c-0.83-0.02-1.67-0.16-2.66-0.27C26.78,61.66,27.21,60.94,27.8,60.38
		z M90.89,67.42c-0.03,0.23-0.57,0.53-0.88,0.54c-3.15,0.04-6.31,0.02-9.46,0.03c-5.03,0-10.07,0-15.1,0.01
		c-0.33,0-0.67,0.08-1,0.15c-0.06-0.02-0.12-0.04-0.18-0.04c-0.66-0.06-1.34,0.05-2,0.09c-0.1,0.01-0.2,0.01-0.3,0.02
		c-0.55-0.11-0.98-0.22-1.4-0.22c-12.4-0.01-24.79-0.01-37.19,0c-0.29-0.14-0.57-0.3-0.84-0.48c-0.08-0.24-0.29-0.42-0.4-0.66
		c-0.03-0.07-0.06-0.15-0.08-0.23c0.04-0.06,0.08-0.12,0.13-0.18c0.18-0.25,0.35-0.51,0.53-0.77c0.04-0.06,0.09-0.12,0.13-0.19
		c0,0,0-0.01,0.01-0.01c0,0,0-0.01,0.01-0.01c0.02-0.03,0.05-0.06,0.07-0.09c0.05-0.06,0.11-0.12,0.17-0.18
		c0.03-0.02,0.06-0.05,0.08-0.07c0,0,0,0,0.01-0.01c0,0,0,0,0.01,0c0.01-0.01,0.02-0.01,0.03-0.02c0.28,0.05,0.57,0.11,0.84,0.12
		c3.07,0.08,6.15,0.32,9.22,0.2c1.8-0.07,3.51-0.83,5.4-0.84c5.43-0.01,10.87-0.26,16.3-0.36c1.62-0.03,3.26,0.06,4.87,0.24
		c0.7,0.08,1.37,0.5,2.04,0.79c1.15,0.49,2.28,1.15,3.58,0.51c0.24-0.12,0.42-0.38,0.47-0.43c0.63,0.2,1.2,0.53,1.77,0.53
		c2.15-0.01,4.31-0.2,6.46-0.18c2.05,0.02,4.01-0.17,5.81-1.28c1.03-0.63,2.2-0.58,3.24-0.05c2.23,1.15,4.56,1.12,6.94,0.74
		c0.2-0.03,0.41,0,0.77,0C90.94,65.89,91.01,66.67,90.89,67.42z"/>
	<path d="M82.47,51.23c0.01,0.01,0.02,0.02,0.04,0.02c-0.01-0.01-0.01-0.03-0.02-0.04L82.47,51.23z"/>
	<path d="M61.78,37.56c0.41,0.96,1.31,1.22,2.26,0.52c0.83-0.61,1.57-0.67,2.41-0.06c0.33,0.24,0.75,0.34,1.37,0.62
		c0.38-0.38,1.04-0.74,1.09-1.17c0.06-0.49-0.3-1.17-0.7-1.56c-1.11-1.08-2.92-0.87-4.06-2.03c-0.15-0.15-0.67-0.02-0.98,0.1
		c-0.47,0.18-1.63,2.91-1.5,3.4C61.71,37.44,61.76,37.5,61.78,37.56z"/>
	<path d="M70.21,44.86c0.47,0.25,1.43,0.39,1.67,0.12c1.1-1.22,2.13-1.11,3.28-0.17c0.08,0.06,0.21,0.14,0.29,0.11
		c0.52-0.18,1.23-0.25,1.5-0.63c0.23-0.33,0.17-1.24-0.11-1.5c-0.93-0.85-1.99-1.58-3.35-1.59c-1.57,0.04-2.63,0.94-3.52,2.08
		C69.54,43.84,69.64,44.56,70.21,44.86z"/>
	<path d="M68.86,34.4c0.86-0.07,1.19-0.63,1.29-1.41c-0.14-0.77-0.52-1.3-1.37-1.33c-0.72-0.03-1.42,0.7-1.4,1.42
		C67.4,33.82,68.1,34.46,68.86,34.4z"/>
	<path d="M72.99,37.96c0.69,0.1,1.38-0.53,1.41-1.25c0.03-0.84-0.39-1.31-1.03-1.43c-0.95-0.08-1.68,0.52-1.68,1.27
		C71.69,37.37,72.2,37.84,72.99,37.96z"/>
	<path d="M55.12,43.85c0.29,0.19,0.6,0.4,0.93,0.5c0.68,0.21,1.38,0.05,1.61-0.61c0.16-0.47,0.11-1.32-0.2-1.58
		c-0.92-0.78-1.96-1.52-3.31-1.37c-1.32-0.13-2.31,0.56-3.15,1.42c-0.28,0.29-0.43,1.05-0.25,1.38c0.21,0.4,0.82,0.69,1.31,0.79
		c0.33,0.07,0.79-0.23,1.12-0.46C53.83,43.44,54.45,43.41,55.12,43.85z"/>
	<path d="M55.81,50.18c-0.79,0.11-1.26,0.55-1.23,1.43c0.04,0.88,0.57,1.21,1.28,1.32c0.9-0.1,1.34-0.61,1.41-1.39
		C57.32,50.81,56.54,50.08,55.81,50.18z"/>
	<path d="M55.96,47.33c0.1,0.78,0.56,1.33,1.4,1.3c0.81-0.03,1.28-0.51,1.29-1c0-1.15-0.54-1.71-1.3-1.72
		C56.59,45.9,55.87,46.59,55.96,47.33z"/>
	<path d="M41.58,59.98c0.83-0.01,1.29-0.45,1.33-0.99c0.02-1.05-0.55-1.68-1.26-1.71c-0.74-0.03-1.49,0.67-1.43,1.4
		C40.28,59.47,40.71,60,41.58,59.98z"/>
	<path d="M46.5,55.71c1.02-0.02,1.47-0.56,1.46-1.34c-0.01-0.79-0.53-1.29-1.35-1.33c-0.76-0.04-1.41,0.65-1.35,1.42
		C45.32,55.31,45.83,55.69,46.5,55.71z"/>
	<path d="M67.49,56.84c-1.01,0.58-2.03,1.16-3.03,1.77c-0.15,0.09-0.28,0.38-0.25,0.55c0.09,0.45,0.15,1.09,0.45,1.28
		c0.4,0.25,1.17,0.36,1.52,0.13c1.04-0.67,1.88-0.84,2.67,0.29c0.08,0.11,0.24,0.24,0.34,0.23c0.49-0.06,1.12-0.01,1.44-0.29
		c0.31-0.27,0.52-0.96,0.4-1.36C70.73,58.38,68.73,57.09,67.49,56.84z"/>
	<path d="M72.28,55.89c-0.49,0.51-0.63,1.12-0.19,1.72c0.44,0.61,1.03,0.84,1.74,0.45c0.34-0.19,0.66-0.4,1.06-0.65
		c0.46,0.25,0.88,0.52,1.33,0.72c0.69,0.31,1.37,0.05,1.62-0.55c0.19-0.45,0.15-1.27-0.15-1.61C76.23,54.28,73.82,54.29,72.28,55.89
		z"/>
</g>
</svg>
