<?xml version="1.0" encoding="utf-8"?>
<!-- Generator: Adobe Illustrator 28.1.0, SVG Export Plug-In . SVG Version: 6.00 Build 0)  -->
<svg version="1.1" id="Layer_1" xmlns="http://www.w3.org/2000/svg" xmlns:xlink="http://www.w3.org/1999/xlink" x="0px" y="0px"
	 viewBox="0 0 110.55 76.54" style="enable-background:new 0 0 110.55 76.54;" xml:space="preserve">
<style type="text/css">
	.st0{display:none;}
	.st1{display:inline;fill:none;}
	.st2{fill:#808080;}
	.st3{fill:none;}
	.st4{fill:#FFFFFF;}
</style>
<g id="Layer_2_00000073722119373351752270000017113015111246931634_" class="st0">
	<line class="st1" x1="-24.13" y1="74.54" x2="142.13" y2="74.54"/>
	<line class="st1" x1="-24.13" y1="2" x2="142.13" y2="2"/>
</g>
<g>
	<g>
		<path class="st2" d="M2198.67,1892.46c-0.07,0.57-0.23,0.93-0.76,1.06c-0.29,0.07-0.57,0.23-0.83,0.38
			c-0.1,0.06-0.14,0.22-0.21,0.33c0.13,0.07,0.27,0.2,0.4,0.19c0.36-0.04,0.72-0.14,1.08-0.21c0.05,0.88-0.09,1.09-1.02,1.35
			c-3.8,1.06-7.59,2.16-11.41,3.14c-3.32,0.85-6.99-1.7-7.41-5.1c-0.21-1.71-0.35-3.42-0.41-5.14c-0.07-2.12-0.85-3.96-1.9-5.76
			c-3.54-6.06-7.03-12.15-10.53-18.23c-0.59-1.03-1.18-2.06-1.78-3.08c-0.15-0.26-0.2-0.43,0.1-0.6c1.1-0.63,2.19-1.27,3.36-1.94
			c0.46,0.78,0.9,1.53,1.34,2.28c4.01,6.95,8.01,13.9,12.02,20.84c1.03,1.78,1.44,3.67,1.26,5.72c-0.12,1.3-0.17,2.62-0.19,3.93
			c-0.03,1.73,1.18,2.9,2.96,2.87c4.48-0.08,8.9-0.63,13.22-1.85C2198.14,1892.59,2198.36,1892.54,2198.67,1892.46z"/>
		<path class="st2" d="M2154.67,1847.29c0.21,0.34,0.41,0.67,0.61,0.99c0.48,0.77,0.96,0.89,1.73,0.45c1.1-0.64,2.19-1.27,3.29-1.91
			c0.77-0.44,1.43-0.39,1.95,0.16c0.55,0.58,0.57,1.34,0.07,2.07c-0.07,0.1-0.11,0.23-0.2,0.44c0.9-0.17,1.6-0.07,2.04,0.72
			c0.44,0.77,0.08,1.43-0.44,2.19c1.05-0.23,1.84-0.03,2.19,0.86c0.42,1.07-0.18,1.75-1.17,2.19c0.03,0.05,0.06,0.09,0.1,0.14
			c0.18,0,0.37,0.01,0.55,0c0.7-0.04,1.36,0.39,1.58,1.02c0.24,0.7-0.01,1.39-0.69,1.78c-1.59,0.93-3.18,1.86-4.77,2.78
			c-1.19,0.68-2.47,1.09-3.82,1.27c-1.35,0.18-2.62,0.6-3.83,1.23c-0.75,0.39-1.23,0.27-1.65-0.46c-1.22-2.11-2.43-4.22-3.64-6.33
			c-0.35-0.61-0.32-1.14,0.18-1.48c1.99-1.39,3.17-3.36,4.11-5.53c0.36-0.83,0.95-1.56,1.45-2.33
			C2154.38,1847.44,2154.51,1847.4,2154.67,1847.29z"/>
		<path class="st2" d="M2140.79,1831.45c0.9-0.11,1.65-0.2,2.4-0.28c0.14-0.01,0.29,0.02,0.42,0.08c2.88,1.33,5.77,2.64,8.62,4.01
			c1.52,0.73,2.62,1.95,3.46,3.39c1.31,2.25,2.58,4.51,3.9,6.75c0.28,0.48,0.2,0.7-0.26,0.95c-1.01,0.54-1.99,1.13-3.07,1.76
			c-0.47-0.79-0.92-1.55-1.37-2.32c-0.92-1.57-1.83-3.15-2.75-4.72c-0.84-1.44-2.15-2.39-3.43-3.38c-2.51-1.94-5.01-3.9-7.51-5.85
			C2141.09,1831.74,2140.99,1831.64,2140.79,1831.45z"/>
	</g>
	<path class="st2" d="M2202.71,1888.81l-4.06,1.24c-0.09,0.03-0.12,0.15-0.09,0.26l0.18,0.6c0.03,0.11,0.13,0.2,0.22,0.17l1.37-0.42
		l3.36,11.05l1.07,1.13l0.26-1.52l-3.36-11.05l1.37-0.42c0.09-0.03,0.12-0.15,0.09-0.26l-0.18-0.6
		C2202.9,1888.87,2202.79,1888.79,2202.71,1888.81z"/>
</g>
<g>
	<path class="st3" d="M21.33,44.84c-0.05-0.02-0.1-0.04-0.15-0.07c-0.05-0.03-0.11-0.05-0.16-0.08c-0.04-0.03-0.06-0.07-0.1-0.1
		c-0.08-0.06-0.15-0.13-0.21-0.21c-0.06-0.07-0.11-0.14-0.15-0.22c-0.04-0.08-0.07-0.16-0.1-0.26c-0.03-0.1-0.05-0.19-0.06-0.29
		c0-0.05-0.03-0.09-0.03-0.14c0-0.05,0.02-0.09,0.03-0.14c0.01-0.1,0.03-0.19,0.06-0.29c0.03-0.1,0.07-0.19,0.11-0.28
		c0.02-0.04,0.03-0.09,0.05-0.12l9.2-13.63c-2.37-1.31-5.09-2.07-7.99-2.07c-9.11,0-16.52,7.41-16.52,16.52s7.41,16.52,16.52,16.52
		c8.62,0,15.7-6.63,16.44-15.05H21.84C21.67,44.94,21.5,44.9,21.33,44.84z"/>
	<path class="st3" d="M47.03,36.55L39.73,19.6l-5.82,8.63c4.14,3.28,6.9,8.2,7.32,13.77h2.56C44.07,39.75,45.27,37.8,47.03,36.55z"
		/>
	<path class="st3" d="M51.92,35.11l0.67-2.85h-2.28c-0.8,0-1.46-0.65-1.46-1.46c0-0.8,0.65-1.46,1.46-1.46h8.29
		c0.8,0,1.46,0.65,1.46,1.46c0,0.8-0.65,1.46-1.46,1.46h-3.02l-0.83,3.49c0.59,0.26,1.13,0.61,1.64,1l18.46-18.46h-32.5l7.35,17.04
		c0.61-0.15,1.23-0.25,1.89-0.25C51.71,35.08,51.81,35.1,51.92,35.11z"/>
	<path class="st3" d="M32.26,30.66L24.6,42h13.68C37.88,37.44,35.62,33.4,32.26,30.66z"/>
	<path class="st3" d="M88.22,26.95c-1.85,0-3.63,0.32-5.29,0.88l3.54,12.98l2.47,1.38c0.71,0.4,0.96,1.29,0.57,2
		c-0.27,0.48-0.77,0.75-1.28,0.75c-0.24,0-0.49-0.06-0.72-0.19l-3.01-1.68c-0.03-0.01-0.04-0.04-0.06-0.06
		c-0.11-0.07-0.2-0.15-0.29-0.25c-0.04-0.04-0.08-0.07-0.11-0.11c-0.09-0.12-0.16-0.26-0.21-0.4c0-0.02-0.02-0.04-0.03-0.07
		c0,0,0,0,0-0.01l-3.59-13.15c-5.07,2.82-8.51,8.24-8.51,14.44c0,9.11,7.41,16.52,16.52,16.52c9.11,0,16.52-7.41,16.52-16.52
		C104.75,34.36,97.33,26.95,88.22,26.95z"/>
	<path class="st4" d="M51.59,37.99c-2.75,0-4.99,2.24-4.99,4.99c0,1.82,0.99,3.4,2.45,4.27l1.13-4.76c0.19-0.78,0.97-1.27,1.75-1.08
		c0.78,0.19,1.27,0.97,1.08,1.75l-1.13,4.78c2.62-0.15,4.7-2.31,4.7-4.96C56.59,40.23,54.35,37.99,51.59,37.99z"/>
	<path d="M88.22,24.01c-2.12,0-4.15,0.35-6.06,0.98l-5.48-20.1l11.55-0.01c2.03,0,3.67,1.65,3.67,3.67c0,2.02-1.65,3.67-3.67,3.67
		c-0.81,0-1.47,0.66-1.47,1.47s0.66,1.47,1.47,1.47c3.65,0,6.61-2.97,6.61-6.61c0-3.64-2.96-6.61-6.61-6.61L74.75,1.95
		c-0.07,0-0.13,0.03-0.19,0.04C74.49,2,74.43,1.99,74.37,2c-0.03,0.01-0.06,0.03-0.09,0.04c-0.1,0.03-0.18,0.08-0.27,0.13
		c-0.08,0.05-0.15,0.09-0.22,0.15c-0.07,0.06-0.12,0.14-0.18,0.21c-0.06,0.08-0.11,0.15-0.15,0.23c-0.04,0.08-0.06,0.16-0.09,0.25
		c-0.03,0.1-0.05,0.19-0.06,0.3c0,0.03-0.02,0.06-0.02,0.1c0,0.07,0.03,0.12,0.04,0.19c0.01,0.07-0.01,0.13,0.01,0.2l3.15,11.55
		H41.09l-3.83-8.87c-1.04,0.09-2.09,0.19-3.08,0.28l4.16,9.64l-6.87,10.18c-2.84-1.63-6.12-2.57-9.63-2.57
		c-10.73,0-19.46,8.73-19.46,19.46c0,10.73,8.73,19.46,19.46,19.46c10.24,0,18.63-7.95,19.38-17.99h2.74
		c0.6,2.34,2.23,4.26,4.39,5.24l-0.69,2.9h-2.72c-0.8,0-1.46,0.65-1.46,1.46s0.65,1.46,1.46,1.46h8.29c0.8,0,1.46-0.65,1.46-1.46
		s-0.65-1.46-1.46-1.46h-2.58l0.53-2.23c0.14,0.01,0.26,0.04,0.4,0.04c4.36,0,7.91-3.55,7.91-7.91c0-1.48-0.43-2.85-1.14-4.03
		l19.3-19.3l1.77,6.49c-6.32,3.22-10.66,9.77-10.66,17.33c0,10.73,8.73,19.46,19.46,19.46c10.73,0,19.46-8.73,19.46-19.46
		C107.68,32.74,98.95,24.01,88.22,24.01z M21.84,59.99c-9.11,0-16.52-7.41-16.52-16.52s7.41-16.52,16.52-16.52
		c2.9,0,5.62,0.75,7.99,2.07l-9.2,13.63c-0.03,0.04-0.03,0.09-0.05,0.12c-0.05,0.09-0.08,0.18-0.11,0.28
		c-0.03,0.1-0.05,0.19-0.06,0.29c0,0.05-0.03,0.09-0.03,0.14c0,0.05,0.02,0.09,0.03,0.14c0.01,0.1,0.03,0.19,0.06,0.29
		c0.03,0.09,0.06,0.17,0.1,0.26c0.04,0.08,0.09,0.15,0.15,0.22c0.06,0.08,0.13,0.15,0.21,0.21c0.04,0.03,0.06,0.07,0.1,0.1
		c0.05,0.03,0.11,0.05,0.16,0.08c0.05,0.02,0.1,0.05,0.15,0.07c0.17,0.06,0.34,0.1,0.51,0.1h16.45
		C37.54,53.36,30.46,59.99,21.84,59.99z M24.6,42l7.66-11.34c3.36,2.74,5.63,6.78,6.03,11.34H24.6z M43.79,42h-2.56
		c-0.42-5.57-3.19-10.49-7.32-13.77l5.82-8.63l7.31,16.94C45.27,37.8,44.07,39.75,43.79,42z M51.88,47.95l1.13-4.78
		c0.19-0.78-0.3-1.57-1.08-1.75c-0.78-0.18-1.57,0.3-1.75,1.08l-1.13,4.76c-1.46-0.87-2.45-2.45-2.45-4.27
		c0-2.75,2.24-4.99,4.99-4.99c2.75,0,4.99,2.24,4.99,4.99C56.59,45.64,54.5,47.79,51.88,47.95z M56.4,36.75
		c-0.51-0.39-1.04-0.74-1.64-1l0.83-3.49h3.02c0.8,0,1.46-0.65,1.46-1.46c0-0.8-0.65-1.46-1.46-1.46h-8.29
		c-0.8,0-1.46,0.65-1.46,1.46c0,0.8,0.65,1.46,1.46,1.46h2.28l-0.67,2.85c-0.11,0-0.22-0.03-0.33-0.03c-0.65,0-1.28,0.1-1.89,0.25
		l-7.35-17.04h32.5L56.4,36.75z M88.22,59.99c-9.11,0-16.52-7.41-16.52-16.52c0-6.21,3.44-11.62,8.51-14.44l3.59,13.15
		c0,0,0,0,0,0.01c0.01,0.02,0.03,0.04,0.03,0.07c0.05,0.15,0.12,0.28,0.21,0.4c0.03,0.04,0.07,0.07,0.11,0.11
		c0.09,0.09,0.18,0.18,0.29,0.25c0.02,0.02,0.04,0.04,0.06,0.06l3.01,1.68c0.23,0.13,0.47,0.19,0.72,0.19
		c0.51,0,1.01-0.27,1.28-0.75c0.4-0.71,0.14-1.6-0.57-2l-2.47-1.38l-3.54-12.98c1.66-0.56,3.44-0.88,5.29-0.88
		c9.11,0,16.52,7.41,16.52,16.52C104.75,52.58,97.33,59.99,88.22,59.99z"/>
	<path d="M43.36,5.93c1.74-0.14,1.75-2.77,0-2.91L29.74,1.8c-3.87-0.2-3.86,5.56,0,5.36c0,0,1.99-0.18,4.45-0.4
		c0.99-0.09,2.04-0.18,3.08-0.28C40.41,6.2,43.36,5.93,43.36,5.93z"/>
	<polygon points="48.86,58.49 43.95,65.52 46.47,65.52 46.47,72.34 46.47,75.58 51.25,75.58 51.25,72.34 51.25,65.52 53.77,65.52 
		48.86,58.49 	"/>
</g>
</svg>
