<?xml version="1.0" encoding="utf-8"?>
<!-- Generator: Adobe Illustrator 28.1.0, SVG Export Plug-In . SVG Version: 6.00 Build 0)  -->
<svg version="1.1" id="Layer_1" xmlns="http://www.w3.org/2000/svg" xmlns:xlink="http://www.w3.org/1999/xlink" x="0px" y="0px"
	 viewBox="0 0 110.55 76.54" style="enable-background:new 0 0 110.55 76.54;" xml:space="preserve">
<style type="text/css">
	.st0{display:none;}
	.st1{display:inline;fill:none;}
	.st2{fill:#808080;}
	.st3{fill-rule:evenodd;clip-rule:evenodd;}
</style>
<g id="Layer_2_00000073722119373351752270000017113015111246931634_" class="st0">
	<line class="st1" x1="-24.13" y1="74.54" x2="142.13" y2="74.54"/>
	<line class="st1" x1="-24.13" y1="2" x2="142.13" y2="2"/>
</g>
<g>
	<g>
		<path class="st2" d="M2198.67,1892.46c-0.07,0.57-0.23,0.93-0.76,1.06c-0.29,0.07-0.57,0.23-0.83,0.38
			c-0.1,0.06-0.14,0.22-0.21,0.33c0.13,0.07,0.27,0.2,0.4,0.19c0.36-0.04,0.72-0.14,1.08-0.21c0.05,0.88-0.09,1.09-1.02,1.35
			c-3.8,1.06-7.59,2.16-11.41,3.14c-3.32,0.85-6.99-1.7-7.41-5.1c-0.21-1.71-0.35-3.42-0.41-5.14c-0.07-2.12-0.85-3.96-1.9-5.76
			c-3.54-6.06-7.03-12.15-10.53-18.23c-0.59-1.03-1.18-2.06-1.78-3.08c-0.15-0.26-0.2-0.43,0.1-0.6c1.1-0.63,2.19-1.27,3.36-1.94
			c0.46,0.78,0.9,1.53,1.34,2.28c4.01,6.95,8.01,13.9,12.02,20.84c1.03,1.78,1.44,3.67,1.26,5.72c-0.12,1.3-0.17,2.62-0.19,3.93
			c-0.03,1.73,1.18,2.9,2.96,2.87c4.48-0.08,8.9-0.63,13.22-1.85C2198.14,1892.59,2198.36,1892.54,2198.67,1892.46z"/>
		<path class="st2" d="M2154.67,1847.29c0.21,0.34,0.41,0.67,0.61,0.99c0.48,0.77,0.96,0.89,1.73,0.45c1.1-0.64,2.19-1.27,3.29-1.91
			c0.77-0.44,1.43-0.39,1.95,0.16c0.55,0.58,0.57,1.34,0.07,2.07c-0.07,0.1-0.11,0.23-0.2,0.44c0.9-0.17,1.6-0.07,2.04,0.72
			c0.44,0.77,0.08,1.43-0.44,2.19c1.05-0.23,1.84-0.03,2.19,0.86c0.42,1.07-0.18,1.75-1.17,2.19c0.03,0.05,0.06,0.09,0.1,0.14
			c0.18,0,0.37,0.01,0.55,0c0.7-0.04,1.36,0.39,1.58,1.02c0.24,0.7-0.01,1.39-0.69,1.78c-1.59,0.93-3.18,1.86-4.77,2.78
			c-1.19,0.68-2.47,1.09-3.82,1.27c-1.35,0.18-2.62,0.6-3.83,1.23c-0.75,0.39-1.23,0.27-1.65-0.46c-1.22-2.11-2.43-4.22-3.64-6.33
			c-0.35-0.61-0.32-1.14,0.18-1.48c1.99-1.39,3.17-3.36,4.11-5.53c0.36-0.83,0.95-1.56,1.45-2.33
			C2154.38,1847.44,2154.51,1847.4,2154.67,1847.29z"/>
		<path class="st2" d="M2140.79,1831.45c0.9-0.11,1.65-0.2,2.4-0.28c0.14-0.01,0.29,0.02,0.42,0.08c2.88,1.33,5.77,2.64,8.62,4.01
			c1.52,0.73,2.62,1.95,3.46,3.39c1.31,2.25,2.58,4.51,3.9,6.75c0.28,0.48,0.2,0.7-0.26,0.95c-1.01,0.54-1.99,1.13-3.07,1.76
			c-0.47-0.79-0.92-1.55-1.37-2.32c-0.92-1.57-1.83-3.15-2.75-4.72c-0.84-1.44-2.15-2.39-3.43-3.38c-2.51-1.94-5.01-3.9-7.51-5.85
			C2141.09,1831.74,2140.99,1831.64,2140.79,1831.45z"/>
	</g>
	<path class="st2" d="M2202.71,1888.81l-4.06,1.24c-0.09,0.03-0.12,0.15-0.09,0.26l0.18,0.6c0.03,0.11,0.13,0.2,0.22,0.17l1.37-0.42
		l3.36,11.05l1.07,1.13l0.26-1.52l-3.36-11.05l1.37-0.42c0.09-0.03,0.12-0.15,0.09-0.26l-0.18-0.6
		C2202.9,1888.87,2202.79,1888.79,2202.71,1888.81z"/>
</g>
<g transform="matrix(2.00001,0,0,2.00001,-1280,-120)">
	<path class="st3" d="M662.11,79.23v6.55c-0.04,0.03-0.08,0.07-0.13,0.1c-1.66,1.34-2.77,3.49-3.27,4.62l-0.55-0.22
		c-0.34-0.14-0.73-0.02-0.94,0.28l-4.4,6.28c-0.17,0.24-0.19,0.55-0.05,0.81c0.14,0.26,0.4,0.42,0.7,0.42h9.68
		c0.33,0,0.62-0.21,0.74-0.52l1.32-3.59c0.03-0.09,0.05-0.19,0.05-0.28l0.38-0.38l9.18-1.53c0.14-0.02,0.27-0.08,0.37-0.17
		c0,0,2.32-1.95,3.1-3.43c0.55-1.06,0.43-1.95-0.46-2.43v-6.52c0-0.43-0.35-0.79-0.79-0.79H662.9
		C662.46,78.44,662.11,78.79,662.11,79.23z M658.15,91.97l5.32,2.17l-0.87,2.36h-7.62L658.15,91.97z M666.55,88.65
		c-0.49,0.4-0.88,0.66-0.88,0.66c-0.36,0.23-0.85,0.13-1.09-0.24c-0.23-0.37-0.13-0.85,0.24-1.09c0,0,1.09-0.69,1.7-1.5
		c0.12-0.16,0.23-0.33,0.28-0.5c0.03-0.1,0.03-0.19-0.06-0.27c-0.26-0.27-0.67-0.26-1.16-0.13c-0.74,0.2-1.63,0.71-2.62,1.51
		c-1.43,1.15-2.37,3-2.81,3.99l3.88,1.58l0.66-0.66c0.12-0.11,0.27-0.19,0.43-0.22c0,0,9.21-1.54,9.21-1.54
		c0.41-0.36,1.52-1.35,2.22-2.3c0.15-0.21,0.28-0.41,0.37-0.6c0.04-0.08,0.07-0.19,0.09-0.26c-0.13-0.05-0.28-0.04-0.45-0.02
		c-0.3,0.04-0.62,0.14-0.94,0.27c-1.07,0.43-2.06,1.15-2.06,1.15c-0.13,0.1-0.29,0.15-0.46,0.15H666.55z M674.68,80.01v2.36
		c0,0.43-0.35,0.79-0.79,0.79c-0.43,0-0.79-0.35-0.79-0.79v-2.36h-1.57v7.07c0.78,0,1.33,0,1.33,0c0.48-0.32,1.7-1.08,2.82-1.41
		c0.19-0.05,0.38-0.1,0.56-0.12v-5.53H674.68z M669.97,80.01h-6.28v4.71c0.78-0.44,1.49-0.69,2.08-0.75c0.88-0.1,1.59,0.14,2.1,0.65
		c0.66,0.67,0.67,1.45,0.28,2.24c-0.04,0.08-0.08,0.15-0.13,0.23h1.95V80.01z M665.25,82.37h0.79c0.43,0,0.79-0.35,0.79-0.79
		s-0.35-0.79-0.79-0.79h-0.79c-0.43,0-0.79,0.35-0.79,0.79S664.82,82.37,665.25,82.37z M667.98,74.51l1.34,2.01
		c0.15,0.22,0.39,0.35,0.65,0.35c0.26,0,0.51-0.13,0.65-0.35l1.34-2.01h1.03c3.51,0,6.4-3.15,6.4-7.07s-2.89-7.07-6.4-7.07h-6.05
		c-3.51,0-6.4,3.15-6.4,7.07s2.89,7.07,6.4,7.07H667.98z M669.05,73.29c-0.15-0.22-0.39-0.35-0.65-0.35h-1.45
		c-2.69,0-4.83-2.49-4.83-5.5s2.14-5.5,4.83-5.5h6.05c2.69,0,4.83,2.49,4.83,5.5s-2.14,5.5-4.83,5.5h-1.45
		c-0.26,0-0.51,0.13-0.65,0.35l-0.92,1.38L669.05,73.29z M669.18,64.39c-1.08,0.27-1.57,1.11-1.57,1.87c0,0.92,0.72,1.96,2.36,1.96
		c0.47,0,0.79,0.13,0.79,0.39c0,0.26-0.32,0.39-0.79,0.39h-1.57c-0.43,0-0.79,0.35-0.79,0.79c0,0.43,0.35,0.79,0.79,0.79h0.79
		c0,0.43,0.35,0.79,0.79,0.79c0.43,0,0.79-0.35,0.79-0.79v-0.09c1.08-0.27,1.57-1.11,1.57-1.87c0-0.92-0.72-1.96-2.36-1.96
		c-0.47,0-0.79-0.13-0.79-0.39c0-0.26,0.32-0.39,0.79-0.39h1.57c0.43,0,0.79-0.35,0.79-0.79c0-0.43-0.35-0.79-0.79-0.79h-0.79
		c0-0.43-0.35-0.79-0.79-0.79c-0.43,0-0.79,0.35-0.79,0.79V64.39z"/>
</g>
</svg>
