<?xml version="1.0" encoding="utf-8"?>
<!-- Generator: Adobe Illustrator 28.1.0, SVG Export Plug-In . SVG Version: 6.00 Build 0)  -->
<svg version="1.1" id="Layer_1" xmlns="http://www.w3.org/2000/svg" xmlns:xlink="http://www.w3.org/1999/xlink" x="0px" y="0px"
	 viewBox="0 0 110.55 76.54" style="enable-background:new 0 0 110.55 76.54;" xml:space="preserve">
<style type="text/css">
	.st0{display:none;}
	.st1{display:inline;fill:none;}
</style>
<g id="Layer_2_00000073722119373351752270000017113015111246931634_" class="st0">
	<line class="st1" x1="-24.13" y1="74.54" x2="142.13" y2="74.54"/>
	<line class="st1" x1="-24.13" y1="2" x2="142.13" y2="2"/>
</g>
<g>
	<path d="M59.99,42.79c-0.56,0.42-1.22,0.64-1.92,0.64c-0.52,0-1.03-0.13-1.48-0.37l2.22,10.55c0.19,0.91,0.09,1.88-0.27,2.73
		l-2.17,5.05l4.52,10.52c0.63,1.46,2.05,2.33,3.54,2.33c0.51,0,1.02-0.1,1.52-0.31c1.95-0.84,2.86-3.1,2.02-5.06l-6.33-14.72
		l2.79-13.24c0.08-0.39,0.1-0.78,0.07-1.16c0-0.04,0.01-0.07,0.01-0.11v-0.87C63.22,40.16,61.72,41.5,59.99,42.79z"/>
	<path d="M44.02,68.88c-0.84,1.95,0.06,4.22,2.02,5.06c0.5,0.21,1.01,0.31,1.52,0.31c1.49,0,2.91-0.87,3.54-2.33l6.81-15.84
		c0.31-0.72,0.39-1.54,0.23-2.31l-2.38-11.32c-0.02-0.02-0.03-0.04-0.05-0.05c-0.59-0.01-1.17-0.19-1.67-0.51
		c-2.62-1.69-4.79-3.36-6.54-5.04v2.81c0,0.04,0,0.07,0.01,0.1c-0.04,0.38-0.02,0.77,0.07,1.16v0l0.18,0.83l2.61,12.4L44.02,68.88z"
		/>
	<path d="M45.28,33.32c1.9,2.56,4.81,5.19,9.13,7.98c0.25,0.16,0.51,0.26,0.78,0.33c-0.66-1.35-0.29-3.03,0.96-3.96
		c0.3-0.22,0.58-0.45,0.86-0.67c-3.9-2.53-6.31-4.8-7.69-6.66c-1.4-1.9-1.76-3.32-1.76-4.43c0-0.69,0.14-1.3,0.39-1.88l0.66,0.2
		c-0.25,0.56-0.36,1.09-0.36,1.67c0.01,1.22,0.54,2.54,1.63,4.02c1.52,2.06,4.16,4.34,7.63,6.58c0.02,0.01,0.03,0.03,0.05,0.04
		c1.89-1.59,3.32-3.19,4.25-4.77c0.89-1.52,1.3-2.91,1.31-4.39c0-1.74-0.65-3.24-1.27-4.28l0.64-0.27c0.73,1.25,1.33,2.8,1.33,4.55
		c0,1.38-0.34,2.92-1.4,4.73c-1.06,1.81-2.88,3.88-5.85,6.11c-1.11,0.83-1.34,2.41-0.5,3.52c0.49,0.66,1.25,1.01,2.01,1.01
		c0.53,0,1.05-0.16,1.51-0.5c3.37-2.53,5.69-5.07,7.16-7.59c1.48-2.51,2.1-5.02,2.09-7.28c0-2.6-0.77-4.8-1.7-6.53
		c-0.3-0.55-0.61-1.06-0.91-1.51c-0.87-1.28-1.73-2.17-2.22-2.64c-0.44-0.59-1.15-0.97-1.94-0.97h-0.95
		c-1.37,1.21-3.16,1.94-5.12,1.94c-1.96,0-3.76-0.73-5.12-1.94h-0.95c-0.62,0-1.19,0.24-1.62,0.62c-0.57,0.37-1.56,1.08-2.59,2.15
		c-0.76,0.79-1.54,1.79-2.14,3.03c-0.16,0.33-0.31,0.67-0.44,1.03c-0.36,1-0.6,2.13-0.6,3.34C42.52,28.22,43.38,30.77,45.28,33.32z"
		/>
	<circle cx="55.99" cy="9.9" r="7.07"/>
	<path d="M46.41,15.51c0.06,0,0.12,0,0.18,0.01c0.17,0.01,0.32-0.12,0.34-0.29c0.01-0.17-0.12-0.32-0.29-0.34
		c-0.08-0.01-0.15-0.01-0.22-0.01c-1.07-0.01-1.7,0.55-1.98,1.08c-0.29,0.53-0.29,1.04-0.3,1.06c0,0.17,0.13,0.32,0.31,0.32
		c0,0,0,0,0.01,0c0.17,0,0.31-0.14,0.31-0.31h0c0,0,0-0.08,0.03-0.23C44.91,16.34,45.15,15.52,46.41,15.51z"/>
	<path d="M43.04,16.76c0.01,0,0.02,0,0.02,0c0.16,0,0.3-0.13,0.31-0.29h0c0,0,0.01-0.14,0.07-0.37c0.19-0.7,0.7-2.01,2.61-2.01
		c0.14,0,0.3,0.01,0.46,0.02c0.17,0.02,0.33-0.11,0.35-0.28c0.02-0.17-0.11-0.33-0.28-0.35c-0.18-0.02-0.36-0.03-0.52-0.03
		c-1.5-0.01-2.38,0.75-2.81,1.49c-0.44,0.74-0.49,1.45-0.49,1.47C42.74,16.6,42.86,16.75,43.04,16.76z"/>
	<path d="M47.36,51.87c-0.13-0.12-0.32-0.12-0.44,0.01c-0.54,0.55-0.74,1.13-0.74,1.63c0.01,1.01,0.74,1.63,0.76,1.65
		c0.06,0.05,0.13,0.08,0.21,0.08c0.09,0,0.17-0.04,0.24-0.11c0.11-0.13,0.1-0.33-0.03-0.44h0c0,0-0.03-0.02-0.08-0.08
		c-0.16-0.17-0.48-0.6-0.47-1.1c0-0.34,0.12-0.73,0.57-1.2C47.49,52.19,47.48,51.99,47.36,51.87z"/>
	<path d="M45.81,51.02c-0.89,0.86-1.21,1.74-1.21,2.5c0.01,1.38,0.96,2.29,0.98,2.31c0.06,0.06,0.14,0.09,0.22,0.09
		c0.08,0,0.16-0.03,0.23-0.09c0.12-0.12,0.12-0.32-0.01-0.44c0,0-0.04-0.04-0.12-0.13c-0.23-0.27-0.68-0.93-0.67-1.73
		c0-0.59,0.22-1.28,1.02-2.05c0.12-0.12,0.13-0.32,0.01-0.44C46.13,50.9,45.93,50.9,45.81,51.02z"/>
	<path d="M66.92,16.53c0,0,0.06,0.02,0.17,0.07c0.34,0.16,0.97,0.54,0.96,1.37c0,0.2-0.04,0.44-0.13,0.71
		c-0.05,0.16,0.04,0.34,0.2,0.4c0.03,0.01,0.07,0.02,0.1,0.02c0.13,0,0.25-0.08,0.3-0.22c0.11-0.33,0.16-0.63,0.16-0.91
		c0-0.79-0.41-1.33-0.8-1.63c-0.39-0.3-0.77-0.41-0.79-0.42c-0.17-0.05-0.34,0.05-0.39,0.22C66.66,16.31,66.75,16.49,66.92,16.53z"
		/>
	<path d="M67.82,15.34L67.82,15.34c0,0,0.1,0.03,0.26,0.12c0.51,0.27,1.48,0.92,1.47,2.24c0,0.36-0.07,0.79-0.26,1.28
		c-0.06,0.16,0.02,0.34,0.18,0.4c0.04,0.01,0.07,0.02,0.11,0.02c0.13,0,0.25-0.08,0.29-0.2c0.2-0.55,0.29-1.05,0.29-1.5
		c0-1.1-0.55-1.86-1.08-2.31c-0.53-0.45-1.05-0.63-1.08-0.64c-0.16-0.06-0.34,0.03-0.4,0.2C67.57,15.1,67.66,15.28,67.82,15.34z"/>
	<path d="M66.18,40.37c-0.16,0.06-0.24,0.24-0.18,0.41c0.05,0.13,0.17,0.2,0.29,0.2c0.04,0,0.07-0.01,0.11-0.02
		c1.24-0.45,1.59-1.39,1.57-2.05c0-0.52-0.16-0.89-0.17-0.92c-0.07-0.16-0.25-0.23-0.41-0.17c-0.16,0.07-0.23,0.25-0.17,0.41h0
		c0,0,0.03,0.06,0.06,0.18c0.03,0.12,0.06,0.3,0.06,0.49C67.33,39.4,67.19,39.98,66.18,40.37z"/>
	<path d="M66.93,42.23c0.03,0,0.07-0.01,0.1-0.02c2.01-0.65,2.49-2.11,2.47-3.1c0-0.65-0.17-1.12-0.18-1.14
		c-0.06-0.16-0.24-0.25-0.4-0.19c-0.16,0.06-0.25,0.24-0.19,0.4c0,0,0.03,0.09,0.07,0.25c0.04,0.17,0.07,0.4,0.07,0.68
		c-0.02,0.83-0.28,1.9-2.04,2.5c-0.16,0.05-0.25,0.23-0.2,0.4C66.68,42.15,66.8,42.23,66.93,42.23z"/>
	<path d="M45.82,38.07c-0.13-0.11-0.33-0.09-0.44,0.04c-0.45,0.54-0.63,1.07-0.63,1.55c0.01,1.09,0.86,1.7,0.88,1.73
		c0.06,0.04,0.12,0.07,0.19,0.07c0.09,0,0.19-0.04,0.25-0.12c0.11-0.14,0.08-0.34-0.06-0.44h0c0,0-0.03-0.02-0.09-0.08
		c-0.19-0.18-0.55-0.61-0.54-1.15c0-0.32,0.11-0.69,0.49-1.14C45.97,38.38,45.96,38.18,45.82,38.07z"/>
	<path d="M44.22,37.32c-0.76,0.84-1.04,1.67-1.04,2.38c0.01,1.49,1.12,2.41,1.14,2.44c0.06,0.05,0.13,0.08,0.2,0.08
		c0.09,0,0.18-0.04,0.24-0.11c0.11-0.13,0.1-0.33-0.04-0.44c0,0-0.05-0.04-0.14-0.13c-0.27-0.28-0.79-0.96-0.79-1.82
		c0-0.56,0.2-1.21,0.88-1.96c0.12-0.13,0.11-0.33-0.02-0.44C44.53,37.19,44.34,37.2,44.22,37.32z"/>
	<path d="M63.92,55.41c0.06,0.06,0.14,0.09,0.22,0.09c0.08,0,0.17-0.03,0.23-0.1c0.53-0.55,0.74-1.13,0.73-1.63
		c-0.01-1.02-0.75-1.63-0.77-1.66c-0.13-0.11-0.33-0.1-0.44,0.03c-0.11,0.13-0.1,0.33,0.03,0.44h0c0,0,0.03,0.02,0.08,0.08
		c0.16,0.17,0.48,0.6,0.48,1.1c0,0.33-0.12,0.73-0.56,1.19C63.79,55.09,63.79,55.29,63.92,55.41z"/>
	<path d="M65.25,56.34c0.08,0,0.16-0.03,0.22-0.09c0.88-0.86,1.2-1.74,1.2-2.5c-0.01-1.39-0.97-2.29-0.99-2.32
		c-0.12-0.12-0.32-0.12-0.44,0.01c-0.12,0.12-0.12,0.32,0.01,0.44h0c0,0,0.04,0.04,0.12,0.13c0.23,0.27,0.68,0.94,0.68,1.74
		c0,0.59-0.22,1.28-1.01,2.05c-0.12,0.12-0.13,0.32-0.01,0.44C65.09,56.31,65.17,56.34,65.25,56.34z"/>
</g>
</svg>
