<?xml version="1.0" encoding="utf-8"?>
<!-- Generator: Adobe Illustrator 28.1.0, SVG Export Plug-In . SVG Version: 6.00 Build 0)  -->
<svg version="1.1" id="Layer_1" xmlns="http://www.w3.org/2000/svg" xmlns:xlink="http://www.w3.org/1999/xlink" x="0px" y="0px"
	 viewBox="0 0 110.55 76.54" style="enable-background:new 0 0 110.55 76.54;" xml:space="preserve">
<style type="text/css">
	.st0{display:none;}
	.st1{display:inline;fill:none;}
	.st2{fill:none;}
	.st3{fill:#FFFFFF;}
	.st4{fill:#808080;}
</style>
<g id="Layer_2_00000073722119373351752270000017113015111246931634_" class="st0">
	<line class="st1" x1="-24.13" y1="74.54" x2="142.13" y2="74.54"/>
	<line class="st1" x1="-24.13" y1="2" x2="142.13" y2="2"/>
</g>
<g>
	<path class="st2" d="M-5240.72,925.05c-1.72,0-3.37,0.3-4.92,0.82l3.29,12.07l2.3,1.28c0.66,0.37,0.9,1.2,0.53,1.86
		c-0.25,0.45-0.71,0.7-1.19,0.7c-0.23,0-0.46-0.06-0.67-0.17l-2.8-1.56c-0.02-0.01-0.04-0.04-0.06-0.05
		c-0.1-0.06-0.19-0.14-0.27-0.23c-0.03-0.04-0.07-0.07-0.1-0.11c-0.08-0.11-0.14-0.24-0.19-0.38c0-0.02-0.02-0.04-0.03-0.06
		c0,0,0,0,0-0.01l-3.34-12.23c-4.72,2.63-7.92,7.66-7.92,13.44c0,8.48,6.9,15.37,15.37,15.37s15.37-6.9,15.37-15.37
		C-5225.34,931.95-5232.24,925.05-5240.72,925.05z"/>
	<path d="M-5339.6,903.64c-6.21,0-11.27,5.06-11.27,11.27v6.37c0,1.15,0.92,2.07,2.07,2.07c1.15,0,2.07-0.92,2.07-2.07v-6.37
		c0-1.53,0.54-2.99,1.3-4.14v33.36c0,1.38,1.15,2.53,2.53,2.53s2.53-1.15,2.53-2.53v-19.25h1.46v19.25c0,1.38,1.15,2.53,2.53,2.53
		s2.53-1.15,2.53-2.53v-33.36c0.84,1.15,1.3,2.61,1.3,4.14v6.37c0,1.15,0.92,2.07,2.07,2.07c1.15,0,2.07-0.92,2.07-2.07v-6.37
		C-5328.32,908.71-5333.39,903.64-5339.6,903.64z"/>
	<path d="M-5339.6,902.19c3.13,0,5.67-2.54,5.67-5.68c0-3.13-2.54-5.67-5.67-5.67c-3.13,0-5.68,2.54-5.68,5.67
		C-5345.27,899.65-5342.73,902.19-5339.6,902.19z"/>
	<path d="M-5307.39,914.92v5.83c1.33-0.33,2.72-0.53,4.14-0.58v-5.25c0.08-6.21-4.98-11.27-11.2-11.27
		c-6.21,0-11.27,5.06-11.27,11.27v6.37c0,1.15,0.92,2.07,2.07,2.07s2.07-0.92,2.07-2.07v-6.37c0-1.53,0.54-2.99,1.3-4.14v19.92
		c2.48-4.51,6.61-7.97,11.58-9.57v-10.34C-5307.85,911.93-5307.39,913.38-5307.39,914.92z"/>
	<path d="M-5314.44,902.19c3.13,0,5.67-2.54,5.67-5.68c0-3.13-2.54-5.67-5.67-5.67s-5.68,2.54-5.68,5.67
		C-5320.12,899.65-5317.58,902.19-5314.44,902.19z"/>
	<path class="st3" d="M-5320.27,944.14c0,0.49,0.15,0.96,0.4,1.35c-0.16-0.55-0.3-1.11-0.4-1.68V944.14z"/>
	<polygon class="st3" points="-5279.08,928.41 -5278.35,930.11 -5278.35,930.11 -5279.08,928.4 	"/>
	<path d="M-5313.75,933.59v10.55c0,1.38,1.15,2.53,2.53,2.53s2.53-1.15,2.53-2.53v-15.35
		C-5310.78,929.9-5312.52,931.57-5313.75,933.59z"/>
	<path class="st3" d="M-5303.56,941.23c-0.04-0.06-0.08-0.11-0.12-0.17c-0.03-0.06-0.06-0.13-0.08-0.19l-0.25,0.37H-5303.56z"/>
	<path d="M-5240.72,922.32c-1.97,0-3.86,0.33-5.64,0.91l-5.1-18.71l10.75-0.01c1.88,0,3.42,1.53,3.42,3.42
		c0,1.88-1.53,3.42-3.42,3.42c-0.76,0-1.37,0.61-1.37,1.37s0.61,1.37,1.37,1.37c3.39,0,6.15-2.76,6.15-6.15
		c0-3.39-2.76-6.15-6.15-6.15l-12.54,0.01c-0.06,0-0.12,0.03-0.18,0.04c-0.06,0.01-0.12,0-0.18,0.01c-0.03,0.01-0.05,0.03-0.08,0.04
		c-0.09,0.03-0.17,0.08-0.25,0.13c-0.07,0.04-0.14,0.08-0.21,0.14c-0.06,0.06-0.11,0.13-0.17,0.2c-0.05,0.07-0.11,0.14-0.14,0.22
		c-0.04,0.08-0.06,0.15-0.08,0.24c-0.03,0.09-0.05,0.18-0.06,0.28c0,0.03-0.02,0.06-0.02,0.09c0,0.06,0.03,0.12,0.04,0.18
		c0.01,0.06-0.01,0.12,0.01,0.18l2.93,10.74h-6.06c-0.17,0.95-0.43,1.86-0.76,2.73h5.31l-14.11,14.11c-0.21,0.88-0.3,1.77-0.24,2.72
		l0.05,1.34l16.9-16.9l1.64,6.04c-5.88,3-9.92,9.09-9.92,16.13c0,9.98,8.12,18.11,18.11,18.11c9.99,0,18.11-8.12,18.11-18.11
		C-5222.61,930.44-5230.73,922.32-5240.72,922.32z M-5240.72,955.8c-8.48,0-15.37-6.9-15.37-15.37c0-5.77,3.2-10.81,7.92-13.44
		l3.34,12.23c0,0,0,0,0,0.01c0.01,0.02,0.02,0.04,0.03,0.06c0.05,0.14,0.11,0.26,0.19,0.38c0.03,0.04,0.07,0.07,0.1,0.11
		c0.08,0.09,0.17,0.17,0.27,0.23c0.02,0.02,0.03,0.04,0.06,0.05l2.8,1.56c0.21,0.12,0.44,0.17,0.67,0.17c0.48,0,0.94-0.25,1.19-0.7
		c0.37-0.66,0.13-1.49-0.53-1.86l-2.3-1.28l-3.29-12.07c1.55-0.52,3.2-0.82,4.92-0.82c8.48,0,15.37,6.9,15.37,15.37
		C-5225.34,948.9-5232.24,955.8-5240.72,955.8z"/>
	<path d="M-5278.84,927.54l-4.55-10.55h11.13c0.75-1.05,1.25-1.93,1.56-2.73h-13.87l-3.56-8.26c1-0.09,1.98-0.18,2.84-0.26
		l-1.14-2.99l0.41-0.3l-9.11-0.82c-3.6-0.19-3.59,5.18,0,4.99c0,0,1.85-0.17,4.14-0.37l3.87,8.97l-6.4,9.48
		c-2.65-1.51-5.7-2.39-8.96-2.39c-0.36,0-0.71,0.01-1.07,0.03c-1.08,0.06-2.13,0.22-3.15,0.47c-0.68,0.16-1.35,0.36-1.99,0.6
		c-1.85,0.68-3.55,1.65-5.06,2.85c-0.51,0.41-1,0.84-1.46,1.29c-2.56,2.53-4.37,5.82-5.06,9.49c-0.21,1.09-0.32,2.22-0.32,3.37
		s0.11,2.28,0.32,3.37c0.11,0.57,0.24,1.13,0.4,1.68c2.19,7.53,9.15,13.05,17.38,13.05c9.52,0,17.33-7.39,18.04-16.74h2.55
		c0.22,0.85,0.59,1.64,1.08,2.35c0.23-1.26,0.74-2.39,1.47-3.33c-0.05-0.27-0.09-0.56-0.09-0.85c0-0.48,0.07-0.95,0.21-1.39
		l-0.08-1.09l-0.03-0.42l-0.21-2.68c-0.85,0.72-1.52,1.63-1.96,2.67c-0.27,0.63-0.46,1.3-0.55,2.01h-2.38
		c-0.39-5.18-2.96-9.76-6.81-12.82l5.42-8.03l4.03,9.35l2.16,5.01c0-1.39,0.2-2.79,0.56-4.18c0,0,0,0,0,0
		C-5279.01,928.12-5278.93,927.83-5278.84,927.54z M-5302.48,955.8c-6.36,0-11.83-3.88-14.16-9.4c-0.78-1.84-1.21-3.86-1.21-5.98
		c0-3.19,0.98-6.16,2.65-8.61c0.44-0.64,0.93-1.24,1.46-1.81c1.42-1.53,3.13-2.77,5.06-3.63c1.9-0.84,4-1.32,6.21-1.32
		c2.69,0,5.23,0.7,7.43,1.93l-8.56,12.68c-0.02,0.04-0.03,0.08-0.05,0.12c-0.04,0.08-0.08,0.17-0.11,0.26
		c-0.03,0.09-0.04,0.17-0.05,0.27c0,0.04-0.03,0.08-0.03,0.13c0,0.04,0.02,0.08,0.03,0.13c0.01,0.09,0.03,0.18,0.05,0.27
		c0,0.02,0.01,0.03,0.02,0.04c0.02,0.07,0.04,0.13,0.08,0.19c0.03,0.06,0.07,0.12,0.12,0.17c0.01,0.01,0.01,0.02,0.02,0.04
		c0.06,0.08,0.12,0.14,0.2,0.2c0.03,0.03,0.05,0.07,0.09,0.09c0.05,0.03,0.1,0.05,0.15,0.07c0.05,0.02,0.09,0.05,0.14,0.06
		c0.15,0.06,0.31,0.1,0.47,0.1h15.3C-5287.88,949.63-5294.47,955.8-5302.48,955.8z M-5299.91,939.06l7.12-10.55
		c3.13,2.55,5.23,6.3,5.61,10.55H-5299.91z"/>
	<path d="M-5262.02,917c0.42-0.88,0.76-1.78,0.98-2.73c0.21-0.89,0.33-1.82,0.33-2.81c0-5.34-3.65-10.33-11.74-10.33
		c-3.24,0-6.7,0.85-9.07,2.19c-0.35,0.2-0.68,0.41-0.98,0.62l0.54,1.42l1.14,3.01c1.76-1.34,4.57-2.18,7.1-2.18
		c4.43,0.07,6.68,2.46,6.68,6.05c0,0.69-0.1,1.37-0.26,2.03c-0.22,0.91-0.59,1.81-1.11,2.73c-0.83,1.5-2.02,3.07-3.55,4.86
		c-1.52,1.83-2.62,3.64-3.35,5.42c-0.37,0.91-0.64,1.81-0.82,2.7c-0.19,0.96-0.28,1.91-0.27,2.83c0.01,0.4,0.03,0.81,0.07,1.2
		l0.12,1.52l0.02,0.31h3.5h1.98l-0.07-1.83c0-0.05,0-0.1-0.01-0.15c-0.06-1.34,0.06-2.61,0.41-3.87c0.25-0.9,0.61-1.8,1.1-2.71
		c0.62-1.16,1.45-2.35,2.5-3.6C-5264.82,921.39-5263.12,919.28-5262.02,917z"/>
	<path d="M-5270.77,942.26c-0.71-0.63-1.63-1-2.73-1c-0.09,0-0.17,0.02-0.25,0.02c-1.37,0.07-2.51,0.72-3.2,1.76
		c-0.16,0.24-0.3,0.49-0.41,0.77c-0.23,0.56-0.35,1.19-0.35,1.87c0,2.46,1.69,4.36,4.15,4.36c0.48,0,0.93-0.07,1.34-0.19
		c1.8-0.54,2.87-2.17,2.87-4.17c0-0.25-0.03-0.49-0.06-0.72C-5269.56,943.84-5270.04,942.91-5270.77,942.26z"/>
</g>
<path class="st4" d="M818.86,1116.07v-0.51c0-1.08-0.87-1.95-1.95-1.95c-1.08,0-1.95,0.87-1.95,1.95v0.51c0,0.79,0,1.52-0.14,2.31
	h-22.84c-0.14-0.79-0.14-1.52-0.14-2.31v-0.51c0-1.08-0.87-1.95-1.95-1.95s-1.95,0.87-1.95,1.95v0.51c0,8.02,4.19,15.18,10.84,19.3
	c-7.23,3.47-10.84,7.66-10.84,12.57c0,4.91,3.69,9.11,10.84,12.57c-6.72,4.12-10.84,11.35-10.84,19.3v0.51
	c0,1.08,0.87,1.95,1.95,1.95s1.95-0.87,1.95-1.95v-0.51c0-0.79,0.07-1.52,0.14-2.31h22.91c0.07,0.79,0.07,1.52,0.07,2.31v0.51
	c0,1.08,0.87,1.95,1.95,1.95c1.08,0,1.95-0.87,1.95-1.95v-0.51c0-8.02-4.19-15.18-10.84-19.3c7.23-3.47,10.84-7.66,10.84-12.57
	c0-4.91-3.69-9.11-10.84-12.57C814.75,1131.24,818.86,1124.09,818.86,1116.07z M814.24,1121.34c-0.43,1.37-0.94,2.67-1.66,3.83
	h-18.36c-0.65-1.23-1.23-2.53-1.66-3.83H814.24z M814.96,1147.94c0,0.65-0.14,1.3-0.36,1.95h-22.4c-0.29-0.65-0.36-1.3-0.36-1.95
	s0.14-1.3,0.36-1.95h22.47C814.89,1146.64,814.96,1147.29,814.96,1147.94z M812.58,1152.85c-2.31,2.24-5.85,4.05-9.18,5.42
	c-3.32-1.3-6.87-3.11-9.18-5.42H812.58z M794.22,1143.02c2.31-2.24,5.85-4.05,9.18-5.42c3.32,1.3,6.87,3.11,9.18,5.42H794.22z
	 M792.56,1174.53c0.43-1.37,0.94-2.67,1.66-3.83h18.36c0.65,1.23,1.23,2.53,1.66,3.83H792.56z M810.48,1167.67h-14.16
	c1.88-2.17,4.26-3.97,7.08-5.13C806.22,1163.69,808.6,1165.5,810.48,1167.67z M803.4,1133.41c-2.82-1.23-5.2-2.96-7.08-5.13h14.16
	C808.6,1130.38,806.22,1132.18,803.4,1133.41z"/>
<g>
	<path d="M59.99,75.12c-2.44,0-4.78-0.98-6.51-2.7l-6.99-6.98c-0.25-0.31-0.2-0.77,0.11-1.02c0.26-0.21,0.64-0.21,0.9,0l0,0
		c3.05,3.04,7.98,3.03,11.01-0.02c0.3-0.3,0.58-0.63,0.82-0.98l8.69-12.16c1.96-2.76,4.32-5.21,6.99-7.28l0.07-0.05
		c0.33-0.25,0.68-0.51,1.03-0.76l12.19-8.68c3.51-2.49,4.33-7.35,1.84-10.86c-0.26-0.36-0.54-0.7-0.85-1.01
		c-0.28-0.28-0.28-0.74,0-1.02c0.28-0.28,0.74-0.28,1.02,0l6.98,6.98c3.61,3.6,3.61,9.43,0.02,13.04c-0.37,0.37-0.76,0.7-1.19,1
		l-12.19,8.68c-0.35,0.25-0.68,0.5-1.01,0.72c-2.58,2-4.85,4.36-6.75,7.01l-8.68,12.19c-1.56,2.24-4.03,3.67-6.75,3.91
		C60.5,75.12,60.23,75.12,59.99,75.12z M51.02,67.88l3.46,3.47c3.04,3.04,7.98,3.04,11.01-0.01c0.3-0.3,0.58-0.63,0.83-0.98
		l8.68-12.19c1.96-2.76,4.32-5.21,6.99-7.28c0.4-0.3,0.72-0.56,1.1-0.82l12.19-8.68c3.5-2.5,4.32-7.36,1.82-10.86
		c-0.25-0.35-0.53-0.68-0.83-0.98l-3.47-3.46c0.2,0.9,0.26,1.83,0.19,2.76c-0.21,2.72-1.61,5.2-3.83,6.79l-12.19,8.68
		c-0.34,0.24-0.67,0.49-1,0.72l-0.07,0.04c-2.56,1.98-4.82,4.33-6.69,6.97l-8.69,12.21c-1.58,2.21-4.05,3.62-6.75,3.84
		c-0.92,0.07-1.85,0.01-2.76-0.19L51.02,67.88z"/>
	<path d="M77.87,38.7c-1.66,0-3.01-1.34-3.01-3.01c0-1.66,1.34-3.01,3.01-3.01c0.8,0,1.57,0.32,2.13,0.88l0,0
		c1.17,1.18,1.17,3.08,0,4.25C79.43,38.38,78.66,38.69,77.87,38.7z M77.87,34.13c-0.86,0-1.56,0.7-1.56,1.57
		c0,0.86,0.7,1.56,1.57,1.56s1.56-0.7,1.56-1.57c0-0.41-0.17-0.81-0.46-1.1l0,0C78.68,34.29,78.28,34.13,77.87,34.13z"/>
	<path d="M79.44,29.13c-1.84,0-3.33-1.49-3.33-3.32c0-1.84,1.49-3.33,3.32-3.33c0.88,0,1.73,0.35,2.36,0.98l0,0
		c1.3,1.3,1.3,3.41,0,4.7C81.16,28.78,80.32,29.13,79.44,29.13z M79.44,23.93c-1.04,0-1.88,0.85-1.88,1.89
		c0,0.49,0.2,0.97,0.54,1.32c0.74,0.71,1.91,0.71,2.65,0c0.73-0.72,0.74-1.91,0.02-2.64c-0.01-0.01-0.01-0.01-0.02-0.02l0,0
		C80.41,24.13,79.93,23.93,79.44,23.93z"/>
	<path d="M55.48,62.02c-1.66,0-3.01-1.34-3.01-3.01c0-1.66,1.34-3.01,3.01-3.01c0.8,0,1.57,0.32,2.13,0.88l0,0
		c1.17,1.19,1.16,3.09-0.03,4.26c-0.57,0.56-1.34,0.88-2.14,0.87H55.48z M55.48,57.45c-0.86,0-1.56,0.7-1.56,1.57
		c0,0.41,0.17,0.81,0.46,1.1c0.61,0.62,1.61,0.62,2.22,0.01c0.62-0.61,0.62-1.61,0.01-2.22l0,0l0,0
		C56.32,57.6,55.91,57.44,55.48,57.45z"/>
	<g>
		<path d="M69.27,28.67c-1.83,0-3.32-1.48-3.33-3.31c0,0,0-0.01,0-0.01c0-0.88,0.35-1.72,0.98-2.34c1.29-1.3,3.4-1.31,4.7-0.02
			c1.3,1.29,1.31,3.4,0.02,4.7C71.02,28.32,70.16,28.68,69.27,28.67z M69.27,23.47c-1.04,0-1.88,0.84-1.88,1.88
			c0,1.04,0.84,1.88,1.88,1.88c1.04,0,1.88-0.84,1.88-1.88c0-0.5-0.2-0.98-0.55-1.33C70.25,23.67,69.77,23.47,69.27,23.47z"/>
		<path d="M67.87,18.11c-0.88,0-1.73-0.35-2.35-0.97c-1.29-1.31-1.28-3.41,0.03-4.7c0.62-0.61,1.45-0.95,2.32-0.96l0,0
			c0.88,0,1.73,0.35,2.35,0.98c1.3,1.29,1.3,3.4,0.01,4.69c-0.62,0.63-1.47,0.98-2.36,0.98V18.11z M67.87,12.91L67.87,12.91
			C66.83,12.91,66,13.76,66,14.8c0,0.49,0.2,0.96,0.54,1.31c0.72,0.75,1.91,0.76,2.66,0.04c0.75-0.72,0.76-1.91,0.04-2.66
			c-0.36-0.37-0.86-0.58-1.38-0.57V12.91z"/>
		<g>
			<path d="M44.5,39.92c-1.64-1.64-4.29-1.64-5.93,0c-1.64,1.64-1.64,4.29,0,5.93c0.78,0.79,1.85,1.23,2.97,1.23
				c1.12,0.01,2.19-0.44,2.97-1.23C46.13,44.21,46.13,41.56,44.5,39.92z M43.47,44.83c-1.09,1.03-2.8,1.03-3.89,0
				c-0.52-0.52-0.81-1.22-0.81-1.95c0-1.52,1.23-2.75,2.75-2.74c0.73,0,1.43,0.29,1.95,0.81C44.55,42.02,44.55,43.76,43.47,44.83z"
				/>
			<path d="M63.28,45.9c-1.66,0-3.01,1.35-3.01,3.01c0,1.66,1.35,3.01,3.01,3.01c0.8,0,1.56-0.32,2.12-0.88
				c1.18-1.17,1.18-3.08,0-4.25C64.85,46.22,64.08,45.9,63.28,45.9z M64.39,50.01c-0.61,0.61-1.6,0.61-2.21,0
				c-0.61-0.61-0.61-1.6,0-2.21c0.29-0.3,0.69-0.47,1.11-0.46c0.42,0,0.82,0.17,1.11,0.46C65,48.42,65,49.4,64.39,50.01z"/>
			<path d="M44.28,49.21c-0.6,0.61-0.94,1.43-0.94,2.28c-0.01,1.8,1.45,3.26,3.24,3.26c0.87,0,1.7-0.34,2.31-0.95
				c1.27-1.27,1.26-3.33-0.01-4.59C47.61,47.95,45.55,47.95,44.28,49.21z M47.85,52.77c-0.71,0.68-1.83,0.68-2.55,0
				c-0.34-0.34-0.53-0.8-0.53-1.27c0-0.99,0.81-1.8,1.8-1.8v0.01c0.48-0.01,0.94,0.18,1.28,0.51c0.34,0.34,0.52,0.8,0.52,1.27
				C48.38,51.97,48.19,52.43,47.85,52.77z"/>
			<path d="M90.33,21.6L77.11,8.39c-0.36-0.36-0.76-0.7-1.18-1c-4.15-2.95-9.91-1.98-12.86,2.18l-8.68,12.19
				c-1.28,1.8-2.73,3.46-4.34,4.97c-0.08,0.08-0.17,0.14-0.25,0.22L47.14,13.7l-6.47,7.24L18.15,0.81L10.39,9.5l22.52,20.12
				l-6.47,7.24l8.81,0.76l-0.8,0.57c-0.42,0.3-0.82,0.63-1.18,1c-3.6,3.6-3.6,9.44,0,13.04l13.21,13.21c1.72,1.73,4.07,2.7,6.51,2.7
				c0.26,0,0.51-0.01,0.77-0.03c2.71-0.22,5.18-1.63,6.75-3.84l8.69-12.21c1.87-2.64,4.13-4.99,6.69-6.97l0.07-0.04
				c0.33-0.23,0.66-0.48,1-0.72l12.19-8.68c0.42-0.3,0.8-0.63,1.17-0.99C93.93,31.05,93.93,25.2,90.33,21.6z M88.32,34.48
				l-12.19,8.68c-0.35,0.25-0.69,0.51-1.03,0.76l-0.07,0.05c-2.68,2.07-5.03,4.52-6.99,7.28l-8.69,12.17
				c-0.25,0.35-0.53,0.68-0.83,0.98c-3.04,3.04-7.97,3.05-11.01,0.01L34.3,51.16c-0.3-0.3-0.58-0.63-0.82-0.98
				c-2.5-3.5-1.68-8.37,1.82-10.86l2.12-1.51l12.41,1.07c-0.07,0.29-0.11,0.59-0.11,0.89c0,2.21,1.79,4,4,4s4-1.79,4-4
				c0-2.21-1.79-4-4-4c-0.75,0-1.44,0.22-2.04,0.57l-1.57-7.8c0.31-0.27,0.62-0.52,0.92-0.8c1.68-1.57,3.2-3.31,4.54-5.19
				l8.68-12.19c1.33-1.87,3.41-3.05,5.69-3.24c0.22,0,0.44,0,0.66,0c2.06,0,4.03,0.82,5.49,2.27l13.21,13.21
				c0.31,0.31,0.6,0.65,0.85,1.01C92.65,27.13,91.82,31.99,88.32,34.48z M52.24,39.08L52,37.9c0.45-0.42,1.06-0.69,1.72-0.69
				c0.68-0.01,1.33,0.25,1.82,0.72c0.01,0.01,0.01,0.01,0.02,0.02c0.99,1,0.98,2.61-0.02,3.6c-1.01,0.97-2.61,0.97-3.62,0
				c-0.47-0.48-0.74-1.12-0.74-1.79c0-0.27,0.05-0.52,0.13-0.76L52.24,39.08z"/>
			<path d="M63.13,33.96c-1.64,1.64-1.64,4.29,0,5.93c0.78,0.79,1.85,1.23,2.97,1.23c1.11,0,2.18-0.44,2.97-1.23c0,0,0,0,0,0
				c1.64-1.64,1.64-4.29,0-5.93S64.77,32.33,63.13,33.96z M66.11,39.68c-1.52,0-2.75-1.23-2.75-2.74s1.23-2.75,2.74-2.75v-0.03
				c0.73,0.01,1.43,0.31,1.95,0.83c0.52,0.51,0.81,1.21,0.81,1.94C68.85,38.44,67.63,39.68,66.11,39.68z"/>
			<path d="M57.79,25.27c-1.83-0.01-3.32,1.47-3.32,3.3c-0.01,1.83,1.47,3.32,3.3,3.32c0.88,0,1.73-0.34,2.35-0.97
				c0.62-0.62,0.97-1.46,0.97-2.33C61.09,26.76,59.62,25.27,57.79,25.27z M59.09,29.89c-0.74,0.71-1.91,0.71-2.65,0
				c-0.73-0.73-0.73-1.92,0-2.65c0.35-0.35,0.83-0.55,1.33-0.55v-0.03c0.5,0.01,0.98,0.22,1.32,0.58
				C59.82,27.97,59.82,29.16,59.09,29.89z"/>
		</g>
	</g>
</g>
</svg>
