<?xml version="1.0" encoding="utf-8"?>
<!-- Generator: Adobe Illustrator 28.1.0, SVG Export Plug-In . SVG Version: 6.00 Build 0)  -->
<svg version="1.1" id="Layer_1" xmlns="http://www.w3.org/2000/svg" xmlns:xlink="http://www.w3.org/1999/xlink" x="0px" y="0px"
	 viewBox="0 0 110.55 76.54" style="enable-background:new 0 0 110.55 76.54;" xml:space="preserve">
<style type="text/css">
	.st0{display:none;}
	.st1{display:inline;fill:none;}
</style>
<g id="Layer_2_00000073722119373351752270000017113015111246931634_" class="st0">
	<line class="st1" x1="-24.13" y1="74.54" x2="142.13" y2="74.54"/>
	<line class="st1" x1="-24.13" y1="2" x2="142.13" y2="2"/>
</g>
<path d="M86.77,71.45l-7.19-19.24c-0.18-0.48-0.54-0.86-1.01-1.07c-0.07-0.03-0.14-0.06-0.21-0.07c0.92-3.04,1.74-6.29,1.71-8.2
	c-0.06-3.66-3.79-12.69-4.21-13.71c0-0.01-0.01-0.02-0.02-0.04c-0.07-0.16-7.26-16.4-9.64-22.29c-1.31-3.25-4.95-4.96-8.29-3.91
	c-1.15,0.36-2.12,0.99-2.88,1.81c-0.76-0.81-1.73-1.45-2.88-1.81c-3.34-1.05-6.98,0.66-8.29,3.91c-2.38,5.89-9.57,22.13-9.64,22.29
	c-0.01,0.01-0.01,0.03-0.02,0.04c-0.42,1.02-4.15,10.05-4.21,13.71c-0.03,1.91,0.78,5.16,1.71,8.2c-0.07,0.02-0.14,0.04-0.2,0.07
	c-0.47,0.21-0.83,0.59-1,1.07l-7.25,19.4c-0.22,0.58-0.14,1.23,0.22,1.74c0.35,0.51,0.93,0.81,1.56,0.81h19.43
	c0.78,0,1.47-0.47,1.76-1.19l5.04-12.66c0.18-0.45,0.18-0.94,0-1.39c1.5-0.6,2.81-1.6,3.78-2.86c0.98,1.26,2.28,2.26,3.79,2.86
	c-0.18,0.45-0.18,0.94,0,1.39l5.04,12.66c0.29,0.72,0.99,1.19,1.76,1.19h19.42h0.01c1.05,0,1.9-0.85,1.9-1.89
	C86.96,71.98,86.89,71.7,86.77,71.45 M55.04,28.19c-0.75-0.8-1.69-1.42-2.74-1.8c0.65-2.32,1.75-6.28,2.74-9.74
	c0.98,3.47,2.09,7.42,2.74,9.74C56.73,26.77,55.79,27.39,55.04,28.19 M43.17,70.38H27.76l5.62-15.04l13.65,5.35L43.17,70.38z
	 M47.91,55.78L47.91,55.78c-1.97,0-3.93-0.37-5.78-1.09l-6.03-2.36c-1.21-3.67-2.33-7.68-2.3-9.4c0.04-2.21,2.41-8.71,3.91-12.3
	C38,29.99,45.03,14.1,47.39,8.25c0.58-1.43,2.17-2.18,3.64-1.72c1.56,0.49,2.39,2.19,1.89,3.86c-1.11,3.69-3.57,12.49-4.47,15.74
	c-3.16,0.68-5.53,3.5-5.53,6.85v9.28c0,1.05,0.85,1.9,1.9,1.9c1.05,0,1.89-0.85,1.89-1.9v-9.28c0-1.76,1.43-3.2,3.19-3.22
	c0.02,0,0.04,0,0.07,0c1.76,0.02,3.19,1.46,3.19,3.22v17.56C53.15,53.44,50.8,55.78,47.91,55.78 M56.94,50.54V32.98
	c0-1.77,1.45-3.22,3.22-3.22h0.03c1.76,0,3.19,1.43,3.19,3.19v9.32c0,1.05,0.85,1.9,1.89,1.9c1.05,0,1.9-0.85,1.9-1.9v-9.28
	c0-3.35-2.37-6.17-5.53-6.85c-0.91-3.25-3.36-12.05-4.47-15.74c-0.5-1.67,0.33-3.36,1.89-3.86c1.47-0.46,3.06,0.29,3.64,1.72
	c2.36,5.85,9.39,21.74,9.68,22.39c1.5,3.59,3.87,10.08,3.91,12.3c0.03,1.72-1.09,5.72-2.3,9.4l-6.03,2.36
	c-1.84,0.72-3.8,1.09-5.78,1.09h0C59.29,55.78,56.94,53.44,56.94,50.54 M66.92,70.38l-3.86-9.69l13.65-5.34l5.62,15.04H66.92z"/>
</svg>
