<?xml version="1.0" encoding="utf-8"?>
<!-- Generator: Adobe Illustrator 28.1.0, SVG Export Plug-In . SVG Version: 6.00 Build 0)  -->
<svg version="1.1" id="Layer_1" xmlns="http://www.w3.org/2000/svg" xmlns:xlink="http://www.w3.org/1999/xlink" x="0px" y="0px"
	 viewBox="0 0 110.55 76.54" style="enable-background:new 0 0 110.55 76.54;" xml:space="preserve">
<style type="text/css">
	.st0{display:none;}
	.st1{display:inline;fill:none;}
	.st2{fill:none;}
	.st3{fill:#FFFFFF;}
</style>
<g id="Layer_2_00000073722119373351752270000017113015111246931634_" class="st0">
	<line class="st1" x1="-24.13" y1="74.54" x2="142.13" y2="74.54"/>
	<line class="st1" x1="-24.13" y1="2" x2="142.13" y2="2"/>
</g>
<g>
	<path class="st2" d="M83.58,57.1c-0.99,0.78-0.83,2.41,0.08,3.77c0.91,1.36,2.55,1.83,3.47,0.87c1.18-0.84,1.2-2.54,0.11-3.83
		C86.14,56.6,84.57,56.32,83.58,57.1z M86.36,60.75c-0.68,0.45-1.63,0.16-2.08-0.52c-0.45-0.68-0.41-1.75,0.08-2.14
		c0.68-0.45,1.63-0.16,2.08,0.52C86.96,59.48,86.85,60.36,86.36,60.75z"/>
	<path class="st2" d="M51.34,49.88h-2.05v-2.05h2.53l4.67-18.67c0.01-0.03,0.02-0.06,0.03-0.1c0.19-0.53,0.78-0.81,1.31-0.62
		l5.66,2.02l1.27-2.54l1.83,0.92l-1.17,2.32l1.78,0.64l0.56-1.69l1.94,0.65l-0.58,1.73l3.02,1.08c0.51,0.18,0.79,0.73,0.64,1.24
		c-0.21,0.76-0.55,2.98,0.44,4.11c0.85,0.75,2,1.04,3.1,0.79l3.28-4.91l-12.48-8.64c-0.34-0.24-0.51-0.66-0.42-1.07l3.07-13.31
		c0.02-0.1,0.07-0.2,0.12-0.3l5.21-8.68H62.09l-2.64,3.52l-0.79,2.9l6.28,1.79l-0.27,0.95l-0.29,1.02l-6.25-1.79l-0.84,3.07
		l8.71,2.9l-0.31,0.94l-0.33,1.01l-8.61-2.87l-0.31,1.15c-0.11,0.41-0.47,0.71-0.89,0.75c-0.08,0-7.95,0.77-11.29,1.02
		c-2.88,0.22-5.39,2.78-6.24,6.38L37,31.62c-0.02,0.14-0.08,0.28-0.16,0.4l-2.68,4.02l1.27,0.63l-0.92,1.83l-1.5-0.75l-1.57,2.35
		l1.8,0.6l-0.65,1.94l-2.33-0.78l-1.24,1.85h1.84v2.05h-2.05v2.05h3.07v2.05h-2.78l3.58,4.48c0.93,1.02,2.16,1.7,3.51,1.95
		c-4.78-6.89-2.26-11.81-2.14-12.03l7.04-13.08c0.03-4.75,0.95-7.86,2.73-9.25c0.36-0.3,0.77-0.51,1.21-0.63
		c0.46-0.13,0.95-0.15,1.42-0.06l-0.25,0.99l-0.21,1c-0.36-0.02-0.71,0.11-0.97,0.36c-0.71,0.59-1.89,2.41-1.89,7.85
		c0,0.17-0.04,0.33-0.12,0.48l-0.51,0.95l1.98,0.66l-0.65,1.94l-2.32-0.77l-1.3,2.42l2.47,1.65l-1.14,1.7l-2.31-1.54L37.62,42
		l3.69,0.74l-0.4,2.01l-4.3-0.86l-0.74,1.37c-0.22,0.5-0.37,1.02-0.44,1.56h4.66v2.05h-4.71c0.33,2.56,1.37,4.97,3.01,6.96l4.4-1.76
		l0.76,1.9l-3.79,1.51c1.32,1.23,4.09,2.71,8.7,0.46c-2.31-2.03-3.82-4.82-4.26-7.86c-0.56-3.23,2.56-15.74,3.05-17.71
		c0.02-4.34,1.09-7.23,3.18-8.61c1.64-0.96,3.64-1.11,5.41-0.39l-0.43,1l-0.37,0.88c-1.14-0.45-2.42-0.37-3.49,0.22
		c-1.47,0.99-2.25,3.41-2.25,7.02c0,0.09-0.01,0.17-0.03,0.25c-0.06,0.25-0.13,0.51-0.19,0.77h3.3v2.05h-3.79
		c-0.28,1.19-0.57,2.43-0.84,3.68l2.34-0.58l0.5,1.99l-3.3,0.82c-0.22,1.1-0.42,2.17-0.59,3.16l3.4-0.85l0.5,1.99l-4.23,1.06
		c-0.16,0.96-0.21,1.93-0.13,2.9c0.18,1.02,0.47,2.02,0.89,2.97l1.47-1.47l1.45,1.45l-1.88,1.88c0.74,1.06,1.67,1.97,2.74,2.68
		l0.51-1.52c0.14-0.42,0.53-0.7,0.97-0.7h2.93l-3.72-4.46C51.42,50.35,51.34,50.12,51.34,49.88z"/>
	<g>
		<path class="st2" d="M51.34,49.88h-2.05v-2.05h2.53l4.67-18.67c0.01-0.03,0.02-0.06,0.03-0.1c0.19-0.53,0.78-0.81,1.31-0.62
			l5.66,2.02l1.27-2.54l1.83,0.92l-1.17,2.32l1.78,0.64l0.56-1.69l1.94,0.65l-0.58,1.73l3.02,1.08c0.51,0.18,0.79,0.73,0.64,1.24
			c-0.21,0.76-0.55,2.98,0.44,4.11c0.85,0.75,2,1.04,3.1,0.79l3.28-4.91l-12.48-8.64c-0.34-0.24-0.51-0.66-0.42-1.07l3.07-13.31
			c0.02-0.1,0.07-0.2,0.12-0.3l5.21-8.68H62.09l-2.64,3.52l-0.79,2.9l6.28,1.79l-0.27,0.95l-0.29,1.02l-6.25-1.79l-0.84,3.07
			l8.71,2.9l-0.31,0.94l-0.33,1.01l-8.61-2.87l-0.31,1.15c-0.11,0.41-0.47,0.71-0.89,0.75c-0.08,0-7.95,0.77-11.29,1.02
			c-2.88,0.22-5.39,2.78-6.24,6.38L37,31.62c-0.02,0.14-0.08,0.28-0.16,0.4l-2.68,4.02l1.27,0.63l-0.92,1.83l-1.5-0.75l-1.57,2.35
			l1.8,0.6l-0.65,1.94l-2.33-0.78l-1.24,1.85h1.84v2.05h-2.05v2.05h3.07v2.05h-2.78l3.58,4.48c0.93,1.02,2.16,1.7,3.51,1.95
			c-4.78-6.89-2.26-11.81-2.14-12.03l7.04-13.08c0.03-4.75,0.95-7.86,2.73-9.25c0.36-0.3,0.77-0.51,1.21-0.63
			c0.46-0.13,0.95-0.15,1.42-0.06l-0.25,0.99l-0.21,1c-0.36-0.02-0.71,0.11-0.97,0.36c-0.71,0.59-1.89,2.41-1.89,7.85
			c0,0.17-0.04,0.33-0.12,0.48l-0.51,0.95l1.98,0.66l-0.65,1.94l-2.32-0.77l-1.3,2.42l2.47,1.65l-1.14,1.7l-2.31-1.54L37.62,42
			l3.69,0.74l-0.4,2.01l-4.3-0.86l-0.74,1.37c-0.22,0.5-0.37,1.02-0.44,1.56h4.66v2.05h-4.71c0.33,2.56,1.37,4.97,3.01,6.96
			l4.4-1.76l0.76,1.9l-3.79,1.51c1.32,1.23,4.09,2.71,8.7,0.46c-2.31-2.03-3.82-4.82-4.26-7.86c-0.56-3.23,2.56-15.74,3.05-17.71
			c0.02-4.34,1.09-7.23,3.18-8.61c1.64-0.96,3.64-1.11,5.41-0.39l-0.43,1l-0.37,0.88c-1.14-0.45-2.42-0.37-3.49,0.22
			c-1.47,0.99-2.25,3.41-2.25,7.02c0,0.09-0.01,0.17-0.03,0.25c-0.06,0.25-0.13,0.51-0.19,0.77h3.3v2.05h-3.79
			c-0.28,1.19-0.57,2.43-0.84,3.68l2.34-0.58l0.5,1.99l-3.3,0.82c-0.22,1.1-0.42,2.17-0.59,3.16l3.4-0.85l0.5,1.99l-4.23,1.06
			c-0.16,0.96-0.21,1.93-0.13,2.9c0.18,1.02,0.47,2.02,0.89,2.97l1.47-1.47l1.45,1.45l-1.88,1.88c0.74,1.06,1.67,1.97,2.74,2.68
			l0.51-1.52c0.14-0.42,0.53-0.7,0.97-0.7h2.93l-3.72-4.46C51.42,50.35,51.34,50.12,51.34,49.88z"/>
		<path class="st2" d="M81.12,36.22l-2.81,4.22c2.9,2.74,1.39,8.28-0.02,11.83c3.22-2.36,5.05-4.98,5.44-7.81
			C84.22,40.87,82.29,37.74,81.12,36.22z"/>
		<path class="st2" d="M83.58,57.1c-0.99,0.78-0.83,2.41,0.08,3.77c0.91,1.36,2.55,1.83,3.47,0.87c1.18-0.84,1.2-2.54,0.11-3.83
			C86.14,56.6,84.57,56.32,83.58,57.1z"/>
	</g>
	<path d="M84.35,58.09c-0.49,0.39-0.53,1.46-0.08,2.14c0.45,0.68,1.4,0.98,2.08,0.52c0.49-0.39,0.6-1.27,0.08-2.14
		C85.98,57.93,85.04,57.63,84.35,58.09z"/>
	<path class="st3" d="M26.78,43.74c0-0.2,0.06-0.4,0.17-0.57C26.84,43.34,26.78,43.54,26.78,43.74z"/>
	<path class="st3" d="M57.69,5.25c-0.08,0.1-0.13,0.22-0.17,0.34l-2.88,10.58L57.52,5.6C57.55,5.47,57.61,5.36,57.69,5.25z"/>
	<path class="st3" d="M37.69,58.26C37.69,58.26,37.69,58.26,37.69,58.26c0.4,0.46,0.84,0.87,1.32,1.22
		C38.53,59.13,38.09,58.72,37.69,58.26z"/>
	<path class="st3" d="M50.77,59.94c-0.02-0.02-0.14-0.12-0.26-0.25C50.63,59.82,50.75,59.93,50.77,59.94z"/>
	<path class="st3" d="M36,25.15c0.17-0.72,0.39-1.4,0.66-2.04C36.4,23.74,36.17,24.43,36,25.15l-0.19,1.15l-0.8,4.78L36,25.15z"/>
	<g>
		<path class="st2" d="M51.34,49.88h-2.05v-2.05h2.53l4.67-18.67c0.01-0.03,0.02-0.06,0.03-0.1c0.19-0.53,0.78-0.81,1.31-0.62
			l5.66,2.02l1.27-2.54l1.83,0.92l-1.17,2.32l1.78,0.64l0.56-1.69l1.94,0.65l-0.58,1.73l3.02,1.08c0.51,0.18,0.79,0.73,0.64,1.24
			c-0.21,0.76-0.55,2.98,0.44,4.11c0.85,0.75,2,1.04,3.1,0.79l3.28-4.91l-12.48-8.64c-0.34-0.24-0.51-0.66-0.42-1.07l3.07-13.31
			c0.02-0.1,0.07-0.2,0.12-0.3l5.21-8.68H62.09l-2.64,3.52l-0.79,2.9l6.28,1.79l-0.27,0.95l-0.29,1.02l-6.25-1.79l-0.84,3.07
			l8.71,2.9l-0.31,0.94l-0.33,1.01l-8.61-2.87l-0.31,1.15c-0.11,0.41-0.47,0.71-0.89,0.75c-0.08,0-7.95,0.77-11.29,1.02
			c-2.88,0.22-5.39,2.78-6.24,6.38L37,31.62c-0.02,0.14-0.08,0.28-0.16,0.4l-2.68,4.02l1.27,0.63l-0.92,1.83l-1.5-0.75l-1.57,2.35
			l1.8,0.6l-0.65,1.94l-2.33-0.78l-1.24,1.85h1.84v2.05h-2.05v2.05h3.07v2.05h-2.78l3.58,4.48c0.93,1.02,2.16,1.7,3.51,1.95
			c-4.78-6.89-2.26-11.81-2.14-12.03l7.04-13.08c0.03-4.75,0.95-7.86,2.73-9.25c0.36-0.3,0.77-0.51,1.21-0.63
			c0.46-0.13,0.95-0.15,1.42-0.06l-0.25,0.99l-0.21,1c-0.36-0.02-0.71,0.11-0.97,0.36c-0.71,0.59-1.89,2.41-1.89,7.85
			c0,0.17-0.04,0.33-0.12,0.48l-0.51,0.95l1.98,0.66l-0.65,1.94l-2.32-0.77l-1.3,2.42l2.47,1.65l-1.14,1.7l-2.31-1.54L37.62,42
			l3.69,0.74l-0.4,2.01l-4.3-0.86l-0.74,1.37c-0.22,0.5-0.37,1.02-0.44,1.56h4.66v2.05h-4.71c0.33,2.56,1.37,4.97,3.01,6.96
			l4.4-1.76l0.76,1.9l-3.79,1.51c1.32,1.23,4.09,2.71,8.7,0.46c-2.31-2.03-3.82-4.82-4.26-7.86c-0.56-3.23,2.56-15.74,3.05-17.71
			c0.02-4.34,1.09-7.23,3.18-8.61c1.64-0.96,3.64-1.11,5.41-0.39l-0.43,1l-0.37,0.88c-1.14-0.45-2.42-0.37-3.49,0.22
			c-1.47,0.99-2.25,3.41-2.25,7.02c0,0.09-0.01,0.17-0.03,0.25c-0.06,0.25-0.13,0.51-0.19,0.77h3.3v2.05h-3.79
			c-0.28,1.19-0.57,2.43-0.84,3.68l2.34-0.58l0.5,1.99l-3.3,0.82c-0.22,1.1-0.42,2.17-0.59,3.16l3.4-0.85l0.5,1.99l-4.23,1.06
			c-0.16,0.96-0.21,1.93-0.13,2.9c0.18,1.02,0.47,2.02,0.89,2.97l1.47-1.47l1.45,1.45l-1.88,1.88c0.74,1.06,1.67,1.97,2.74,2.68
			l0.51-1.52c0.14-0.42,0.53-0.7,0.97-0.7h2.93l-3.72-4.46C51.42,50.35,51.34,50.12,51.34,49.88z"/>
		<path class="st2" d="M57.48,57.04H53.1l-0.53,1.57c1.83,0.95,3.86,1.46,5.93,1.5c0.7,0,1.45-0.19,2.2-0.52l-3.02-2.57
			C57.62,57.03,57.55,57.04,57.48,57.04z"/>
		<path class="st2" d="M83.58,57.1c-0.99,0.78-0.83,2.41,0.08,3.77c0.91,1.36,2.55,1.83,3.47,0.87c1.18-0.84,1.2-2.54,0.11-3.83
			C86.14,56.6,84.57,56.32,83.58,57.1z"/>
		<path class="st2" d="M81.12,36.22l-2.81,4.22c2.9,2.74,1.39,8.28-0.02,11.83c3.22-2.36,5.05-4.98,5.44-7.81
			C84.22,40.87,82.29,37.74,81.12,36.22z"/>
		<path d="M88.74,51.46c-1.65-0.94-3.28-1.58-4.85-1.96c0.37-0.55,0.69-1.11,0.96-1.68c0.03-0.07,0.06-0.15,0.09-0.23
			c0.75,0.22,1.52,0.5,2.29,0.82c-0.49-0.94-1.03-1.89-1.62-2.84c0.06-0.29,0.12-0.57,0.16-0.86c0.31-2.26-0.15-4.33-0.86-6.05
			c-1.18-2.86-3.04-4.74-3.16-4.86c-0.02-0.02-0.11-0.09-0.14-0.11l-12.73-8.82l2.88-12.47l6.06-10.1c0.22-0.36,0.18-0.81-0.05-1.13
			c-0.08-0.11-0.18-0.2-0.3-0.27c-0.16-0.1-0.34-0.15-0.53-0.15H61.58c-0.32,0-0.63,0.15-0.82,0.41l-3.07,4.09
			c-0.08,0.1-0.13,0.22-0.17,0.34l-2.88,10.58c-2.01,0.19-7.81,0.74-10.53,0.95c-0.48,0.04-0.95,0.12-1.4,0.24
			c-0.46,0.12-0.9,0.29-1.32,0.49c-0.85,0.41-1.64,0.97-2.35,1.66c-0.53,0.52-1.01,1.12-1.43,1.78c-0.35,0.55-0.66,1.15-0.93,1.8
			s-0.49,1.32-0.66,2.04l-0.99,5.92l0.8-4.78c-1.26,0.18-2.44,0.39-3.52,0.61c-5.53-6.04-22.14-4.11-22.01-3.74
			c-0.63,0.01,7.7,4.42,14.2,6.11c-8.1,0.36-16.39,6.07-15.58,5.99c-0.19,0.07,15.97,0.41,21.26-1.9c0.72,0.47,1.47,1.01,2.25,1.6
			l-5.48,8.21c-0.11,0.17-0.17,0.37-0.17,0.57v6.14c0,0.23,0.08,0.46,0.22,0.64l4.12,5.15c0.51,0.58,1.22,1.18,2.03,1.66
			c0.54,0.32,1.14,0.6,1.75,0.79c0.61,0.19,1.24,0.29,1.86,0.27c0.31-0.01,0.62-0.05,0.92-0.13c0,0,0,0,0,0
			c0.4,0.46,0.84,0.87,1.32,1.22c1.44,1.07,3.19,1.66,5.02,1.65c0.54-0.02,1.08-0.07,1.61-0.15c1.06-0.17,2.1-0.47,3.08-0.9
			c0.49-0.21,0.97-0.46,1.44-0.74c0,0,0.04,0.03,0.09,0.09c0.04,0.04,0.09,0.09,0.15,0.14c0.04,0.04,0.08,0.08,0.13,0.12
			c0.12,0.12,0.24,0.23,0.26,0.25c2.33,1.42,5,2.19,7.73,2.22c1.15,0,2.29-0.32,3.36-0.85c2.15,1.62,4.31,3.06,6.44,4.4
			c-1.7-11.02,2.63-17.55,9.44-18.7c-0.16,0.88-0.4,1.79-0.69,2.68c-5.38,1.87-8.59,8.1-6.52,17.55c2.67,1.58,14.95,8.79,17.28,8.8
			c-0.16-1.63-0.32-3.26-0.48-4.89c1.22,1.04,2.37,1.9,3.58,2.94C92.24,71.3,92.45,60.68,88.74,51.46z M51.39,55.7l-0.51,1.52
			c-1.07-0.72-2.01-1.63-2.74-2.68l1.04-1.04c0,0,0.81-0.87,0.1-1.58c-0.71-0.71-1.53,0.12-1.53,0.12l-0.65,0.65
			c-0.41-0.95-0.71-1.95-0.89-2.97c-0.08-0.97-0.03-1.94,0.13-2.9l2.37-0.59c0,0,1.87-0.48,1.58-1.57s-2.13-0.4-2.13-0.4l-1.48,0.37
			c0.17-0.99,0.37-2.06,0.59-3.16L49.09,41c0,0,1.45-0.47,1.22-1.41c-0.24-0.94-1.74-0.57-1.74-0.57l-0.84,0.21
			c0.27-1.25,0.56-2.5,0.84-3.68h2.09c0,0,1.7,0.11,1.7-0.97c0-1.08-1.77-1.08-1.77-1.08h-1.53c0.07-0.26,0.13-0.52,0.19-0.77
			c0.02-0.08,0.03-0.17,0.03-0.25c0-3.61,0.78-6.04,2.25-7.02c0.91-0.5,1.97-0.64,2.97-0.39c0.18,0.04,0.59,0.01,0.9-0.71
			c0.31-0.72-0.04-1.18-0.28-1.24c-1.58-0.43-3.27-0.21-4.7,0.63c-2.09,1.38-3.16,4.28-3.18,8.61c-0.5,1.96-3.61,14.47-3.05,17.71
			c0.45,3.04,1.96,5.83,4.26,7.86c-4.61,2.25-7.38,0.77-8.7-0.46l2.37-0.95c0,0,1.39-0.64,1.02-1.55s-1.79-0.35-1.79-0.35
			l-2.98,1.19c-1.64-1.99-2.68-4.4-3.01-6.96h2.97c0,0,1.7,0.08,1.73-1.12c0.03-1.2-1.73-0.92-1.73-0.92h-2.92
			c0.07-0.54,0.22-1.07,0.44-1.56l0.74-1.37l2.41,0.48c0,0,1.89,0.38,2.09-0.62c0.2-1-1.57-1.36-1.57-1.36L37.62,42l1.64-3.04
			l1.03,0.68c0,0,1.29,0.84,1.86-0.01c0.56-0.84-0.66-1.66-0.66-1.66l-1.25-0.83l1.3-2.42l0.79,0.26c0,0,1.51,0.55,1.84-0.44
			c0.33-0.99-1.19-1.5-1.19-1.5l-0.46-0.15l0.51-0.95c0.08-0.15,0.12-0.31,0.12-0.48c0-5.44,1.18-7.25,1.89-7.85
			c0.11-0.11,0.25-0.2,0.39-0.26c0.18-0.08,0.55-0.11,0.8-1.1c0.25-0.99-0.23-1.05-0.47-1.04c-0.24,0.01-0.48,0.05-0.71,0.11
			c-0.44,0.12-0.85,0.33-1.21,0.63c-1.78,1.39-2.7,4.5-2.73,9.25l-7.04,13.08c-0.12,0.22-2.64,5.14,2.14,12.03
			c-1.35-0.25-2.59-0.94-3.51-1.95l-3.58-4.48h1.36c0,0,1.42,0.02,1.42-1.01c0-1.03-1.42-1.03-1.42-1.03h-1.65v-2.05h0.89
			c0,0,1.16,0,1.16-1.02c0-1.02-1.09-1.02-1.09-1.02h-0.75l1.24-1.85l1.25,0.42c0,0,1.1,0.31,1.41-0.64c0.31-0.95-0.76-1.3-0.76-1.3
			l-0.73-0.24l1.57-2.35L33.49,38c0,0,1.08,0.47,1.52-0.51s-0.46-1.25-0.46-1.25l-0.4-0.2l2.68-4.02c0.08-0.12,0.13-0.26,0.16-0.4
			l1.01-6.07c0.86-3.6,3.37-6.16,6.24-6.38c3.33-0.25,11.21-1.02,11.29-1.02c0.42-0.04,0.78-0.34,0.89-0.75l0.31-1.15l7.9,2.63
			c0,0,0.73,0.17,1.04-0.77s-0.53-1.22-0.53-1.22l-7.87-2.62l0.84-3.07l5.34,1.52c0,0,0.94,0.19,1.21-0.76
			c0.27-0.95-0.57-1.19-0.57-1.19l-5.44-1.55l0.79-2.9l2.64-3.52h13.03l-5.21,8.68c-0.06,0.09-0.1,0.19-0.12,0.3l-3.07,13.31
			c-0.09,0.41,0.07,0.83,0.42,1.07l12.48,8.64l-3.28,4.91c-1.1,0.25-2.26-0.05-3.1-0.79c-0.99-1.13-0.65-3.35-0.44-4.11
			c0.15-0.52-0.13-1.06-0.64-1.24l-3.02-1.08l0.17-0.52c0,0,0.52-1.09-0.59-1.54c-1.11-0.45-1.37,0.92-1.37,0.92l-0.15,0.45
			l-1.78-0.64l0.62-1.23c0,0,0.5-1.11-0.39-1.55s-1.5,0.77-1.5,0.77l-0.66,1.32l-5.66-2.02c-0.53-0.19-1.12,0.09-1.31,0.62
			c-0.01,0.03-0.02,0.06-0.03,0.1l-4.67,18.67h-2.53v2.05h2.05c0,0.24,0.08,0.47,0.24,0.66L55.3,55h-2.93
			C51.92,55,51.53,55.28,51.39,55.7z M58.51,60.11c-2.07-0.03-4.09-0.54-5.93-1.5l0.53-1.57h4.38c0.06,0,0.13-0.02,0.2-0.02
			l3.02,2.57C59.95,59.93,59.21,60.11,58.51,60.11z M78.29,52.27c1.41-3.54,2.93-9.08,0.02-11.83l2.81-4.22
			c1.16,1.52,3.1,4.65,2.61,8.23C83.34,47.29,81.51,49.91,78.29,52.27z M87.13,61.73c-0.92,0.96-2.57,0.49-3.47-0.87
			c-0.91-1.36-1.07-2.99-0.08-3.77c0.99-0.78,2.57-0.49,3.66,0.8C88.34,59.19,88.31,60.89,87.13,61.73z"/>
	</g>
</g>
</svg>
