<?xml version="1.0" encoding="utf-8"?>
<!-- Generator: Adobe Illustrator 28.1.0, SVG Export Plug-In . SVG Version: 6.00 Build 0)  -->
<svg version="1.1" id="Layer_1" xmlns="http://www.w3.org/2000/svg" xmlns:xlink="http://www.w3.org/1999/xlink" x="0px" y="0px"
	 viewBox="0 0 110.55 76.54" style="enable-background:new 0 0 110.55 76.54;" xml:space="preserve">
<style type="text/css">
	.st0{display:none;}
	.st1{display:inline;fill:none;}
	.st2{fill:#808080;}
</style>
<g id="Layer_2_00000073722119373351752270000017113015111246931634_" class="st0">
	<line class="st1" x1="-24.13" y1="74.54" x2="142.13" y2="74.54"/>
	<line class="st1" x1="-24.13" y1="2" x2="142.13" y2="2"/>
</g>
<g>
	<g>
		<path class="st2" d="M2198.67,1892.46c-0.07,0.57-0.23,0.93-0.76,1.06c-0.29,0.07-0.57,0.23-0.83,0.38
			c-0.1,0.06-0.14,0.22-0.21,0.33c0.13,0.07,0.27,0.2,0.4,0.19c0.36-0.04,0.72-0.14,1.08-0.21c0.05,0.88-0.09,1.09-1.02,1.35
			c-3.8,1.06-7.59,2.16-11.41,3.14c-3.32,0.85-6.99-1.7-7.41-5.1c-0.21-1.71-0.35-3.42-0.41-5.14c-0.07-2.12-0.85-3.96-1.9-5.76
			c-3.54-6.06-7.03-12.15-10.53-18.23c-0.59-1.03-1.18-2.06-1.78-3.08c-0.15-0.26-0.2-0.43,0.1-0.6c1.1-0.63,2.19-1.27,3.36-1.94
			c0.46,0.78,0.9,1.53,1.34,2.28c4.01,6.95,8.01,13.9,12.02,20.84c1.03,1.78,1.44,3.67,1.26,5.72c-0.12,1.3-0.17,2.62-0.19,3.93
			c-0.03,1.73,1.18,2.9,2.96,2.87c4.48-0.08,8.9-0.63,13.22-1.85C2198.14,1892.59,2198.36,1892.54,2198.67,1892.46z"/>
		<path class="st2" d="M2154.67,1847.29c0.21,0.34,0.41,0.67,0.61,0.99c0.48,0.77,0.96,0.89,1.73,0.45c1.1-0.64,2.19-1.27,3.29-1.91
			c0.77-0.44,1.43-0.39,1.95,0.16c0.55,0.58,0.57,1.34,0.07,2.07c-0.07,0.1-0.11,0.23-0.2,0.44c0.9-0.17,1.6-0.07,2.04,0.72
			c0.44,0.77,0.08,1.43-0.44,2.19c1.05-0.23,1.84-0.03,2.19,0.86c0.42,1.07-0.18,1.75-1.17,2.19c0.03,0.05,0.06,0.09,0.1,0.14
			c0.18,0,0.37,0.01,0.55,0c0.7-0.04,1.36,0.39,1.58,1.02c0.24,0.7-0.01,1.39-0.69,1.78c-1.59,0.93-3.18,1.86-4.77,2.78
			c-1.19,0.68-2.47,1.09-3.82,1.27c-1.35,0.18-2.62,0.6-3.83,1.23c-0.75,0.39-1.23,0.27-1.65-0.46c-1.22-2.11-2.43-4.22-3.64-6.33
			c-0.35-0.61-0.32-1.14,0.18-1.48c1.99-1.39,3.17-3.36,4.11-5.53c0.36-0.83,0.95-1.56,1.45-2.33
			C2154.38,1847.44,2154.51,1847.4,2154.67,1847.29z"/>
		<path class="st2" d="M2140.79,1831.45c0.9-0.11,1.65-0.2,2.4-0.28c0.14-0.01,0.29,0.02,0.42,0.08c2.88,1.33,5.77,2.64,8.62,4.01
			c1.52,0.73,2.62,1.95,3.46,3.39c1.31,2.25,2.58,4.51,3.9,6.75c0.28,0.48,0.2,0.7-0.26,0.95c-1.01,0.54-1.99,1.13-3.07,1.76
			c-0.47-0.79-0.92-1.55-1.37-2.32c-0.92-1.57-1.83-3.15-2.75-4.72c-0.84-1.44-2.15-2.39-3.43-3.38c-2.51-1.94-5.01-3.9-7.51-5.85
			C2141.09,1831.74,2140.99,1831.64,2140.79,1831.45z"/>
	</g>
	<path class="st2" d="M2202.71,1888.81l-4.06,1.24c-0.09,0.03-0.12,0.15-0.09,0.26l0.18,0.6c0.03,0.11,0.13,0.2,0.22,0.17l1.37-0.42
		l3.36,11.05l1.07,1.13l0.26-1.52l-3.36-11.05l1.37-0.42c0.09-0.03,0.12-0.15,0.09-0.26l-0.18-0.6
		C2202.9,1888.87,2202.79,1888.79,2202.71,1888.81z"/>
</g>
<g>
	<g>
		<path d="M71.37,43.17c1.51-0.5,3.19-1.08,4.19-2.46c1.03-1.41,1.04-3.17,1.05-4.87c0.01-1.06,0.01-2.06,0.27-2.85
			c0.24-0.74,0.81-1.52,1.41-2.35c0.97-1.33,2.07-2.85,2.07-4.67c0-1.82-1.1-3.33-2.07-4.67c-0.6-0.83-1.17-1.61-1.41-2.35
			c-0.26-0.79-0.26-1.79-0.27-2.85c-0.01-1.7-0.02-3.46-1.05-4.87c-1.04-1.43-2.79-2-4.34-2.51c-1-0.33-1.95-0.64-2.6-1.12
			c-0.64-0.47-1.22-1.26-1.84-2.11c-0.96-1.32-2.06-2.82-3.76-3.38c-0.45-0.14-0.93-0.22-1.44-0.22c-1.17,0-2.33,0.37-3.45,0.73
			c-1.03,0.33-2,0.64-2.86,0.64c-0.86,0-1.83-0.31-2.86-0.64C51.3,2.27,50.13,1.9,48.97,1.9c-0.51,0-1,0.07-1.44,0.22
			c-1.7,0.55-2.79,2.05-3.76,3.38c-0.61,0.84-1.19,1.64-1.84,2.11c-0.66,0.48-1.6,0.79-2.6,1.12c-1.55,0.51-3.3,1.08-4.34,2.51
			c-1.03,1.41-1.04,3.17-1.05,4.87c-0.01,1.06-0.01,2.06-0.27,2.85c-0.24,0.74-0.81,1.52-1.41,2.35c-0.97,1.33-2.07,2.85-2.07,4.67
			c0,1.82,1.1,3.33,2.07,4.67c0.6,0.83,1.17,1.61,1.41,2.35c0.26,0.79,0.26,1.79,0.27,2.85c0.01,1.7,0.02,3.46,1.05,4.87
			c1.04,1.43,2.79,2,4.34,2.51c0.03,0.01,0.05,0.02,0.08,0.03l-7.36,26.67c-0.13,0.46,0.04,0.95,0.41,1.25
			c0.38,0.3,0.9,0.33,1.31,0.1l6.78-3.85l3.85,6.78c0.21,0.37,0.61,0.6,1.03,0.6c0.05,0,0.1,0,0.15-0.01c0.48-0.06,0.87-0.4,1-0.86
			L53.46,49c0.64-0.18,1.25-0.32,1.81-0.32c0.56,0,1.17,0.14,1.81,0.32l6.97,24.9c0.13,0.46,0.52,0.8,0.99,0.86
			c0.05,0.01,0.1,0.01,0.15,0.01c0.42,0,0.81-0.22,1.02-0.59l3.95-6.81l6.94,3.85c0.42,0.23,0.93,0.19,1.31-0.11
			c0.38-0.3,0.54-0.79,0.41-1.25L71.37,43.17z M45.06,70.54l-3.02-5.33c-0.32-0.57-1.05-0.77-1.62-0.45l-5.33,3.02l6.52-23.64
			c0.11,0.06,0.22,0.12,0.31,0.19c0.64,0.47,1.22,1.26,1.84,2.11c0.96,1.32,2.06,2.82,3.76,3.38c0.45,0.15,0.93,0.22,1.44,0.22
			c0.61,0,1.22-0.1,1.82-0.25L45.06,70.54z M51.7,47.05c-1.33,0.42-2.59,0.79-3.44,0.51c-0.97-0.31-1.75-1.39-2.58-2.52
			c-0.69-0.95-1.41-1.94-2.36-2.63c-0.96-0.7-2.13-1.08-3.26-1.45c-1.32-0.44-2.57-0.85-3.16-1.65c-0.58-0.79-0.58-2.1-0.59-3.49
			c-0.01-1.2-0.01-2.43-0.38-3.57c-0.35-1.09-1.06-2.07-1.74-3.01c-0.83-1.14-1.61-2.23-1.61-3.28c0-1.05,0.78-2.13,1.61-3.28
			c0.68-0.94,1.39-1.92,1.74-3.01c0.37-1.14,0.38-2.38,0.38-3.57c0.01-1.38,0.01-2.69,0.59-3.49c0.59-0.81,1.84-1.22,3.16-1.65
			c1.13-0.37,2.3-0.76,3.26-1.45c0.95-0.69,1.66-1.67,2.36-2.63c0.83-1.13,1.61-2.2,2.58-2.52c0.85-0.28,2.12,0.09,3.44,0.51
			c1.15,0.37,2.35,0.75,3.58,0.75c1.23,0,2.42-0.38,3.58-0.75c1.33-0.42,2.59-0.79,3.44-0.51c0.97,0.31,1.75,1.38,2.58,2.52
			c0.69,0.95,1.41,1.94,2.36,2.63c0.96,0.7,2.13,1.08,3.26,1.45c1.32,0.43,2.57,0.85,3.16,1.65c0.58,0.79,0.58,2.1,0.59,3.49
			c0.01,1.2,0.01,2.43,0.38,3.57c0.35,1.09,1.06,2.07,1.74,3.01c0.83,1.14,1.61,2.23,1.61,3.28c0,1.05-0.78,2.13-1.61,3.28
			c-0.68,0.94-1.39,1.92-1.75,3.01c-0.37,1.14-0.38,2.38-0.38,3.57c-0.01,1.38-0.01,2.69-0.59,3.49c-0.59,0.81-1.84,1.22-3.16,1.65
			c-1.13,0.37-2.3,0.76-3.26,1.45c-0.95,0.69-1.66,1.67-2.36,2.63c-0.83,1.13-1.61,2.2-2.58,2.52c-0.85,0.27-2.11-0.09-3.44-0.51
			c-1.16-0.37-2.35-0.75-3.58-0.75C54.05,46.3,52.85,46.69,51.7,47.05z M70.31,64.72c-0.56-0.31-1.28-0.12-1.6,0.44l-3.13,5.39
			l-5.81-20.76c0.6,0.15,1.21,0.25,1.81,0.25c0.51,0,1-0.07,1.44-0.22c1.7-0.55,2.79-2.05,3.76-3.38c0.61-0.84,1.19-1.64,1.84-2.11
			c0.16-0.12,0.34-0.22,0.52-0.32l6.64,23.74L70.31,64.72z"/>
		<path d="M71.62,25.97c0-9.01-7.33-16.35-16.35-16.35c-9.01,0-16.35,7.33-16.35,16.35c0,9.01,7.33,16.35,16.35,16.35
			C64.29,42.32,71.62,34.99,71.62,25.97z M55.28,39.95c-7.71,0-13.98-6.27-13.98-13.98s6.27-13.98,13.98-13.98
			c7.71,0,13.98,6.27,13.98,13.98S62.98,39.95,55.28,39.95z"/>
	</g>
</g>
</svg>
