<?xml version="1.0" encoding="utf-8"?>
<!-- Generator: Adobe Illustrator 28.1.0, SVG Export Plug-In . SVG Version: 6.00 Build 0)  -->
<svg version="1.1" id="Layer_1" xmlns="http://www.w3.org/2000/svg" xmlns:xlink="http://www.w3.org/1999/xlink" x="0px" y="0px"
	 viewBox="0 0 110.55 76.54" style="enable-background:new 0 0 110.55 76.54;" xml:space="preserve">
<style type="text/css">
	.st0{display:none;}
	.st1{display:inline;fill:none;}
</style>
<g id="Layer_2_00000073722119373351752270000017113015111246931634_" class="st0">
	<line class="st1" x1="-24.13" y1="74.54" x2="142.13" y2="74.54"/>
	<line class="st1" x1="-24.13" y1="2" x2="142.13" y2="2"/>
</g>
<path d="M-5351.56,183.13c0-4.69,1.76-9.61,2.23-11.95c0.47-2.23,1.29-10.9-7.97-10.9c-9.26,0-8.44,8.67-7.97,10.9
	c0.47,2.23,2.23,7.26,2.23,11.95c0,5.39-2.34,10.08-4.57,15.47c-2.81-7.5-6.44-13.83-6.44-21.09c0-5.62,2.11-11.6,2.69-14.3
	c0.47-2.81,1.52-13.12-9.61-13.12s-10.08,10.31-9.61,13.01c0.47,2.69,2.69,8.67,2.69,14.3c0,7.26-3.75,13.71-6.44,21.09
	c-2.11-5.27-4.57-10.08-4.57-15.47c0-4.69,1.76-9.61,2.23-11.95c0.47-2.23,1.29-10.9-7.97-10.9s-8.44,8.67-7.97,10.9
	s2.23,7.26,2.23,11.95c0,9.73-7.85,17.58-7.85,30c0,10.55,4.57,24.14,6.8,25.54h13.71c0.94-0.59,2.11-3.05,3.4-6.68
	c1.64,6.21,3.75,11.13,5.16,11.95h16.4c1.41-0.82,3.52-5.74,5.27-11.95c1.17,3.52,2.46,6.09,3.4,6.68h13.59
	c2.23-1.29,6.8-15,6.8-25.54C-5343.71,200.59-5351.56,192.74-5351.56,183.13z M-5361.05,165.09c0.7-0.82,1.99-1.29,3.75-1.29
	s3.05,0.47,3.75,1.29c1.17,1.41,1.05,4.1,0.82,5.39c-0.12,0.47-0.23,1.29-0.47,2.11c-0.23,1.05-0.59,2.23-0.94,3.63h-6.21
	c-0.23-1.41-0.59-2.58-0.94-3.63c-0.23-0.82-0.47-1.64-0.47-2.11C-5362.11,169.19-5362.23,166.49-5361.05,165.09z M-5354.96,184.3
	h-4.69c0-0.47,0.12-0.82,0.12-1.29c0-0.82-0.12-1.64-0.12-2.58h4.8c-0.12,0.82-0.12,1.64-0.12,2.58
	C-5355.08,183.48-5354.96,183.95-5354.96,184.3z M-5386.01,155.36c0.94-1.17,2.69-1.76,5.04-1.76c2.34,0,4.1,0.59,5.04,1.76
	c1.52,1.87,1.41,5.39,1.05,7.03c-0.12,0.59-0.35,1.52-0.59,2.58c-0.35,1.29-0.7,2.69-1.05,4.22h-8.91c-0.35-1.52-0.7-2.93-1.05-4.22
	c-0.23-1.05-0.59-1.99-0.59-2.58C-5387.42,160.63-5387.54,157.23-5386.01,155.36z M-5377.46,178.91h-7.03
	c0-0.47,0.12-1.05,0.12-1.52c0-1.05-0.12-1.99-0.12-3.05h7.03c-0.12,0.94-0.12,1.99-0.12,3.05
	C-5377.58,177.86-5377.58,178.44-5377.46,178.91z M-5408.39,165.09c0.7-0.82,1.99-1.29,3.75-1.29s3.05,0.47,3.75,1.29
	c1.17,1.41,1.05,4.1,0.82,5.39c-0.12,0.47-0.23,1.29-0.47,2.11c-0.23,1.05-0.59,2.23-0.94,3.63h-6.21
	c-0.35-1.41-0.59-2.58-0.94-3.63c-0.23-0.82-0.47-1.64-0.47-2.11C-5409.45,169.19-5409.56,166.49-5408.39,165.09z M-5402.3,184.3
	h-4.69c0-0.47,0-0.82,0-1.29c0-0.82,0-1.64-0.12-2.58h4.8c-0.12,0.82-0.12,1.64-0.12,2.58
	C-5402.42,183.48-5402.3,183.95-5402.3,184.3z M-5399.49,235.04h-10.31c-1.64-3.16-4.92-13.24-4.92-22.03
	c0-5.86,1.99-10.78,3.98-15.47c1.17-2.81,2.46-5.74,3.16-8.91h5.86c0.7,3.05,1.99,5.98,3.16,8.91c0.82,2.11,1.76,4.22,2.46,6.44
	c-0.7,2.93-1.17,5.98-1.17,9.37c0,3.75,0.47,7.73,1.17,11.6C-5397.14,229.41-5398.55,233.28-5399.49,235.04z M-5374.41,240.31
	h-13.12c-1.41-2.34-3.52-8.55-4.92-15.35c-0.82-3.87-1.29-7.85-1.29-11.6c0-3.4,0.59-6.44,1.41-9.37c0.94-3.28,2.23-6.44,3.52-9.49
	c1.41-3.4,2.81-6.8,3.75-10.43h8.55c0.82,3.63,2.34,7.03,3.75,10.43c1.29,3.05,2.58,6.09,3.52,9.49c0.82,2.93,1.41,5.98,1.41,9.37
	c0,3.75-0.47,7.85-1.29,11.6C-5370.78,231.76-5373.01,237.97-5374.41,240.31z M-5352.15,235.04h-10.31
	c-0.94-1.76-2.34-5.62-3.4-10.08c0.7-3.87,1.17-7.97,1.17-11.6c0-3.4-0.47-6.44-1.17-9.37c0.7-2.23,1.64-4.34,2.46-6.44
	c1.17-2.81,2.46-5.74,3.16-8.91h5.86c0.7,3.05,1.99,5.98,3.16,8.91c1.99,4.69,3.98,9.61,3.98,15.47
	C-5347.23,221.8-5350.51,231.87-5352.15,235.04z"/>
<g>
	<path d="M52.55,25.74c6.24,0,11.29-5.07,11.29-11.3c0-6.24-5.07-11.29-11.3-11.29c-6.24,0-11.29,5.06-11.29,11.3
		C41.26,20.68,46.31,25.73,52.55,25.74z M52.55,6.16c4.58,0,8.28,3.72,8.28,8.3c0,4.58-3.72,8.28-8.3,8.28
		c-4.57,0-8.28-3.71-8.28-8.29C44.26,9.87,47.98,6.16,52.55,6.16z"/>
	<path d="M52.55,20.28c1.6,0,3.13-0.63,4.26-1.76c0.59-0.59,0.59-1.54,0.01-2.13c-0.59-0.59-1.54-0.59-2.13-0.01c0,0,0,0,0,0
		c-1.18,1.18-3.09,1.18-4.27,0c-0.59-0.59-1.54-0.58-2.13,0.01c-0.58,0.59-0.58,1.54,0,2.12C49.42,19.65,50.95,20.28,52.55,20.28z"
		/>
	<path d="M96.5,43.14c-0.02-0.01-0.04-0.02-0.06-0.03c-0.05-0.02-0.09-0.04-0.14-0.06c-0.05-0.02-0.09-0.04-0.14-0.05
		c-0.05-0.01-0.09-0.02-0.14-0.03c-0.05-0.01-0.1-0.02-0.15-0.02c-0.05,0-0.1,0-0.14,0c-0.05,0-0.09,0-0.14,0.01
		c-0.05,0.01-0.1,0.01-0.15,0.03c-0.05,0.01-0.09,0.02-0.14,0.03c-0.05,0.01-0.09,0.03-0.14,0.05c-0.05,0.02-0.1,0.04-0.14,0.07
		c-0.02,0.01-0.04,0.02-0.06,0.03c-0.02,0.01-0.04,0.03-0.06,0.04c-0.04,0.03-0.09,0.06-0.13,0.1c-0.04,0.03-0.07,0.06-0.1,0.1
		c-0.03,0.03-0.07,0.07-0.1,0.11c-0.03,0.04-0.06,0.08-0.09,0.13c-0.01,0.02-0.03,0.04-0.04,0.06l-2.17,3.77l-2.36-6.45
		c-0.01-0.03-0.03-0.06-0.05-0.09c-0.02-0.05-0.05-0.11-0.08-0.16c-0.02-0.04-0.05-0.07-0.07-0.1c-0.03-0.05-0.07-0.09-0.1-0.13
		c-0.03-0.03-0.06-0.06-0.09-0.08c-0.04-0.04-0.08-0.08-0.13-0.11c-0.03-0.03-0.07-0.05-0.11-0.07c-0.04-0.03-0.08-0.06-0.12-0.08
		c-0.01,0-0.01,0-0.02-0.01c-0.03-0.02-0.07-0.03-0.11-0.04c-0.06-0.02-0.12-0.04-0.17-0.06c-0.01,0-0.02,0-0.03,0
		c-0.08-0.02-0.17-0.03-0.26-0.04c-0.01,0-0.01,0-0.02,0c-0.09,0-0.18,0-0.27,0.01c-0.03,0-0.05,0.01-0.08,0.02
		c-0.07,0.01-0.14,0.03-0.21,0.05l-0.02,0c-0.03,0.01-0.06,0.03-0.09,0.04c-0.06,0.02-0.11,0.05-0.16,0.08
		c-0.04,0.02-0.07,0.05-0.11,0.08c-0.04,0.03-0.09,0.06-0.13,0.1c-0.04,0.03-0.07,0.07-0.1,0.1c-0.04,0.04-0.07,0.07-0.1,0.11
		c-0.03,0.04-0.06,0.09-0.09,0.14c-0.02,0.03-0.04,0.06-0.06,0.1l-1.5,3.05h-2.89c-0.83,0-1.5,0.67-1.5,1.5c0,0.83,0.67,1.5,1.5,1.5
		h3.82c0.12,0,0.25-0.02,0.37-0.05c0.03-0.01,0.06-0.02,0.09-0.03c0.09-0.03,0.19-0.07,0.27-0.12c0.02-0.01,0.05-0.02,0.07-0.04
		c0.1-0.07,0.2-0.14,0.28-0.23c0.02-0.02,0.04-0.04,0.05-0.06c0.07-0.08,0.13-0.17,0.18-0.26c0.01-0.02,0.02-0.03,0.03-0.05
		l0.36-0.73l2.26,6.18c0.01,0.02,0.02,0.03,0.02,0.04c0.05,0.13,0.12,0.25,0.2,0.36c0.01,0.01,0.02,0.02,0.02,0.03
		c0.08,0.1,0.17,0.18,0.27,0.25c0.03,0.02,0.05,0.04,0.08,0.06c0.02,0.01,0.04,0.03,0.07,0.05c0.06,0.03,0.13,0.06,0.2,0.08
		c0.05,0.02,0.09,0.04,0.13,0.06c0.13,0.04,0.26,0.06,0.4,0.06c0.01,0,0.01,0,0.02,0c0.12,0,0.23-0.02,0.34-0.05
		c0.03-0.01,0.05-0.01,0.08-0.02c0.03-0.01,0.06-0.01,0.09-0.03c0.06-0.02,0.11-0.05,0.17-0.08c0.03-0.01,0.05-0.02,0.08-0.04
		c0.1-0.06,0.2-0.13,0.28-0.21c0.02-0.02,0.03-0.04,0.05-0.05c0.07-0.07,0.13-0.15,0.18-0.23c0.01-0.02,0.03-0.03,0.04-0.05
		l2.5-4.35l0.99,1.63c0.01,0.02,0.02,0.03,0.03,0.04c0.05,0.08,0.11,0.15,0.17,0.22c0.02,0.02,0.04,0.05,0.06,0.07
		c0.01,0.01,0.01,0.02,0.02,0.02c0.08,0.07,0.16,0.13,0.25,0.18c0.02,0.01,0.04,0.02,0.06,0.03c0.08,0.04,0.17,0.08,0.26,0.1
		c0.03,0.01,0.05,0.02,0.08,0.02c0.11,0.03,0.22,0.04,0.34,0.04l0,0l0,0l0.01,0c0.12,0,0.24-0.02,0.35-0.05
		c0.04-0.01,0.07-0.02,0.11-0.03c0.09-0.03,0.17-0.06,0.25-0.11c0.02-0.01,0.04-0.01,0.06-0.03c0.02-0.01,0.03-0.03,0.05-0.04
		c0.04-0.03,0.08-0.06,0.11-0.09c0.05-0.04,0.09-0.08,0.13-0.12c0.02-0.02,0.03-0.03,0.05-0.04l2.15-2.43h6.75
		c0.83,0,1.5-0.67,1.5-1.5c0-0.83-0.67-1.5-1.5-1.5h-7.52c-0.58,0-1.11,0.34-1.36,0.87l-0.93,1.05l-1.25-2.06
		c-0.01-0.02-0.03-0.04-0.04-0.06c-0.03-0.05-0.06-0.09-0.1-0.13c-0.03-0.04-0.06-0.07-0.09-0.1c-0.07-0.07-0.15-0.14-0.24-0.19
		C96.54,43.17,96.52,43.16,96.5,43.14z"/>
	<path d="M65.65,39.76c-0.06,2.18,0.67,4.3,2.07,5.97l11.24,13.03c0.91,1.06,2.51,1.17,3.57,0.26c0.09-0.08,0.18-0.17,0.26-0.26
		l5.08-5.88c-0.02-0.05-0.04-0.1-0.06-0.15c-0.02-0.06-0.05-0.11-0.08-0.16l-1.06-2.91l-5.8,6.72L70,43.77
		c-0.91-1.1-1.38-2.5-1.34-3.93c0.13-3.1,2.57-5.6,5.66-5.81c0.07,0,0.13-0.01,0.2-0.01c2.15,0,4.08,1.75,5.1,3.29
		c0.46,0.69,1.39,0.88,2.09,0.42c0.17-0.11,0.31-0.26,0.42-0.42c1.05-1.59,3.08-3.39,5.3-3.29c3.09,0.2,5.54,2.71,5.66,5.81
		c0,0.3-0.02,0.6-0.08,0.89l0.02,0.07l0.01,0.04c0.87-0.65,1.95-0.96,3.04-0.88c0-0.06,0.01-0.13,0.01-0.19
		c-0.14-4.68-3.84-8.48-8.52-8.74c-2.72-0.15-5.06,1.3-6.71,3.05c-1.65-1.75-4.01-3.19-6.71-3.05
		C69.48,31.28,65.78,35.08,65.65,39.76z"/>
	<path d="M14.45,53.29c0.49,1.45,1.99,2.3,3.49,1.98l12.8-2.76c1.59-0.35,2.98-1.32,3.84-2.7l4.16-6.66l1.23,14.25l-3.01-0.73
		c-0.06-0.01-0.12-0.03-0.19-0.03c-4.11-0.47-7.83,2.47-8.3,6.58c-0.47,4.1,2.47,7.82,6.57,8.3l17.17,2.31
		c0.06,0.01,0.12,0.01,0.19,0.01l0.01,0l0,0l0,0l0.01,0c0.06,0,0.12,0,0.18-0.01l18.17-2.3c3.79-0.43,6.64-3.63,6.64-7.44
		c0-0.22-0.01-0.44-0.03-0.66c-0.2-2.32-1.54-4.39-3.58-5.53c-2.14-1.22-4.75-1.32-6.97-0.26c-0.5,0.24-1.12,0.53-1.8,0.85
		l0.88-10.24l-0.48-0.55c-0.96-1.13-1.7-2.43-2.16-3.84L61.9,59.9c-1.35,0.59-2.81,1.2-4.3,1.79l-14.54-3.53l-1.71-19.75
		c-0.07-0.83-0.8-1.44-1.63-1.37c-0.47,0.04-0.9,0.3-1.15,0.7l-6.55,10.48c-0.43,0.69-1.13,1.18-1.92,1.35L17.3,52.33l-0.96-2.84
		l10.82-2.33c1.6-0.35,2.99-1.32,3.85-2.71l7.04-11.34c1.1-1.78,3.04-2.86,5.13-2.85h18.69c1.49,0.01,2.92,0.56,4.02,1.55
		c0.7-0.74,1.48-1.39,2.34-1.93c-1.69-1.68-3.98-2.62-6.36-2.63H43.18c-3.13-0.01-6.04,1.61-7.68,4.27l-7.04,11.34
		c-0.43,0.69-1.13,1.18-1.93,1.36l-10.82,2.33c-1.63,0.35-2.66,1.95-2.31,3.58c0.02,0.11,0.05,0.22,0.09,0.33L14.45,53.29z
		 M68.14,60.35c1.34-0.64,2.9-0.58,4.18,0.16c1.18,0.65,1.95,1.83,2.07,3.17c0.01,0.13,0.02,0.27,0.02,0.4c0,2.29-1.72,4.21-4,4.46
		l-17.99,2.28l-17.01-2.28c-2.46-0.28-4.23-2.5-3.95-4.96c0.28-2.43,2.45-4.19,4.88-3.96l16.02,3.89c-1.02,0.31-2.05,0.56-3.1,0.76
		c-0.82,0.14-1.37,0.92-1.22,1.74c0.14,0.82,0.92,1.37,1.74,1.22C55.24,66.29,63.62,62.52,68.14,60.35z"/>
</g>
</svg>
