<?xml version="1.0" encoding="utf-8"?>
<!-- Generator: Adobe Illustrator 28.1.0, SVG Export Plug-In . SVG Version: 6.00 Build 0)  -->
<svg version="1.1" id="Layer_1" xmlns="http://www.w3.org/2000/svg" xmlns:xlink="http://www.w3.org/1999/xlink" x="0px" y="0px"
	 viewBox="0 0 110.55 76.54" style="enable-background:new 0 0 110.55 76.54;" xml:space="preserve">
<style type="text/css">
	.st0{display:none;}
	.st1{display:inline;fill:none;}
	.st2{fill:#FFFFFF;}
</style>
<g id="Layer_2_00000073722119373351752270000017113015111246931634_" class="st0">
	<line class="st1" x1="-24.13" y1="74.54" x2="142.13" y2="74.54"/>
	<line class="st1" x1="-24.13" y1="2" x2="142.13" y2="2"/>
</g>
<path d="M-5351.56,183.13c0-4.69,1.76-9.61,2.23-11.95c0.47-2.23,1.29-10.9-7.97-10.9c-9.26,0-8.44,8.67-7.97,10.9
	c0.47,2.23,2.23,7.26,2.23,11.95c0,5.39-2.34,10.08-4.57,15.47c-2.81-7.5-6.44-13.83-6.44-21.09c0-5.62,2.11-11.6,2.69-14.3
	c0.47-2.81,1.52-13.12-9.61-13.12s-10.08,10.31-9.61,13.01c0.47,2.69,2.69,8.67,2.69,14.3c0,7.26-3.75,13.71-6.44,21.09
	c-2.11-5.27-4.57-10.08-4.57-15.47c0-4.69,1.76-9.61,2.23-11.95c0.47-2.23,1.29-10.9-7.97-10.9s-8.44,8.67-7.97,10.9
	s2.23,7.26,2.23,11.95c0,9.73-7.85,17.58-7.85,30c0,10.55,4.57,24.14,6.8,25.54h13.71c0.94-0.59,2.11-3.05,3.4-6.68
	c1.64,6.21,3.75,11.13,5.16,11.95h16.4c1.41-0.82,3.52-5.74,5.27-11.95c1.17,3.52,2.46,6.09,3.4,6.68h13.59
	c2.23-1.29,6.8-15,6.8-25.54C-5343.71,200.59-5351.56,192.74-5351.56,183.13z M-5361.05,165.09c0.7-0.82,1.99-1.29,3.75-1.29
	s3.05,0.47,3.75,1.29c1.17,1.41,1.05,4.1,0.82,5.39c-0.12,0.47-0.23,1.29-0.47,2.11c-0.23,1.05-0.59,2.23-0.94,3.63h-6.21
	c-0.23-1.41-0.59-2.58-0.94-3.63c-0.23-0.82-0.47-1.64-0.47-2.11C-5362.11,169.19-5362.23,166.49-5361.05,165.09z M-5354.96,184.3
	h-4.69c0-0.47,0.12-0.82,0.12-1.29c0-0.82-0.12-1.64-0.12-2.58h4.8c-0.12,0.82-0.12,1.64-0.12,2.58
	C-5355.08,183.48-5354.96,183.95-5354.96,184.3z M-5386.01,155.36c0.94-1.17,2.69-1.76,5.04-1.76c2.34,0,4.1,0.59,5.04,1.76
	c1.52,1.87,1.41,5.39,1.05,7.03c-0.12,0.59-0.35,1.52-0.59,2.58c-0.35,1.29-0.7,2.69-1.05,4.22h-8.91c-0.35-1.52-0.7-2.93-1.05-4.22
	c-0.23-1.05-0.59-1.99-0.59-2.58C-5387.42,160.63-5387.54,157.23-5386.01,155.36z M-5377.46,178.91h-7.03
	c0-0.47,0.12-1.05,0.12-1.52c0-1.05-0.12-1.99-0.12-3.05h7.03c-0.12,0.94-0.12,1.99-0.12,3.05
	C-5377.58,177.86-5377.58,178.44-5377.46,178.91z M-5408.39,165.09c0.7-0.82,1.99-1.29,3.75-1.29s3.05,0.47,3.75,1.29
	c1.17,1.41,1.05,4.1,0.82,5.39c-0.12,0.47-0.23,1.29-0.47,2.11c-0.23,1.05-0.59,2.23-0.94,3.63h-6.21
	c-0.35-1.41-0.59-2.58-0.94-3.63c-0.23-0.82-0.47-1.64-0.47-2.11C-5409.45,169.19-5409.56,166.49-5408.39,165.09z M-5402.3,184.3
	h-4.69c0-0.47,0-0.82,0-1.29c0-0.82,0-1.64-0.12-2.58h4.8c-0.12,0.82-0.12,1.64-0.12,2.58
	C-5402.42,183.48-5402.3,183.95-5402.3,184.3z M-5399.49,235.04h-10.31c-1.64-3.16-4.92-13.24-4.92-22.03
	c0-5.86,1.99-10.78,3.98-15.47c1.17-2.81,2.46-5.74,3.16-8.91h5.86c0.7,3.05,1.99,5.98,3.16,8.91c0.82,2.11,1.76,4.22,2.46,6.44
	c-0.7,2.93-1.17,5.98-1.17,9.37c0,3.75,0.47,7.73,1.17,11.6C-5397.14,229.41-5398.55,233.28-5399.49,235.04z M-5374.41,240.31
	h-13.12c-1.41-2.34-3.52-8.55-4.92-15.35c-0.82-3.87-1.29-7.85-1.29-11.6c0-3.4,0.59-6.44,1.41-9.37c0.94-3.28,2.23-6.44,3.52-9.49
	c1.41-3.4,2.81-6.8,3.75-10.43h8.55c0.82,3.63,2.34,7.03,3.75,10.43c1.29,3.05,2.58,6.09,3.52,9.49c0.82,2.93,1.41,5.98,1.41,9.37
	c0,3.75-0.47,7.85-1.29,11.6C-5370.78,231.76-5373.01,237.97-5374.41,240.31z M-5352.15,235.04h-10.31
	c-0.94-1.76-2.34-5.62-3.4-10.08c0.7-3.87,1.17-7.97,1.17-11.6c0-3.4-0.47-6.44-1.17-9.37c0.7-2.23,1.64-4.34,2.46-6.44
	c1.17-2.81,2.46-5.74,3.16-8.91h5.86c0.7,3.05,1.99,5.98,3.16,8.91c1.99,4.69,3.98,9.61,3.98,15.47
	C-5347.23,221.8-5350.51,231.87-5352.15,235.04z"/>
<g>
	<path d="M2837.21,223.42c-0.28,0-0.58-0.01-0.88-0.04c-1.76-0.17-3.86-1.99-6.4-5.58c-1.96-2.76-4.19-6.59-6.65-11.36
		c-4.17-8.13-7.85-16.84-8.92-19.52c-1.59-3.99-0.94-7.98,1.88-11.54c2.08-2.63,4.59-4.09,4.7-4.15l0.03-0.01
		c6.97-3.65,11.54-4.92,14.41-4c1.2,0.38,2.1,1.15,2.67,2.28c1.87,3.68-1.47,8.94-1.61,9.16l-0.05,0.07l-0.06,0.06
		c-3.8,3.83-5.87,7.96-6.15,12.27c-0.52,7.94,3.64,11.82,7.32,14.31c4.09,2.77,7.44,8.29,6.78,11.15c-0.66,2.82-1.84,4.8-3.51,5.89
		C2839.75,223.09,2838.58,223.42,2837.21,223.42z M2821.75,172.66c-0.18,0.11-2.43,1.46-4.25,3.77c-2.44,3.11-2.99,6.43-1.61,9.88
		c1.06,2.65,4.71,11.3,8.85,19.38c2.42,4.71,4.61,8.47,6.53,11.17c2.91,4.11,4.52,4.83,5.22,4.9c2.06,0.19,4.94-0.18,6.21-5.6
		c0.42-1.8-2.14-6.74-6.1-9.42c-3.73-2.52-8.61-6.91-8.03-15.78c0.31-4.69,2.51-9.14,6.55-13.25c0.36-0.58,2.83-4.81,1.49-7.47
		c-0.37-0.74-0.93-1.21-1.71-1.46C2832.53,168.03,2828.11,169.33,2821.75,172.66z"/>
	<path d="M2816.86,173.11c-0.29,0-0.59-0.07-0.88-0.2c-0.87-0.41-1.6-1.41-1.96-2.67c-0.59-2.05-0.05-4.02,1.25-4.58
		c0.5-0.22,1.07-0.2,1.61,0.05c0.87,0.41,1.6,1.4,1.97,2.67c0.59,2.05,0.05,4.01-1.25,4.58l0,0
		C2817.36,173.06,2817.11,173.11,2816.86,173.11z M2816,167.14c-0.04,0-0.07,0.01-0.08,0.02c-0.38,0.17-0.71,1.3-0.33,2.62
		c0.26,0.9,0.74,1.47,1.09,1.64c0.16,0.07,0.23,0.04,0.26,0.03c0.38-0.17,0.71-1.3,0.33-2.63c-0.26-0.9-0.74-1.47-1.09-1.64
		C2816.1,167.15,2816.04,167.14,2816,167.14z"/>
	<path d="M2821.58,169.13c-0.3,0-0.6-0.07-0.9-0.21c-0.89-0.42-1.65-1.45-2.02-2.75c-0.61-2.11-0.06-4.14,1.28-4.72
		c0.51-0.22,1.1-0.2,1.64,0.05c0.89,0.42,1.65,1.45,2.02,2.75c0.61,2.11,0.06,4.14-1.28,4.72l0,0
		C2822.09,169.08,2821.84,169.13,2821.58,169.13z M2820.69,162.94c-0.05,0-0.08,0.01-0.1,0.02c-0.41,0.18-0.76,1.37-0.36,2.76
		c0.27,0.95,0.78,1.55,1.15,1.73c0.18,0.08,0.26,0.05,0.29,0.03l0,0c0.41-0.18,0.76-1.37,0.36-2.76c-0.27-0.95-0.77-1.55-1.15-1.72
		C2820.8,162.95,2820.74,162.94,2820.69,162.94z"/>
	<path d="M2827.12,166.98c-0.31,0-0.63-0.07-0.94-0.22c-0.94-0.44-1.73-1.53-2.13-2.91c-0.64-2.23-0.07-4.37,1.34-4.98
		c0.54-0.23,1.14-0.21,1.71,0.06c0.94,0.44,1.74,1.53,2.13,2.91c0.65,2.23,0.07,4.37-1.34,4.98
		C2827.65,166.93,2827.39,166.98,2827.12,166.98z M2826.16,160.36c-0.06,0-0.11,0.02-0.13,0.03c-0.47,0.2-0.86,1.48-0.41,3.02
		c0.32,1.1,0.88,1.7,1.26,1.88c0.21,0.1,0.32,0.05,0.36,0.03l0,0c0.47-0.2,0.86-1.48,0.41-3.02c-0.32-1.1-0.88-1.7-1.26-1.88
		C2826.3,160.37,2826.22,160.36,2826.16,160.36z"/>
	<path d="M2834,165.94c-0.48,0-0.96-0.15-1.4-0.44c-1.09-0.72-1.9-2.23-2.16-4.04c-0.19-1.31-0.07-2.64,0.33-3.73
		c0.45-1.22,1.22-2.04,2.15-2.29c0.68-0.19,1.38-0.06,2.03,0.36c1.09,0.71,1.9,2.23,2.16,4.04c0.19,1.31,0.07,2.64-0.33,3.73
		c-0.45,1.22-1.21,2.04-2.15,2.29C2834.42,165.91,2834.21,165.94,2834,165.94z M2833.54,156.98c-0.06,0-0.12,0.01-0.19,0.03l0,0
		c-0.87,0.24-1.61,2.09-1.3,4.22c0.19,1.32,0.75,2.46,1.44,2.9c0.25,0.16,0.48,0.21,0.7,0.15c0.86-0.24,1.6-2.09,1.3-4.22
		c-0.19-1.32-0.75-2.46-1.44-2.91C2833.87,157.04,2833.71,156.98,2833.54,156.98z"/>
	<path d="M2812.84,177.71c-0.28,0-0.56-0.06-0.83-0.19c-0.8-0.38-1.48-1.29-1.81-2.45c-0.54-1.88-0.04-3.7,1.17-4.22
		c0.47-0.21,1.01-0.19,1.51,0.05c0.8,0.38,1.48,1.29,1.81,2.45h0c0.54,1.88,0.04,3.69-1.17,4.22
		C2813.31,177.66,2813.08,177.71,2812.84,177.71z M2812.06,172.34c-0.02,0-0.03,0.01-0.04,0.01c-0.28,0.12-0.59,1.07-0.25,2.26
		c0.23,0.79,0.63,1.28,0.94,1.43c0.11,0.05,0.15,0.03,0.17,0.03c0.28-0.12,0.59-1.07,0.24-2.26l0,0c-0.23-0.79-0.63-1.28-0.94-1.43
		C2812.13,172.35,2812.09,172.34,2812.06,172.34z"/>
	<path d="M2855.69,224.22c-1.06,0-2.02-0.23-2.9-0.69c-1.76-0.93-3.13-2.79-4.05-5.54c-0.94-2.78,1.88-8.6,5.69-11.74
		c3.43-2.83,7.2-7.09,5.93-14.94c-0.69-4.26-3.14-8.17-7.28-11.63l-0.07-0.05l-0.05-0.07c-0.16-0.21-3.98-5.12-2.47-8.97l0,0
		c0.46-1.18,1.28-2.03,2.44-2.52c2.77-1.18,7.44-0.35,14.73,2.61l0.03,0.01c0.11,0.05,2.75,1.26,5.07,3.68
		c3.14,3.28,4.17,7.19,2.97,11.31c-0.81,2.76-3.64,11.79-7.02,20.28c-1.99,4.99-3.85,9.01-5.54,11.94c-2.19,3.81-4.1,5.83-5.84,6.16
		C2856.74,224.16,2856.2,224.22,2855.69,224.22z M2854.18,178.47c4.41,3.7,7.03,7.93,7.78,12.57c1.42,8.78-3.03,13.6-6.5,16.47
		c-3.68,3.04-5.77,8.2-5.18,9.96c1.78,5.28,4.68,5.37,6.71,4.98c0.69-0.13,2.22-1.01,4.73-5.37c1.65-2.87,3.48-6.82,5.44-11.73
		c3.36-8.43,6.17-17.39,6.97-20.13c1.04-3.56,0.18-6.82-2.54-9.68c-2.03-2.13-4.4-3.26-4.59-3.35c-6.65-2.71-11.17-3.59-13.45-2.62
		c-0.75,0.32-1.26,0.85-1.56,1.62C2850.91,173.95,2853.77,177.92,2854.18,178.47z"/>
	<path d="M2871.74,172.16c-0.19,0-0.38-0.03-0.56-0.09c-1.35-0.44-2.07-2.35-1.68-4.44c0.24-1.29,0.88-2.35,1.7-2.84
		c0.51-0.3,1.07-0.37,1.6-0.2c1.35,0.44,2.07,2.35,1.68,4.44v0c-0.24,1.29-0.88,2.35-1.7,2.84
		C2872.44,172.06,2872.09,172.16,2871.74,172.16z M2872.23,166.13c-0.04,0-0.1,0.01-0.19,0.07c-0.34,0.2-0.76,0.81-0.93,1.74
		c-0.26,1.36,0.18,2.45,0.58,2.58c0.03,0.01,0.1,0.03,0.25-0.06c0.34-0.2,0.76-0.82,0.93-1.74v0c0.26-1.36-0.18-2.45-0.57-2.58
		C2872.28,166.14,2872.26,166.13,2872.23,166.13z"/>
	<path d="M2866.65,168.66c-0.19,0-0.39-0.03-0.58-0.09c-1.39-0.45-2.13-2.42-1.72-4.58c0.25-1.33,0.91-2.43,1.75-2.93
		c0.52-0.31,1.1-0.38,1.63-0.21c1.39,0.45,2.13,2.41,1.72,4.58v0c-0.25,1.33-0.91,2.43-1.75,2.93
		C2867.37,168.56,2867.01,168.66,2866.65,168.66z M2867.16,162.4c-0.05,0-0.12,0.01-0.22,0.07c-0.36,0.21-0.8,0.86-0.98,1.83
		c-0.27,1.43,0.19,2.58,0.62,2.72c0.03,0.01,0.12,0.04,0.29-0.06c0.36-0.21,0.8-0.86,0.98-1.83c0.27-1.43-0.19-2.58-0.61-2.71
		C2867.22,162.4,2867.2,162.4,2867.16,162.4z"/>
	<path d="M2860.93,167.05c-0.2,0-0.4-0.03-0.6-0.09c-1.46-0.47-2.23-2.55-1.8-4.83c0.26-1.41,0.95-2.57,1.85-3.1
		c0.54-0.32,1.15-0.4,1.7-0.22c1.46,0.47,2.23,2.55,1.8,4.83v0c-0.27,1.41-0.96,2.57-1.85,3.1
		C2861.68,166.94,2861.3,167.05,2860.93,167.05z M2861.47,160.35c-0.06,0-0.15,0.02-0.26,0.09c-0.36,0.22-0.86,0.87-1.07,1.99
		c-0.3,1.58,0.21,2.81,0.7,2.97c0.04,0.01,0.16,0.05,0.36-0.07c0.36-0.22,0.86-0.87,1.07-1.99c0.3-1.58-0.21-2.81-0.7-2.97
		C2861.55,160.36,2861.52,160.35,2861.47,160.35z"/>
	<path d="M2853.95,166.66c-0.14,0-0.27-0.01-0.41-0.04c-0.96-0.17-1.79-0.91-2.36-2.08c-0.51-1.05-0.75-2.36-0.69-3.68l0,0
		c0.09-1.83,0.75-3.42,1.77-4.23c0.6-0.48,1.29-0.67,1.99-0.55c0.96,0.17,1.8,0.91,2.36,2.08c0.51,1.05,0.75,2.36,0.69,3.69
		c-0.09,1.83-0.75,3.41-1.76,4.23C2855.05,166.46,2854.51,166.66,2853.95,166.66z M2853.84,157.69c-0.18,0-0.37,0.07-0.56,0.22
		c-0.64,0.51-1.09,1.7-1.15,3.03v0c-0.1,2.14,0.81,3.92,1.7,4.07c0.23,0.04,0.45-0.03,0.68-0.22c0.64-0.51,1.09-1.7,1.15-3.03
		c0.1-2.14-0.81-3.92-1.7-4.07C2853.92,157.69,2853.88,157.69,2853.84,157.69z"/>
	<path d="M2876.19,176.37c-0.18,0-0.36-0.03-0.53-0.08l0,0c-1.25-0.41-1.92-2.17-1.56-4.09c0.22-1.19,0.81-2.16,1.57-2.61
		c0.48-0.28,1.01-0.35,1.5-0.19c1.25,0.4,1.93,2.16,1.56,4.09c-0.22,1.18-0.81,2.16-1.57,2.61
		C2876.85,176.28,2876.52,176.37,2876.19,176.37z M2876.16,174.73c0.02,0.01,0.06,0.02,0.16-0.04c0.29-0.17,0.65-0.7,0.8-1.51
		c0.23-1.22-0.17-2.13-0.46-2.23c-0.02-0.01-0.06-0.02-0.16,0.04c-0.29,0.17-0.65,0.7-0.8,1.51
		C2875.47,173.71,2875.87,174.63,2876.16,174.73z"/>
</g>
<g>
	<path class="st2" d="M82.58,56.07c1.52,1.21,2.98,2.35,4.42,3.52c0.97,0.79,1.91,1.61,2.69,2.6c0.28,0.35,0.5,0.76,0.66,1.18
		c0.28,0.77-0.03,1.49-0.77,1.85c-0.42,0.2-0.87,0.38-1.33,0.47c-0.82,0.16-1.53,0.45-2,1.19c-0.69,1.09-0.66,2.69,1.08,3.27
		c0.8,0.27,1.64,0.35,2.48,0.39c2.92,0.15,5.83,0.03,8.73-0.22c1.44-0.12,2.86-0.36,4.17-1c1.7-0.83,2.64-2.15,2.62-4.09
		c-0.01-0.86-0.19-1.69-0.55-2.47c-0.79-1.73-1.62-3.43-2.39-5.17c-0.96-2.19-1.8-4.43-2.35-6.77c-0.56-2.37-0.66-4.75-0.24-7.15
		c0.24-1.4,0.57-2.78,0.73-4.19c0.42-3.62,0.14-7.21-0.74-10.75c-0.59-2.39-1.48-4.66-2.64-6.83c-2.25-4.19-5.3-7.69-9.16-10.48
		c-2.53-1.82-5.29-3.19-8.25-4.14c-2.43-0.79-4.93-1.22-7.49-1.33c-3.31-0.13-6.55,0.28-9.72,1.22c-1.19,0.35-2.36,0.8-3.57,1.12
		c-1.62,0.43-3.28,0.5-4.9-0.01c-0.85-0.27-1.71-0.56-2.52-0.94c-2.11-1.01-4.27-1.77-6.63-1.92c-2.17-0.13-4.31,0.02-6.41,0.6
		C37,6.43,35.73,7.2,34.67,8.34c-1.55,1.67-3.23,3.19-5.18,4.39c-1.01,0.62-2.07,1.18-3.11,1.75c-0.07,0.04-0.21,0.01-0.27-0.05
		c-0.31-0.25-0.58-0.55-0.9-0.78c-1.48-1.04-2.95-0.84-4.08,0.56c-0.4,0.5-0.73,1.05-1.09,1.58c-0.03-0.06-0.09-0.14-0.14-0.23
		c-0.28-0.63-0.68-1.18-1.16-1.67c-0.23-0.24-0.51-0.46-0.82-0.6c-1.23-0.54-2.42-0.33-3.52,0.35c-1,0.61-1.35,1.63-0.97,2.73
		c0.27,0.77,0.61,1.52,0.97,2.39c-0.28,0.26-0.64,0.56-0.97,0.88c-1.27,1.25-2.45,2.57-3.45,4.06c-0.82,1.21-1.29,2.5-0.9,3.99
		c0.03,0.11-0.03,0.28-0.1,0.39c-0.73,1.17-1.63,2.21-2.65,3.13c-0.98,0.9-2.03,1.73-3.02,2.63c-0.37,0.34-0.67,0.76-0.96,1.18
		c-0.23,0.34-0.18,0.72-0.02,1.09c0.25,0.55,0.7,0.93,1.14,1.31c0.44,0.38,0.9,0.76,1.28,1.19c0.58,0.66,1.25,1.05,2.15,0.96
		c0.23-0.02,0.48,0.02,0.76,0.04C7.27,40.08,7.27,40.55,7.47,41c0.46,1.02,1.33,1.68,2.63,1.06c0.53-0.25,1.06-0.56,1.52-0.93
		c0.86-0.71,1.82-1.02,2.92-0.94c1.27,0.09,2.44-0.21,3.54-0.82c0.96-0.53,1.95-0.96,3.02-1.21c2-0.47,4.02-0.59,6.06-0.34
		c1.65,0.21,3.23,0.64,4.65,1.53c1.9,1.18,3.02,2.84,3.12,5.12c0.01,0.33,0.05,0.66,0.09,0.99c0.17,1.24,0.41,2.46,0.45,3.71
		c0.06,2.04-0.2,4.02-0.83,5.95c-0.39,1.21-0.85,2.41-1.3,3.6c-0.64,1.66-1.3,3.31-2.28,4.81c-0.84,1.28-2.01,2.09-3.53,2.33
		c-0.81,0.13-1.59,0.3-2.3,0.75c-1.17,0.74-1.84,1.75-1.81,3.16c0.01,0.7,0.3,1.09,0.97,1.3c0.24,0.08,0.49,0.14,0.75,0.17
		c2.82,0.31,5.65,0.45,8.5,0.45c1.37,0,2.59-0.41,3.74-1.15c1.2-0.77,2.32-1.64,3.34-2.63c1.86-1.8,3.66-3.64,5.49-5.46
		c0.3-0.3,0.61-0.6,0.92-0.91c0.26,0.69,0.49,1.36,0.76,2.02c0.41,1.02,0.91,2,1.67,2.81c0.64,0.69,1.41,1.06,2.36,0.85
		c1.85-0.41,3.45-1.27,4.77-2.63c0.46-0.48,0.48-1.04,0.07-1.57c-0.51-0.67-1.04-1.32-1.57-1.98c-0.85-1.05-1.25-2.24-1.03-3.59
		c0.16-0.96,0.34-1.92,0.58-2.86c0.55-2.19,1.14-4.37,1.39-6.63c0.08-0.72,0.08-0.73,0.81-0.75c1.84-0.05,3.67,0.04,5.46,0.53
		c0.82,0.22,1.64,0.5,2.23,1.16c0.61,0.68,0.92,1.51,1.09,2.4c0.34,1.85,0.44,3.72,0.44,5.59c0,1.6-0.03,3.2-0.49,4.75
		c-0.41,1.39-1.23,2.35-2.76,2.58c-0.92,0.14-1.84,0.35-2.74,0.6c-2.15,0.6-3.17,2.32-2.66,4.42c0.22,0.93,0.77,1.47,1.6,1.58
		c0.19,0.02,0.38,0.02,0.57,0.02c1.47-0.06,2.93-0.14,4.4-0.18c2.85-0.06,5.69-0.08,8.54-0.14c1.2-0.03,2.4-0.09,3.57-0.43
		c1.24-0.36,1.94-1.2,2.05-2.49c0.04-0.43,0.03-0.87,0.08-1.3c0.18-1.4,0.4-2.79,0.8-4.14c0.47-1.58,1.04-3.1,2.07-4.41
		C81.6,57.18,82.09,56.64,82.58,56.07z"/>
	<path d="M82.58,56.07c-0.49,0.57-0.99,1.12-1.44,1.69c-1.03,1.31-1.61,2.84-2.07,4.41c-0.4,1.36-0.62,2.75-0.8,4.14
		c-0.06,0.43-0.05,0.87-0.08,1.3c-0.11,1.29-0.8,2.12-2.05,2.49c-1.17,0.34-2.37,0.4-3.57,0.43c-2.85,0.06-5.69,0.08-8.54,0.14
		c-1.47,0.03-2.93,0.12-4.4,0.18c-0.19,0.01-0.38,0.01-0.57-0.02c-0.84-0.11-1.38-0.65-1.6-1.58c-0.51-2.1,0.51-3.82,2.66-4.42
		c0.9-0.25,1.82-0.46,2.74-0.6c1.53-0.24,2.35-1.19,2.76-2.58c0.46-1.55,0.49-3.15,0.49-4.75c0-1.87-0.1-3.75-0.44-5.59
		c-0.16-0.88-0.48-1.71-1.09-2.4c-0.59-0.67-1.41-0.94-2.23-1.16c-1.79-0.49-3.62-0.58-5.46-0.53c-0.73,0.02-0.73,0.03-0.81,0.75
		c-0.24,2.26-0.84,4.44-1.39,6.63c-0.24,0.94-0.42,1.9-0.58,2.86c-0.22,1.35,0.19,2.54,1.03,3.59c0.53,0.66,1.06,1.31,1.57,1.98
		c0.41,0.53,0.39,1.09-0.07,1.57c-1.32,1.36-2.93,2.22-4.77,2.63c-0.96,0.21-1.72-0.16-2.36-0.85c-0.76-0.82-1.25-1.79-1.67-2.81
		c-0.26-0.65-0.5-1.32-0.76-2.02c-0.31,0.31-0.62,0.61-0.92,0.91c-1.83,1.82-3.64,3.67-5.49,5.46c-1.02,0.99-2.14,1.86-3.34,2.63
		c-1.14,0.74-2.36,1.15-3.74,1.15c-2.84,0.01-5.67-0.13-8.5-0.45c-0.25-0.03-0.5-0.09-0.75-0.17c-0.67-0.21-0.96-0.59-0.97-1.3
		c-0.02-1.41,0.65-2.42,1.81-3.16c0.71-0.45,1.49-0.62,2.3-0.75c1.53-0.25,2.69-1.05,3.53-2.33c0.98-1.5,1.64-3.15,2.28-4.81
		c0.46-1.19,0.91-2.38,1.3-3.6c0.63-1.93,0.89-3.92,0.83-5.95c-0.04-1.26-0.28-2.48-0.45-3.71c-0.04-0.33-0.08-0.66-0.09-0.99
		c-0.1-2.28-1.23-3.94-3.12-5.12c-1.42-0.89-3-1.32-4.65-1.53c-2.04-0.26-4.06-0.14-6.06,0.34c-1.07,0.25-2.06,0.68-3.02,1.21
		c-1.1,0.61-2.28,0.91-3.54,0.82c-1.1-0.08-2.06,0.23-2.92,0.94c-0.45,0.37-0.98,0.68-1.52,0.93C8.8,42.67,7.93,42.02,7.47,41
		c-0.2-0.45-0.2-0.92,0.21-1.37c-0.28-0.02-0.52-0.06-0.76-0.04c-0.91,0.08-1.57-0.3-2.15-0.96c-0.38-0.44-0.84-0.81-1.28-1.19
		c-0.44-0.39-0.89-0.76-1.14-1.31c-0.17-0.37-0.21-0.75,0.02-1.09c0.29-0.42,0.59-0.84,0.96-1.18c0.99-0.9,2.03-1.73,3.02-2.63
		c1.02-0.93,1.92-1.96,2.65-3.13c0.07-0.11,0.13-0.27,0.1-0.39c-0.39-1.49,0.08-2.78,0.9-3.99c1-1.48,2.18-2.81,3.45-4.06
		c0.33-0.32,0.68-0.63,0.97-0.88c-0.35-0.87-0.7-1.61-0.97-2.39c-0.38-1.1-0.03-2.12,0.97-2.73c1.1-0.67,2.29-0.89,3.52-0.35
		c0.3,0.13,0.58,0.36,0.82,0.6c0.48,0.49,0.87,1.04,1.16,1.67c0.04,0.09,0.1,0.18,0.14,0.23c0.36-0.53,0.69-1.08,1.09-1.58
		c1.13-1.4,2.6-1.59,4.08-0.56c0.32,0.23,0.59,0.53,0.9,0.78c0.06,0.05,0.21,0.08,0.27,0.05c1.04-0.57,2.1-1.13,3.11-1.75
		c1.95-1.2,3.63-2.72,5.18-4.39C35.73,7.2,37,6.43,38.5,6.02c2.1-0.58,4.24-0.73,6.41-0.6c2.35,0.14,4.52,0.9,6.63,1.92
		c0.81,0.39,1.66,0.67,2.52,0.94c1.63,0.51,3.28,0.44,4.9,0.01c1.2-0.32,2.37-0.77,3.57-1.12c3.17-0.94,6.41-1.35,9.72-1.22
		c2.56,0.1,5.06,0.54,7.49,1.33c2.96,0.96,5.72,2.32,8.25,4.14c3.87,2.79,6.91,6.29,9.16,10.48c1.16,2.17,2.05,4.44,2.64,6.83
		c0.88,3.54,1.15,7.13,0.74,10.75c-0.16,1.41-0.49,2.79-0.73,4.19c-0.41,2.4-0.32,4.79,0.24,7.15c0.55,2.33,1.39,4.58,2.35,6.77
		c0.76,1.74,1.6,3.45,2.39,5.17c0.36,0.78,0.54,1.61,0.55,2.47c0.02,1.94-0.92,3.26-2.62,4.09c-1.32,0.64-2.74,0.87-4.17,1
		c-2.9,0.25-5.81,0.37-8.73,0.22c-0.84-0.04-1.68-0.12-2.48-0.39c-1.74-0.59-1.77-2.19-1.08-3.27c0.47-0.75,1.18-1.04,2-1.19
		c0.46-0.09,0.9-0.27,1.33-0.47c0.74-0.35,1.05-1.08,0.77-1.85c-0.15-0.42-0.38-0.83-0.66-1.18c-0.78-0.99-1.72-1.81-2.69-2.6
		C85.56,58.42,84.1,57.28,82.58,56.07z"/>
</g>
</svg>
