<?xml version="1.0" encoding="utf-8"?>
<!-- Generator: Adobe Illustrator 28.1.0, SVG Export Plug-In . SVG Version: 6.00 Build 0)  -->
<svg version="1.1" id="Layer_1" xmlns="http://www.w3.org/2000/svg" xmlns:xlink="http://www.w3.org/1999/xlink" x="0px" y="0px"
	 viewBox="0 0 110.55 76.54" style="enable-background:new 0 0 110.55 76.54;" xml:space="preserve">
<style type="text/css">
	.st0{display:none;}
	.st1{display:inline;fill:none;}
	.st2{fill:none;}
</style>
<g id="Layer_2_00000073722119373351752270000017113015111246931634_" class="st0">
	<line class="st1" x1="-24.13" y1="74.54" x2="142.13" y2="74.54"/>
	<line class="st1" x1="-24.13" y1="2" x2="142.13" y2="2"/>
</g>
<path d="M-5351.56,183.13c0-4.69,1.76-9.61,2.23-11.95c0.47-2.23,1.29-10.9-7.97-10.9c-9.26,0-8.44,8.67-7.97,10.9
	c0.47,2.23,2.23,7.26,2.23,11.95c0,5.39-2.34,10.08-4.57,15.47c-2.81-7.5-6.44-13.83-6.44-21.09c0-5.62,2.11-11.6,2.69-14.3
	c0.47-2.81,1.52-13.12-9.61-13.12s-10.08,10.31-9.61,13.01c0.47,2.69,2.69,8.67,2.69,14.3c0,7.26-3.75,13.71-6.44,21.09
	c-2.11-5.27-4.57-10.08-4.57-15.47c0-4.69,1.76-9.61,2.23-11.95c0.47-2.23,1.29-10.9-7.97-10.9s-8.44,8.67-7.97,10.9
	s2.23,7.26,2.23,11.95c0,9.73-7.85,17.58-7.85,30c0,10.55,4.57,24.14,6.8,25.54h13.71c0.94-0.59,2.11-3.05,3.4-6.68
	c1.64,6.21,3.75,11.13,5.16,11.95h16.4c1.41-0.82,3.52-5.74,5.27-11.95c1.17,3.52,2.46,6.09,3.4,6.68h13.59
	c2.23-1.29,6.8-15,6.8-25.54C-5343.71,200.59-5351.56,192.74-5351.56,183.13z M-5361.05,165.09c0.7-0.82,1.99-1.29,3.75-1.29
	s3.05,0.47,3.75,1.29c1.17,1.41,1.05,4.1,0.82,5.39c-0.12,0.47-0.23,1.29-0.47,2.11c-0.23,1.05-0.59,2.23-0.94,3.63h-6.21
	c-0.23-1.41-0.59-2.58-0.94-3.63c-0.23-0.82-0.47-1.64-0.47-2.11C-5362.11,169.19-5362.23,166.49-5361.05,165.09z M-5354.96,184.3
	h-4.69c0-0.47,0.12-0.82,0.12-1.29c0-0.82-0.12-1.64-0.12-2.58h4.8c-0.12,0.82-0.12,1.64-0.12,2.58
	C-5355.08,183.48-5354.96,183.95-5354.96,184.3z M-5386.01,155.36c0.94-1.17,2.69-1.76,5.04-1.76c2.34,0,4.1,0.59,5.04,1.76
	c1.52,1.87,1.41,5.39,1.05,7.03c-0.12,0.59-0.35,1.52-0.59,2.58c-0.35,1.29-0.7,2.69-1.05,4.22h-8.91c-0.35-1.52-0.7-2.93-1.05-4.22
	c-0.23-1.05-0.59-1.99-0.59-2.58C-5387.42,160.63-5387.54,157.23-5386.01,155.36z M-5377.46,178.91h-7.03
	c0-0.47,0.12-1.05,0.12-1.52c0-1.05-0.12-1.99-0.12-3.05h7.03c-0.12,0.94-0.12,1.99-0.12,3.05
	C-5377.58,177.86-5377.58,178.44-5377.46,178.91z M-5408.39,165.09c0.7-0.82,1.99-1.29,3.75-1.29s3.05,0.47,3.75,1.29
	c1.17,1.41,1.05,4.1,0.82,5.39c-0.12,0.47-0.23,1.29-0.47,2.11c-0.23,1.05-0.59,2.23-0.94,3.63h-6.21
	c-0.35-1.41-0.59-2.58-0.94-3.63c-0.23-0.82-0.47-1.64-0.47-2.11C-5409.45,169.19-5409.56,166.49-5408.39,165.09z M-5402.3,184.3
	h-4.69c0-0.47,0-0.82,0-1.29c0-0.82,0-1.64-0.12-2.58h4.8c-0.12,0.82-0.12,1.64-0.12,2.58
	C-5402.42,183.48-5402.3,183.95-5402.3,184.3z M-5399.49,235.04h-10.31c-1.64-3.16-4.92-13.24-4.92-22.03
	c0-5.86,1.99-10.78,3.98-15.47c1.17-2.81,2.46-5.74,3.16-8.91h5.86c0.7,3.05,1.99,5.98,3.16,8.91c0.82,2.11,1.76,4.22,2.46,6.44
	c-0.7,2.93-1.17,5.98-1.17,9.37c0,3.75,0.47,7.73,1.17,11.6C-5397.14,229.41-5398.55,233.28-5399.49,235.04z M-5374.41,240.31
	h-13.12c-1.41-2.34-3.52-8.55-4.92-15.35c-0.82-3.87-1.29-7.85-1.29-11.6c0-3.4,0.59-6.44,1.41-9.37c0.94-3.28,2.23-6.44,3.52-9.49
	c1.41-3.4,2.81-6.8,3.75-10.43h8.55c0.82,3.63,2.34,7.03,3.75,10.43c1.29,3.05,2.58,6.09,3.52,9.49c0.82,2.93,1.41,5.98,1.41,9.37
	c0,3.75-0.47,7.85-1.29,11.6C-5370.78,231.76-5373.01,237.97-5374.41,240.31z M-5352.15,235.04h-10.31
	c-0.94-1.76-2.34-5.62-3.4-10.08c0.7-3.87,1.17-7.97,1.17-11.6c0-3.4-0.47-6.44-1.17-9.37c0.7-2.23,1.64-4.34,2.46-6.44
	c1.17-2.81,2.46-5.74,3.16-8.91h5.86c0.7,3.05,1.99,5.98,3.16,8.91c1.99,4.69,3.98,9.61,3.98,15.47
	C-5347.23,221.8-5350.51,231.87-5352.15,235.04z"/>
<g>
	<path class="st2" d="M75.49,58.79c-0.81-1.08-1.25-2.3-1.29-3.56c-1.58-0.22-3.04-1.29-3.99-3.02c-1.29-2.34-1.5-5.69,0.29-8.19
		c-2.05-2.25-1.96-5.23-0.82-7.43c1.04-2,2.79-3.21,4.6-3.31c0.35-2.32,1.49-3.57,2.48-4.22c0.62-0.41,1.33-0.69,2.1-0.83
		c-6.99-4.1-14.09-0.94-16.84,0.65c-0.31,0.7-0.54,1.47-0.78,2.09l-0.39,1.24l-2.56-0.85l0.39-1.24c0-0.16,0.08-0.47,0.23-0.78
		c-0.78-0.62-4.81-3.8-10.08-3.8c-0.39,0-0.7,0.08-1.09,0.08c-4.5,0.39-8.68,3.1-12.56,8.06c-4.03,5.19-5.5,15.81-1.16,24.73
		c3.02,6.2,9.92,13.57,25.35,13.57c5.66,0,14.03-3.18,21.16-10c-0.07-0.01-0.14-0.02-0.21-0.03c0.03-0.03,0.05-0.05,0.08-0.08
		C78.34,61.36,76.62,60.29,75.49,58.79z"/>
	<path class="st2" d="M62.01,9.04c-3.26-3.57-8.14-3.26-9.07-2.71c-0.62,0.85-1.4,5.66,1.86,9.23c3.26,3.49,8.14,3.18,9.07,2.71
		C64.49,17.42,65.27,12.61,62.01,9.04z"/>
	<path d="M84.65,60.21c-0.23-0.47-0.78-0.78-1.32-0.78c-0.12,0.01-0.25,0.01-0.38,0.02c-0.03,0.02-0.06,0.05-0.09,0.07
		c-2.25-0.14-4.17-1.01-5.19-2.37c-0.69-0.91-0.9-1.96-0.62-3.02c0.12-0.47-0.01-0.98-0.36-1.32c-0.35-0.34-0.86-0.47-1.33-0.33
		c-1.51,0.44-2.49-1.1-2.76-1.58c-0.98-1.77-1.04-4.39,0.73-5.97c0.31-0.27,0.48-0.67,0.45-1.09c-0.02-0.41-0.23-0.79-0.56-1.03
		c-1.98-1.43-1.88-3.5-1.12-4.96c0.59-1.14,1.78-2.18,2.99-1.76c0.42,0.14,0.87,0.08,1.23-0.18c0.36-0.25,0.57-0.67,0.57-1.11
		c0-1.17,0.24-2.73,1.38-3.49c1.04-0.69,2.68-0.66,4.51,0.1c0.01,0,0.01,0,0.02,0.01c0.03,0.02,0.06,0.05,0.08,0.07
		c0.06,0.03,0.11,0.07,0.17,0.1c0.1,0,0.19,0,0.29,0c0.54,0.08,1.09-0.23,1.32-0.78c0.23-0.54,0.16-1.09-0.23-1.55
		c-7.52-7.6-15.97-6.05-20.93-4.03c2.02-4.5,4.73-9.07,7.13-10l1.24-0.47l-0.93-2.56l-1.24,0.47c-0.93,0.31-1.78,0.93-2.64,1.78
		c-0.16-2.4-1.01-5.04-3.1-7.36C59.53,2.3,52.71,2.77,51.08,4.24c-1.63,1.47-2.64,8.3,1.71,13.02c1.86,2.02,4.5,3.41,7.36,3.8
		c0.54,0.08,1.09,0.08,1.71,0.08h0.54c-1.01,1.94-1.86,3.95-2.48,5.58c-1.94-1.47-6.51-4.26-12.33-3.8
		c-5.27,0.47-10.16,3.49-14.5,9.07c-4.42,5.74-6.43,17.29-1.47,27.52c4.73,9.77,14.57,15.12,27.75,15.12
		c9.46,0,19.38-6.51,25.12-12.95C84.8,61.3,84.88,60.68,84.65,60.21z M54.8,15.56c-3.26-3.57-2.48-8.37-1.86-9.23
		c0.93-0.54,5.81-0.85,9.07,2.71c3.26,3.57,2.48,8.37,1.86,9.23C62.94,18.74,58.06,19.05,54.8,15.56z M59.37,71.99
		c-15.43,0-22.33-7.36-25.35-13.57c-4.34-8.92-2.87-19.54,1.16-24.73c3.88-4.96,8.06-7.67,12.56-8.06c0.39,0,0.7-0.08,1.09-0.08
		c5.27,0,9.3,3.18,10.08,3.8c-0.16,0.31-0.23,0.62-0.23,0.78l-0.39,1.24l2.56,0.85l0.39-1.24c0.23-0.62,0.47-1.4,0.78-2.09
		c2.75-1.59,9.85-4.75,16.84-0.65c-0.77,0.14-1.48,0.42-2.1,0.83c-0.98,0.66-2.12,1.9-2.48,4.22c-1.81,0.1-3.56,1.31-4.6,3.31
		c-1.14,2.2-1.23,5.18,0.82,7.43c-1.79,2.5-1.58,5.84-0.29,8.19c0.95,1.72,2.41,2.79,3.99,3.02c0.04,1.26,0.48,2.49,1.29,3.56
		c1.13,1.5,2.85,2.56,4.92,3.09c-0.03,0.03-0.05,0.06-0.08,0.08c0.07,0.01,0.14,0.02,0.21,0.03C73.41,68.82,65.03,71.99,59.37,71.99
		z"/>
</g>
</svg>
