<?xml version="1.0" encoding="utf-8"?>
<!-- Generator: Adobe Illustrator 28.1.0, SVG Export Plug-In . SVG Version: 6.00 Build 0)  -->
<svg version="1.1" id="Layer_1" xmlns="http://www.w3.org/2000/svg" xmlns:xlink="http://www.w3.org/1999/xlink" x="0px" y="0px"
	 viewBox="0 0 110.55 76.54" style="enable-background:new 0 0 110.55 76.54;" xml:space="preserve">
<style type="text/css">
	.st0{display:none;}
	.st1{display:inline;fill:none;}
</style>
<g id="Layer_2_00000073722119373351752270000017113015111246931634_" class="st0">
	<line class="st1" x1="-24.13" y1="74.54" x2="142.13" y2="74.54"/>
	<line class="st1" x1="-24.13" y1="2" x2="142.13" y2="2"/>
</g>
<path d="M-5351.56,183.13c0-4.69,1.76-9.61,2.23-11.95c0.47-2.23,1.29-10.9-7.97-10.9c-9.26,0-8.44,8.67-7.97,10.9
	c0.47,2.23,2.23,7.26,2.23,11.95c0,5.39-2.34,10.08-4.57,15.47c-2.81-7.5-6.44-13.83-6.44-21.09c0-5.62,2.11-11.6,2.69-14.3
	c0.47-2.81,1.52-13.12-9.61-13.12s-10.08,10.31-9.61,13.01c0.47,2.69,2.69,8.67,2.69,14.3c0,7.26-3.75,13.71-6.44,21.09
	c-2.11-5.27-4.57-10.08-4.57-15.47c0-4.69,1.76-9.61,2.23-11.95c0.47-2.23,1.29-10.9-7.97-10.9s-8.44,8.67-7.97,10.9
	s2.23,7.26,2.23,11.95c0,9.73-7.85,17.58-7.85,30c0,10.55,4.57,24.14,6.8,25.54h13.71c0.94-0.59,2.11-3.05,3.4-6.68
	c1.64,6.21,3.75,11.13,5.16,11.95h16.4c1.41-0.82,3.52-5.74,5.27-11.95c1.17,3.52,2.46,6.09,3.4,6.68h13.59
	c2.23-1.29,6.8-15,6.8-25.54C-5343.71,200.59-5351.56,192.74-5351.56,183.13z M-5361.05,165.09c0.7-0.82,1.99-1.29,3.75-1.29
	s3.05,0.47,3.75,1.29c1.17,1.41,1.05,4.1,0.82,5.39c-0.12,0.47-0.23,1.29-0.47,2.11c-0.23,1.05-0.59,2.23-0.94,3.63h-6.21
	c-0.23-1.41-0.59-2.58-0.94-3.63c-0.23-0.82-0.47-1.64-0.47-2.11C-5362.11,169.19-5362.23,166.49-5361.05,165.09z M-5354.96,184.3
	h-4.69c0-0.47,0.12-0.82,0.12-1.29c0-0.82-0.12-1.64-0.12-2.58h4.8c-0.12,0.82-0.12,1.64-0.12,2.58
	C-5355.08,183.48-5354.96,183.95-5354.96,184.3z M-5386.01,155.36c0.94-1.17,2.69-1.76,5.04-1.76c2.34,0,4.1,0.59,5.04,1.76
	c1.52,1.87,1.41,5.39,1.05,7.03c-0.12,0.59-0.35,1.52-0.59,2.58c-0.35,1.29-0.7,2.69-1.05,4.22h-8.91c-0.35-1.52-0.7-2.93-1.05-4.22
	c-0.23-1.05-0.59-1.99-0.59-2.58C-5387.42,160.63-5387.54,157.23-5386.01,155.36z M-5377.46,178.91h-7.03
	c0-0.47,0.12-1.05,0.12-1.52c0-1.05-0.12-1.99-0.12-3.05h7.03c-0.12,0.94-0.12,1.99-0.12,3.05
	C-5377.58,177.86-5377.58,178.44-5377.46,178.91z M-5408.39,165.09c0.7-0.82,1.99-1.29,3.75-1.29s3.05,0.47,3.75,1.29
	c1.17,1.41,1.05,4.1,0.82,5.39c-0.12,0.47-0.23,1.29-0.47,2.11c-0.23,1.05-0.59,2.23-0.94,3.63h-6.21
	c-0.35-1.41-0.59-2.58-0.94-3.63c-0.23-0.82-0.47-1.64-0.47-2.11C-5409.45,169.19-5409.56,166.49-5408.39,165.09z M-5402.3,184.3
	h-4.69c0-0.47,0-0.82,0-1.29c0-0.82,0-1.64-0.12-2.58h4.8c-0.12,0.82-0.12,1.64-0.12,2.58
	C-5402.42,183.48-5402.3,183.95-5402.3,184.3z M-5399.49,235.04h-10.31c-1.64-3.16-4.92-13.24-4.92-22.03
	c0-5.86,1.99-10.78,3.98-15.47c1.17-2.81,2.46-5.74,3.16-8.91h5.86c0.7,3.05,1.99,5.98,3.16,8.91c0.82,2.11,1.76,4.22,2.46,6.44
	c-0.7,2.93-1.17,5.98-1.17,9.37c0,3.75,0.47,7.73,1.17,11.6C-5397.14,229.41-5398.55,233.28-5399.49,235.04z M-5374.41,240.31
	h-13.12c-1.41-2.34-3.52-8.55-4.92-15.35c-0.82-3.87-1.29-7.85-1.29-11.6c0-3.4,0.59-6.44,1.41-9.37c0.94-3.28,2.23-6.44,3.52-9.49
	c1.41-3.4,2.81-6.8,3.75-10.43h8.55c0.82,3.63,2.34,7.03,3.75,10.43c1.29,3.05,2.58,6.09,3.52,9.49c0.82,2.93,1.41,5.98,1.41,9.37
	c0,3.75-0.47,7.85-1.29,11.6C-5370.78,231.76-5373.01,237.97-5374.41,240.31z M-5352.15,235.04h-10.31
	c-0.94-1.76-2.34-5.62-3.4-10.08c0.7-3.87,1.17-7.97,1.17-11.6c0-3.4-0.47-6.44-1.17-9.37c0.7-2.23,1.64-4.34,2.46-6.44
	c1.17-2.81,2.46-5.74,3.16-8.91h5.86c0.7,3.05,1.99,5.98,3.16,8.91c1.99,4.69,3.98,9.61,3.98,15.47
	C-5347.23,221.8-5350.51,231.87-5352.15,235.04z"/>
<g>
	<path d="M100.16,49.31c-0.03,0.01-3,0.64-5.22,0.49c-1.11-0.07-3-0.67-4.99-1.3c-2.01-0.63-4.08-1.29-5.8-1.56
		c-1.65-0.26-4.64-0.2-7.81-0.13c-3.49,0.07-7.1,0.15-8.66-0.23c-1.45-0.35-2.55-0.86-3.61-1.35c-1.13-0.52-2.3-1.06-3.83-1.39
		c-2.07-0.44-16.93-0.28-25.83-0.14c1.39-0.48,2.55-1.03,3.53-1.66c0.3-0.11,1.97-0.69,3.34-0.69c0,0,0,0,0,0
		c0.64,0,1.17,0.26,1.78,0.56c0.7,0.35,1.49,0.74,2.55,0.74c1.12,0,1.72-0.35,2.25-0.66c0.41-0.24,0.77-0.45,1.44-0.53
		c0.51-0.06,0.92,0.14,1.4,0.38c0.75,0.37,1.77,0.87,2.94-0.26c0.34-0.32,0.51-0.76,0.51-1.25c0-1.87-2.65-4.48-3.18-4.98
		c-0.29-0.27-0.74-0.26-1.02,0.03c-0.27,0.29-0.26,0.74,0.03,1.02c1.13,1.08,2.73,3.01,2.73,3.94c0,0.15-0.05,0.19-0.07,0.21
		c-0.43,0.42-0.6,0.35-1.31,0c-0.56-0.28-1.26-0.62-2.2-0.51c-0.22,0.03-0.42,0.07-0.6,0.11l-0.05-3.34
		c-0.01-0.4-0.34-0.71-0.73-0.71c-0.4,0.01-0.71,0.33-0.71,0.73l0.06,3.94c-0.45,0.26-0.78,0.45-1.49,0.45
		c-0.53,0-0.96-0.15-1.41-0.35c0.38-1.8,0.27-3.62-0.32-5.41c-0.13-0.38-0.53-0.58-0.91-0.46c-0.38,0.13-0.58,0.53-0.45,0.91
		c0.48,1.44,0.59,2.89,0.34,4.34c-0.46-0.18-0.97-0.33-1.57-0.33c0,0,0,0,0,0c-0.52,0-1.07,0.07-1.58,0.17
		c0.2-0.66,0.17-1.39-0.13-2.06l-0.13-0.29c1.15-0.88,1.89-1.88,2.3-3.1c0,0,0,0,0,0c0.15-0.44,0.26-0.9,0.32-1.4
		c0.11-0.8,0.74-1.46,1.58-1.64c3.33-0.72,9.52-1.96,13.46-2.07c1.64-0.05,3.83-0.04,6.15-0.03c5.67,0.02,12.73,0.05,17.43-0.69
		c6.55-1.03,19.33-4.86,19.87-5.02c0.38-0.11,0.6-0.52,0.48-0.9c-0.11-0.38-0.51-0.59-0.9-0.48c-0.13,0.04-13.22,3.97-19.68,4.98
		c-0.01,0-0.03,0-0.04,0.01c-0.44-3.02-3.24-5.46-6.6-5.67c0.16-0.54,0.25-1.09,0.25-1.65c0-3.5-3.2-6.35-7.14-6.35
		c-0.46,0-0.92,0.04-1.37,0.12c0.2-0.69,0.31-1.41,0.31-2.14c0-4.15-3.38-7.53-7.53-7.53c-1.09,0-2.16,0.24-3.15,0.69
		c-1.39-1.68-4.06-2.74-7.03-2.74c-2.72,0-5.2,0.88-6.67,2.34c-1.63-1.29-3.63-1.99-5.71-1.99c-5.08,0-9.22,4.14-9.22,9.22
		c0,1.32,0.29,2.62,0.84,3.82c-2.69,0.47-4.74,2.83-4.74,5.65c0,0.81,0.17,1.6,0.49,2.32c-3.21,0.45-5.66,2.73-5.66,5.46
		c0,0.59,0.12,1.18,0.35,1.74c-1.92,0.14-3.44,1.4-3.52,2.94h-3c-0.4,0-0.72,0.32-0.72,0.72s0.32,0.72,0.72,0.72h28.67
		c-0.41,0.68-0.99,1.26-1.82,1.83c-0.29,0.2-0.39,0.57-0.25,0.89l0.37,0.83c0.28,0.62,0.11,1.36-0.4,1.75
		c-2.03,1.56-5.36,2.7-10.2,3.48c-0.37,0.06-0.64,0.4-0.6,0.77c0.03,0.38,0.35,0.67,0.73,0.65c8.17-0.17,29.88-0.51,32.17-0.02
		c1.38,0.3,2.42,0.78,3.53,1.29c1.13,0.52,2.29,1.06,3.88,1.44c1.74,0.42,5.28,0.35,9.03,0.27c2.97-0.06,6.03-0.13,7.56,0.11
		c1.62,0.26,3.64,0.9,5.6,1.51c2.08,0.66,4.05,1.28,5.33,1.36c0.27,0.02,0.54,0.03,0.82,0.03c2.24,0,4.68-0.51,4.8-0.54
		c0.39-0.08,0.64-0.46,0.55-0.85C100.93,49.48,100.55,49.23,100.16,49.31z M15.7,33.61c0.11-0.84,1.18-1.52,2.46-1.52
		c0.24,0,0.49,0.03,0.78,0.1c0.3,0.07,0.61-0.06,0.77-0.32c0.16-0.26,0.14-0.59-0.05-0.83c-0.51-0.64-0.78-1.37-0.78-2.11
		c0-2.26,2.42-4.1,5.42-4.1c0,0,0,0,0,0c0.27,0,0.52-0.15,0.64-0.39c0.12-0.24,0.1-0.53-0.06-0.75c-0.55-0.74-0.83-1.62-0.83-2.53
		c0-2.37,1.92-4.29,4.33-4.29c0.01,0,0.09,0.01,0.1,0.01c0.26-0.01,0.51-0.13,0.64-0.36c0.13-0.23,0.13-0.51-0.01-0.74
		c-0.76-1.23-1.17-2.65-1.17-4.08c0-4.29,3.49-7.79,7.79-7.79c1.96,0,3.84,0.74,5.29,2.09c0.15,0.14,0.35,0.21,0.55,0.19
		c0.2-0.02,0.39-0.12,0.51-0.28c1.08-1.43,3.44-2.35,6.02-2.35c2.75,0,5.25,1.05,6.2,2.6c0.2,0.33,0.63,0.44,0.97,0.25
		c0.92-0.52,1.96-0.8,3.01-0.8c3.36,0,6.09,2.73,6.09,6.09c0,1-0.25,1.99-0.72,2.87c-0.14,0.26-0.1,0.59,0.09,0.82
		c0.2,0.22,0.52,0.3,0.8,0.19c0.74-0.28,1.52-0.43,2.33-0.43c3.15,0,5.71,2.2,5.71,4.91c0,0.7-0.18,1.39-0.52,2.04
		c-0.12,0.23-0.11,0.51,0.03,0.73c0.14,0.22,0.39,0.34,0.66,0.32c0.18-0.02,0.36-0.02,0.55-0.02c2.85,0,5.29,1.98,5.65,4.44
		c-4.52,0.52-10.68,0.5-15.73,0.47c-2.33-0.01-4.53-0.02-6.19,0.03c-4.06,0.12-10.34,1.37-13.72,2.1c-1.43,0.31-2.52,1.46-2.7,2.86
		c-0.03,0.21-0.06,0.4-0.11,0.59L15.7,33.61L15.7,33.61z"/>
	<path d="M100.31,39.99c0.2,0,0.41-0.09,0.55-0.26c0.26-0.3,0.22-0.76-0.09-1.01c-0.09-0.07-2.21-1.83-5.47-2.22
		c-1.88-0.22-3.63,0.18-4.77,0.56c-0.8,0.27-1.65,0.24-2.4-0.09c-2.73-1.17-7.85-3.15-11.51-3.32c-2.9-0.13-4.49,0.14-5.9,0.38
		c-1.01,0.17-1.87,0.32-3.09,0.29c-1.8-0.04-3.83-0.4-5.21-0.68c-0.96-0.2-1.94-0.2-2.9-0.01c-2.56,0.51-4.61,0.65-5.76,0.42
		c-0.97-0.2-1.42-0.51-1.63-0.73c-0.62-0.66-1.54-1.05-2.53-1.05h-5.06c-0.4,0-0.72,0.32-0.72,0.72s0.32,0.72,0.72,0.72h5.06
		c0.59,0,1.13,0.21,1.48,0.59c0.51,0.55,1.31,0.94,2.39,1.16c1.71,0.36,4.39-0.03,6.33-0.41c0.77-0.15,1.56-0.15,2.33,0.01
		c1.44,0.3,3.56,0.67,5.47,0.71c1.36,0.03,2.33-0.13,3.37-0.31c1.33-0.23,2.84-0.49,5.59-0.36c3.55,0.16,8.88,2.29,11.01,3.2
		c1.08,0.46,2.29,0.51,3.42,0.13c1-0.33,2.53-0.69,4.14-0.5c2.82,0.34,4.69,1.88,4.71,1.89C99.98,39.93,100.14,39.99,100.31,39.99z"
		/>
	<path d="M23.22,43.97c0-0.4-0.32-0.72-0.72-0.72c-0.65,0-1.77-0.17-2.1-0.54c-0.06-0.06-0.08-0.12-0.07-0.18
		c0.37-0.84,5.43-2.18,10.81-2.54c0.4-0.03,0.7-0.37,0.67-0.77c-0.03-0.4-0.36-0.68-0.77-0.67c-0.12,0.01-11.82,0.83-12.14,3.8
		c-0.05,0.5,0.1,0.95,0.43,1.32c0.87,0.97,2.79,1.02,3.17,1.02C22.89,44.69,23.22,44.37,23.22,43.97z"/>
	<path d="M30.11,48.54c0.74-0.22,2.88-0.72,3.96-0.37c0.49,0.16,0.97,0.41,1.45,0.74c0.52,0.37,1.12,0.55,1.73,0.55
		c0.39,0,0.78-0.08,1.15-0.24c0.85-0.36,2.11-0.84,3.21-1.04c1.99-0.35,8.83,0.01,8.9,0.01c0.39,0.03,0.74-0.28,0.76-0.68
		c0.02-0.4-0.28-0.73-0.68-0.76c-0.29-0.02-7.08-0.37-9.23,0.01c-1.24,0.22-2.6,0.74-3.52,1.13c-0.49,0.21-1.05,0.14-1.49-0.17
		c-0.59-0.42-1.21-0.73-1.83-0.93c-1.69-0.55-4.51,0.27-4.82,0.36c-0.38,0.11-0.59,0.52-0.48,0.9
		C29.33,48.44,29.73,48.66,30.11,48.54z"/>
	<path d="M27.71,49.59c-0.4,0.02-0.7,0.35-0.69,0.75c0.02,0.4,0.33,0.72,0.75,0.69c2.24-0.09,4.37,0.36,6.31,1.36
		c0.53,0.27,1.11,0.41,1.68,0.41c0.44,0,0.88-0.08,1.29-0.24c0.85-0.33,2.07-0.52,3.62-0.57c0.4-0.01,0.71-0.35,0.69-0.74
		c-0.01-0.4-0.36-0.73-0.74-0.69c-1.74,0.06-3.07,0.28-4.09,0.67c-0.58,0.22-1.23,0.19-1.8-0.11C32.57,50,30.2,49.48,27.71,49.59z"
		/>
	<path d="M78.97,51.62L78.97,51.62c1.51,0,3.31,1.06,3.33,1.07c0.34,0.2,0.78,0.09,0.99-0.25c0.2-0.34,0.09-0.78-0.25-0.99
		c-0.09-0.05-2.15-1.27-4.06-1.27c0,0,0,0,0,0c-0.84,0-1.82,0.29-2.86,0.6c-1.28,0.38-2.6,0.77-3.54,0.58
		c-0.6-0.12-1.17-0.37-1.68-0.74c-0.85-0.62-1.92-0.88-3.03-0.73c-0.88,0.12-1.64,0.1-2.19-0.05c-0.74-0.2-1.25-0.58-1.89-1.05
		c-0.62-0.46-1.33-0.98-2.38-1.43c-2.17-0.92-5.87-0.77-6.02-0.77c-0.4,0.02-0.7,0.35-0.69,0.75c0.02,0.4,0.35,0.72,0.75,0.69
		c0.03,0,3.53-0.14,5.4,0.66c0.9,0.38,1.5,0.83,2.09,1.26c0.7,0.52,1.37,1.01,2.37,1.28c0.74,0.2,1.67,0.23,2.75,0.09
		c0.74-0.1,1.45,0.07,2,0.47c0.68,0.49,1.43,0.82,2.24,0.99c0.27,0.05,0.54,0.08,0.82,0.08c1.08,0,2.26-0.35,3.41-0.69
		C77.46,51.89,78.34,51.62,78.97,51.62z"/>
	<path d="M96.39,56.65c-1.49-0.01-2.69,0.38-3.78,0.72c-1.04,0.33-1.95,0.61-2.76,0.45c-0.82-0.16-1.44-0.57-2.15-1.04
		c-0.76-0.51-1.63-1.08-2.86-1.39c-1.22-0.3-2.57-0.15-3.88,0.01c-1.24,0.14-2.41,0.28-3.26,0.01c-1.67-0.53-2.36-1.54-2.4-1.59
		c-0.22-0.33-0.66-0.42-0.99-0.21c-0.33,0.21-0.43,0.66-0.22,0.99c0.04,0.06,0.97,1.48,3.16,2.18c1.15,0.37,2.53,0.21,3.87,0.05
		c1.18-0.14,2.4-0.28,3.37-0.04c0.99,0.25,1.68,0.7,2.41,1.19c0.77,0.51,1.57,1.04,2.68,1.26c0.26,0.05,0.51,0.07,0.77,0.07
		c0.9,0,1.78-0.27,2.7-0.56c1.03-0.32,2.09-0.65,3.31-0.65c0.01,0,0.03,0,0.04,0c0.4,0,0.72-0.32,0.72-0.71
		C97.1,56.98,96.78,56.65,96.39,56.65z"/>
	<path d="M73.12,57.84c0.08,0.09,1.98,2.25,4.35,2.6c1.23,0.18,2.46-0.1,3.55-0.35c0.89-0.21,1.74-0.4,2.3-0.26
		c1.33,0.34,2.64,1.36,2.65,1.37c0.13,0.1,0.29,0.15,0.44,0.15c0.21,0,0.42-0.09,0.56-0.27c0.25-0.31,0.19-0.76-0.12-1.01
		c-0.06-0.05-1.55-1.21-3.18-1.64c-0.9-0.23-1.91,0-2.98,0.25c-1.01,0.23-2.05,0.47-3.01,0.33c-1.85-0.27-3.47-2.1-3.48-2.12
		c-0.26-0.3-0.71-0.33-1.01-0.07C72.89,57.09,72.86,57.54,73.12,57.84z"/>
	<path d="M35.37,64.68c1.83,1.11,4.8,0.55,7.94-0.05c2.1-0.4,4.28-0.8,5.94-0.65c3.97,0.38,9.75,3.52,9.8,3.55
		c0.11,0.06,0.23,0.09,0.34,0.09c0.25,0,0.5-0.14,0.63-0.37c0.19-0.35,0.06-0.78-0.29-0.97c-0.25-0.14-6.09-3.31-10.36-3.72
		c-1.86-0.18-4.14,0.25-6.34,0.67c-2.74,0.52-5.57,1.05-6.94,0.23c-1.25-0.75-1.52-1.63-1.83-2.64c-0.29-0.94-0.62-2.02-1.83-2.81
		c-2.24-1.48-8.4-2.31-8.66-2.34c-0.39-0.05-0.75,0.22-0.81,0.62c-0.05,0.39,0.22,0.75,0.62,0.81c1.69,0.22,6.42,1.04,8.05,2.12
		c0.78,0.51,0.98,1.18,1.25,2.04C33.24,62.31,33.65,63.64,35.37,64.68z"/>
	<path d="M65.99,72.82c-1.94,0.34-7.42,1.05-9.49,0.28c-1.25-0.46-1.89-1.21-2.57-2.01c-0.67-0.79-1.37-1.6-2.59-2.05
		c-1.41-0.52-4.52-0.28-7.8-0.02c-2.12,0.17-4.3,0.34-5.31,0.19c-2.02-0.28-2.7-2.44-2.72-2.53c-0.11-0.38-0.51-0.6-0.89-0.48
		c-0.38,0.11-0.6,0.51-0.49,0.89c0.04,0.13,0.96,3.13,3.9,3.54c1.16,0.16,3.32-0.01,5.62-0.19c2.71-0.21,6.08-0.48,7.2-0.07
		c0.87,0.32,1.39,0.93,1.99,1.63c0.74,0.86,1.57,1.84,3.17,2.43c0.86,0.32,2.09,0.43,3.41,0.43c3.08,0,6.61-0.61,6.82-0.64
		c0.39-0.07,0.65-0.44,0.58-0.83C66.75,73.02,66.38,72.76,65.99,72.82z"/>
	<path d="M94.59,64.69c-4.04-0.81-7.21-0.29-10.28,0.22c-2.86,0.47-5.57,0.92-8.99,0.37c-3.52-0.57-5.34-2.1-7.09-3.58
		c-1.74-1.47-3.54-2.99-6.78-3.18c-0.4-0.02-0.74,0.28-0.76,0.67s0.28,0.74,0.67,0.76c2.76,0.17,4.24,1.41,5.94,2.84
		c1.82,1.53,3.87,3.27,7.79,3.9c1.2,0.19,2.32,0.27,3.39,0.27c2.19,0,4.15-0.32,6.06-0.64c3.07-0.51,5.98-0.99,9.76-0.23
		c0.39,0.08,0.77-0.17,0.85-0.56C95.23,65.15,94.98,64.77,94.59,64.69z"/>
	<path d="M94.5,69.11c-4.05-1.21-7.76-1.27-11.35-0.18c-0.38,0.12-0.59,0.52-0.48,0.9c0.12,0.38,0.52,0.59,0.9,0.48
		c3.3-1,6.74-0.94,10.51,0.19c0.07,0.02,0.14,0.03,0.21,0.03c0.31,0,0.59-0.2,0.69-0.51C95.09,69.62,94.88,69.22,94.5,69.11z"/>
	<path d="M55.96,42.15c0.1,0.18,0.28,0.3,0.48,0.34c0.99,0.2,2.1,0.33,3.18,0.33c1.39,0,2.7-0.22,3.56-0.81c0.55-0.38,0.9-0.9,1-1.5
		c0.07-0.38,0.03-0.96-0.5-1.57c-1.53-1.77-6.23-2.6-9.03-2.52c-0.31,0.01-0.58,0.22-0.67,0.52s0.03,0.62,0.3,0.8
		c0.54,0.36,1.49,1.15,1.71,1.77c0.25,0.68,0.01,1.71-0.1,2.05C55.83,41.76,55.86,41.97,55.96,42.15z M62.6,39.88
		c0.19,0.22,0.17,0.34,0.16,0.38c-0.02,0.14-0.09,0.35-0.4,0.56c-0.83,0.57-2.78,0.71-4.91,0.39c0.1-0.6,0.16-1.45-0.11-2.19
		c-0.14-0.38-0.39-0.75-0.67-1.09C59.25,38.19,61.83,38.99,62.6,39.88z"/>
	<path d="M65.32,38.33v4.93c0,0.4,0.32,0.72,0.72,0.72s0.72-0.32,0.72-0.72v-4.93c0-0.4-0.32-0.72-0.72-0.72
		S65.32,37.93,65.32,38.33z"/>
	<path d="M67.64,39.27v2.96c0,0.4,0.32,0.72,0.72,0.72c0.4,0,0.72-0.32,0.72-0.72v-2.96c0-0.4-0.32-0.72-0.72-0.72
		C67.96,38.55,67.64,38.87,67.64,39.27z"/>
	<path d="M69.62,41.01c0,1.76,1.23,3.19,2.74,3.19c1.51,0,2.74-1.43,2.74-3.19c0-1.76-1.23-3.19-2.74-3.19
		C70.85,37.82,69.62,39.25,69.62,41.01z M73.66,41.01c0,0.95-0.6,1.75-1.3,1.75s-1.3-0.8-1.3-1.75c0-0.95,0.6-1.75,1.3-1.75
		S73.66,40.06,73.66,41.01z"/>
	<path d="M76.11,38.77v4.62c0,0.4,0.32,0.72,0.72,0.72c0.4,0,0.72-0.32,0.72-0.72v-4.62c0-0.4-0.32-0.72-0.72-0.72
		C76.43,38.05,76.11,38.37,76.11,38.77z"/>
	<path d="M78.61,41.68c0,1.79,1.01,3.2,2.3,3.2s2.3-1.41,2.3-3.2c0-1.79-1.01-3.2-2.3-3.2S78.61,39.88,78.61,41.68z M81.77,41.68
		c0,1.08-0.51,1.76-0.86,1.76c-0.35,0-0.86-0.69-0.86-1.76c0-1.08,0.51-1.76,0.86-1.76C81.26,39.91,81.77,40.6,81.77,41.68z"/>
	<path d="M83.66,40.83v3.75c0,0.4,0.32,0.72,0.72,0.72c0.4,0,0.72-0.32,0.72-0.72v-3.75c0-0.4-0.32-0.72-0.72-0.72
		C83.98,40.11,83.66,40.43,83.66,40.83z"/>
	<path d="M85.95,43.02c0,1.39,1.07,2.53,2.4,2.53s2.4-1.13,2.4-2.53s-1.07-2.53-2.4-2.53S85.95,41.63,85.95,43.02z M89.3,43.02
		c0,0.6-0.43,1.09-0.96,1.09s-0.96-0.49-0.96-1.09c0-0.6,0.43-1.09,0.96-1.09S89.3,42.42,89.3,43.02z"/>
	<path d="M91.44,40.13v6.28c0,0.4,0.32,0.72,0.72,0.72c0.4,0,0.72-0.32,0.72-0.72v-6.28c0-0.4-0.32-0.72-0.72-0.72
		C91.76,39.41,91.44,39.73,91.44,40.13z"/>
	<path d="M93.67,43.31v2.05c0,1.32,1.07,2.39,2.39,2.39c1.32,0,2.39-1.07,2.39-2.39v-2.05c0-1.32-1.07-2.39-2.39-2.39
		C94.74,40.92,93.67,41.99,93.67,43.31z M97.01,43.31v2.05c0,0.52-0.43,0.95-0.95,0.95c-0.52,0-0.95-0.43-0.95-0.95v-2.05
		c0-0.52,0.43-0.95,0.95-0.95C96.58,42.36,97.01,42.79,97.01,43.31z"/>
	<path d="M100.31,41.61c-0.4,0-0.72,0.32-0.72,0.72v4.86c0,0.4,0.32,0.72,0.72,0.72c0.4,0,0.72-0.32,0.72-0.72v-4.86
		C101.03,41.93,100.7,41.61,100.31,41.61z"/>
</g>
</svg>
