<?xml version="1.0" encoding="utf-8"?>
<!-- Generator: Adobe Illustrator 28.1.0, SVG Export Plug-In . SVG Version: 6.00 Build 0)  -->
<svg version="1.1" id="Layer_1" xmlns="http://www.w3.org/2000/svg" xmlns:xlink="http://www.w3.org/1999/xlink" x="0px" y="0px"
	 viewBox="0 0 110.55 76.54" style="enable-background:new 0 0 110.55 76.54;" xml:space="preserve">
<style type="text/css">
	.st0{display:none;}
	.st1{display:inline;fill:none;}
</style>
<g id="Layer_2_00000073722119373351752270000017113015111246931634_" class="st0">
	<line class="st1" x1="-24.13" y1="74.54" x2="142.13" y2="74.54"/>
	<line class="st1" x1="-24.13" y1="2" x2="142.13" y2="2"/>
</g>
<path d="M-5351.56,183.13c0-4.69,1.76-9.61,2.23-11.95c0.47-2.23,1.29-10.9-7.97-10.9c-9.26,0-8.44,8.67-7.97,10.9
	c0.47,2.23,2.23,7.26,2.23,11.95c0,5.39-2.34,10.08-4.57,15.47c-2.81-7.5-6.44-13.83-6.44-21.09c0-5.62,2.11-11.6,2.69-14.3
	c0.47-2.81,1.52-13.12-9.61-13.12s-10.08,10.31-9.61,13.01c0.47,2.69,2.69,8.67,2.69,14.3c0,7.26-3.75,13.71-6.44,21.09
	c-2.11-5.27-4.57-10.08-4.57-15.47c0-4.69,1.76-9.61,2.23-11.95c0.47-2.23,1.29-10.9-7.97-10.9s-8.44,8.67-7.97,10.9
	s2.23,7.26,2.23,11.95c0,9.73-7.85,17.58-7.85,30c0,10.55,4.57,24.14,6.8,25.54h13.71c0.94-0.59,2.11-3.05,3.4-6.68
	c1.64,6.21,3.75,11.13,5.16,11.95h16.4c1.41-0.82,3.52-5.74,5.27-11.95c1.17,3.52,2.46,6.09,3.4,6.68h13.59
	c2.23-1.29,6.8-15,6.8-25.54C-5343.71,200.59-5351.56,192.74-5351.56,183.13z M-5361.05,165.09c0.7-0.82,1.99-1.29,3.75-1.29
	s3.05,0.47,3.75,1.29c1.17,1.41,1.05,4.1,0.82,5.39c-0.12,0.47-0.23,1.29-0.47,2.11c-0.23,1.05-0.59,2.23-0.94,3.63h-6.21
	c-0.23-1.41-0.59-2.58-0.94-3.63c-0.23-0.82-0.47-1.64-0.47-2.11C-5362.11,169.19-5362.23,166.49-5361.05,165.09z M-5354.96,184.3
	h-4.69c0-0.47,0.12-0.82,0.12-1.29c0-0.82-0.12-1.64-0.12-2.58h4.8c-0.12,0.82-0.12,1.64-0.12,2.58
	C-5355.08,183.48-5354.96,183.95-5354.96,184.3z M-5386.01,155.36c0.94-1.17,2.69-1.76,5.04-1.76c2.34,0,4.1,0.59,5.04,1.76
	c1.52,1.87,1.41,5.39,1.05,7.03c-0.12,0.59-0.35,1.52-0.59,2.58c-0.35,1.29-0.7,2.69-1.05,4.22h-8.91c-0.35-1.52-0.7-2.93-1.05-4.22
	c-0.23-1.05-0.59-1.99-0.59-2.58C-5387.42,160.63-5387.54,157.23-5386.01,155.36z M-5377.46,178.91h-7.03
	c0-0.47,0.12-1.05,0.12-1.52c0-1.05-0.12-1.99-0.12-3.05h7.03c-0.12,0.94-0.12,1.99-0.12,3.05
	C-5377.58,177.86-5377.58,178.44-5377.46,178.91z M-5408.39,165.09c0.7-0.82,1.99-1.29,3.75-1.29s3.05,0.47,3.75,1.29
	c1.17,1.41,1.05,4.1,0.82,5.39c-0.12,0.47-0.23,1.29-0.47,2.11c-0.23,1.05-0.59,2.23-0.94,3.63h-6.21
	c-0.35-1.41-0.59-2.58-0.94-3.63c-0.23-0.82-0.47-1.64-0.47-2.11C-5409.45,169.19-5409.56,166.49-5408.39,165.09z M-5402.3,184.3
	h-4.69c0-0.47,0-0.82,0-1.29c0-0.82,0-1.64-0.12-2.58h4.8c-0.12,0.82-0.12,1.64-0.12,2.58
	C-5402.42,183.48-5402.3,183.95-5402.3,184.3z M-5399.49,235.04h-10.31c-1.64-3.16-4.92-13.24-4.92-22.03
	c0-5.86,1.99-10.78,3.98-15.47c1.17-2.81,2.46-5.74,3.16-8.91h5.86c0.7,3.05,1.99,5.98,3.16,8.91c0.82,2.11,1.76,4.22,2.46,6.44
	c-0.7,2.93-1.17,5.98-1.17,9.37c0,3.75,0.47,7.73,1.17,11.6C-5397.14,229.41-5398.55,233.28-5399.49,235.04z M-5374.41,240.31
	h-13.12c-1.41-2.34-3.52-8.55-4.92-15.35c-0.82-3.87-1.29-7.85-1.29-11.6c0-3.4,0.59-6.44,1.41-9.37c0.94-3.28,2.23-6.44,3.52-9.49
	c1.41-3.4,2.81-6.8,3.75-10.43h8.55c0.82,3.63,2.34,7.03,3.75,10.43c1.29,3.05,2.58,6.09,3.52,9.49c0.82,2.93,1.41,5.98,1.41,9.37
	c0,3.75-0.47,7.85-1.29,11.6C-5370.78,231.76-5373.01,237.97-5374.41,240.31z M-5352.15,235.04h-10.31
	c-0.94-1.76-2.34-5.62-3.4-10.08c0.7-3.87,1.17-7.97,1.17-11.6c0-3.4-0.47-6.44-1.17-9.37c0.7-2.23,1.64-4.34,2.46-6.44
	c1.17-2.81,2.46-5.74,3.16-8.91h5.86c0.7,3.05,1.99,5.98,3.16,8.91c1.99,4.69,3.98,9.61,3.98,15.47
	C-5347.23,221.8-5350.51,231.87-5352.15,235.04z"/>
<g>
	<g>
		<path d="M101.34,3.98c0,0,0,0,0-0.02c0-0.02,0-0.03,0-0.05c0-0.02,0-0.04,0-0.06c0-0.02-0.01-0.04-0.02-0.06
			c0-0.02-0.01-0.04-0.02-0.06c-0.01-0.02-0.02-0.04-0.03-0.05c-0.01-0.02-0.02-0.03-0.03-0.05l-0.04-0.05
			c-0.01-0.01-0.02-0.03-0.04-0.04c-0.01-0.01-0.03-0.03-0.04-0.04c-0.01,0-0.03-0.03-0.04-0.04l-0.05-0.03l-0.05-0.03l-0.06-0.02
			l-0.05-0.02h-0.07h-0.05c-0.31,0-7.73-0.24-10.93,2.87c-0.4,0.38-0.73,0.83-0.99,1.33c-2.63-3.47-11.56-3.52-12.01-3.52
			c-0.33,0-0.6,0.27-0.6,0.6c0,6.72,7.1,10.22,8.89,11c-0.24,4-3.74,9.71-3.78,9.77c-0.18,0.28-0.09,0.66,0.19,0.83
			c0.28,0.18,0.66,0.09,0.83-0.19l0,0c0.16-0.26,3.97-6.46,3.97-10.81l0,0c0-0.02,0-0.05,0-0.07c0-0.02,0-0.03,0-0.05
			c0-0.02,0-0.04-0.02-0.06c-0.02-0.02,0-0.04-0.02-0.06l-0.02-0.04c0-0.02-0.02-0.04-0.03-0.06l-0.03-0.04
			c-0.01-0.01-0.02-0.03-0.04-0.05l-0.04-0.03l-0.05-0.04l-0.04-0.02c-0.02-0.01-0.04-0.02-0.07-0.03l0,0
			c-0.08-0.03-8-3.13-8.49-9.42c3.54,0.1,10.87,1,10.87,4.39c0,0.33,0.27,0.6,0.6,0.6s0.6-0.27,0.6-0.6
			c-0.01-0.98,0.39-1.91,1.11-2.57c2.35-2.28,7.67-2.52,9.45-2.53c-0.36,8.36-7.82,10.02-8.16,10.1c-0.04,0.01-0.08,0.02-0.12,0.04
			l-0.03,0.02c-0.02,0.01-0.05,0.02-0.07,0.04c-0.02,0.01-0.03,0.02-0.04,0.04l-0.05,0.04c-0.01,0.01-0.02,0.03-0.03,0.04
			c-0.01,0.01-0.03,0.03-0.04,0.05l-0.02,0.04c-0.01,0.02-0.02,0.04-0.03,0.06c-0.01,0.02-0.01,0.04-0.02,0.06
			c0,0.02-0.01,0.03-0.02,0.05c-0.01,0.04-0.01,0.08-0.01,0.12c-0.01,4.63-0.49,9.25-1.44,13.79c-0.04,0.04-0.08,0.09-0.1,0.15
			c-0.08,0.17-8.15,16.82-22.63,21.22c-1.48-1.3-3.07-2.46-4.76-3.47c-0.29-0.17-0.66-0.08-0.83,0.21
			c-0.17,0.29-0.08,0.66,0.21,0.83c0.01,0,0.02,0.01,0.02,0.01c0.12,0.07,11.44,6.63,12.56,16.75c0.04,1.51-0.32,2.42-1.1,2.81
			c-2.13,1.06-6.95-1.45-11.16-4.19l-0.05-0.04c-0.98-0.64-1.92-1.29-2.79-1.92c-0.04-0.04-0.08-0.07-0.13-0.1
			c-1.31-0.94-2.44-1.82-3.25-2.48L56,58.84c-0.02-0.01-0.04-0.03-0.06-0.04c-0.02-0.01-0.04-0.02-0.06-0.03
			c-0.01-0.01-0.02-0.01-0.04-0.02c-0.07-0.02-6.81-2.45-6.14-10.57c0.03-0.33-0.22-0.63-0.55-0.65c-0.33-0.03-0.63,0.22-0.65,0.55
			l0,0c-0.22,2.7,0.3,4.83,1.15,6.51c-15.59,0.32-22.33-4.47-27.28-7.97c-3.4-2.42-6.15-4.35-10.33-3.99
			c1.22-1.94,2.68-3.72,4.35-5.29c4.44-4.16,9.66-6.28,15.55-6.28c8.07,0,14.74,2.2,20.64,4.14c4.64,1.53,8.8,2.9,12.72,2.9
			s7.67-1.39,11.42-5.39l0.02-0.03l0.04-0.05l0.03-0.05l0.03-0.05l0.02-0.06l0.01-0.06v-0.06c0-0.02,0-0.04,0-0.06
			c0-0.02,0-0.04,0-0.07c0,0,0-0.02,0-0.04c-0.01-0.07-1.21-7.54,1.24-10.61l0.04-0.02c0.13,0.28,0.15,1.1,0.06,1.82
			c0,0.01,0,0.03,0,0.04s0,0.03,0,0.04s0,0.02,0,0.03l0,0c0.04,2.42,3.29,5.36,3.67,5.69c0.26,0.21,0.64,0.17,0.85-0.09
			c0.2-0.24,0.17-0.6-0.05-0.81c-0.9-0.79-3.23-3.2-3.26-4.8c0.1-0.76,0.22-2.45-0.62-3c-0.27-0.18-0.72-0.29-1.35,0.08h-0.01
			c-0.01,0-0.02,0-0.04,0.02l-0.03,0.02l-0.05,0.04l-0.05,0.04l-0.02,0.02c-2.59,3.11-1.82,9.83-1.61,11.35
			c-6.87,7.17-13.53,4.98-22.68,1.96c-5.98-1.97-12.75-4.2-21.02-4.2c-7.73,0-13.2,3.6-16.41,6.63c-3.47,3.27-5.1,6.5-5.17,6.63
			c0,0,0,0.01,0,0.01l-0.01,0.04c-0.01,0.01-0.01,0.03-0.02,0.04v0.03c0,0.01,0,0.02,0,0.04v0.05c0,0.01,0,0.02,0,0.03v0.04
			c0,0.02,0,0.03,0,0.05c0,0.01,0,0.03,0,0.04c0,0,0,0.01,0,0.01c0,0,0,0.01,0,0.02s0,0.02,0,0.03
			c2.96,10.79,8.56,18.21,16.65,22.05c4.78,2.27,9.93,3.02,14.62,3.02c2.21-0.01,4.41-0.16,6.6-0.46c0.97,1.29,4.52,5.69,7.4,5.69
			c0.15,0,0.3-0.01,0.45-0.04c1.16-0.2,2-1.14,2.49-2.78l0,0c0.01-0.02,0.01-0.04,0.01-0.07c0-0.02,0-0.04,0-0.05l0,0l0.36-5.27
			c1.42-0.48,2.43-0.88,2.92-1.08C65.29,66.81,69.39,69,72.24,69c0.58,0.01,1.16-0.11,1.69-0.35c1.24-0.61,1.84-1.94,1.78-3.96
			c0,0,0-0.02,0-0.02c0-0.01,0-0.02,0-0.02c-0.26-2.24-0.94-4.41-2.01-6.39c1.15-0.74,4.06-2.78,7.25-6.4
			c1.68-1.92,3.19-3.99,4.49-6.19c0.05-0.06,0.09-0.12,0.12-0.2c2.79-4.78,4.66-10.03,5.51-15.5c1.03-4.68,1.57-9.45,1.61-14.23
			c1.88-0.56,8.64-3.18,8.65-11.74l0,0L101.34,3.98z M50.36,55.78c0.64,0.94,1.42,1.77,2.32,2.48c-2.74,0.56-9.47,1.57-16.24-0.14
			c-0.8-0.2-1.59-0.44-2.35-0.71c-0.61-0.22-1.21-0.45-1.78-0.71c-0.57-0.25-1.14-0.53-1.69-0.83c-0.7-0.38-1.37-0.8-2.03-1.25
			c-0.44-0.31-0.88-0.64-1.31-0.99c-1.86-1.53-3.45-3.35-4.71-5.4c4.85,3.41,11.57,7.58,25.61,7.58
			C48.9,55.81,49.62,55.8,50.36,55.78L50.36,55.78z M57.35,70.73c-0.35,1.13-0.86,1.76-1.51,1.88c-1.68,0.29-4.5-2.45-6.28-4.67
			c0.3-0.05,0.6-0.1,0.89-0.15c2.44-0.44,4.85-1.03,7.22-1.77L57.35,70.73z M27.49,64.5c-7.59-3.61-12.91-10.55-15.82-20.63
			c0.38-0.05,0.75-0.08,1.13-0.09c2.1,4.89,4.81,9.02,8.08,12.29c0.8,0.8,1.65,1.56,2.54,2.28c0.11,0.09,0.24,0.13,0.38,0.13
			c0.33,0,0.6-0.27,0.6-0.61c0-0.18-0.08-0.36-0.23-0.47c-0.85-0.69-1.67-1.42-2.44-2.19c-3.04-3.03-5.59-6.86-7.59-11.37
			c2.23,0.27,4.08,1.35,6.16,2.78c1.48,3.06,3.6,5.76,6.21,7.93c0.45,0.37,0.92,0.72,1.38,1.05c0.69,0.48,1.4,0.92,2.14,1.32
			c0.58,0.32,1.18,0.61,1.78,0.88s1.23,0.51,1.87,0.74c0.79,0.28,1.61,0.52,2.45,0.74c2.77,0.68,5.61,1.02,8.46,1
			c3.17,0.01,6.33-0.36,9.42-1.09c0.42,0.25,0.86,0.47,1.31,0.66c0.36,0.29,1.18,0.95,2.31,1.79c-9.52,2.79-17.96,2.93-25.12,0.41
			c-0.31-0.11-0.66,0.05-0.77,0.37c-0.11,0.31,0.05,0.66,0.37,0.77c3.68,1.26,7.54,1.89,11.43,1.86c4.75,0,9.87-0.84,15.31-2.51
			c0.54,0.39,1.11,0.79,1.72,1.21C56.38,65.35,40.44,70.66,27.49,64.5L27.49,64.5z M68.35,51.35c7.46-2.49,13.12-8.03,16.61-12.34
			c1.57-1.94,3.01-3.99,4.31-6.13c-0.97,4.21-2.57,8.24-4.75,11.97c-5.27,3.89-12.16,7.81-13.96,8.81
			C69.86,52.86,69.12,52.09,68.35,51.35L68.35,51.35z M80.09,51.01c-2.04,2.36-4.38,4.45-6.96,6.2c-0.54-0.9-1.14-1.76-1.79-2.58
			c1.76-0.99,6.81-3.87,11.44-7.03C81.94,48.78,81.05,49.92,80.09,51.01L80.09,51.01z"/>
		<path d="M38.19,28.51c0.07,0.02,0.13,0.04,0.2,0.04c0.26,0,0.48-0.16,0.57-0.4c0.58-1.62,2.64-5.97,5.17-6.63
			c0.97-0.26,1.93,0.05,2.96,0.93c0.25,0.23,0.63,0.21,0.85-0.04c0.23-0.25,0.21-0.63-0.04-0.85c-0.01-0.01-0.02-0.01-0.02-0.02
			c-1.32-1.14-2.68-1.54-4.06-1.18c-3.66,0.97-5.9,7.13-6,7.39C37.71,28.05,37.87,28.39,38.19,28.51
			C38.19,28.51,38.19,28.51,38.19,28.51z"/>
		<path d="M31.92,20.92c0.48-0.53,1.19-1.12,1.75-0.93c1.16,0.39,1.95,3.64,2.14,5.81c0.03,0.31,0.29,0.55,0.6,0.55h0.05
			c0.33-0.03,0.58-0.32,0.55-0.65c0,0,0,0,0,0c-0.09-1-0.65-6.06-2.95-6.85c-0.95-0.32-1.96,0.1-3.03,1.25
			c-0.23,0.25-0.21,0.63,0.04,0.85C31.31,21.19,31.69,21.17,31.92,20.92L31.92,20.92z"/>
		<path d="M37.8,22.42c-0.07,0.32,0.12,0.65,0.45,0.72c0.05,0.01,0.09,0.02,0.14,0.02c0.28,0,0.52-0.19,0.59-0.46
			c0.09-0.39,2.24-9.48,0.9-12.95c-0.12-0.31-0.47-0.46-0.78-0.34c-0.31,0.12-0.46,0.47-0.34,0.78
			C39.95,13.3,37.82,22.32,37.8,22.42z"/>
		<path d="M37.28,6.63c0.11,0.2,0.31,0.32,0.53,0.32c0.1,0,0.2-0.02,0.28-0.07c0.29-0.16,0.4-0.53,0.24-0.82l-0.54-1.02
			c-0.15-0.3-0.51-0.42-0.81-0.28c-0.3,0.15-0.42,0.51-0.28,0.81c0.01,0.01,0.01,0.02,0.02,0.04L37.28,6.63z"/>
		<path d="M35.77,43.95c0,0.78,0.63,1.42,1.42,1.42c0.78,0,1.42-0.63,1.42-1.42c0-0.78-0.63-1.42-1.42-1.42l0,0
			C36.41,42.53,35.77,43.16,35.77,43.95z M37.4,43.95c0,0.12-0.09,0.21-0.21,0.21c-0.12,0-0.21-0.09-0.21-0.21
			c0-0.12,0.09-0.21,0.21-0.21l0,0C37.3,43.73,37.4,43.82,37.4,43.95C37.41,43.94,37.41,43.94,37.4,43.95L37.4,43.95z"/>
		<path d="M28.62,60.35c-0.58-0.31-1.16-0.65-1.72-1c-0.28-0.18-0.66-0.09-0.83,0.19c-0.18,0.28-0.09,0.66,0.19,0.83c0,0,0,0,0,0
			c0.58,0.37,1.19,0.72,1.8,1.04c0.09,0.05,0.18,0.07,0.28,0.07c0.33,0,0.61-0.27,0.61-0.6C28.95,60.66,28.82,60.45,28.62,60.35
			L28.62,60.35z"/>
	</g>
</g>
</svg>
