<?xml version="1.0" encoding="utf-8"?>
<!-- Generator: Adobe Illustrator 28.1.0, SVG Export Plug-In . SVG Version: 6.00 Build 0)  -->
<svg version="1.1" id="Layer_1" xmlns="http://www.w3.org/2000/svg" xmlns:xlink="http://www.w3.org/1999/xlink" x="0px" y="0px"
	 viewBox="0 0 110.55 76.54" style="enable-background:new 0 0 110.55 76.54;" xml:space="preserve">
<style type="text/css">
	.st0{display:none;}
	.st1{display:inline;fill:none;}
	.st2{fill:none;}
</style>
<g id="Layer_2_00000073722119373351752270000017113015111246931634_" class="st0">
	<line class="st1" x1="-24.13" y1="74.54" x2="142.13" y2="74.54"/>
	<line class="st1" x1="-24.13" y1="2" x2="142.13" y2="2"/>
</g>
<path d="M-5351.56,183.13c0-4.69,1.76-9.61,2.23-11.95c0.47-2.23,1.29-10.9-7.97-10.9c-9.26,0-8.44,8.67-7.97,10.9
	c0.47,2.23,2.23,7.26,2.23,11.95c0,5.39-2.34,10.08-4.57,15.47c-2.81-7.5-6.44-13.83-6.44-21.09c0-5.62,2.11-11.6,2.69-14.3
	c0.47-2.81,1.52-13.12-9.61-13.12s-10.08,10.31-9.61,13.01c0.47,2.69,2.69,8.67,2.69,14.3c0,7.26-3.75,13.71-6.44,21.09
	c-2.11-5.27-4.57-10.08-4.57-15.47c0-4.69,1.76-9.61,2.23-11.95c0.47-2.23,1.29-10.9-7.97-10.9s-8.44,8.67-7.97,10.9
	s2.23,7.26,2.23,11.95c0,9.73-7.85,17.58-7.85,30c0,10.55,4.57,24.14,6.8,25.54h13.71c0.94-0.59,2.11-3.05,3.4-6.68
	c1.64,6.21,3.75,11.13,5.16,11.95h16.4c1.41-0.82,3.52-5.74,5.27-11.95c1.17,3.52,2.46,6.09,3.4,6.68h13.59
	c2.23-1.29,6.8-15,6.8-25.54C-5343.71,200.59-5351.56,192.74-5351.56,183.13z M-5361.05,165.09c0.7-0.82,1.99-1.29,3.75-1.29
	s3.05,0.47,3.75,1.29c1.17,1.41,1.05,4.1,0.82,5.39c-0.12,0.47-0.23,1.29-0.47,2.11c-0.23,1.05-0.59,2.23-0.94,3.63h-6.21
	c-0.23-1.41-0.59-2.58-0.94-3.63c-0.23-0.82-0.47-1.64-0.47-2.11C-5362.11,169.19-5362.23,166.49-5361.05,165.09z M-5354.96,184.3
	h-4.69c0-0.47,0.12-0.82,0.12-1.29c0-0.82-0.12-1.64-0.12-2.58h4.8c-0.12,0.82-0.12,1.64-0.12,2.58
	C-5355.08,183.48-5354.96,183.95-5354.96,184.3z M-5386.01,155.36c0.94-1.17,2.69-1.76,5.04-1.76c2.34,0,4.1,0.59,5.04,1.76
	c1.52,1.87,1.41,5.39,1.05,7.03c-0.12,0.59-0.35,1.52-0.59,2.58c-0.35,1.29-0.7,2.69-1.05,4.22h-8.91c-0.35-1.52-0.7-2.93-1.05-4.22
	c-0.23-1.05-0.59-1.99-0.59-2.58C-5387.42,160.63-5387.54,157.23-5386.01,155.36z M-5377.46,178.91h-7.03
	c0-0.47,0.12-1.05,0.12-1.52c0-1.05-0.12-1.99-0.12-3.05h7.03c-0.12,0.94-0.12,1.99-0.12,3.05
	C-5377.58,177.86-5377.58,178.44-5377.46,178.91z M-5408.39,165.09c0.7-0.82,1.99-1.29,3.75-1.29s3.05,0.47,3.75,1.29
	c1.17,1.41,1.05,4.1,0.82,5.39c-0.12,0.47-0.23,1.29-0.47,2.11c-0.23,1.05-0.59,2.23-0.94,3.63h-6.21
	c-0.35-1.41-0.59-2.58-0.94-3.63c-0.23-0.82-0.47-1.64-0.47-2.11C-5409.45,169.19-5409.56,166.49-5408.39,165.09z M-5402.3,184.3
	h-4.69c0-0.47,0-0.82,0-1.29c0-0.82,0-1.64-0.12-2.58h4.8c-0.12,0.82-0.12,1.64-0.12,2.58
	C-5402.42,183.48-5402.3,183.95-5402.3,184.3z M-5399.49,235.04h-10.31c-1.64-3.16-4.92-13.24-4.92-22.03
	c0-5.86,1.99-10.78,3.98-15.47c1.17-2.81,2.46-5.74,3.16-8.91h5.86c0.7,3.05,1.99,5.98,3.16,8.91c0.82,2.11,1.76,4.22,2.46,6.44
	c-0.7,2.93-1.17,5.98-1.17,9.37c0,3.75,0.47,7.73,1.17,11.6C-5397.14,229.41-5398.55,233.28-5399.49,235.04z M-5374.41,240.31
	h-13.12c-1.41-2.34-3.52-8.55-4.92-15.35c-0.82-3.87-1.29-7.85-1.29-11.6c0-3.4,0.59-6.44,1.41-9.37c0.94-3.28,2.23-6.44,3.52-9.49
	c1.41-3.4,2.81-6.8,3.75-10.43h8.55c0.82,3.63,2.34,7.03,3.75,10.43c1.29,3.05,2.58,6.09,3.52,9.49c0.82,2.93,1.41,5.98,1.41,9.37
	c0,3.75-0.47,7.85-1.29,11.6C-5370.78,231.76-5373.01,237.97-5374.41,240.31z M-5352.15,235.04h-10.31
	c-0.94-1.76-2.34-5.62-3.4-10.08c0.7-3.87,1.17-7.97,1.17-11.6c0-3.4-0.47-6.44-1.17-9.37c0.7-2.23,1.64-4.34,2.46-6.44
	c1.17-2.81,2.46-5.74,3.16-8.91h5.86c0.7,3.05,1.99,5.98,3.16,8.91c1.99,4.69,3.98,9.61,3.98,15.47
	C-5347.23,221.8-5350.51,231.87-5352.15,235.04z"/>
<g>
	<path class="st2" d="M42.68,66.72C42.68,66.72,42.68,66.72,42.68,66.72c-1.23,1.23-1.23,3.22,0,4.45c1.2,1.23,3.26,1.22,4.44,0.01
		c0.63-0.61,0.96-1.4,0.96-2.24s-0.33-1.62-0.94-2.21c-0.6-0.6-1.39-0.93-2.24-0.93S43.27,66.13,42.68,66.72z"/>
	<path class="st2" d="M41.24,63.57c-0.34,0.47-0.69,0.95-1.06,1.43l0.38,0.38c0.12-0.14,0.22-0.29,0.35-0.43c0,0,0,0,0,0
		c0.73-0.73,1.65-1.19,2.62-1.42l-0.05-2.7l-0.3,0.3C42.46,61.87,41.87,62.7,41.24,63.57z"/>
	<path class="st2" d="M41.4,59.37L76.57,24.2c0.9-0.88,1.84-1.55,2.76-2.21c1.04-0.74,2.02-1.44,2.88-2.39
		c4.23-4.67,6.94-9.67,7.62-14.08c0.1-0.58-0.32-1-0.78-1.08c-0.03,0-0.06-0.01-0.1-0.01c-0.18,0-0.39,0.07-0.56,0.19
		c-0.14,0.1-0.3,0.29-0.35,0.59c-0.86,5.52-4.88,10.61-7.21,13.16c-0.66,0.77-1.43,1.35-2.08,1.81l-0.5,0.36
		c-1.05,0.74-2.05,1.44-2.95,2.37L40.13,58.08c-0.95,0.91-1.64,1.91-2.39,2.96l-0.36,0.51c-0.46,0.65-1.04,1.42-1.83,2.1
		c-2.52,2.3-7.61,6.32-13.11,7.18c-0.01,0-0.02,0-0.02,0c-0.3,0.04-0.49,0.21-0.59,0.35c-0.15,0.2-0.22,0.45-0.18,0.7
		c0.07,0.42,0.5,0.82,1.05,0.74c4.44-0.68,9.44-3.39,14.11-7.63c0.94-0.86,1.64-1.84,2.38-2.88C39.86,61.2,40.53,60.25,41.4,59.37z"
		/>
	<path class="st2" d="M83.93,25.47c-0.59,0.59-0.92,1.38-0.92,2.22s0.33,1.63,0.92,2.22c1.2,1.23,3.26,1.22,4.44,0.01
		c0.63-0.61,0.96-1.4,0.96-2.24s-0.33-1.62-0.94-2.21c-0.62-0.62-1.43-0.93-2.24-0.93C85.35,24.55,84.55,24.86,83.93,25.47
		C83.93,25.47,83.93,25.47,83.93,25.47z"/>
	<path class="st2" d="M80.78,24.03c-0.87,0.63-1.7,1.22-2.45,1.95l-0.29,0.29l2.66,0.05c0.24-0.98,0.73-1.89,1.46-2.62c0,0,0,0,0,0
		c0.13-0.13,0.28-0.23,0.43-0.35l-0.38-0.38C81.73,23.35,81.25,23.69,80.78,24.03z"/>
	<path d="M92.3,5.93c0.32-1.85-0.94-3.62-2.85-3.96c-0.91-0.13-1.84,0.11-2.56,0.66c-0.73,0.55-1.2,1.35-1.32,2.23
		c-0.76,4.85-4.45,9.5-6.6,11.86c-0.41,0.47-0.9,0.89-1.66,1.43l-0.5,0.35c-1.16,0.81-2.25,1.58-3.29,2.66L38.38,56.29
		c-1.1,1.06-1.87,2.15-2.68,3.31l-0.36,0.5c-0.53,0.76-0.96,1.25-1.45,1.68c-2.33,2.13-6.97,5.81-11.82,6.57
		c-0.9,0.13-1.69,0.59-2.23,1.32c-0.55,0.73-0.79,1.66-0.65,2.6c0.3,1.68,1.76,2.86,3.37,2.86c0.19,0,0.37-0.02,0.56-0.05
		c6.27-0.97,11.82-5.01,15.38-8.24l0.9,0.9c-0.39,1.81,0.11,3.78,1.51,5.18c1.07,1.09,2.49,1.69,4.01,1.69s2.94-0.6,3.99-1.67
		c1.09-1.07,1.69-2.49,1.69-4.01s-0.6-2.94-1.68-3.99c-0.79-0.79-1.8-1.28-2.87-1.49l-0.1-5.09l29.64-29.64l5.04,0.1
		c0.22,1.08,0.74,2.07,1.53,2.86c1.07,1.09,2.49,1.69,4.01,1.69c1.52,0,2.94-0.6,3.98-1.67c1.09-1.07,1.69-2.49,1.69-4.01
		s-0.6-2.94-1.68-4c-1.41-1.41-3.37-1.9-5.19-1.52l-0.9-0.9C87.29,17.73,91.34,12.17,92.3,5.93z M22.71,72.62
		c-0.55,0.08-0.98-0.32-1.05-0.74c-0.04-0.24,0.03-0.5,0.18-0.7c0.1-0.14,0.29-0.3,0.59-0.35c0.01,0,0.01,0,0.02,0
		c5.5-0.86,10.59-4.88,13.11-7.18c0.79-0.69,1.37-1.45,1.83-2.1l0.36-0.51c0.74-1.05,1.44-2.05,2.39-2.96l35.17-35.17
		c0.9-0.93,1.89-1.63,2.95-2.37l0.5-0.36c0.66-0.46,1.42-1.04,2.08-1.81c2.32-2.54,6.34-7.63,7.21-13.16
		c0.04-0.3,0.21-0.49,0.35-0.59c0.17-0.13,0.38-0.19,0.56-0.19c0.03,0,0.06,0,0.1,0.01c0.46,0.08,0.88,0.5,0.78,1.08
		c-0.68,4.42-3.39,9.42-7.62,14.08c-0.86,0.95-1.84,1.65-2.88,2.39c-0.91,0.65-1.86,1.33-2.76,2.21L41.4,59.37
		c-0.87,0.89-1.54,1.83-2.2,2.75c-0.74,1.04-1.44,2.02-2.38,2.88C32.15,69.23,27.15,71.94,22.71,72.62z M48.08,68.95
		c0,0.84-0.33,1.62-0.96,2.24c-1.18,1.21-3.24,1.22-4.44-0.01c-1.23-1.23-1.23-3.22,0-4.45c0,0,0,0,0,0
		c0.59-0.59,1.38-0.92,2.22-0.92s1.63,0.33,2.24,0.93C47.75,67.32,48.08,68.11,48.08,68.95z M43.53,63.53
		c-0.97,0.23-1.89,0.69-2.62,1.42c0,0,0,0,0,0c-0.13,0.13-0.23,0.28-0.35,0.43L40.18,65c0.37-0.48,0.72-0.96,1.06-1.43
		c0.63-0.87,1.22-1.7,1.94-2.44l0.3-0.3L43.53,63.53z M88.39,25.48c0.61,0.59,0.94,1.38,0.94,2.21s-0.33,1.62-0.96,2.24
		c-1.18,1.21-3.24,1.22-4.44-0.01c-0.59-0.59-0.92-1.38-0.92-2.22s0.33-1.63,0.92-2.22c0,0,0,0,0,0c0.61-0.61,1.42-0.92,2.22-0.92
		C86.96,24.55,87.77,24.86,88.39,25.48z M82.16,23.7C82.16,23.7,82.16,23.7,82.16,23.7c-0.73,0.73-1.22,1.64-1.46,2.62l-2.66-0.05
		l0.29-0.29c0.75-0.73,1.58-1.32,2.45-1.95c0.47-0.34,0.95-0.69,1.43-1.06l0.38,0.38C82.45,23.47,82.3,23.57,82.16,23.7z"/>
</g>
</svg>
