<?xml version="1.0" encoding="utf-8"?>
<!-- Generator: Adobe Illustrator 28.1.0, SVG Export Plug-In . SVG Version: 6.00 Build 0)  -->
<svg version="1.1" id="Layer_1" xmlns="http://www.w3.org/2000/svg" xmlns:xlink="http://www.w3.org/1999/xlink" x="0px" y="0px"
	 viewBox="0 0 110.55 76.54" style="enable-background:new 0 0 110.55 76.54;" xml:space="preserve">
<style type="text/css">
	.st0{display:none;}
	.st1{display:inline;fill:none;}
	.st2{fill:#231F20;}
</style>
<g id="Layer_2_00000073722119373351752270000017113015111246931634_" class="st0">
	<line class="st1" x1="-24.13" y1="74.54" x2="142.13" y2="74.54"/>
	<line class="st1" x1="-24.13" y1="2" x2="142.13" y2="2"/>
</g>
<g>
	<path class="st2" d="M40.43,7.47c2.28,0,3.82,1.83,3.82,4.74c0,3.5-1.74,5.67-4.41,5.67c-0.95,0-1.85-0.23-2.46-0.81v7.39H35.8
		V10.52c0-0.66-0.18-1.92-0.43-2.73h1.6c0.14,0.41,0.18,0.61,0.27,1.38C38.12,8.01,39.16,7.47,40.43,7.47z M37.38,15.54
		c0.52,0.63,1.45,1.02,2.12,1.02c1.69,0,3.09-1.83,3.09-4.2c0-2.12-0.88-3.37-2.33-3.37c-1.76,0-2.89,1.65-2.89,4.27V15.54z"/>
	<path class="st2" d="M48.79,17.73H47.2V1.94h1.58V17.73z"/>
	<path class="st2" d="M58.75,16.15c-0.77,1.22-2.1,1.85-3.32,1.85c-2.08,0-3.66-1.67-3.66-4.81c0-3.41,2.12-5.65,5.33-5.65
		c1.15,0,1.99,0.11,3.16,0.52v7.25c0,1.26,0.14,2.42,0.14,2.42h-1.49L58.75,16.15z M58.68,9.3c-0.63-0.2-1.2-0.25-1.76-0.25
		c-2.17,0-3.5,1.63-3.5,4.4c0,1.92,0.81,2.96,2.19,2.96c1.69,0,3.07-1.63,3.07-4.22V9.3z"/>
	<path class="st2" d="M64.46,5.76c-0.56,0-1.08-0.41-1.08-0.95c0-0.61,0.41-1.08,0.95-1.08c0.59,0,1.11,0.47,1.11,1.06
		C65.43,5.33,64.98,5.76,64.46,5.76z M65.18,17.73H63.6V7.79h1.58V17.73z"/>
	<path class="st2" d="M70.15,17.73h-1.58v-6.75c0-1.08-0.2-2.46-0.45-3.18h1.54c0.2,0.52,0.23,0.66,0.36,1.65
		c0.99-1.38,1.99-1.9,3.28-1.9c1.92,0,3.32,1.24,3.32,3.79v6.39h-1.65v-6.35c0-1.49-0.63-2.33-1.78-2.33c-1.72,0-3.03,1.76-3.03,4.4
		V17.73z"/>
</g>
<g>
	<path class="st2" d="M33.64,36.7c0.89-0.94,2.04-1.43,3.5-1.43c2.91,0,4.82,2.15,4.82,5.35c0,4.33-2.58,7.13-6.62,7.13
		c-1.72,0-3.69-0.43-5.19-1.1V28.68h3.5V36.7z M33.64,44.07c0.65,0.35,0.94,0.4,1.75,0.4c1.78,0,2.83-1.18,2.83-3.17
		c0-1.53-0.73-2.48-2.04-2.48c-1.64,0-2.53,1.4-2.53,2.99V44.07z"/>
	<path class="st2" d="M50.91,47.84c-3.71,0-6.24-2.26-6.24-6.32c0-3.95,2.45-6.24,6.24-6.24c3.74,0,6.21,2.21,6.21,6.24
		C57.12,45.58,54.62,47.84,50.91,47.84z M50.91,38.45c-1.61,0-2.5,1.16-2.5,3.07c0,1.99,0.86,3.15,2.5,3.15
		c1.64,0,2.58-1.13,2.58-3.15C53.49,39.58,52.47,38.45,50.91,38.45z"/>
	<path class="st2" d="M64.23,47.46h-3.69V28.68h3.69V47.46z"/>
	<path class="st2" d="M72.94,47.76c-3.12,0-5.27-2.26-5.27-5.68c0-3.93,2.58-6.75,6.08-6.75c0.81,0,1.51,0.08,2.5,0.43v-7.08h3.44
		v14.69c0,1.21,0.27,4.09,0.27,4.09H77c0,0-0.11-0.51-0.16-1.4C75.74,47.3,74.5,47.76,72.94,47.76z M76.25,38.83
		c-0.67-0.27-1.24-0.32-1.88-0.32c-1.75,0-2.96,1.35-2.96,3.47c0,1.56,0.86,2.5,2.13,2.5c1.53,0,2.72-0.94,2.72-3.87V38.83z"/>
</g>
<g>
	<path class="st2" d="M26.61,60.95c-1.13,0-2.12,0.27-2.95,0.81v-7.4h-4.59v18.87l0.32,0.14c1.61,0.72,3.64,1.15,5.42,1.15
		c4.35,0,7.16-3.01,7.16-7.67C31.98,63.32,29.82,60.95,26.61,60.95z M23.66,68.03c0-1.22,0.61-2.44,1.98-2.44
		c1.24,0,1.5,1.05,1.5,1.93c0,0.98-0.3,2.63-2.28,2.63c-0.6,0-0.85-0.03-1.2-0.19V68.03z"/>
	<path class="st2" d="M40.39,60.95c-4.19,0-6.79,2.6-6.79,6.79c0,4.24,2.6,6.87,6.79,6.87c4.17,0,6.76-2.63,6.76-6.87
		C47.15,63.55,44.56,60.95,40.39,60.95z M42.43,67.73c0,1.19-0.35,2.6-2.04,2.6c-1.3,0-1.96-0.88-1.96-2.6
		c0-1.15,0.34-2.52,1.96-2.52C41.69,65.21,42.43,66.13,42.43,67.73z"/>
	<rect x="49.48" y="54.36" class="st2" width="4.78" height="19.87"/>
	<path class="st2" d="M69.72,69.59V54.36h-4.53v6.88C64.46,61.05,63.86,61,63.23,61c-3.84,0-6.63,3.07-6.63,7.3
		c0,3.66,2.39,6.22,5.82,6.22c1.38,0,2.5-0.35,3.47-1.09c0.03,0.23,0.06,0.35,0.06,0.36l0.09,0.43h4l-0.06-0.6
		C69.99,73.6,69.72,70.76,69.72,69.59z M65.19,65.43v1.39c0,2.98-1.24,3.33-2.17,3.33c-0.99,0-1.58-0.73-1.58-1.96
		c0-1.78,0.95-2.93,2.41-2.93C64.33,65.27,64.74,65.3,65.19,65.43z"/>
	<path class="st2" d="M84.01,65.1c0-2.45-1.98-4.1-4.93-4.1c-4.11,0-6.98,2.97-6.98,7.22c0,3.86,2.51,6.36,6.38,6.36
		c1.65,0,2.94-0.35,4.34-1.18l0.27-0.16v-4.1l-0.83,0.5c-1.18,0.71-2.42,1.1-3.48,1.1c-0.86,0-1.45-0.36-1.72-1.04
		c0.01,0,0.02,0,0.03,0C81.23,69.71,84.01,67.85,84.01,65.1z M77.22,66.19c0.27-0.84,0.82-1.36,1.48-1.36
		c0.38,0,0.64,0.27,0.64,0.53c0,0.68-1.11,0.83-2.04,0.83C77.27,66.19,77.24,66.19,77.22,66.19z"/>
	<path class="st2" d="M94.5,61.42c-0.62-0.24-0.95-0.36-1.54-0.36c-1.12,0-1.98,0.39-2.84,1.34c-0.05-0.2-0.11-0.42-0.19-0.7
		l-0.11-0.4h-4.44l0.2,0.69c0.39,1.38,0.46,1.97,0.46,3.75v8.48h4.56v-5.2c0-2.53,0.87-3.81,2.58-3.81c0.26,0,0.42,0.04,0.82,0.12
		l0.78,0.17l0.07-3.94L94.5,61.42z"/>
</g>
</svg>
