<?xml version="1.0" encoding="utf-8"?>
<!-- Generator: Adobe Illustrator 28.1.0, SVG Export Plug-In . SVG Version: 6.00 Build 0)  -->
<svg version="1.1" id="Layer_1" xmlns="http://www.w3.org/2000/svg" xmlns:xlink="http://www.w3.org/1999/xlink" x="0px" y="0px"
	 viewBox="0 0 110.55 76.54" style="enable-background:new 0 0 110.55 76.54;" xml:space="preserve">
<style type="text/css">
	.st0{display:none;}
	.st1{display:inline;fill:none;}
	.st2{fill:#231F20;}
	.st3{fill:none;}
</style>
<g id="Layer_2_00000073722119373351752270000017113015111246931634_" class="st0">
	<line class="st1" x1="-24.13" y1="74.54" x2="142.13" y2="74.54"/>
	<line class="st1" x1="-24.13" y1="2" x2="142.13" y2="2"/>
</g>
<g>
	<path class="st2" d="M30.65,10.99c3.74,0,6.25,3,6.25,7.77c0,5.74-2.85,9.29-7.22,9.29c-1.55,0-3.03-0.37-4.03-1.33v12.1h-2.59
		V15.98c0-1.07-0.3-3.15-0.7-4.48h2.63c0.22,0.67,0.3,1,0.44,2.26C26.88,11.88,28.58,10.99,30.65,10.99z M25.66,24.2
		c0.85,1.04,2.37,1.67,3.48,1.67c2.78,0,5.07-3,5.07-6.88c0-3.48-1.44-5.51-3.81-5.51c-2.89,0-4.74,2.7-4.74,6.99V24.2z"/>
	<path class="st2" d="M44.35,27.79h-2.59V1.92h2.59V27.79z"/>
	<path class="st2" d="M60.67,25.2c-1.26,2-3.44,3.03-5.44,3.03c-3.4,0-5.99-2.74-5.99-7.88c0-5.59,3.48-9.25,8.73-9.25
		c1.89,0,3.26,0.18,5.18,0.85v11.88c0,2.07,0.22,3.96,0.22,3.96h-2.44L60.67,25.2z M60.56,13.99c-1.04-0.33-1.96-0.41-2.89-0.41
		c-3.55,0-5.74,2.66-5.74,7.22c0,3.15,1.33,4.85,3.59,4.85c2.78,0,5.03-2.66,5.03-6.92V13.99z"/>
	<path class="st2" d="M70.03,8.18c-0.92,0-1.78-0.67-1.78-1.55c0-1,0.67-1.78,1.55-1.78c0.96,0,1.81,0.78,1.81,1.74
		C71.62,7.47,70.88,8.18,70.03,8.18z M71.21,27.79h-2.59V11.51h2.59V27.79z"/>
	<path class="st2" d="M79.35,27.79h-2.59V16.72c0-1.78-0.33-4.03-0.74-5.22h2.52c0.33,0.85,0.37,1.07,0.59,2.7
		c1.63-2.26,3.26-3.11,5.37-3.11c3.15,0,5.44,2.04,5.44,6.22v10.47h-2.7v-10.4c0-2.44-1.04-3.81-2.92-3.81
		c-2.81,0-4.96,2.89-4.96,7.22V27.79z"/>
</g>
<g>
	<path class="st3" d="M47.26,64.27c0,3.18,1.72,3.18,2.29,3.18c0.59,0,2.4,0,2.4-3.18c0-1.14-0.31-3.06-2.4-3.06
		C48.03,61.2,47.26,62.24,47.26,64.27z"/>
	<path class="st3" d="M30.93,63.97c0-2.25-1.25-2.25-1.66-2.25c-1.72,0-2.33,1.59-2.33,2.95v2.38c0.32,0.11,0.63,0.13,1.25,0.13
		C30.46,67.19,30.93,65.44,30.93,63.97z"/>
	<path class="st3" d="M78.9,64.9c0,0.69,0.17,2.29,1.77,2.29c0.77,0,2.58,0,2.58-4.18v-1.6c-0.47-0.11-0.92-0.13-1.44-0.13
		C80.02,61.28,78.9,62.67,78.9,64.9z"/>
	<path d="M30.61,54.53c-1.36,0-2.58,0.28-3.66,0.82v-9.89h-7.12v26.62l0.68,0.31c2.27,1.01,5.11,1.62,7.61,1.62
		c6.13,0,10.26-4.4,10.26-10.96C38.38,57.95,35.26,54.53,30.61,54.53z M26.95,64.68c0-1.36,0.61-2.95,2.33-2.95
		c0.41,0,1.66,0,1.66,2.25c0,1.47-0.47,3.21-2.73,3.21c-0.62,0-0.93-0.02-1.25-0.13V64.68z"/>
	<path d="M49.55,54.53c-6.01,0-9.74,3.73-9.74,9.74c0,5.98,3.82,9.85,9.74,9.85c5.98,0,9.7-3.77,9.7-9.85
		C59.25,58.26,55.54,54.53,49.55,54.53z M51.95,64.27c0,3.18-1.81,3.18-2.4,3.18c-0.57,0-2.29,0-2.29-3.18
		c0-2.03,0.77-3.06,2.29-3.06C51.64,61.2,51.95,63.12,51.95,64.27z"/>
	<rect x="61.65" y="45.47" width="7.38" height="28.14"/>
	<path d="M90.67,72.34c0-0.04-0.37-3.93-0.37-5.52V45.47h-7.04v9.36c-0.82-0.17-1.54-0.22-2.29-0.22c-5.51,0-9.52,4.39-9.52,10.44
		c0,5.28,3.46,8.96,8.41,8.96c1.74,0,3.21-0.39,4.48-1.21l0.17,0.8h6.27L90.67,72.34z M83.26,61.41v1.6c0,4.18-1.81,4.18-2.58,4.18
		c-1.6,0-1.77-1.6-1.77-2.29c0-2.23,1.12-3.62,2.92-3.62C82.34,61.28,82.79,61.3,83.26,61.41z"/>
</g>
</svg>
