<?xml version="1.0" encoding="utf-8"?>
<!-- Generator: Adobe Illustrator 28.1.0, SVG Export Plug-In . SVG Version: 6.00 Build 0)  -->
<svg version="1.1" id="Layer_1" xmlns="http://www.w3.org/2000/svg" xmlns:xlink="http://www.w3.org/1999/xlink" x="0px" y="0px"
	 viewBox="0 0 110.55 76.54" style="enable-background:new 0 0 110.55 76.54;" xml:space="preserve">
<style type="text/css">
	.st0{display:none;}
	.st1{display:inline;fill:none;}
</style>
<g id="Layer_2_00000073722119373351752270000017113015111246931634_" class="st0">
	<line class="st1" x1="-24.13" y1="74.54" x2="142.13" y2="74.54"/>
	<line class="st1" x1="-24.13" y1="2" x2="142.13" y2="2"/>
</g>
<g>
	<path d="M60.61,10.96V1.15l-2.98,3.35l-2.36-3.2l-2.78,3.2l-2.67-3.2c0,0,0,5.58,0,9.77c1.45-1.3,3.36-2.09,5.45-2.09
		C57.31,8.98,59.18,9.72,60.61,10.96z"/>
	<path d="M77.86,18.05c-0.85-1.4-2.68-1.84-4.08-0.99l-13.99,8.53c-0.65-0.17-1.32-0.27-2.01-0.27h-4.93c-0.73,0-1.42,0.1-2.08,0.27
		l-14-8.53c-1.4-0.85-3.22-0.41-4.08,0.99c-0.85,1.4-0.41,3.23,0.99,4.08l14.25,8.69c0.27,0.17,0.56,0.28,0.85,0.35
		c0,0.57,0.01,1.34,0.01,1.34l0.27,14.77c0.05,1.32,0,2.99-0.14,4.19L47.1,71.44c-0.14,1.69,1.08,3.17,2.77,3.31
		c1.69,0.14,3.17-1.08,3.31-2.77l2.03-22.08h0.2l2.03,22.08c0.14,1.55,1.49,2.77,3.04,2.77h0.27c1.69-0.14,2.9-1.62,2.77-3.31
		l-1.89-19.92c-0.14-1.86-0.14-2.96-0.2-4.65l0.26-14.4c0.03,0.04-0.04-0.71-0.01-0.66l-0.04-0.63c0.34-0.07,0.67-0.18,0.98-0.37
		l14.25-8.69C78.27,21.27,78.71,19.45,77.86,18.05z"/>
	<path d="M63.52,46.54c0.06,1.69,0.06,2.79,0.2,4.65l1.89,19.92h5.06l-6.88-38.97L63.52,46.54z"/>
	<path d="M39.92,71.11h5.06l1.89-19.92c0.14-1.86,0.14-2.96,0.2-4.65l-0.26-14.4L39.92,71.11z"/>
	<circle cx="55.27" cy="17.15" r="6.48"/>
</g>
</svg>
