<?xml version="1.0" encoding="utf-8"?>
<!-- Generator: Adobe Illustrator 28.1.0, SVG Export Plug-In . SVG Version: 6.00 Build 0)  -->
<svg version="1.1" id="Layer_1" xmlns="http://www.w3.org/2000/svg" xmlns:xlink="http://www.w3.org/1999/xlink" x="0px" y="0px"
	 viewBox="0 0 110.6 76.5" style="enable-background:new 0 0 110.6 76.5;" xml:space="preserve">
<style type="text/css">
	.st0{display:none;}
	.st1{display:inline;fill:none;}
	.st2{fill:#808080;}
	.st3{fill-rule:evenodd;clip-rule:evenodd;fill:#FFFFFF;}
	.st4{fill-rule:evenodd;clip-rule:evenodd;}
	.st5{fill:none;}
</style>
<g id="Layer_2_00000073722119373351752270000017113015111246931634_" class="st0">
	<line class="st1" x1="-24.1" y1="74.5" x2="142.1" y2="74.5"/>
	<line class="st1" x1="-24.1" y1="2" x2="142.1" y2="2"/>
</g>
<g>
	<g>
		<path class="st2" d="M2198.7,1892.5c-0.1,0.6-0.2,0.9-0.8,1.1c-0.3,0.1-0.6,0.2-0.8,0.4c-0.1,0.1-0.1,0.2-0.2,0.3
			c0.1,0.1,0.3,0.2,0.4,0.2c0.4,0,0.7-0.1,1.1-0.2c0.1,0.9-0.1,1.1-1,1.3c-3.8,1.1-7.6,2.2-11.4,3.1c-3.3,0.8-7-1.7-7.4-5.1
			c-0.2-1.7-0.4-3.4-0.4-5.1c-0.1-2.1-0.9-4-1.9-5.8c-3.5-6.1-7-12.2-10.5-18.2c-0.6-1-1.2-2.1-1.8-3.1c-0.1-0.3-0.2-0.4,0.1-0.6
			c1.1-0.6,2.2-1.3,3.4-1.9c0.5,0.8,0.9,1.5,1.3,2.3c4,6.9,8,13.9,12,20.8c1,1.8,1.4,3.7,1.3,5.7c-0.1,1.3-0.2,2.6-0.2,3.9
			c0,1.7,1.2,2.9,3,2.9c4.5-0.1,8.9-0.6,13.2-1.8C2198.1,1892.6,2198.4,1892.5,2198.7,1892.5z"/>
		<path class="st2" d="M2154.7,1847.3c0.2,0.3,0.4,0.7,0.6,1c0.5,0.8,1,0.9,1.7,0.4c1.1-0.6,2.2-1.3,3.3-1.9
			c0.8-0.4,1.4-0.4,1.9,0.2c0.6,0.6,0.6,1.3,0.1,2.1c-0.1,0.1-0.1,0.2-0.2,0.4c0.9-0.2,1.6-0.1,2,0.7c0.4,0.8,0.1,1.4-0.4,2.2
			c1.1-0.2,1.8,0,2.2,0.9c0.4,1.1-0.2,1.8-1.2,2.2c0,0.1,0.1,0.1,0.1,0.1c0.2,0,0.4,0,0.6,0c0.7,0,1.4,0.4,1.6,1
			c0.2,0.7,0,1.4-0.7,1.8c-1.6,0.9-3.2,1.9-4.8,2.8c-1.2,0.7-2.5,1.1-3.8,1.3s-2.6,0.6-3.8,1.2c-0.8,0.4-1.2,0.3-1.6-0.5
			c-1.2-2.1-2.4-4.2-3.6-6.3c-0.4-0.6-0.3-1.1,0.2-1.5c2-1.4,3.2-3.4,4.1-5.5c0.4-0.8,0.9-1.6,1.4-2.3
			C2154.4,1847.4,2154.5,1847.4,2154.7,1847.3z"/>
		<path class="st2" d="M2140.8,1831.4c0.9-0.1,1.6-0.2,2.4-0.3c0.1,0,0.3,0,0.4,0.1c2.9,1.3,5.8,2.6,8.6,4c1.5,0.7,2.6,1.9,3.5,3.4
			c1.3,2.2,2.6,4.5,3.9,6.8c0.3,0.5,0.2,0.7-0.3,0.9c-1,0.5-2,1.1-3.1,1.8c-0.5-0.8-0.9-1.6-1.4-2.3c-0.9-1.6-1.8-3.2-2.8-4.7
			c-0.8-1.4-2.1-2.4-3.4-3.4c-2.5-1.9-5-3.9-7.5-5.8C2141.1,1831.7,2141,1831.6,2140.8,1831.4z"/>
	</g>
	<path class="st2" d="M2202.7,1888.8l-4.1,1.2c-0.1,0-0.1,0.2-0.1,0.3l0.2,0.6c0,0.1,0.1,0.2,0.2,0.2l1.4-0.4l3.4,11.1l1.1,1.1
		l0.3-1.5l-3.4-11.1l1.4-0.4c0.1,0,0.1-0.2,0.1-0.3l-0.2-0.6C2202.9,1888.9,2202.8,1888.8,2202.7,1888.8z"/>
</g>
<path class="st3" d="M3335.7,190.5c0-1.8-1.5-3.2-3.2-3.2h-4.3V184c0-0.6-0.5-1.1-1.1-1.1l-28,0c-2.2,0-4.1,1.3-4.9,3.2h-0.5
	c-2.4,0-4.3,1.9-4.3,4.3v2.2c0,2.4,1.9,4.3,4.3,4.3h0.5c0.5,1.2,1.5,2.2,2.8,2.8v17.7c0,1.4,0.9,2.6,2.2,3v2.4
	c0,1.8,1.5,3.2,3.2,3.2c1.8,0,3.2-1.5,3.2-3.2v-2.4c1.2-0.4,2.2-1.6,2.2-3v-7.5h1.1c1.8,0,3.2-1.5,3.2-3.2v-6.5h15.1
	c0.6,0,1.1-0.5,1.1-1.1v-3.2h4.3c1.8,0,3.2-1.5,3.2-3.2h20.5v-2.2H3335.7z"/>
<g transform="translate(0,-288.53332)">
	<path d="M3299.1,471.5c-3,0-5.4,2.4-5.4,5.4v6.5c0,3,2.4,5.4,5.4,5.4h28c0.6,0,1.1-0.5,1.1-1.1v-15.1c0-0.6-0.5-1.1-1.1-1.1
		L3299.1,471.5z M3299.1,473.7h26.9v12.9h-26.9c-1.8,0-3.2-1.4-3.2-3.2v-6.5C3295.9,475.1,3297.3,473.7,3299.1,473.7L3299.1,473.7z"
		/>
	<path class="st4" d="M3293.7,474.7c-2.4,0-4.3,1.9-4.3,4.3v2.2c0,2.4,1.9,4.3,4.3,4.3h1.1v-2.2h-1.1c-1.2,0-2.2-1-2.2-2.2v-2.2
		c0-1.2,1-2.2,2.2-2.2h1.1v-2.2H3293.7z"/>
	<path class="st4" d="M3327.1,475.8v2.2h5.4c0.6,0,1.1,0.5,1.1,1.1v2.2c0,0.6-0.5,1.1-1.1,1.1h-5.4v2.2h5.4c1.8,0,3.2-1.5,3.2-3.2
		v-2.2c0-1.8-1.5-3.2-3.2-3.2H3327.1z"/>
	<path class="st4" d="M3334.7,479.1v2.2h21.6v-2.2H3334.7z"/>
	<path class="st4" d="M3300.2,476.9v2.2h21.6v-2.2H3300.2z"/>
	<path class="st4" d="M3300.2,481.2v2.2h21.6v-2.2H3300.2z"/>
	<path class="st4" d="M3296.9,487.7V506c0,1.8,1.5,3.2,3.2,3.2h4.3c1.8,0,3.2-1.5,3.2-3.2v-7.5h1.1c1.8,0,3.2-1.5,3.2-3.2v-7.5h-2.2
		v7.5c0,0.6-0.5,1.1-1.1,1.1h-1.1c-1.2,0-2.2,1-2.2,2.2v7.5c0,0.6-0.5,1.1-1.1,1.1h-4.3c-0.6,0-1.1-0.5-1.1-1.1v-18.3H3296.9z"/>
	<path class="st4" d="M3299.1,508.2v3.2c0,1.8,1.5,3.2,3.2,3.2s3.2-1.5,3.2-3.2v-3.2h-2.2v3.2c0,0.6-0.5,1.1-1.1,1.1
		s-1.1-0.5-1.1-1.1v-3.2H3299.1z"/>
	<path class="st4" d="M3301.3,515.7v4.3c0,2.4-1.9,4.3-4.3,4.3h-7.5v2.2h7.5c3.6,0,6.5-2.9,6.5-6.5v-4.3H3301.3z"/>
</g>
<g>
	<rect x="3300.2" y="188.4" class="st4" width="21.6" height="2.2"/>
	<rect x="3300.2" y="192.7" class="st4" width="21.6" height="2.2"/>
	<path class="st4" d="M3301.3,231.5c0,2.4-1.9,4.3-4.3,4.3h-7.5v2.2h7.5c3.6,0,6.5-2.9,6.5-6.5v-4.3h-2.2V231.5z"/>
</g>
<g>
	<path class="st5" d="M40.7,48.4c0,0.7,0.5,1.2,1.2,1.2h4.8c0.7,0,1.2-0.5,1.2-1.2v-8.5c0-1.3,1.1-2.4,2.4-2.4h1.2
		c0.7,0,1.2-0.5,1.2-1.2V29H40.7V48.4z"/>
	<path class="st5" d="M43.1,54.4c0,0.7,0.5,1.2,1.2,1.2s1.2-0.5,1.2-1.2V52h-2.4V54.4z"/>
	<path class="st5" d="M32.2,18.1v2.4c0,1.4,1.1,2.4,2.4,2.4v-7.3C33.3,15.7,32.2,16.8,32.2,18.1z"/>
	<path class="st5" d="M40.7,12.1c-2,0-3.6,1.6-3.6,3.6V23c0,2,1.6,3.6,3.6,3.6h30.2V12.1L40.7,12.1L40.7,12.1z M41.9,18.1v-2.4v0
		h24.2v0h0v2.4L41.9,18.1L41.9,18.1z M41.9,23v-2.4h24.2h0V23L41.9,23L41.9,23z"/>
	<path class="st5" d="M78.1,16.9h-4.8v4.8h4.8c0.7,0,1.2-0.5,1.2-1.2v-2.4C79.4,17.5,78.8,16.9,78.1,16.9z"/>
	<path d="M81.8,18.1c0-2-1.6-3.6-3.6-3.6h-4.8v-3.6c0-0.7-0.5-1.2-1.2-1.2l-31.4,0c-2.5,0-4.6,1.5-5.5,3.6h-0.5
		c-2.7,0-4.8,2.2-4.8,4.8v2.4c0,2.7,2.2,4.8,4.8,4.8h0.5c0.6,1.4,1.7,2.5,3.1,3.1v19.9c0,1.6,1,2.9,2.4,3.4v2.6c0,2,1.6,3.6,3.6,3.6
		s3.6-1.6,3.6-3.6v-2.6c1.4-0.5,2.4-1.8,2.4-3.4v-8.5h1.2c2,0,3.6-1.6,3.6-3.6V29h16.9c0.7,0,1.2-0.5,1.2-1.2v-3.6h4.8
		c2,0,3.6-1.6,3.6-3.6h23v-2.4H81.8z M32.2,20.6v-2.4c0-1.4,1.1-2.4,2.4-2.4V23C33.3,23,32.2,21.9,32.2,20.6z M45.5,54.4
		c0,0.7-0.5,1.2-1.2,1.2s-1.2-0.5-1.2-1.2V52h2.4V54.4z M52.8,36.3c0,0.7-0.5,1.2-1.2,1.2h-1.2c-1.3,0-2.4,1.1-2.4,2.4v8.5
		c0,0.7-0.5,1.2-1.2,1.2h-4.8c-0.7,0-1.2-0.5-1.2-1.2V29h12.1V36.3z M70.9,26.6H40.7c-2,0-3.6-1.6-3.6-3.6v-7.3c0-2,1.6-3.6,3.6-3.6
		v0h30.2V26.6z M79.4,20.6c0,0.7-0.5,1.2-1.2,1.2h-4.8v-4.8h4.8c0.7,0,1.2,0.5,1.2,1.2V20.6z"/>
	<polygon points="66.1,15.7 66.1,15.7 66.1,15.7 41.9,15.7 41.9,15.7 41.9,18.1 41.9,18.1 66.1,18.1 	"/>
	<polygon points="66.1,20.6 66.1,20.6 41.9,20.6 41.9,23 41.9,23 66.1,23 	"/>
	<path d="M43.1,59.3L43.1,59.3l0,4.8c0,1.2-0.5,2.4-1.2,3.2c-0.9,1-2.2,1.6-3.6,1.6h-8.5v0h0v2.4h8.5c1.8,0,3.4-0.6,4.6-1.7
		c0.8-0.6,1.4-1.4,1.8-2.3c0.5-1,0.8-2.1,0.8-3.2v-4.8h0H43.1z"/>
</g>
</svg>
