<?xml version="1.0" encoding="utf-8"?>
<!-- Generator: Adobe Illustrator 28.1.0, SVG Export Plug-In . SVG Version: 6.00 Build 0)  -->
<svg version="1.1" xmlns="http://www.w3.org/2000/svg" xmlns:xlink="http://www.w3.org/1999/xlink" x="0px" y="0px"
	 viewBox="0 0 110.55 76.54" style="enable-background:new 0 0 110.55 76.54;" xml:space="preserve">
<style type="text/css">
	.st0{display:none;}
	.st1{display:inline;fill:#010101;}
	.st2{fill:#010101;}
</style>
<g id="Layer_2" class="st0">
	<line class="st1" x1="-24.13" y1="74.54" x2="142.13" y2="74.54"/>
	<line class="st1" x1="-24.13" y1="2" x2="142.13" y2="2"/>
</g>
<g id="Layer_1">
	<path class="st2" d="M-24.13,74.54"/>
	<path class="st2" d="M-24.13,2"/>
	<g>
		<path class="st2" d="M91.85,32.36c-2.49-3.6-6.68-5.99-11.6-8.79c-1.13-0.64-2.29-1.31-3.48-2.01c-1.34-1.52-2.04-4.05-2.74-6.58
			c-1.31-4.75-2.61-9.47-8.05-9.29L65.86,5.7c-2.5,0.39-4.73,0.39-6.67,0.01c-1.87-0.37-3.48-1.09-4.82-2.18
			c-0.14-0.13-0.32-0.22-0.53-0.24C42.72,2.01,36.18,2.42,34.23,4.53l-0.02,0.02L34.2,4.57l-0.02,0.02l0,0L34.17,4.6l-0.02,0.02
			l-0.01,0.02v0l-0.01,0.02l-0.01,0.02v0L34.1,4.7c-2.45,3.66-5.19,7.01-8.2,10.02c-3.01,3.01-6.29,5.68-9.84,8.02l-0.04,0.02l0,0
			l-0.01,0.01L16,22.78l0,0l-0.01,0.01l0,0l-0.01,0.01l-0.01,0.01h0l-0.01,0.01l-0.01,0.01l-0.01,0l-0.01,0.01l0,0l-0.02,0.02l0,0
			l-0.01,0.01l0,0l-0.01,0.01l-0.01,0.01l0,0l-0.01,0.01l0,0l-0.02,0.02l0,0l-0.01,0.01l0,0l-0.03,0.03l0,0l-0.01,0.01L15.78,23l0,0
			l-0.01,0.01l0,0l-0.01,0.01l-0.01,0.01l-0.01,0.01h0l-0.01,0.02l-0.01,0.01l-0.01,0.01l0,0c-2.1,3.86-2.89,8.28-2.27,13.29
			c0.62,4.94,2.61,10.47,6.07,16.62c0.74,1.32,0.45,2.97,0.14,4.7c-0.38,2.09-0.77,4.29,0.29,6.57c0.06,0.13,0.15,0.24,0.26,0.34
			c2.4,1.93,4.6,3.41,6.6,4.43c2.03,1.03,3.87,1.61,5.53,1.74l0.04,0l0.02,0l0.02,0l0.05,0c5.85,0,9.73,1.01,13.08,1.88
			c5.06,1.32,8.97,2.33,16.26-0.52l0.01-0.01c0.06-0.02,0.12-0.05,0.17-0.08l0.01,0c1.45-0.92,3.55-1.61,6.29-2.05
			c2.81-0.46,6.27-0.67,10.37-0.63c0.05,0,0.09,0,0.14,0c0.65-0.05,1.48-0.05,2.39-0.05c1.74,0,3.81-0.01,5.69-0.29
			c0.06,0,0.11-0.01,0.16-0.03c2.44-0.4,4.55-1.3,5.19-3.34l0.01-0.02l0.02-0.05c3.37-10.74,5.05-18.81,5.04-24.23
			C97.3,35.67,95.47,32.69,91.85,32.36z M27.22,16.04c3.07-3.07,5.87-6.5,8.4-10.26c1.5-1.62,7.42-1.84,17.75-0.66
			c0.45,0.35,0.94,0.65,1.43,0.93c0,0,0,0,0.01,0C55.63,6.55,56.82,7,56.82,7c0.64,0.23,1.31,0.41,2.01,0.54
			c2.13,0.42,4.54,0.42,7.24,0.01c3.94-0.1,5.05,3.9,6.16,7.93c0.38,1.39,0.77,2.79,1.27,4.07c-2.14-1.39-4.31-2.95-6.46-4.79
			c-0.39-0.33-0.98-0.29-1.31,0.1c-0.33,0.39-0.29,0.98,0.1,1.31c3.01,2.58,6.06,4.62,8.98,6.39c1.75,1.07,3.9,2.34,4.53,2.64
			l-0.02-0.02l0,0c4.64,2.64,8.6,4.9,10.88,8.07c-0.41,0.55-0.94,1.1-1.58,1.64c-0.82,0.69-1.81,1.37-2.99,2.04
			c-0.33,0.02-0.7,0-1.11-0.08c-0.12-0.03-0.6-0.14-0.91-0.23c-1.43-0.44-3.25-1.34-5.44-2.71c-3.54-2.2-7.97-5.56-13.3-10.09
			l-0.01-0.01l-0.02-0.01l-0.04-0.03l-0.02-0.01l-0.58-0.5c-0.11-0.1-0.25-0.16-0.38-0.2c-3.38-0.97-7.16-1.4-10.44-1.77
			c-4.11-0.46-7.36-0.83-7.42-1.65l-0.01-0.06l0-0.01l0-0.01l-0.01-0.06l0-0.01l0-0.02l0-0.01l-0.04-0.11l0-0.01l0-0.01l-0.02-0.04
			l0-0.01l-0.01-0.02l-0.01-0.02h0c-0.52-1.05-1.21-2.38-2.17-4.17c-1.01-1.9-2.24-4.14-3.77-6.9c-0.25-0.45-0.82-0.62-1.27-0.37
			c-0.45,0.25-0.62,0.82-0.37,1.27c1.64,2.97,2.86,5.2,3.76,6.88c0.78,1.45,1.38,2.62,1.87,3.58c-4.51,4.67-8.66,7.14-11.98,9.13
			c-2.76,1.64-4.99,2.98-6.51,4.92c-0.18,0.27-0.36,0.46-0.54,0.76c-0.32,0.51-0.6,1.07-0.84,1.68c-1.7-1.01-2.52-3.44-3.4-6.05
			c-0.71-2.12-1.46-4.34-2.77-6.23C21.23,21.48,24.35,18.9,27.22,16.04z M27.66,67.37c-1.84-0.94-3.88-2.3-6.1-4.07
			c-0.7-1.7-0.38-3.52-0.07-5.26c0.37-2.07,0.72-4.04-0.34-5.94c-3.34-5.93-5.26-11.24-5.84-15.94c-0.5-4.03-0.02-7.63,1.38-10.81
			c0.48,0.8,0.88,1.66,1.24,2.56c0.24,0.62,0.36,1,0.51,1.38c0.15,0.43,0.3,0.87,0.44,1.3c1.11,3.31,2.14,6.35,5,7.44
			c1.38,4.34,1.35,8.12-0.11,11.33c-0.17,0.38-0.07,0.85,0.28,1.12c1.44,1.13,2.55,3.21,3.31,6.24c0.73,2.88,1.14,6.58,1.22,11.09
			C28.28,67.68,27.97,67.53,27.66,67.37z M86.98,57.01c-0.53,3.37-1.06,6.82-1.09,10.28c-1.55,0.16-3.24,0.17-4.68,0.17L78.7,67.5
			c-4.21-0.04-7.78,0.17-10.68,0.65c-1.91,0.31-3.55,0.74-4.92,1.28c0.49-1.38,1.02-2.64,1.57-3.8c1.43-1.33,3.14-2.45,5.14-3.36
			c2.08-0.94,4.47-1.64,7.16-2.11c0.51-0.09,0.85-0.57,0.76-1.08c-0.09-0.51-0.57-0.85-1.08-0.76c-2.85,0.5-5.38,1.25-7.61,2.25
			c-0.81,0.37-1.58,0.77-2.31,1.2c0.56-0.95,1.12-1.83,1.65-2.69c2.36-3.76,4.36-6.94,4.66-11.8c0.03-0.51-0.36-0.96-0.88-0.99
			c-0.51-0.03-0.96,0.36-0.99,0.87c-0.27,4.38-2.15,7.38-4.38,10.92l-0.53,0.85c-0.66,1.02-1.66,2.79-1.97,3.31
			c-0.42,0.76-0.84,1.56-1.25,2.41l-0.01,0.02c-0.82,1.72-1.6,3.64-2.29,5.87c-6.49,2.45-10.1,1.51-14.73,0.31
			c-1.53-0.4-3.16-0.82-5.03-1.18c-0.27-0.07-0.58-0.13-1.07-0.19c-0.35-0.06-0.7-0.11-1.07-0.16c1.79-2.66,2.88-5.2,3.27-7.6
			c0.47-2.87-0.05-5.54-1.55-8c-0.27-0.44-0.84-0.58-1.28-0.31c-0.44,0.27-0.58,0.84-0.31,1.28c1.26,2.07,1.69,4.31,1.3,6.73
			c-0.39,2.37-1.57,4.93-3.53,7.66c-0.86-0.08-1.77-0.13-2.73-0.16c0.12-0.28,0.23-0.57,0.33-0.88L34.38,68
			c0.28-0.88,0.51-1.9,0.68-3.06c0.07-0.51-0.28-0.98-0.79-1.05c-0.51-0.07-0.98,0.28-1.05,0.79c-0.15,1.05-0.35,1.96-0.6,2.74
			l-0.02,0.05c-0.18,0.54-0.37,1-0.59,1.39c-0.49-0.07-1.01-0.18-1.55-0.34c-0.06-5-0.48-9.08-1.28-12.25
			c-0.78-3.08-1.92-5.35-3.43-6.78c1.4-3.55,1.35-7.61-0.15-12.2c0.99-3.26,3.64-4.83,7.28-7.01c3.34-1.99,7.47-4.46,12-9.05
			c1.4,1.16,4.56,1.51,8.3,1.94c3.14,0.35,6.75,0.76,9.91,1.64c-0.96,2.14-2.21,4.13-3.74,5.97c-1.69,2.03-3.74,3.88-6.14,5.54
			c-0.42,0.29-0.53,0.88-0.23,1.3c0.29,0.42,0.88,0.53,1.3,0.23c2.53-1.76,4.7-3.72,6.51-5.88c1.53-1.84,2.8-3.82,3.8-5.94
			c5,4.2,9.2,7.36,12.61,9.48c1.95,1.21,3.66,2.09,5.14,2.63c0.49,0.21,1.03,0.35,1.19,0.38c0.72,0.19,1.38,0.29,1.96,0.29
			C89.04,43.82,88.04,50.24,86.98,57.01z M94.99,46.91c-0.7,4.76-2.2,10.8-4.5,18.13l-0.01,0.05l-0.01,0.02
			c-0.31,0.97-1.35,1.54-2.71,1.87c0.05-3.22,0.56-6.49,1.06-9.68c0.89-5.7,1.75-11.17,0.03-16c-0.12-0.36-0.22-0.58-0.35-0.88
			c-0.33-0.77-0.74-1.53-1.23-2.27c0.97-0.59,1.83-1.2,2.56-1.82c0.8-0.68,1.46-1.37,1.97-2.09c2.42,0.33,3.64,2.7,3.65,7.13
			c0,0.41-0.01,0.84-0.03,1.29C95.37,43.54,95.3,45.06,94.99,46.91z"/>
	</g>
</g>
</svg>
