<?xml version="1.0" encoding="utf-8"?>
<!-- Generator: Adobe Illustrator 28.1.0, SVG Export Plug-In . SVG Version: 6.00 Build 0)  -->
<svg version="1.1" id="Layer_1" xmlns="http://www.w3.org/2000/svg" xmlns:xlink="http://www.w3.org/1999/xlink" x="0px" y="0px"
	 viewBox="0 0 110.55 76.54" style="enable-background:new 0 0 110.55 76.54;" xml:space="preserve">
<style type="text/css">
	.st0{display:none;}
	.st1{display:inline;fill:none;}
</style>
<g id="Layer_2_00000073722119373351752270000017113015111246931634_" class="st0">
	<line class="st1" x1="-24.13" y1="74.54" x2="142.13" y2="74.54"/>
	<line class="st1" x1="-24.13" y1="2" x2="142.13" y2="2"/>
</g>
<path d="M-5351.56,183.13c0-4.69,1.76-9.61,2.23-11.95c0.47-2.23,1.29-10.9-7.97-10.9c-9.26,0-8.44,8.67-7.97,10.9
	c0.47,2.23,2.23,7.26,2.23,11.95c0,5.39-2.34,10.08-4.57,15.47c-2.81-7.5-6.44-13.83-6.44-21.09c0-5.62,2.11-11.6,2.69-14.3
	c0.47-2.81,1.52-13.12-9.61-13.12c-11.13,0-10.08,10.31-9.61,13.01c0.47,2.69,2.69,8.67,2.69,14.3c0,7.26-3.75,13.71-6.44,21.09
	c-2.11-5.27-4.57-10.08-4.57-15.47c0-4.69,1.76-9.61,2.23-11.95c0.47-2.23,1.29-10.9-7.97-10.9s-8.44,8.67-7.97,10.9
	s2.23,7.26,2.23,11.95c0,9.73-7.85,17.58-7.85,30c0,10.55,4.57,24.14,6.8,25.54h13.71c0.94-0.59,2.11-3.05,3.4-6.68
	c1.64,6.21,3.75,11.13,5.16,11.95h16.4c1.41-0.82,3.52-5.74,5.27-11.95c1.17,3.52,2.46,6.09,3.4,6.68h13.59
	c2.23-1.29,6.8-15,6.8-25.54C-5343.71,200.59-5351.56,192.74-5351.56,183.13z M-5361.05,165.09c0.7-0.82,1.99-1.29,3.75-1.29
	c1.76,0,3.05,0.47,3.75,1.29c1.17,1.41,1.05,4.1,0.82,5.39c-0.12,0.47-0.23,1.29-0.47,2.11c-0.23,1.05-0.59,2.23-0.94,3.63h-6.21
	c-0.23-1.41-0.59-2.58-0.94-3.63c-0.23-0.82-0.47-1.64-0.47-2.11C-5362.11,169.19-5362.23,166.49-5361.05,165.09z M-5354.96,184.3
	h-4.69c0-0.47,0.12-0.82,0.12-1.29c0-0.82-0.12-1.64-0.12-2.58h4.8c-0.12,0.82-0.12,1.64-0.12,2.58
	C-5355.08,183.48-5354.96,183.95-5354.96,184.3z M-5386.01,155.36c0.94-1.17,2.69-1.76,5.04-1.76c2.34,0,4.1,0.59,5.04,1.76
	c1.52,1.87,1.41,5.39,1.05,7.03c-0.12,0.59-0.35,1.52-0.59,2.58c-0.35,1.29-0.7,2.69-1.05,4.22h-8.91c-0.35-1.52-0.7-2.93-1.05-4.22
	c-0.23-1.05-0.59-1.99-0.59-2.58C-5387.42,160.63-5387.54,157.23-5386.01,155.36z M-5377.46,178.91h-7.03
	c0-0.47,0.12-1.05,0.12-1.52c0-1.05-0.12-1.99-0.12-3.05h7.03c-0.12,0.94-0.12,1.99-0.12,3.05
	C-5377.58,177.86-5377.58,178.44-5377.46,178.91z M-5408.39,165.09c0.7-0.82,1.99-1.29,3.75-1.29s3.05,0.47,3.75,1.29
	c1.17,1.41,1.05,4.1,0.82,5.39c-0.12,0.47-0.23,1.29-0.47,2.11c-0.23,1.05-0.59,2.23-0.94,3.63h-6.21
	c-0.35-1.41-0.59-2.58-0.94-3.63c-0.23-0.82-0.47-1.64-0.47-2.11C-5409.45,169.19-5409.56,166.49-5408.39,165.09z M-5402.3,184.3
	h-4.69c0-0.47,0-0.82,0-1.29c0-0.82,0-1.64-0.12-2.58h4.8c-0.12,0.82-0.12,1.64-0.12,2.58
	C-5402.42,183.48-5402.3,183.95-5402.3,184.3z M-5399.49,235.04h-10.31c-1.64-3.16-4.92-13.24-4.92-22.03
	c0-5.86,1.99-10.78,3.98-15.47c1.17-2.81,2.46-5.74,3.16-8.91h5.86c0.7,3.05,1.99,5.98,3.16,8.91c0.82,2.11,1.76,4.22,2.46,6.44
	c-0.7,2.93-1.17,5.98-1.17,9.37c0,3.75,0.47,7.73,1.17,11.6C-5397.14,229.41-5398.55,233.28-5399.49,235.04z M-5374.41,240.31
	h-13.12c-1.41-2.34-3.52-8.55-4.92-15.35c-0.82-3.87-1.29-7.85-1.29-11.6c0-3.4,0.59-6.44,1.41-9.37c0.94-3.28,2.23-6.44,3.52-9.49
	c1.41-3.4,2.81-6.8,3.75-10.43h8.55c0.82,3.63,2.34,7.03,3.75,10.43c1.29,3.05,2.58,6.09,3.52,9.49c0.82,2.93,1.41,5.98,1.41,9.37
	c0,3.75-0.47,7.85-1.29,11.6C-5370.78,231.76-5373.01,237.97-5374.41,240.31z M-5352.15,235.04h-10.31
	c-0.94-1.76-2.34-5.62-3.4-10.08c0.7-3.87,1.17-7.97,1.17-11.6c0-3.4-0.47-6.44-1.17-9.37c0.7-2.23,1.64-4.34,2.46-6.44
	c1.17-2.81,2.46-5.74,3.16-8.91h5.86c0.7,3.05,1.99,5.98,3.16,8.91c1.99,4.69,3.98,9.61,3.98,15.47
	C-5347.23,221.8-5350.51,231.87-5352.15,235.04z"/>
<path d="M78.25,27.43c0-3.68,1.38-7.55,1.75-9.4c0.37-1.75,1.01-8.57-6.26-8.57s-6.63,6.82-6.26,8.57c0.37,1.75,1.75,5.71,1.75,9.4
	c0,4.24-1.84,7.92-3.59,12.16c-2.21-5.9-5.07-10.87-5.07-16.58c0-4.42,1.66-9.12,2.12-11.24c0.37-2.21,1.2-10.32-7.55-10.32
	s-7.92,8.11-7.55,10.22c0.37,2.12,2.12,6.82,2.12,11.24c0,5.71-2.95,10.78-5.07,16.58c-1.66-4.14-3.59-7.92-3.59-12.16
	c0-3.68,1.38-7.55,1.75-9.4c0.37-1.75,1.01-8.57-6.26-8.57s-6.63,6.82-6.26,8.57c0.37,1.75,1.75,5.71,1.75,9.4
	c0,7.65-6.17,13.82-6.17,23.58c0,8.29,3.59,18.97,5.34,20.08h10.78c0.74-0.46,1.66-2.39,2.67-5.25c1.29,4.88,2.95,8.75,4.05,9.4
	h12.9c1.11-0.64,2.76-4.51,4.14-9.4c0.92,2.76,1.93,4.79,2.67,5.25h10.68c1.75-1.01,5.34-11.79,5.34-20.08
	C84.42,41.16,78.25,34.98,78.25,27.43z M70.79,13.25c0.55-0.64,1.57-1.01,2.95-1.01s2.39,0.37,2.95,1.01
	c0.92,1.11,0.83,3.22,0.64,4.24c-0.09,0.37-0.18,1.01-0.37,1.66c-0.18,0.83-0.46,1.75-0.74,2.86h-4.88
	c-0.18-1.11-0.46-2.03-0.74-2.86c-0.18-0.64-0.37-1.29-0.37-1.66C69.96,16.47,69.87,14.35,70.79,13.25z M75.58,28.35H71.9
	c0-0.37,0.09-0.64,0.09-1.01c0-0.64-0.09-1.29-0.09-2.03h3.78c-0.09,0.64-0.09,1.29-0.09,2.03C75.49,27.71,75.58,28.08,75.58,28.35z
	 M51.17,5.6c0.74-0.92,2.12-1.38,3.96-1.38s3.22,0.46,3.96,1.38c1.2,1.47,1.11,4.24,0.83,5.53c-0.09,0.46-0.28,1.2-0.46,2.03
	c-0.28,1.01-0.55,2.12-0.83,3.32h-7c-0.28-1.2-0.55-2.3-0.83-3.32c-0.18-0.83-0.46-1.57-0.46-2.03C50.07,9.75,49.98,7.08,51.17,5.6z
	 M57.9,24.12h-5.53c0-0.37,0.09-0.83,0.09-1.2c0-0.83-0.09-1.57-0.09-2.39h5.53c-0.09,0.74-0.09,1.57-0.09,2.39
	C57.8,23.29,57.8,23.75,57.9,24.12z M33.58,13.25c0.55-0.64,1.57-1.01,2.95-1.01s2.39,0.37,2.95,1.01c0.92,1.11,0.83,3.22,0.64,4.24
	c-0.09,0.37-0.18,1.01-0.37,1.66c-0.18,0.83-0.46,1.75-0.74,2.86h-4.88c-0.28-1.11-0.46-2.03-0.74-2.86
	c-0.18-0.64-0.37-1.29-0.37-1.66C32.75,16.47,32.66,14.35,33.58,13.25z M38.37,28.35h-3.68c0-0.37,0-0.64,0-1.01
	c0-0.64,0-1.29-0.09-2.03h3.78c-0.09,0.64-0.09,1.29-0.09,2.03C38.28,27.71,38.37,28.08,38.37,28.35z M40.58,68.24h-8.11
	c-1.29-2.49-3.87-10.41-3.87-17.32c0-4.61,1.57-8.47,3.13-12.16c0.92-2.21,1.93-4.51,2.49-7h4.61c0.55,2.39,1.57,4.7,2.49,7
	c0.64,1.66,1.38,3.32,1.93,5.07c-0.55,2.3-0.92,4.7-0.92,7.37c0,2.95,0.37,6.08,0.92,9.12C42.42,63.81,41.32,66.85,40.58,68.24z
	 M60.29,72.38H49.98c-1.11-1.84-2.76-6.72-3.87-12.07c-0.64-3.04-1.01-6.17-1.01-9.12c0-2.67,0.46-5.07,1.11-7.37
	c0.74-2.58,1.75-5.07,2.76-7.46c1.11-2.67,2.21-5.34,2.95-8.2h6.72c0.64,2.86,1.84,5.53,2.95,8.2c1.01,2.39,2.03,4.79,2.76,7.46
	c0.64,2.3,1.11,4.7,1.11,7.37c0,2.95-0.37,6.17-1.01,9.12C63.15,65.66,61.4,70.54,60.29,72.38z M77.79,68.24h-8.11
	c-0.74-1.38-1.84-4.42-2.67-7.92c0.55-3.04,0.92-6.26,0.92-9.12c0-2.67-0.37-5.07-0.92-7.37c0.55-1.75,1.29-3.41,1.93-5.07
	c0.92-2.21,1.93-4.51,2.49-7h4.61c0.55,2.39,1.57,4.7,2.49,7c1.57,3.68,3.13,7.55,3.13,12.16C81.66,57.83,79.08,65.75,77.79,68.24z"
	/>
</svg>
