<?xml version="1.0" encoding="utf-8"?>
<!-- Generator: Adobe Illustrator 28.1.0, SVG Export Plug-In . SVG Version: 6.00 Build 0)  -->
<svg version="1.1" id="Layer_1" xmlns="http://www.w3.org/2000/svg" xmlns:xlink="http://www.w3.org/1999/xlink" x="0px" y="0px"
	 viewBox="0 0 110.55 76.54" style="enable-background:new 0 0 110.55 76.54;" xml:space="preserve">
<style type="text/css">
	.st0{display:none;}
	.st1{display:inline;fill:none;}
</style>
<g id="Layer_2_00000073722119373351752270000017113015111246931634_" class="st0">
	<line class="st1" x1="-24.13" y1="74.54" x2="142.13" y2="74.54"/>
	<line class="st1" x1="-24.13" y1="2" x2="142.13" y2="2"/>
</g>
<path d="M-5351.56,183.13c0-4.69,1.76-9.61,2.23-11.95c0.47-2.23,1.29-10.9-7.97-10.9c-9.26,0-8.44,8.67-7.97,10.9
	c0.47,2.23,2.23,7.26,2.23,11.95c0,5.39-2.34,10.08-4.57,15.47c-2.81-7.5-6.44-13.83-6.44-21.09c0-5.62,2.11-11.6,2.69-14.3
	c0.47-2.81,1.52-13.12-9.61-13.12s-10.08,10.31-9.61,13.01c0.47,2.69,2.69,8.67,2.69,14.3c0,7.26-3.75,13.71-6.44,21.09
	c-2.11-5.27-4.57-10.08-4.57-15.47c0-4.69,1.76-9.61,2.23-11.95c0.47-2.23,1.29-10.9-7.97-10.9s-8.44,8.67-7.97,10.9
	s2.23,7.26,2.23,11.95c0,9.73-7.85,17.58-7.85,30c0,10.55,4.57,24.14,6.8,25.54h13.71c0.94-0.59,2.11-3.05,3.4-6.68
	c1.64,6.21,3.75,11.13,5.16,11.95h16.4c1.41-0.82,3.52-5.74,5.27-11.95c1.17,3.52,2.46,6.09,3.4,6.68h13.59
	c2.23-1.29,6.8-15,6.8-25.54C-5343.71,200.59-5351.56,192.74-5351.56,183.13z M-5361.05,165.09c0.7-0.82,1.99-1.29,3.75-1.29
	s3.05,0.47,3.75,1.29c1.17,1.41,1.05,4.1,0.82,5.39c-0.12,0.47-0.23,1.29-0.47,2.11c-0.23,1.05-0.59,2.23-0.94,3.63h-6.21
	c-0.23-1.41-0.59-2.58-0.94-3.63c-0.23-0.82-0.47-1.64-0.47-2.11C-5362.11,169.19-5362.23,166.49-5361.05,165.09z M-5354.96,184.3
	h-4.69c0-0.47,0.12-0.82,0.12-1.29c0-0.82-0.12-1.64-0.12-2.58h4.8c-0.12,0.82-0.12,1.64-0.12,2.58
	C-5355.08,183.48-5354.96,183.95-5354.96,184.3z M-5386.01,155.36c0.94-1.17,2.69-1.76,5.04-1.76c2.34,0,4.1,0.59,5.04,1.76
	c1.52,1.87,1.41,5.39,1.05,7.03c-0.12,0.59-0.35,1.52-0.59,2.58c-0.35,1.29-0.7,2.69-1.05,4.22h-8.91c-0.35-1.52-0.7-2.93-1.05-4.22
	c-0.23-1.05-0.59-1.99-0.59-2.58C-5387.42,160.63-5387.54,157.23-5386.01,155.36z M-5377.46,178.91h-7.03
	c0-0.47,0.12-1.05,0.12-1.52c0-1.05-0.12-1.99-0.12-3.05h7.03c-0.12,0.94-0.12,1.99-0.12,3.05
	C-5377.58,177.86-5377.58,178.44-5377.46,178.91z M-5408.39,165.09c0.7-0.82,1.99-1.29,3.75-1.29s3.05,0.47,3.75,1.29
	c1.17,1.41,1.05,4.1,0.82,5.39c-0.12,0.47-0.23,1.29-0.47,2.11c-0.23,1.05-0.59,2.23-0.94,3.63h-6.21
	c-0.35-1.41-0.59-2.58-0.94-3.63c-0.23-0.82-0.47-1.64-0.47-2.11C-5409.45,169.19-5409.56,166.49-5408.39,165.09z M-5402.3,184.3
	h-4.69c0-0.47,0-0.82,0-1.29c0-0.82,0-1.64-0.12-2.58h4.8c-0.12,0.82-0.12,1.64-0.12,2.58
	C-5402.42,183.48-5402.3,183.95-5402.3,184.3z M-5399.49,235.04h-10.31c-1.64-3.16-4.92-13.24-4.92-22.03
	c0-5.86,1.99-10.78,3.98-15.47c1.17-2.81,2.46-5.74,3.16-8.91h5.86c0.7,3.05,1.99,5.98,3.16,8.91c0.82,2.11,1.76,4.22,2.46,6.44
	c-0.7,2.93-1.17,5.98-1.17,9.37c0,3.75,0.47,7.73,1.17,11.6C-5397.14,229.41-5398.55,233.28-5399.49,235.04z M-5374.41,240.31
	h-13.12c-1.41-2.34-3.52-8.55-4.92-15.35c-0.82-3.87-1.29-7.85-1.29-11.6c0-3.4,0.59-6.44,1.41-9.37c0.94-3.28,2.23-6.44,3.52-9.49
	c1.41-3.4,2.81-6.8,3.75-10.43h8.55c0.82,3.63,2.34,7.03,3.75,10.43c1.29,3.05,2.58,6.09,3.52,9.49c0.82,2.93,1.41,5.98,1.41,9.37
	c0,3.75-0.47,7.85-1.29,11.6C-5370.78,231.76-5373.01,237.97-5374.41,240.31z M-5352.15,235.04h-10.31
	c-0.94-1.76-2.34-5.62-3.4-10.08c0.7-3.87,1.17-7.97,1.17-11.6c0-3.4-0.47-6.44-1.17-9.37c0.7-2.23,1.64-4.34,2.46-6.44
	c1.17-2.81,2.46-5.74,3.16-8.91h5.86c0.7,3.05,1.99,5.98,3.16,8.91c1.99,4.69,3.98,9.61,3.98,15.47
	C-5347.23,221.8-5350.51,231.87-5352.15,235.04z"/>
<g>
	<path d="M12.91,52.75c1.07,2.03,2.35,3.31,4.06,3.95c3.53,1.18,7.7-0.86,15.92-4.92c2.35-1.18,5.02-2.46,8.02-3.95
		c4.7-2.24,10.47-4.92,16.03-7.37c6.84-3.1,13.25-6.09,16.89-7.91c5.88-2.89,13.36-8.23,14.96-13.57c0.64-2.03,0.43-4.06-0.64-5.77
		c-4.17-7.27-9.62-5.24-18.7-1.82c-3.53,1.28-7.05,2.14-10.47,2.46c-0.32,1.71-0.64,3.85-0.86,5.34c0,0.53-0.43,0.86-0.96,0.86
		h-1.82c-0.53,0-1.07-0.53-0.96-1.07c0.11-1.5,0.53-3.63,0.75-5.24c-1.39-0.11-2.78-0.32-4.28-0.64c-0.43,2.67-0.75,4.7-0.86,6.09
		c0,0.53-0.53,0.86-1.07,0.86l-1.82-0.11c-0.53,0-0.96-0.53-0.96-1.07c0.21-1.92,0.53-4.49,0.96-6.52c-1.6-0.32-3.1-0.75-4.28-1.07
		c-0.53,3.95-0.86,6.2-0.86,7.48c0,0.53-0.43,0.96-0.96,0.86H39.2c-0.53,0-0.96-0.43-0.96-1.07c0.11-1.82,0.43-4.7,0.96-8.44
		c-1.5-0.43-3.31-0.75-4.92,0.11c-0.11,0-0.11,0.11-0.21,0.11c-2.24,1.28-3.63,3.95-4.6,8.66c-0.75,3.63-3.31,5.88-7.8,6.73
		C15.8,26.78,9.7,23.36,7.03,26.46c-1.07,1.28-1.92,2.78-1.92,5.02c0,5.45,4.92,15.18,7.27,19.88L12.91,52.75z M43.91,36.72
		c2.67-1.28,9.19-4.06,9.19-4.06c4.6-1.92,9.41-3.95,14-6.2c3.74-1.92,6.84-3.63,9.41-5.34c3.63-2.46,6.09-4.7,7.48-6.63
		c0.21,0.21,0.32,0.53,0.53,0.86c0.43,0.75,0.43,1.5,0.21,2.35c-1.18,3.74-7.37,8.34-12.72,10.9c-3.63,1.82-10.05,4.7-16.78,7.8
		l-0.32,0.21c-5.56,2.57-11.22,5.13-15.92,7.37c-2.24,1.07-4.28,2.03-6.09,2.99l-1.92,0.96c-6.2,3.1-10.69,5.34-12.5,4.7
		c-0.21-0.11-0.75-0.21-1.5-1.71l-0.86-1.5C21.25,47.09,36.53,40.25,43.91,36.72z"/>
	<path d="M54.38,50.61l1.5,3.21c0.64,1.28,2.03,1.71,3.31,1.18l38.48-18.38c1.28-0.64,1.71-2.03,1.18-3.31l-1.5-3.21
		c-0.64-1.28-2.03-1.71-3.31-1.18L55.55,47.3C54.38,47.94,53.84,49.44,54.38,50.61z"/>
	<path d="M103.97,64.4H92.32l-8.23-17.21l-8.12,3.85l6.41,13.36H8.74c-1.5,0-2.57,1.18-2.57,2.57v1.71c0,1.39,1.18,2.57,2.57,2.57
		h95.12c1.39,0,2.57-1.18,2.57-2.57v-1.71C106.53,65.58,105.36,64.4,103.97,64.4z"/>
</g>
</svg>
