<?xml version="1.0" encoding="utf-8"?>
<!-- Generator: Adobe Illustrator 28.1.0, SVG Export Plug-In . SVG Version: 6.00 Build 0)  -->
<svg version="1.1" id="Layer_1" xmlns="http://www.w3.org/2000/svg" xmlns:xlink="http://www.w3.org/1999/xlink" x="0px" y="0px"
	 viewBox="0 0 110.55 76.54" style="enable-background:new 0 0 110.55 76.54;" xml:space="preserve">
<style type="text/css">
	.st0{display:none;}
	.st1{display:inline;fill:none;}
	.st2{fill:none;}
	.st3{fill-rule:evenodd;clip-rule:evenodd;}
</style>
<g id="Layer_2_00000073722119373351752270000017113015111246931634_" class="st0">
	<line class="st1" x1="-24.13" y1="74.54" x2="142.13" y2="74.54"/>
	<line class="st1" x1="-24.13" y1="2" x2="142.13" y2="2"/>
</g>
<path d="M-5351.56,183.13c0-4.69,1.76-9.61,2.23-11.95c0.47-2.23,1.29-10.9-7.97-10.9c-9.26,0-8.44,8.67-7.97,10.9
	c0.47,2.23,2.23,7.26,2.23,11.95c0,5.39-2.34,10.08-4.57,15.47c-2.81-7.5-6.44-13.83-6.44-21.09c0-5.62,2.11-11.6,2.69-14.3
	c0.47-2.81,1.52-13.12-9.61-13.12s-10.08,10.31-9.61,13.01c0.47,2.69,2.69,8.67,2.69,14.3c0,7.26-3.75,13.71-6.44,21.09
	c-2.11-5.27-4.57-10.08-4.57-15.47c0-4.69,1.76-9.61,2.23-11.95c0.47-2.23,1.29-10.9-7.97-10.9s-8.44,8.67-7.97,10.9
	s2.23,7.26,2.23,11.95c0,9.73-7.85,17.58-7.85,30c0,10.55,4.57,24.14,6.8,25.54h13.71c0.94-0.59,2.11-3.05,3.4-6.68
	c1.64,6.21,3.75,11.13,5.16,11.95h16.4c1.41-0.82,3.52-5.74,5.27-11.95c1.17,3.52,2.46,6.09,3.4,6.68h13.59
	c2.23-1.29,6.8-15,6.8-25.54C-5343.71,200.59-5351.56,192.74-5351.56,183.13z M-5361.05,165.09c0.7-0.82,1.99-1.29,3.75-1.29
	s3.05,0.47,3.75,1.29c1.17,1.41,1.05,4.1,0.82,5.39c-0.12,0.47-0.23,1.29-0.47,2.11c-0.23,1.05-0.59,2.23-0.94,3.63h-6.21
	c-0.23-1.41-0.59-2.58-0.94-3.63c-0.23-0.82-0.47-1.64-0.47-2.11C-5362.11,169.19-5362.23,166.49-5361.05,165.09z M-5354.96,184.3
	h-4.69c0-0.47,0.12-0.82,0.12-1.29c0-0.82-0.12-1.64-0.12-2.58h4.8c-0.12,0.82-0.12,1.64-0.12,2.58
	C-5355.08,183.48-5354.96,183.95-5354.96,184.3z M-5386.01,155.36c0.94-1.17,2.69-1.76,5.04-1.76c2.34,0,4.1,0.59,5.04,1.76
	c1.52,1.87,1.41,5.39,1.05,7.03c-0.12,0.59-0.35,1.52-0.59,2.58c-0.35,1.29-0.7,2.69-1.05,4.22h-8.91c-0.35-1.52-0.7-2.93-1.05-4.22
	c-0.23-1.05-0.59-1.99-0.59-2.58C-5387.42,160.63-5387.54,157.23-5386.01,155.36z M-5377.46,178.91h-7.03
	c0-0.47,0.12-1.05,0.12-1.52c0-1.05-0.12-1.99-0.12-3.05h7.03c-0.12,0.94-0.12,1.99-0.12,3.05
	C-5377.58,177.86-5377.58,178.44-5377.46,178.91z M-5408.39,165.09c0.7-0.82,1.99-1.29,3.75-1.29s3.05,0.47,3.75,1.29
	c1.17,1.41,1.05,4.1,0.82,5.39c-0.12,0.47-0.23,1.29-0.47,2.11c-0.23,1.05-0.59,2.23-0.94,3.63h-6.21
	c-0.35-1.41-0.59-2.58-0.94-3.63c-0.23-0.82-0.47-1.64-0.47-2.11C-5409.45,169.19-5409.56,166.49-5408.39,165.09z M-5402.3,184.3
	h-4.69c0-0.47,0-0.82,0-1.29c0-0.82,0-1.64-0.12-2.58h4.8c-0.12,0.82-0.12,1.64-0.12,2.58
	C-5402.42,183.48-5402.3,183.95-5402.3,184.3z M-5399.49,235.04h-10.31c-1.64-3.16-4.92-13.24-4.92-22.03
	c0-5.86,1.99-10.78,3.98-15.47c1.17-2.81,2.46-5.74,3.16-8.91h5.86c0.7,3.05,1.99,5.98,3.16,8.91c0.82,2.11,1.76,4.22,2.46,6.44
	c-0.7,2.93-1.17,5.98-1.17,9.37c0,3.75,0.47,7.73,1.17,11.6C-5397.14,229.41-5398.55,233.28-5399.49,235.04z M-5374.41,240.31
	h-13.12c-1.41-2.34-3.52-8.55-4.92-15.35c-0.82-3.87-1.29-7.85-1.29-11.6c0-3.4,0.59-6.44,1.41-9.37c0.94-3.28,2.23-6.44,3.52-9.49
	c1.41-3.4,2.81-6.8,3.75-10.43h8.55c0.82,3.63,2.34,7.03,3.75,10.43c1.29,3.05,2.58,6.09,3.52,9.49c0.82,2.93,1.41,5.98,1.41,9.37
	c0,3.75-0.47,7.85-1.29,11.6C-5370.78,231.76-5373.01,237.97-5374.41,240.31z M-5352.15,235.04h-10.31
	c-0.94-1.76-2.34-5.62-3.4-10.08c0.7-3.87,1.17-7.97,1.17-11.6c0-3.4-0.47-6.44-1.17-9.37c0.7-2.23,1.64-4.34,2.46-6.44
	c1.17-2.81,2.46-5.74,3.16-8.91h5.86c0.7,3.05,1.99,5.98,3.16,8.91c1.99,4.69,3.98,9.61,3.98,15.47
	C-5347.23,221.8-5350.51,231.87-5352.15,235.04z"/>
<g>
	<path class="st2" d="M71.52,19.91c0.82,0.48,1.11,1.53,0.63,2.35c-0.18,0.32-0.39,0.68-0.62,1.08c1.19,0,2.34-0.61,2.97-1.71
		c1.5-2.6,3.66-6.34,5.16-8.94c0.46-0.79,0.58-1.73,0.34-2.61c-0.24-0.88-0.81-1.63-1.6-2.09c-1.65-0.95-3.75-0.39-4.7,1.26
		c-1.5,2.6-3.66,6.34-5.16,8.94c-0.46,0.79-0.58,1.73-0.34,2.61c0.08,0.29,0.2,0.56,0.35,0.82c0.23-0.39,0.44-0.76,0.62-1.08
		C69.64,19.72,70.69,19.44,71.52,19.91z"/>
	<path class="st2" d="M44.4,59.02c-0.67,0.67-1.76,0.67-2.43,0c-0.67-0.67-0.67-1.76,0-2.43c0.26-0.26,0.56-0.56,0.88-0.88
		c-1.15-0.3-2.41-0.02-3.31,0.88c-2.12,2.12-5.18,5.18-7.3,7.3c-0.65,0.65-1.01,1.52-1.01,2.43s0.36,1.79,1.01,2.43
		c1.34,1.34,3.52,1.34,4.87,0c2.12-2.12,5.18-5.18,7.3-7.3c0.65-0.65,1.01-1.52,1.01-2.43c0-0.3-0.05-0.59-0.13-0.88
		C44.96,58.46,44.66,58.76,44.4,59.02z"/>
	<path class="st3" d="M59,51.72c0,0,5.01-5.01,6.21-6.21c0.05-0.05,0.07-0.13,0.05-0.2c-0.02-0.07-0.07-0.13-0.15-0.15
		c-0.44-0.12-1.18-0.32-1.46-0.39c-0.07-0.02-0.13-0.07-0.15-0.15c-0.08-0.28-0.27-1.02-0.39-1.46c-0.02-0.07-0.07-0.13-0.15-0.15
		c-0.07-0.02-0.15,0-0.2,0.05c-1.19,1.19-6.21,6.21-6.21,6.21c-0.9,0.9-2.17,1.18-3.31,0.88c0.32-0.32,0.62-0.62,0.88-0.88
		c0.67-0.67,0.67-1.76,0-2.43c-0.67-0.67-1.76-0.67-2.43,0c-0.26,0.26-0.56,0.56-0.88,0.88c-0.08-0.29-0.13-0.58-0.13-0.88
		c0-0.91,0.36-1.79,1.01-2.43c0,0,0.54-0.54,0.76-0.76c0.05-0.05,0.07-0.13,0.05-0.2c-0.09-0.34-0.36-1.35-0.45-1.69
		c-0.02-0.07-0.07-0.13-0.15-0.15c-0.34-0.09-1.35-0.36-1.69-0.45c-0.07-0.02-0.15,0-0.2,0.05c-0.21,0.21-0.76,0.76-0.76,0.76
		c-2.27,2.27-2.61,5.72-1.06,8.36c-0.9,0.9-1.85,1.85-2.75,2.75c-2.64-1.56-6.09-1.21-8.36,1.06c-2.29,2.29-5.01,5.01-7.3,7.3
		c-2.69,2.69-2.69,7.05,0,9.73c2.69,2.69,7.05,2.69,9.73,0c2.29-2.29,5.01-5.01,7.3-7.3c2.27-2.27,2.61-5.72,1.06-8.36
		c0.9-0.9,1.85-1.85,2.75-2.75C53.28,54.33,56.74,53.99,59,51.72z M44.4,61.45c-2.12,2.12-5.18,5.18-7.3,7.3
		c-1.34,1.34-3.52,1.34-4.87,0c-0.65-0.65-1.01-1.52-1.01-2.43s0.36-1.79,1.01-2.43c2.12-2.12,5.18-5.18,7.3-7.3
		c0.9-0.9,2.17-1.18,3.31-0.88c-0.32,0.32-0.62,0.62-0.88,0.88c-0.67,0.67-0.67,1.76,0,2.43c0.67,0.67,1.76,0.67,2.43,0
		c0.26-0.26,0.56-0.56,0.88-0.88c0.08,0.29,0.13,0.58,0.13,0.88C45.41,59.93,45.05,60.81,44.4,61.45z"/>
	<path class="st3" d="M67.73,29.91c0.64-1.11,1.31-2.27,1.95-3.37c2.95,0.82,6.2-0.41,7.8-3.18c1.62-2.8,3.54-6.14,5.16-8.94
		c1.9-3.29,0.77-7.5-2.52-9.4c-3.29-1.9-7.5-0.77-9.4,2.52c-1.62,2.8-3.54,6.14-5.16,8.94c-1.6,2.78-1.04,6.2,1.14,8.35
		c-0.64,1.11-1.31,2.27-1.95,3.37c-2.95-0.82-6.2,0.41-7.8,3.18c0,0-3.54,6.14-4.39,7.6c-0.04,0.06-0.04,0.14,0,0.21
		c0.04,0.06,0.11,0.1,0.18,0.1c0.46,0,1.22,0,1.51,0c0.07,0,0.14,0.04,0.18,0.1c0.15,0.25,0.53,0.91,0.75,1.31
		c0.04,0.06,0.11,0.1,0.18,0.1c0.07,0,0.14-0.04,0.18-0.1c0.84-1.46,4.39-7.6,4.39-7.6c0.64-1.1,1.79-1.7,2.97-1.71
		c-0.23,0.39-0.44,0.76-0.62,1.08c-0.47,0.82-0.19,1.87,0.63,2.35c0,0,0,0,0,0c0.82,0.47,1.88,0.19,2.35-0.63
		c0.18-0.32,0.39-0.68,0.62-1.08c0.15,0.26,0.27,0.53,0.35,0.82c0.24,0.88,0.11,1.82-0.34,2.61c0,0-0.38,0.66-0.53,0.93
		c-0.04,0.06-0.04,0.14,0,0.21c0.18,0.31,0.7,1.21,0.87,1.51c0.04,0.06,0.1,0.1,0.18,0.1c0.35,0,1.4,0,1.75,0
		c0.07,0,0.14-0.04,0.18-0.1c0.15-0.26,0.53-0.93,0.53-0.93C70.48,35.48,69.92,32.05,67.73,29.91z M68.19,20.8
		c-0.24-0.88-0.11-1.82,0.34-2.61c1.5-2.6,3.66-6.34,5.16-8.94c0.95-1.65,3.06-2.21,4.7-1.26c0.79,0.46,1.37,1.21,1.6,2.09
		c0.24,0.88,0.11,1.82-0.34,2.61c-1.5,2.6-3.66,6.34-5.16,8.94c-0.64,1.1-1.79,1.7-2.97,1.71c0.23-0.39,0.44-0.76,0.62-1.08
		c0.48-0.82,0.19-1.88-0.63-2.35c-0.82-0.47-1.87-0.19-2.35,0.63c-0.18,0.32-0.39,0.68-0.62,1.08C68.4,21.36,68.27,21.09,68.19,20.8
		z"/>
	<path d="M49.05,28.42c0.32,0.81,1.1,1.3,1.93,1.3c0.26,0,0.52-0.05,0.77-0.15c1.06-0.43,1.58-1.63,1.16-2.7
		c-1.56-3.91-4.61-10.76-4.73-11.05c-0.47-1.05-1.69-1.52-2.74-1.05c-1.05,0.47-1.52,1.69-1.05,2.74
		C44.41,17.58,47.52,24.58,49.05,28.42z"/>
	<path d="M60.72,59.35c-0.47-1.05-1.69-1.52-2.74-1.05c-1.05,0.47-1.52,1.69-1.05,2.74c0.03,0.07,3.14,7.07,4.67,10.91
		c0.32,0.81,1.1,1.3,1.93,1.3c0.26,0,0.52-0.05,0.77-0.15c1.06-0.43,1.58-1.63,1.15-2.7C63.89,66.49,60.85,59.64,60.72,59.35z"/>
	<path d="M28.39,38.35c0.06,0.04,6.57,4.08,9.99,6.39c0.36,0.24,0.76,0.36,1.16,0.36c0.67,0,1.32-0.32,1.72-0.91
		c0.64-0.95,0.39-2.24-0.56-2.88c-3.49-2.36-9.86-6.31-10.13-6.48c-0.97-0.61-2.25-0.31-2.86,0.67
		C27.12,36.46,27.42,37.74,28.39,38.35z"/>
	<path d="M82.65,58.55c-3.49-2.36-9.86-6.31-10.12-6.48c-0.98-0.6-2.25-0.31-2.86,0.67c-0.6,0.97-0.31,2.25,0.67,2.86
		c0.07,0.04,6.57,4.08,9.99,6.39c0.36,0.24,0.76,0.36,1.16,0.36c0.67,0,1.32-0.32,1.72-0.91C83.85,60.48,83.6,59.19,82.65,58.55z"/>
</g>
</svg>
