<?xml version="1.0" encoding="utf-8"?>
<!-- Generator: Adobe Illustrator 28.1.0, SVG Export Plug-In . SVG Version: 6.00 Build 0)  -->
<svg version="1.1" id="Layer_1" xmlns="http://www.w3.org/2000/svg" xmlns:xlink="http://www.w3.org/1999/xlink" x="0px" y="0px"
	 viewBox="0 0 110.55 76.54" style="enable-background:new 0 0 110.55 76.54;" xml:space="preserve">
<style type="text/css">
	.st0{display:none;}
	.st1{display:inline;fill:none;}
</style>
<g id="Layer_2_00000073722119373351752270000017113015111246931634_" class="st0">
	<line class="st1" x1="-24.13" y1="74.54" x2="142.13" y2="74.54"/>
	<line class="st1" x1="-24.13" y1="2" x2="142.13" y2="2"/>
</g>
<path d="M-5351.56,183.13c0-4.69,1.76-9.61,2.23-11.95c0.47-2.23,1.29-10.9-7.97-10.9c-9.26,0-8.44,8.67-7.97,10.9
	c0.47,2.23,2.23,7.26,2.23,11.95c0,5.39-2.34,10.08-4.57,15.47c-2.81-7.5-6.44-13.83-6.44-21.09c0-5.62,2.11-11.6,2.69-14.3
	c0.47-2.81,1.52-13.12-9.61-13.12s-10.08,10.31-9.61,13.01c0.47,2.69,2.69,8.67,2.69,14.3c0,7.26-3.75,13.71-6.44,21.09
	c-2.11-5.27-4.57-10.08-4.57-15.47c0-4.69,1.76-9.61,2.23-11.95c0.47-2.23,1.29-10.9-7.97-10.9s-8.44,8.67-7.97,10.9
	s2.23,7.26,2.23,11.95c0,9.73-7.85,17.58-7.85,30c0,10.55,4.57,24.14,6.8,25.54h13.71c0.94-0.59,2.11-3.05,3.4-6.68
	c1.64,6.21,3.75,11.13,5.16,11.95h16.4c1.41-0.82,3.52-5.74,5.27-11.95c1.17,3.52,2.46,6.09,3.4,6.68h13.59
	c2.23-1.29,6.8-15,6.8-25.54C-5343.71,200.59-5351.56,192.74-5351.56,183.13z M-5361.05,165.09c0.7-0.82,1.99-1.29,3.75-1.29
	s3.05,0.47,3.75,1.29c1.17,1.41,1.05,4.1,0.82,5.39c-0.12,0.47-0.23,1.29-0.47,2.11c-0.23,1.05-0.59,2.23-0.94,3.63h-6.21
	c-0.23-1.41-0.59-2.58-0.94-3.63c-0.23-0.82-0.47-1.64-0.47-2.11C-5362.11,169.19-5362.23,166.49-5361.05,165.09z M-5354.96,184.3
	h-4.69c0-0.47,0.12-0.82,0.12-1.29c0-0.82-0.12-1.64-0.12-2.58h4.8c-0.12,0.82-0.12,1.64-0.12,2.58
	C-5355.08,183.48-5354.96,183.95-5354.96,184.3z M-5386.01,155.36c0.94-1.17,2.69-1.76,5.04-1.76c2.34,0,4.1,0.59,5.04,1.76
	c1.52,1.87,1.41,5.39,1.05,7.03c-0.12,0.59-0.35,1.52-0.59,2.58c-0.35,1.29-0.7,2.69-1.05,4.22h-8.91c-0.35-1.52-0.7-2.93-1.05-4.22
	c-0.23-1.05-0.59-1.99-0.59-2.58C-5387.42,160.63-5387.54,157.23-5386.01,155.36z M-5377.46,178.91h-7.03
	c0-0.47,0.12-1.05,0.12-1.52c0-1.05-0.12-1.99-0.12-3.05h7.03c-0.12,0.94-0.12,1.99-0.12,3.05
	C-5377.58,177.86-5377.58,178.44-5377.46,178.91z M-5408.39,165.09c0.7-0.82,1.99-1.29,3.75-1.29s3.05,0.47,3.75,1.29
	c1.17,1.41,1.05,4.1,0.82,5.39c-0.12,0.47-0.23,1.29-0.47,2.11c-0.23,1.05-0.59,2.23-0.94,3.63h-6.21
	c-0.35-1.41-0.59-2.58-0.94-3.63c-0.23-0.82-0.47-1.64-0.47-2.11C-5409.45,169.19-5409.56,166.49-5408.39,165.09z M-5402.3,184.3
	h-4.69c0-0.47,0-0.82,0-1.29c0-0.82,0-1.64-0.12-2.58h4.8c-0.12,0.82-0.12,1.64-0.12,2.58
	C-5402.42,183.48-5402.3,183.95-5402.3,184.3z M-5399.49,235.04h-10.31c-1.64-3.16-4.92-13.24-4.92-22.03
	c0-5.86,1.99-10.78,3.98-15.47c1.17-2.81,2.46-5.74,3.16-8.91h5.86c0.7,3.05,1.99,5.98,3.16,8.91c0.82,2.11,1.76,4.22,2.46,6.44
	c-0.7,2.93-1.17,5.98-1.17,9.37c0,3.75,0.47,7.73,1.17,11.6C-5397.14,229.41-5398.55,233.28-5399.49,235.04z M-5374.41,240.31
	h-13.12c-1.41-2.34-3.52-8.55-4.92-15.35c-0.82-3.87-1.29-7.85-1.29-11.6c0-3.4,0.59-6.44,1.41-9.37c0.94-3.28,2.23-6.44,3.52-9.49
	c1.41-3.4,2.81-6.8,3.75-10.43h8.55c0.82,3.63,2.34,7.03,3.75,10.43c1.29,3.05,2.58,6.09,3.52,9.49c0.82,2.93,1.41,5.98,1.41,9.37
	c0,3.75-0.47,7.85-1.29,11.6C-5370.78,231.76-5373.01,237.97-5374.41,240.31z M-5352.15,235.04h-10.31
	c-0.94-1.76-2.34-5.62-3.4-10.08c0.7-3.87,1.17-7.97,1.17-11.6c0-3.4-0.47-6.44-1.17-9.37c0.7-2.23,1.64-4.34,2.46-6.44
	c1.17-2.81,2.46-5.74,3.16-8.91h5.86c0.7,3.05,1.99,5.98,3.16,8.91c1.99,4.69,3.98,9.61,3.98,15.47
	C-5347.23,221.8-5350.51,231.87-5352.15,235.04z"/>
<g>
	<path d="M55.83,3.27c-19.45,0-35.22,15.77-35.22,35.22s15.77,35.22,35.22,35.22s35.22-15.77,35.22-35.22S75.28,3.27,55.83,3.27z
		 M55.83,71.36c-18.15,0-32.87-14.72-32.87-32.87S37.67,5.62,55.83,5.62S88.7,20.34,88.7,38.49S73.98,71.36,55.83,71.36z"/>
	<path d="M55.83,7.97c-16.86,0-30.52,13.67-30.52,30.52s13.67,30.52,30.52,30.52s30.52-13.67,30.52-30.52S72.68,7.97,55.83,7.97z
		 M57,66.67v-3.52c0-0.65-0.53-1.17-1.17-1.17s-1.17,0.53-1.17,1.17v3.52c-14.66-0.6-26.4-12.34-27-27h3.52
		c0.65,0,1.17-0.53,1.17-1.17s-0.53-1.17-1.17-1.17h-3.52c0.6-14.66,12.34-26.4,27-27v3.52c0,0.65,0.53,1.17,1.17,1.17
		S57,14.49,57,13.84v-3.52c14.66,0.6,26.4,12.34,27,27h-3.52c-0.65,0-1.17,0.53-1.17,1.17s0.53,1.17,1.17,1.17H84
		C83.4,54.32,71.66,66.07,57,66.67z"/>
	<circle cx="38.39" cy="21.06" r="1.17"/>
	<circle cx="38.39" cy="55.92" r="1.17"/>
	<circle cx="73.26" cy="55.92" r="1.17"/>
	<circle cx="73.26" cy="21.06" r="1.17"/>
	<path d="M55.94,31.45c0,0.65,0.53,1.17,1.17,1.17s1.17-0.53,1.17-1.17c0.01-1.47-0.54-2.89-1.55-3.96
		c-1.38-1.37-1.39-3.6-0.02-4.98c0.01-0.01,0.01-0.01,0.02-0.02c1.01-1.07,1.56-2.49,1.55-3.96c0-0.65-0.53-1.17-1.17-1.17
		s-1.17,0.53-1.17,1.17c0,0.94-0.37,1.84-1.03,2.5c-2.04,2.24-2.04,5.67,0,7.91C55.57,29.61,55.95,30.51,55.94,31.45z"/>
	<path d="M48,27.93c0.58,0.5,0.76,0.72,0.76,1.17c0,0.65,0.53,1.17,1.17,1.17c0.65,0,1.17-0.53,1.17-1.17
		c-0.03-1.16-0.6-2.25-1.54-2.93c-0.58-0.5-0.76-0.72-0.76-1.17s0.19-0.67,0.76-1.17c0.95-0.68,1.53-1.77,1.56-2.93
		c0-0.65-0.53-1.17-1.17-1.17c-0.65,0-1.17,0.53-1.17,1.17c0,0.46-0.19,0.67-0.76,1.17c-1.62,1.08-2.06,3.26-0.99,4.88
		c0.26,0.39,0.6,0.73,0.99,0.99H48z"/>
	<path d="M62.08,27.93c0.58,0.5,0.76,0.72,0.76,1.17c0,0.65,0.53,1.17,1.17,1.17c0.65,0,1.17-0.53,1.17-1.17
		c-0.03-1.16-0.6-2.25-1.54-2.93c-0.58-0.5-0.76-0.72-0.76-1.17s0.19-0.67,0.76-1.17c0.95-0.68,1.53-1.77,1.56-2.93
		c0-0.65-0.53-1.17-1.17-1.17c-0.65,0-1.17,0.53-1.17,1.17c0,0.46-0.19,0.67-0.76,1.17c-1.62,1.08-2.06,3.26-0.99,4.88
		c0.26,0.39,0.6,0.73,0.99,0.99H62.08z"/>
	<path d="M73.43,37.32h-4.7v-1.17c0-0.65-0.53-1.17-1.17-1.17H44.09c-0.65,0-1.17,0.53-1.17,1.17v7.04c0,3.19,1.45,6.21,3.93,8.22
		h-3.93c-0.65,0-1.17,0.53-1.17,1.17s0.53,1.17,1.17,1.17h25.83c0.65,0,1.17-0.53,1.17-1.17s-0.53-1.17-1.17-1.17h-3.94
		c1.84-1.49,3.13-3.56,3.65-5.87h2.64c1.94,0,3.52-1.58,3.52-3.52v-3.52C74.61,37.84,74.08,37.32,73.43,37.32z M66.39,43.19
		c0,4.54-3.68,8.22-8.22,8.22h-4.7c-4.54,0-8.22-3.68-8.22-8.22v-5.87h21.13V43.19z M72.26,42.01c0,0.65-0.53,1.17-1.17,1.17h-2.35
		v-3.52h3.52V42.01z"/>
</g>
</svg>
