<?xml version="1.0" encoding="utf-8"?>
<!-- Generator: Adobe Illustrator 28.1.0, SVG Export Plug-In . SVG Version: 6.00 Build 0)  -->
<svg version="1.1" xmlns="http://www.w3.org/2000/svg" xmlns:xlink="http://www.w3.org/1999/xlink" x="0px" y="0px"
	 viewBox="0 0 110.55 76.54" style="enable-background:new 0 0 110.55 76.54;" xml:space="preserve">
<style type="text/css">
	.st0{display:none;}
	.st1{display:inline;fill:#010101;}
	.st2{fill:#010101;}
</style>
<g id="Layer_2" class="st0">
	<line class="st1" x1="-24.13" y1="74.54" x2="142.13" y2="74.54"/>
	<line class="st1" x1="-24.13" y1="2" x2="142.13" y2="2"/>
</g>
<g id="Layer_1">
	<g>
		<path class="st2" d="M75.36,31.3c1.88,0,3.41-1.53,3.41-3.41c0-1.88-1.53-3.41-3.41-3.41c-1.88,0-3.42,1.53-3.42,3.41
			C71.94,29.77,73.48,31.3,75.36,31.3z M75.36,26.75c0.63,0,1.14,0.51,1.14,1.14c0,0.63-0.51,1.14-1.14,1.14
			c-0.63,0-1.14-0.51-1.14-1.14C74.22,27.26,74.73,26.75,75.36,26.75z"/>
		<circle class="st2" cx="71.37" cy="34.14" r="1.71"/>
		<path class="st2" d="M79.73,45.42c-5.42-3.26-13.58-9.02-14.16-10.14c0,0-0.3-0.61-0.74-1.53c-1.38,1.63-3.07,2.98-5.06,3.95
			c-1.29,0.63-2.64,1.07-4.04,1.32l-0.13,0.3c0.24,0.3,0.44,0.64,0.58,1c0.57,0.37,1.03,0.9,1.33,1.5c1.65,0.93,2.37,2.94,1.64,4.71
			l-1.05,2.55c-0.02,0.05-0.04,0.1-0.07,0.15l-0.82,2c-0.69,1.68-1.91,2.75-2.8,3.54c-0.22,0.19-0.57,0.5-0.7,0.65
			c-0.28,0.6-0.76,1.05-1.35,1.29c-0.01,0.03-0.01,0.07-0.02,0.1l-4.79,15.47h-2.38l4.87-15.72l-5.02-2.34
			c-0.02-0.01-0.03-0.02-0.05-0.03l-9.67,12.99c-0.22,0.3-0.57,0.46-0.91,0.46c-0.24,0-0.47-0.07-0.68-0.23
			c-0.5-0.38-0.61-1.09-0.23-1.59l9.75-13.09c0.1-0.13,0.22-0.23,0.35-0.31c-0.11-0.5-0.08-1.03,0.13-1.54
			c0.31-0.76,0.27-1.07,0.11-2.1c-0.13-0.89-0.32-2.1-0.21-3.81c0-0.63,0.04-1.3,0.07-1.89c0.01-0.17-0.02-0.57-0.05-0.9
			c-0.1-1.26-0.27-3.57,0.96-4.99c-1.36-0.71-2.65-1.59-3.86-2.61c-0.22,0.46-0.35,0.73-0.35,0.73c-0.57,1.12-9.87,6.89-15.29,10.14
			c-2.15,1.29-3.79,4.55-3.79,7.06v17.5c0,2.51,2.04,4.55,4.55,4.55h20.15h0.01H80.1c2.51,0,4.55-2.04,4.55-4.55l-1.14-17.5
			C83.51,49.97,81.88,46.71,79.73,45.42z M31.55,71.12c-0.63,0-1.14-0.51-1.14-1.14s0.51-1.14,1.14-1.14c0.63,0,1.14,0.51,1.14,1.14
			S32.18,71.12,31.55,71.12z"/>
		<path class="st2" d="M90.85,7.75c-0.36-2.33-1.91-4.06-4.22-4.68C85.6,2.8,84.54,2.84,83.5,3.21c-0.74-0.69-1.67-1.16-2.76-1.39
			L80.68,1.8c-0.78-0.12-1.27-0.13-1.96,0.01c-1.2,0.27-2.2,0.82-2.97,1.63c-0.44,0.46-0.77,0.93-1.02,1.43
			c-2.2,0.19-4.15,1.77-4.83,3.96c-0.36,1.18-0.34,2.34,0.07,3.44c-0.97,1.54-1.14,3.45-0.45,5.16c0.71,1.77,2.22,3,4.12,3.4
			c0.5,0.1,1,0.13,1.5,0.08c0.87,1.25,2.1,2.05,3.58,2.31c0.35,0.06,0.7,0.1,1.03,0.1c1.09,0,2.11-0.32,3.03-0.96
			c0.81,0.42,1.7,0.64,2.6,0.64c2.83,0,5.17-2.05,5.57-4.87l0-0.01c0.02-0.12,0.04-0.19,0.05-0.23c0.03-0.02,0.08-0.05,0.15-0.09
			c1.84-1,2.87-2.64,2.97-4.72C94.24,10.82,92.91,8.68,90.85,7.75z M77.76,10.11c-1.21,0.35-1.37,1.5-1.37,1.51
			c-0.07,0.58-0.56,1-1.13,1c-0.05,0-0.1,0-0.14-0.01c-0.62-0.08-1.07-0.65-0.99-1.27c0.12-0.98,0.89-2.8,2.99-3.42
			c0.6-0.17,1.24,0.17,1.41,0.77C78.71,9.3,78.37,9.93,77.76,10.11z M82.18,10.82c-0.63,0-1.14-0.51-1.14-1.14s0.51-1.14,1.14-1.14
			c0.63,0,1.14,0.51,1.14,1.14S82.81,10.82,82.18,10.82z"/>
		<path class="st2" d="M54.91,31.42c-0.18-0.08-0.37-0.12-0.55-0.12c-0.53,0-1.03,0.33-1.26,0.9l-1.96,4.67l-2.08,4.95
			c-0.1-0.94-0.25-1.79-0.46-2.48c-0.13-0.42-0.42-0.76-0.79-0.93c-0.19-0.09-0.38-0.13-0.58-0.13c-0.14,0-0.27,0.02-0.41,0.06
			c-1.55,0.48-0.79,3.55-0.86,4.83c-0.03,0.62-0.07,1.27-0.06,1.84c-0.1,1.51,0.05,2.56,0.18,3.4c0.17,1.14,0.29,1.96-0.26,3.3
			c-0.06,0.15,0.01,0.34,0.15,0.41l5.29,2.47c0.04,0.02,0.08,0.03,0.12,0.03c0.11,0,0.22-0.07,0.27-0.18
			c0.19-0.46,0.68-0.89,1.26-1.4c0.8-0.7,1.71-1.5,2.2-2.69l0.85-2.08c0.01-0.02,0.02-0.04,0.03-0.06l1.05-2.57
			c0.3-0.72-0.05-1.59-0.77-1.92c-0.19-0.09-0.39-0.13-0.59-0.13c-0.02,0-0.04,0-0.05,0c0-0.03,0-0.07-0.01-0.1
			c0-0.57-0.32-1.13-0.87-1.39c-0.19-0.09-0.4-0.13-0.6-0.13c0,0,0,0,0,0c0.13-0.66-0.21-1.36-0.84-1.66
			c-0.17-0.08-0.36-0.13-0.55-0.13l2.88-6.8C55.95,32.62,55.63,31.76,54.91,31.42z"/>
		<path class="st2" d="M56.83,36.4c0.66-0.2,1.31-0.45,1.95-0.76c7.64-3.72,10.31-14.03,5.96-23.03c-3.29-6.79-9.64-10.9-15.84-10.9
			c-2.01,0-4.01,0.43-5.88,1.34c-7.64,3.72-10.31,14.03-5.96,23.03c2.36,4.88,6.31,8.37,10.64,9.94c0.37,0.05,0.73,0.15,1.08,0.31
			c0.03,0.01,0.06,0.03,0.1,0.05l2.12-5.05c0.58-1.41,1.9-2.32,3.37-2.32c0.53,0,1.04,0.11,1.51,0.34c1.82,0.85,2.65,3,1.86,4.91
			L56.83,36.4z"/>
	</g>
	<path class="st2" d="M-24.13,74.54"/>
	<path class="st2" d="M-24.13,2"/>
</g>
</svg>
