<?xml version="1.0" encoding="utf-8"?>
<!-- Generator: Adobe Illustrator 28.1.0, SVG Export Plug-In . SVG Version: 6.00 Build 0)  -->
<svg version="1.1" xmlns="http://www.w3.org/2000/svg" xmlns:xlink="http://www.w3.org/1999/xlink" x="0px" y="0px"
	 viewBox="0 0 110.55 76.54" style="enable-background:new 0 0 110.55 76.54;" xml:space="preserve">
<style type="text/css">
	.st0{display:none;}
	.st1{display:inline;fill:#010101;}
	.st2{fill:#010101;}
</style>
<g id="Layer_2" class="st0">
	<line class="st1" x1="-24.13" y1="74.54" x2="142.13" y2="74.54"/>
	<line class="st1" x1="-24.13" y1="2" x2="142.13" y2="2"/>
</g>
<g id="Layer_1">
	<path class="st2" d="M-24.13,74.54"/>
	<path class="st2" d="M-24.13,2"/>
	<path class="st2" d="M91.82,1.89c-1-1-2.61-1-3.6,0L74.78,15.33c-2.58-1.52-5.12-1.75-7.7-1.08c0.08-9.13-4.44-13.11-10.18-13.11
		c-5.72,0-10.27,3.95-10.18,13.11c-7.53-1.96-14.36,4.79-12.39,12.39c-9.22-0.08-13.11,4.52-13.11,10.18
		c0,5.64,3.86,10.27,13.11,10.18c-0.67,2.58-0.45,5.12,1.08,7.7l-5.81,5.81c-5.19-2.48-10.92,1.39-10.92,6.88
		c0,4.22,3.43,7.65,7.65,7.65c5.48,0,9.36-5.73,6.88-10.92L39,58.31c2.58,1.52,5.12,1.75,7.7,1.08
		c-0.08,9.13,4.44,13.11,10.18,13.11c5.72,0,10.27-3.95,10.18-13.11c7.58,1.97,14.34-4.84,12.39-12.39
		c9.22,0.08,13.11-4.52,13.11-10.18c0-5.64-3.86-10.27-13.11-10.18c0.67-2.58,0.45-5.12-1.08-7.7L91.82,5.49
		C92.81,4.5,92.81,2.88,91.82,1.89z M26.31,69.95c-1.41,0-2.55-1.14-2.55-2.55s1.14-2.55,2.55-2.55c1.41,0,2.55,1.14,2.55,2.55
		S27.71,69.95,26.31,69.95z M33.95,41.91c-7.65,0-7.65-3.84-7.65-5.1s0-5.1,7.65-5.1c4.14,0,9.16,0.74,13.31,1.89
		c-0.76,2.28-0.75,4.17,0,6.41C43.11,41.18,38.09,41.91,33.95,41.91z M47.1,53.69c-4.65,3.32-10.43-2.43-7.09-7.09
		c3.02-0.37,6.09-0.97,8.83-1.74C48.07,47.6,47.46,50.67,47.1,53.69z M40.01,27.03c-3.34-4.66,2.44-10.4,7.09-7.09
		c0.37,3.02,0.97,6.09,1.74,8.83C46.1,28,43.04,27.39,40.01,27.03z M56.89,67.4c-1.26,0-5.1,0-5.1-7.65c0-4.14,0.74-9.16,1.89-13.31
		c2.24,0.75,4.14,0.76,6.41,0c1.16,4.15,1.89,9.17,1.89,13.31C61.99,67.4,58.15,67.4,56.89,67.4z M56.89,41.91
		c-2.81,0-5.1-2.29-5.1-5.1s2.29-5.1,5.1-5.1s5.1,2.29,5.1,5.1S59.7,41.91,56.89,41.91z M60.09,27.19c-2.28-0.76-4.17-0.75-6.41,0
		c-1.16-4.15-1.89-9.17-1.89-13.31c0-7.65,3.84-7.65,5.1-7.65c1.26,0,5.1,0,5.1,7.65C61.99,18.02,61.25,23.04,60.09,27.19z
		 M66.68,19.94c4.65-3.32,10.42,2.43,7.09,7.09c-3.02,0.37-6.09,0.97-8.83,1.74C65.71,26.03,66.31,22.96,66.68,19.94z M66.68,53.69
		c-0.37-3.02-0.97-6.09-1.74-8.83c2.74,0.77,5.8,1.37,8.83,1.74C77.08,51.23,71.36,57.04,66.68,53.69z M79.82,31.72
		c7.65,0,7.65,3.84,7.65,5.1s0,5.1-7.65,5.1c-4.14,0-9.16-0.74-13.31-1.89c0.75-2.24,0.76-4.14,0-6.41
		C70.66,32.46,75.68,31.72,79.82,31.72z"/>
</g>
</svg>
