<?xml version="1.0" encoding="utf-8"?>
<!-- Generator: Adobe Illustrator 28.1.0, SVG Export Plug-In . SVG Version: 6.00 Build 0)  -->
<svg version="1.1" id="Layer_1" xmlns="http://www.w3.org/2000/svg" xmlns:xlink="http://www.w3.org/1999/xlink" x="0px" y="0px"
	 viewBox="0 0 110.55 76.54" style="enable-background:new 0 0 110.55 76.54;" xml:space="preserve">
<style type="text/css">
	.st0{display:none;}
	.st1{display:inline;fill:none;}
</style>
<g id="Layer_2_00000073722119373351752270000017113015111246931634_" class="st0">
	<line class="st1" x1="-24.13" y1="74.54" x2="142.13" y2="74.54"/>
	<line class="st1" x1="-24.13" y1="2" x2="142.13" y2="2"/>
</g>
<path d="M-5351.56,183.13c0-4.69,1.76-9.61,2.23-11.95c0.47-2.23,1.29-10.9-7.97-10.9c-9.26,0-8.44,8.67-7.97,10.9
	c0.47,2.23,2.23,7.26,2.23,11.95c0,5.39-2.34,10.08-4.57,15.47c-2.81-7.5-6.44-13.83-6.44-21.09c0-5.62,2.11-11.6,2.69-14.3
	c0.47-2.81,1.52-13.12-9.61-13.12s-10.08,10.31-9.61,13.01c0.47,2.69,2.69,8.67,2.69,14.3c0,7.26-3.75,13.71-6.44,21.09
	c-2.11-5.27-4.57-10.08-4.57-15.47c0-4.69,1.76-9.61,2.23-11.95c0.47-2.23,1.29-10.9-7.97-10.9s-8.44,8.67-7.97,10.9
	s2.23,7.26,2.23,11.95c0,9.73-7.85,17.58-7.85,30c0,10.55,4.57,24.14,6.8,25.54h13.71c0.94-0.59,2.11-3.05,3.4-6.68
	c1.64,6.21,3.75,11.13,5.16,11.95h16.4c1.41-0.82,3.52-5.74,5.27-11.95c1.17,3.52,2.46,6.09,3.4,6.68h13.59
	c2.23-1.29,6.8-15,6.8-25.54C-5343.71,200.59-5351.56,192.74-5351.56,183.13z M-5361.05,165.09c0.7-0.82,1.99-1.29,3.75-1.29
	s3.05,0.47,3.75,1.29c1.17,1.41,1.05,4.1,0.82,5.39c-0.12,0.47-0.23,1.29-0.47,2.11c-0.23,1.05-0.59,2.23-0.94,3.63h-6.21
	c-0.23-1.41-0.59-2.58-0.94-3.63c-0.23-0.82-0.47-1.64-0.47-2.11C-5362.11,169.19-5362.23,166.49-5361.05,165.09z M-5354.96,184.3
	h-4.69c0-0.47,0.12-0.82,0.12-1.29c0-0.82-0.12-1.64-0.12-2.58h4.8c-0.12,0.82-0.12,1.64-0.12,2.58
	C-5355.08,183.48-5354.96,183.95-5354.96,184.3z M-5386.01,155.36c0.94-1.17,2.69-1.76,5.04-1.76c2.34,0,4.1,0.59,5.04,1.76
	c1.52,1.87,1.41,5.39,1.05,7.03c-0.12,0.59-0.35,1.52-0.59,2.58c-0.35,1.29-0.7,2.69-1.05,4.22h-8.91c-0.35-1.52-0.7-2.93-1.05-4.22
	c-0.23-1.05-0.59-1.99-0.59-2.58C-5387.42,160.63-5387.54,157.23-5386.01,155.36z M-5377.46,178.91h-7.03
	c0-0.47,0.12-1.05,0.12-1.52c0-1.05-0.12-1.99-0.12-3.05h7.03c-0.12,0.94-0.12,1.99-0.12,3.05
	C-5377.58,177.86-5377.58,178.44-5377.46,178.91z M-5408.39,165.09c0.7-0.82,1.99-1.29,3.75-1.29s3.05,0.47,3.75,1.29
	c1.17,1.41,1.05,4.1,0.82,5.39c-0.12,0.47-0.23,1.29-0.47,2.11c-0.23,1.05-0.59,2.23-0.94,3.63h-6.21
	c-0.35-1.41-0.59-2.58-0.94-3.63c-0.23-0.82-0.47-1.64-0.47-2.11C-5409.45,169.19-5409.56,166.49-5408.39,165.09z M-5402.3,184.3
	h-4.69c0-0.47,0-0.82,0-1.29c0-0.82,0-1.64-0.12-2.58h4.8c-0.12,0.82-0.12,1.64-0.12,2.58
	C-5402.42,183.48-5402.3,183.95-5402.3,184.3z M-5399.49,235.04h-10.31c-1.64-3.16-4.92-13.24-4.92-22.03
	c0-5.86,1.99-10.78,3.98-15.47c1.17-2.81,2.46-5.74,3.16-8.91h5.86c0.7,3.05,1.99,5.98,3.16,8.91c0.82,2.11,1.76,4.22,2.46,6.44
	c-0.7,2.93-1.17,5.98-1.17,9.37c0,3.75,0.47,7.73,1.17,11.6C-5397.14,229.41-5398.55,233.28-5399.49,235.04z M-5374.41,240.31
	h-13.12c-1.41-2.34-3.52-8.55-4.92-15.35c-0.82-3.87-1.29-7.85-1.29-11.6c0-3.4,0.59-6.44,1.41-9.37c0.94-3.28,2.23-6.44,3.52-9.49
	c1.41-3.4,2.81-6.8,3.75-10.43h8.55c0.82,3.63,2.34,7.03,3.75,10.43c1.29,3.05,2.58,6.09,3.52,9.49c0.82,2.93,1.41,5.98,1.41,9.37
	c0,3.75-0.47,7.85-1.29,11.6C-5370.78,231.76-5373.01,237.97-5374.41,240.31z M-5352.15,235.04h-10.31
	c-0.94-1.76-2.34-5.62-3.4-10.08c0.7-3.87,1.17-7.97,1.17-11.6c0-3.4-0.47-6.44-1.17-9.37c0.7-2.23,1.64-4.34,2.46-6.44
	c1.17-2.81,2.46-5.74,3.16-8.91h5.86c0.7,3.05,1.99,5.98,3.16,8.91c1.99,4.69,3.98,9.61,3.98,15.47
	C-5347.23,221.8-5350.51,231.87-5352.15,235.04z"/>
<g>
	<path d="M90.7,22.61H70.26v-2.4h3.61v-2.4h-4.81c-0.66,0-1.2,0.54-1.2,1.2v3.61H52.22v-2.4h3.61v-2.4h-4.81
		c-0.66,0-1.2,0.54-1.2,1.2v3.61h-2.4c-5.97,0.01-10.81,4.85-10.82,10.82v4.81c0,0.66,0.54,1.2,1.2,1.2H90.7
		c0.66,0,1.2-0.54,1.2-1.2V23.81C91.9,23.15,91.36,22.61,90.7,22.61z M89.5,37.04h-50.5v-3.61c0.01-4.65,3.77-8.41,8.42-8.42H89.5
		V37.04z"/>
	<path d="M46.21,28.62v4.81c0,0.66,0.54,1.2,1.2,1.2h4.81c0.66,0,1.2-0.54,1.2-1.2v-4.81c0-0.66-0.54-1.2-1.2-1.2h-4.81
		C46.74,27.42,46.21,27.96,46.21,28.62z M48.61,29.82h2.4v2.4h-2.4V29.82z"/>
	<path d="M57.03,34.63h4.81c0.66,0,1.2-0.54,1.2-1.2v-4.81c0-0.66-0.54-1.2-1.2-1.2h-4.81c-0.66,0-1.2,0.54-1.2,1.2v4.81
		C55.83,34.1,56.36,34.63,57.03,34.63z M58.23,29.82h2.4v2.4h-2.4V29.82z"/>
	<path d="M66.65,34.63h4.81c0.66,0,1.2-0.54,1.2-1.2v-4.81c0-0.66-0.54-1.2-1.2-1.2h-4.81c-0.66,0-1.2,0.54-1.2,1.2v4.81
		C65.45,34.1,65.98,34.63,66.65,34.63z M67.85,29.82h2.4v2.4h-2.4V29.82z"/>
	<path d="M76.27,34.63h4.81c0.66,0,1.2-0.54,1.2-1.2v-4.81c0-0.66-0.54-1.2-1.2-1.2h-4.81c-0.66,0-1.2,0.54-1.2,1.2v4.81
		C75.07,34.1,75.6,34.63,76.27,34.63z M77.47,29.82h2.4v2.4h-2.4V29.82z"/>
	<path d="M42.6,58.68h7.21c0.66,0,1.2-0.54,1.2-1.2v-7.21c0-0.66-0.54-1.2-1.2-1.2H42.6c-0.66,0-1.2,0.54-1.2,1.2v7.21
		C41.4,58.15,41.93,58.68,42.6,58.68z M43.8,51.47h4.81v4.81H43.8V51.47z"/>
	<path d="M30.57,58.68h7.21c0.66,0,1.2-0.54,1.2-1.2v-7.21c0-0.66-0.54-1.2-1.2-1.2h-7.21c-0.66,0-1.2,0.54-1.2,1.2v7.21
		C29.37,58.15,29.91,58.68,30.57,58.68z M31.78,51.47h4.81v4.81h-4.81V51.47z"/>
	<path d="M20.95,15.39h8.42v7.21c0,0.66,0.54,1.2,1.2,1.2h3.61c0.39,0,0.75-0.19,0.98-0.5l5.65-7.91h11.41c0.66,0,1.2-0.54,1.2-1.2
		c0-3.98-3.23-7.21-7.21-7.21H28.91l-2.07-4.14c-0.2-0.41-0.62-0.67-1.08-0.66h-4.81c-0.66,0-1.2,0.54-1.2,1.2v10.82
		C19.75,14.86,20.29,15.39,20.95,15.39z M33.56,21.41h-1.79v-6.01h6.08L33.56,21.41z M50.86,12.99H22.16V9.38h24.05
		C48.4,9.39,50.31,10.87,50.86,12.99z M22.16,4.57h2.86l1.2,2.4h-4.07V4.57z"/>
	<rect x="58.23" y="17.8" width="4.81" height="2.4"/>
	<rect x="76.27" y="17.8" width="4.81" height="2.4"/>
	<path d="M83.48,74.32V58.58c3.93-0.66,6.58-4.39,5.91-8.32c-0.66-3.93-4.39-6.58-8.32-5.91s-6.58,4.39-5.91,8.32
		c0.51,3.03,2.88,5.4,5.91,5.91v15.74H83.48z M77.47,51.47c0-2.66,2.15-4.81,4.81-4.81s4.81,2.15,4.81,4.81
		c0,2.66-2.15,4.81-4.81,4.81S77.47,54.13,77.47,51.47z"/>
	<path d="M20.95,70.71h2.58c0.65,2.56,3.26,4.11,5.82,3.46c1.7-0.43,3.03-1.76,3.46-3.46h19.58c0.65,2.56,3.26,4.11,5.82,3.46
		c1.7-0.43,3.03-1.76,3.46-3.46h4.98c0.66,0,1.2-0.54,1.2-1.2V45.46c0-0.66-0.54-1.2-1.2-1.2H20.95c-0.66,0-1.2,0.54-1.2,1.2v24.05
		C19.75,70.17,20.29,70.71,20.95,70.71z M28.17,71.91c-1.33,0-2.4-1.08-2.4-2.4s1.08-2.4,2.4-2.4c1.33,0,2.4,1.08,2.4,2.4
		S29.5,71.91,28.17,71.91z M57.03,71.91c-1.33,0-2.4-1.08-2.4-2.4s1.08-2.4,2.4-2.4s2.4,1.08,2.4,2.4S58.36,71.91,57.03,71.91z
		 M65.45,56.28h-9.62v-4.81h9.62V56.28z M65.45,46.66v2.4H54.62c-0.66,0-1.2,0.54-1.2,1.2v7.21c0,0.66,0.54,1.2,1.2,1.2h10.82v2.4
		h-2.4v2.4h2.4v4.81h-3.78c-0.65-2.56-3.26-4.11-5.82-3.46c-1.7,0.43-3.03,1.76-3.46,3.46H32.81c-0.65-2.56-3.26-4.11-5.82-3.46
		c-1.7,0.43-3.03,1.76-3.46,3.46h-1.37v-4.81h2.4v-2.4h-2.4v-2.4h3.61c0.66,0,1.2-0.54,1.2-1.2v-7.21c0-0.66-0.54-1.2-1.2-1.2h-3.61
		v-2.4H65.45z M22.16,51.47h2.4v4.81h-2.4V51.47z"/>
</g>
</svg>
