<?xml version="1.0" encoding="utf-8"?>
<!-- Generator: Adobe Illustrator 28.1.0, SVG Export Plug-In . SVG Version: 6.00 Build 0)  -->
<svg version="1.1" id="Layer_1" xmlns="http://www.w3.org/2000/svg" xmlns:xlink="http://www.w3.org/1999/xlink" x="0px" y="0px"
	 viewBox="0 0 110.55 76.54" style="enable-background:new 0 0 110.55 76.54;" xml:space="preserve">
<style type="text/css">
	.st0{display:none;}
	.st1{display:inline;fill:none;}
</style>
<g id="Layer_2_00000073722119373351752270000017113015111246931634_" class="st0">
	<line class="st1" x1="-24.13" y1="74.54" x2="142.13" y2="74.54"/>
	<line class="st1" x1="-24.13" y1="2" x2="142.13" y2="2"/>
</g>
<path d="M-5351.56,183.13c0-4.69,1.76-9.61,2.23-11.95c0.47-2.23,1.29-10.9-7.97-10.9c-9.26,0-8.44,8.67-7.97,10.9
	c0.47,2.23,2.23,7.26,2.23,11.95c0,5.39-2.34,10.08-4.57,15.47c-2.81-7.5-6.44-13.83-6.44-21.09c0-5.62,2.11-11.6,2.69-14.3
	c0.47-2.81,1.52-13.12-9.61-13.12s-10.08,10.31-9.61,13.01c0.47,2.69,2.69,8.67,2.69,14.3c0,7.26-3.75,13.71-6.44,21.09
	c-2.11-5.27-4.57-10.08-4.57-15.47c0-4.69,1.76-9.61,2.23-11.95c0.47-2.23,1.29-10.9-7.97-10.9s-8.44,8.67-7.97,10.9
	s2.23,7.26,2.23,11.95c0,9.73-7.85,17.58-7.85,30c0,10.55,4.57,24.14,6.8,25.54h13.71c0.94-0.59,2.11-3.05,3.4-6.68
	c1.64,6.21,3.75,11.13,5.16,11.95h16.4c1.41-0.82,3.52-5.74,5.27-11.95c1.17,3.52,2.46,6.09,3.4,6.68h13.59
	c2.23-1.29,6.8-15,6.8-25.54C-5343.71,200.59-5351.56,192.74-5351.56,183.13z M-5361.05,165.09c0.7-0.82,1.99-1.29,3.75-1.29
	s3.05,0.47,3.75,1.29c1.17,1.41,1.05,4.1,0.82,5.39c-0.12,0.47-0.23,1.29-0.47,2.11c-0.23,1.05-0.59,2.23-0.94,3.63h-6.21
	c-0.23-1.41-0.59-2.58-0.94-3.63c-0.23-0.82-0.47-1.64-0.47-2.11C-5362.11,169.19-5362.23,166.49-5361.05,165.09z M-5354.96,184.3
	h-4.69c0-0.47,0.12-0.82,0.12-1.29c0-0.82-0.12-1.64-0.12-2.58h4.8c-0.12,0.82-0.12,1.64-0.12,2.58
	C-5355.08,183.48-5354.96,183.95-5354.96,184.3z M-5386.01,155.36c0.94-1.17,2.69-1.76,5.04-1.76c2.34,0,4.1,0.59,5.04,1.76
	c1.52,1.87,1.41,5.39,1.05,7.03c-0.12,0.59-0.35,1.52-0.59,2.58c-0.35,1.29-0.7,2.69-1.05,4.22h-8.91c-0.35-1.52-0.7-2.93-1.05-4.22
	c-0.23-1.05-0.59-1.99-0.59-2.58C-5387.42,160.63-5387.54,157.23-5386.01,155.36z M-5377.46,178.91h-7.03
	c0-0.47,0.12-1.05,0.12-1.52c0-1.05-0.12-1.99-0.12-3.05h7.03c-0.12,0.94-0.12,1.99-0.12,3.05
	C-5377.58,177.86-5377.58,178.44-5377.46,178.91z M-5408.39,165.09c0.7-0.82,1.99-1.29,3.75-1.29s3.05,0.47,3.75,1.29
	c1.17,1.41,1.05,4.1,0.82,5.39c-0.12,0.47-0.23,1.29-0.47,2.11c-0.23,1.05-0.59,2.23-0.94,3.63h-6.21
	c-0.35-1.41-0.59-2.58-0.94-3.63c-0.23-0.82-0.47-1.64-0.47-2.11C-5409.45,169.19-5409.56,166.49-5408.39,165.09z M-5402.3,184.3
	h-4.69c0-0.47,0-0.82,0-1.29c0-0.82,0-1.64-0.12-2.58h4.8c-0.12,0.82-0.12,1.64-0.12,2.58
	C-5402.42,183.48-5402.3,183.95-5402.3,184.3z M-5399.49,235.04h-10.31c-1.64-3.16-4.92-13.24-4.92-22.03
	c0-5.86,1.99-10.78,3.98-15.47c1.17-2.81,2.46-5.74,3.16-8.91h5.86c0.7,3.05,1.99,5.98,3.16,8.91c0.82,2.11,1.76,4.22,2.46,6.44
	c-0.7,2.93-1.17,5.98-1.17,9.37c0,3.75,0.47,7.73,1.17,11.6C-5397.14,229.41-5398.55,233.28-5399.49,235.04z M-5374.41,240.31
	h-13.12c-1.41-2.34-3.52-8.55-4.92-15.35c-0.82-3.87-1.29-7.85-1.29-11.6c0-3.4,0.59-6.44,1.41-9.37c0.94-3.28,2.23-6.44,3.52-9.49
	c1.41-3.4,2.81-6.8,3.75-10.43h8.55c0.82,3.63,2.34,7.03,3.75,10.43c1.29,3.05,2.58,6.09,3.52,9.49c0.82,2.93,1.41,5.98,1.41,9.37
	c0,3.75-0.47,7.85-1.29,11.6C-5370.78,231.76-5373.01,237.97-5374.41,240.31z M-5352.15,235.04h-10.31
	c-0.94-1.76-2.34-5.62-3.4-10.08c0.7-3.87,1.17-7.97,1.17-11.6c0-3.4-0.47-6.44-1.17-9.37c0.7-2.23,1.64-4.34,2.46-6.44
	c1.17-2.81,2.46-5.74,3.16-8.91h5.86c0.7,3.05,1.99,5.98,3.16,8.91c1.99,4.69,3.98,9.61,3.98,15.47
	C-5347.23,221.8-5350.51,231.87-5352.15,235.04z"/>
<g>
	<g>
		<path d="M59.38,56.69c0,0,0-0.01,0-0.01c0-0.05,0-0.09-0.01-0.14l-5.64-25.52c-0.01-0.03-0.02-0.04-0.03-0.07
			c-0.01-0.03-0.02-0.07-0.04-0.1c-0.02-0.05-0.05-0.09-0.09-0.13c-0.02-0.03-0.04-0.05-0.06-0.07c-0.04-0.04-0.09-0.07-0.14-0.09
			c-0.03-0.01-0.05-0.03-0.08-0.04c-0.08-0.03-0.17-0.05-0.26-0.05H22.14c-0.01,0-0.02,0.01-0.03,0.01c-0.01,0-0.02,0-0.03,0
			c-1.42,0.12-2.35,0.41-3.22,1.59c-0.08,0.1-0.11,0.22-0.12,0.34c0,0,0,0.01-0.01,0.01L16.39,46L3.95,42.36
			c-0.47-0.14-0.97,0.13-1.11,0.61c-0.14,0.47,0.13,0.97,0.61,1.11l12.64,3.7L14.1,59.29c-0.03,0.1-0.04,0.21-0.05,0.32l-0.03,0.16
			c-0.01,0.03,0,0.06,0,0.09c0,0.04-0.01,0.08-0.01,0.12c0.01,2.2,2.58,3.91,5.85,3.91h0.02c0.11,0,1.19-0.01,1.19-0.01l4.12-0.01
			l33.52-0.06c0.19,0,0.37-0.08,0.5-0.21c0.13-0.13,0.21-0.31,0.21-0.5L59.38,56.69z M22.75,31.88h29.71l5.32,24.1H38.32
			c0.43-0.72,0.8-1.48,1.05-2.32c1.48-5.07-1.26-10.34-6.14-12.15h12.01c0.15,0,0.3-0.07,0.39-0.19c0.1-0.12,0.13-0.28,0.1-0.42
			l-0.95-4.43c-0.05-0.23-0.26-0.4-0.5-0.4H30.57c-0.25,0-0.47,0.19-0.5,0.44l-0.6,4.39c-3.93,0.12-7.51,2.55-8.99,6.34
			c-0.04-0.02-0.07-0.05-0.12-0.06l-0.1-0.03L22.75,31.88z M19.99,48.9c-0.03,0.13-0.05,0.26-0.07,0.4L19.99,48.9
			C19.99,48.9,19.99,48.9,19.99,48.9z M19.78,50.12c-0.15,2.09,0.38,4.12,1.42,5.86h-2.37L19.78,50.12z M21.86,48.54
			c1.28-4.35,5.85-6.85,10.21-5.58c4.35,1.28,6.86,5.85,5.58,10.21c-1.28,4.35-5.85,6.86-10.21,5.58
			C23.09,57.47,20.59,52.89,21.86,48.54z M30.55,40.5l0.46-3.42h12.87l0.74,3.42H30.55z M20.12,32.76c0.34-0.42,0.68-0.63,1.17-0.75
			v0L18.9,46.74l-1.14-0.33L20.12,32.76z M17.46,48.17l1.15,0.34l-1.29,7.92c-0.51,0.16-0.98,0.36-1.4,0.61L17.46,48.17z
			 M20.18,62.47c0,0-0.01,0-0.01,0c0,0-0.01,0-0.01,0c-0.1,0-0.19,0.01-0.29,0.01h-0.01c-2.4,0-4.42-1.14-4.43-2.5h0
			c0-0.04,0.01-0.07,0.01-0.11l0.05-0.3c0.1-0.33,0.31-0.6,0.5-0.79c0.8-0.81,2.28-1.31,3.85-1.31c0.1,0,0.19,0,0.29,0.01
			c0,0,0.01,0,0.01,0c0,0,0.01,0,0.01,0h0l2.12,0c1.21,1.37,2.78,2.44,4.66,2.99c0.94,0.27,1.88,0.4,2.81,0.4
			c2.89,0,5.62-1.29,7.5-3.43l20.7-0.04l0.02,5L20.18,62.47z"/>
		<path d="M27.82,51.62c0.14,0.08,0.3,0.12,0.45,0.12c0.03,0,0.05-0.02,0.08-0.02c0.03,0,0.05,0.02,0.08,0.02
			c0.15,0,0.31-0.04,0.45-0.12l0.52-0.31l0.52,0.31c0.14,0.08,0.3,0.12,0.45,0.12c0.03,0,0.06-0.02,0.09-0.02
			c0.03,0,0.06,0.02,0.09,0.02c0.15,0,0.31-0.04,0.45-0.12l0.52-0.31l0.52,0.31c0.14,0.08,0.3,0.12,0.45,0.12
			c0.31,0,0.6-0.16,0.77-0.44c0.25-0.43,0.11-0.97-0.32-1.22l-0.87-0.51c-0.02-0.01-0.04-0.02-0.06-0.03l-0.05-0.03
			c-0.01-0.01-0.03-0.01-0.04-0.01c-0.08-0.04-0.16-0.07-0.25-0.08c-0.05-0.01-0.1-0.01-0.15-0.01c-0.05,0-0.1,0-0.15,0.01
			c-0.09,0.01-0.17,0.05-0.25,0.09c-0.01,0.01-0.03,0.01-0.04,0.01l-0.05,0.03c-0.02,0.01-0.04,0.02-0.06,0.04l-0.51,0.3l-0.51-0.3
			c-0.02-0.01-0.04-0.02-0.06-0.04l-0.05-0.03c-0.01-0.01-0.03-0.01-0.04-0.01c-0.08-0.04-0.16-0.07-0.25-0.09
			c-0.05-0.01-0.1-0.01-0.15-0.01c-0.05,0-0.1,0-0.15,0.01c-0.09,0.01-0.17,0.05-0.25,0.09c-0.01,0.01-0.03,0.01-0.04,0.01
			l-0.05,0.03c-0.02,0.01-0.04,0.02-0.06,0.04l-0.5,0.29l-0.5-0.29c-0.02-0.01-0.04-0.02-0.06-0.04l-0.05-0.03
			c-0.01-0.01-0.03-0.01-0.04-0.01c-0.08-0.04-0.16-0.07-0.25-0.09c-0.05-0.01-0.1-0.01-0.15-0.01c-0.05,0-0.1,0-0.15,0.01
			c-0.09,0.01-0.17,0.05-0.25,0.09c-0.01,0.01-0.03,0.01-0.04,0.01l-0.05,0.03c-0.02,0.01-0.04,0.02-0.06,0.04l-0.87,0.51
			c-0.42,0.25-0.57,0.8-0.32,1.22c0.17,0.28,0.46,0.44,0.77,0.44c0.15,0,0.31-0.04,0.45-0.12l0.52-0.31L27.82,51.62z"/>
		<path d="M46.63,49.19l-1.48,0.87l-1.49-0.87c-0.13-0.1-0.28-0.16-0.44-0.19c-0.05-0.01-0.09-0.01-0.14-0.01
			c-0.05,0-0.09,0-0.14,0.01c-0.16,0.02-0.31,0.08-0.44,0.19l-1.79,1.05c-0.42,0.25-0.57,0.8-0.32,1.22
			c0.17,0.28,0.46,0.44,0.77,0.44c0.15,0,0.31-0.04,0.45-0.12l1.46-0.86l1.47,0.86c0.14,0.08,0.3,0.12,0.45,0.12
			c0.05,0,0.1-0.03,0.15-0.04c0.05,0.01,0.1,0.04,0.15,0.04c0.15,0,0.31-0.04,0.45-0.12l1.47-0.86l1.47,0.86
			c0.14,0.08,0.3,0.12,0.45,0.12c0.06,0,0.12-0.03,0.18-0.05c0.06,0.01,0.12,0.05,0.18,0.05c0.15,0,0.31-0.04,0.45-0.12l1.47-0.86
			l1.47,0.86c0.14,0.08,0.3,0.12,0.45,0.12c0.31,0,0.6-0.16,0.77-0.44c0.25-0.43,0.11-0.97-0.32-1.22l-1.79-1.05
			c-0.13-0.11-0.28-0.16-0.44-0.19c-0.05-0.01-0.09-0.01-0.14-0.01c-0.05,0-0.09,0-0.14,0.01c-0.16,0.02-0.31,0.08-0.44,0.19
			l-1.51,0.89l-1.52-0.89c-0.13-0.1-0.28-0.16-0.44-0.19c-0.05-0.01-0.09-0.01-0.14-0.01c-0.05,0-0.09,0-0.14,0.01
			C46.91,49.03,46.76,49.09,46.63,49.19z"/>
	</g>
	<g>
		<path d="M75.65,31.79c5.16,0,9.35-4.18,9.35-9.35c0-5.16-4.18-9.34-9.35-9.34c-5.16,0-9.35,4.18-9.35,9.34
			C66.3,27.6,70.49,31.79,75.65,31.79z"/>
		<path d="M89.75,38.75c-1.29-2-3.21-3.57-5.52-4.37c-0.07,0.05-0.15,0.08-0.22,0.13c-0.02-0.01-0.05-0.02-0.07-0.03
			c-1.1,0.78-2.35,1.39-3.67,1.83c-1.37,0.43-2.82,0.66-4.33,0.66c-3.06,0-5.97-0.95-8.29-2.59c-0.09,0.03-0.17,0.09-0.25,0.12
			c-0.01-0.01-0.03-0.01-0.04-0.02c-4.22,1.48-7.23,5.44-7.23,10.14V50c0,1.06,0.9,1.95,1.95,1.95h22.49
			c-0.01-0.03-0.01-0.07-0.02-0.1h0.63v-6.14L89.75,38.75z"/>
	</g>
	<g>
		<path d="M106.97,27.51l-1.27-0.84c-1.51-1.01-3.6-0.52-4.68,1.09l-0.68,0.98l6.73,4.51l0.67-1
			C108.83,30.64,108.48,28.51,106.97,27.51z"/>
		<path d="M88.36,46.77l-0.38,3.92l0,0l-0.43,4.43l3.92-2.07l0,0l3.5-1.85C93.54,48.81,91.11,47.18,88.36,46.77z M89.16,51.51
			l0.3-3.12c1.39,0.46,2.64,1.3,3.6,2.41l-2.77,1.46L89.16,51.51z"/>
		<path d="M88.96,45.74l0.02,0c2.79,0.42,5.24,2.07,6.69,4.49l0,0.02l10.69-15.93l-6.73-4.51L88.96,45.74z"/>
	</g>
</g>
</svg>
