<?xml version="1.0" encoding="utf-8"?>
<!-- Generator: Adobe Illustrator 28.1.0, SVG Export Plug-In . SVG Version: 6.00 Build 0)  -->
<svg version="1.1" id="Layer_1" xmlns="http://www.w3.org/2000/svg" xmlns:xlink="http://www.w3.org/1999/xlink" x="0px" y="0px"
	 viewBox="0 0 110.55 76.54" style="enable-background:new 0 0 110.55 76.54;" xml:space="preserve">
<style type="text/css">
	.st0{display:none;}
	.st1{display:inline;fill:none;}
</style>
<g id="Layer_2_00000073722119373351752270000017113015111246931634_" class="st0">
	<line class="st1" x1="-24.13" y1="74.54" x2="142.13" y2="74.54"/>
	<line class="st1" x1="-24.13" y1="2" x2="142.13" y2="2"/>
</g>
<path d="M-5351.56,183.13c0-4.69,1.76-9.61,2.23-11.95c0.47-2.23,1.29-10.9-7.97-10.9c-9.26,0-8.44,8.67-7.97,10.9
	c0.47,2.23,2.23,7.26,2.23,11.95c0,5.39-2.34,10.08-4.57,15.47c-2.81-7.5-6.44-13.83-6.44-21.09c0-5.62,2.11-11.6,2.69-14.3
	c0.47-2.81,1.52-13.12-9.61-13.12s-10.08,10.31-9.61,13.01c0.47,2.69,2.69,8.67,2.69,14.3c0,7.26-3.75,13.71-6.44,21.09
	c-2.11-5.27-4.57-10.08-4.57-15.47c0-4.69,1.76-9.61,2.23-11.95c0.47-2.23,1.29-10.9-7.97-10.9s-8.44,8.67-7.97,10.9
	s2.23,7.26,2.23,11.95c0,9.73-7.85,17.58-7.85,30c0,10.55,4.57,24.14,6.8,25.54h13.71c0.94-0.59,2.11-3.05,3.4-6.68
	c1.64,6.21,3.75,11.13,5.16,11.95h16.4c1.41-0.82,3.52-5.74,5.27-11.95c1.17,3.52,2.46,6.09,3.4,6.68h13.59
	c2.23-1.29,6.8-15,6.8-25.54C-5343.71,200.59-5351.56,192.74-5351.56,183.13z M-5361.05,165.09c0.7-0.82,1.99-1.29,3.75-1.29
	s3.05,0.47,3.75,1.29c1.17,1.41,1.05,4.1,0.82,5.39c-0.12,0.47-0.23,1.29-0.47,2.11c-0.23,1.05-0.59,2.23-0.94,3.63h-6.21
	c-0.23-1.41-0.59-2.58-0.94-3.63c-0.23-0.82-0.47-1.64-0.47-2.11C-5362.11,169.19-5362.23,166.49-5361.05,165.09z M-5354.96,184.3
	h-4.69c0-0.47,0.12-0.82,0.12-1.29c0-0.82-0.12-1.64-0.12-2.58h4.8c-0.12,0.82-0.12,1.64-0.12,2.58
	C-5355.08,183.48-5354.96,183.95-5354.96,184.3z M-5386.01,155.36c0.94-1.17,2.69-1.76,5.04-1.76c2.34,0,4.1,0.59,5.04,1.76
	c1.52,1.87,1.41,5.39,1.05,7.03c-0.12,0.59-0.35,1.52-0.59,2.58c-0.35,1.29-0.7,2.69-1.05,4.22h-8.91c-0.35-1.52-0.7-2.93-1.05-4.22
	c-0.23-1.05-0.59-1.99-0.59-2.58C-5387.42,160.63-5387.54,157.23-5386.01,155.36z M-5377.46,178.91h-7.03
	c0-0.47,0.12-1.05,0.12-1.52c0-1.05-0.12-1.99-0.12-3.05h7.03c-0.12,0.94-0.12,1.99-0.12,3.05
	C-5377.58,177.86-5377.58,178.44-5377.46,178.91z M-5408.39,165.09c0.7-0.82,1.99-1.29,3.75-1.29s3.05,0.47,3.75,1.29
	c1.17,1.41,1.05,4.1,0.82,5.39c-0.12,0.47-0.23,1.29-0.47,2.11c-0.23,1.05-0.59,2.23-0.94,3.63h-6.21
	c-0.35-1.41-0.59-2.58-0.94-3.63c-0.23-0.82-0.47-1.64-0.47-2.11C-5409.45,169.19-5409.56,166.49-5408.39,165.09z M-5402.3,184.3
	h-4.69c0-0.47,0-0.82,0-1.29c0-0.82,0-1.64-0.12-2.58h4.8c-0.12,0.82-0.12,1.64-0.12,2.58
	C-5402.42,183.48-5402.3,183.95-5402.3,184.3z M-5399.49,235.04h-10.31c-1.64-3.16-4.92-13.24-4.92-22.03
	c0-5.86,1.99-10.78,3.98-15.47c1.17-2.81,2.46-5.74,3.16-8.91h5.86c0.7,3.05,1.99,5.98,3.16,8.91c0.82,2.11,1.76,4.22,2.46,6.44
	c-0.7,2.93-1.17,5.98-1.17,9.37c0,3.75,0.47,7.73,1.17,11.6C-5397.14,229.41-5398.55,233.28-5399.49,235.04z M-5374.41,240.31
	h-13.12c-1.41-2.34-3.52-8.55-4.92-15.35c-0.82-3.87-1.29-7.85-1.29-11.6c0-3.4,0.59-6.44,1.41-9.37c0.94-3.28,2.23-6.44,3.52-9.49
	c1.41-3.4,2.81-6.8,3.75-10.43h8.55c0.82,3.63,2.34,7.03,3.75,10.43c1.29,3.05,2.58,6.09,3.52,9.49c0.82,2.93,1.41,5.98,1.41,9.37
	c0,3.75-0.47,7.85-1.29,11.6C-5370.78,231.76-5373.01,237.97-5374.41,240.31z M-5352.15,235.04h-10.31
	c-0.94-1.76-2.34-5.62-3.4-10.08c0.7-3.87,1.17-7.97,1.17-11.6c0-3.4-0.47-6.44-1.17-9.37c0.7-2.23,1.64-4.34,2.46-6.44
	c1.17-2.81,2.46-5.74,3.16-8.91h5.86c0.7,3.05,1.99,5.98,3.16,8.91c1.99,4.69,3.98,9.61,3.98,15.47
	C-5347.23,221.8-5350.51,231.87-5352.15,235.04z"/>
<g>
	<path d="M75.59,63.27c0,0,0.02,0.16,0.01,0.47c-0.04,0.98-0.33,2.85-2.33,3.67c-0.48,0.2-1.08,0.35-1.83,0.41
		c-0.45,0.03-0.78,0.42-0.75,0.87c0.01,0.09,0.03,0.17,0.06,0.25c0.13,0.31,0.45,0.53,0.81,0.5c0.9-0.07,1.67-0.25,2.34-0.52
		c1.89-0.78,2.76-2.3,3.09-3.53c0.34-1.24,0.22-2.24,0.22-2.3c-0.05-0.45-0.46-0.77-0.9-0.71C75.85,62.42,75.54,62.83,75.59,63.27z"
		/>
	<path d="M79.35,64.24L79.35,64.24c0,0,0.02,0.26-0.02,0.74c-0.13,1.48-0.75,4.44-3.89,5.74c-0.87,0.36-1.95,0.61-3.31,0.66
		c-0.45,0.02-0.8,0.39-0.78,0.84c0,0.1,0.02,0.19,0.06,0.28c0.13,0.3,0.43,0.51,0.78,0.5c1.52-0.06,2.8-0.34,3.87-0.78
		c2.64-1.09,3.9-3.16,4.45-4.88c0.56-1.73,0.46-3.14,0.46-3.21c-0.03-0.45-0.42-0.79-0.86-0.76C79.66,63.41,79.32,63.79,79.35,64.24
		z"/>
	<path d="M36.78,64.26c0,0-0.16,0.02-0.47,0.01c-0.98-0.04-2.85-0.33-3.67-2.33c-0.2-0.48-0.35-1.08-0.41-1.83
		c-0.03-0.45-0.42-0.78-0.87-0.75c-0.09,0.01-0.17,0.03-0.25,0.06c-0.31,0.13-0.53,0.45-0.5,0.81c0.07,0.9,0.25,1.67,0.52,2.34
		c0.78,1.89,2.3,2.76,3.53,3.09c1.24,0.34,2.24,0.22,2.3,0.22c0.45-0.05,0.77-0.46,0.71-0.9C37.63,64.52,37.23,64.21,36.78,64.26z"
		/>
	<path d="M35.81,68.02L35.81,68.02c0,0-0.26,0.02-0.74-0.02c-1.48-0.13-4.44-0.75-5.74-3.89c-0.36-0.87-0.61-1.95-0.66-3.31
		c-0.02-0.45-0.39-0.8-0.84-0.78c-0.1,0-0.19,0.02-0.28,0.06c-0.3,0.13-0.51,0.43-0.5,0.78c0.06,1.52,0.34,2.8,0.78,3.87
		c1.09,2.64,3.16,3.9,4.88,4.45c1.73,0.56,3.14,0.46,3.21,0.46c0.45-0.03,0.79-0.42,0.76-0.86C36.64,68.33,36.26,67.99,35.81,68.02z
		"/>
	<path d="M22.31,34.6c0,0-0.04-0.15-0.08-0.46c-0.1-0.97-0.09-2.87,1.77-3.96c0.45-0.27,1.02-0.5,1.75-0.67
		c0.44-0.1,0.71-0.53,0.61-0.97c-0.02-0.09-0.05-0.17-0.1-0.24c-0.17-0.29-0.52-0.45-0.88-0.37c-0.88,0.2-1.62,0.49-2.24,0.86
		c-1.76,1.04-2.4,2.68-2.54,3.94c-0.16,1.27,0.11,2.25,0.12,2.31c0.12,0.43,0.56,0.69,1,0.57C22.17,35.48,22.42,35.04,22.31,34.6z"
		/>
	<path d="M18.45,34.19L18.45,34.19c0,0-0.06-0.26-0.09-0.74c-0.09-1.48,0.09-4.5,3.02-6.24c0.81-0.48,1.84-0.88,3.17-1.13
		c0.44-0.08,0.73-0.5,0.65-0.95c-0.02-0.1-0.05-0.19-0.1-0.27c-0.17-0.28-0.5-0.45-0.85-0.38c-1.49,0.28-2.72,0.74-3.71,1.33
		c-2.45,1.46-3.4,3.7-3.69,5.48c-0.3,1.79,0,3.18,0.01,3.24c0.09,0.44,0.53,0.72,0.96,0.63C18.26,35.06,18.54,34.63,18.45,34.19z"/>
	<path d="M85.26,28.49c0,0,0.16-0.02,0.47-0.03c0.98,0.02,2.86,0.26,3.73,2.23c0.21,0.48,0.38,1.07,0.45,1.82
		c0.04,0.45,0.44,0.77,0.89,0.73c0.09-0.01,0.17-0.03,0.25-0.07c0.31-0.14,0.51-0.47,0.48-0.82c-0.09-0.9-0.29-1.67-0.59-2.32
		c-0.82-1.87-2.37-2.7-3.61-3c-1.25-0.31-2.24-0.16-2.3-0.15c-0.45,0.06-0.75,0.48-0.69,0.92C84.41,28.25,84.82,28.56,85.26,28.49z"
		/>
	<path d="M86.13,24.71L86.13,24.71c0,0,0.26-0.03,0.74,0c1.48,0.09,4.46,0.63,5.84,3.74c0.38,0.86,0.66,1.93,0.74,3.29
		c0.03,0.45,0.41,0.79,0.86,0.76c0.1-0.01,0.19-0.03,0.28-0.07c0.3-0.13,0.5-0.45,0.48-0.79c-0.1-1.52-0.41-2.79-0.88-3.85
		c-1.16-2.61-3.27-3.82-5-4.32c-1.74-0.51-3.15-0.38-3.22-0.38c-0.45,0.04-0.78,0.44-0.74,0.88C85.29,24.42,85.68,24.75,86.13,24.71
		z"/>
	<g>
		<path d="M88.15,40.04c-1.43-4.22-5.89-2.47-8.68-0.88c-2.23,1.27-4.46,2.63-6.77,3.74c-0.4,0.16-0.8,0.32-1.19,0.32
			c-2.15,0,0.16-8.36,0.48-10.19c0.64-3.74,1.35-7.48,1.99-11.23c0.24-1.59,0.56-3.19,0.8-4.78c0.88-5.02-7.33-6.45-8.2-1.35
			l-3.42,20.54c0,0,0,0.08-0.08,0.08c0,0-0.08,0-0.08-0.08c0,0-0.08-27.47-0.08-27.55c0-2.31-1.83-4.54-4.22-4.62
			c-2.39-0.08-4.38,1.91-4.38,4.3l0.08,28.67L51.6,11.29c-0.24-2.23-2.07-4.14-4.3-4.14h-0.08c-2.55,0.08-4.46,2.31-4.22,4.78
			l2.95,25.48c0,0-4.78-16.32-4.86-16.32c-1.51-5.18-9.79-2.79-8.28,2.47c1.27,4.14,2.47,8.28,3.74,12.34
			c1.04,3.34,2.31,6.77,2.79,10.19c0.48,3.42,0.4,6.93,1.83,10.19c1.51,3.42,4.14,6.37,7.48,8.12c1.51,0.8,3.11,1.27,4.78,1.51
			c6.21,0.88,12.42-2.23,15.53-7.56c3.5-5.89,10.51-9.16,16.16-12.66C87.03,44.42,89.02,42.5,88.15,40.04z M84.16,43.94L84.16,43.94
			c-6.13,3.74-13.22,7.01-16.96,13.38c-3.82,6.53-12.74,8.6-19.11,4.46c-4.46-2.95-5.97-7.96-6.45-13.06
			c-0.48-4.38-1.67-8.68-2.95-12.9c-1.35-4.3-2.63-8.6-3.98-12.9c-0.32-1.19,0.4-2.39,1.51-2.71c1.19-0.4,2.47,0.16,2.87,1.43
			c0,0,4.78,16.32,4.86,16.32c0.64,2.31,4.22,1.59,3.9-0.8l-2.87-25.48c-0.32-3.11,4.3-3.34,4.62-0.16c0,0,2.71,25.72,2.79,25.72
			c0.24,2.39,3.98,2.23,3.98-0.24L56.3,8.34c0-3.11,4.62-2.87,4.62,0.32c0,0,0.08,27.47,0.08,27.55c0,2.39,3.74,2.79,4.14,0.32
			c0.8-4.62,1.51-9.16,2.31-13.78c0.4-2.23,0.8-4.46,1.11-6.77c0.4-2.47,4.7-1.83,4.3,0.72c-0.64,3.82-1.27,7.64-1.99,11.55
			c-0.4,2.39-0.88,4.78-1.35,7.17c-0.56,2.47-1.83,6.69-0.08,8.92c1.59,1.99,4.46,0.64,6.21-0.4c1.43-0.88,2.87-1.75,4.3-2.63
			c1.35-0.8,2.71-1.67,4.22-1.91c1.19-0.16,2.31,0.8,2.23,2.07C86.31,42.66,85.04,43.38,84.16,43.94z"/>
		<path d="M64.02,43.54c-5.18,0-9.48,4.22-9.48,9.48c0,0.56,0.32,0.88,0.88,0.88c0.56,0,0.88-0.48,0.88-0.88
			c0-4.22,3.42-7.72,7.72-7.72c0.56,0,0.88-0.32,0.88-0.88C64.9,43.86,64.58,43.54,64.02,43.54z"/>
	</g>
</g>
</svg>
