<?xml version="1.0" encoding="utf-8"?>
<!-- Generator: Adobe Illustrator 28.1.0, SVG Export Plug-In . SVG Version: 6.00 Build 0)  -->
<svg version="1.1" id="Layer_1" xmlns="http://www.w3.org/2000/svg" xmlns:xlink="http://www.w3.org/1999/xlink" x="0px" y="0px"
	 viewBox="0 0 110.55 76.54" style="enable-background:new 0 0 110.55 76.54;" xml:space="preserve">
<style type="text/css">
	.st0{display:none;}
	.st1{display:inline;fill:none;}
	.st2{fill:#808080;}
	.st3{fill:#FFFFFF;}
	.st4{fill:none;}
</style>
<g id="Layer_2_00000073722119373351752270000017113015111246931634_" class="st0">
	<line class="st1" x1="-24.13" y1="74.54" x2="142.13" y2="74.54"/>
	<line class="st1" x1="-24.13" y1="2" x2="142.13" y2="2"/>
</g>
<path class="st2" d="M3521.66,2698.06c6.59,0,11.96-5.36,11.96-11.96s-5.36-11.96-11.96-11.96"/>
<path class="st2" d="M3502.66,2733.64h29.9h8.09v-22.07c0-5.45-3.31-10.13-8.02-12.16c-2.98,2.47-6.81,3.95-10.97,3.95"/>
<path class="st2" d="M3585.78,2698.06c6.59,0,11.96-5.36,11.96-11.96s-5.36-11.96-11.96-11.96c-6.59,0-11.96,5.36-11.96,11.96
	S3579.19,2698.06,3585.78,2698.06z"/>
<path class="st2" d="M3604.78,2711.57c0-5.45-3.31-10.13-8.02-12.16c-2.98,2.47-6.81,3.95-10.97,3.95s-7.99-1.48-10.97-3.95
	c-4.71,2.03-8.02,6.71-8.02,12.16v22.07h8.09h29.9"/>
<path class="st2" d="M3553.72,2691.6c7.4,0,13.42-6.02,13.42-13.42s-6.02-13.42-13.42-13.42c-7.4,0-13.42,6.02-13.42,13.42
	S3546.32,2691.6,3553.72,2691.6z"/>
<path class="st2" d="M3571.09,2695.34c-1.38-1.41-3.08-2.51-4.97-3.19c-3.31,2.93-7.64,4.73-12.4,4.73s-9.09-1.8-12.4-4.73
	c-1.89,0.68-3.59,1.78-4.97,3.19c5.71,3.16,9.59,9.24,9.59,16.22v22.07h15.55v-22.07
	C3561.49,2704.59,3565.38,2698.5,3571.09,2695.34z"/>
<g>
	<g transform="translate(0,-288.53332)">
		<path d="M60.85,351.67l-6.05-8.07l-6.05,8.07h3.78l0,6.69l4.54,0l0-6.69H60.85z"/>
	</g>
	<g>
		<path d="M55.41,45.31l-0.15,0.01c-0.15,0.01-0.3,0.01-0.46,0.01c-0.16,0-0.31,0-0.46-0.01l-0.15-0.01v1.57h1.22V45.31z"/>
		<path d="M55.41,36.5v-0.88h-1.22v0.88c0,0,0.45,0.01,0.61,0.01S55.41,36.5,55.41,36.5z"/>
		<path d="M13.22,36.1c-2.35,1.05-4.52,2.4-6.41,4.07c-0.14,0.08-0.27,0.17-0.38,0.28c-0.44,0.4-0.7,0.96-0.73,1.56
			c-0.03,0.6,0.18,1.17,0.58,1.62c0.43,0.47,1.03,0.74,1.66,0.74c0.56,0,1.1-0.21,1.51-0.58c0.73-0.67,1.5-1.31,2.29-1.92
			c0.74-0.57,1.59-1.05,2.59-1.56c-0.01-0.03-0.02-0.07-0.03-0.1C13.85,38.75,13.49,37.4,13.22,36.1z"/>
		<path class="st3" d="M14.31,40.2c0.01,0.03,0.02,0.07,0.03,0.1"/>
		<path d="M39.91,49.66c-0.01-1.05-0.1-2.11-0.28-3.15c-0.26-1.5-0.61-3.95-1.83-5.02c-0.07-0.06-0.2-0.11-0.29-0.09
			c-0.06,0.02-0.13,0.03-0.19,0.05c0,0,0,0,0,0c-0.31,0.1-0.59,0.26-0.78,0.54c-0.81,1.16-1.71,2.32-2.33,3.61h0
			c-0.15,0.31-0.28,0.62-0.39,0.94c-0.54,1.53-0.54,3.34,0.38,4.68c0.37,0.54,0.94,1,1.59,1.02c1.11,0.03,1.53-1.01,2.29-1.58
			c-0.26,0.54-0.1,1.2-0.17,1.78c-0.08,0.65-0.18,1.29-0.3,1.93c-0.25,1.33-0.57,2.65-0.98,3.94c-0.39,1.24-0.85,2.46-1.39,3.65
			c-0.51,1.14-1.16,2.22-1.28,3.49c-0.03,0.3-0.05,0.28-0.36,0.26c-0.87-0.08-1.74-0.15-2.61-0.22c-0.24-0.02-0.48,0-0.73,0
			c0-1.44,0.15-2.9,0.53-4.29c0.37-1.33,1.31-2.53,1.55-3.88c0.08-0.46-0.16-0.85-0.57-1.03c-0.4-0.17-0.83-0.06-1.11,0.32
			c-0.2,0.26-0.38,0.54-0.52,0.83c-0.74,1.5-1.19,3.1-1.49,4.74c-0.06,0.33-0.06,0.35-0.4,0.32c-0.92-0.06-1.83-0.14-2.75-0.2
			c-0.56-0.04-0.55-0.04-0.69-0.58c-0.44-1.65-1.04-3.24-1.75-4.78c-0.12-0.27-0.4-0.5-0.65-0.67c-0.35-0.24-0.8-0.16-1.11,0.13
			c-0.29,0.26-0.39,0.75-0.22,1.11c1.12,2.36,2.33,5.06,2.32,7.73c0,0.32-0.01,0.33-0.33,0.35c-0.99,0.05-1.99,0.1-2.98,0.15
			c-0.42,0.02-0.4,0.01-0.53-0.39c-0.75-2.29-1.58-4.55-2.22-6.87c-0.56-2.06-1.54-5.16-0.98-7.27c0.39,0.1,0.73,0.49,1.14,0.65
			c0.43,0.16,0.92,0.18,1.32-0.03c0.35-0.18,0.6-0.5,0.79-0.84c0.59-1.02,0.76-2.31,0.28-3.39c-0.02-0.04-0.04-0.09-0.06-0.13
			c-0.73-1.52-2.35-2.58-3.29-3.99c-0.09-0.14-0.19-0.28-0.39-0.26c-0.2,0.02-0.3,0.15-0.36,0.32c0,0.01-0.01,0.02-0.01,0.03
			c-1.27,4.04-1.99,8.35-1.14,12.56c0.45,2.2,1.31,4.28,2.07,6.39c0.7,1.95,1.05,3.94,1.41,5.98c0.05,0.3,0.12,0.62,0.32,0.85
			c0.27,0.29,0.7,0.35,1.09,0.37c1.38,0.08,2.94,0.23,4.3-0.03c0.44-0.09,0.96-0.14,1.31-0.41c0.68-0.54,0.54-1.84,0.4-2.69
			c-0.14-0.85-0.49-1.67-0.5-2.54c0,0.03,2.98,0.23,3.23,0.25c0.03,0-0.46,3.02-0.39,3.56c0.07,0.5,0.19,1.05,0.59,1.35
			c0.24,0.18,0.55,0.28,0.85,0.31c1.77,0.17,3.03,0.14,4.56,0.01c0.38-0.03,1.1-0.04,1.4-0.27c0.26-0.2,0.19-0.9,0.31-1.21
			c0.16-0.44-0.21-2.02,1.3-5.24c1.58-3.36,2.54-7.03,2.89-10.75C39.89,51.26,39.92,50.46,39.91,49.66z M22.8,68.5
			c-0.71,0.02-1.41,0.02-2.12,0.03c-0.19,0-0.26-0.1-0.27-0.28c-0.03-0.42-0.06-0.52-0.1-0.94c-0.01-0.11,0.13-0.4,0.25-0.4
			c0.59-0.07,1.95-0.14,2.83-0.14c0.12,0.24,0.19,0.97,0.21,1.5C23.61,68.4,22.85,68.49,22.8,68.5z M33.31,67.3
			c-0.04,0.42-0.08,0.52-0.1,0.94c-0.01,0.18-0.08,0.28-0.27,0.28c-0.71-0.01-1.41-0.01-2.12-0.03c-0.05,0-0.81-0.1-0.8-0.24
			c0.02-0.53,0.1-1.26,0.21-1.5c0.88,0,2.24,0.07,2.83,0.14C33.18,66.9,33.32,67.19,33.31,67.3z"/>
		<path d="M70.69,52.05c0.35,3.71,1.31,7.39,2.89,10.75c1.51,3.21,1.14,4.8,1.3,5.24c0.12,0.31,0.05,1.01,0.31,1.21
			c0.31,0.23,1.02,0.24,1.4,0.27c1.53,0.13,2.79,0.16,4.56-0.01c0.3-0.03,0.61-0.12,0.85-0.31c0.4-0.3,0.53-0.85,0.59-1.35
			c0.07-0.54-0.42-3.56-0.39-3.56c0.26-0.02,3.23-0.21,3.23-0.25c-0.02,0.86-0.36,1.68-0.5,2.54c-0.14,0.85-0.28,2.15,0.4,2.69
			c0.35,0.28,0.88,0.33,1.31,0.41c1.36,0.27,2.92,0.12,4.3,0.03c0.39-0.02,0.82-0.08,1.09-0.37c0.21-0.23,0.27-0.54,0.32-0.85
			c0.36-2.03,0.71-4.03,1.41-5.98c0.76-2.11,1.62-4.19,2.07-6.39c0.86-4.21,0.13-8.52-1.14-12.56c0-0.01-0.01-0.02-0.01-0.03
			c-0.06-0.17-0.16-0.3-0.36-0.32c-0.2-0.02-0.3,0.12-0.39,0.26c-0.94,1.41-2.56,2.47-3.29,3.99c-0.02,0.04-0.04,0.09-0.06,0.13
			c-0.47,1.08-0.3,2.37,0.28,3.39c0.2,0.34,0.45,0.66,0.79,0.84c0.4,0.21,0.9,0.19,1.32,0.03c0.42-0.15,0.76-0.54,1.14-0.65
			c0.56,2.11-0.42,5.21-0.98,7.27c-0.64,2.32-1.47,4.58-2.22,6.87c-0.13,0.4-0.1,0.41-0.53,0.39c-0.99-0.05-1.99-0.1-2.98-0.15
			c-0.32-0.02-0.33-0.03-0.33-0.35c-0.01-2.66,1.2-5.37,2.32-7.73c0.17-0.36,0.07-0.85-0.22-1.11c-0.31-0.29-0.76-0.37-1.11-0.13
			c-0.25,0.17-0.53,0.4-0.65,0.67c-0.71,1.55-1.31,3.14-1.75,4.78c-0.14,0.54-0.13,0.54-0.69,0.58c-0.92,0.06-1.83,0.14-2.75,0.2
			c-0.34,0.02-0.34,0.01-0.4-0.32c-0.3-1.64-0.75-3.24-1.49-4.74c-0.14-0.29-0.33-0.57-0.52-0.83c-0.29-0.38-0.72-0.49-1.11-0.32
			c-0.41,0.18-0.66,0.57-0.57,1.03c0.25,1.34,1.18,2.54,1.55,3.88c0.39,1.39,0.53,2.85,0.53,4.29c-0.25,0-0.49-0.02-0.73,0
			c-0.87,0.07-1.74,0.14-2.61,0.22c-0.3,0.03-0.33,0.05-0.36-0.26c-0.12-1.27-0.77-2.35-1.28-3.49c-0.53-1.19-1-2.4-1.39-3.65
			c-0.41-1.29-0.73-2.61-0.98-3.94c-0.12-0.64-0.22-1.28-0.3-1.93c-0.07-0.58,0.08-1.24-0.17-1.78c0.76,0.57,1.18,1.61,2.29,1.58
			c0.65-0.02,1.22-0.48,1.59-1.02c0.92-1.34,0.92-3.15,0.38-4.68c-0.11-0.32-0.25-0.63-0.39-0.94c0,0,0,0,0,0
			c-0.62-1.29-1.53-2.45-2.33-3.61c-0.2-0.28-0.47-0.44-0.78-0.54c0,0,0,0,0,0c-0.06-0.02-0.12-0.04-0.19-0.05
			c-0.09-0.02-0.22,0.03-0.29,0.09c-1.22,1.07-1.57,3.52-1.83,5.02c-0.18,1.04-0.27,2.09-0.28,3.15
			C70.58,50.46,70.61,51.26,70.69,52.05z M86.89,68.26c0.02-0.53,0.1-1.26,0.21-1.5c0.88,0,2.24,0.07,2.83,0.14
			c0.12,0,0.26,0.29,0.25,0.4c-0.04,0.42-0.08,0.52-0.1,0.94c-0.01,0.18-0.08,0.28-0.27,0.28c-0.71-0.01-1.41-0.01-2.12-0.03
			C87.64,68.49,86.89,68.4,86.89,68.26z M77.43,66.9c0.59-0.07,1.95-0.14,2.83-0.14c0.12,0.24,0.19,0.97,0.21,1.5
			c0.01,0.14-0.75,0.24-0.8,0.24c-0.71,0.02-1.41,0.02-2.12,0.03c-0.19,0-0.26-0.1-0.27-0.28c-0.03-0.42-0.06-0.52-0.1-0.94
			C77.18,67.19,77.32,66.9,77.43,66.9z"/>
		<path d="M22.02,42.06c0.57,0.63,1.79,0.82,2.47,0.32c0.75-0.55,0.93-1.32,0.23-2.03c-0.3-0.3-0.67-0.51-1.08-0.6
			c-1.04-0.24-2.04,0.57-1.96,1.41C21.67,41.54,21.76,41.76,22.02,42.06z"/>
		<path d="M27.72,42.13c0.38,0.31,0.81,0.47,1.3,0.46c0.68,0.04,1.05-0.38,1.28-0.92c0.19-0.44,0.15-0.93-0.31-1.37
			c-0.76-0.73-1.71-0.77-2.38-0.08C27.05,40.8,27.1,41.62,27.72,42.13z"/>
		<g>
			<path class="st4" d="M24.89,17.04c0.12-0.13,0.24-0.29,0.33-0.46C25.13,16.75,25.02,16.9,24.89,17.04z"/>
			<path class="st4" d="M24.02,17.59c0.08-0.02,0.16-0.05,0.24-0.09C24.18,17.53,24.1,17.56,24.02,17.59z"/>
			<path class="st4" d="M24.26,17.5c0.19-0.09,0.38-0.21,0.54-0.36C24.63,17.29,24.45,17.41,24.26,17.5z"/>
			<polygon class="st4" points="22.56,17.44 23.39,18.01 22.56,17.44 			"/>
			<path class="st4" d="M17.47,29.44c-0.55,0.27-0.69,0.79-0.73,1.26c0,0.58,0.2,1,0.54,1.33c0.41,0.4,1.21,0.42,1.53,0.04
				c0.45-0.52,0.62-1.1,0.4-1.77C18.96,29.47,18.19,29.08,17.47,29.44z"/>
			<path class="st4" d="M34.09,28.47c-0.47,0.08-0.75,0.41-0.89,0.85c-0.15,0.44-0.05,0.86,0.13,1.28c0.25,0.58,0.88,0.74,1.39,0.68
				c0.39-0.04,0.83-0.51,0.92-0.97c0.03-0.15,0.04-0.3,0.05-0.45c0.01-0.33-0.08-0.63-0.28-0.9C35.07,28.52,34.61,28.38,34.09,28.47
				z"/>
			<path class="st4" d="M34.37,18.97c0.65,0.06,1.22-0.1,1.69-0.43c0,0,0,0,0,0c0.48-0.33,0.87-0.82,1.16-1.41
				c0.23-0.48,0.33-0.96,0.33-1.45v0c0.01-0.67-0.17-1.33-0.42-1.99c-0.31-0.79-0.81-1.47-1.34-2.14c-0.08-0.1-0.16-0.19-0.24-0.29
				c-0.02,0.01-0.04,0.02-0.06,0.02c0.06,0.38,0.11,0.75,0.19,1.13c0.17,0.83,0.24,1.66,0.09,2.49c-0.12,0.73-0.37,1.44-0.99,1.89
				c-0.51,0.38-1.08,0.67-1.64,0.98c-0.22,0.12-0.47,0.2-0.74,0.32c0.05,0.04,0.1,0.08,0.15,0.12c0.42,0.34,0.87,0.56,1.36,0.67
				C34.06,18.94,34.21,18.96,34.37,18.97z"/>
			<path class="st4" d="M18.03,19.12c0.04-0.04,0.09-0.08,0.13-0.12c0.05-0.05,0.07-0.12,0.12-0.2c-0.06-0.02-0.1-0.04-0.13-0.04
				c-0.42-0.02-0.81-0.18-1.17-0.37c-0.92-0.49-1.5-1.26-1.74-2.28c-0.24-1.06-0.18-2.11-0.01-3.17c0.03-0.15,0.04-0.31,0.06-0.51
				c-0.32,0.15-0.52,0.36-0.67,0.6c-0.24,0.38-0.45,0.79-0.67,1.19c-0.57,1.03-0.79,2.14-0.6,3.3c0.08,0.5,0.24,0.95,0.5,1.34
				c0.25,0.39,0.6,0.71,1.05,0.96c0.06,0.03,0.13,0.07,0.19,0.1c0.43,0.2,0.89,0.27,1.35,0.18c0.12-0.02,0.24-0.06,0.36-0.1
				C17.29,19.79,17.66,19.45,18.03,19.12z"/>
			<path d="M25.7,17.83l-0.46-1.28c-0.01,0.01-0.01,0.02-0.02,0.03c-0.1,0.17-0.21,0.33-0.33,0.46c-0.03,0.03-0.06,0.07-0.1,0.1
				c-0.16,0.15-0.35,0.28-0.54,0.36c-0.08,0.04-0.16,0.06-0.24,0.09c-0.16,0.05-0.33,0.07-0.5,0.08c-0.31,0-0.64-0.07-0.95-0.22
				l0.82,0.57l-1.6,0.72c-0.03,0.45-0.06,0.9-0.04,1.35c0.02,0.42,0.14,0.84,0.22,1.25c0.04,0.19,0.15,0.24,0.33,0.2
				c0.68-0.15,1.16-0.55,1.44-1.18c0.1-0.23,0.17-0.46,0.28-0.76c0.31,0.4,0.61,0.76,0.88,1.15C25.2,21.22,25.53,21.67,26,22
				c0.07,0.05,0.15,0.1,0.23,0.15c0.48,0.27,0.92,0.1,0.98-0.45c0.06-0.51,0.01-1.03-0.03-1.54c-0.04-0.44-0.12-0.88-0.19-1.33
				l-2.97,0.21L25.7,17.83z"/>
			<path d="M13.85,18.84c0.14,0.24,0.3,0.44,0.5,0.63c0.34,0.32,0.57,0.4,0.74,0.43c-0.06-0.03-0.13-0.06-0.19-0.1
				C14.45,19.55,14.11,19.23,13.85,18.84z"/>
			<path d="M27.99,19.36c0.15,0.12,0.31,0.22,0.48,0.29c0.52,0.23,0.99-0.05,1.01-0.62c0-0.13,0-0.25-0.01-0.38l-2.12,0.15
				C27.56,18.99,27.77,19.18,27.99,19.36z"/>
		</g>
		<path d="M49.3,21.12c-0.45-0.53-0.98-0.97-1.62-1.23c-1.54-0.63-3.14-1.01-4.82-0.82c-0.35,0.04-0.7,0.08-1.03,0.17
			c-1.3,0.32-2.41,1-3.43,1.83c-0.5,0.4-0.93,0.9-1.39,1.34c-0.12,0.11-0.26,0.19-0.4,0.3c-0.35-0.85-0.94-1.49-1.48-2.21
			c0.17-0.02,0.31-0.04,0.45-0.06c1.74-0.2,2.86-1.17,3.45-2.78c0.51-1.42,0.28-2.82-0.28-4.17c-0.44-1.06-1.11-1.98-1.83-2.88
			c-0.7-0.88-1.59-1.37-2.73-1.35c-0.54,0.01-0.83,0.32-0.78,0.86c0.01,0.13,0.06,0.25,0.11,0.37c0.56,1.25,0.79,2.55,0.66,3.91
			c-0.09,0.93-0.53,1.6-1.44,1.95c-0.86,0.33-1.75,0.46-2.7,0.52c0.08-0.06,0.14-0.1,0.2-0.15c0.43-0.32,0.87-0.61,1.28-0.95
			c0.55-0.46,0.47-1.12-0.14-1.49c-0.67-0.41-1.38-0.45-2.11-0.25c-0.81,0.22-1.51,0.66-2.16,1.18c-0.12,0.1-0.25,0.19-0.39,0.3
			c-0.04-0.12-0.07-0.2-0.1-0.29c-0.18-0.49-0.41-0.93-0.85-1.24c-0.32-0.22-0.62-0.22-0.92,0.03c-0.09,0.07-0.18,0.15-0.24,0.24
			c-0.31,0.49-0.63,0.97-0.91,1.47c-0.1,0.18-0.19,0.23-0.37,0.15c-0.07-0.04-0.15-0.08-0.22-0.12c-0.36-0.17-0.71-0.4-1.09-0.51
			c-1-0.29-1.93-0.14-2.71,0.6c-0.14,0.13-0.23,0.35-0.26,0.54c-0.11,0.55,0.21,0.9,0.63,1.19c0.06,0.04,0.11,0.08,0.17,0.12
			c-0.12,0.05-0.23,0.08-0.32,0.05c-0.48-0.14-0.98-0.25-1.42-0.47c-0.73-0.36-1.21-0.95-1.35-1.78c-0.17-1-0.07-1.98,0.23-2.95
			c0.08-0.27,0.15-0.56,0.18-0.84c0.03-0.28-0.08-0.52-0.37-0.64c-1.41-0.54-2.4-0.31-3.25,0.79c-0.28,0.36-0.52,0.77-0.75,1.17
			c-0.8,1.35-1.29,2.77-1.14,4.38c0.12,1.29,0.54,2.44,1.51,3.34c0.53,0.5,1.13,0.86,1.89,0.9c0.24,0.02,0.47,0.06,0.73,0.1
			c-0.42,0.92-0.83,1.81-1.26,2.74c-0.12-0.09-0.23-0.17-0.33-0.26c-0.28-0.24-0.53-0.51-0.83-0.71c-1.32-0.9-2.81-1.27-4.39-1.27
			c-1.39,0-2.7,0.36-3.97,0.89c-0.97,0.41-1.83,0.94-2.51,1.76c-0.3,0.37-0.45,0.78-0.45,1.25c-0.01,0.64,0.31,1.14,0.68,1.6
			c1.35,1.67,3.09,2.78,5.14,3.37c2.25,0.65,4.37,0.22,6.38-1c0.01,0.15,0.03,0.28,0.03,0.42c0.08,1.4,0.24,2.78,0.48,4.16
			c0.04,0.24,0.09,0.48,0.13,0.73c0.27,1.38,0.63,2.74,1.05,4.08c0.02,0.05,0.03,0.11,0.05,0.16c0.48,1.5,1.16,2.91,2.13,4.15
			c0.67,0.85,1.45,1.58,2.44,2.04c1.02,0.48,2.12,0.71,3.23,0.83c1.6,0.18,3.18,0.09,4.76-0.26c1.79-0.4,3.4-1.15,4.78-2.38
			c1.33-1.19,2.21-2.67,2.83-4.32c0.18-0.49,0.34-0.98,0.47-1.48c0.31-1.18,0.5-2.39,0.63-3.61c0.02-0.21,0.04-0.42,0.06-0.63
			c0.21-2.24,0.25-4.48,0.25-6.72c0-0.11,0-0.22,0-0.36c0.32,0.15,0.61,0.29,0.91,0.42c1.13,0.46,2.31,0.63,3.52,0.65
			c0.84,0.01,1.67-0.07,2.46-0.38c1.36-0.54,2.56-1.31,3.55-2.4c0.65-0.72,1.19-1.5,1.55-2.4C49.79,22.21,49.75,21.64,49.3,21.12z
			 M33.15,17.79c0.55-0.31,1.13-0.6,1.64-0.98c0.62-0.46,0.87-1.16,0.99-1.89c0.14-0.83,0.08-1.66-0.09-2.49
			c-0.08-0.37-0.13-0.75-0.19-1.13c0.02-0.01,0.04-0.02,0.06-0.02c0.08,0.1,0.17,0.19,0.24,0.29c0.52,0.66,1.03,1.35,1.34,2.14
			c0.26,0.65,0.43,1.32,0.42,1.99v0c0,0.48-0.1,0.97-0.33,1.45c-0.28,0.6-0.67,1.09-1.16,1.41c0,0,0,0,0,0
			c-0.48,0.32-1.05,0.49-1.69,0.43c-0.16-0.01-0.31-0.04-0.46-0.07c-0.49-0.11-0.94-0.34-1.36-0.67c-0.05-0.04-0.1-0.08-0.15-0.12
			C32.68,17.99,32.93,17.91,33.15,17.79z M19.22,30.29c0.22,0.68,0.04,1.26-0.4,1.77c-0.33,0.38-1.13,0.36-1.53-0.04
			c-0.34-0.34-0.54-0.75-0.54-1.33c0.03-0.47,0.18-0.99,0.73-1.26C18.19,29.08,18.96,29.47,19.22,30.29z M15.09,19.9
			c-0.17-0.02-0.4-0.11-0.74-0.43c-0.2-0.19-0.36-0.39-0.5-0.63c-0.26-0.39-0.42-0.84-0.5-1.34c-0.19-1.16,0.04-2.26,0.6-3.3
			c0.22-0.4,0.43-0.8,0.67-1.19c0.15-0.24,0.35-0.45,0.67-0.6c-0.02,0.2-0.04,0.36-0.06,0.51c-0.17,1.06-0.24,2.11,0.01,3.17
			c0.24,1.02,0.82,1.79,1.74,2.28c0.36,0.19,0.75,0.35,1.17,0.37c0.03,0,0.07,0.02,0.13,0.04c-0.05,0.08-0.07,0.16-0.12,0.2
			c-0.05,0.04-0.09,0.08-0.13,0.12c-0.37,0.34-0.74,0.67-1.22,0.86c-0.12,0.05-0.24,0.08-0.36,0.1
			C15.98,20.17,15.52,20.1,15.09,19.9z M32.29,42.43c-0.82,0.88-1.86,1.4-2.97,1.81c-0.96,0.35-1.96,0.49-2.97,0.55
			c-1.04,0.06-2.08,0.06-3.11-0.13c-1.39-0.26-2.63-0.8-3.53-1.95c-0.47-0.6-0.84-1.27-1.01-2.02c-0.21-0.94,0.06-1.78,0.57-2.56
			c0.01-0.02,0.03-0.04,0.04-0.07c0.51-0.76,1.27-1.13,2.11-1.38c0.73-0.22,1.46-0.41,2.2-0.6c0.14-0.04,0.21-0.1,0.22-0.26
			c0.01-0.83,0.01-1.66-0.04-2.48c-0.04-0.66-0.1-1.31-0.22-1.97c-0.21-1.2-0.38-2.41-0.63-3.61c-0.34-1.63-0.68-3.26-1.57-4.71
			c-0.29-0.47-0.57-0.95-0.85-1.43c-0.34-0.6-0.54-1.25-0.67-1.93c-0.01-0.06,0.03-0.16,0.08-0.2c0.01-0.01,0.03-0.02,0.04-0.03
			c0.55-0.48,1.19-0.8,1.83-1.08c-0.01,0.12-0.01,0.23-0.02,0.35l1.6-0.72l-0.82-0.57c0,0,0,0,0,0c0.32,0.16,0.64,0.23,0.95,0.22
			c0.17,0,0.34-0.03,0.5-0.08c0.08-0.02,0.16-0.05,0.24-0.09c0.19-0.09,0.38-0.21,0.54-0.36c0.03-0.03,0.06-0.06,0.1-0.1
			c0.12-0.13,0.24-0.29,0.33-0.46c0.01-0.01,0.01-0.02,0.02-0.03l0.46,1.28l-1.69,1.21l2.97-0.21c-0.01-0.04-0.01-0.08-0.02-0.12
			c-0.01-0.06-0.01-0.12-0.02-0.24c0.11,0.08,0.17,0.13,0.24,0.18c0.06,0.05,0.11,0.1,0.17,0.15l2.12-0.15
			c-0.01-0.21-0.03-0.43-0.05-0.64c0-0.07-0.02-0.15-0.03-0.29c0.12,0.11,0.19,0.18,0.27,0.25c0.24,0.21,0.48,0.41,0.72,0.62
			c0.11,0.1,0.22,0.2,0.33,0.3c0.07,0.07,0.12,0.19,0.13,0.29c0.03,0.79-0.14,1.54-0.41,2.27c-0.44,1.2-0.98,2.37-1.27,3.63
			c-0.24,1.02-0.33,2.05-0.4,3.09c-0.04,0.74-0.04,1.47-0.05,2.21c-0.01,0.9,0.03,1.8,0.13,2.7c0.05,0.46,0.1,0.91,0.17,1.36
			c0.07,0.5,0.16,1,0.24,1.51c0.03,0.19,0.19,0.19,0.32,0.23c0.52,0.16,1.05,0.3,1.56,0.49c0.44,0.16,0.82,0.39,1.14,0.69
			c0.27,0.25,0.49,0.55,0.66,0.9C33.66,39.78,33.44,41.2,32.29,42.43z M35.64,30.31c-0.09,0.47-0.53,0.93-0.92,0.97
			c-0.51,0.05-1.14-0.11-1.39-0.68c-0.18-0.42-0.28-0.84-0.13-1.28c0.14-0.44,0.42-0.77,0.89-0.85c0.52-0.09,0.98,0.05,1.31,0.49
			c0.2,0.27,0.29,0.56,0.28,0.9C35.67,30.01,35.66,30.16,35.64,30.31z"/>
		<g>
			<path d="M55.82,46.13l-0.21-0.12v0.86l0.05,0.04c0.08,0.06,0.14,0.13,0.2,0.2c0.23,0.28,0.34,0.64,0.3,1.01
				c-0.04,0.36-0.22,0.69-0.5,0.92c-0.24,0.2-0.55,0.3-0.86,0.3c-0.42,0-0.81-0.19-1.07-0.51c-0.23-0.28-0.34-0.64-0.3-1.01
				c0.04-0.36,0.22-0.69,0.5-0.92l0.05-0.04v-0.86l-0.21,0.12c-0.49,0.27-0.85,0.72-1.01,1.26c-0.16,0.54-0.09,1.11,0.18,1.61
				c0.37,0.68,1.08,1.09,1.85,1.09c0.35,0,0.71-0.09,1.02-0.26c0.49-0.27,0.85-0.72,1.01-1.26c0.16-0.54,0.09-1.11-0.18-1.61
				C56.46,46.61,56.17,46.32,55.82,46.13z"/>
			<path d="M103.17,40.45c-0.11-0.1-0.24-0.2-0.38-0.28c-1.66-1.47-3.53-2.68-5.55-3.67c-0.26,1.17-0.59,2.39-1,3.69
				c-0.06,0.18-0.12,0.35-0.18,0.52c0.66,0.36,1.25,0.73,1.79,1.14c0.79,0.61,1.56,1.25,2.29,1.92c0.41,0.38,0.95,0.58,1.51,0.58
				c0.63,0,1.24-0.27,1.66-0.74c0.4-0.44,0.61-1.02,0.58-1.62C103.87,41.41,103.61,40.86,103.17,40.45z"/>
			<path d="M71.57,34.84c-0.02-0.21-0.04-0.42-0.06-0.64c-1.54,0.37-3.88,1.05-5.42,1.4c-3.7,0.84-7.49,1.26-11.28,1.26h0
				c-3.79,0-7.59-0.42-11.28-1.26c-1.25-0.29-3.04-0.79-4.49-1.16c-0.01,0.13-0.03,0.27-0.04,0.4c-0.16,1.51-0.38,2.76-0.69,3.9
				c2.47,0.77,4.9,1.82,7.01,3.26c2.79,1.91,6.12,2.91,9.5,2.91s6.71-1,9.5-2.91c2.36-1.62,5.12-2.74,7.88-3.52
				C71.92,37.41,71.72,36.23,71.57,34.84z"/>
			<path d="M108.07,24.89c-0.68-0.82-1.54-1.36-2.51-1.76c-1.27-0.53-2.58-0.89-3.97-0.89c-1.59,0-3.07,0.37-4.39,1.27
				c-0.3,0.2-0.55,0.48-0.83,0.71c-0.1,0.09-0.21,0.17-0.33,0.26c-0.42-0.92-0.83-1.81-1.26-2.74c0.25-0.04,0.49-0.08,0.73-0.1
				c0.75-0.05,1.36-0.41,1.89-0.9c0.96-0.9,1.39-2.05,1.51-3.34c0.15-1.6-0.34-3.03-1.14-4.38c-0.24-0.4-0.47-0.8-0.75-1.17
				c-0.85-1.1-1.84-1.33-3.25-0.79c-0.3,0.11-0.4,0.35-0.37,0.64c0.03,0.28,0.1,0.57,0.18,0.84c0.29,0.97,0.4,1.94,0.23,2.95
				c-0.14,0.83-0.62,1.42-1.35,1.78c-0.44,0.22-0.94,0.32-1.42,0.47c-0.09,0.03-0.2,0-0.32-0.05c0.06-0.04,0.11-0.08,0.17-0.12
				c0.42-0.29,0.74-0.64,0.63-1.19c-0.04-0.19-0.13-0.41-0.26-0.54c-0.78-0.73-1.71-0.89-2.71-0.6c-0.38,0.11-0.73,0.34-1.09,0.51
				c-0.08,0.04-0.15,0.08-0.22,0.12c-0.18,0.09-0.27,0.04-0.37-0.15c-0.28-0.5-0.6-0.99-0.91-1.47c-0.06-0.09-0.15-0.17-0.24-0.24
				c-0.3-0.25-0.6-0.25-0.92-0.03c-0.44,0.3-0.67,0.75-0.85,1.24c-0.03,0.08-0.06,0.17-0.1,0.29c-0.14-0.11-0.27-0.2-0.39-0.3
				c-0.65-0.52-1.35-0.97-2.16-1.18c-0.73-0.2-1.44-0.16-2.11,0.25c-0.61,0.37-0.68,1.03-0.14,1.49c0.41,0.34,0.85,0.64,1.28,0.95
				c0.06,0.04,0.12,0.09,0.2,0.15c-0.95-0.07-1.84-0.2-2.7-0.52c-0.91-0.35-1.36-1.02-1.44-1.95c-0.12-1.36,0.1-2.66,0.66-3.91
				c0.05-0.12,0.09-0.24,0.11-0.37c0.06-0.53-0.24-0.85-0.78-0.86c-1.14-0.02-2.03,0.47-2.73,1.35c-0.71,0.89-1.38,1.82-1.83,2.88
				c-0.56,1.35-0.79,2.75-0.28,4.17c0.58,1.61,1.71,2.58,3.45,2.78c0.14,0.02,0.28,0.04,0.45,0.06c-0.54,0.71-1.13,1.35-1.48,2.21
				c-0.14-0.11-0.28-0.19-0.4-0.3c-0.47-0.45-0.89-0.94-1.39-1.34c-1.02-0.83-2.13-1.51-3.43-1.83c-0.34-0.08-0.69-0.13-1.03-0.17
				c-1.68-0.19-3.28,0.18-4.82,0.82c-0.64,0.26-1.17,0.7-1.62,1.23c-0.44,0.52-0.49,1.09-0.25,1.7c0.36,0.9,0.9,1.68,1.55,2.4
				c0.99,1.1,2.19,1.87,3.55,2.4c0.79,0.31,1.62,0.4,2.46,0.38c1.21-0.02,2.39-0.19,3.52-0.65c0.3-0.12,0.59-0.27,0.91-0.42
				c0,0.14,0,0.25,0,0.36c0,2.18,0.04,4.36,0.23,6.53c0.02,0.27,0.05,0.55,0.08,0.82c0.12,1.14,0.29,2.28,0.57,3.39
				c0.14,0.57,0.32,1.14,0.53,1.7c0.62,1.65,1.5,3.13,2.83,4.32c1.38,1.23,2.99,1.98,4.78,2.38c1.57,0.35,3.16,0.44,4.76,0.26
				c1.11-0.12,2.21-0.36,3.23-0.83c0.99-0.46,1.77-1.19,2.44-2.04c0.92-1.18,1.58-2.5,2.05-3.91c0.03-0.08,0.05-0.16,0.08-0.24
				c0.41-1.28,0.76-2.58,1.03-3.9c0.07-0.36,0.14-0.71,0.2-1.07c0.24-1.38,0.4-2.77,0.48-4.16c0.01-0.14,0.02-0.27,0.03-0.42
				c2.01,1.22,4.13,1.64,6.38,1c2.05-0.59,3.79-1.7,5.14-3.37c0.37-0.46,0.69-0.96,0.68-1.6C108.51,25.67,108.37,25.26,108.07,24.89
				z M74.49,18.55c-0.48-0.33-0.87-0.82-1.16-1.41c-0.23-0.48-0.33-0.96-0.33-1.45c-0.01-0.67,0.17-1.33,0.42-1.99
				c0.31-0.79,0.81-1.47,1.34-2.14c0.08-0.1,0.16-0.19,0.24-0.29c0.02,0.01,0.04,0.02,0.06,0.02c-0.06,0.38-0.11,0.75-0.19,1.13
				c-0.17,0.83-0.24,1.66-0.09,2.49c0.12,0.73,0.37,1.44,0.99,1.89c0.51,0.38,1.08,0.67,1.64,0.98c0.22,0.12,0.47,0.2,0.74,0.32
				c-0.05,0.04-0.1,0.08-0.15,0.12c-0.42,0.34-0.87,0.56-1.36,0.67c-0.15,0.03-0.3,0.06-0.46,0.07
				C75.53,19.03,74.96,18.87,74.49,18.55z M75.83,31.29c-0.39-0.04-0.83-0.51-0.92-0.97c-0.03-0.15-0.04-0.3-0.05-0.45
				c-0.01-0.33,0.08-0.63,0.28-0.9c0.33-0.45,0.8-0.58,1.31-0.49c0.47,0.08,0.75,0.41,0.89,0.85c0.15,0.44,0.05,0.86-0.13,1.28
				C76.97,31.18,76.34,31.34,75.83,31.29z M91.84,40.69c-0.17,0.75-0.54,1.42-1.01,2.02c-0.9,1.14-2.13,1.69-3.53,1.95
				c-1.03,0.19-2.07,0.19-3.11,0.13c-1.01-0.06-2.01-0.2-2.97-0.55c-1.11-0.41-2.15-0.93-2.97-1.81c-1.15-1.23-1.37-2.65-0.64-4.16
				c0.21-0.43,0.49-0.78,0.83-1.05c0.28-0.23,0.61-0.4,0.96-0.54c0.51-0.19,1.04-0.32,1.56-0.49c0.13-0.04,0.29-0.04,0.32-0.23
				c0.08-0.5,0.17-1,0.24-1.51c0.07-0.45,0.12-0.91,0.17-1.36c0.09-0.9,0.14-1.8,0.13-2.7c-0.01-0.74-0.01-1.48-0.05-2.21
				c-0.06-1.04-0.16-2.07-0.4-3.09c-0.29-1.26-0.83-2.43-1.27-3.63c-0.27-0.74-0.43-1.49-0.41-2.27c0-0.1,0.06-0.23,0.13-0.29
				c0.11-0.1,0.22-0.2,0.33-0.3c0.24-0.21,0.48-0.41,0.72-0.62c0.08-0.07,0.15-0.14,0.27-0.25c-0.02,0.15-0.03,0.22-0.03,0.29
				c-0.01,0.21-0.03,0.43-0.05,0.64c-0.01,0.13-0.01,0.25-0.01,0.38c0.02,0.57,0.48,0.85,1.01,0.62c0.17-0.08,0.34-0.18,0.48-0.29
				c0.22-0.18,0.43-0.37,0.64-0.55c0.06-0.05,0.11-0.1,0.17-0.15c0.06-0.05,0.13-0.1,0.24-0.18c-0.01,0.12-0.02,0.18-0.02,0.24
				c-0.01,0.04-0.01,0.08-0.02,0.12c-0.07,0.44-0.15,0.88-0.19,1.33c-0.04,0.51-0.09,1.04-0.03,1.54c0.06,0.55,0.5,0.72,0.98,0.45
				c0.08-0.04,0.16-0.1,0.23-0.15c0.47-0.33,0.8-0.78,1.11-1.25c0.26-0.39,0.57-0.75,0.88-1.15c0.11,0.29,0.17,0.53,0.28,0.76
				c0.28,0.63,0.76,1.03,1.44,1.18c0.18,0.04,0.3-0.02,0.33-0.2c0.08-0.42,0.2-0.83,0.22-1.25c0.02-0.45-0.02-0.9-0.05-1.35
				c-0.01-0.12-0.01-0.23-0.02-0.35c0.64,0.27,1.28,0.6,1.83,1.08c0.01,0.01,0.03,0.02,0.04,0.03c0.05,0.04,0.09,0.14,0.08,0.2
				c-0.13,0.67-0.33,1.33-0.67,1.93c-0.28,0.48-0.56,0.96-0.85,1.43c-0.88,1.45-1.23,3.08-1.57,4.71c-0.25,1.19-0.42,2.41-0.63,3.61
				c-0.12,0.69-0.19,1.39-0.22,2.08c-0.04,0.79-0.04,1.58-0.03,2.37c0,0.16,0.07,0.22,0.22,0.26c0.73,0.19,1.47,0.38,2.2,0.6
				c0.84,0.25,1.6,0.62,2.11,1.38c0.11,0.16,0.2,0.32,0.29,0.48C91.87,39.2,92.02,39.91,91.84,40.69z M93.26,32.03
				c-0.41,0.4-1.21,0.42-1.53,0.04c-0.45-0.52-0.62-1.1-0.4-1.77c0.26-0.82,1.03-1.21,1.75-0.85c0.55,0.27,0.69,0.79,0.73,1.26
				C93.81,31.28,93.61,31.69,93.26,32.03z M94.11,20.08c-0.12-0.02-0.24-0.06-0.36-0.1c-0.48-0.18-0.85-0.52-1.22-0.86
				c-0.04-0.04-0.09-0.08-0.13-0.12c-0.05-0.05-0.07-0.12-0.12-0.2c0.06-0.02,0.1-0.04,0.13-0.04c0.42-0.02,0.81-0.18,1.17-0.37
				c0.92-0.49,1.5-1.26,1.74-2.28c0.24-1.06,0.18-2.11,0.01-3.17c-0.03-0.15-0.04-0.31-0.06-0.51c0.32,0.15,0.52,0.36,0.67,0.6
				c0.24,0.38,0.45,0.79,0.67,1.19c0.57,1.03,0.79,2.14,0.6,3.3c-0.08,0.5-0.24,0.95-0.5,1.34c-0.25,0.39-0.6,0.71-1.05,0.96
				c-0.06,0.03-0.13,0.07-0.19,0.1C95.03,20.1,94.57,20.17,94.11,20.08z"/>
			<path d="M86.06,42.37c0.68,0.5,1.9,0.32,2.47-0.32c0.26-0.29,0.35-0.51,0.35-0.91c0.08-0.85-0.92-1.65-1.96-1.41
				c-0.41,0.09-0.78,0.3-1.08,0.6C85.12,41.05,85.31,41.82,86.06,42.37z"/>
			<path d="M80.26,41.67c0.24,0.54,0.6,0.96,1.28,0.92c0.48,0.01,0.92-0.15,1.3-0.46c0.62-0.51,0.67-1.33,0.11-1.9
				c-0.68-0.7-1.62-0.66-2.38,0.08C80.1,40.74,80.07,41.23,80.26,41.67z"/>
		</g>
	</g>
</g>
</svg>
