<?xml version="1.0" encoding="utf-8"?>
<!-- Generator: Adobe Illustrator 28.1.0, SVG Export Plug-In . SVG Version: 6.00 Build 0)  -->
<svg version="1.1" id="Layer_1" xmlns="http://www.w3.org/2000/svg" xmlns:xlink="http://www.w3.org/1999/xlink" x="0px" y="0px"
	 viewBox="0 0 110.55 76.54" style="enable-background:new 0 0 110.55 76.54;" xml:space="preserve">
<style type="text/css">
	.st0{display:none;}
	.st1{display:inline;fill:none;}
	.st2{fill:#808080;}
</style>
<g id="Layer_2_00000073722119373351752270000017113015111246931634_" class="st0">
	<line class="st1" x1="-24.13" y1="74.54" x2="142.13" y2="74.54"/>
	<line class="st1" x1="-24.13" y1="2" x2="142.13" y2="2"/>
</g>
<path class="st2" d="M3521.66,2698.06c6.59,0,11.96-5.36,11.96-11.96s-5.36-11.96-11.96-11.96"/>
<path class="st2" d="M3502.66,2733.64h29.9h8.09v-22.07c0-5.45-3.31-10.13-8.02-12.16c-2.98,2.47-6.81,3.95-10.97,3.95"/>
<path class="st2" d="M3585.78,2698.06c6.59,0,11.96-5.36,11.96-11.96s-5.36-11.96-11.96-11.96c-6.59,0-11.96,5.36-11.96,11.96
	S3579.19,2698.06,3585.78,2698.06z"/>
<path class="st2" d="M3604.78,2711.57c0-5.45-3.31-10.13-8.02-12.16c-2.98,2.47-6.81,3.95-10.97,3.95s-7.99-1.48-10.97-3.95
	c-4.71,2.03-8.02,6.71-8.02,12.16v22.07h8.09h29.9"/>
<path class="st2" d="M3553.72,2691.6c7.4,0,13.42-6.02,13.42-13.42s-6.02-13.42-13.42-13.42c-7.4,0-13.42,6.02-13.42,13.42
	S3546.32,2691.6,3553.72,2691.6z"/>
<path class="st2" d="M3571.09,2695.34c-1.38-1.41-3.08-2.51-4.97-3.19c-3.31,2.93-7.64,4.73-12.4,4.73s-9.09-1.8-12.4-4.73
	c-1.89,0.68-3.59,1.78-4.97,3.19c5.71,3.16,9.59,9.24,9.59,16.22v22.07h15.55v-22.07
	C3561.49,2704.59,3565.38,2698.5,3571.09,2695.34z"/>
<g transform="translate(0,-288.53332)">
	<path d="M39.65,356.84l10.22-7.66l-10.22-7.66l0,4.79h-14.9l0,5.75h14.9L39.65,356.84z"/>
</g>
<g>
	<path d="M58.4,3.71c10.99,0,20.5,8.73,20.5,23.45c0,3.02-0.4,6.16-1.13,9.26l-0.24,0.98l-0.06,0.24l-1.15-0.42l-16.68-5.96
		l-5.12,6.31l-4.18-3.87l-8.5,7.81l-0.98,0.86c-1.87-4.88-2.96-10.21-2.96-15.21C37.89,12.41,47.41,3.71,58.4,3.71z"/>
	<path d="M45.29,43.48c0.34,0,0.62,0.28,0.62,0.62v4.35c0,0.34-0.28,0.62-0.62,0.62c-0.34,0-0.62-0.28-0.62-0.62V44.1
		C44.67,43.75,44.95,43.48,45.29,43.48z"/>
	<path d="M50.27,37.26c0.34,0,0.62,0.28,0.62,0.62v4.35c0,0.34-0.28,0.62-0.62,0.62c-0.34,0-0.62-0.28-0.62-0.62v-4.35
		C49.65,37.54,49.93,37.26,50.27,37.26z"/>
</g>
<g>
	<g transform="translate(-418.000000, -308.000000)">
		<path d="M495.13,366.99c0,6.18-5.02,11.18-11.2,11.18s-11.2-5.01-11.2-11.18c0-6.18,5.02-11.18,11.2-11.18
			S495.13,360.81,495.13,366.99z M490.32,368.75l-0.06,0.2c-0.82,2.59-2.76,4.36-5.22,4.81l-0.19,0.03l0.19,1.23l0.2-0.03
			c2.94-0.53,5.26-2.64,6.21-5.69l0.06-0.2l0.03-0.11l-1.2-0.34L490.32,368.75z"/>
	</g>
</g>
</svg>
